<svg width="16" height="25" viewBox="0 0 16 25" fill="none" xmlns="http://www.w3.org/2000/svg">
<path d="M15.1164 17.5013C15.2751 17.3308 15.3545 17.0752 15.3545 16.9048C15.3545 16.7343 15.2751 16.4787 15.1164 16.3083C14.7989 15.9674 14.3227 15.9674 14.0053 16.3083L8.68783 22.1028L8.68782 0.852129C8.68782 0.34085 8.37036 -2.25773e-06 7.89417 -2.23692e-06C7.41798 -2.2161e-06 7.10052 0.34085 7.10052 0.852129L7.10052 22.1028L1.7037 16.3083C1.38624 15.9674 0.910047 15.9674 0.592587 16.3083C0.275127 16.6491 0.275127 17.1604 0.592587 17.5013L7.33862 24.7444C7.65608 25.0852 8.13227 25.0852 8.44973 24.7444L15.1164 17.5013Z" fill="#666666"/>
</svg>
