<svg width="16" height="26" viewBox="0 0 16 26" fill="none" xmlns="http://www.w3.org/2000/svg">
<path d="M15.2642 18.0013C15.4229 17.8308 15.5023 17.5752 15.5023 17.4048C15.5023 17.2343 15.4229 16.9787 15.2642 16.8083C14.9467 16.4674 14.4704 16.4674 14.1529 16.8083L8.83462 22.6028L8.83462 1.35213C8.83462 0.84085 8.51711 0.499998 8.04085 0.499998C7.56458 0.499998 7.24707 0.840851 7.24707 1.35213L7.24707 22.6028L1.84941 16.8083C1.5319 16.4674 1.05564 16.4674 0.738132 16.8083C0.420622 17.1491 0.420622 17.6604 0.738132 18.0013L7.48521 25.2444C7.80272 25.5852 8.27898 25.5852 8.59649 25.2444L15.2642 18.0013Z" fill="#A51140"/>
</svg>
