<svg width="43" height="43" viewBox="0 0 43 43" fill="none" xmlns="http://www.w3.org/2000/svg">
<path fill-rule="evenodd" clip-rule="evenodd" d="M22.5 42H21.4969H21V41.9941C9.9078 41.7303 1 32.6557 1 21.5C1 10.3453 9.90917 1.27146 21 1.00598V1H21.5H22.5H43V21.4781C43 21.4854 43 21.4927 43 21.5C43 21.5073 43 21.5146 43 21.5219V42H22.5Z" fill="white" fill-opacity="0.8"/>
<path d="M28.634 25.3647C28.5423 25.3652 28.4514 25.3476 28.3665 25.313C28.2816 25.2783 28.2044 25.2272 28.1393 25.1626L21.6668 18.6831L15.1942 25.1626C15.063 25.2938 14.8851 25.3675 14.6996 25.3675C14.514 25.3675 14.3361 25.2938 14.2049 25.1626C14.0737 25.0314 14 24.8535 14 24.668C14 24.4824 14.0737 24.3045 14.2049 24.1733L21.1721 17.2061C21.2369 17.1408 21.3139 17.089 21.3988 17.0536C21.4837 17.0182 21.5748 17 21.6668 17C21.7587 17 21.8498 17.0182 21.9347 17.0536C22.0196 17.089 22.0967 17.1408 22.1614 17.2061L29.1286 24.1733C29.1939 24.238 29.2458 24.3151 29.2811 24.4C29.3165 24.4849 29.3347 24.576 29.3347 24.668C29.3347 24.7599 29.3165 24.851 29.2811 24.9359C29.2458 25.0208 29.1939 25.0979 29.1286 25.1626C29.0635 25.2272 28.9863 25.2783 28.9014 25.313C28.8165 25.3476 28.7256 25.3652 28.634 25.3647Z" fill="#A51890"/>
<path d="M43 42H21.5C10.1782 42 1 32.8218 1 21.5V21.5C1 10.1782 10.1782 1 21.5 1H43" stroke="#A51890" stroke-width="2"/>
</svg>
