<svg width="53" height="53" viewBox="0 0 53 53" fill="none" xmlns="http://www.w3.org/2000/svg">
<path fill-rule="evenodd" clip-rule="evenodd" d="M22.535 51.1056C32.7715 51.1056 41.07 42.765 41.07 32.4765C41.07 22.188 22.535 1 22.535 1C22.535 1 4 22.188 4 32.4765C4 42.765 12.2983 51.1056 22.535 51.1056ZM12.2016 35.9732C12.1685 35.4932 11.7525 35.1308 11.2726 35.1639C10.7926 35.197 10.4303 35.613 10.4634 36.093C10.6203 38.3679 12.5093 43.1549 18.5654 45.4043C19.0165 45.5718 19.5178 45.342 19.6853 44.891C19.8528 44.4399 19.623 43.9385 19.172 43.771C13.822 41.7839 12.3164 37.6361 12.2016 35.9732Z" fill="#FCDEE2"/>
<path fill-rule="evenodd" clip-rule="evenodd" d="M34.6414 34.1064L33.0218 32.7896C31.8085 31.803 29.9197 31.8905 28.8029 32.9852L28.5291 33.2535C27.4125 34.3482 27.4907 36.0352 28.704 37.0216L35.7493 42.7501C36.3493 43.238 37.1147 43.4632 37.8702 43.4338C38.6258 43.4632 39.3911 43.238 39.9914 42.7501L47.0367 37.0216C48.2498 36.0352 48.3282 34.3482 47.2113 33.2535L46.9376 32.9852C45.8209 31.8905 43.9322 31.803 42.7188 32.7896L41.0538 34.1434V15.5921C41.0538 14.0284 39.786 12.7607 38.2224 12.7607H37.4727C35.909 12.7607 34.6414 14.0284 34.6414 15.5921V34.1064Z" fill="#5C068C"/>
</svg>
