<svg width="73" height="72" viewBox="0 0 73 72" fill="none" xmlns="http://www.w3.org/2000/svg">
<path fill-rule="evenodd" clip-rule="evenodd" d="M42.9087 6.33313H25.9087V11.4997C25.9087 14.5373 23.4462 16.9997 20.4086 16.9997C17.3711 16.9997 14.9086 14.5373 14.9086 11.4997V6.33313H11.1201C5.84807 6.33313 1.57422 10.607 1.57422 15.879V62.4541C1.57422 67.7262 5.84806 72 11.1201 72H57.6952C62.9673 72 67.2411 67.7262 67.2411 62.4541V15.879C67.2411 10.607 62.9673 6.33313 57.6952 6.33313H53.9088V11.4997C53.9088 14.5373 51.4463 16.9997 48.4087 16.9997C45.3712 16.9997 42.9087 14.5373 42.9087 11.4997V6.33313ZM60.2415 24H8.908V66.0002H60.2415V24Z" fill="#B8D7C9"/>
<path d="M25.5742 40.7727L34.7617 50L67.5742 21" stroke="#5C068C" stroke-width="8" stroke-linecap="round" stroke-linejoin="round"/>
<rect x="16.2412" width="8.33336" height="15.6667" rx="4.16668" fill="#5C068C"/>
<rect x="44.2422" width="8.33336" height="15.6667" rx="4.16668" fill="#5C068C"/>
</svg>
