<svg width="53" height="53" viewBox="0 0 53 53" fill="none" xmlns="http://www.w3.org/2000/svg">
<path fill-rule="evenodd" clip-rule="evenodd" d="M11.2587 48.1735C23.229 56.5915 39.7569 53.7119 48.1749 41.7414C56.5928 29.7712 53.7132 13.2432 41.7428 4.8252L11.2587 48.1735Z" fill="#E3EFE9"/>
<path fill-rule="evenodd" clip-rule="evenodd" d="M41.7413 4.82503C29.7711 -3.59293 13.243 -0.713155 4.82503 11.2572C-3.59293 23.2275 -0.713155 39.7554 11.2572 48.1734L41.7413 4.82503Z" fill="#B8D7C9"/>
<path fill-rule="evenodd" clip-rule="evenodd" d="M22.8484 14.1646C22.8484 12.8062 21.5787 11.7973 20.3183 12.3043C14.0558 14.8234 9.63477 20.9544 9.63477 28.1182C9.63477 37.5284 17.2633 45.157 26.6733 45.157C36.0836 45.157 43.7121 37.5284 43.7121 28.1182C43.7121 20.9053 39.23 14.7391 32.8992 12.2528C31.6388 11.7579 30.3781 12.7674 30.3781 14.1213C30.3781 15.0585 31.0026 15.8682 31.862 16.242C36.4789 18.2513 39.7072 22.8539 39.7072 28.2103C39.7072 35.4156 33.8662 41.2564 26.6609 41.2564C19.4559 41.2564 13.6148 35.4156 13.6148 28.2103C13.6148 22.8839 16.8069 18.3028 21.3825 16.2762C22.2328 15.8995 22.8484 15.0945 22.8484 14.1646Z" fill="#5C068C"/>
<path d="M26.8122 8.20312H26.8122C25.4693 8.20312 24.3807 9.29172 24.3807 10.6346V21.4585C24.3807 22.8013 25.4693 23.8899 26.8122 23.8899H26.8122C28.1551 23.8899 29.2437 22.8013 29.2437 21.4585V10.6346C29.2437 9.29172 28.1551 8.20312 26.8122 8.20312Z" fill="#5C068C"/>
<path d="M26.8122 8.20312H26.8122C25.4693 8.20312 24.3807 9.29172 24.3807 10.6346V21.4585C24.3807 22.8013 25.4693 23.8899 26.8122 23.8899H26.8122C28.1551 23.8899 29.2437 22.8013 29.2437 21.4585V10.6346C29.2437 9.29172 28.1551 8.20312 26.8122 8.20312Z" stroke="white"/>
</svg>
