<svg width="156" height="156" viewBox="0 0 156 156" fill="none" xmlns="http://www.w3.org/2000/svg">
<path d="M52.8677 114V103.504H55.8597C56.4464 103.504 56.9797 103.557 57.4597 103.664C57.9504 103.771 58.3664 103.947 58.7077 104.192C59.0491 104.427 59.3157 104.741 59.5077 105.136C59.6997 105.531 59.7957 106.016 59.7957 106.592C59.7957 107.147 59.6997 107.627 59.5077 108.032C59.3264 108.437 59.0651 108.773 58.7237 109.04C58.3824 109.307 57.9717 109.509 57.4917 109.648C57.0224 109.776 56.4997 109.84 55.9237 109.84H54.1957V114H52.8677ZM54.1957 108.752H55.7637C56.6811 108.752 57.3584 108.581 57.7957 108.24C58.2437 107.888 58.4677 107.339 58.4677 106.592C58.4677 105.835 58.2331 105.312 57.7637 105.024C57.3051 104.725 56.6171 104.576 55.6997 104.576H54.1957V108.752ZM63.1942 114.192C62.6929 114.192 62.3356 114.043 62.1222 113.744C61.9089 113.445 61.8022 113.008 61.8022 112.432V102.608H63.1142V112.528C63.1142 112.741 63.1516 112.891 63.2262 112.976C63.3009 113.061 63.3862 113.104 63.4822 113.104C63.5249 113.104 63.5622 113.104 63.5942 113.104C63.6369 113.104 63.6956 113.093 63.7702 113.072L63.9462 114.064C63.8609 114.107 63.7596 114.139 63.6422 114.16C63.5249 114.181 63.3756 114.192 63.1942 114.192ZM67.6724 114.192C67.0217 114.192 66.4777 114 66.0404 113.616C65.6137 113.232 65.4004 112.688 65.4004 111.984C65.4004 111.131 65.779 110.48 66.5364 110.032C67.2937 109.573 68.5044 109.253 70.1684 109.072C70.1684 108.827 70.1417 108.587 70.0884 108.352C70.0457 108.117 69.9657 107.909 69.8484 107.728C69.731 107.547 69.5657 107.403 69.3524 107.296C69.1497 107.179 68.8884 107.12 68.5684 107.12C68.1204 107.12 67.699 107.205 67.3044 107.376C66.9097 107.547 66.5577 107.739 66.2484 107.952L65.7364 107.04C66.099 106.805 66.5417 106.581 67.0644 106.368C67.587 106.144 68.163 106.032 68.7924 106.032C69.7417 106.032 70.4297 106.325 70.8564 106.912C71.283 107.488 71.4964 108.261 71.4964 109.232V114H70.4084L70.2964 113.072H70.2484C69.875 113.381 69.475 113.648 69.0484 113.872C68.6217 114.085 68.163 114.192 67.6724 114.192ZM68.0564 113.136C68.4297 113.136 68.7817 113.051 69.1124 112.88C69.443 112.699 69.795 112.437 70.1684 112.096V109.936C69.5177 110.021 68.9684 110.123 68.5204 110.24C68.083 110.357 67.7257 110.496 67.4484 110.656C67.1817 110.816 66.9844 111.003 66.8564 111.216C66.739 111.419 66.6804 111.643 66.6804 111.888C66.6804 112.336 66.8137 112.656 67.0804 112.848C67.347 113.04 67.6724 113.136 68.0564 113.136ZM77.0149 114.192C76.5029 114.192 76.0229 114.101 75.5749 113.92C75.1269 113.739 74.7375 113.477 74.4069 113.136C74.0869 112.784 73.8309 112.357 73.6389 111.856C73.4575 111.344 73.3669 110.768 73.3669 110.128C73.3669 109.477 73.4682 108.901 73.6709 108.4C73.8735 107.888 74.1455 107.456 74.4869 107.104C74.8282 106.752 75.2229 106.485 75.6709 106.304C76.1295 106.123 76.6095 106.032 77.1109 106.032C77.6229 106.032 78.0602 106.123 78.4229 106.304C78.7855 106.485 79.1055 106.699 79.3829 106.944L78.7109 107.808C78.4869 107.605 78.2469 107.44 77.9909 107.312C77.7455 107.184 77.4682 107.12 77.1589 107.12C76.8069 107.12 76.4815 107.195 76.1829 107.344C75.8842 107.483 75.6282 107.685 75.4149 107.952C75.2015 108.219 75.0309 108.539 74.9029 108.912C74.7855 109.275 74.7269 109.68 74.7269 110.128C74.7269 110.576 74.7855 110.981 74.9029 111.344C75.0202 111.707 75.1802 112.021 75.3829 112.288C75.5962 112.544 75.8522 112.747 76.1509 112.896C76.4495 113.035 76.7749 113.104 77.1269 113.104C77.4895 113.104 77.8202 113.029 78.1189 112.88C78.4282 112.72 78.7055 112.533 78.9509 112.32L79.5269 113.2C79.1749 113.509 78.7855 113.755 78.3589 113.936C77.9322 114.107 77.4842 114.192 77.0149 114.192ZM84.048 114.192C83.5253 114.192 83.0347 114.101 82.576 113.92C82.128 113.728 81.7333 113.461 81.392 113.12C81.0613 112.768 80.8 112.341 80.608 111.84C80.416 111.339 80.32 110.768 80.32 110.128C80.32 109.488 80.416 108.917 80.608 108.416C80.8107 107.904 81.072 107.472 81.392 107.12C81.7227 106.768 82.096 106.501 82.512 106.32C82.928 106.128 83.36 106.032 83.808 106.032C84.2987 106.032 84.736 106.117 85.12 106.288C85.5147 106.459 85.84 106.704 86.096 107.024C86.3627 107.344 86.5653 107.728 86.704 108.176C86.8427 108.624 86.912 109.125 86.912 109.68C86.912 109.819 86.9067 109.957 86.896 110.096C86.896 110.224 86.8853 110.336 86.864 110.432H81.616C81.6693 111.264 81.9253 111.925 82.384 112.416C82.8533 112.896 83.4613 113.136 84.208 113.136C84.5813 113.136 84.9227 113.083 85.232 112.976C85.552 112.859 85.856 112.709 86.144 112.528L86.608 113.392C86.2667 113.605 85.888 113.792 85.472 113.952C85.056 114.112 84.5813 114.192 84.048 114.192ZM81.6 109.488H85.76C85.76 108.699 85.5893 108.101 85.248 107.696C84.9173 107.28 84.448 107.072 83.84 107.072C83.5627 107.072 83.296 107.125 83.04 107.232C82.7947 107.339 82.5707 107.499 82.368 107.712C82.1653 107.915 81.9947 108.165 81.856 108.464C81.728 108.763 81.6427 109.104 81.6 109.488ZM92.2735 114.192C91.9108 114.192 91.5322 114.107 91.1375 113.936C90.7535 113.755 90.3908 113.509 90.0495 113.2H90.0015L89.8895 114H88.8335V102.608H90.1455V105.712L90.1135 107.12C90.4655 106.811 90.8495 106.555 91.2655 106.352C91.6815 106.139 92.1082 106.032 92.5455 106.032C93.0468 106.032 93.4895 106.128 93.8735 106.32C94.2575 106.501 94.5775 106.768 94.8335 107.12C95.1002 107.461 95.2975 107.877 95.4255 108.368C95.5642 108.848 95.6335 109.387 95.6335 109.984C95.6335 110.645 95.5428 111.237 95.3615 111.76C95.1802 112.283 94.9348 112.725 94.6255 113.088C94.3162 113.451 93.9588 113.728 93.5535 113.92C93.1482 114.101 92.7215 114.192 92.2735 114.192ZM92.0495 113.088C92.3695 113.088 92.6628 113.019 92.9295 112.88C93.2068 112.731 93.4415 112.528 93.6335 112.272C93.8362 112.005 93.9908 111.68 94.0975 111.296C94.2148 110.912 94.2735 110.48 94.2735 110C94.2735 109.573 94.2362 109.184 94.1615 108.832C94.0868 108.48 93.9642 108.181 93.7935 107.936C93.6335 107.68 93.4202 107.483 93.1535 107.344C92.8975 107.205 92.5882 107.136 92.2255 107.136C91.5962 107.136 90.9028 107.488 90.1455 108.192V112.272C90.4868 112.571 90.8228 112.784 91.1535 112.912C91.4948 113.029 91.7935 113.088 92.0495 113.088ZM100.701 114.192C100.221 114.192 99.7626 114.101 99.3252 113.92C98.8986 113.739 98.5199 113.477 98.1892 113.136C97.8586 112.784 97.5919 112.357 97.3892 111.856C97.1972 111.344 97.1012 110.768 97.1012 110.128C97.1012 109.477 97.1972 108.901 97.3892 108.4C97.5919 107.888 97.8586 107.456 98.1892 107.104C98.5199 106.752 98.8986 106.485 99.3252 106.304C99.7626 106.123 100.221 106.032 100.701 106.032C101.181 106.032 101.635 106.123 102.061 106.304C102.499 106.485 102.883 106.752 103.213 107.104C103.544 107.456 103.805 107.888 103.997 108.4C104.2 108.901 104.301 109.477 104.301 110.128C104.301 110.768 104.2 111.344 103.997 111.856C103.805 112.357 103.544 112.784 103.213 113.136C102.883 113.477 102.499 113.739 102.061 113.92C101.635 114.101 101.181 114.192 100.701 114.192ZM100.701 113.104C101.032 113.104 101.336 113.035 101.613 112.896C101.891 112.747 102.125 112.544 102.317 112.288C102.52 112.021 102.675 111.707 102.781 111.344C102.888 110.981 102.941 110.576 102.941 110.128C102.941 109.68 102.888 109.275 102.781 108.912C102.675 108.539 102.52 108.219 102.317 107.952C102.125 107.685 101.891 107.483 101.613 107.344C101.336 107.195 101.032 107.12 100.701 107.12C100.371 107.12 100.067 107.195 99.7892 107.344C99.5119 107.483 99.2719 107.685 99.0692 107.952C98.8772 108.219 98.7279 108.539 98.6212 108.912C98.5146 109.275 98.4612 109.68 98.4612 110.128C98.4612 110.576 98.5146 110.981 98.6212 111.344C98.7279 111.707 98.8772 112.021 99.0692 112.288C99.2719 112.544 99.5119 112.747 99.7892 112.896C100.067 113.035 100.371 113.104 100.701 113.104Z" fill="#333333"/>
<path d="M32.891 77.144L42.979 55.876H43.083V77.144H32.891ZM46.203 52.756H41.263L30.083 76.936V79.952H43.083V89H46.203V79.952H50.467V77.144H46.203V52.756ZM55.5804 89H59.4284V85.048H55.5804V89ZM72.1518 71.632C78.7558 71.112 80.4198 73.608 80.4198 79.848C80.4198 83.696 79.0678 86.764 74.2318 86.764C70.1238 86.764 68.2518 84.06 68.3558 80.108H65.0278C64.8198 86.608 68.4078 89.572 74.6998 89.572C80.6278 89.572 83.7478 85.776 83.7478 79.12C83.7478 74.856 82.7598 70.8 77.7158 70.28V70.176C82.2918 69.084 83.3838 65.236 83.3838 61.024C83.3838 54.576 80.0038 52.184 73.9198 52.184C68.2518 52.184 65.1838 56.24 65.5478 61.596H68.8758C68.7198 57.852 70.1758 54.992 74.3358 54.992C78.4438 54.992 80.0558 57.488 80.0558 61.44C80.0558 66.848 77.5078 69.292 72.1518 68.824V71.632ZM97.0252 71.112C103.005 71.112 103.785 65.704 103.785 61.024C103.785 56.448 102.225 52.184 97.0252 52.184C91.1492 52.184 90.2652 57.28 90.2652 61.96C90.2652 66.692 91.4092 71.112 97.0252 71.112ZM97.0252 68.616C93.1772 68.616 92.9692 64.404 92.9692 61.648C92.9692 58.84 93.3852 54.68 97.0252 54.68C100.665 54.68 101.081 58.84 101.081 61.648C101.081 64.404 100.873 68.616 97.0252 68.616ZM116.161 89.572C122.141 89.572 122.921 84.164 122.921 79.484C122.921 74.908 121.361 70.644 116.161 70.644C110.285 70.644 109.401 75.74 109.401 80.42C109.401 85.152 110.545 89.572 116.161 89.572ZM116.161 87.076C112.313 87.076 112.105 82.864 112.105 80.108C112.105 77.3 112.521 73.14 116.161 73.14C119.801 73.14 120.217 77.3 120.217 80.108C120.217 82.864 120.009 87.076 116.161 87.076ZM99.6772 91.028L115.485 51.456H113.093L97.2852 91.028H99.6772Z" fill="#333333"/>
<circle cx="78" cy="78" r="69.3333" stroke="#F1F1F1" stroke-width="17.3333"/>
<path d="M78 8.66667C84.2536 8.66667 90.4785 9.51273 96.5052 11.1818" stroke="#333333" stroke-width="17.3333"/>
</svg>
