<svg width="66" height="66" viewBox="0 0 66 66" fill="none" xmlns="http://www.w3.org/2000/svg">
<path d="M66 0H0V66H66V0Z" fill="white"/>
<path fill-rule="evenodd" clip-rule="evenodd" d="M18.875 52.8977C29.907 60.6558 45.1393 58.0019 52.8976 46.9698C60.6557 35.9379 58.0016 20.7054 46.9695 12.9473L18.875 52.8977Z" fill="#E3EFE9"/>
<path fill-rule="evenodd" clip-rule="evenodd" d="M46.9693 12.9478C35.9374 5.18969 20.7049 7.84372 12.9468 18.8757C5.18872 29.9077 7.84274 45.1401 18.8748 52.8982L46.9693 12.9478Z" fill="#B8D7C9"/>
<path fill-rule="evenodd" clip-rule="evenodd" d="M42.7868 21.6423C43.9494 20.8423 44.0648 19.1613 42.8886 18.3814C37.0455 14.5067 29.1964 14.3345 23.0669 18.5528C15.015 24.0941 12.9798 35.1136 18.5211 43.1656C24.0625 51.2175 35.082 53.2527 43.1339 47.7114C49.306 43.4637 51.9428 35.9972 50.3417 29.1158C50.0231 27.7461 48.417 27.2619 47.2586 28.0592C46.4566 28.6111 46.1316 29.6221 46.3178 30.5777C47.318 35.7118 45.2808 41.185 40.697 44.3395C34.5318 48.5824 26.0943 47.0241 21.8514 40.8589C17.6085 34.6936 19.1669 26.2562 25.3321 22.0133C29.8893 18.877 35.6881 18.9105 40.1166 21.6314C40.9397 22.1371 41.991 22.19 42.7868 21.6423Z" fill="#5C068C"/>
<path d="M26 30.2727L31.9062 36L53 18" stroke="#5C068C" stroke-width="4" stroke-linecap="round" stroke-linejoin="round"/>
</svg>
