<svg width="54" height="53" viewBox="0 0 54 53" fill="none" xmlns="http://www.w3.org/2000/svg">
<path fill-rule="evenodd" clip-rule="evenodd" d="M13.75 46.8977C24.782 54.6558 40.0143 52.0019 47.7726 40.9698C55.5307 29.9379 52.8766 14.7054 41.8445 6.94727L13.75 46.8977Z" fill="#E3EFE9"/>
<path fill-rule="evenodd" clip-rule="evenodd" d="M41.8443 6.94779C30.8124 -0.810313 15.5799 1.84372 7.8218 12.8757C0.0637219 23.9077 2.71774 39.1401 13.7498 46.8982L41.8443 6.94779Z" fill="#B8D7C9"/>
<path fill-rule="evenodd" clip-rule="evenodd" d="M37.6599 15.6433C38.8224 14.8432 38.9378 13.1623 37.7617 12.3824C31.9185 8.50772 24.0694 8.33549 17.94 12.5538C9.88806 18.0951 7.85283 29.1146 13.3942 37.1665C18.9355 45.2185 29.955 47.2537 38.0069 41.7124C44.1791 37.4647 46.8159 29.9981 45.2148 23.1167C44.8961 21.7471 43.2901 21.2629 42.1317 22.0601C41.3297 22.6121 41.0046 23.6231 41.1908 24.5787C42.191 29.7128 40.1538 35.186 35.5701 38.3405C29.4048 42.5834 20.9674 41.0251 16.7245 34.8598C12.4816 28.6946 14.0399 20.2572 20.2051 16.0143C24.7624 12.878 30.5612 12.9115 34.9896 15.6323C35.8127 16.138 36.8641 16.191 37.6599 15.6433Z" fill="#5C068C"/>
<path d="M20.875 24.2727L26.7812 30L47.875 12" stroke="#5C068C" stroke-width="4" stroke-linecap="round" stroke-linejoin="round"/>
</svg>
