<svg width="25" height="24" viewBox="0 0 25 24" fill="none" xmlns="http://www.w3.org/2000/svg">
<path fill-rule="evenodd" clip-rule="evenodd" d="M12.5 2C6.97715 2 2.5 6.47715 2.5 12C2.5 17.5228 6.97715 22 12.5 22C18.0228 22 22.5 17.5228 22.5 12C22.5 6.47715 18.0228 2 12.5 2ZM1.5 12C1.5 5.92487 6.42487 1 12.5 1C18.5751 1 23.5 5.92487 23.5 12C23.5 18.0751 18.5751 23 12.5 23C6.42487 23 1.5 18.0751 1.5 12ZM12.5 7C12.7761 7 13 7.22386 13 7.5V11.5H17C17.2761 11.5 17.5 11.7239 17.5 12C17.5 12.2761 17.2761 12.5 17 12.5H13V16.5C13 16.7761 12.7761 17 12.5 17C12.2239 17 12 16.7761 12 16.5V12.5H8C7.72386 12.5 7.5 12.2761 7.5 12C7.5 11.7239 7.72386 11.5 8 11.5H12V7.5C12 7.22386 12.2239 7 12.5 7Z" fill="#A51890"/>
</svg>
