<svg width="157" height="156" viewBox="0 0 157 156" fill="none" xmlns="http://www.w3.org/2000/svg">
<path d="M53.6822 114V103.504H56.6742C57.2609 103.504 57.7942 103.557 58.2742 103.664C58.7649 103.771 59.1809 103.947 59.5222 104.192C59.8635 104.427 60.1302 104.741 60.3222 105.136C60.5142 105.531 60.6102 106.016 60.6102 106.592C60.6102 107.147 60.5142 107.627 60.3222 108.032C60.1409 108.437 59.8795 108.773 59.5382 109.04C59.1969 109.307 58.7862 109.509 58.3062 109.648C57.8369 109.776 57.3142 109.84 56.7382 109.84H55.0102V114H53.6822ZM55.0102 108.752H56.5782C57.4955 108.752 58.1729 108.581 58.6102 108.24C59.0582 107.888 59.2822 107.339 59.2822 106.592C59.2822 105.835 59.0475 105.312 58.5782 105.024C58.1195 104.725 57.4315 104.576 56.5142 104.576H55.0102V108.752ZM64.0087 114.192C63.5074 114.192 63.15 114.043 62.9367 113.744C62.7234 113.445 62.6167 113.008 62.6167 112.432V102.608H63.9287V112.528C63.9287 112.741 63.966 112.891 64.0407 112.976C64.1154 113.061 64.2007 113.104 64.2967 113.104C64.3394 113.104 64.3767 113.104 64.4087 113.104C64.4514 113.104 64.51 113.093 64.5847 113.072L64.7607 114.064C64.6754 114.107 64.574 114.139 64.4567 114.16C64.3394 114.181 64.19 114.192 64.0087 114.192ZM68.4868 114.192C67.8361 114.192 67.2921 114 66.8548 113.616C66.4281 113.232 66.2148 112.688 66.2148 111.984C66.2148 111.131 66.5935 110.48 67.3508 110.032C68.1081 109.573 69.3188 109.253 70.9828 109.072C70.9828 108.827 70.9561 108.587 70.9028 108.352C70.8601 108.117 70.7801 107.909 70.6628 107.728C70.5455 107.547 70.3801 107.403 70.1668 107.296C69.9641 107.179 69.7028 107.12 69.3828 107.12C68.9348 107.12 68.5135 107.205 68.1188 107.376C67.7241 107.547 67.3721 107.739 67.0628 107.952L66.5508 107.04C66.9135 106.805 67.3561 106.581 67.8788 106.368C68.4015 106.144 68.9775 106.032 69.6068 106.032C70.5561 106.032 71.2441 106.325 71.6708 106.912C72.0975 107.488 72.3108 108.261 72.3108 109.232V114H71.2228L71.1108 113.072H71.0628C70.6895 113.381 70.2895 113.648 69.8628 113.872C69.4361 114.085 68.9775 114.192 68.4868 114.192ZM68.8708 113.136C69.2441 113.136 69.5961 113.051 69.9268 112.88C70.2575 112.699 70.6095 112.437 70.9828 112.096V109.936C70.3321 110.021 69.7828 110.123 69.3348 110.24C68.8975 110.357 68.5401 110.496 68.2628 110.656C67.9961 110.816 67.7988 111.003 67.6708 111.216C67.5535 111.419 67.4948 111.643 67.4948 111.888C67.4948 112.336 67.6281 112.656 67.8948 112.848C68.1615 113.04 68.4868 113.136 68.8708 113.136ZM77.8293 114.192C77.3173 114.192 76.8373 114.101 76.3893 113.92C75.9413 113.739 75.552 113.477 75.2213 113.136C74.9013 112.784 74.6453 112.357 74.4533 111.856C74.272 111.344 74.1813 110.768 74.1813 110.128C74.1813 109.477 74.2826 108.901 74.4853 108.4C74.688 107.888 74.96 107.456 75.3013 107.104C75.6426 106.752 76.0373 106.485 76.4853 106.304C76.944 106.123 77.424 106.032 77.9253 106.032C78.4373 106.032 78.8746 106.123 79.2373 106.304C79.6 106.485 79.92 106.699 80.1973 106.944L79.5253 107.808C79.3013 107.605 79.0613 107.44 78.8053 107.312C78.56 107.184 78.2826 107.12 77.9733 107.12C77.6213 107.12 77.296 107.195 76.9973 107.344C76.6986 107.483 76.4426 107.685 76.2293 107.952C76.016 108.219 75.8453 108.539 75.7173 108.912C75.6 109.275 75.5413 109.68 75.5413 110.128C75.5413 110.576 75.6 110.981 75.7173 111.344C75.8346 111.707 75.9946 112.021 76.1973 112.288C76.4106 112.544 76.6666 112.747 76.9653 112.896C77.264 113.035 77.5893 113.104 77.9413 113.104C78.304 113.104 78.6346 113.029 78.9333 112.88C79.2426 112.72 79.52 112.533 79.7653 112.32L80.3413 113.2C79.9893 113.509 79.6 113.755 79.1733 113.936C78.7466 114.107 78.2986 114.192 77.8293 114.192ZM84.8624 114.192C84.3398 114.192 83.8491 114.101 83.3904 113.92C82.9424 113.728 82.5478 113.461 82.2064 113.12C81.8758 112.768 81.6144 112.341 81.4224 111.84C81.2304 111.339 81.1344 110.768 81.1344 110.128C81.1344 109.488 81.2304 108.917 81.4224 108.416C81.6251 107.904 81.8864 107.472 82.2064 107.12C82.5371 106.768 82.9104 106.501 83.3264 106.32C83.7424 106.128 84.1744 106.032 84.6224 106.032C85.1131 106.032 85.5504 106.117 85.9344 106.288C86.3291 106.459 86.6544 106.704 86.9104 107.024C87.1771 107.344 87.3798 107.728 87.5184 108.176C87.6571 108.624 87.7264 109.125 87.7264 109.68C87.7264 109.819 87.7211 109.957 87.7104 110.096C87.7104 110.224 87.6998 110.336 87.6784 110.432H82.4304C82.4838 111.264 82.7398 111.925 83.1984 112.416C83.6678 112.896 84.2758 113.136 85.0224 113.136C85.3958 113.136 85.7371 113.083 86.0464 112.976C86.3664 112.859 86.6704 112.709 86.9584 112.528L87.4224 113.392C87.0811 113.605 86.7024 113.792 86.2864 113.952C85.8704 114.112 85.3958 114.192 84.8624 114.192ZM82.4144 109.488H86.5744C86.5744 108.699 86.4038 108.101 86.0624 107.696C85.7318 107.28 85.2624 107.072 84.6544 107.072C84.3771 107.072 84.1104 107.125 83.8544 107.232C83.6091 107.339 83.3851 107.499 83.1824 107.712C82.9798 107.915 82.8091 108.165 82.6704 108.464C82.5424 108.763 82.4571 109.104 82.4144 109.488ZM93.0879 114.192C92.7253 114.192 92.3466 114.107 91.9519 113.936C91.5679 113.755 91.2053 113.509 90.8639 113.2H90.8159L90.7039 114H89.6479V102.608H90.9599V105.712L90.9279 107.12C91.2799 106.811 91.6639 106.555 92.0799 106.352C92.4959 106.139 92.9226 106.032 93.3599 106.032C93.8613 106.032 94.3039 106.128 94.6879 106.32C95.0719 106.501 95.3919 106.768 95.6479 107.12C95.9146 107.461 96.1119 107.877 96.2399 108.368C96.3786 108.848 96.4479 109.387 96.4479 109.984C96.4479 110.645 96.3573 111.237 96.1759 111.76C95.9946 112.283 95.7493 112.725 95.4399 113.088C95.1306 113.451 94.7733 113.728 94.3679 113.92C93.9626 114.101 93.5359 114.192 93.0879 114.192ZM92.8639 113.088C93.1839 113.088 93.4773 113.019 93.7439 112.88C94.0213 112.731 94.2559 112.528 94.4479 112.272C94.6506 112.005 94.8053 111.68 94.9119 111.296C95.0293 110.912 95.0879 110.48 95.0879 110C95.0879 109.573 95.0506 109.184 94.9759 108.832C94.9013 108.48 94.7786 108.181 94.6079 107.936C94.4479 107.68 94.2346 107.483 93.9679 107.344C93.7119 107.205 93.4026 107.136 93.0399 107.136C92.4106 107.136 91.7173 107.488 90.9599 108.192V112.272C91.3013 112.571 91.6373 112.784 91.9679 112.912C92.3093 113.029 92.6079 113.088 92.8639 113.088ZM101.516 114.192C101.036 114.192 100.577 114.101 100.14 113.92C99.713 113.739 99.3344 113.477 99.0037 113.136C98.673 112.784 98.4064 112.357 98.2037 111.856C98.0117 111.344 97.9157 110.768 97.9157 110.128C97.9157 109.477 98.0117 108.901 98.2037 108.4C98.4064 107.888 98.673 107.456 99.0037 107.104C99.3344 106.752 99.713 106.485 100.14 106.304C100.577 106.123 101.036 106.032 101.516 106.032C101.996 106.032 102.449 106.123 102.876 106.304C103.313 106.485 103.697 106.752 104.028 107.104C104.358 107.456 104.62 107.888 104.812 108.4C105.014 108.901 105.116 109.477 105.116 110.128C105.116 110.768 105.014 111.344 104.812 111.856C104.62 112.357 104.358 112.784 104.028 113.136C103.697 113.477 103.313 113.739 102.876 113.92C102.449 114.101 101.996 114.192 101.516 114.192ZM101.516 113.104C101.846 113.104 102.15 113.035 102.428 112.896C102.705 112.747 102.94 112.544 103.132 112.288C103.334 112.021 103.489 111.707 103.596 111.344C103.702 110.981 103.756 110.576 103.756 110.128C103.756 109.68 103.702 109.275 103.596 108.912C103.489 108.539 103.334 108.219 103.132 107.952C102.94 107.685 102.705 107.483 102.428 107.344C102.15 107.195 101.846 107.12 101.516 107.12C101.185 107.12 100.881 107.195 100.604 107.344C100.326 107.483 100.086 107.685 99.8837 107.952C99.6917 108.219 99.5424 108.539 99.4357 108.912C99.329 109.275 99.2757 109.68 99.2757 110.128C99.2757 110.576 99.329 110.981 99.4357 111.344C99.5424 111.707 99.6917 112.021 99.8837 112.288C100.086 112.544 100.326 112.747 100.604 112.896C100.881 113.035 101.185 113.104 101.516 113.104Z" fill="#333333"/>
<path d="M33.7054 77.144L43.7934 55.876H43.8974V77.144H33.7054ZM47.0174 52.756H42.0774L30.8974 76.936V79.952H43.8974V89H47.0174V79.952H51.2814V77.144H47.0174V52.756ZM56.3949 89H60.2429V85.048H56.3949V89ZM72.9662 71.632C79.5702 71.112 81.2342 73.608 81.2342 79.848C81.2342 83.696 79.8822 86.764 75.0462 86.764C70.9382 86.764 69.0662 84.06 69.1702 80.108H65.8422C65.6342 86.608 69.2222 89.572 75.5142 89.572C81.4422 89.572 84.5622 85.776 84.5622 79.12C84.5622 74.856 83.5742 70.8 78.5302 70.28V70.176C83.1062 69.084 84.1982 65.236 84.1982 61.024C84.1982 54.576 80.8182 52.184 74.7342 52.184C69.0662 52.184 65.9982 56.24 66.3622 61.596H69.6902C69.5342 57.852 70.9902 54.992 75.1502 54.992C79.2582 54.992 80.8702 57.488 80.8702 61.44C80.8702 66.848 78.3222 69.292 72.9662 68.824V71.632ZM97.8397 71.112C103.82 71.112 104.6 65.704 104.6 61.024C104.6 56.448 103.04 52.184 97.8397 52.184C91.9637 52.184 91.0797 57.28 91.0797 61.96C91.0797 66.692 92.2237 71.112 97.8397 71.112ZM97.8397 68.616C93.9917 68.616 93.7837 64.404 93.7837 61.648C93.7837 58.84 94.1997 54.68 97.8397 54.68C101.48 54.68 101.896 58.84 101.896 61.648C101.896 64.404 101.688 68.616 97.8397 68.616ZM116.976 89.572C122.956 89.572 123.736 84.164 123.736 79.484C123.736 74.908 122.176 70.644 116.976 70.644C111.1 70.644 110.216 75.74 110.216 80.42C110.216 85.152 111.36 89.572 116.976 89.572ZM116.976 87.076C113.128 87.076 112.92 82.864 112.92 80.108C112.92 77.3 113.336 73.14 116.976 73.14C120.616 73.14 121.032 77.3 121.032 80.108C121.032 82.864 120.824 87.076 116.976 87.076ZM100.492 91.028L116.3 51.456H113.908L98.0997 91.028H100.492Z" fill="#AEAEAE"/>
<circle cx="78.8125" cy="78" r="69.3333" stroke="#F1F1F1" stroke-width="17.3333"/>
<path d="M78.8125 8.66667C85.0661 8.66667 91.291 9.51273 97.3177 11.1818" stroke="#AEAEAE" stroke-width="17.3333"/>
</svg>
