<svg width="157" height="156" viewBox="0 0 157 156" fill="none" xmlns="http://www.w3.org/2000/svg">
<path d="M44.3541 113H45.5541V107.224C45.5541 106.296 45.4581 105.048 45.3941 104.12H45.4581L46.2901 106.504L48.2741 111.944H49.1541L51.1381 106.504L51.9701 104.12H52.0341C51.9701 105.048 51.8581 106.296 51.8581 107.224V113H53.1061V102.504H51.4901L49.5061 108.104C49.2501 108.824 49.0421 109.576 48.7861 110.296H48.7221C48.4661 109.576 48.2261 108.824 47.9701 108.104L45.9541 102.504H44.3541V113ZM55.9791 116.344C57.5471 116.344 58.3471 115.176 58.8911 113.64L61.8191 105.224H60.5391L59.1471 109.528C58.9391 110.216 58.7151 111.016 58.4911 111.72H58.4271C58.1871 111 57.9151 110.2 57.6751 109.528L56.0911 105.224H54.7311L57.8511 113.016L57.6751 113.592C57.3551 114.552 56.7951 115.256 55.9151 115.256C55.7231 115.256 55.4831 115.192 55.3231 115.144L55.0671 116.184C55.3231 116.28 55.6271 116.344 55.9791 116.344ZM63.5438 113H64.8558V106.296H66.5038V105.224H64.8558V103.992C64.8558 103 65.2078 102.488 65.9438 102.488C66.2318 102.488 66.5358 102.552 66.8238 102.68L67.1118 101.672C66.7598 101.528 66.2958 101.416 65.8158 101.416C64.2638 101.416 63.5438 102.408 63.5438 103.992V105.224L62.4878 105.304V106.296H63.5438V113ZM70.9874 113.192C72.0434 113.192 72.8754 112.824 73.5474 112.392L73.0834 111.528C72.5074 111.896 71.8834 112.136 71.1474 112.136C69.6594 112.136 68.6514 111.08 68.5554 109.432H73.8034C73.8354 109.24 73.8514 108.952 73.8514 108.68C73.8514 106.456 72.7314 105.032 70.7474 105.032C68.9714 105.032 67.2594 106.584 67.2594 109.128C67.2594 111.672 68.9074 113.192 70.9874 113.192ZM68.5394 108.488C68.6994 106.952 69.6914 106.072 70.7794 106.072C71.9954 106.072 72.6994 106.92 72.6994 108.488H68.5394ZM75.7729 113H77.0849V107.368C77.8049 106.568 78.4609 106.168 79.0369 106.168C80.0289 106.168 80.4929 106.792 80.4929 108.248V113H81.8049V107.368C82.5249 106.568 83.1489 106.168 83.7569 106.168C84.7329 106.168 85.1969 106.792 85.1969 108.248V113H86.5089V108.072C86.5089 106.088 85.7409 105.032 84.1409 105.032C83.1969 105.032 82.3969 105.64 81.5809 106.52C81.2609 105.592 80.6209 105.032 79.4369 105.032C78.5089 105.032 77.6929 105.608 77.0209 106.344H76.9729L76.8609 105.224H75.7729V113ZM92.4786 113.192C94.2546 113.192 95.8386 111.64 95.8386 108.984C95.8386 106.584 94.7666 105.032 92.7506 105.032C91.8866 105.032 91.0226 105.496 90.3186 106.12L90.3506 104.712V101.608H89.0386V113H90.0946L90.2066 112.2H90.2546C90.9426 112.824 91.7586 113.192 92.4786 113.192ZM92.2546 112.088C91.7426 112.088 91.0386 111.864 90.3506 111.272V107.192C91.0866 106.504 91.7746 106.136 92.4306 106.136C93.9026 106.136 94.4786 107.288 94.4786 109C94.4786 110.92 93.5346 112.088 92.2546 112.088ZM97.8823 113H99.1943V108.008C99.7223 106.696 100.506 106.216 101.162 106.216C101.482 106.216 101.658 106.264 101.914 106.344L102.17 105.192C101.914 105.08 101.674 105.032 101.338 105.032C100.458 105.032 99.6583 105.656 99.1303 106.632H99.0823L98.9703 105.224H97.8823V113ZM106.425 113.192C107.481 113.192 108.313 112.824 108.985 112.392L108.521 111.528C107.945 111.896 107.321 112.136 106.585 112.136C105.097 112.136 104.089 111.08 103.993 109.432H109.241C109.273 109.24 109.289 108.952 109.289 108.68C109.289 106.456 108.169 105.032 106.185 105.032C104.409 105.032 102.697 106.584 102.697 109.128C102.697 111.672 104.345 113.192 106.425 113.192ZM103.977 108.488C104.137 106.952 105.129 106.072 106.217 106.072C107.433 106.072 108.137 106.92 108.137 108.488H103.977ZM114.362 113.192C115.418 113.192 116.25 112.824 116.922 112.392L116.458 111.528C115.882 111.896 115.258 112.136 114.522 112.136C113.034 112.136 112.026 111.08 111.93 109.432H117.178C117.21 109.24 117.226 108.952 117.226 108.68C117.226 106.456 116.106 105.032 114.122 105.032C112.346 105.032 110.634 106.584 110.634 109.128C110.634 111.672 112.282 113.192 114.362 113.192ZM111.914 108.488C112.074 106.952 113.066 106.072 114.154 106.072C115.37 106.072 116.074 106.92 116.074 108.488H111.914Z" fill="#333333"/>
<path d="M40.1615 71.632C46.7655 71.112 48.4295 73.608 48.4295 79.848C48.4295 83.696 47.0775 86.764 42.2415 86.764C38.1335 86.764 36.2615 84.06 36.3655 80.108H33.0375C32.8295 86.608 36.4175 89.572 42.7095 89.572C48.6375 89.572 51.7575 85.776 51.7575 79.12C51.7575 74.856 50.7695 70.8 45.7255 70.28V70.176C50.3015 69.084 51.3935 65.236 51.3935 61.024C51.3935 54.576 48.0135 52.184 41.9295 52.184C36.2615 52.184 33.1935 56.24 33.5575 61.596H36.8855C36.7295 57.852 38.1855 54.992 42.3455 54.992C46.4535 54.992 48.0655 57.488 48.0655 61.44C48.0655 66.848 45.5175 69.292 40.1615 68.824V71.632ZM58.223 89H62.071V85.048H58.223V89ZM70.5303 62.012C72.8183 60.504 74.8983 58.788 76.8743 56.916V89H79.9943V52.756H77.0823C75.2623 54.992 72.9223 56.76 70.5303 58.424V62.012ZM99.6678 71.112C105.648 71.112 106.428 65.704 106.428 61.024C106.428 56.448 104.868 52.184 99.6678 52.184C93.7918 52.184 92.9078 57.28 92.9078 61.96C92.9078 66.692 94.0518 71.112 99.6678 71.112ZM99.6678 68.616C95.8198 68.616 95.6118 64.404 95.6118 61.648C95.6118 58.84 96.0278 54.68 99.6678 54.68C103.308 54.68 103.724 58.84 103.724 61.648C103.724 64.404 103.516 68.616 99.6678 68.616ZM118.804 89.572C124.784 89.572 125.564 84.164 125.564 79.484C125.564 74.908 124.004 70.644 118.804 70.644C112.928 70.644 112.044 75.74 112.044 80.42C112.044 85.152 113.188 89.572 118.804 89.572ZM118.804 87.076C114.956 87.076 114.748 82.864 114.748 80.108C114.748 77.3 115.164 73.14 118.804 73.14C122.444 73.14 122.86 77.3 122.86 80.108C122.86 82.864 122.652 87.076 118.804 87.076ZM102.32 91.028L118.128 51.456H115.736L99.9278 91.028H102.32Z" fill="#5C068C"/>
<circle cx="78.875" cy="78" r="69.3333" stroke="#F1F1F1" stroke-width="17.3333"/>
<path d="M78.875 8.66667C83.3801 8.66667 87.8745 9.10576 92.2944 9.97773" stroke="#5C068C" stroke-width="17.3333"/>
</svg>
