<svg width="53" height="53" viewBox="0 0 53 53" fill="none" xmlns="http://www.w3.org/2000/svg">
<g clip-path="url(#clip0)">
<path d="M25.0556 20.6755C24.9912 18.9611 26.3636 17.5361 28.0792 17.5361C29.7948 17.5361 31.1672 18.9611 31.1028 20.6755L30.4696 37.5248C30.4213 38.8101 29.3653 39.827 28.0792 39.827C26.7931 39.827 25.7372 38.8101 25.6889 37.5248L25.0556 20.6755Z" fill="#5C068C"/>
<ellipse cx="28.0773" cy="43.6127" rx="2.09439" ry="2.10292" fill="#5C068C"/>
<path fill-rule="evenodd" clip-rule="evenodd" d="M11.2573 48.1748C23.228 56.593 39.7564 53.7133 48.1746 41.7425C56.5928 29.772 53.7131 13.2434 41.7423 4.8252L11.2573 48.1748Z" fill="#E3EFE9"/>
<path fill-rule="evenodd" clip-rule="evenodd" d="M41.7425 4.82517C29.7719 -3.59303 13.2434 -0.713176 4.82517 11.2575C-3.59303 23.2282 -0.713176 39.7566 11.2575 48.1748L41.7425 4.82517Z" fill="#B8D7C9"/>
<path d="M47.7588 34.7788L27.623 14.4893L23.7075 18.3751L43.8432 38.6646L47.7588 34.7788Z" fill="#5C068C"/>
<path d="M43.9345 14.5518L23.645 34.6875L27.5309 38.603L47.8204 18.4673L43.9345 14.5518Z" fill="#5C068C"/>
</g>
<defs>
<clipPath id="clip0">
<rect width="53" height="53" fill="white"/>
</clipPath>
</defs>
</svg>
