<svg width="54" height="53" viewBox="0 0 54 53" fill="none" xmlns="http://www.w3.org/2000/svg">
<path fill-rule="evenodd" clip-rule="evenodd" d="M11.2595 48.1747C23.2302 56.5929 39.7585 53.7132 48.1767 41.7425C56.5949 29.7719 53.7152 13.2434 41.7444 4.8252L11.2595 48.1747Z" fill="#E3EFE9"/>
<path fill-rule="evenodd" clip-rule="evenodd" d="M41.7424 4.82516C29.7719 -3.59303 13.2434 -0.713175 4.82516 11.2575C-3.59303 23.2281 -0.713175 39.7565 11.2575 48.1747L41.7424 4.82516Z" fill="#B8D7C9"/>
<path fill-rule="evenodd" clip-rule="evenodd" d="M46.6368 26.5277C46.6368 37.5004 37.7417 46.3956 26.7692 46.3956C15.7965 46.3956 6.90149 37.5004 6.90149 26.5277C6.90149 22.0439 8.38684 17.9069 10.8924 14.5822L14.5421 17.5634C12.6575 20.0962 11.5423 23.2353 11.5423 26.6352C11.5423 35.0366 18.3532 41.8475 26.7547 41.8475C35.1561 41.8475 41.967 35.0366 41.967 26.6352C41.967 18.2337 35.1561 11.4229 26.7547 11.4229C23.8411 11.4229 21.119 12.2419 18.8058 13.6622L18.9056 10.8055C18.9369 9.90596 18.351 9.16159 17.5671 8.91507C20.3183 7.47478 23.4486 6.66016 26.7692 6.66016C37.7417 6.66016 46.6368 15.5553 46.6368 26.5277Z" fill="#5C068C"/>
<path d="M16.6042 10.0772C17.2192 9.9337 17.8014 10.4159 17.7754 11.0468L17.4479 18.923C17.4152 19.712 16.4932 20.1223 15.885 19.6189L8.53565 13.5343C7.92734 13.0307 8.15849 12.0484 8.92755 11.8689L16.6042 10.0772Z" fill="#5C068C"/>
</svg>
