<svg width="157" height="156" viewBox="0 0 157 156" fill="none" xmlns="http://www.w3.org/2000/svg">
<path d="M44.2916 114V103.504H45.8916L47.9076 109.104C48.0356 109.467 48.1582 109.835 48.2756 110.208C48.4036 110.571 48.5316 110.933 48.6596 111.296H48.7236C48.8516 110.933 48.9689 110.571 49.0756 110.208C49.1929 109.835 49.3156 109.467 49.4436 109.104L51.4276 103.504H53.0436V114H51.7956V108.224C51.7956 107.755 51.8169 107.237 51.8596 106.672C51.9022 106.107 51.9396 105.589 51.9716 105.12H51.9076L51.0756 107.504L49.0916 112.944H48.2116L46.2276 107.504L45.3956 105.12H45.3316C45.3636 105.589 45.3956 106.107 45.4276 106.672C45.4702 107.237 45.4916 107.755 45.4916 108.224V114H44.2916ZM55.9166 117.344C55.7352 117.344 55.5699 117.328 55.4206 117.296C55.2712 117.275 55.1326 117.237 55.0046 117.184L55.2606 116.144C55.3459 116.165 55.4419 116.187 55.5486 116.208C55.6552 116.24 55.7566 116.256 55.8526 116.256C56.3006 116.256 56.6632 116.096 56.9406 115.776C57.2286 115.467 57.4526 115.072 57.6126 114.592L57.7886 114.016L54.6686 106.224H56.0286L57.6126 110.528C57.7299 110.869 57.8526 111.232 57.9806 111.616C58.1192 111.989 58.2472 112.357 58.3646 112.72H58.4286C58.5459 112.368 58.6579 112 58.7646 111.616C58.8712 111.232 58.9779 110.869 59.0846 110.528L60.4766 106.224H61.7566L58.8286 114.64C58.6899 115.024 58.5352 115.381 58.3646 115.712C58.1939 116.043 57.9912 116.325 57.7566 116.56C57.5219 116.805 57.2552 116.997 56.9566 117.136C56.6579 117.275 56.3112 117.344 55.9166 117.344ZM63.4813 114V107.296H62.4253V106.304L63.4813 106.224V104.992C63.4813 104.192 63.6626 103.563 64.0253 103.104C64.3986 102.645 64.9746 102.416 65.7533 102.416C65.9986 102.416 66.228 102.443 66.4413 102.496C66.6653 102.539 66.868 102.597 67.0493 102.672L66.7613 103.68C66.4733 103.552 66.18 103.488 65.8813 103.488C65.156 103.488 64.7933 103.989 64.7933 104.992V106.224H66.4413V107.296H64.7933V114H63.4813ZM70.9249 114.192C70.4023 114.192 69.9116 114.101 69.4529 113.92C69.0049 113.728 68.6103 113.461 68.2689 113.12C67.9383 112.768 67.6769 112.341 67.4849 111.84C67.2929 111.339 67.1969 110.768 67.1969 110.128C67.1969 109.488 67.2929 108.917 67.4849 108.416C67.6876 107.904 67.9489 107.472 68.2689 107.12C68.5996 106.768 68.9729 106.501 69.3889 106.32C69.8049 106.128 70.2369 106.032 70.6849 106.032C71.1756 106.032 71.6129 106.117 71.9969 106.288C72.3916 106.459 72.7169 106.704 72.9729 107.024C73.2396 107.344 73.4423 107.728 73.5809 108.176C73.7196 108.624 73.7889 109.125 73.7889 109.68C73.7889 109.819 73.7836 109.957 73.7729 110.096C73.7729 110.224 73.7623 110.336 73.7409 110.432H68.4929C68.5463 111.264 68.8023 111.925 69.2609 112.416C69.7303 112.896 70.3383 113.136 71.0849 113.136C71.4583 113.136 71.7996 113.083 72.1089 112.976C72.4289 112.859 72.7329 112.709 73.0209 112.528L73.4849 113.392C73.1436 113.605 72.7649 113.792 72.3489 113.952C71.9329 114.112 71.4583 114.192 70.9249 114.192ZM68.4769 109.488H72.6369C72.6369 108.699 72.4663 108.101 72.1249 107.696C71.7943 107.28 71.3249 107.072 70.7169 107.072C70.4396 107.072 70.1729 107.125 69.9169 107.232C69.6716 107.339 69.4476 107.499 69.2449 107.712C69.0423 107.915 68.8716 108.165 68.7329 108.464C68.6049 108.763 68.5196 109.104 68.4769 109.488ZM75.7104 114V106.224H76.7984L76.9104 107.344H76.9584C77.2998 106.971 77.6678 106.661 78.0624 106.416C78.4678 106.16 78.9051 106.032 79.3744 106.032C79.9718 106.032 80.4358 106.165 80.7664 106.432C81.1078 106.688 81.3584 107.051 81.5184 107.52C81.9238 107.072 82.3291 106.715 82.7344 106.448C83.1504 106.171 83.5984 106.032 84.0784 106.032C84.8784 106.032 85.4704 106.288 85.8544 106.8C86.2491 107.312 86.4464 108.069 86.4464 109.072V114H85.1344V109.248C85.1344 108.512 85.0171 107.984 84.7824 107.664C84.5478 107.333 84.1851 107.168 83.6944 107.168C83.1078 107.168 82.4571 107.568 81.7424 108.368V114H80.4304V109.248C80.4304 108.512 80.3131 107.984 80.0784 107.664C79.8438 107.333 79.4758 107.168 78.9744 107.168C78.3878 107.168 77.7371 107.568 77.0224 108.368V114H75.7104ZM92.4161 114.192C92.0534 114.192 91.6747 114.107 91.2801 113.936C90.8961 113.755 90.5334 113.509 90.1921 113.2H90.1441L90.0321 114H88.9761V102.608H90.2881V105.712L90.2561 107.12C90.6081 106.811 90.9921 106.555 91.4081 106.352C91.8241 106.139 92.2507 106.032 92.6881 106.032C93.1894 106.032 93.6321 106.128 94.0161 106.32C94.4001 106.501 94.7201 106.768 94.9761 107.12C95.2427 107.461 95.4401 107.877 95.5681 108.368C95.7067 108.848 95.7761 109.387 95.7761 109.984C95.7761 110.645 95.6854 111.237 95.5041 111.76C95.3227 112.283 95.0774 112.725 94.7681 113.088C94.4587 113.451 94.1014 113.728 93.6961 113.92C93.2907 114.101 92.8641 114.192 92.4161 114.192ZM92.1921 113.088C92.5121 113.088 92.8054 113.019 93.0721 112.88C93.3494 112.731 93.5841 112.528 93.7761 112.272C93.9787 112.005 94.1334 111.68 94.2401 111.296C94.3574 110.912 94.4161 110.48 94.4161 110C94.4161 109.573 94.3787 109.184 94.3041 108.832C94.2294 108.48 94.1067 108.181 93.9361 107.936C93.7761 107.68 93.5627 107.483 93.2961 107.344C93.0401 107.205 92.7307 107.136 92.3681 107.136C91.7387 107.136 91.0454 107.488 90.2881 108.192V112.272C90.6294 112.571 90.9654 112.784 91.2961 112.912C91.6374 113.029 91.9361 113.088 92.1921 113.088ZM97.8198 114V106.224H98.9078L99.0198 107.632H99.0678C99.3345 107.141 99.6545 106.752 100.028 106.464C100.412 106.176 100.828 106.032 101.276 106.032C101.585 106.032 101.862 106.085 102.108 106.192L101.852 107.344C101.724 107.301 101.606 107.269 101.5 107.248C101.393 107.227 101.26 107.216 101.1 107.216C100.769 107.216 100.422 107.349 100.06 107.616C99.7078 107.883 99.3985 108.347 99.1318 109.008V114H97.8198ZM106.362 114.192C105.84 114.192 105.349 114.101 104.89 113.92C104.442 113.728 104.048 113.461 103.706 113.12C103.376 112.768 103.114 112.341 102.922 111.84C102.73 111.339 102.634 110.768 102.634 110.128C102.634 109.488 102.73 108.917 102.922 108.416C103.125 107.904 103.386 107.472 103.706 107.12C104.037 106.768 104.41 106.501 104.826 106.32C105.242 106.128 105.674 106.032 106.122 106.032C106.613 106.032 107.05 106.117 107.434 106.288C107.829 106.459 108.154 106.704 108.41 107.024C108.677 107.344 108.88 107.728 109.018 108.176C109.157 108.624 109.226 109.125 109.226 109.68C109.226 109.819 109.221 109.957 109.21 110.096C109.21 110.224 109.2 110.336 109.178 110.432H103.93C103.984 111.264 104.24 111.925 104.698 112.416C105.168 112.896 105.776 113.136 106.522 113.136C106.896 113.136 107.237 113.083 107.546 112.976C107.866 112.859 108.17 112.709 108.458 112.528L108.922 113.392C108.581 113.605 108.202 113.792 107.786 113.952C107.37 114.112 106.896 114.192 106.362 114.192ZM103.914 109.488H108.074C108.074 108.699 107.904 108.101 107.562 107.696C107.232 107.28 106.762 107.072 106.154 107.072C105.877 107.072 105.61 107.125 105.354 107.232C105.109 107.339 104.885 107.499 104.682 107.712C104.48 107.915 104.309 108.165 104.17 108.464C104.042 108.763 103.957 109.104 103.914 109.488ZM114.3 114.192C113.777 114.192 113.287 114.101 112.828 113.92C112.38 113.728 111.985 113.461 111.644 113.12C111.313 112.768 111.052 112.341 110.86 111.84C110.668 111.339 110.572 110.768 110.572 110.128C110.572 109.488 110.668 108.917 110.86 108.416C111.063 107.904 111.324 107.472 111.644 107.12C111.975 106.768 112.348 106.501 112.764 106.32C113.18 106.128 113.612 106.032 114.06 106.032C114.551 106.032 114.988 106.117 115.372 106.288C115.767 106.459 116.092 106.704 116.348 107.024C116.615 107.344 116.817 107.728 116.956 108.176C117.095 108.624 117.164 109.125 117.164 109.68C117.164 109.819 117.159 109.957 117.148 110.096C117.148 110.224 117.137 110.336 117.116 110.432H111.868C111.921 111.264 112.177 111.925 112.636 112.416C113.105 112.896 113.713 113.136 114.46 113.136C114.833 113.136 115.175 113.083 115.484 112.976C115.804 112.859 116.108 112.709 116.396 112.528L116.86 113.392C116.519 113.605 116.14 113.792 115.724 113.952C115.308 114.112 114.833 114.192 114.3 114.192ZM111.852 109.488H116.012C116.012 108.699 115.841 108.101 115.5 107.696C115.169 107.28 114.7 107.072 114.092 107.072C113.815 107.072 113.548 107.125 113.292 107.232C113.047 107.339 112.823 107.499 112.62 107.712C112.417 107.915 112.247 108.165 112.108 108.464C111.98 108.763 111.895 109.104 111.852 109.488Z" fill="#333333"/>
<path d="M40.099 71.632C46.703 71.112 48.367 73.608 48.367 79.848C48.367 83.696 47.015 86.764 42.179 86.764C38.071 86.764 36.199 84.06 36.303 80.108H32.975C32.767 86.608 36.355 89.572 42.647 89.572C48.575 89.572 51.695 85.776 51.695 79.12C51.695 74.856 50.707 70.8 45.663 70.28V70.176C50.239 69.084 51.331 65.236 51.331 61.024C51.331 54.576 47.951 52.184 41.867 52.184C36.199 52.184 33.131 56.24 33.495 61.596H36.823C36.667 57.852 38.123 54.992 42.283 54.992C46.391 54.992 48.003 57.488 48.003 61.44C48.003 66.848 45.455 69.292 40.099 68.824V71.632ZM58.1605 89H62.0085V85.048H58.1605V89ZM77.0718 71.892C72.0278 71.892 71.4038 67.316 71.4038 63.312C71.4038 59.152 72.1318 54.992 77.2798 54.992C83.2598 54.992 83.3118 59.204 83.3118 63.728C83.3118 66.12 83.1038 71.892 77.0718 71.892ZM76.7598 74.7C79.3598 74.7 81.8558 73.764 83.4158 71.528H83.5198C83.2598 82.76 83.6238 86.764 77.0198 86.764C73.2238 86.764 71.7678 84.528 71.8198 80.94H68.4918C68.6478 87.076 71.3518 89.572 77.4358 89.572C86.4318 89.572 86.6398 83.904 86.6398 70.696V66.224C86.6398 57.488 86.3278 52.184 77.1758 52.184C69.8958 52.184 68.0758 56.968 68.0758 63.312C68.0758 71.008 70.3118 74.7 76.7598 74.7ZM99.6053 71.112C105.585 71.112 106.365 65.704 106.365 61.024C106.365 56.448 104.805 52.184 99.6053 52.184C93.7293 52.184 92.8453 57.28 92.8453 61.96C92.8453 66.692 93.9893 71.112 99.6053 71.112ZM99.6053 68.616C95.7573 68.616 95.5493 64.404 95.5493 61.648C95.5493 58.84 95.9653 54.68 99.6053 54.68C103.245 54.68 103.661 58.84 103.661 61.648C103.661 64.404 103.453 68.616 99.6053 68.616ZM118.741 89.572C124.721 89.572 125.501 84.164 125.501 79.484C125.501 74.908 123.941 70.644 118.741 70.644C112.865 70.644 111.981 75.74 111.981 80.42C111.981 85.152 113.125 89.572 118.741 89.572ZM118.741 87.076C114.893 87.076 114.685 82.864 114.685 80.108C114.685 77.3 115.101 73.14 118.741 73.14C122.381 73.14 122.797 77.3 122.797 80.108C122.797 82.864 122.589 87.076 118.741 87.076ZM102.257 91.028L118.065 51.456H115.673L99.8653 91.028H102.257Z" fill="#5C068C"/>
<circle cx="78.8125" cy="78" r="69.3333" stroke="#F1F1F1" stroke-width="17.3333"/>
<path d="M78.8125 8.66667C84.4828 8.66667 90.1318 9.36227 95.6327 10.7379" stroke="#5C068C" stroke-width="17.3333"/>
</svg>
