<svg width="157" height="156" viewBox="0 0 157 156" fill="none" xmlns="http://www.w3.org/2000/svg">
<path d="M53.7427 114H55.0707V109.84H56.7987C59.1027 109.84 60.6707 108.8 60.6707 106.592C60.6707 104.288 59.0867 103.504 56.7347 103.504H53.7427V114ZM55.0707 108.752V104.576H56.5747C58.4147 104.576 59.3427 105.072 59.3427 106.592C59.3427 108.08 58.4627 108.752 56.6387 108.752H55.0707ZM64.0692 114.192C64.4212 114.192 64.6452 114.144 64.8212 114.064L64.6452 113.072C64.5012 113.104 64.4372 113.104 64.3572 113.104C64.1652 113.104 63.9892 112.944 63.9892 112.528V102.608H62.6772V112.432C62.6772 113.568 63.0772 114.192 64.0692 114.192ZM68.5474 114.192C69.5234 114.192 70.3874 113.68 71.1234 113.072H71.1714L71.2834 114H72.3714V109.232C72.3714 107.296 71.5714 106.032 69.6674 106.032C68.4194 106.032 67.3314 106.576 66.6114 107.04L67.1234 107.952C67.7314 107.536 68.5474 107.12 69.4434 107.12C70.7234 107.12 71.0434 108.08 71.0434 109.072C67.7314 109.44 66.2754 110.288 66.2754 111.984C66.2754 113.376 67.2514 114.192 68.5474 114.192ZM68.9314 113.136C68.1634 113.136 67.5554 112.768 67.5554 111.888C67.5554 110.896 68.4514 110.256 71.0434 109.936V112.096C70.2914 112.768 69.6834 113.136 68.9314 113.136ZM77.8899 114.192C78.8179 114.192 79.6979 113.824 80.4019 113.2L79.8259 112.32C79.3459 112.752 78.7219 113.104 78.0019 113.104C76.5779 113.104 75.6019 111.904 75.6019 110.128C75.6019 108.336 76.6259 107.12 78.0339 107.12C78.6579 107.12 79.1379 107.408 79.5859 107.808L80.2579 106.944C79.7139 106.448 79.0099 106.032 77.9859 106.032C75.9859 106.032 74.2419 107.52 74.2419 110.128C74.2419 112.704 75.8259 114.192 77.8899 114.192ZM84.923 114.192C85.979 114.192 86.811 113.824 87.483 113.392L87.019 112.528C86.443 112.896 85.819 113.136 85.083 113.136C83.595 113.136 82.587 112.08 82.491 110.432H87.739C87.771 110.24 87.787 109.952 87.787 109.68C87.787 107.456 86.667 106.032 84.683 106.032C82.907 106.032 81.195 107.584 81.195 110.128C81.195 112.672 82.843 114.192 84.923 114.192ZM82.475 109.488C82.635 107.952 83.627 107.072 84.715 107.072C85.931 107.072 86.635 107.92 86.635 109.488H82.475ZM93.1485 114.192C94.9245 114.192 96.5085 112.64 96.5085 109.984C96.5085 107.584 95.4365 106.032 93.4205 106.032C92.5565 106.032 91.6925 106.496 90.9885 107.12L91.0205 105.712V102.608H89.7085V114H90.7645L90.8765 113.2H90.9245C91.6125 113.824 92.4285 114.192 93.1485 114.192ZM92.9245 113.088C92.4125 113.088 91.7085 112.864 91.0205 112.272V108.192C91.7565 107.504 92.4445 107.136 93.1005 107.136C94.5725 107.136 95.1485 108.288 95.1485 110C95.1485 111.92 94.2045 113.088 92.9245 113.088ZM101.576 114.192C103.48 114.192 105.176 112.704 105.176 110.128C105.176 107.52 103.48 106.032 101.576 106.032C99.6722 106.032 97.9762 107.52 97.9762 110.128C97.9762 112.704 99.6722 114.192 101.576 114.192ZM101.576 113.104C100.248 113.104 99.3362 111.904 99.3362 110.128C99.3362 108.336 100.248 107.12 101.576 107.12C102.92 107.12 103.816 108.336 103.816 110.128C103.816 111.904 102.92 113.104 101.576 113.104Z" fill="#333333"/>
<path d="M49.99 86.192H35.17C47.286 67.992 49.938 65.028 49.938 59.724C49.938 53.536 44.894 52.184 40.682 52.184C36.47 52.184 31.634 54.368 31.634 61.596H34.754C34.754 57.852 36.73 54.992 40.682 54.992C43.542 54.992 46.61 55.616 46.61 60.452C46.61 65.288 39.59 73.608 31.53 86.088V89H49.99V86.192ZM56.4554 89H60.3034V85.048H56.4554V89ZM73.0268 71.632C79.6308 71.112 81.2948 73.608 81.2948 79.848C81.2948 83.696 79.9428 86.764 75.1068 86.764C70.9988 86.764 69.1268 84.06 69.2308 80.108H65.9028C65.6948 86.608 69.2828 89.572 75.5748 89.572C81.5028 89.572 84.6228 85.776 84.6228 79.12C84.6228 74.856 83.6348 70.8 78.5908 70.28V70.176C83.1668 69.084 84.2588 65.236 84.2588 61.024C84.2588 54.576 80.8788 52.184 74.7948 52.184C69.1268 52.184 66.0588 56.24 66.4228 61.596H69.7508C69.5948 57.852 71.0508 54.992 75.2108 54.992C79.3188 54.992 80.9308 57.488 80.9308 61.44C80.9308 66.848 78.3828 69.292 73.0268 68.824V71.632ZM97.9002 71.112C103.88 71.112 104.66 65.704 104.66 61.024C104.66 56.448 103.1 52.184 97.9002 52.184C92.0242 52.184 91.1402 57.28 91.1402 61.96C91.1402 66.692 92.2842 71.112 97.9002 71.112ZM97.9002 68.616C94.0522 68.616 93.8442 64.404 93.8442 61.648C93.8442 58.84 94.2602 54.68 97.9002 54.68C101.54 54.68 101.956 58.84 101.956 61.648C101.956 64.404 101.748 68.616 97.9002 68.616ZM117.036 89.572C123.016 89.572 123.796 84.164 123.796 79.484C123.796 74.908 122.236 70.644 117.036 70.644C111.16 70.644 110.276 75.74 110.276 80.42C110.276 85.152 111.42 89.572 117.036 89.572ZM117.036 87.076C113.188 87.076 112.98 82.864 112.98 80.108C112.98 77.3 113.396 73.14 117.036 73.14C120.676 73.14 121.092 77.3 121.092 80.108C121.092 82.864 120.884 87.076 117.036 87.076ZM100.552 91.028L116.36 51.456H113.968L98.1602 91.028H100.552Z" fill="#AEAEAE"/>
<circle cx="78.875" cy="78" r="69.3333" stroke="#F1F1F1" stroke-width="17.3333"/>
<path d="M78.875 8.66667C82.2163 8.66667 85.5533 8.9082 88.8597 9.38939" stroke="#AEAEAE" stroke-width="17.3333"/>
</svg>
