<svg width="54" height="53" viewBox="0 0 54 53" fill="none" xmlns="http://www.w3.org/2000/svg">
<g clip-path="url(#clip0)">
<path fill-rule="evenodd" clip-rule="evenodd" d="M12.9417 47.3735C24.2688 55.3391 39.9086 52.6141 47.8742 41.287C55.8398 29.9599 53.1148 14.3201 41.7877 6.35453L12.9417 47.3735Z" fill="#E3EFE9"/>
<path fill-rule="evenodd" clip-rule="evenodd" d="M41.7869 6.35455C41.7869 6.35454 41.7869 6.35453 41.7868 6.35452C30.4598 -1.61108 14.8199 1.11394 6.85434 12.441C-1.11126 23.7681 1.61376 39.4079 12.9408 47.3735C12.9409 47.3735 12.9409 47.3735 12.9409 47.3736L41.7869 6.35455Z" fill="#B8D7C9"/>
<rect x="28.4268" y="15.4995" width="27.0483" height="5.21985" transform="rotate(45.218 28.4268 15.4995)" fill="#5C068C"/>
<rect x="24.6631" y="34.6113" width="27.0483" height="5.21985" transform="rotate(-44.782 24.6631 34.6113)" fill="#5C068C"/>
</g>
<defs>
<clipPath id="clip0">
<rect width="53" height="53" fill="white" transform="translate(0.5)"/>
</clipPath>
</defs>
</svg>
