<svg width="156" height="156" viewBox="0 0 156 156" fill="none" xmlns="http://www.w3.org/2000/svg">
<path d="M43.4791 114V103.504H45.0791L47.0951 109.104C47.2231 109.467 47.3457 109.835 47.4631 110.208C47.5911 110.571 47.7191 110.933 47.8471 111.296H47.9111C48.0391 110.933 48.1564 110.571 48.2631 110.208C48.3804 109.835 48.5031 109.467 48.6311 109.104L50.6151 103.504H52.2311V114H50.9831V108.224C50.9831 107.755 51.0044 107.237 51.0471 106.672C51.0897 106.107 51.1271 105.589 51.1591 105.12H51.0951L50.2631 107.504L48.2791 112.944H47.3991L45.4151 107.504L44.5831 105.12H44.5191C44.5511 105.589 44.5831 106.107 44.6151 106.672C44.6577 107.237 44.6791 107.755 44.6791 108.224V114H43.4791ZM55.1041 117.344C54.9227 117.344 54.7574 117.328 54.6081 117.296C54.4587 117.275 54.3201 117.237 54.1921 117.184L54.4481 116.144C54.5334 116.165 54.6294 116.187 54.7361 116.208C54.8427 116.24 54.9441 116.256 55.0401 116.256C55.4881 116.256 55.8507 116.096 56.1281 115.776C56.4161 115.467 56.6401 115.072 56.8001 114.592L56.9761 114.016L53.8561 106.224H55.2161L56.8001 110.528C56.9174 110.869 57.0401 111.232 57.1681 111.616C57.3067 111.989 57.4347 112.357 57.5521 112.72H57.6161C57.7334 112.368 57.8454 112 57.9521 111.616C58.0587 111.232 58.1654 110.869 58.2721 110.528L59.6641 106.224H60.9441L58.0161 114.64C57.8774 115.024 57.7227 115.381 57.5521 115.712C57.3814 116.043 57.1787 116.325 56.9441 116.56C56.7094 116.805 56.4427 116.997 56.1441 117.136C55.8454 117.275 55.4987 117.344 55.1041 117.344ZM62.6688 114V107.296H61.6128V106.304L62.6688 106.224V104.992C62.6688 104.192 62.8501 103.563 63.2128 103.104C63.5861 102.645 64.1621 102.416 64.9408 102.416C65.1861 102.416 65.4155 102.443 65.6288 102.496C65.8528 102.539 66.0555 102.597 66.2368 102.672L65.9488 103.68C65.6608 103.552 65.3675 103.488 65.0688 103.488C64.3435 103.488 63.9808 103.989 63.9808 104.992V106.224H65.6288V107.296H63.9808V114H62.6688ZM70.1124 114.192C69.5898 114.192 69.0991 114.101 68.6404 113.92C68.1924 113.728 67.7978 113.461 67.4564 113.12C67.1258 112.768 66.8644 112.341 66.6724 111.84C66.4804 111.339 66.3844 110.768 66.3844 110.128C66.3844 109.488 66.4804 108.917 66.6724 108.416C66.8751 107.904 67.1364 107.472 67.4564 107.12C67.7871 106.768 68.1604 106.501 68.5764 106.32C68.9924 106.128 69.4244 106.032 69.8724 106.032C70.3631 106.032 70.8004 106.117 71.1844 106.288C71.5791 106.459 71.9044 106.704 72.1604 107.024C72.4271 107.344 72.6298 107.728 72.7684 108.176C72.9071 108.624 72.9764 109.125 72.9764 109.68C72.9764 109.819 72.9711 109.957 72.9604 110.096C72.9604 110.224 72.9498 110.336 72.9284 110.432H67.6804C67.7338 111.264 67.9898 111.925 68.4484 112.416C68.9178 112.896 69.5258 113.136 70.2724 113.136C70.6458 113.136 70.9871 113.083 71.2964 112.976C71.6164 112.859 71.9204 112.709 72.2084 112.528L72.6724 113.392C72.3311 113.605 71.9524 113.792 71.5364 113.952C71.1204 114.112 70.6458 114.192 70.1124 114.192ZM67.6644 109.488H71.8244C71.8244 108.699 71.6538 108.101 71.3124 107.696C70.9818 107.28 70.5124 107.072 69.9044 107.072C69.6271 107.072 69.3604 107.125 69.1044 107.232C68.8591 107.339 68.6351 107.499 68.4324 107.712C68.2298 107.915 68.0591 108.165 67.9204 108.464C67.7924 108.763 67.7071 109.104 67.6644 109.488ZM74.8979 114V106.224H75.9859L76.0979 107.344H76.1459C76.4873 106.971 76.8553 106.661 77.2499 106.416C77.6553 106.16 78.0926 106.032 78.5619 106.032C79.1593 106.032 79.6233 106.165 79.9539 106.432C80.2953 106.688 80.5459 107.051 80.7059 107.52C81.1113 107.072 81.5166 106.715 81.9219 106.448C82.3379 106.171 82.7859 106.032 83.2659 106.032C84.0659 106.032 84.6579 106.288 85.0419 106.8C85.4366 107.312 85.6339 108.069 85.6339 109.072V114H84.3219V109.248C84.3219 108.512 84.2046 107.984 83.9699 107.664C83.7353 107.333 83.3726 107.168 82.8819 107.168C82.2953 107.168 81.6446 107.568 80.9299 108.368V114H79.6179V109.248C79.6179 108.512 79.5006 107.984 79.2659 107.664C79.0313 107.333 78.6633 107.168 78.1619 107.168C77.5753 107.168 76.9246 107.568 76.2099 108.368V114H74.8979ZM91.6036 114.192C91.2409 114.192 90.8622 114.107 90.4676 113.936C90.0836 113.755 89.7209 113.509 89.3796 113.2H89.3316L89.2196 114H88.1636V102.608H89.4756V105.712L89.4436 107.12C89.7956 106.811 90.1796 106.555 90.5956 106.352C91.0116 106.139 91.4382 106.032 91.8756 106.032C92.3769 106.032 92.8196 106.128 93.2036 106.32C93.5876 106.501 93.9076 106.768 94.1636 107.12C94.4302 107.461 94.6276 107.877 94.7556 108.368C94.8942 108.848 94.9636 109.387 94.9636 109.984C94.9636 110.645 94.8729 111.237 94.6916 111.76C94.5102 112.283 94.2649 112.725 93.9556 113.088C93.6462 113.451 93.2889 113.728 92.8836 113.92C92.4782 114.101 92.0516 114.192 91.6036 114.192ZM91.3796 113.088C91.6996 113.088 91.9929 113.019 92.2596 112.88C92.5369 112.731 92.7716 112.528 92.9636 112.272C93.1662 112.005 93.3209 111.68 93.4276 111.296C93.5449 110.912 93.6036 110.48 93.6036 110C93.6036 109.573 93.5662 109.184 93.4916 108.832C93.4169 108.48 93.2942 108.181 93.1236 107.936C92.9636 107.68 92.7502 107.483 92.4836 107.344C92.2276 107.205 91.9182 107.136 91.5556 107.136C90.9262 107.136 90.2329 107.488 89.4756 108.192V112.272C89.8169 112.571 90.1529 112.784 90.4836 112.912C90.8249 113.029 91.1236 113.088 91.3796 113.088ZM97.0073 114V106.224H98.0953L98.2073 107.632H98.2553C98.522 107.141 98.842 106.752 99.2153 106.464C99.5993 106.176 100.015 106.032 100.463 106.032C100.773 106.032 101.05 106.085 101.295 106.192L101.039 107.344C100.911 107.301 100.794 107.269 100.687 107.248C100.581 107.227 100.447 107.216 100.287 107.216C99.9566 107.216 99.61 107.349 99.2473 107.616C98.8953 107.883 98.586 108.347 98.3193 109.008V114H97.0073ZM105.55 114.192C105.027 114.192 104.537 114.101 104.078 113.92C103.63 113.728 103.235 113.461 102.894 113.12C102.563 112.768 102.302 112.341 102.11 111.84C101.918 111.339 101.822 110.768 101.822 110.128C101.822 109.488 101.918 108.917 102.11 108.416C102.313 107.904 102.574 107.472 102.894 107.12C103.225 106.768 103.598 106.501 104.014 106.32C104.43 106.128 104.862 106.032 105.31 106.032C105.801 106.032 106.238 106.117 106.622 106.288C107.017 106.459 107.342 106.704 107.598 107.024C107.865 107.344 108.067 107.728 108.206 108.176C108.345 108.624 108.414 109.125 108.414 109.68C108.414 109.819 108.409 109.957 108.398 110.096C108.398 110.224 108.387 110.336 108.366 110.432H103.118C103.171 111.264 103.427 111.925 103.886 112.416C104.355 112.896 104.963 113.136 105.71 113.136C106.083 113.136 106.425 113.083 106.734 112.976C107.054 112.859 107.358 112.709 107.646 112.528L108.11 113.392C107.769 113.605 107.39 113.792 106.974 113.952C106.558 114.112 106.083 114.192 105.55 114.192ZM103.102 109.488H107.262C107.262 108.699 107.091 108.101 106.75 107.696C106.419 107.28 105.95 107.072 105.342 107.072C105.065 107.072 104.798 107.125 104.542 107.232C104.297 107.339 104.073 107.499 103.87 107.712C103.667 107.915 103.497 108.165 103.358 108.464C103.23 108.763 103.145 109.104 103.102 109.488ZM113.487 114.192C112.965 114.192 112.474 114.101 112.015 113.92C111.567 113.728 111.173 113.461 110.831 113.12C110.501 112.768 110.239 112.341 110.047 111.84C109.855 111.339 109.759 110.768 109.759 110.128C109.759 109.488 109.855 108.917 110.047 108.416C110.25 107.904 110.511 107.472 110.831 107.12C111.162 106.768 111.535 106.501 111.951 106.32C112.367 106.128 112.799 106.032 113.247 106.032C113.738 106.032 114.175 106.117 114.559 106.288C114.954 106.459 115.279 106.704 115.535 107.024C115.802 107.344 116.005 107.728 116.143 108.176C116.282 108.624 116.351 109.125 116.351 109.68C116.351 109.819 116.346 109.957 116.335 110.096C116.335 110.224 116.325 110.336 116.303 110.432H111.055C111.109 111.264 111.365 111.925 111.823 112.416C112.293 112.896 112.901 113.136 113.647 113.136C114.021 113.136 114.362 113.083 114.671 112.976C114.991 112.859 115.295 112.709 115.583 112.528L116.047 113.392C115.706 113.605 115.327 113.792 114.911 113.952C114.495 114.112 114.021 114.192 113.487 114.192ZM111.039 109.488H115.199C115.199 108.699 115.029 108.101 114.687 107.696C114.357 107.28 113.887 107.072 113.279 107.072C113.002 107.072 112.735 107.125 112.479 107.232C112.234 107.339 112.01 107.499 111.807 107.712C111.605 107.915 111.434 108.165 111.295 108.464C111.167 108.763 111.082 109.104 111.039 109.488Z" fill="#333333"/>
<path d="M39.2865 71.632C45.8905 71.112 47.5545 73.608 47.5545 79.848C47.5545 83.696 46.2025 86.764 41.3665 86.764C37.2585 86.764 35.3865 84.06 35.4905 80.108H32.1625C31.9545 86.608 35.5425 89.572 41.8345 89.572C47.7625 89.572 50.8825 85.776 50.8825 79.12C50.8825 74.856 49.8945 70.8 44.8505 70.28V70.176C49.4265 69.084 50.5185 65.236 50.5185 61.024C50.5185 54.576 47.1385 52.184 41.0545 52.184C35.3865 52.184 32.3185 56.24 32.6825 61.596H36.0105C35.8545 57.852 37.3105 54.992 41.4705 54.992C45.5785 54.992 47.1905 57.488 47.1905 61.44C47.1905 66.848 44.6425 69.292 39.2865 68.824V71.632ZM57.348 89H61.196V85.048H57.348V89ZM76.2593 71.892C71.2153 71.892 70.5913 67.316 70.5913 63.312C70.5913 59.152 71.3193 54.992 76.4673 54.992C82.4473 54.992 82.4993 59.204 82.4993 63.728C82.4993 66.12 82.2913 71.892 76.2593 71.892ZM75.9473 74.7C78.5473 74.7 81.0433 73.764 82.6033 71.528H82.7073C82.4473 82.76 82.8113 86.764 76.2073 86.764C72.4113 86.764 70.9553 84.528 71.0073 80.94H67.6793C67.8353 87.076 70.5393 89.572 76.6233 89.572C85.6193 89.572 85.8273 83.904 85.8273 70.696V66.224C85.8273 57.488 85.5153 52.184 76.3633 52.184C69.0833 52.184 67.2633 56.968 67.2633 63.312C67.2633 71.008 69.4993 74.7 75.9473 74.7ZM98.7928 71.112C104.773 71.112 105.553 65.704 105.553 61.024C105.553 56.448 103.993 52.184 98.7928 52.184C92.9168 52.184 92.0328 57.28 92.0328 61.96C92.0328 66.692 93.1768 71.112 98.7928 71.112ZM98.7928 68.616C94.9448 68.616 94.7368 64.404 94.7368 61.648C94.7368 58.84 95.1528 54.68 98.7928 54.68C102.433 54.68 102.849 58.84 102.849 61.648C102.849 64.404 102.641 68.616 98.7928 68.616ZM117.929 89.572C123.909 89.572 124.689 84.164 124.689 79.484C124.689 74.908 123.129 70.644 117.929 70.644C112.053 70.644 111.169 75.74 111.169 80.42C111.169 85.152 112.313 89.572 117.929 89.572ZM117.929 87.076C114.081 87.076 113.873 82.864 113.873 80.108C113.873 77.3 114.289 73.14 117.929 73.14C121.569 73.14 121.985 77.3 121.985 80.108C121.985 82.864 121.777 87.076 117.929 87.076ZM101.445 91.028L117.253 51.456H114.861L99.0528 91.028H101.445Z" fill="#5C068C"/>
<circle cx="78" cy="78" r="69.3333" stroke="#F1F1F1" stroke-width="17.3333"/>
<path d="M78 8.66667C83.6703 8.66667 89.3193 9.36227 94.8202 10.7379" stroke="#5C068C" stroke-width="17.3333"/>
</svg>
