<svg width="11" height="11" viewBox="0 0 11 11" fill="none" xmlns="http://www.w3.org/2000/svg">
<path d="M1.71388 0.723236C1.44032 0.449677 0.996795 0.449677 0.723236 0.723236C0.449677 0.996795 0.449677 1.44032 0.723236 1.71388L4.76839 5.75903L0.723277 9.80414C0.449719 10.0777 0.449718 10.5212 0.723277 10.7948C0.996836 11.0683 1.44036 11.0683 1.71392 10.7948L5.75903 6.74968L9.80414 10.7948C10.0777 11.0683 10.5212 11.0683 10.7948 10.7948C11.0683 10.5212 11.0683 10.0777 10.7948 9.80414L6.74968 5.75903L10.7948 1.71388C11.0684 1.44032 11.0684 0.996795 10.7948 0.723236C10.5213 0.449677 10.0777 0.449677 9.80419 0.723236L5.75903 4.76839L1.71388 0.723236Z" fill="#A51890"/>
</svg>
