<svg width="53" height="53" viewBox="0 0 53 53" fill="none" xmlns="http://www.w3.org/2000/svg">
<path d="M46.9761 6H5.71828C5.11358 6 4.53357 6.23841 4.10545 6.66296C3.67734 7.0875 3.43607 7.6635 3.43457 8.26464V32.2019C3.43457 32.804 3.67518 33.3815 4.10346 33.8072C4.53173 34.233 5.11261 34.4722 5.71828 34.4722H46.9761C47.276 34.4722 47.573 34.4135 47.8501 34.2994C48.1271 34.1853 48.3789 34.0181 48.591 33.8072C48.803 33.5964 48.9712 33.3461 49.086 33.0707C49.2008 32.7953 49.2598 32.5001 49.2598 32.2019V8.26464C49.2583 7.6635 49.0171 7.0875 48.589 6.66296C48.1608 6.23841 47.5808 6 46.9761 6ZM46.9308 31.0555H5.76358V8.3153H46.9308V31.0555Z" fill="#B8D7C9"/>
<path d="M50.3472 47H2.28919C1.98535 47 1.69395 46.88 1.4791 46.6664C1.26425 46.4528 1.14355 46.1631 1.14355 45.8611H51.4928C51.4928 46.1631 51.3721 46.4528 51.1573 46.6664C50.9424 46.88 50.651 47 50.3472 47Z" fill="#5C068C"/>
<path d="M52.6576 43.2886L48.2242 36.4628C48.1596 36.2187 48.0155 36.0027 47.8144 35.8486C47.6133 35.6945 47.3665 35.6109 47.1126 35.611H5.58671C5.33279 35.6109 5.08601 35.6945 4.8849 35.8486C4.6838 36.0027 4.53968 36.2187 4.47505 36.4628L0.0378515 43.2886C-0.00691306 43.4577 -0.0120467 43.6347 0.0228458 43.8061C0.0577384 43.9775 0.131726 44.1386 0.239113 44.2771C0.346499 44.4155 0.48442 44.5277 0.642255 44.6048C0.80009 44.682 0.97363 44.7221 1.14951 44.7221H51.5422C51.7184 44.7226 51.8924 44.683 52.0507 44.6061C52.209 44.5292 52.3474 44.4171 52.4552 44.2786C52.563 44.14 52.6374 43.9787 52.6725 43.807C52.7076 43.6354 52.7025 43.458 52.6576 43.2886ZM32.4439 43.5832H20.2723C20.1961 43.5833 20.1214 43.5626 20.0563 43.5233C19.9911 43.484 19.9381 43.4277 19.9031 43.3605C19.868 43.2932 19.8522 43.2177 19.8574 43.1422C19.8626 43.0666 19.8886 42.9939 19.9326 42.9321L21.7558 40.3429C21.794 40.2885 21.8448 40.2441 21.904 40.2134C21.9631 40.1827 22.0288 40.1666 22.0955 40.1665H30.7076C30.7763 40.1669 30.8438 40.1843 30.904 40.2171C30.9643 40.2498 31.0155 40.2969 31.0529 40.3541L32.7912 42.9434C32.8318 43.0058 32.8548 43.0779 32.8577 43.1521C32.8607 43.2264 32.8435 43.3 32.808 43.3654C32.7725 43.4308 32.72 43.4855 32.656 43.5238C32.5919 43.5621 32.5187 43.5826 32.4439 43.5832Z" fill="#B8D7C9"/>
<path d="M20.7722 23.2373C20.4324 23.5239 20.0365 23.7373 19.6096 23.864C19.1419 24.0137 18.6533 24.089 18.162 24.0873C17.5263 24.1032 16.8965 23.964 16.3274 23.682C15.8232 23.4233 15.4074 23.0217 15.1327 22.5281C14.8413 21.9863 14.6956 21.3787 14.71 20.7644C14.6953 20.082 14.8448 19.4059 15.1459 18.7925C15.4151 18.2461 15.8346 17.7867 16.3558 17.4678C16.8925 17.147 17.5093 16.9831 18.1355 16.995C18.7304 16.9785 19.3183 17.1259 19.8342 17.4209C20.3105 17.7114 20.6763 18.1509 20.8741 18.6705C21.1068 19.3105 21.1718 19.9988 21.0628 20.6706H16.1915L16.2595 19.7644H20.1324L19.6568 20.0083C19.7121 19.4229 19.6033 18.9745 19.3302 18.663C19.1913 18.5078 19.0192 18.3854 18.8265 18.3049C18.6338 18.2244 18.4255 18.1877 18.2167 18.1977C17.9522 18.1838 17.6882 18.2343 17.4478 18.3448C17.2073 18.4553 16.9977 18.6225 16.837 18.8319C16.5162 19.2559 16.3558 19.8957 16.3558 20.7513C16.3558 21.408 16.5162 21.9146 16.837 22.2711C17.1579 22.6275 17.6316 22.8052 18.2582 22.8039C18.6364 22.8056 19.0124 22.7467 19.3718 22.6294C19.7349 22.506 20.0748 22.3233 20.3777 22.0891L20.7722 23.2373Z" fill="#5C068C"/>
<path d="M22.6484 23.9937V14.3741H26.8006C27.8966 14.3741 28.7302 14.613 29.3014 15.0908C29.8726 15.5686 30.1583 16.2528 30.1583 17.1434C30.174 17.5247 30.1028 17.9046 29.9498 18.2545C29.7968 18.6045 29.5661 18.9155 29.275 19.1642C28.6849 19.6645 27.867 19.9147 26.8214 19.9147L27.9085 19.6989C28.2332 19.6954 28.5496 19.8005 28.8069 19.9972C29.0988 20.2377 29.3155 20.556 29.4316 20.9147L30.6263 23.9955H28.7635L27.5405 20.7928C27.4506 20.5207 27.2586 20.2935 27.0045 20.1586C26.7324 20.0425 26.4379 19.9874 26.142 19.9972H24.3754V23.9955L22.6484 23.9937ZM24.3603 18.6444H26.5496C27.2203 18.6444 27.7091 18.5225 28.0161 18.2786C28.1741 18.1451 28.2983 17.9765 28.3787 17.7865C28.459 17.5965 28.4932 17.3903 28.4785 17.1847C28.4785 16.6844 28.3244 16.3198 28.0161 16.0909C27.7078 15.862 27.219 15.745 26.5496 15.74H24.3603V18.6444Z" fill="#5C068C"/>
<path d="M32.9901 23.9931H30.9668L33.8601 20.4807L34.8246 19.2912L36.4968 17.171H38.5219L35.8173 20.4807L34.8246 21.6834L32.9901 23.9931ZM36.6874 23.9931L34.8246 21.6834L33.8601 20.4807L31.1423 17.171H33.1543L34.8246 19.2912L35.8173 20.4807L38.6842 23.9931H36.6874Z" fill="#5C068C"/>
<path d="M34.192 20.0682L32.6406 21.9576H34.6054L35.5094 20.5823L34.192 20.0682Z" fill="#5C068C"/>
</svg>
