<svg width="53" height="53" viewBox="0 0 53 53" fill="none" xmlns="http://www.w3.org/2000/svg">
<path d="M46.9751 6H5.71731C5.11261 6 4.53259 6.23841 4.10448 6.66296C3.67636 7.0875 3.43509 7.6635 3.43359 8.26464V32.2019C3.43359 32.804 3.6742 33.3815 4.10248 33.8072C4.53076 34.233 5.11163 34.4722 5.71731 34.4722H46.9751C47.275 34.4722 47.572 34.4135 47.8491 34.2994C48.1262 34.1853 48.3779 34.0181 48.59 33.8072C48.802 33.5964 48.9703 33.3461 49.085 33.0707C49.1998 32.7953 49.2589 32.5001 49.2589 32.2019V8.26464C49.2574 7.6635 49.0161 7.0875 48.588 6.66296C48.1599 6.23841 47.5798 6 46.9751 6ZM46.9298 31.0555H5.76261V8.3153H46.9298V31.0555Z" fill="#B8D7C9"/>
<path d="M50.3482 47.0002H2.29016C1.98632 47.0002 1.69493 46.8802 1.48008 46.6666C1.26523 46.4531 1.14453 46.1634 1.14453 45.8613H51.4938C51.4938 46.1634 51.3731 46.4531 51.1583 46.6666C50.9434 46.8802 50.652 47.0002 50.3482 47.0002Z" fill="#5C068C"/>
<path d="M52.6576 43.289L48.2242 36.4631C48.1596 36.219 48.0155 36.0031 47.8144 35.849C47.6133 35.6949 47.3665 35.6113 47.1126 35.6113H5.58671C5.33279 35.6113 5.08601 35.6949 4.8849 35.849C4.6838 36.0031 4.53968 36.219 4.47505 36.4631L0.0378515 43.289C-0.00691306 43.4581 -0.0120467 43.6351 0.0228458 43.8065C0.0577384 43.9778 0.131726 44.139 0.239113 44.2774C0.346499 44.4159 0.48442 44.528 0.642255 44.6052C0.80009 44.6823 0.97363 44.7224 1.14951 44.7224H51.5422C51.7184 44.723 51.8924 44.6833 52.0507 44.6064C52.209 44.5295 52.3474 44.4175 52.4552 44.2789C52.563 44.1404 52.6374 43.979 52.6725 43.8074C52.7076 43.6357 52.7025 43.4584 52.6576 43.289ZM32.4439 43.5835H20.2723C20.1961 43.5837 20.1214 43.5629 20.0563 43.5237C19.9911 43.4844 19.9381 43.4281 19.9031 43.3608C19.868 43.2936 19.8522 43.2181 19.8574 43.1425C19.8626 43.067 19.8886 42.9943 19.9326 42.9325L21.7558 40.3432C21.794 40.2889 21.8448 40.2445 21.904 40.2138C21.9631 40.1831 22.0288 40.167 22.0955 40.1669H30.7076C30.7763 40.1673 30.8438 40.1847 30.904 40.2174C30.9643 40.2502 31.0155 40.2973 31.0529 40.3545L32.7912 42.9437C32.8318 43.0061 32.8548 43.0782 32.8577 43.1525C32.8607 43.2267 32.8435 43.3004 32.808 43.3658C32.7725 43.4312 32.72 43.4859 32.656 43.5242C32.5919 43.5625 32.5187 43.583 32.4439 43.5835Z" fill="#B8D7C9"/>
<path d="M20.7741 23.2377C20.4344 23.5243 20.0385 23.7376 19.6115 23.8644C19.1438 24.014 18.6553 24.0894 18.1639 24.0876C17.5283 24.1036 16.8984 23.9644 16.3294 23.6824C15.8251 23.4237 15.4094 23.0221 15.1347 22.5285C14.8432 21.9866 14.6976 21.3791 14.7119 20.7648C14.6973 20.0823 14.8467 19.4063 15.1479 18.7928C15.417 18.2464 15.8365 17.7871 16.3577 17.4682C16.8944 17.1473 17.5113 16.9834 18.1375 16.9954C18.7324 16.9789 19.3203 17.1263 19.8361 17.4213C20.3125 17.7118 20.6783 18.1513 20.8761 18.6709C21.1088 19.3108 21.1737 19.9992 21.0648 20.671H16.1935L16.2614 19.7647H20.1343L19.6587 20.0087C19.7141 19.4233 19.6052 18.9748 19.3322 18.6634C19.1933 18.5081 19.0212 18.3858 18.8285 18.3052C18.6358 18.2247 18.4274 18.1881 18.2186 18.1981C17.9541 18.1841 17.6902 18.2346 17.4497 18.3451C17.2093 18.4557 16.9996 18.6229 16.839 18.8322C16.5181 19.2563 16.3577 19.8961 16.3577 20.7517C16.3577 21.4083 16.5181 21.9149 16.839 22.2714C17.1598 22.6279 17.6336 22.8055 18.2602 22.8043C18.6384 22.806 19.0144 22.7471 19.3737 22.6298C19.7368 22.5063 20.0768 22.3237 20.3797 22.0894L20.7741 23.2377Z" fill="#5C068C"/>
<path d="M22.6484 23.9936V14.374H26.8006C27.8966 14.374 28.7302 14.6129 29.3014 15.0908C29.8726 15.5686 30.1583 16.2528 30.1583 17.1434C30.174 17.5246 30.1028 17.9045 29.9498 18.2545C29.7968 18.6044 29.5661 18.9154 29.275 19.1641C28.6849 19.6644 27.867 19.9146 26.8214 19.9146L27.9085 19.6988C28.2332 19.6953 28.5496 19.8004 28.8069 19.9972C29.0988 20.2376 29.3155 20.5559 29.4316 20.9147L30.6263 23.9955H28.7635L27.5405 20.7927C27.4506 20.5206 27.2586 20.2935 27.0045 20.1585C26.7324 20.0424 26.4379 19.9873 26.142 19.9972H24.3754V23.9955L22.6484 23.9936ZM24.3603 18.6444H26.5496C27.2203 18.6444 27.7091 18.5224 28.0161 18.2785C28.1741 18.145 28.2983 17.9765 28.3787 17.7865C28.459 17.5964 28.4932 17.3903 28.4785 17.1847C28.4785 16.6843 28.3244 16.3197 28.0161 16.0908C27.7078 15.8619 27.219 15.7449 26.5496 15.7399H24.3603V18.6444Z" fill="#5C068C"/>
<path d="M32.992 23.993H30.9688L33.8621 20.4806L34.8265 19.2911L36.4987 17.1709H38.5239L35.8193 20.4806L34.8265 21.6833L32.992 23.993ZM36.6894 23.993L34.8265 21.6833L33.8621 20.4806L31.1443 17.1709H33.1562L34.8265 19.2911L35.8193 20.4806L38.6862 23.993H36.6894Z" fill="#5C068C"/>
<path d="M34.192 20.0684L32.6406 21.9577H34.6054L35.5094 20.5825L34.192 20.0684Z" fill="#5C068C"/>
</svg>
