<?xml version="1.0" encoding="UTF-8"?>
<svg width="18px" height="18px" viewBox="0 0 18 18" version="1.1" xmlns="http://www.w3.org/2000/svg" xmlns:xlink="http://www.w3.org/1999/xlink">
    <!-- Generator: Sketch 58 (84663) - https://sketch.com -->
    <title>Icon/External-Link-KO</title>
    <desc>Created with Sketch.</desc>
    <g id="Design-System" stroke="none" stroke-width="1" fill="none" fill-rule="evenodd">
        <g id="Interaction-States" transform="translate(-2094.000000, -8031.000000)">
            <g id="Icon/Outside_link" transform="translate(2078.000000, 8015.000000)">
                <g id="Phone"></g>
                <g id="noun_External-Link_1247020" transform="translate(16.000000, 16.000000)" fill="#FFFFFF">
                    <path d="M9.09112644,8.52631579 C9.28600962,8.52616411 9.47284829,8.45759619 9.61056571,8.33568678 L16.5298889,2.2182285 L16.5298889,5.3809371 C16.5298889,5.73985129 16.8589844,6.03080873 17.2649444,6.03080873 C17.6709044,6.03080873 18,5.73985129 18,5.3809371 L18,0.64987163 C18,0.29095744 17.6709044,0 17.2649444,0 L11.9137398,0 C11.5077799,0 11.1786843,0.29095744 11.1786843,0.64987163 C11.1786843,1.00878582 11.5077799,1.29974326 11.9137398,1.29974326 L15.4910103,1.29974326 L8.52268346,7.41720154 C8.31273169,7.60305341 8.24996981,7.88237279 8.3636302,8.12506209 C8.47729059,8.3677514 8.74502145,8.52608475 9.04212273,8.52631579 L9.09112644,8.52631579 Z" id="Path" fill-rule="nonzero"></path>
                    <path d="M17.2991803,9.74269605 C16.9172211,9.74269605 16.607582,10.0524939 16.607582,10.4346489 L16.607582,16.1547924 C16.607582,16.404467 16.4052844,16.6068683 16.1557377,16.6068683 L1.84426229,16.6068683 C1.5947156,16.6068683 1.39241803,16.404467 1.39241803,16.1547924 L1.39241803,1.83598155 C1.39241803,1.58630695 1.5947156,1.38390569 1.84426229,1.38390569 L7.25717213,1.38390569 C7.63913135,1.38390568 7.94877048,1.07410784 7.94877048,0.691952845 C7.94877048,0.309797847 7.63913135,0 7.25717213,0 L1.84426229,0 C0.825704355,0 0,0.826127576 0,1.84520759 L0,16.1547924 C0,17.1738724 0.825704355,18 1.84426229,18 L16.1557377,18 C17.1742956,18 18,17.1738724 18,16.1547924 L18,10.4346489 C18,10.2495218 17.9258874,10.0721082 17.7941862,9.94207334 C17.6624851,9.81203851 17.4841961,9.74022769 17.2991803,9.74269605 Z" id="Path" fill-rule="nonzero"></path>
                </g>
            </g>
        </g>
    </g>
</svg>