<svg width="339" height="79" viewBox="0 0 339 79" fill="none" xmlns="http://www.w3.org/2000/svg">
<path d="M191.629 22.2616H190.946V63.0955H191.629V22.2616Z" fill="black"/>
<path d="M205.159 40.3703C206.616 36.1724 214.903 34.4058 226.991 35.8768L229.331 27.2304C217.37 25.7026 208.636 27.4196 207.181 32.8875L205.159 40.3703Z" fill="#0095FF"/>
<path d="M248.819 31.3739C247.361 35.5694 239.08 37.3289 226.991 35.8674L224.637 44.5138C236.598 46.0392 245.332 44.3246 246.787 38.8544L248.819 31.3739Z" fill="#0000C9"/>
<path d="M212.817 22.2616C230.473 23.5316 248.511 32.3057 246.802 38.8543L248.386 33.0057C248.892 31.161 249.144 30.2079 249.144 29.4582C249.144 22.7819 231.74 14.6416 215.157 13.6246L212.817 22.2616Z" fill="#0095FF"/>
<path d="M241.168 49.4732C223.512 48.2008 205.472 39.4267 207.181 32.8781L205.599 38.729C205.093 40.5713 204.838 41.5268 204.838 42.2883C204.838 48.9647 222.243 57.1026 238.825 58.1195L241.168 49.4732Z" fill="#0000C9"/>
<path d="M305.571 47.4393C303.336 47.4676 302.145 46.0416 302.145 43.5039C302.145 43.336 302.145 43.1728 302.159 43.0096H310.938C311.119 42.3333 311.216 41.6379 311.228 40.9379C311.228 37.8492 309.344 35.4984 305.483 35.4984C301.535 35.4984 298.025 39.4054 298.025 43.5157C298.025 47.4511 300.58 49.8421 304.852 49.8421C306.665 49.8468 308.431 49.2745 309.9 48.2102L309.088 46.1693C308.078 46.9568 306.846 47.4014 305.571 47.4393ZM305.54 37.7026C306.846 37.7026 307.515 38.5493 307.515 40.4152C307.515 40.5997 307.503 40.7842 307.482 40.9687H302.475C303.021 39.0057 304.186 37.7026 305.545 37.7026H305.54Z" fill="#0000C9"/>
<path d="M270.811 34.614C270.811 31.4071 268.316 29.0752 264.542 29.0752H257.23L251.717 49.4803H256.331L258.363 41.9596H262.365C266.962 41.9596 270.811 38.9869 270.811 34.614ZM260.606 39.5686H259.017L261.209 31.4638H262.857C264.957 31.4638 266.136 32.8828 266.136 34.789C266.138 37.8185 263.772 39.5686 260.606 39.5686Z" fill="#0000C9"/>
<path d="M276.822 35.8674L277.34 33.9754C277.601 32.9845 278.046 31.2935 278.646 29.3424C279.284 27.3298 280.445 26.0763 282.013 26.0763C282.766 26.0763 283.23 26.4264 283.23 27.0081C283.201 27.6514 282.679 28.0298 282.679 29.0491C282.679 30.2458 283.696 31.1776 285 31.1776C286.61 31.1847 287.924 29.8792 287.931 28.2616C287.931 25.7854 285.812 24.1512 282.592 24.1512C277.862 24.1512 274.757 27.1832 272.813 34.2687L264.921 63.0978H269.394L276.221 38.1165H280.852L277.792 49.485H282.265L285.921 35.8721L276.822 35.8674Z" fill="#0000C9"/>
<path d="M299.452 35.8674H287.611L287.032 38.1118H292.762L283.868 49.4803H296.404L296.985 47.2359H290.532L299.452 35.8674Z" fill="#0000C9"/>
<path d="M322.9 35.6332C321.297 35.6332 319.604 36.6738 318.258 38.8331L319.039 35.8674H314.566L310.91 49.4802H315.383L317.031 43.3573C317.697 40.8504 319.322 38.3908 320.395 38.3908C321.558 38.3908 321.123 40.5761 323.124 40.5761C324.574 40.5761 325.445 39.2351 325.445 38.0124C325.452 36.5958 324.322 35.6332 322.9 35.6332Z" fill="#0000C9"/>
<path d="M72.3673 30.2789L66.2583 44.0195L60.1139 30.2789L54.7417 49.4802H57.3572L60.6507 37.6435L66.263 50.1897L71.8588 37.7475L75.1099 49.4802H77.7372L72.3673 30.2789Z" fill="#394A59"/>
<path d="M77.6851 31.0428H80.4606L84.9665 38.4689L89.4253 31.0428H92.2056L86.186 41.0278V49.4802H83.6788V41.0585L77.6851 31.0428Z" fill="#394A59"/>
<path d="M109.469 40.271C109.52 36.3309 106.385 33.0932 102.463 33.0412C102.399 33.0412 102.336 33.0412 102.27 33.0412C100.398 33.0199 98.6019 33.7933 97.3259 35.1697C95.9793 36.5201 95.2354 38.3624 95.266 40.2733C95.2307 42.1984 96.0005 44.0526 97.3848 45.3841C98.7549 46.7605 100.626 47.5149 102.564 47.4723C104.412 47.4865 106.18 46.7132 107.43 45.3438C108.762 43.9982 109.497 42.1677 109.469 40.271ZM92.7729 40.1551C92.8012 34.796 97.1282 30.4657 102.463 30.4586C105.062 30.4586 107.3 31.4164 109.181 33.3297C111.013 35.1176 112.032 37.582 112.006 40.148C112.006 42.9339 111.079 45.2871 109.221 47.2098C105.561 50.9867 99.5459 51.0695 95.7863 47.3919C95.718 47.3257 95.6497 47.2571 95.5838 47.1885C93.7405 45.3178 92.7306 42.7778 92.78 40.148" fill="#394A59"/>
<path d="M112.268 31.0735H114.914L120.674 44.1306L126.48 31.0735H129.149L120.644 50.1046L112.268 31.0735Z" fill="#394A59"/>
<path d="M135.805 36.0897L138.773 42.6643H132.869L135.805 36.0897ZM127.219 49.4802H129.825L131.932 44.7621H139.72L141.839 49.4802H144.466L135.812 30.3357L127.219 49.4802Z" fill="#394A59"/>
<path d="M147.227 49.4802H149.734V36.3853L163.301 50.334V31.0428H160.796V44.3198L147.227 30.3073V49.4802Z" fill="#394A59"/>
<path d="M166.515 31.0428V33.5615H170.88V49.4802H173.359V33.5615H177.737V31.0428H166.515Z" fill="#394A59"/>
<path d="M95.6261 55.2484L94.555 55.9579C94.0842 55.3501 93.545 55.0451 92.9071 55.0451C92.4927 55.0427 92.0902 55.1941 91.7818 55.4708C91.4804 55.7025 91.2992 56.0596 91.2898 56.4404C91.2898 56.7455 91.4145 57.0387 91.6382 57.2469C92.0666 57.5945 92.5422 57.8783 93.0507 58.0888C93.651 58.3466 94.1901 58.7297 94.6327 59.2098C94.9882 59.645 95.1741 60.1984 95.1553 60.7612C95.1459 61.5228 94.8022 62.2394 94.2136 62.7194C93.6227 63.2705 92.8459 63.5708 92.0407 63.5614C91.3745 63.5614 90.7224 63.3745 90.1574 63.0174C89.59 62.6816 89.1451 62.1731 88.8838 61.5653L90.0609 61.0143C90.5717 61.8302 91.2238 62.237 92.0219 62.237C92.4857 62.2394 92.9353 62.0714 93.2861 61.764C93.618 61.5204 93.8228 61.1349 93.837 60.721C93.837 60.4112 93.7051 60.1156 93.4768 59.9098C93.0483 59.5646 92.5728 59.2831 92.0643 59.075C91.4663 58.8243 90.9319 58.4459 90.494 57.9658C90.1409 57.5354 89.9549 56.9867 89.9738 56.4286C89.9667 55.6954 90.2798 54.9954 90.8283 54.5106C91.3863 53.9832 92.1255 53.697 92.8906 53.7136C94.0112 53.6923 95.0588 54.2741 95.6332 55.2414" fill="#007A94"/>
<path d="M108.181 54.8677L107.786 56.315C106.983 55.466 106.062 55.0427 105.026 55.0403C104.047 55.0167 103.103 55.3998 102.413 56.0998C101.716 56.7809 101.333 57.7246 101.354 58.7013C101.333 59.6379 101.693 60.5436 102.347 61.2106C102.976 61.8822 103.856 62.2583 104.775 62.2417C105.627 62.2133 106.455 61.9626 107.18 61.5156L106.971 63.0434C106.298 63.3674 105.563 63.5448 104.817 63.5637C102.218 63.6134 100.071 61.5346 100.021 58.9236C100.019 58.8598 100.021 58.7935 100.021 58.7297C99.9885 57.3864 100.518 56.0904 101.483 55.1586C102.453 54.2031 103.769 53.6852 105.128 53.7254C106.248 53.7467 107.329 54.1511 108.188 54.8748" fill="#007A94"/>
<path d="M113.788 54.0329L112.442 63.2516H113.68L115.027 54.0329H113.788Z" fill="#007A94"/>
<path d="M121.223 54.0329L119.848 63.2516H124.185L124.349 61.991H121.296L121.762 58.7936H124.832L125.013 57.5638H121.927L122.278 55.2627H125.35L125.545 54.0329H121.223Z" fill="#007A94"/>
<path d="M130.746 63.2516H131.97L132.935 56.6083L138.232 63.6063L139.614 54.0329H138.42L137.429 60.5886L132.151 53.5906L130.746 63.2516Z" fill="#007A94"/>
<path d="M152.138 54.8677L151.74 56.3151C151.046 55.5134 150.04 55.0498 148.983 55.0404C148.004 55.0167 147.06 55.3998 146.37 56.0999C145.671 56.781 145.285 57.7246 145.309 58.7014C145.29 59.6379 145.648 60.5437 146.304 61.2106C146.931 61.8846 147.813 62.2583 148.732 62.2417C149.584 62.2134 150.412 61.9627 151.138 61.5133L150.928 63.0411C150.255 63.3651 149.52 63.5425 148.774 63.5614C146.175 63.6111 144.028 61.5323 143.979 58.9213C143.976 58.8575 143.979 58.7912 143.979 58.7274C143.946 57.3841 144.475 56.0881 145.44 55.1562C146.41 54.2008 147.724 53.6829 149.082 53.7231C150.203 53.7443 151.283 54.1511 152.143 54.8724" fill="#007A94"/>
<path d="M157.863 54.0329L156.488 63.2516H160.825L160.987 61.991H157.936L158.402 58.7936H161.472L161.651 57.5638H158.567L158.918 55.2627H161.99L162.185 54.0329H157.863Z" fill="#007A94"/>
<path d="M173.392 55.2484L172.318 55.9579C171.861 55.3501 171.308 55.0451 170.67 55.0451C170.256 55.0427 169.853 55.1941 169.545 55.4708C169.243 55.7025 169.062 56.0596 169.053 56.4404C169.053 56.7455 169.178 57.0387 169.399 57.2469C169.827 57.5945 170.303 57.8783 170.811 58.0888C171.409 58.3489 171.948 58.7297 172.393 59.2098C172.749 59.645 172.935 60.1984 172.916 60.7612C172.907 61.5228 172.561 62.2394 171.974 62.7194C171.383 63.2705 170.604 63.5708 169.799 63.5614C169.133 63.5614 168.481 63.3745 167.916 63.0174C167.348 62.6816 166.903 62.1731 166.642 61.5653L167.819 61.0143C168.328 61.8302 168.98 62.237 169.778 62.237C170.242 62.2417 170.691 62.0714 171.04 61.764C171.374 61.5204 171.576 61.1349 171.591 60.721C171.591 60.4112 171.459 60.1156 171.23 59.9098C170.802 59.5646 170.326 59.2831 169.818 59.075C169.222 58.8219 168.686 58.4435 168.248 57.9658C167.895 57.533 167.711 56.9867 167.73 56.4286C167.723 55.6954 168.036 54.9954 168.584 54.5106C169.142 53.9832 169.881 53.697 170.647 53.7136C171.767 53.6923 172.815 54.2741 173.389 55.2414" fill="#007A94"/>
<path d="M33.1937 54.0234L37.2311 46.9994H45.3059L49.3433 54.0234L45.3059 61.0498H37.2311L33.1937 54.0234ZM35.7009 44.327L30.1333 54.0234L35.7009 63.7199H46.8361L52.4061 54.0234L46.8361 44.327H35.7009Z" fill="#FFCB00"/>
<path d="M45.9744 40.2047L49.3808 36.5059L46.2215 32.982H37.2428L33.3749 36.345L37.0945 40.2047H45.9744ZM36.0586 42.4704L30.2485 36.2836L36.254 30.6998H47.1609L52.5566 36.5035L46.8383 42.468L36.0586 42.4704Z" fill="#007A94"/>
<path d="M16.5825 49.809L20.82 42.5248L28.1838 40.2047L31.1854 43.5938L26.849 50.9631L19.5911 53.3328L16.5825 49.809ZM19.172 40.5122L13.5503 50.1377L18.8754 56.1991L28.4616 52.9993L34.2246 43.2508L28.8547 37.3668L19.172 40.5122Z" fill="#EA7125"/>
</svg>
