<svg width="47" height="53" viewBox="0 0 47 53" fill="none" xmlns="http://www.w3.org/2000/svg">
<path fill-rule="evenodd" clip-rule="evenodd" d="M4.0022 7.0044C2.06799 7.0044 0.5 8.57239 0.5 10.5066V49.4978C0.5 51.432 2.06799 53 4.00221 53H42.9934C44.9276 53 46.4956 51.432 46.4956 49.4978V10.5066C46.4956 8.57239 44.9276 7.0044 42.9934 7.0044H4.0022ZM41.5925 19.3789H5.63659V48.7974H41.5925V19.3789Z" fill="#B8D7C9"/>
<rect x="9.83887" y="22.8811" width="4.6696" height="4.6696" fill="#B8D7C9"/>
<rect x="9.83887" y="28.9515" width="4.6696" height="4.6696" fill="#B8D7C9"/>
<rect x="9.83887" y="35.022" width="4.6696" height="4.6696" fill="#B8D7C9"/>
<rect x="9.83887" y="41.0925" width="4.6696" height="4.6696" fill="#B8D7C9"/>
<rect x="17.3105" y="22.8811" width="4.6696" height="4.6696" fill="#B8D7C9"/>
<rect x="17.3105" y="28.9515" width="4.6696" height="4.6696" fill="#B8D7C9"/>
<rect x="17.3105" y="35.022" width="4.6696" height="4.6696" fill="#B8D7C9"/>
<rect x="17.3105" y="41.0925" width="4.6696" height="4.6696" fill="#B8D7C9"/>
<rect x="24.7822" y="22.8811" width="4.6696" height="4.6696" fill="#B8D7C9"/>
<rect x="24.7822" y="28.9515" width="4.6696" height="4.6696" fill="#B8D7C9"/>
<rect x="24.7822" y="35.022" width="4.6696" height="4.6696" fill="#B8D7C9"/>
<rect x="24.7822" y="41.0925" width="4.6696" height="4.6696" fill="#B8D7C9"/>
<rect x="32.2529" y="22.8811" width="4.6696" height="4.6696" fill="#B8D7C9"/>
<rect x="32.2529" y="28.9515" width="4.6696" height="4.6696" fill="#B8D7C9"/>
<rect x="32.2529" y="35.022" width="4.6696" height="4.6696" fill="#B8D7C9"/>
<rect x="32.2529" y="41.0925" width="4.6696" height="4.6696" fill="#B8D7C9"/>
<rect x="10.4226" y="0.583701" width="6.53745" height="13.3084" rx="3.26872" fill="#5C068C" stroke="white" stroke-width="1.1674"/>
<rect x="30.0349" y="0.583701" width="6.53745" height="13.3084" rx="3.26872" fill="#5C068C" stroke="white" stroke-width="1.1674"/>
</svg>
