<svg width="224" height="106" viewBox="0 0 224 106" fill="none" xmlns="http://www.w3.org/2000/svg">
<g clip-path="url(#clip0)">
<path d="M30.7168 21.5369C30.4635 21.6842 30.2101 21.8369 29.9674 21.9842C29.5346 22.2527 29.0015 22.2527 28.5687 21.9842C28.3206 21.8316 28.0673 21.6842 27.814 21.5316C26.1989 22.8053 22.4938 25.9948 19.6121 30.4106C20.2507 30.8579 20.8788 31.279 21.491 31.6737C24.2302 27.479 27.8087 24.4 29.2601 23.2421C30.6957 24.3895 34.2214 27.4158 36.9501 31.5421C37.5623 31.1421 38.1904 30.7211 38.829 30.2737C35.9631 25.9316 32.316 22.8 30.7168 21.5369Z" fill="url(#paint0_linear)"/>
<path d="M40.5337 42.1053C40.5337 49.4631 34.9444 55.9947 31.614 59.2368C30.3209 60.4947 28.2203 60.4947 26.9272 59.2368C23.5969 56 18.0075 49.4631 18.0075 42.1053C18.0075 41.6895 18.0286 41.2789 18.0656 40.8684C17.4164 40.0737 16.783 39.2421 16.1761 38.3684C15.9175 39.5737 15.7644 40.821 15.7644 42.1053C15.7644 50.2842 21.776 57.3474 25.3597 60.8316C26.4364 61.8789 27.8509 62.4053 29.2654 62.4053C30.6798 62.4053 32.0943 61.8789 33.171 60.8316C36.7547 57.3474 42.7663 50.2789 42.7663 42.1053C42.7663 40.821 42.6132 39.5789 42.3546 38.3684C41.7477 39.2421 41.1143 40.0737 40.4651 40.8684C40.5126 41.2789 40.5337 41.6895 40.5337 42.1053Z" fill="url(#paint1_linear)"/>
<path d="M37.6467 32.6475C38.734 34.4685 39.626 36.479 40.1221 38.6106C40.6974 37.8475 41.2568 37.0527 41.7794 36.2317C41.2041 34.5053 40.4176 32.879 39.5204 31.379C38.8818 31.8264 38.259 32.2474 37.6467 32.6475Z" fill="url(#paint2_linear)"/>
<path d="M18.9313 31.5211C18.0658 32.979 17.3163 34.558 16.7568 36.2316C17.2846 37.0527 17.8388 37.8474 18.4141 38.6106C18.8944 36.5316 19.76 34.5738 20.805 32.7895C20.198 32.3895 19.57 31.9632 18.9313 31.5211Z" fill="url(#paint3_linear)"/>
<path d="M30.7171 21.5369C34.8867 19.1053 40.4232 17.0264 43.3366 18.6422C44.8936 19.5106 45.6853 21.4474 45.6853 24.4053C45.6853 24.5001 45.68 24.5948 45.68 24.6896C46.2395 24.1474 46.7831 23.5896 47.3056 23.0159C47.0576 20.1632 46.002 18.2001 44.1547 17.1738C41.1357 15.4948 36.7286 16.779 33.3455 18.2948C31.9574 19.5527 30.8701 20.5896 30.2632 21.179C30.3899 21.279 30.5429 21.4001 30.7171 21.5369Z" fill="url(#paint4_linear)"/>
<path d="M13.0358 26.8947C12.4024 26.3263 11.7902 25.7421 11.1885 25.1421C11.3838 30.0105 13.5108 34.5421 16.1708 38.3684C16.3239 37.6421 16.5245 36.9263 16.7514 36.2316C14.9516 33.4052 13.5266 30.2421 13.0358 26.8947Z" fill="url(#paint5_linear)"/>
<path d="M15.1998 18.6474C15.9176 18.2474 16.7938 18.0737 17.7702 18.0737C20.7575 18.0737 24.6684 19.7053 27.8141 21.5368C27.9883 21.4 28.136 21.2842 28.2574 21.1895C27.3971 20.3526 26.3257 19.3526 25.1171 18.2684C21.7445 16.7684 17.3796 15.5158 14.3818 17.1789C12.4764 18.2368 11.4156 20.3053 11.2097 23.3105C11.7428 23.8789 12.2917 24.4368 12.8617 24.9789C12.8564 24.7895 12.8459 24.6 12.8459 24.4105C12.8512 21.4526 13.6428 19.5105 15.1998 18.6474Z" fill="url(#paint6_linear)"/>
<path d="M33.2768 45.879C30.9915 47.879 27.545 47.879 25.2596 45.879C23.2699 44.1369 20.6995 41.6316 18.4142 38.6106C18.2453 39.3474 18.1239 40.1053 18.0605 40.8685C20.1559 43.4422 22.3726 45.5843 24.1513 47.1369C25.608 48.4106 27.4394 49.0527 29.2656 49.0527C31.0918 49.0527 32.9232 48.4159 34.3799 47.1369C36.1586 45.5843 38.3753 43.4422 40.4706 40.8685C40.4073 40.1001 40.2859 39.3474 40.117 38.6106C37.837 41.6316 35.2666 44.1369 33.2768 45.879Z" fill="url(#paint7_linear)"/>
<path d="M45.5372 26.5947C45.0886 30.0526 43.6371 33.321 41.7793 36.2315C42.0115 36.9263 42.2068 37.6421 42.3651 38.3684C45.0833 34.4631 47.2367 29.821 47.3581 24.8368C46.7669 25.4421 46.16 26.0263 45.5372 26.5947Z" fill="url(#paint8_linear)"/>
<path d="M29.9675 21.9895C30.2102 21.8368 30.4636 21.6895 30.7169 21.5421C30.5375 21.4 30.3897 21.2842 30.2683 21.1947C29.9358 21.521 29.7352 21.7158 29.7299 21.7263L29.2708 22.1895L28.8063 21.721C28.6374 21.5526 28.4527 21.3737 28.2627 21.1895C28.1413 21.2842 27.9935 21.3947 27.8193 21.5368C28.078 21.6842 28.3313 21.8368 28.5741 21.9895C29.0016 22.2526 29.5347 22.2526 29.9675 21.9895Z" fill="url(#paint9_linear)"/>
<path d="M29.9675 21.9895C30.2102 21.8368 30.4636 21.6895 30.7169 21.5421C30.5375 21.4 30.3897 21.2842 30.2683 21.1947C29.9358 21.521 29.7352 21.7158 29.7299 21.7263L29.2708 22.1895L28.8063 21.721C28.6374 21.5526 28.4527 21.3737 28.2627 21.1895C28.1413 21.2842 27.9935 21.3947 27.8193 21.5368C28.078 21.6842 28.3313 21.8368 28.5741 21.9895C29.0016 22.2526 29.5347 22.2526 29.9675 21.9895Z" fill="#602D91"/>
<path d="M40.1218 38.6105C40.2907 39.3474 40.4121 40.1053 40.4754 40.8684C41.1246 40.0737 41.758 39.2421 42.365 38.3684C42.2119 37.6421 42.0113 36.9263 41.7791 36.2316C41.2566 37.0526 40.6971 37.8474 40.1218 38.6105Z" fill="url(#paint10_linear)"/>
<path d="M40.1218 38.6105C40.2907 39.3474 40.4121 40.1053 40.4754 40.8684C41.1246 40.0737 41.758 39.2421 42.365 38.3684C42.2119 37.6421 42.0113 36.9263 41.7791 36.2316C41.2566 37.0526 40.6971 37.8474 40.1218 38.6105Z" fill="url(#paint11_linear)"/>
<path d="M18.4139 38.6105C17.8386 37.8474 17.2791 37.0526 16.7566 36.2316C16.5244 36.9263 16.3291 37.6421 16.176 38.3684C16.783 39.2421 17.4163 40.0737 18.0655 40.8684C18.1236 40.1 18.245 39.3474 18.4139 38.6105Z" fill="url(#paint12_linear)"/>
<path d="M18.4139 38.6105C17.8386 37.8474 17.2791 37.0526 16.7566 36.2316C16.5244 36.9263 16.3291 37.6421 16.176 38.3684C16.783 39.2421 17.4163 40.0737 18.0655 40.8684C18.1236 40.1 18.245 39.3474 18.4139 38.6105Z" fill="url(#paint13_linear)"/>
<path d="M11.2149 23.3157C7.8265 19.6894 5.30893 15.5105 5.30893 11.0894C5.30893 9.11048 5.81033 7.89995 6.80258 7.48942C7.12454 7.35785 7.48871 7.29469 7.88984 7.29469C11.9222 7.29469 19.818 13.5263 25.117 18.2684C26.8851 19.0578 28.384 19.9105 29.2655 20.4473C30.1363 19.9157 31.6036 19.0789 33.3453 18.3C34.8706 16.9157 36.7548 15.2736 38.7499 13.6894C46.9993 7.13679 50.2452 6.98942 51.4486 7.48416C52.4356 7.88942 52.937 9.10521 52.937 11.0947C52.937 15.3947 50.5514 19.4684 47.3054 23.0263C47.3424 23.4684 47.3688 23.9263 47.3688 24.4105C47.3688 24.5526 47.3635 24.6947 47.3582 24.8368C51.2428 20.8526 54.2459 16.1473 54.2459 11.0894C54.2459 8.521 53.4753 6.90521 51.95 6.2789C49.3058 5.18942 44.7192 7.28416 37.9318 12.6736C33.9998 15.8 30.4847 19.1526 29.2655 20.3421C28.0304 19.1526 24.4678 15.7894 20.4777 12.6578C13.6956 7.34206 8.92431 5.19469 6.30118 6.28416C4.77586 6.921 4 8.53679 4 11.0894C4 16.2736 7.1562 21.0947 11.1885 25.1421C11.178 24.9 11.1674 24.6526 11.1674 24.4105C11.1727 24.0315 11.1885 23.6684 11.2149 23.3157Z" fill="url(#paint14_linear)"/>
<path d="M19.612 30.4157C17.3795 28.8631 15.015 27.0315 12.8616 24.9841C12.8827 25.6262 12.9407 26.2683 13.0305 26.8999C14.9569 28.6262 16.9889 30.1789 18.9206 31.5262C19.1529 31.142 19.3798 30.7736 19.612 30.4157Z" fill="url(#paint15_linear)"/>
<path d="M32.2792 34.3842C30.3053 35.4895 27.9408 35.4895 25.9668 34.3842C24.7424 33.6947 23.1907 32.7842 21.4964 31.679C21.2589 32.0421 21.032 32.4105 20.8103 32.7842C22.5204 33.9 24.0879 34.8211 25.3282 35.5158C26.5157 36.1842 27.8194 36.5158 29.123 36.5158C30.4267 36.5158 31.7303 36.1842 32.9179 35.5158C34.211 34.7895 35.8524 33.8211 37.6469 32.6421C37.4252 32.2684 37.1877 31.9 36.9502 31.5421C35.1821 32.7053 33.5565 33.6684 32.2792 34.3842Z" fill="url(#paint16_linear)"/>
<path d="M38.8345 30.2737C39.072 30.6316 39.2989 31 39.5259 31.3737C41.5104 29.9842 43.5899 28.3789 45.5427 26.5895C45.6219 25.9631 45.6694 25.3316 45.6852 24.6895C43.516 26.8 41.1093 28.6789 38.8345 30.2737Z" fill="url(#paint17_linear)"/>
<path d="M37.6469 32.6474C38.2591 32.2474 38.8819 31.8263 39.5205 31.3789C39.2936 31.0052 39.0666 30.6368 38.8291 30.2789C38.1905 30.7263 37.5624 31.1474 36.9502 31.5474C37.193 31.9052 37.4252 32.2737 37.6469 32.6474Z" fill="url(#paint18_linear)"/>
<path d="M37.6469 32.6474C38.2591 32.2474 38.8819 31.8263 39.5205 31.3789C39.2936 31.0052 39.0666 30.6368 38.8291 30.2789C38.1905 30.7263 37.5624 31.1474 36.9502 31.5474C37.193 31.9052 37.4252 32.2737 37.6469 32.6474Z" fill="url(#paint19_linear)"/>
<path d="M19.6122 30.4158C19.3746 30.7737 19.1477 31.1474 18.926 31.521C19.5647 31.9684 20.1927 32.3895 20.805 32.7842C21.0266 32.4052 21.2536 32.0368 21.4911 31.6789C20.8841 31.2789 20.2561 30.8579 19.6122 30.4158Z" fill="url(#paint20_linear)"/>
<path d="M19.6122 30.4158C19.3746 30.7737 19.1477 31.1474 18.926 31.521C19.5647 31.9684 20.1927 32.3895 20.805 32.7842C21.0266 32.4052 21.2536 32.0368 21.4911 31.6789C20.8841 31.2789 20.2561 30.8579 19.6122 30.4158Z" fill="url(#paint21_linear)"/>
<path d="M28.6113 20.9263L29.2657 20.4579L29.9202 20.9263C29.9624 20.9579 30.0891 21.0474 30.2685 21.1842C30.8755 20.5947 31.9628 19.5579 33.3509 18.3C31.6091 19.079 30.1419 19.9158 29.271 20.4474C28.3896 19.9105 26.8907 19.0579 25.1226 18.2684C26.3312 19.3526 27.4026 20.3526 28.2629 21.1895C28.4424 21.0526 28.569 20.9579 28.6113 20.9263Z" fill="url(#paint22_linear)"/>
<path d="M28.6113 20.9263L29.2657 20.4579L29.9202 20.9263C29.9624 20.9579 30.0891 21.0474 30.2685 21.1842C30.8755 20.5947 31.9628 19.5579 33.3509 18.3C31.6091 19.079 30.1419 19.9158 29.271 20.4474C28.3896 19.9105 26.8907 19.0579 25.1226 18.2684C26.3312 19.3526 27.4026 20.3526 28.2629 21.1895C28.4424 21.0526 28.569 20.9579 28.6113 20.9263Z" fill="#602D91"/>
<path d="M47.3052 23.0264C46.7827 23.6001 46.2391 24.1527 45.6796 24.7001C45.6691 25.3369 45.6216 25.9737 45.5371 26.6001C46.1599 26.0316 46.7669 25.4474 47.3527 24.8422C47.358 24.7001 47.3633 24.5579 47.3633 24.4158C47.3686 23.9264 47.3422 23.4685 47.3052 23.0264Z" fill="url(#paint23_linear)"/>
<path d="M47.3052 23.0264C46.7827 23.6001 46.2391 24.1527 45.6796 24.7001C45.6691 25.3369 45.6216 25.9737 45.5371 26.6001C46.1599 26.0316 46.7669 25.4474 47.3527 24.8422C47.358 24.7001 47.3633 24.5579 47.3633 24.4158C47.3686 23.9264 47.3422 23.4685 47.3052 23.0264Z" fill="url(#paint24_linear)"/>
<path d="M12.8671 24.979C12.297 24.4369 11.7481 23.8842 11.2151 23.3105C11.1887 23.6632 11.1729 24.0263 11.1729 24.4053C11.1729 24.6527 11.1834 24.8948 11.194 25.1369C11.7956 25.7369 12.4132 26.3263 13.0412 26.8895C12.9462 26.2632 12.8882 25.6263 12.8671 24.979Z" fill="url(#paint25_linear)"/>
<path d="M12.8671 24.979C12.297 24.4369 11.7481 23.8842 11.2151 23.3105C11.1887 23.6632 11.1729 24.0263 11.1729 24.4053C11.1729 24.6527 11.1834 24.8948 11.194 25.1369C11.7956 25.7369 12.4132 26.3263 13.0412 26.8895C12.9462 26.2632 12.8882 25.6263 12.8671 24.979Z" fill="url(#paint26_linear)"/>
<path d="M29.2654 22.1789L29.7246 21.7158C29.7351 21.7053 29.9304 21.5105 30.2629 21.1842C30.0782 21.0474 29.9568 20.9526 29.9146 20.9263L29.2601 20.4579L28.6057 20.9263C28.5634 20.9579 28.4368 21.0474 28.2573 21.1842C28.4473 21.3684 28.6321 21.5474 28.801 21.7158L29.2654 22.1789Z" fill="url(#paint27_linear)"/>
<path d="M29.2654 22.1789L29.7246 21.7158C29.7351 21.7053 29.9304 21.5105 30.2629 21.1842C30.0782 21.0474 29.9568 20.9526 29.9146 20.9263L29.2601 20.4579L28.6057 20.9263C28.5634 20.9579 28.4368 21.0474 28.2573 21.1842C28.4473 21.3684 28.6321 21.5474 28.801 21.7158L29.2654 22.1789Z" fill="url(#paint28_linear)"/>
<path d="M29.2654 22.1789L29.7246 21.7158C29.7351 21.7053 29.9304 21.5105 30.2629 21.1842C30.0782 21.0474 29.9568 20.9526 29.9146 20.9263L29.2601 20.4579L28.6057 20.9263C28.5634 20.9579 28.4368 21.0474 28.2573 21.1842C28.4473 21.3684 28.6321 21.5474 28.801 21.7158L29.2654 22.1789Z" fill="#602D91"/>
<path d="M64.4217 49.3474C63.3767 51.2316 62.2947 53.4948 62.2947 57.3474C62.2947 60.879 63.1181 63.2474 64.4217 65.6053H63.6353C62.6694 63.9843 61.5083 61.3158 61.5083 57.3264C61.5083 53.4737 62.7117 50.9264 63.6353 49.3474H64.4217Z" fill="#58595B"/>
<path d="M65.8307 56.8053C65.8307 55.2421 65.8307 54.1316 65.8096 53.3842H66.559C66.5801 53.7211 66.6013 54.0737 66.6013 54.8895C66.9443 53.7842 67.7888 53.3053 68.6122 53.2632V54.2158C67.2716 54.2369 66.6013 55.3948 66.6013 56.9474V63.3842H65.8307V56.8053Z" fill="#58595B"/>
<path d="M70.1959 58.4158V60.2316C70.1959 61.4631 70.4175 62.8474 71.6473 62.8474C72.7662 62.8474 73.0196 62.0105 73.0196 60.8V60.6842H73.7902V60.7842C73.7902 62.0579 73.4735 63.5526 71.6104 63.5526C70.0059 63.5526 69.4253 62.4 69.4253 60.3631V56.1631C69.4253 54.4895 70.0639 53.2316 71.6684 53.2316C73.3838 53.2316 73.8113 54.6526 73.8113 56.1842C73.8113 56.6842 73.8113 57.8631 73.8113 58.4263H70.1959V58.4158ZM73.0407 57.7158V56.2263C73.0407 55.2842 72.9562 53.9263 71.6473 53.9263C70.3753 53.9263 70.1959 55.0526 70.1959 56.2474V57.7158H73.0407Z" fill="#58595B"/>
<path d="M75.5002 63.3895V49.4316H76.2708V63.3895H75.5002Z" fill="#58595B"/>
<path d="M82.6781 60.9158C82.6781 62.0264 82.6781 62.9632 82.6992 63.3895H81.9709C81.9497 63.2264 81.9286 62.6895 81.9286 62.2527C81.6647 63.1895 81.1 63.5474 80.1975 63.5474C79.4902 63.5474 78.2869 63.3632 78.2869 61.0422V53.3843H79.0574V60.8422C79.0574 62.3106 79.4375 62.8264 80.3347 62.8264C81.0947 62.8264 81.9075 62.3895 81.9075 59.8316V53.3843H82.6781V60.9158Z" fill="#58595B"/>
<path d="M88.9324 63.5526C88.9324 65.3842 88.6896 66.9526 86.5468 66.9526C84.7681 66.9526 84.3828 65.6474 84.3828 64.5842V64.5263H85.1745V64.6053C85.1745 65.3368 85.449 66.2526 86.589 66.2526C87.8451 66.2526 88.1618 65.3368 88.1618 63.7053V62.2158C87.8821 63.0316 87.3596 63.3895 86.4201 63.3895C85.2009 63.3895 84.4092 62.5947 84.4092 60.4053V56.1316C84.4092 53.9474 85.4384 53.2263 86.6207 53.2263C87.6235 53.2263 88.1249 53.7842 88.2463 54.2474C88.2463 53.9842 88.2885 53.6421 88.3096 53.3842H88.9746C88.9535 53.8684 88.9324 54.8474 88.9324 56.1579V63.5526ZM85.1956 56.1474V60.3158C85.1956 61.8842 85.6337 62.6368 86.5098 62.6368C87.9613 62.6368 88.1777 61 88.1777 59.521V56.5421C88.1777 55.0737 88.0193 53.9632 86.6682 53.9632C85.5756 53.9684 85.1956 54.8368 85.1956 56.1474Z" fill="#58595B"/>
<path d="M95.2076 55.9737V60.5211C95.2076 62.7211 94.2206 63.5474 92.9064 63.5474C91.6292 63.5474 90.6633 62.779 90.6633 60.6211V55.9948C90.6633 54.3211 91.455 53.2263 92.9645 53.2263C94.5162 53.2211 95.2076 54.3053 95.2076 55.9737ZM91.4497 56.0105V60.6421C91.4497 62.0316 91.9459 62.8474 92.9223 62.8474C93.8195 62.8474 94.4159 62.2684 94.4159 60.6421V56.0158C94.4159 54.8053 93.962 53.9316 92.9434 53.9316C91.8878 53.9263 91.4497 54.7 91.4497 56.0105Z" fill="#58595B"/>
<path d="M96.9392 63.3895V49.4316H97.7098V63.3895H96.9392Z" fill="#58595B"/>
<path d="M99.7468 49.4316H100.517V51.358H99.7468V49.4316ZM99.7468 53.3843H100.517V63.3895H99.7468V53.3843Z" fill="#58595B"/>
<path d="M102.544 53.3843C103.499 55.8843 103.879 56.8053 104.08 57.3843H104.101C104.36 56.7053 104.94 55.4474 105.716 53.3843H106.529L104.539 58.0843L106.55 63.3895H105.716C104.782 60.9211 104.323 59.5843 104.122 58.9685H104.101C103.864 59.6053 103.283 61.1001 102.449 63.3895H101.636L103.684 58.1895L101.715 53.3843H102.544Z" fill="#58595B"/>
<path d="M107.194 65.4422C107.659 64.2474 108.118 62.5843 108.176 60.8369H108.904C108.862 62.3211 108.419 64.2422 107.833 65.4422H107.194Z" fill="#58595B"/>
<path d="M113.675 58.4158V60.2316C113.675 61.4631 113.897 62.8474 115.127 62.8474C116.246 62.8474 116.499 62.0105 116.499 60.8V60.6842H117.27V60.7842C117.27 62.0579 116.953 63.5526 115.09 63.5526C113.485 63.5526 112.905 62.4 112.905 60.3631V56.1631C112.905 54.4895 113.543 53.2316 115.148 53.2316C116.863 53.2316 117.291 54.6526 117.291 56.1842C117.291 56.6842 117.291 57.8631 117.291 58.4263H113.675V58.4158ZM116.52 57.7158V56.2263C116.52 55.2842 116.436 53.9263 115.127 53.9263C113.855 53.9263 113.675 55.0526 113.675 56.2474V57.7158H116.52Z" fill="#58595B"/>
<path d="M119.333 60.5789V61C119.333 62.3421 119.946 62.8474 120.742 62.8474C121.735 62.8474 122.115 62.2158 122.115 61.0263C122.115 59.7211 121.719 59.2421 120.653 58.5211C119.349 57.6421 118.763 56.9579 118.763 55.6158C118.763 54.3632 119.275 53.2263 120.806 53.2263C122.458 53.2263 122.79 54.4421 122.79 55.6V56.1158H122.02V55.6316C122.02 54.6211 121.761 53.9263 120.769 53.9263C119.914 53.9263 119.555 54.5 119.555 55.5316C119.555 56.5421 119.856 56.9789 120.954 57.7368C122.131 58.5421 122.912 59.2263 122.912 60.8842C122.912 62.5895 122.241 63.5526 120.69 63.5526C119.032 63.5526 118.547 62.3684 118.547 61.0421V60.5842H119.333V60.5789Z" fill="#58595B"/>
<path d="M123.497 53.3842H124.738V50.8632H125.487V53.3842H127.065V54.0895H125.487V61.6579C125.487 62.2158 125.608 62.8316 126.268 62.8316C126.469 62.8316 126.807 62.8105 126.986 62.7737V63.4158C126.722 63.5 126.337 63.5158 126.036 63.5158C125.36 63.5158 124.738 63.1158 124.738 61.8053V54.0842H123.497V53.3842Z" fill="#58595B"/>
<path d="M128.105 56.8053C128.105 55.2421 128.105 54.1316 128.084 53.3842H128.834C128.855 53.7211 128.876 54.0737 128.876 54.8895C129.219 53.7842 130.063 53.3053 130.887 53.2632V54.2158C129.546 54.2369 128.876 55.3948 128.876 56.9474V63.3842H128.105V56.8053Z" fill="#58595B"/>
<path d="M135.758 61.9895C135.758 62.7263 135.779 63.1789 135.8 63.3842H135.051C134.993 63.0842 134.972 62.6842 134.972 62.4895C134.671 63.3632 133.969 63.5474 133.346 63.5474C131.958 63.5474 131.414 62.3842 131.414 60.8V60.621C131.414 58.5684 132.549 57.6158 134.317 57.6158C134.534 57.6158 134.692 57.6158 134.972 57.6158V55.7105C134.972 54.6737 134.755 53.9632 133.779 53.9632C132.802 53.9632 132.507 54.6947 132.507 55.6526V56.0263H131.736V55.6526C131.736 54.3105 132.28 53.2263 133.8 53.2263C135.352 53.2263 135.763 54.3474 135.763 55.6737V61.9895H135.758ZM134.987 58.3158C134.829 58.3158 134.528 58.3158 134.333 58.3158C132.961 58.3158 132.201 58.9316 132.201 60.5842V60.7632C132.201 61.8526 132.502 62.8053 133.457 62.8053C134.65 62.8053 134.987 61.7789 134.987 60.1263V58.3158Z" fill="#58595B"/>
<path d="M142.055 49.4316V61.0211C142.055 61.858 142.055 62.8106 142.076 63.3895H141.348C141.326 63.2685 141.305 62.7053 141.305 62.3685C141.105 62.9527 140.661 63.5474 139.579 63.5474C138.007 63.5474 137.51 62.3211 137.51 60.4211V56.1264C137.51 54.3264 138.249 53.2211 139.722 53.2211C140.778 53.2211 141.126 53.7316 141.29 54.0211V49.4316H142.055ZM138.302 56.1685V60.3474C138.302 61.9895 138.719 62.8053 139.659 62.8053C140.952 62.8053 141.29 61.5158 141.29 59.8895V56.379C141.29 55.258 141.168 53.9737 139.717 53.9737C138.74 53.9685 138.302 54.8211 138.302 56.1685Z" fill="#58595B"/>
<path d="M144.087 49.4316H144.858V51.358H144.087V49.4316ZM144.087 53.3843H144.858V63.3895H144.087V53.3843Z" fill="#58595B"/>
<path d="M151.143 55.9737V60.5211C151.143 62.7211 150.156 63.5474 148.842 63.5474C147.565 63.5474 146.599 62.779 146.599 60.6211V55.9948C146.599 54.3211 147.391 53.2263 148.9 53.2263C150.452 53.2211 151.143 54.3053 151.143 55.9737ZM147.386 56.0105V60.6421C147.386 62.0316 147.882 62.8474 148.858 62.8474C149.755 62.8474 150.352 62.2684 150.352 60.6421V56.0158C150.352 54.8053 149.898 53.9316 148.879 53.9316C147.824 53.9263 147.386 54.7 147.386 56.0105Z" fill="#58595B"/>
<path d="M152.875 63.3895V49.4316H153.645V63.3895H152.875Z" fill="#58595B"/>
<path d="M154.928 65.4422C155.392 64.2474 155.851 62.5843 155.909 60.8369H156.638C156.596 62.3211 156.152 64.2422 155.566 65.4422H154.928Z" fill="#58595B"/>
<path d="M164.876 61.9895C164.876 62.7263 164.898 63.1789 164.919 63.3842H164.169C164.111 63.0842 164.09 62.6842 164.09 62.4895C163.789 63.3632 163.087 63.5474 162.464 63.5474C161.076 63.5474 160.533 62.3842 160.533 60.8V60.621C160.533 58.5684 161.667 57.6158 163.436 57.6158C163.652 57.6158 163.81 57.6158 164.09 57.6158V55.7105C164.09 54.6737 163.874 53.9632 162.897 53.9632C161.921 53.9632 161.625 54.6947 161.625 55.6526V56.0263H160.855V55.6526C160.855 54.3105 161.398 53.2263 162.918 53.2263C164.47 53.2263 164.882 54.3474 164.882 55.6737V61.9895H164.876ZM164.111 58.3158C163.953 58.3158 163.652 58.3158 163.457 58.3158C162.084 58.3158 161.324 58.9316 161.324 60.5842V60.7632C161.324 61.8526 161.625 62.8053 162.581 62.8053C163.773 62.8053 164.111 61.7789 164.111 60.1263V58.3158Z" fill="#58595B"/>
<path d="M166.93 56.3842C166.93 54.4 166.93 53.9211 166.908 53.379H167.637C167.658 53.6 167.679 53.9 167.679 54.4737C167.98 53.579 168.64 53.2158 169.505 53.2158C170.476 53.2158 171.395 53.7211 171.395 55.5053V63.3842H170.624V55.6737C170.624 54.6369 170.281 53.9632 169.368 53.9632C168.392 53.9632 167.695 54.4211 167.695 56.879V63.3842H166.924V56.3842H166.93Z" fill="#58595B"/>
<path d="M177.675 49.4316V61.0211C177.675 61.858 177.675 62.8106 177.696 63.3895H176.968C176.947 63.2685 176.926 62.7053 176.926 62.3685C176.725 62.9527 176.282 63.5474 175.2 63.5474C173.627 63.5474 173.131 62.3211 173.131 60.4211V56.1264C173.131 54.3264 173.87 53.2211 175.343 53.2211C176.398 53.2211 176.746 53.7316 176.91 54.0211V49.4316H177.675ZM173.918 56.1685V60.3474C173.918 61.9895 174.334 62.8053 175.274 62.8053C176.567 62.8053 176.905 61.5158 176.905 59.8895V56.379C176.905 55.258 176.783 53.9737 175.332 53.9737C174.356 53.9685 173.918 54.8211 173.918 56.1685Z" fill="#58595B"/>
<path d="M61.7247 75.3316C61.7247 73.3474 61.7247 72.8685 61.7036 72.3264H62.432C62.4531 72.5474 62.4742 72.8474 62.4742 73.4211C62.775 72.5264 63.4348 72.1632 64.3004 72.1632C65.2715 72.1632 66.1899 72.6685 66.1899 74.4527V82.3316H65.4193V74.6211C65.4193 73.5843 65.0762 72.9106 64.1631 72.9106C63.1867 72.9106 62.49 73.3685 62.49 75.8264V82.3316H61.7194V75.3316H61.7247Z" fill="#58595B"/>
<path d="M72.4652 74.9211V79.4685C72.4652 81.6685 71.4782 82.4948 70.164 82.4948C68.8868 82.4948 67.9209 81.7264 67.9209 79.5685V74.9421C67.9209 73.2685 68.7126 72.1737 70.2221 72.1737C71.7738 72.1685 72.4652 73.2527 72.4652 74.9211ZM68.7073 74.9579V79.5895C68.7073 80.979 69.2034 81.7948 70.1798 81.7948C71.0771 81.7948 71.6735 81.2158 71.6735 79.5895V74.9632C71.6735 73.7527 71.2196 72.879 70.201 72.879C69.1454 72.8737 68.7073 73.6474 68.7073 74.9579Z" fill="#58595B"/>
<path d="M74.1964 75.7527C74.1964 74.1895 74.1964 73.079 74.1753 72.3316H74.9248C74.9459 72.6685 74.967 73.0211 74.967 73.8369C75.3101 72.7316 76.1545 72.2527 76.9779 72.2106V73.1632C75.6373 73.1843 74.967 74.3422 74.967 75.8948V82.3316H74.1964V75.7527Z" fill="#58595B"/>
<path d="M78.556 77.3632V79.1789C78.556 80.4105 78.7776 81.7947 80.0074 81.7947C81.1263 81.7947 81.3797 80.9579 81.3797 79.7474V79.6316H82.1503V79.7316C82.1503 81.0053 81.8336 82.5 79.9705 82.5C78.366 82.5 77.7854 81.3474 77.7854 79.3105V75.1105C77.7854 73.4368 78.424 72.179 80.0285 72.179C81.7439 72.179 82.1714 73.6 82.1714 75.1316C82.1714 75.6316 82.1714 76.8105 82.1714 77.3737H78.556V77.3632ZM81.4061 76.6632V75.1737C81.4061 74.2316 81.3216 72.8737 80.0127 72.8737C78.7407 72.8737 78.5613 74 78.5613 75.1947V76.6632H81.4061Z" fill="#58595B"/>
<path d="M82.9629 72.3316H84.2032V69.8105H84.9527V72.3316H86.5308V73.0369H84.9527V80.6053C84.9527 81.1632 85.0741 81.779 85.7338 81.779C85.9344 81.779 86.2722 81.7579 86.4516 81.7211V82.3632C86.1877 82.4474 85.8024 82.4632 85.5016 82.4632C84.826 82.4632 84.2032 82.0632 84.2032 80.7527V73.0421H82.9629V72.3316Z" fill="#58595B"/>
<path d="M88.3467 68.3789V73.3052C88.5473 72.7263 89.149 72.1684 90.1518 72.1684C91.6191 72.1684 92.0413 73.2684 92.0413 74.7315V82.3368H91.2707V74.9C91.2707 73.9631 91.1863 72.9157 90.0146 72.9157C88.6265 72.9157 88.3467 74.0631 88.3467 75.8473V82.3368H87.5762V68.3789H88.3467Z" fill="#58595B"/>
<path d="M94.073 68.3789H94.8436V70.3052H94.073V68.3789ZM94.073 72.3315H94.8436V82.3368H94.073V72.3315Z" fill="#58595B"/>
<path d="M96.8807 75.3316C96.8807 73.3474 96.8807 72.8685 96.8596 72.3264H97.588C97.6091 72.5474 97.6302 72.8474 97.6302 73.4211C97.931 72.5264 98.5908 72.1632 99.4564 72.1632C100.428 72.1632 101.346 72.6685 101.346 74.4527V82.3316H100.575V74.6211C100.575 73.5843 100.232 72.9106 99.3191 72.9106C98.3427 72.9106 97.646 73.3685 97.646 75.8264V82.3316H96.8755V75.3316H96.8807Z" fill="#58595B"/>
<path d="M107.622 68.3789V79.9684C107.622 80.8052 107.622 81.7579 107.643 82.3368H106.914C106.893 82.2158 106.872 81.6526 106.872 81.3158C106.672 81.9 106.228 82.4947 105.146 82.4947C103.574 82.4947 103.077 81.2684 103.077 79.3684V75.0737C103.077 73.2736 103.816 72.1684 105.289 72.1684C106.344 72.1684 106.693 72.6789 106.856 72.9684V68.3789H107.622ZM103.869 75.1158V79.2947C103.869 80.9368 104.286 81.7526 105.226 81.7526C106.519 81.7526 106.856 80.4631 106.856 78.8368V75.3263C106.856 74.2052 106.735 72.921 105.284 72.921C104.302 72.9158 103.869 73.7684 103.869 75.1158Z" fill="#58595B"/>
<path d="M109.654 75.7527C109.654 74.1895 109.654 73.079 109.633 72.3316H110.382C110.403 72.6685 110.424 73.0211 110.424 73.8369C110.767 72.7316 111.612 72.2527 112.435 72.2106V73.1632C111.095 73.1843 110.424 74.3422 110.424 75.8948V82.3316H109.654V75.7527Z" fill="#58595B"/>
<path d="M117.792 74.9211V79.4685C117.792 81.6685 116.805 82.4948 115.491 82.4948C114.213 82.4948 113.248 81.7264 113.248 79.5685V74.9421C113.248 73.2685 114.039 72.1737 115.549 72.1737C117.1 72.1685 117.792 73.2527 117.792 74.9211ZM114.034 74.9579V79.5895C114.034 80.979 114.53 81.7948 115.506 81.7948C116.404 81.7948 117 81.2158 117 79.5895V74.9632C117 73.7527 116.546 72.879 115.528 72.879C114.472 72.8737 114.034 73.6474 114.034 74.9579Z" fill="#58595B"/>
<path d="M119.523 75.3316C119.523 73.3474 119.523 72.8685 119.502 72.3264H120.231C120.252 72.5474 120.273 72.8474 120.273 73.4211C120.574 72.5264 121.233 72.1632 122.099 72.1632C123.07 72.1632 123.988 72.6685 123.988 74.4527V82.3316H123.218V74.6211C123.218 73.5843 122.875 72.9106 121.962 72.9106C120.985 72.9106 120.289 73.3685 120.289 75.8264V82.3316H119.518V75.3316H119.523Z" fill="#58595B"/>
<path d="M126.49 77.3632V79.1789C126.49 80.4105 126.712 81.7947 127.941 81.7947C129.06 81.7947 129.314 80.9579 129.314 79.7474V79.6316H130.084V79.7316C130.084 81.0053 129.768 82.5 127.905 82.5C126.3 82.5 125.719 81.3474 125.719 79.3105V75.1105C125.719 73.4368 126.358 72.179 127.963 72.179C129.678 72.179 130.105 73.6 130.105 75.1316C130.105 75.6316 130.105 76.8105 130.105 77.3737H126.49V77.3632ZM129.335 76.6632V75.1737C129.335 74.2316 129.25 72.8737 127.941 72.8737C126.67 72.8737 126.49 74 126.49 75.1947V76.6632H129.335Z" fill="#58595B"/>
<path d="M138.487 80.9369C138.487 81.6737 138.508 82.1263 138.529 82.3316H137.78C137.722 82.0316 137.7 81.6316 137.7 81.4369C137.4 82.3106 136.698 82.4948 136.075 82.4948C134.687 82.4948 134.143 81.3316 134.143 79.7474V79.5684C134.143 77.5158 135.278 76.5632 137.046 76.5632C137.262 76.5632 137.421 76.5632 137.7 76.5632V74.6579C137.7 73.6211 137.484 72.9105 136.508 72.9105C135.531 72.9105 135.236 73.6421 135.236 74.6V74.9737H134.465V74.6C134.465 73.2579 135.009 72.1737 136.529 72.1737C138.08 72.1737 138.492 73.2948 138.492 74.6211V80.9369H138.487ZM137.716 77.2632C137.558 77.2632 137.257 77.2632 137.062 77.2632C135.69 77.2632 134.929 77.879 134.929 79.5316V79.7106C134.929 80.8 135.23 81.7527 136.186 81.7527C137.378 81.7527 137.716 80.7263 137.716 79.0737V77.2632Z" fill="#58595B"/>
<path d="M144.541 79.3474V79.4895C144.541 81.1316 144.119 82.5 142.361 82.5C140.778 82.5 140.239 81.3526 140.239 79.3684V75.0053C140.239 73.2474 140.936 72.1737 142.44 72.1737C144.066 72.1737 144.541 73.3895 144.541 74.8211V75.2579H143.749V74.9948C143.749 73.9421 143.57 72.8737 142.419 72.8737C141.443 72.8737 141.026 73.5895 141.026 75.1316V79.379C141.026 80.5105 141.242 81.7948 142.377 81.7948C143.332 81.7948 143.749 81.2369 143.749 79.4948V79.3474H144.541Z" fill="#58595B"/>
<path d="M146.662 77.3632V79.1789C146.662 80.4105 146.884 81.7947 148.114 81.7947C149.233 81.7947 149.486 80.9579 149.486 79.7474V79.6316H150.257V79.7316C150.257 81.0053 149.94 82.5 148.077 82.5C146.472 82.5 145.892 81.3474 145.892 79.3105V75.1105C145.892 73.4368 146.53 72.179 148.135 72.179C149.85 72.179 150.278 73.6 150.278 75.1316C150.278 75.6316 150.278 76.8105 150.278 77.3737H146.662V77.3632ZM149.513 76.6632V75.1737C149.513 74.2316 149.428 72.8737 148.119 72.8737C146.847 72.8737 146.668 74 146.668 75.1947V76.6632H149.513Z" fill="#58595B"/>
<path d="M151.075 72.3316H152.315V69.8105H153.064V72.3316H154.643V73.0369H153.064V80.6053C153.064 81.1632 153.186 81.779 153.846 81.779C154.046 81.779 154.384 81.7579 154.563 81.7211V82.3632C154.299 82.4474 153.914 82.4632 153.613 82.4632C152.938 82.4632 152.315 82.0632 152.315 80.7527V73.0421H151.075V72.3316Z" fill="#58595B"/>
<path d="M159.746 80.9369C159.746 81.6737 159.767 82.1263 159.788 82.3316H159.039C158.981 82.0316 158.96 81.6316 158.96 81.4369C158.659 82.3106 157.957 82.4948 157.334 82.4948C155.946 82.4948 155.402 81.3316 155.402 79.7474V79.5684C155.402 77.5158 156.537 76.5632 158.305 76.5632C158.522 76.5632 158.68 76.5632 158.96 76.5632V74.6579C158.96 73.6211 158.743 72.9105 157.767 72.9105C156.79 72.9105 156.495 73.6421 156.495 74.6V74.9737H155.724V74.6C155.724 73.2579 156.268 72.1737 157.788 72.1737C159.34 72.1737 159.751 73.2948 159.751 74.6211V80.9369H159.746ZM158.976 77.2632C158.817 77.2632 158.516 77.2632 158.321 77.2632C156.949 77.2632 156.189 77.879 156.189 79.5316V79.7106C156.189 80.8 156.49 81.7527 157.445 81.7527C158.638 81.7527 158.976 80.7263 158.976 79.0737V77.2632Z" fill="#58595B"/>
<path d="M160.697 72.3316H161.937V69.8105H162.687V72.3316H164.265V73.0369H162.687V80.6053C162.687 81.1632 162.808 81.779 163.468 81.779C163.668 81.779 164.006 81.7579 164.185 81.7211V82.3632C163.922 82.4474 163.536 82.4632 163.235 82.4632C162.56 82.4632 161.937 82.0632 161.937 80.7527V73.0421H160.697V72.3316Z" fill="#58595B"/>
<path d="M165.779 77.3632V79.1789C165.779 80.4105 166.001 81.7947 167.231 81.7947C168.35 81.7947 168.603 80.9579 168.603 79.7474V79.6316H169.374V79.7316C169.374 81.0053 169.057 82.5 167.194 82.5C165.589 82.5 165.009 81.3474 165.009 79.3105V75.1105C165.009 73.4368 165.647 72.179 167.252 72.179C168.967 72.179 169.395 73.6 169.395 75.1316C169.395 75.6316 169.395 76.8105 169.395 77.3737H165.779V77.3632ZM168.624 76.6632V75.1737C168.624 74.2316 168.54 72.8737 167.231 72.8737C165.959 72.8737 165.779 74 165.779 75.1947V76.6632H168.624Z" fill="#58595B"/>
<path d="M170.402 84.5527C171.447 82.6685 172.529 80.4053 172.529 76.5527C172.529 73.0211 171.706 70.6527 170.402 68.2948H171.189C172.155 69.9159 173.316 72.5843 173.316 76.5737C173.316 80.4264 172.112 82.9738 171.189 84.5527H170.402Z" fill="#58595B"/>
<path d="M176.841 72.3316H178.082V69.8105H178.831V72.3316H180.409V73.0369H178.831V80.6053C178.831 81.1632 178.952 81.779 179.612 81.779C179.813 81.779 180.151 81.7579 180.33 81.7211V82.3632C180.066 82.4474 179.681 82.4632 179.38 82.4632C178.704 82.4632 178.082 82.0632 178.082 80.7527V73.0421H176.841V72.3316Z" fill="#58595B"/>
<path d="M185.518 80.9369C185.518 81.6737 185.539 82.1263 185.561 82.3316H184.811C184.753 82.0316 184.732 81.6316 184.732 81.4369C184.431 82.3106 183.729 82.4948 183.106 82.4948C181.718 82.4948 181.175 81.3316 181.175 79.7474V79.5684C181.175 77.5158 182.309 76.5632 184.077 76.5632C184.294 76.5632 184.452 76.5632 184.732 76.5632V74.6579C184.732 73.6211 184.516 72.9105 183.539 72.9105C182.563 72.9105 182.267 73.6421 182.267 74.6V74.9737H181.497V74.6C181.497 73.2579 182.04 72.1737 183.56 72.1737C185.112 72.1737 185.524 73.2948 185.524 74.6211V80.9369H185.518ZM184.748 77.2632C184.589 77.2632 184.289 77.2632 184.093 77.2632C182.721 77.2632 181.961 77.879 181.961 79.5316V79.7106C181.961 80.8 182.262 81.7527 183.217 81.7527C184.41 81.7527 184.748 80.7263 184.748 79.0737V77.2632Z" fill="#58595B"/>
<path d="M187.572 68.3789H188.342V73.3263C188.564 72.7052 189.071 72.1684 190.148 72.1684C191.536 72.1684 192.116 73.2894 192.116 74.9368V79.221C192.116 81.0157 191.657 82.4579 189.947 82.4579C189.044 82.4579 188.501 81.9947 188.279 81.3C188.279 81.7368 188.279 82 188.237 82.3368H187.551C187.572 81.8894 187.572 80.9894 187.572 79.6157V68.3789ZM191.325 79.3263V75.0421C191.325 73.6684 190.929 72.9158 189.973 72.9158C188.485 72.9158 188.321 74.4579 188.321 76.0842V78.8947C188.321 80.8368 188.781 81.7105 189.91 81.7105C190.844 81.7105 191.325 80.9579 191.325 79.3263Z" fill="#58595B"/>
<path d="M193.847 82.3368V68.3789H194.618V82.3368H193.847Z" fill="#58595B"/>
<path d="M197.125 77.3632V79.1789C197.125 80.4105 197.346 81.7947 198.576 81.7947C199.695 81.7947 199.948 80.9579 199.948 79.7474V79.6316H200.719V79.7316C200.719 81.0053 200.402 82.5 198.539 82.5C196.935 82.5 196.354 81.3474 196.354 79.3105V75.1105C196.354 73.4368 196.993 72.179 198.597 72.179C200.312 72.179 200.74 73.6 200.74 75.1316C200.74 75.6316 200.74 76.8105 200.74 77.3737H197.125V77.3632ZM199.969 76.6632V75.1737C199.969 74.2316 199.885 72.8737 198.576 72.8737C197.304 72.8737 197.125 74 197.125 75.1947V76.6632H199.969Z" fill="#58595B"/>
<path d="M201.532 72.3316H202.772V69.8105H203.522V72.3316H205.1V73.0369H203.522V80.6053C203.522 81.1632 203.643 81.779 204.303 81.779C204.503 81.779 204.841 81.7579 205.021 81.7211V82.3632C204.757 82.4474 204.371 82.4632 204.071 82.4632C203.395 82.4632 202.772 82.0632 202.772 80.7527V73.0421H201.532V72.3316Z" fill="#58595B"/>
<path d="M206.572 79.5263V79.9474C206.572 81.2895 207.184 81.7948 207.981 81.7948C208.974 81.7948 209.354 81.1632 209.354 79.9737C209.354 78.6684 208.958 78.1895 207.892 77.4684C206.588 76.5895 206.002 75.9053 206.002 74.5632C206.002 73.3105 206.514 72.1737 208.045 72.1737C209.697 72.1737 210.029 73.3895 210.029 74.5474V75.0632H209.259V74.579C209.259 73.5684 209 72.8737 208.008 72.8737C207.153 72.8737 206.794 73.4474 206.794 74.479C206.794 75.4895 207.095 75.9263 208.192 76.6842C209.369 77.4895 210.15 78.1737 210.15 79.8316C210.15 81.5369 209.48 82.5 207.928 82.5C206.271 82.5 205.786 81.3158 205.786 79.9895V79.5316H206.572V79.5263Z" fill="#58595B"/>
<path d="M64.1474 97.7159V95.3423H61.7776V94.8791L63.9732 89.4001H64.7596V94.7896H65.4405L65.3719 95.3423H64.7596V97.7159H64.1474ZM64.1474 92.4265C64.1474 91.6686 64.1632 90.9054 64.1896 90.158H64.179C63.6513 91.6528 62.9968 93.3265 62.4268 94.7844H64.1474V92.4265Z" fill="#58595B"/>
<path d="M69.4148 91.3422V95.7843C69.4148 97.3106 68.7603 97.8158 67.7787 97.8158C66.8867 97.8158 66.1794 97.3316 66.1794 95.8053V91.3685C66.1794 89.7159 66.9975 89.2948 67.8209 89.2948C68.6231 89.2948 69.4148 89.7106 69.4148 91.3422ZM66.8181 91.3422V95.8053C66.8181 96.779 67.1242 97.2158 67.8103 97.2158C68.4015 97.2158 68.7762 96.9211 68.7762 95.779V91.3474C68.7762 90.2369 68.3539 89.9053 67.7998 89.9053C67.235 89.9001 66.8181 90.1843 66.8181 91.3422Z" fill="#58595B"/>
<path d="M72.3018 93.1211C72.3018 92.0316 72.3018 91.6 72.2913 91.2737H72.8877C72.9141 91.4579 72.9141 91.6948 72.9193 91.9053C73.0882 91.4684 73.4207 91.1737 74.0013 91.1737C74.4763 91.1737 74.8458 91.3632 74.983 91.9527C75.1625 91.5316 75.5002 91.1737 76.1389 91.1737C76.7194 91.1737 77.3106 91.4053 77.3106 92.6369V97.7158H76.6825V92.7895C76.6825 92.2474 76.5981 91.7684 75.9964 91.7684C75.2838 91.7684 75.1255 92.4421 75.1255 93.179V97.7158H74.4922V92.8579C74.4922 92.0895 74.3127 91.7684 73.7849 91.7684C73.0988 91.7684 72.9352 92.4632 72.9352 93.279V97.7158H72.3071V93.1211H72.3018Z" fill="#58595B"/>
<path d="M81.4432 97.7421C81.4432 98.9632 81.2901 100 79.8334 100C78.6248 100 78.3767 99.1421 78.3767 98.4526V98.4158H79.0153V98.4632C79.0153 98.8842 79.1737 99.4474 79.8704 99.4474C80.6304 99.4474 80.8151 98.8895 80.8151 97.879V96.9632C80.6357 97.4579 80.2979 97.6895 79.7015 97.6895C78.8517 97.6895 78.382 97.1105 78.382 95.7526V93.0579C78.382 91.7421 78.9889 91.1737 79.8281 91.1737C80.4773 91.1737 80.794 91.5263 80.8785 91.8316C80.8785 91.6579 80.9048 91.4316 80.9207 91.2737H81.4643C81.4537 91.6 81.4379 92.2105 81.4379 93.0316V97.7421H81.4432ZM79.0206 93.0842V95.6947C79.0206 96.6421 79.2792 97.1053 79.8176 97.1053C80.6884 97.1053 80.8204 96.1579 80.8204 95.2316V93.3211C80.8204 92.4421 80.7254 91.7684 79.9179 91.7684C79.2634 91.7684 79.0206 92.2737 79.0206 93.0842Z" fill="#58595B"/>
<path d="M82.1716 99.0105C82.4936 98.1842 82.7733 97.0948 82.805 96.0369H83.3908C83.3645 97.0211 83.0583 98.2526 82.673 99.0105H82.1716Z" fill="#58595B"/>
<path d="M86.5733 97.7158V90.1685C86.3411 90.3211 85.7711 90.5316 85.5283 90.5737V90.0474C85.9717 89.9211 86.5522 89.5632 86.7528 89.3422H87.2014V97.7158H86.5733Z" fill="#58595B"/>
<path d="M90.4102 93.1211C90.4102 92.0316 90.4102 91.6 90.3997 91.2737H90.9961C91.0225 91.4579 91.0225 91.6948 91.0277 91.9053C91.1966 91.4684 91.5291 91.1737 92.1097 91.1737C92.5847 91.1737 92.9542 91.3632 93.0914 91.9527C93.2709 91.5316 93.6086 91.1737 94.2473 91.1737C94.8278 91.1737 95.419 91.4053 95.419 92.6369V97.7158H94.7909V92.7895C94.7909 92.2474 94.7064 91.7684 94.1048 91.7684C93.3922 91.7684 93.2339 92.4421 93.2339 93.179V97.7158H92.6006V92.8579C92.6006 92.0895 92.4211 91.7684 91.8933 91.7684C91.2072 91.7684 91.0436 92.4632 91.0436 93.279V97.7158H90.4155V93.1211H90.4102Z" fill="#58595B"/>
<path d="M99.5518 97.7421C99.5518 98.9632 99.3988 100 97.9421 100C96.7334 100 96.4854 99.1421 96.4854 98.4526V98.4158H97.124V98.4632C97.124 98.8842 97.2823 99.4474 97.979 99.4474C98.739 99.4474 98.9238 98.8895 98.9238 97.879V96.9632C98.7443 97.4579 98.4065 97.6895 97.8101 97.6895C96.9604 97.6895 96.4906 97.1105 96.4906 95.7526V93.0579C96.4906 91.7421 97.0976 91.1737 97.9368 91.1737C98.586 91.1737 98.9026 91.5263 98.9871 91.8316C98.9871 91.6579 99.0135 91.4316 99.0293 91.2737H99.5729C99.5624 91.6 99.5466 92.2105 99.5466 93.0316V97.7421H99.5518ZM97.1345 93.0842V95.6947C97.1345 96.6421 97.3932 97.1053 97.9315 97.1053C98.8024 97.1053 98.9343 96.1579 98.9343 95.2316V93.3211C98.9343 92.4421 98.8393 91.7684 98.0318 91.7684C97.372 91.7684 97.1345 92.2737 97.1345 93.0842Z" fill="#58595B"/>
<path d="M100.28 99.0105C100.602 98.1842 100.882 97.0948 100.913 96.0369H101.499C101.473 97.0211 101.167 98.2526 100.781 99.0105H100.28Z" fill="#58595B"/>
<path d="M107.273 91.3422V95.7843C107.273 97.3106 106.619 97.8158 105.637 97.8158C104.745 97.8158 104.038 97.3316 104.038 95.8053V91.3685C104.038 89.7159 104.856 89.2948 105.679 89.2948C106.487 89.2948 107.273 89.7106 107.273 91.3422ZM104.682 91.3422V95.8053C104.682 96.779 104.988 97.2158 105.674 97.2158C106.265 97.2158 106.64 96.9211 106.64 95.779V91.3474C106.64 90.2369 106.218 89.9053 105.663 89.9053C105.093 89.9001 104.682 90.1843 104.682 91.3422Z" fill="#58595B"/>
<path d="M108.139 97.7158V96.0421H108.767V97.7158H108.139Z" fill="#58595B"/>
<path d="M112.615 89.9737H110.54C110.493 90.6948 110.403 92.0316 110.324 92.779C110.482 92.4737 110.873 92.2211 111.401 92.2211C112.504 92.2211 112.836 93.0579 112.836 94.4106V95.4579C112.836 96.7421 112.567 97.8158 111.174 97.8158C109.902 97.8158 109.559 96.9053 109.559 95.9V95.7895H110.197V95.9579C110.197 96.579 110.408 97.2527 111.174 97.2527C112.039 97.2527 112.187 96.4895 112.187 95.6V94.4474C112.187 93.4527 112.039 92.7948 111.258 92.7948C110.672 92.7948 110.393 93.1264 110.229 93.7842L109.648 93.7106C109.786 92.5737 109.939 90.0579 109.976 89.3948H112.704L112.615 89.9737Z" fill="#58595B"/>
<path d="M115.676 93.1211C115.676 92.0316 115.676 91.6 115.666 91.2737H116.262C116.288 91.4579 116.288 91.6948 116.294 91.9053C116.462 91.4684 116.795 91.1737 117.376 91.1737C117.851 91.1737 118.22 91.3632 118.357 91.9527C118.537 91.5316 118.875 91.1737 119.513 91.1737C120.094 91.1737 120.685 91.4053 120.685 92.6369V97.7158H120.057V92.7895C120.057 92.2474 119.972 91.7684 119.371 91.7684C118.658 91.7684 118.5 92.4421 118.5 93.179V97.7158H117.866V92.8579C117.866 92.0895 117.687 91.7684 117.159 91.7684C116.473 91.7684 116.309 92.4632 116.309 93.279V97.7158H115.681V93.1211H115.676Z" fill="#58595B"/>
<path d="M124.817 97.7421C124.817 98.9632 124.664 100 123.207 100C121.999 100 121.751 99.1421 121.751 98.4526V98.4158H122.389V98.4632C122.389 98.8842 122.548 99.4474 123.244 99.4474C124.004 99.4474 124.189 98.8895 124.189 97.879V96.9632C124.01 97.4579 123.672 97.6895 123.075 97.6895C122.226 97.6895 121.756 97.1105 121.756 95.7526V93.0579C121.756 91.7421 122.363 91.1737 123.202 91.1737C123.851 91.1737 124.168 91.5263 124.252 91.8316C124.252 91.6579 124.279 91.4316 124.295 91.2737H124.838C124.828 91.6 124.812 92.2105 124.812 93.0316V97.7421H124.817ZM122.395 93.0842V95.6947C122.395 96.6421 122.653 97.1053 123.192 97.1053C124.062 97.1053 124.194 96.1579 124.194 95.2316V93.3211C124.194 92.4421 124.099 91.7684 123.292 91.7684C122.637 91.7684 122.395 92.2737 122.395 93.0842Z" fill="#58595B"/>
<path d="M100.66 25.8737C100.66 26.0369 100.623 26.1948 100.549 26.3579L91.804 45.5263C91.6404 45.9369 91.3817 46.1474 91.0228 46.1474C90.8434 46.1474 90.6798 46.1106 90.5373 46.0421C90.1203 45.879 89.9145 45.6106 89.9145 45.2316C89.9145 45.0684 89.9514 44.9106 90.02 44.7474L92.6959 38.8527V38.8263L86.6738 26.3895C86.5999 26.2474 86.563 26.0842 86.563 25.9053C86.563 25.5263 86.7636 25.2579 87.1594 25.1C87.3019 25.0263 87.4655 24.9895 87.645 24.9895C88.025 24.9895 88.2941 25.179 88.4525 25.5579L93.7199 36.6211L98.7444 25.5842C98.9239 25.1895 99.1931 24.9895 99.552 24.9895C99.7156 24.9895 99.8739 25.0263 100.038 25.1C100.455 25.2527 100.66 25.5158 100.66 25.8737Z" fill="#602D91"/>
<path d="M108.667 21.779C108.065 22.5685 107.764 23.6211 107.764 24.9316V25.5527H111.005C111.29 25.5527 111.522 25.6369 111.691 25.8106C111.86 25.979 111.95 26.2 111.95 26.4685C111.95 26.7211 111.865 26.9316 111.691 27.1C111.522 27.2685 111.29 27.3579 111.005 27.3579H107.764V38.6948C107.764 39.0158 107.669 39.2737 107.479 39.4632C107.289 39.6527 107.026 39.7474 106.682 39.7474C106.392 39.7474 106.155 39.6527 105.965 39.4632C105.775 39.2737 105.68 39.0211 105.68 38.6948V27.3527H103.954C103.664 27.3527 103.437 27.2685 103.268 27.0948C103.099 26.9211 103.009 26.7158 103.009 26.4632C103.009 26.1948 103.093 25.9737 103.268 25.8053C103.437 25.6369 103.669 25.5474 103.954 25.5474H105.68V25.0369C105.68 23.1158 106.176 21.5843 107.163 20.4316C108.155 19.2843 109.548 18.7106 111.348 18.7106C111.654 18.7106 111.908 18.8 112.103 18.979C112.303 19.1579 112.398 19.3843 112.398 19.6527C112.398 19.9211 112.298 20.1474 112.103 20.3264C111.902 20.5053 111.654 20.5948 111.348 20.5948C110.166 20.5948 109.269 20.9895 108.667 21.779Z" fill="#602D91"/>
<path d="M124.855 25.8053C125.878 26.4263 126.675 27.2842 127.245 28.379C127.815 29.4737 128.095 30.7211 128.095 32.1211C128.095 32.4105 128.005 32.6369 127.826 32.8053C127.647 32.9737 127.409 33.0632 127.124 33.0632H116.215C116.357 34.5369 116.932 35.7263 117.94 36.6421C118.949 37.5579 120.21 38.0158 121.719 38.0158C122.369 38.0158 123.018 37.9053 123.678 37.679C124.332 37.4526 124.86 37.1737 125.256 36.8316C125.488 36.6526 125.731 36.5632 125.984 36.5632C126.179 36.5632 126.38 36.6369 126.575 36.779C126.807 36.9948 126.929 37.2369 126.929 37.5053C126.929 37.7369 126.829 37.9474 126.633 38.1263C126.037 38.6316 125.282 39.0474 124.364 39.379C123.445 39.7105 122.564 39.879 121.719 39.879C120.279 39.879 118.991 39.5579 117.856 38.9211C116.721 38.2842 115.835 37.3948 115.196 36.2579C114.557 35.1158 114.235 33.8316 114.235 32.3948C114.235 30.9421 114.536 29.6421 115.138 28.5053C115.74 27.3684 116.579 26.479 117.65 25.8421C118.722 25.2053 119.941 24.8842 121.308 24.8842C122.648 24.879 123.831 25.1842 124.855 25.8053ZM117.914 28C117.012 28.8421 116.463 29.9579 116.267 31.3369H126.148C126.005 29.9526 125.498 28.8421 124.633 28C123.767 27.1579 122.664 26.7369 121.313 26.7369C119.951 26.7369 118.817 27.1579 117.914 28Z" fill="#602D91"/>
<path d="M150.489 25.6053C151.307 26.1106 151.946 26.8211 152.405 27.7474C152.864 28.6737 153.091 29.7421 153.091 30.9632V38.7158C153.091 39.0211 152.996 39.2684 152.806 39.4579C152.616 39.6474 152.368 39.7421 152.062 39.7421C151.756 39.7421 151.503 39.6474 151.307 39.4579C151.107 39.2684 151.012 39.0211 151.012 38.7158V30.9632C151.012 29.6895 150.685 28.679 150.025 27.9369C149.365 27.1895 148.51 26.8211 147.444 26.8211C146.309 26.8211 145.391 27.2 144.689 27.9527C143.987 28.7053 143.644 29.6948 143.665 30.9158V30.9684V38.7211C143.665 39.0263 143.57 39.2737 143.38 39.4632C143.19 39.6527 142.942 39.7474 142.636 39.7474C142.33 39.7474 142.076 39.6527 141.881 39.4632C141.68 39.2737 141.585 39.0263 141.585 38.7211V30.9632C141.585 29.6895 141.258 28.679 140.598 27.9369C139.939 27.1948 139.084 26.8211 138.023 26.8211C136.904 26.8211 135.991 27.1895 135.268 27.9263C134.545 28.6632 134.186 29.6053 134.186 30.7527V38.7211C134.186 39.0263 134.091 39.2737 133.901 39.4632C133.711 39.6527 133.463 39.7474 133.157 39.7474C132.85 39.7474 132.597 39.6527 132.402 39.4632C132.201 39.2737 132.106 39.0263 132.106 38.7211V26.0632C132.106 25.7579 132.206 25.5053 132.402 25.3106C132.602 25.1106 132.85 25.0158 133.157 25.0158C133.463 25.0158 133.711 25.1158 133.901 25.3106C134.091 25.5106 134.186 25.7579 134.186 26.0632V26.6527C134.687 26.079 135.289 25.6369 135.98 25.3211C136.672 25.0053 137.426 24.8527 138.234 24.8527C139.221 24.8527 140.113 25.079 140.905 25.5263C141.696 25.9737 142.324 26.6053 142.794 27.4106C143.317 26.6 143.997 25.9737 144.831 25.5263C145.67 25.079 146.61 24.8527 147.655 24.8527C148.732 24.8527 149.671 25.1 150.489 25.6053Z" fill="#602D91"/>
<path d="M186.263 25.1474C186.701 25.3474 186.923 25.6211 186.923 25.9843C186.923 26.0895 186.912 26.1737 186.896 26.2264C186.822 26.479 186.712 26.6474 186.558 26.7369C186.405 26.8264 186.194 26.8737 185.925 26.8737C185.762 26.8737 185.482 26.8579 185.086 26.8211C184.943 26.8053 184.727 26.7948 184.437 26.7948C183.086 26.7948 181.983 27.1527 181.127 27.8737C180.272 28.5895 179.845 29.5264 179.845 30.6737V38.7211C179.845 39.0421 179.755 39.2948 179.576 39.4737C179.396 39.6527 179.143 39.7421 178.821 39.7421C178.499 39.7421 178.246 39.6527 178.066 39.4737C177.887 39.2948 177.797 39.0421 177.797 38.7211V26.0369C177.797 25.7158 177.887 25.4632 178.066 25.2843C178.246 25.1053 178.499 25.0158 178.821 25.0158C179.143 25.0158 179.396 25.1053 179.576 25.2843C179.755 25.4632 179.845 25.7158 179.845 26.0369V27.2211C180.367 26.4685 181.032 25.8843 181.845 25.4685C182.658 25.0579 183.529 24.8474 184.463 24.8474C185.223 24.8527 185.825 24.9474 186.263 25.1474Z" fill="#602D91"/>
<path d="M199.104 25.8053C200.128 26.4263 200.925 27.2842 201.495 28.379C202.065 29.4737 202.345 30.7211 202.345 32.1211C202.345 32.4105 202.255 32.6369 202.076 32.8053C201.896 32.9737 201.659 33.0632 201.374 33.0632H190.464C190.607 34.5369 191.182 35.7263 192.19 36.6421C193.198 37.5579 194.459 38.0158 195.969 38.0158C196.618 38.0158 197.267 37.9053 197.927 37.679C198.582 37.4526 199.109 37.1737 199.505 36.8316C199.737 36.6526 199.98 36.5632 200.234 36.5632C200.429 36.5632 200.629 36.6369 200.825 36.779C201.057 36.9948 201.178 37.2369 201.178 37.5053C201.178 37.7369 201.078 37.9474 200.883 38.1263C200.286 38.6316 199.532 39.0474 198.613 39.379C197.695 39.7105 196.813 39.879 195.969 39.879C194.528 39.879 193.24 39.5579 192.106 38.9211C190.971 38.2842 190.084 37.3948 189.445 36.2579C188.807 35.1158 188.485 33.8316 188.485 32.3948C188.485 30.9421 188.786 29.6421 189.387 28.5053C189.989 27.3684 190.828 26.479 191.9 25.8421C192.971 25.2053 194.19 24.8842 195.557 24.8842C196.898 24.879 198.08 25.1842 199.104 25.8053ZM192.164 28C191.261 28.8421 190.712 29.9579 190.517 31.3369H200.397C200.255 29.9526 199.748 28.8421 198.882 28C198.017 27.1579 196.914 26.7369 195.563 26.7369C194.201 26.7369 193.066 27.1579 192.164 28Z" fill="#602D91"/>
<path d="M215.656 25.8053C216.68 26.4263 217.477 27.2842 218.047 28.379C218.617 29.4737 218.897 30.7211 218.897 32.1211C218.897 32.4105 218.807 32.6369 218.628 32.8053C218.448 32.9737 218.211 33.0632 217.926 33.0632H207.016C207.159 34.5369 207.734 35.7263 208.742 36.6421C209.75 37.5579 211.011 38.0158 212.521 38.0158C213.17 38.0158 213.819 37.9053 214.479 37.679C215.134 37.4526 215.661 37.1737 216.057 36.8316C216.289 36.6526 216.532 36.5632 216.786 36.5632C216.981 36.5632 217.181 36.6369 217.377 36.779C217.609 36.9948 217.73 37.2369 217.73 37.5053C217.73 37.7369 217.63 37.9474 217.435 38.1263C216.838 38.6316 216.084 39.0474 215.165 39.379C214.247 39.7105 213.365 39.879 212.521 39.879C211.08 39.879 209.792 39.5579 208.658 38.9211C207.523 38.2842 206.636 37.3948 205.997 36.2579C205.359 35.1158 205.037 33.8316 205.037 32.3948C205.037 30.9421 205.338 29.6421 205.939 28.5053C206.541 27.3684 207.38 26.479 208.452 25.8421C209.523 25.2053 210.742 24.8842 212.109 24.8842C213.45 24.879 214.627 25.1842 215.656 25.8053ZM208.716 28C207.813 28.8421 207.264 29.9579 207.069 31.3369H216.949C216.807 29.9526 216.3 28.8421 215.434 28C214.569 27.1579 213.466 26.7369 212.115 26.7369C210.748 26.7369 209.618 27.1579 208.716 28Z" fill="#602D91"/>
<path d="M172.25 28.5527C171.611 27.4106 170.735 26.5158 169.632 25.8579C168.524 25.2053 167.289 24.8737 165.922 24.8737C164.75 24.8737 163.678 25.1211 162.707 25.6158C161.736 26.1106 160.934 26.7895 160.306 27.6474V19.7632C160.306 19.4579 160.206 19.2053 160.01 19.0106C159.81 18.8106 159.562 18.7158 159.256 18.7158C158.949 18.7158 158.675 18.8158 158.485 19.0106C158.295 19.2106 158.2 19.4579 158.2 19.7632C158.2 19.7632 158.2 25.9263 158.2 26.0369V32.3632V38.7158C158.2 39.0369 158.29 39.2895 158.469 39.4684C158.649 39.6474 158.902 39.7369 159.224 39.7369C159.546 39.7369 159.799 39.6474 159.979 39.4684C160.158 39.2895 160.248 39.0369 160.248 38.7158V37.6053C160.723 38.1053 161.261 38.5369 161.879 38.8895C163.024 39.5474 164.296 39.8737 165.7 39.8737C167.104 39.8737 168.376 39.5474 169.521 38.8895C170.666 38.2316 171.564 37.3316 172.223 36.1842C172.883 35.0369 173.21 33.7632 173.21 32.3632C173.21 30.9632 172.888 29.6948 172.25 28.5527ZM170.471 35.2316C169.996 36.0842 169.336 36.7579 168.502 37.2527C167.663 37.7474 166.734 37.9948 165.71 37.9948C164.687 37.9948 163.758 37.7474 162.929 37.2527C162.1 36.7579 161.446 36.0842 160.971 35.2316C160.644 34.6474 160.433 34.0106 160.327 33.3527C160.269 32.9842 160.243 32.6106 160.248 32.2369C160.253 31.8684 160.311 31.5106 160.369 31.1474C160.464 30.5527 160.675 29.9684 160.976 29.4474C161.266 28.9421 161.646 28.5 162.079 28.1106C163.077 27.2106 164.291 26.7632 165.71 26.7632C166.734 26.7632 167.669 27.0053 168.502 27.4895C169.336 27.9737 169.996 28.6421 170.471 29.4948C170.946 30.3474 171.189 31.3053 171.189 32.3632C171.184 33.4211 170.946 34.379 170.471 35.2316Z" fill="#602D91"/>
<path d="M82.541 19.0059C82.7416 19.2059 82.8366 19.4532 82.8366 19.7585V38.6848C82.8366 38.9743 82.7363 39.2216 82.541 39.4269C82.3457 39.6322 82.0976 39.7374 81.8126 39.7374C81.5065 39.7374 81.2479 39.6322 81.0421 39.4269C80.8362 39.2216 80.7307 38.9743 80.7307 38.6848V23.0006C80.4562 23.369 74.7085 31.148 73.4682 32.6795C73.2835 32.9111 73.0513 33.1848 72.8296 33.3269C72.571 33.4901 72.2649 33.5217 71.9112 33.3532C71.6843 33.2427 71.4098 32.9164 71.2304 32.7006C70.4809 31.8111 70.0006 31.1006 69.2881 30.1795C68.4542 29.1059 67.6203 28.0269 66.7864 26.9532C66.0686 26.0216 65.3455 25.0953 64.6277 24.1638C64.3691 23.8322 64.1157 23.5006 63.8571 23.169V38.6901C63.8571 38.9795 63.7568 39.2269 63.5616 39.4322C63.361 39.6374 63.1129 39.7427 62.8068 39.7427C62.5165 39.7427 62.2737 39.6374 62.0626 39.4322C61.8568 39.2269 61.7512 38.9795 61.7512 38.6901V19.7638C61.7512 19.4585 61.8568 19.2059 62.0626 19.0111C62.2685 18.8111 62.5165 18.7164 62.8068 18.7164C63.2185 18.7164 63.5352 18.8953 63.7516 19.2532L72.3915 30.5901L80.8679 19.2532C81.0843 18.8953 81.401 18.7164 81.8126 18.7164C82.1029 18.7111 82.3457 18.8111 82.541 19.0059Z" fill="#602D91"/>
<path d="M222.881 25.179C223.224 25.379 223.493 25.6474 223.694 25.9896C223.894 26.3317 223.995 26.7053 223.995 27.1106C223.995 27.5211 223.894 27.9001 223.689 28.2422C223.488 28.5843 223.214 28.858 222.87 29.0527C222.527 29.2474 222.158 29.3474 221.757 29.3474C221.35 29.3474 220.97 29.2474 220.627 29.0527C220.284 28.858 220.015 28.5896 219.815 28.2474C219.614 27.9053 219.514 27.5264 219.514 27.1106C219.514 26.7053 219.614 26.3317 219.815 25.9896C220.015 25.6474 220.284 25.379 220.627 25.179C220.97 24.979 221.345 24.879 221.762 24.879C222.168 24.879 222.543 24.979 222.881 25.179ZM222.643 28.6369C222.918 28.479 223.134 28.2632 223.293 27.9896C223.451 27.7211 223.53 27.4264 223.53 27.1053C223.53 26.7843 223.451 26.4896 223.287 26.2211C223.129 25.9474 222.913 25.7369 222.638 25.5738C222.369 25.4159 222.068 25.3317 221.752 25.3317C221.43 25.3317 221.134 25.4106 220.86 25.5738C220.59 25.7317 220.374 25.9474 220.21 26.2211C220.052 26.4896 219.968 26.7843 219.968 27.1053C219.968 27.4264 220.047 27.7211 220.205 27.9896C220.363 28.2632 220.58 28.4738 220.849 28.6369C221.118 28.7948 221.419 28.879 221.746 28.879C222.073 28.8738 222.369 28.7948 222.643 28.6369ZM222.691 28.058C222.723 28.1106 222.738 28.1632 222.738 28.2053C222.738 28.258 222.717 28.3001 222.68 28.3369C222.643 28.3738 222.591 28.3896 222.527 28.3896C222.48 28.3896 222.438 28.379 222.401 28.3632C222.364 28.3422 222.332 28.3211 222.316 28.2896L221.788 27.4053H221.736H221.377V28.179C221.377 28.2422 221.356 28.2948 221.319 28.3369C221.277 28.379 221.224 28.3948 221.155 28.3948C221.087 28.3948 221.028 28.3738 220.992 28.3369C220.949 28.2948 220.928 28.2422 220.928 28.179V25.9369C220.928 25.8738 220.949 25.8211 220.997 25.779C221.044 25.7369 221.102 25.7211 221.176 25.7211H221.746C222.021 25.7211 222.248 25.8001 222.427 25.958C222.607 26.1159 222.696 26.3159 222.696 26.558C222.696 26.7159 222.654 26.8632 222.575 26.9896C222.496 27.1159 222.385 27.2211 222.248 27.2948L222.691 28.058ZM221.372 27.0001H221.767C221.905 27.0001 222.015 26.958 222.095 26.879C222.179 26.7948 222.216 26.6896 222.216 26.5527C222.216 26.4159 222.174 26.3106 222.095 26.2317C222.01 26.1527 221.905 26.1159 221.767 26.1159H221.372V27.0001Z" fill="#602D91"/>
</g>
<defs>
<linearGradient id="paint0_linear" x1="29.223" y1="62.4035" x2="29.223" y2="20.4622" gradientUnits="userSpaceOnUse">
<stop stop-color="#AFD4C4"/>
<stop offset="0.0871" stop-color="#AFD1C3" stop-opacity="0.9344"/>
<stop offset="0.1444" stop-color="#AFCBC1" stop-opacity="0.8912"/>
<stop offset="0.193" stop-color="#B0C2BE" stop-opacity="0.8546"/>
<stop offset="0.2369" stop-color="#B0B6BA" stop-opacity="0.8215"/>
<stop offset="0.2775" stop-color="#B1A6B5" stop-opacity="0.7909"/>
<stop offset="0.3158" stop-color="#B191AD" stop-opacity="0.7621"/>
<stop offset="0.3522" stop-color="#B279A4" stop-opacity="0.7346"/>
<stop offset="0.3871" stop-color="#B25A99" stop-opacity="0.7083"/>
<stop offset="0.4197" stop-color="#B42A8F" stop-opacity="0.6837"/>
<stop offset="0.4247" stop-color="#B41E8E" stop-opacity="0.68"/>
<stop offset="0.8999" stop-color="#602D91"/>
</linearGradient>
<linearGradient id="paint1_linear" x1="29.269" y1="62.4035" x2="29.269" y2="20.4621" gradientUnits="userSpaceOnUse">
<stop stop-color="#AFD4C4"/>
<stop offset="0.0871" stop-color="#AFD1C3" stop-opacity="0.9344"/>
<stop offset="0.1444" stop-color="#AFCBC1" stop-opacity="0.8912"/>
<stop offset="0.193" stop-color="#B0C2BE" stop-opacity="0.8546"/>
<stop offset="0.2369" stop-color="#B0B6BA" stop-opacity="0.8215"/>
<stop offset="0.2775" stop-color="#B1A6B5" stop-opacity="0.7909"/>
<stop offset="0.3158" stop-color="#B191AD" stop-opacity="0.7621"/>
<stop offset="0.3522" stop-color="#B279A4" stop-opacity="0.7346"/>
<stop offset="0.3871" stop-color="#B25A99" stop-opacity="0.7083"/>
<stop offset="0.4197" stop-color="#B42A8F" stop-opacity="0.6837"/>
<stop offset="0.4247" stop-color="#B41E8E" stop-opacity="0.68"/>
<stop offset="0.8999" stop-color="#602D91"/>
</linearGradient>
<linearGradient id="paint2_linear" x1="39.7147" y1="62.4036" x2="39.7147" y2="20.4622" gradientUnits="userSpaceOnUse">
<stop stop-color="#AFD4C4"/>
<stop offset="0.0871" stop-color="#AFD1C3" stop-opacity="0.9344"/>
<stop offset="0.1444" stop-color="#AFCBC1" stop-opacity="0.8912"/>
<stop offset="0.193" stop-color="#B0C2BE" stop-opacity="0.8546"/>
<stop offset="0.2369" stop-color="#B0B6BA" stop-opacity="0.8215"/>
<stop offset="0.2775" stop-color="#B1A6B5" stop-opacity="0.7909"/>
<stop offset="0.3158" stop-color="#B191AD" stop-opacity="0.7621"/>
<stop offset="0.3522" stop-color="#B279A4" stop-opacity="0.7346"/>
<stop offset="0.3871" stop-color="#B25A99" stop-opacity="0.7083"/>
<stop offset="0.4197" stop-color="#B42A8F" stop-opacity="0.6837"/>
<stop offset="0.4247" stop-color="#B41E8E" stop-opacity="0.68"/>
<stop offset="0.8999" stop-color="#602D91"/>
</linearGradient>
<linearGradient id="paint3_linear" x1="18.7823" y1="62.4035" x2="18.7823" y2="20.4622" gradientUnits="userSpaceOnUse">
<stop stop-color="#AFD4C4"/>
<stop offset="0.0871" stop-color="#AFD1C3" stop-opacity="0.9344"/>
<stop offset="0.1444" stop-color="#AFCBC1" stop-opacity="0.8912"/>
<stop offset="0.193" stop-color="#B0C2BE" stop-opacity="0.8546"/>
<stop offset="0.2369" stop-color="#B0B6BA" stop-opacity="0.8215"/>
<stop offset="0.2775" stop-color="#B1A6B5" stop-opacity="0.7909"/>
<stop offset="0.3158" stop-color="#B191AD" stop-opacity="0.7621"/>
<stop offset="0.3522" stop-color="#B279A4" stop-opacity="0.7346"/>
<stop offset="0.3871" stop-color="#B25A99" stop-opacity="0.7083"/>
<stop offset="0.4197" stop-color="#B42A8F" stop-opacity="0.6837"/>
<stop offset="0.4247" stop-color="#B41E8E" stop-opacity="0.68"/>
<stop offset="0.8999" stop-color="#602D91"/>
</linearGradient>
<linearGradient id="paint4_linear" x1="38.7861" y1="49.0529" x2="38.7861" y2="16.3902" gradientUnits="userSpaceOnUse">
<stop offset="0.00127591" stop-color="#AFD4C4"/>
<stop offset="0.3856" stop-color="#B41E8E" stop-opacity="0.8"/>
<stop offset="0.8178" stop-color="#602D91"/>
</linearGradient>
<linearGradient id="paint5_linear" x1="13.9732" y1="49.0528" x2="13.9732" y2="16.3901" gradientUnits="userSpaceOnUse">
<stop offset="0.00127591" stop-color="#AFD4C4"/>
<stop offset="0.3856" stop-color="#B41E8E" stop-opacity="0.8"/>
<stop offset="0.8178" stop-color="#602D91"/>
</linearGradient>
<linearGradient id="paint6_linear" x1="19.7371" y1="49.0528" x2="19.7371" y2="16.3902" gradientUnits="userSpaceOnUse">
<stop offset="0.00127591" stop-color="#AFD4C4"/>
<stop offset="0.3856" stop-color="#B41E8E" stop-opacity="0.8"/>
<stop offset="0.8178" stop-color="#602D91"/>
</linearGradient>
<linearGradient id="paint7_linear" x1="29.2692" y1="49.0529" x2="29.2692" y2="16.3902" gradientUnits="userSpaceOnUse">
<stop offset="0.00127591" stop-color="#AFD4C4"/>
<stop offset="0.3856" stop-color="#B41E8E" stop-opacity="0.8"/>
<stop offset="0.8178" stop-color="#602D91"/>
</linearGradient>
<linearGradient id="paint8_linear" x1="44.5682" y1="49.0528" x2="44.5682" y2="16.3901" gradientUnits="userSpaceOnUse">
<stop offset="0.00127591" stop-color="#AFD4C4"/>
<stop offset="0.3856" stop-color="#B41E8E" stop-opacity="0.8"/>
<stop offset="0.8178" stop-color="#602D91"/>
</linearGradient>
<linearGradient id="paint9_linear" x1="29.2662" y1="62.4035" x2="29.2662" y2="20.4621" gradientUnits="userSpaceOnUse">
<stop stop-color="#AFD4C4"/>
<stop offset="0.0871" stop-color="#AFD1C3" stop-opacity="0.9344"/>
<stop offset="0.1444" stop-color="#AFCBC1" stop-opacity="0.8912"/>
<stop offset="0.193" stop-color="#B0C2BE" stop-opacity="0.8546"/>
<stop offset="0.2369" stop-color="#B0B6BA" stop-opacity="0.8215"/>
<stop offset="0.2775" stop-color="#B1A6B5" stop-opacity="0.7909"/>
<stop offset="0.3158" stop-color="#B191AD" stop-opacity="0.7621"/>
<stop offset="0.3522" stop-color="#B279A4" stop-opacity="0.7346"/>
<stop offset="0.3871" stop-color="#B25A99" stop-opacity="0.7083"/>
<stop offset="0.4197" stop-color="#B42A8F" stop-opacity="0.6837"/>
<stop offset="0.4247" stop-color="#B41E8E" stop-opacity="0.68"/>
<stop offset="0.8999" stop-color="#602D91"/>
</linearGradient>
<linearGradient id="paint10_linear" x1="41.2432" y1="62.4035" x2="41.2432" y2="20.4621" gradientUnits="userSpaceOnUse">
<stop stop-color="#AFD4C4"/>
<stop offset="0.0871" stop-color="#AFD1C3" stop-opacity="0.9344"/>
<stop offset="0.1444" stop-color="#AFCBC1" stop-opacity="0.8912"/>
<stop offset="0.193" stop-color="#B0C2BE" stop-opacity="0.8546"/>
<stop offset="0.2369" stop-color="#B0B6BA" stop-opacity="0.8215"/>
<stop offset="0.2775" stop-color="#B1A6B5" stop-opacity="0.7909"/>
<stop offset="0.3158" stop-color="#B191AD" stop-opacity="0.7621"/>
<stop offset="0.3522" stop-color="#B279A4" stop-opacity="0.7346"/>
<stop offset="0.3871" stop-color="#B25A99" stop-opacity="0.7083"/>
<stop offset="0.4197" stop-color="#B42A8F" stop-opacity="0.6837"/>
<stop offset="0.4247" stop-color="#B41E8E" stop-opacity="0.68"/>
<stop offset="0.8999" stop-color="#602D91"/>
</linearGradient>
<linearGradient id="paint11_linear" x1="41.2432" y1="49.0528" x2="41.2432" y2="16.3901" gradientUnits="userSpaceOnUse">
<stop offset="0.00127591" stop-color="#AFD4C4"/>
<stop offset="0.3856" stop-color="#B41E8E" stop-opacity="0.8"/>
<stop offset="0.8178" stop-color="#602D91"/>
</linearGradient>
<linearGradient id="paint12_linear" x1="17.2943" y1="62.4035" x2="17.2943" y2="20.4621" gradientUnits="userSpaceOnUse">
<stop stop-color="#AFD4C4"/>
<stop offset="0.0871" stop-color="#AFD1C3" stop-opacity="0.9344"/>
<stop offset="0.1444" stop-color="#AFCBC1" stop-opacity="0.8912"/>
<stop offset="0.193" stop-color="#B0C2BE" stop-opacity="0.8546"/>
<stop offset="0.2369" stop-color="#B0B6BA" stop-opacity="0.8215"/>
<stop offset="0.2775" stop-color="#B1A6B5" stop-opacity="0.7909"/>
<stop offset="0.3158" stop-color="#B191AD" stop-opacity="0.7621"/>
<stop offset="0.3522" stop-color="#B279A4" stop-opacity="0.7346"/>
<stop offset="0.3871" stop-color="#B25A99" stop-opacity="0.7083"/>
<stop offset="0.4197" stop-color="#B42A8F" stop-opacity="0.6837"/>
<stop offset="0.4247" stop-color="#B41E8E" stop-opacity="0.68"/>
<stop offset="0.8999" stop-color="#602D91"/>
</linearGradient>
<linearGradient id="paint13_linear" x1="17.2943" y1="49.0528" x2="17.2943" y2="16.3901" gradientUnits="userSpaceOnUse">
<stop offset="0.00127591" stop-color="#AFD4C4"/>
<stop offset="0.3856" stop-color="#B41E8E" stop-opacity="0.8"/>
<stop offset="0.8178" stop-color="#602D91"/>
</linearGradient>
<linearGradient id="paint14_linear" x1="29.1227" y1="36.5171" x2="29.1227" y2="5.99995" gradientUnits="userSpaceOnUse">
<stop stop-color="#AFD4C4"/>
<stop offset="0.0214" stop-color="#AFCBC1" stop-opacity="0.9654"/>
<stop offset="0.0592" stop-color="#B0BABC" stop-opacity="0.9042"/>
<stop offset="0.1091" stop-color="#B19DB1" stop-opacity="0.8234"/>
<stop offset="0.1692" stop-color="#B274A2" stop-opacity="0.7263"/>
<stop offset="0.2371" stop-color="#B4308F" stop-opacity="0.6164"/>
<stop offset="0.2473" stop-color="#B41E8E" stop-opacity="0.6"/>
<stop offset="0.2944" stop-color="#A1238F" stop-opacity="0.6622"/>
<stop offset="0.3729" stop-color="#862990" stop-opacity="0.7658"/>
<stop offset="0.4445" stop-color="#722B90" stop-opacity="0.8602"/>
<stop offset="0.5061" stop-color="#652D91" stop-opacity="0.9414"/>
<stop offset="0.5505" stop-color="#602D91"/>
</linearGradient>
<linearGradient id="paint15_linear" x1="16.2401" y1="36.517" x2="16.2401" y2="5.9999" gradientUnits="userSpaceOnUse">
<stop stop-color="#AFD4C4"/>
<stop offset="0.0214" stop-color="#AFCBC1" stop-opacity="0.9654"/>
<stop offset="0.0592" stop-color="#B0BABC" stop-opacity="0.9042"/>
<stop offset="0.1091" stop-color="#B19DB1" stop-opacity="0.8234"/>
<stop offset="0.1692" stop-color="#B274A2" stop-opacity="0.7263"/>
<stop offset="0.2371" stop-color="#B4308F" stop-opacity="0.6164"/>
<stop offset="0.2473" stop-color="#B41E8E" stop-opacity="0.6"/>
<stop offset="0.2944" stop-color="#A1238F" stop-opacity="0.6622"/>
<stop offset="0.3729" stop-color="#862990" stop-opacity="0.7658"/>
<stop offset="0.4445" stop-color="#722B90" stop-opacity="0.8602"/>
<stop offset="0.5061" stop-color="#652D91" stop-opacity="0.9414"/>
<stop offset="0.5505" stop-color="#602D91"/>
</linearGradient>
<linearGradient id="paint16_linear" x1="29.2282" y1="36.5171" x2="29.2282" y2="5.99998" gradientUnits="userSpaceOnUse">
<stop stop-color="#AFD4C4"/>
<stop offset="0.0214" stop-color="#AFCBC1" stop-opacity="0.9654"/>
<stop offset="0.0592" stop-color="#B0BABC" stop-opacity="0.9042"/>
<stop offset="0.1091" stop-color="#B19DB1" stop-opacity="0.8234"/>
<stop offset="0.1692" stop-color="#B274A2" stop-opacity="0.7263"/>
<stop offset="0.2371" stop-color="#B4308F" stop-opacity="0.6164"/>
<stop offset="0.2473" stop-color="#B41E8E" stop-opacity="0.6"/>
<stop offset="0.2944" stop-color="#A1238F" stop-opacity="0.6622"/>
<stop offset="0.3729" stop-color="#862990" stop-opacity="0.7658"/>
<stop offset="0.4445" stop-color="#722B90" stop-opacity="0.8602"/>
<stop offset="0.5061" stop-color="#652D91" stop-opacity="0.9414"/>
<stop offset="0.5505" stop-color="#602D91"/>
</linearGradient>
<linearGradient id="paint17_linear" x1="42.2555" y1="36.5171" x2="42.2555" y2="5.99998" gradientUnits="userSpaceOnUse">
<stop stop-color="#AFD4C4"/>
<stop offset="0.0214" stop-color="#AFCBC1" stop-opacity="0.9654"/>
<stop offset="0.0592" stop-color="#B0BABC" stop-opacity="0.9042"/>
<stop offset="0.1091" stop-color="#B19DB1" stop-opacity="0.8234"/>
<stop offset="0.1692" stop-color="#B274A2" stop-opacity="0.7263"/>
<stop offset="0.2371" stop-color="#B4308F" stop-opacity="0.6164"/>
<stop offset="0.2473" stop-color="#B41E8E" stop-opacity="0.6"/>
<stop offset="0.2944" stop-color="#A1238F" stop-opacity="0.6622"/>
<stop offset="0.3729" stop-color="#862990" stop-opacity="0.7658"/>
<stop offset="0.4445" stop-color="#722B90" stop-opacity="0.8602"/>
<stop offset="0.5061" stop-color="#652D91" stop-opacity="0.9414"/>
<stop offset="0.5505" stop-color="#602D91"/>
</linearGradient>
<linearGradient id="paint18_linear" x1="38.2382" y1="62.4034" x2="38.2382" y2="20.4621" gradientUnits="userSpaceOnUse">
<stop stop-color="#AFD4C4"/>
<stop offset="0.0871" stop-color="#AFD1C3" stop-opacity="0.9344"/>
<stop offset="0.1444" stop-color="#AFCBC1" stop-opacity="0.8912"/>
<stop offset="0.193" stop-color="#B0C2BE" stop-opacity="0.8546"/>
<stop offset="0.2369" stop-color="#B0B6BA" stop-opacity="0.8215"/>
<stop offset="0.2775" stop-color="#B1A6B5" stop-opacity="0.7909"/>
<stop offset="0.3158" stop-color="#B191AD" stop-opacity="0.7621"/>
<stop offset="0.3522" stop-color="#B279A4" stop-opacity="0.7346"/>
<stop offset="0.3871" stop-color="#B25A99" stop-opacity="0.7083"/>
<stop offset="0.4197" stop-color="#B42A8F" stop-opacity="0.6837"/>
<stop offset="0.4247" stop-color="#B41E8E" stop-opacity="0.68"/>
<stop offset="0.8999" stop-color="#602D91"/>
</linearGradient>
<linearGradient id="paint19_linear" x1="38.2382" y1="36.5171" x2="38.2382" y2="6" gradientUnits="userSpaceOnUse">
<stop stop-color="#AFD4C4"/>
<stop offset="0.0214" stop-color="#AFCBC1" stop-opacity="0.9654"/>
<stop offset="0.0592" stop-color="#B0BABC" stop-opacity="0.9042"/>
<stop offset="0.1091" stop-color="#B19DB1" stop-opacity="0.8234"/>
<stop offset="0.1692" stop-color="#B274A2" stop-opacity="0.7263"/>
<stop offset="0.2371" stop-color="#B4308F" stop-opacity="0.6164"/>
<stop offset="0.2473" stop-color="#B41E8E" stop-opacity="0.6"/>
<stop offset="0.2944" stop-color="#A1238F" stop-opacity="0.6622"/>
<stop offset="0.3729" stop-color="#862990" stop-opacity="0.7658"/>
<stop offset="0.4445" stop-color="#722B90" stop-opacity="0.8602"/>
<stop offset="0.5061" stop-color="#652D91" stop-opacity="0.9414"/>
<stop offset="0.5505" stop-color="#602D91"/>
</linearGradient>
<linearGradient id="paint20_linear" x1="20.2116" y1="62.4035" x2="20.2116" y2="20.4621" gradientUnits="userSpaceOnUse">
<stop stop-color="#AFD4C4"/>
<stop offset="0.0871" stop-color="#AFD1C3" stop-opacity="0.9344"/>
<stop offset="0.1444" stop-color="#AFCBC1" stop-opacity="0.8912"/>
<stop offset="0.193" stop-color="#B0C2BE" stop-opacity="0.8546"/>
<stop offset="0.2369" stop-color="#B0B6BA" stop-opacity="0.8215"/>
<stop offset="0.2775" stop-color="#B1A6B5" stop-opacity="0.7909"/>
<stop offset="0.3158" stop-color="#B191AD" stop-opacity="0.7621"/>
<stop offset="0.3522" stop-color="#B279A4" stop-opacity="0.7346"/>
<stop offset="0.3871" stop-color="#B25A99" stop-opacity="0.7083"/>
<stop offset="0.4197" stop-color="#B42A8F" stop-opacity="0.6837"/>
<stop offset="0.4247" stop-color="#B41E8E" stop-opacity="0.68"/>
<stop offset="0.8999" stop-color="#602D91"/>
</linearGradient>
<linearGradient id="paint21_linear" x1="20.2116" y1="36.5171" x2="20.2116" y2="5.99996" gradientUnits="userSpaceOnUse">
<stop stop-color="#AFD4C4"/>
<stop offset="0.0214" stop-color="#AFCBC1" stop-opacity="0.9654"/>
<stop offset="0.0592" stop-color="#B0BABC" stop-opacity="0.9042"/>
<stop offset="0.1091" stop-color="#B19DB1" stop-opacity="0.8234"/>
<stop offset="0.1692" stop-color="#B274A2" stop-opacity="0.7263"/>
<stop offset="0.2371" stop-color="#B4308F" stop-opacity="0.6164"/>
<stop offset="0.2473" stop-color="#B41E8E" stop-opacity="0.6"/>
<stop offset="0.2944" stop-color="#A1238F" stop-opacity="0.6622"/>
<stop offset="0.3729" stop-color="#862990" stop-opacity="0.7658"/>
<stop offset="0.4445" stop-color="#722B90" stop-opacity="0.8602"/>
<stop offset="0.5061" stop-color="#652D91" stop-opacity="0.9414"/>
<stop offset="0.5505" stop-color="#602D91"/>
</linearGradient>
<linearGradient id="paint22_linear" x1="29.2339" y1="49.0529" x2="29.2339" y2="16.3902" gradientUnits="userSpaceOnUse">
<stop offset="0.00127591" stop-color="#AFD4C4"/>
<stop offset="0.3856" stop-color="#B41E8E" stop-opacity="0.8"/>
<stop offset="0.8178" stop-color="#602D91"/>
</linearGradient>
<linearGradient id="paint23_linear" x1="46.4525" y1="49.0529" x2="46.4525" y2="16.3902" gradientUnits="userSpaceOnUse">
<stop offset="0.00127591" stop-color="#AFD4C4"/>
<stop offset="0.3856" stop-color="#B41E8E" stop-opacity="0.8"/>
<stop offset="0.8178" stop-color="#602D91"/>
</linearGradient>
<linearGradient id="paint24_linear" x1="46.4525" y1="36.5172" x2="46.4525" y2="6.00005" gradientUnits="userSpaceOnUse">
<stop stop-color="#AFD4C4"/>
<stop offset="0.0214" stop-color="#AFCBC1" stop-opacity="0.9654"/>
<stop offset="0.0592" stop-color="#B0BABC" stop-opacity="0.9042"/>
<stop offset="0.1091" stop-color="#B19DB1" stop-opacity="0.8234"/>
<stop offset="0.1692" stop-color="#B274A2" stop-opacity="0.7263"/>
<stop offset="0.2371" stop-color="#B4308F" stop-opacity="0.6164"/>
<stop offset="0.2473" stop-color="#B41E8E" stop-opacity="0.6"/>
<stop offset="0.2944" stop-color="#A1238F" stop-opacity="0.6622"/>
<stop offset="0.3729" stop-color="#862990" stop-opacity="0.7658"/>
<stop offset="0.4445" stop-color="#722B90" stop-opacity="0.8602"/>
<stop offset="0.5061" stop-color="#652D91" stop-opacity="0.9414"/>
<stop offset="0.5505" stop-color="#602D91"/>
</linearGradient>
<linearGradient id="paint25_linear" x1="12.1044" y1="49.0529" x2="12.1044" y2="16.3902" gradientUnits="userSpaceOnUse">
<stop offset="0.00127591" stop-color="#AFD4C4"/>
<stop offset="0.3856" stop-color="#B41E8E" stop-opacity="0.8"/>
<stop offset="0.8178" stop-color="#602D91"/>
</linearGradient>
<linearGradient id="paint26_linear" x1="12.1044" y1="36.5171" x2="12.1044" y2="6" gradientUnits="userSpaceOnUse">
<stop stop-color="#AFD4C4"/>
<stop offset="0.0214" stop-color="#AFCBC1" stop-opacity="0.9654"/>
<stop offset="0.0592" stop-color="#B0BABC" stop-opacity="0.9042"/>
<stop offset="0.1091" stop-color="#B19DB1" stop-opacity="0.8234"/>
<stop offset="0.1692" stop-color="#B274A2" stop-opacity="0.7263"/>
<stop offset="0.2371" stop-color="#B4308F" stop-opacity="0.6164"/>
<stop offset="0.2473" stop-color="#B41E8E" stop-opacity="0.6"/>
<stop offset="0.2944" stop-color="#A1238F" stop-opacity="0.6622"/>
<stop offset="0.3729" stop-color="#862990" stop-opacity="0.7658"/>
<stop offset="0.4445" stop-color="#722B90" stop-opacity="0.8602"/>
<stop offset="0.5061" stop-color="#652D91" stop-opacity="0.9414"/>
<stop offset="0.5505" stop-color="#602D91"/>
</linearGradient>
<linearGradient id="paint27_linear" x1="29.2635" y1="62.4034" x2="29.2635" y2="20.4622" gradientUnits="userSpaceOnUse">
<stop stop-color="#AFD4C4"/>
<stop offset="0.0871" stop-color="#AFD1C3" stop-opacity="0.9344"/>
<stop offset="0.1444" stop-color="#AFCBC1" stop-opacity="0.8912"/>
<stop offset="0.193" stop-color="#B0C2BE" stop-opacity="0.8546"/>
<stop offset="0.2369" stop-color="#B0B6BA" stop-opacity="0.8215"/>
<stop offset="0.2775" stop-color="#B1A6B5" stop-opacity="0.7909"/>
<stop offset="0.3158" stop-color="#B191AD" stop-opacity="0.7621"/>
<stop offset="0.3522" stop-color="#B279A4" stop-opacity="0.7346"/>
<stop offset="0.3871" stop-color="#B25A99" stop-opacity="0.7083"/>
<stop offset="0.4197" stop-color="#B42A8F" stop-opacity="0.6837"/>
<stop offset="0.4247" stop-color="#B41E8E" stop-opacity="0.68"/>
<stop offset="0.8999" stop-color="#602D91"/>
</linearGradient>
<linearGradient id="paint28_linear" x1="29.2635" y1="49.0528" x2="29.2635" y2="16.3902" gradientUnits="userSpaceOnUse">
<stop offset="0.00127591" stop-color="#AFD4C4"/>
<stop offset="0.3856" stop-color="#B41E8E" stop-opacity="0.8"/>
<stop offset="0.8178" stop-color="#602D91"/>
</linearGradient>
<clipPath id="clip0">
<rect width="220" height="94" fill="white" transform="translate(4 6)"/>
</clipPath>
</defs>
</svg>
