<svg width="213" height="87" viewBox="0 0 213 87" fill="none" xmlns="http://www.w3.org/2000/svg">
<g clip-path="url(#clip0)">
<path d="M53.3929 55.1723C52.2707 52.7038 51.6719 50.0745 51.6719 47.1521C51.6719 44.2296 52.2707 41.6003 53.3929 39.1318L54.2605 39.496C53.5202 41.7989 53.0487 44.0877 53.0487 47.1521C53.0487 50.2022 53.5202 52.5052 54.2605 54.794L53.3929 55.1723Z" fill="#4D4D4D"/>
<path d="M55.251 51.5631V42.7958H56.4816V44.1908C56.8965 43.245 57.5849 42.6113 58.528 42.6113V43.8834C58.4195 43.8645 58.2733 43.8456 58.1838 43.8456C57.4435 43.8456 56.8258 44.5549 56.4816 45.3163V51.5584H55.251V51.5631Z" fill="#4D4D4D"/>
<path d="M59.2695 47.1709C59.2695 44.6314 60.1183 42.5791 62.0373 42.5791C64.0082 42.5791 64.7343 44.6504 64.7343 47.1519V47.587H60.5002C60.519 49.4549 61.132 50.7459 62.3815 50.7459C62.9049 50.7459 63.4471 50.3629 63.829 49.6772L64.5552 50.3487C64.0129 51.2377 63.2161 51.7815 62.2919 51.7815C60.2314 51.7815 59.2695 49.8191 59.2695 47.1709ZM62.0043 43.6147C60.7925 43.6147 60.5002 45.4117 60.5002 46.6649H63.5037C63.5037 45.284 63.2161 43.6147 62.0043 43.6147Z" fill="#4D4D4D"/>
<path d="M66.1865 51.564V39.458H67.4172V51.564H66.1865Z" fill="#4D4D4D"/>
<path d="M72.7917 51.5643V50.3678C72.4097 51.1481 71.6883 51.7818 70.8396 51.7818C69.6797 51.7818 69.2129 51.1623 69.2129 49.876V42.7969H70.4435V49.5497C70.4435 50.33 70.7312 50.6752 71.2734 50.6752C71.9429 50.6752 72.5229 50.0037 72.7917 49.2802V42.7969H74.0223V51.5643H72.7917Z" fill="#4D4D4D"/>
<path d="M75.7901 54.2124L76.2947 53.1956C76.7284 53.6685 77.3603 54.0137 77.9968 54.0137C78.954 54.0137 79.5905 53.3801 79.5905 51.9094V50.2401C79.2086 51.1291 78.539 51.6729 77.9449 51.6729C76.2994 51.6729 75.5732 49.8192 75.5732 47.1379C75.5732 44.4897 76.2994 42.584 77.9449 42.584C78.5438 42.584 79.2274 43.019 79.5905 44.0168V42.7968H80.8211V51.9047C80.8211 54.2833 79.6094 55.1156 78.1052 55.1156C77.2377 55.1203 76.422 54.8649 75.7901 54.2124ZM79.5905 49.0768V45.1565C79.3925 44.3952 78.8125 43.6858 78.2514 43.6858C77.1481 43.6858 76.8557 45.2842 76.8557 47.1332C76.8557 48.968 77.1434 50.5616 78.2514 50.5616C78.8125 50.5664 79.3925 49.857 79.5905 49.0768Z" fill="#4D4D4D"/>
<path d="M82.3486 47.1709C82.3486 44.7591 83.1078 42.5791 85.1164 42.5791C87.125 42.5791 87.8842 44.7591 87.8842 47.1709C87.8842 49.5826 87.125 51.7815 85.1164 51.7815C83.1078 51.7815 82.3486 49.5826 82.3486 47.1709ZM86.6016 47.1709C86.6016 45.4306 86.314 43.6857 85.1164 43.6857C83.9376 43.6857 83.6311 45.4259 83.6311 47.1709C83.6311 48.93 83.9376 50.675 85.1164 50.675C86.3093 50.675 86.6016 48.93 86.6016 47.1709Z" fill="#4D4D4D"/>
<path d="M89.4258 51.564V39.458H90.6564V51.564H89.4258Z" fill="#4D4D4D"/>
<path d="M92.2402 40.6549C92.2402 40.182 92.6363 39.8037 93.0889 39.8037C93.5604 39.8037 93.9565 40.1868 93.9565 40.6549C93.9565 41.1278 93.5604 41.5061 93.0889 41.5061C92.6363 41.5108 92.2402 41.1278 92.2402 40.6549ZM92.476 51.5645V42.7971H93.7066V51.5645H92.476Z" fill="#4D4D4D"/>
<path d="M98.9792 51.5634L97.5836 48.1161L96.1737 51.5634H94.8535L96.8244 47.1372L94.962 42.8008H96.2822L97.5836 46.1583L98.8849 42.8008H100.186L98.3238 47.1372L100.295 51.5634H98.9792Z" fill="#4D4D4D"/>
<path d="M102.066 53.8293L101.435 53.3233C102.015 52.9261 102.5 52.2168 102.557 51.6351C102.538 51.6351 102.429 51.673 102.359 51.673C101.868 51.673 101.524 51.2899 101.524 50.7839C101.524 50.2921 101.906 49.876 102.429 49.876C102.991 49.876 103.481 50.3489 103.481 51.1812C103.476 52.2688 102.844 53.2666 102.066 53.8293Z" fill="#4D4D4D"/>
<path d="M108.311 47.1709C108.311 44.6314 109.159 42.5791 111.078 42.5791C113.049 42.5791 113.775 44.6504 113.775 47.1519V47.587H109.541C109.56 49.4549 110.173 50.7459 111.423 50.7459C111.946 50.7459 112.488 50.3629 112.87 49.6772L113.596 50.3487C113.054 51.2377 112.257 51.7815 111.333 51.7815C109.268 51.7815 108.311 49.8191 108.311 47.1709ZM111.041 43.6147C109.829 43.6147 109.536 45.4117 109.536 46.6649H112.54C112.545 45.284 112.252 43.6147 111.041 43.6147Z" fill="#4D4D4D"/>
<path d="M114.724 50.6751L115.322 49.8239C115.756 50.4056 116.317 50.7697 117.006 50.7697C117.713 50.7697 118.288 50.2779 118.288 49.4645C118.288 47.4879 114.997 47.6108 114.997 44.764C114.997 43.5298 115.921 42.584 117.312 42.584C118.128 42.584 118.849 42.9292 119.392 43.5629L118.812 44.3999C118.449 43.875 117.906 43.6007 117.326 43.6007C116.619 43.6007 116.166 44.1067 116.166 44.7262C116.166 46.5752 119.458 46.5421 119.458 49.4456C119.458 50.8596 118.406 51.7864 117.086 51.7864C116.063 51.7817 115.285 51.4176 114.724 50.6751Z" fill="#4D4D4D"/>
<path d="M121.287 49.8951V43.8846H120.4V42.797H121.287V40.3994H122.536V42.797H123.715V43.8846H122.536V49.7106C122.536 50.3632 122.664 50.6706 123.079 50.6706C123.314 50.6706 123.512 50.5618 123.659 50.3632L124.055 51.2901C123.767 51.5785 123.385 51.7819 122.843 51.7819C121.739 51.7819 121.287 51.1624 121.287 49.8951Z" fill="#4D4D4D"/>
<path d="M125.195 51.5631V42.7958H126.426V44.1908C126.841 43.245 127.529 42.6113 128.472 42.6113V43.8834C128.364 43.8645 128.218 43.8456 128.128 43.8456C127.388 43.8456 126.77 44.5549 126.426 45.3163V51.5584H125.195V51.5631Z" fill="#4D4D4D"/>
<path d="M133.22 51.5642V50.6373C132.824 51.4554 132.117 51.7817 131.518 51.7817C130.16 51.7817 129.273 50.5995 129.273 48.8592C129.273 47.1332 130.16 45.9746 131.518 45.9746C132.117 45.9746 132.819 46.2631 133.22 47.0623V45.5585C133.22 44.3431 132.876 43.6527 131.862 43.6527C131.282 43.6527 130.721 43.9081 130.141 44.5796L129.618 43.6905C130.344 42.8914 131.263 42.584 132.06 42.584C133.673 42.584 134.451 43.473 134.451 45.322V51.5642H133.22ZM133.22 49.7861V48.008C132.932 47.171 132.404 46.8826 131.862 46.8826C130.957 46.8826 130.542 47.8094 130.542 48.8782C130.542 49.9469 130.957 50.8738 131.862 50.8738C132.404 50.8738 132.932 50.5995 133.22 49.7861Z" fill="#4D4D4D"/>
<path d="M139.996 51.5642V50.3867C139.614 51.2757 138.944 51.7864 138.35 51.7864C136.705 51.7864 135.979 49.8807 135.979 47.1946C135.979 44.5465 136.705 42.584 138.35 42.584C138.949 42.584 139.633 43.019 139.996 44.0168V39.4629H141.226V51.5689H139.996V51.5642ZM139.996 49.2233V45.1565C139.798 44.3951 139.218 43.6858 138.657 43.6858C137.553 43.6858 137.261 45.3362 137.261 47.1899C137.261 49.0247 137.549 50.6751 138.657 50.6751C139.218 50.6751 139.798 49.9847 139.996 49.2233Z" fill="#4D4D4D"/>
<path d="M142.82 40.6549C142.82 40.182 143.216 39.8037 143.669 39.8037C144.141 39.8037 144.537 40.1868 144.537 40.6549C144.537 41.1278 144.141 41.5061 143.669 41.5061C143.216 41.5108 142.82 41.1278 142.82 40.6549ZM143.056 51.5645V42.7971H144.287V51.5645H143.056Z" fill="#4D4D4D"/>
<path d="M145.753 47.1709C145.753 44.7591 146.512 42.5791 148.521 42.5791C150.529 42.5791 151.288 44.7591 151.288 47.1709C151.288 49.5826 150.529 51.7815 148.521 51.7815C146.512 51.7815 145.753 49.5826 145.753 47.1709ZM150.006 47.1709C150.006 45.4306 149.718 43.6857 148.521 43.6857C147.342 43.6857 147.035 45.4259 147.035 47.1709C147.035 48.93 147.342 50.675 148.521 50.675C149.718 50.675 150.006 48.93 150.006 47.1709Z" fill="#4D4D4D"/>
<path d="M152.83 51.564V39.458H154.061V51.564H152.83Z" fill="#4D4D4D"/>
<path d="M156.382 53.8293L155.75 53.3233C156.33 52.9261 156.816 52.2168 156.872 51.6351C156.853 51.6351 156.745 51.673 156.674 51.673C156.184 51.673 155.84 51.2899 155.84 50.7839C155.84 50.2921 156.222 49.876 156.745 49.876C157.306 49.876 157.796 50.3489 157.796 51.1812C157.792 52.2688 157.16 53.2666 156.382 53.8293Z" fill="#4D4D4D"/>
<path d="M166.476 51.5642V50.6373C166.08 51.4554 165.372 51.7817 164.774 51.7817C163.416 51.7817 162.529 50.5995 162.529 48.8592C162.529 47.1332 163.416 45.9746 164.774 45.9746C165.372 45.9746 166.075 46.2631 166.476 47.0623V45.5585C166.476 44.3431 166.132 43.6527 165.118 43.6527C164.538 43.6527 163.977 43.9081 163.397 44.5796L162.873 43.6905C163.6 42.8914 164.519 42.584 165.316 42.584C166.928 42.584 167.706 43.473 167.706 45.322V51.5642H166.476ZM166.476 49.7861V48.008C166.188 47.171 165.66 46.8826 165.118 46.8826C164.213 46.8826 163.798 47.8094 163.798 48.8782C163.798 49.9469 164.213 50.8738 165.118 50.8738C165.66 50.8738 166.188 50.5995 166.476 49.7861Z" fill="#4D4D4D"/>
<path d="M173.105 51.564V44.8301C173.105 44.0498 172.817 43.6857 172.275 43.6857C171.606 43.6857 171.026 44.395 170.757 45.1185V51.5593H169.526V42.7966H170.757V44.0309C171.139 43.2506 171.917 42.5791 172.709 42.5791C173.869 42.5791 174.336 43.2506 174.336 44.4848V51.564H173.105Z" fill="#4D4D4D"/>
<path d="M179.904 51.5642V50.3867C179.522 51.2757 178.853 51.7864 178.258 51.7864C176.613 51.7864 175.887 49.8807 175.887 47.1946C175.887 44.5465 176.613 42.584 178.258 42.584C178.857 42.584 179.541 43.019 179.904 44.0168V39.4629H181.135V51.5689H179.904V51.5642ZM179.904 49.2233V45.1565C179.706 44.3951 179.126 43.6858 178.565 43.6858C177.462 43.6858 177.169 45.3362 177.169 47.1899C177.169 49.0247 177.457 50.6751 178.565 50.6751C179.121 50.6751 179.701 49.9847 179.904 49.2233Z" fill="#4D4D4D"/>
<path d="M55.4206 68.4411V61.7119C55.4206 60.9316 55.1329 60.5675 54.5907 60.5675C53.9212 60.5675 53.3412 61.2768 53.0724 62.0004V68.4411H51.8418V59.6785H53.0724V60.9127C53.4544 60.1324 54.2324 59.4609 55.0245 59.4609C56.1844 59.4609 56.6512 60.1324 56.6512 61.3667V68.4459H55.4206V68.4411Z" fill="#4D4D4D"/>
<path d="M58.1787 64.0527C58.1787 61.641 58.9378 59.4609 60.9465 59.4609C62.9551 59.4609 63.7142 61.641 63.7142 64.0527C63.7142 66.4644 62.9551 68.6634 60.9465 68.6634C58.9378 68.6634 58.1787 66.4644 58.1787 64.0527ZM62.4317 64.0527C62.4317 62.3125 62.1441 60.5675 60.9465 60.5675C59.7677 60.5675 59.4612 62.3077 59.4612 64.0527C59.4612 65.8119 59.7677 67.5568 60.9465 67.5568C62.1394 67.5521 62.4317 65.8119 62.4317 64.0527Z" fill="#4D4D4D"/>
<path d="M65.2432 68.4412V59.6786H66.4738V61.0736C66.8887 60.1278 67.5771 59.4941 68.5202 59.4941V60.7662C68.4117 60.7473 68.2655 60.7284 68.1759 60.7284C67.4357 60.7284 66.818 61.4377 66.4738 62.1991V68.4412H65.2432Z" fill="#4D4D4D"/>
<path d="M69.2637 64.0527C69.2637 61.5133 70.1124 59.4609 72.0314 59.4609C74.0024 59.4609 74.7285 61.5322 74.7285 64.0338V64.4688H70.4943C70.5132 66.3368 71.1261 67.6278 72.3756 67.6278C72.899 67.6278 73.4413 67.2447 73.8232 66.559L74.5493 67.2305C74.0071 68.1196 73.2102 68.6634 72.2861 68.6634C70.2208 68.6634 69.2637 66.7009 69.2637 64.0527ZM71.9937 60.4966C70.7819 60.4966 70.4896 62.2936 70.4896 63.5467H73.4931C73.4978 62.1659 73.2055 60.4966 71.9937 60.4966Z" fill="#4D4D4D"/>
<path d="M76.403 66.7722V60.7665H75.5166V59.6788H76.403V57.2812H77.6525V59.6788H78.8313V60.7665H77.6525V66.5925C77.6525 67.245 77.7799 67.5524 78.1948 67.5524C78.4305 67.5524 78.6286 67.4437 78.7747 67.245L79.1708 68.1719C78.8832 68.4604 78.5013 68.6637 77.959 68.6637C76.8557 68.6637 76.403 68.0442 76.403 66.7722Z" fill="#4D4D4D"/>
<path d="M83.8961 68.4418V61.6889C83.8961 60.9086 83.6085 60.5634 83.0663 60.5634C82.3967 60.5634 81.8168 61.2728 81.548 61.9963V68.437H80.3174V56.3311H81.548V60.9039C81.9299 60.1236 82.7079 59.4521 83.5001 59.4521C84.66 59.4521 85.1268 60.0669 85.1268 61.3579V68.437H83.8961V68.4418Z" fill="#4D4D4D"/>
<path d="M86.7197 57.5367C86.7197 57.0639 87.1158 56.6855 87.5684 56.6855C88.04 56.6855 88.436 57.0686 88.436 57.5367C88.436 58.0096 88.04 58.388 87.5684 58.388C87.1158 58.388 86.7197 58.0096 86.7197 57.5367ZM86.9555 68.4416V59.6789H88.1861V68.4463H86.9555V68.4416Z" fill="#4D4D4D"/>
<path d="M93.5856 68.4411V61.7119C93.5856 60.9316 93.298 60.5675 92.7557 60.5675C92.0862 60.5675 91.5062 61.2768 91.2375 62.0004V68.4411H90.0068V59.6785H91.2375V60.9127C91.6194 60.1324 92.3974 59.4609 93.1895 59.4609C94.3494 59.4609 94.8162 60.1324 94.8162 61.3667V68.4459H93.5856V68.4411Z" fill="#4D4D4D"/>
<path d="M100.384 68.4421V67.2646C100.003 68.1536 99.333 68.6643 98.7389 68.6643C97.0933 68.6643 96.3672 66.7586 96.3672 64.0726C96.3672 61.4244 97.0933 59.4619 98.7389 59.4619C99.3377 59.4619 100.021 59.897 100.384 60.8947V56.3408H101.615V68.4468H100.384V68.4421ZM100.384 66.1013V62.0344C100.186 61.2731 99.6064 60.5637 99.0454 60.5637C97.942 60.5637 97.6497 62.2141 97.6497 64.0678C97.6497 65.9026 97.9373 67.553 99.0454 67.553C99.6064 67.553 100.186 66.8673 100.384 66.1013Z" fill="#4D4D4D"/>
<path d="M103.435 68.4412V59.6786H104.665V61.0736C105.08 60.1278 105.769 59.4941 106.712 59.4941V60.7662C106.603 60.7473 106.457 60.7284 106.367 60.7284C105.627 60.7284 105.009 61.4377 104.665 62.1991V68.4412H103.435Z" fill="#4D4D4D"/>
<path d="M107.462 64.0527C107.462 61.641 108.221 59.4609 110.23 59.4609C112.238 59.4609 112.997 61.641 112.997 64.0527C112.997 66.4644 112.238 68.6634 110.23 68.6634C108.221 68.6634 107.462 66.4644 107.462 64.0527ZM111.715 64.0527C111.715 62.3125 111.427 60.5675 110.23 60.5675C109.051 60.5675 108.744 62.3077 108.744 64.0527C108.744 65.8119 109.051 67.5568 110.23 67.5568C111.423 67.5521 111.715 65.8119 111.715 64.0527Z" fill="#4D4D4D"/>
<path d="M118.109 68.4411V61.7119C118.109 60.9316 117.821 60.5675 117.279 60.5675C116.61 60.5675 116.03 61.2768 115.761 62.0004V68.4411H114.53V59.6785H115.761V60.9127C116.143 60.1324 116.921 59.4609 117.713 59.4609C118.873 59.4609 119.34 60.1324 119.34 61.3667V68.4459H118.109V68.4411Z" fill="#4D4D4D"/>
<path d="M120.867 64.0527C120.867 61.5133 121.716 59.4609 123.635 59.4609C125.606 59.4609 126.332 61.5322 126.332 64.0338V64.4688H122.098C122.117 66.3368 122.73 67.6278 123.979 67.6278C124.503 67.6278 125.045 67.2447 125.427 66.559L126.153 67.2305C125.611 68.1196 124.814 68.6634 123.89 68.6634C121.829 68.6634 120.867 66.7009 120.867 64.0527ZM123.602 60.4966C122.39 60.4966 122.098 62.2936 122.098 63.5467H125.101C125.101 62.1659 124.814 60.4966 123.602 60.4966Z" fill="#4D4D4D"/>
<path d="M134.565 68.4411V67.5143C134.169 68.3324 133.461 68.6587 132.863 68.6587C131.505 68.6587 130.618 67.4764 130.618 65.7362C130.618 64.0101 131.505 62.8516 132.863 62.8516C133.461 62.8516 134.164 63.14 134.565 63.9392V62.4354C134.565 61.2201 134.221 60.5297 133.207 60.5297C132.627 60.5297 132.066 60.785 131.486 61.4565L130.962 60.5675C131.688 59.7683 132.608 59.4609 133.405 59.4609C135.017 59.4609 135.795 60.35 135.795 62.199V68.4411H134.565ZM134.565 66.6631V64.885C134.277 64.048 133.749 63.7595 133.207 63.7595C132.301 63.7595 131.887 64.6864 131.887 65.7551C131.887 66.8238 132.301 67.7507 133.207 67.7507C133.754 67.7554 134.277 67.4812 134.565 66.6631Z" fill="#4D4D4D"/>
<path d="M137.3 64.0527C137.3 61.4565 138.276 59.4609 140.157 59.4609C140.992 59.4609 141.534 59.8061 141.949 60.2601L141.44 61.2059C141.077 60.7519 140.732 60.5722 140.317 60.5722C139.049 60.5722 138.582 62.2605 138.582 64.0574C138.582 65.8544 139.054 67.5615 140.317 67.5615C140.732 67.5615 141.077 67.4008 141.44 66.9279L141.949 67.8737C141.534 68.3797 140.992 68.6728 140.157 68.6728C138.276 68.6634 137.3 66.6489 137.3 64.0527Z" fill="#4D4D4D"/>
<path d="M142.641 64.0527C142.641 61.5133 143.489 59.4609 145.408 59.4609C147.379 59.4609 148.105 61.5322 148.105 64.0338V64.4688H143.871C143.89 66.3368 144.503 67.6278 145.753 67.6278C146.276 67.6278 146.818 67.2447 147.2 66.559L147.926 67.2305C147.384 68.1196 146.587 68.6634 145.663 68.6634C143.598 68.6634 142.641 66.7009 142.641 64.0527ZM145.371 60.4966C144.159 60.4966 143.867 62.2936 143.867 63.5467H146.87C146.875 62.1659 146.582 60.4966 145.371 60.4966Z" fill="#4D4D4D"/>
<path d="M149.784 66.7722V60.7665H148.897V59.6788H149.784V57.2812H151.033V59.6788H152.212V60.7665H151.033V66.5925C151.033 67.245 151.161 67.5524 151.576 67.5524C151.811 67.5524 152.009 67.4437 152.156 67.245L152.552 68.1719C152.264 68.4604 151.882 68.6637 151.34 68.6637C150.232 68.6637 149.784 68.0442 149.784 66.7722Z" fill="#4D4D4D"/>
<path d="M157.172 68.4411V67.5143C156.776 68.3324 156.069 68.6587 155.47 68.6587C154.112 68.6587 153.226 67.4764 153.226 65.7362C153.226 64.0101 154.112 62.8516 155.47 62.8516C156.069 62.8516 156.771 63.14 157.172 63.9392V62.4354C157.172 61.2201 156.828 60.5297 155.814 60.5297C155.234 60.5297 154.673 60.785 154.093 61.4565L153.57 60.5675C154.296 59.7683 155.215 59.4609 156.012 59.4609C157.625 59.4609 158.403 60.35 158.403 62.199V68.4411H157.172ZM157.172 66.6631V64.885C156.884 64.048 156.356 63.7595 155.814 63.7595C154.909 63.7595 154.494 64.6864 154.494 65.7551C154.494 66.8238 154.909 67.7507 155.814 67.7507C156.356 67.7554 156.88 67.4812 157.172 66.6631Z" fill="#4D4D4D"/>
<path d="M160.465 66.7722V60.7665H159.578V59.6788H160.465V57.2812H161.714V59.6788H162.893V60.7665H161.714V66.5925C161.714 67.245 161.841 67.5524 162.256 67.5524C162.492 67.5524 162.69 67.4437 162.836 67.245L163.232 68.1719C162.945 68.4604 162.563 68.6637 162.021 68.6637C160.917 68.6637 160.465 68.0442 160.465 66.7722Z" fill="#4D4D4D"/>
<path d="M163.755 64.0527C163.755 61.5133 164.604 59.4609 166.523 59.4609C168.494 59.4609 169.22 61.5322 169.22 64.0338V64.4688H164.986C165.004 66.3368 165.617 67.6278 166.867 67.6278C167.39 67.6278 167.932 67.2447 168.314 66.559L169.041 67.2305C168.498 68.1196 167.701 68.6634 166.777 68.6634C164.712 68.6634 163.755 66.7009 163.755 64.0527ZM166.485 60.4966C165.273 60.4966 164.981 62.2936 164.981 63.5467H167.984C167.989 62.1659 167.697 60.4966 166.485 60.4966Z" fill="#4D4D4D"/>
<path d="M169.767 71.6758C170.507 69.387 170.978 67.084 170.978 64.0339C170.978 60.9648 170.507 58.6808 169.767 56.3778L170.615 56.0137C171.756 58.4822 172.351 61.1114 172.351 64.0339C172.351 66.9564 171.752 69.5856 170.615 72.0541L169.767 71.6758Z" fill="#4D4D4D"/>
<path d="M177.565 66.7722V60.7665H176.679V59.6788H177.565V57.2812H178.815V59.6788H179.993V60.7665H178.815V66.5925C178.815 67.245 178.942 67.5524 179.357 67.5524C179.593 67.5524 179.791 67.4437 179.937 67.245L180.333 68.1719C180.045 68.4604 179.663 68.6637 179.121 68.6637C178.018 68.6637 177.565 68.0442 177.565 66.7722Z" fill="#4D4D4D"/>
<path d="M184.953 68.4411V67.5143C184.557 68.3324 183.85 68.6587 183.251 68.6587C181.893 68.6587 181.007 67.4764 181.007 65.7362C181.007 64.0101 181.893 62.8516 183.251 62.8516C183.85 62.8516 184.553 63.14 184.953 63.9392V62.4354C184.953 61.2201 184.609 60.5297 183.595 60.5297C183.015 60.5297 182.454 60.785 181.874 61.4565L181.351 60.5675C182.077 59.7683 182.997 59.4609 183.793 59.4609C185.406 59.4609 186.184 60.35 186.184 62.199V68.4411H184.953ZM184.953 66.6631V64.885C184.666 64.048 184.138 63.7595 183.595 63.7595C182.69 63.7595 182.275 64.6864 182.275 65.7551C182.275 66.8238 182.69 67.7507 183.595 67.7507C184.138 67.7554 184.661 67.4812 184.953 66.6631Z" fill="#4D4D4D"/>
<path d="M188 68.4419V56.3359H189.231V60.8899C189.594 59.8921 190.282 59.457 190.876 59.457C192.522 59.457 193.267 61.4148 193.267 64.0677C193.267 66.7537 192.526 68.6595 190.876 68.6595C190.277 68.6595 189.608 68.1487 189.231 67.2597V68.4372H188V68.4419ZM190.57 67.5529C191.673 67.5529 191.965 65.9214 191.965 64.0677C191.965 62.2187 191.678 60.5636 190.57 60.5636C190.009 60.5636 189.448 61.2729 189.231 62.0532V66.1011C189.448 66.8672 190.009 67.5529 190.57 67.5529Z" fill="#4D4D4D"/>
<path d="M194.818 68.4419V56.3359H196.049V68.4419H194.818Z" fill="#4D4D4D"/>
<path d="M197.567 64.0527C197.567 61.5133 198.416 59.4609 200.335 59.4609C202.306 59.4609 203.032 61.5322 203.032 64.0338V64.4688H198.798C198.817 66.3368 199.43 67.6278 200.679 67.6278C201.203 67.6278 201.745 67.2447 202.127 66.559L202.853 67.2305C202.311 68.1196 201.514 68.6634 200.59 68.6634C198.529 68.6634 197.567 66.7009 197.567 64.0527ZM200.302 60.4966C199.09 60.4966 198.798 62.2936 198.798 63.5467H201.802C201.802 62.1659 201.514 60.4966 200.302 60.4966Z" fill="#4D4D4D"/>
<path d="M204.711 66.7722V60.7665H203.824V59.6788H204.711V57.2812H205.96V59.6788H207.139V60.7665H205.96V66.5925C205.96 67.245 206.087 67.5524 206.502 67.5524C206.738 67.5524 206.936 67.4437 207.082 67.245L207.478 68.1719C207.191 68.4604 206.809 68.6637 206.267 68.6637C205.163 68.6637 204.711 68.0442 204.711 66.7722Z" fill="#4D4D4D"/>
<path d="M208.256 67.5521L208.855 66.7009C209.288 67.2825 209.85 67.6467 210.538 67.6467C211.245 67.6467 211.82 67.1549 211.82 66.3415C211.82 64.3648 208.529 64.4878 208.529 61.641C208.529 60.4067 209.454 59.4609 210.844 59.4609C211.66 59.4609 212.382 59.8061 212.924 60.4398L212.344 61.2768C211.981 60.7519 211.439 60.4777 210.859 60.4777C210.151 60.4777 209.699 60.9836 209.699 61.6031C209.699 63.4521 212.99 63.419 212.99 66.3226C212.99 67.7365 211.938 68.6634 210.618 68.6634C209.595 68.6634 208.817 68.2993 208.256 67.5521Z" fill="#4D4D4D"/>
<path d="M54.1243 84.0562V81.5026H51.0312V80.4812L53.9027 74.2012H55.2277V80.5095H56.0104V81.4979H55.2277V84.0515H54.1243V84.0562ZM54.1243 75.6104L51.9743 80.5143H54.1243V75.6104Z" fill="#4D4D4D"/>
<path d="M56.8076 79.1374C56.8076 76.8061 57.3074 74.0586 59.2217 74.0586C61.1219 74.0586 61.6217 76.8061 61.6217 79.1374C61.6217 81.4546 61.1361 84.2352 59.2217 84.2352C57.3121 84.2352 56.8076 81.4593 56.8076 79.1374ZM60.476 79.1374C60.476 77.2175 60.3722 75.0611 59.2265 75.0611C58.076 75.0611 57.9581 77.2175 57.9581 79.1374C57.9581 81.0432 58.0477 83.2279 59.2265 83.2279C60.3722 83.2279 60.476 81.0432 60.476 79.1374Z" fill="#4D4D4D"/>
<path d="M71.1077 84.0568V78.576C71.1077 77.9234 70.8719 77.6444 70.4287 77.6444C69.9006 77.6444 69.4291 78.2355 69.2075 78.8125V84.0568H68.2079V78.576C68.2079 77.9424 67.9721 77.6444 67.5289 77.6444C66.982 77.6444 66.5104 78.2355 66.2936 78.8125V84.0568H65.2939V76.9209H66.2936V77.9234C66.5859 77.3181 67.2366 76.7412 67.8825 76.7412C68.6322 76.7412 69.1179 77.1715 69.1792 77.9518C69.4715 77.3181 70.1222 76.7412 70.8012 76.7412C71.598 76.7412 72.112 77.1715 72.112 78.2923V84.0521H71.1077V84.0568Z" fill="#4D4D4D"/>
<path d="M73.4471 86.2125L73.862 85.385C74.2156 85.768 74.7296 86.0517 75.2483 86.0517C76.031 86.0517 76.5449 85.5363 76.5449 84.3399V82.9827C76.2337 83.7062 75.6915 84.1507 75.2058 84.1507C73.8667 84.1507 73.2773 82.6422 73.2773 80.4575C73.2773 78.3011 73.8667 76.75 75.2058 76.75C75.6915 76.75 76.2526 77.1047 76.5449 77.918V76.9297H77.5445V84.3446C77.5445 86.2787 76.5591 86.9597 75.3331 86.9597C74.6259 86.955 73.961 86.7469 73.4471 86.2125ZM76.5402 82.0322V78.8402C76.3799 78.2207 75.9084 77.6438 75.451 77.6438C74.5504 77.6438 74.3147 78.9442 74.3147 80.448C74.3147 81.9376 74.5504 83.238 75.451 83.238C75.9084 83.2475 76.3752 82.6706 76.5402 82.0322Z" fill="#4D4D4D"/>
<path d="M79.3743 85.9049L78.8604 85.4888C79.3319 85.1625 79.7279 84.5856 79.7751 84.1174C79.7609 84.1174 79.6714 84.1458 79.6148 84.1458C79.2187 84.1458 78.9358 83.8337 78.9358 83.4223C78.9358 83.025 79.247 82.6846 79.6714 82.6846C80.1287 82.6846 80.5248 83.0676 80.5248 83.7486C80.5201 84.6329 80.0061 85.4462 79.3743 85.9049Z" fill="#4D4D4D"/>
<path d="M85.8664 84.0562V75.6813L84.3953 77.2466L83.7305 76.5514L85.9843 74.2012H86.9698V84.0515H85.8664V84.0562Z" fill="#4D4D4D"/>
<path d="M96.7629 84.0568V78.576C96.7629 77.9234 96.5272 77.6444 96.084 77.6444C95.5559 77.6444 95.0844 78.2355 94.8628 78.8125V84.0568H93.8632V78.576C93.8632 77.9424 93.6274 77.6444 93.1842 77.6444C92.6372 77.6444 92.1657 78.2355 91.9488 78.8125V84.0568H90.9492V76.9209H91.9488V77.9234C92.2412 77.3181 92.8918 76.7412 93.5378 76.7412C94.2875 76.7412 94.7732 77.1715 94.8345 77.9518C95.1268 77.3181 95.7775 76.7412 96.4565 76.7412C97.2533 76.7412 97.7673 77.1715 97.7673 78.2923V84.0521H96.7629V84.0568Z" fill="#4D4D4D"/>
<path d="M99.1024 86.2125L99.5173 85.385C99.8709 85.768 100.385 86.0517 100.904 86.0517C101.686 86.0517 102.2 85.5363 102.2 84.3399V82.9827C101.889 83.7062 101.347 84.1507 100.861 84.1507C99.522 84.1507 98.9326 82.6422 98.9326 80.4575C98.9326 78.3011 99.522 76.75 100.861 76.75C101.347 76.75 101.908 77.1047 102.2 77.918V76.9297H103.2V84.3446C103.2 86.2787 102.214 86.9597 100.988 86.9597C100.281 86.955 99.6163 86.7469 99.1024 86.2125ZM102.195 82.0322V78.8402C102.035 78.2207 101.564 77.6438 101.106 77.6438C100.206 77.6438 99.9699 78.9442 99.9699 80.448C99.9699 81.9376 100.206 83.238 101.106 83.238C101.559 83.2475 102.03 82.6706 102.195 82.0322Z" fill="#4D4D4D"/>
<path d="M105.024 85.9049L104.51 85.4888C104.981 85.1625 105.377 84.5856 105.424 84.1174C105.41 84.1174 105.321 84.1458 105.264 84.1458C104.868 84.1458 104.585 83.8337 104.585 83.4223C104.585 83.025 104.896 82.6846 105.321 82.6846C105.778 82.6846 106.174 83.0676 106.174 83.7486C106.174 84.6329 105.66 85.4462 105.024 85.9049Z" fill="#4D4D4D"/>
<path d="M109.884 79.1374C109.884 76.8061 110.384 74.0586 112.298 74.0586C114.198 74.0586 114.698 76.8061 114.698 79.1374C114.698 81.4546 114.212 84.2352 112.298 84.2352C110.384 84.2352 109.884 81.4593 109.884 79.1374ZM113.552 79.1374C113.552 77.2175 113.448 75.0611 112.303 75.0611C111.157 75.0611 111.034 77.2175 111.034 79.1374C111.034 81.0432 111.124 83.2279 112.303 83.2279C113.448 83.2279 113.552 81.0432 113.552 79.1374Z" fill="#4D4D4D"/>
<path d="M115.628 83.4365C115.628 83.0203 115.967 82.6846 116.378 82.6846C116.807 82.6846 117.141 83.0251 117.141 83.4365C117.141 83.8479 116.802 84.2025 116.378 84.2025C115.967 84.2073 115.628 83.8526 115.628 83.4365Z" fill="#4D4D4D"/>
<path d="M118.207 82.5801L119.018 81.989C119.329 82.7882 119.739 83.228 120.461 83.228C121.272 83.228 121.715 82.1498 121.715 81.0432C121.715 79.5536 121.3 78.8443 120.579 78.8443C120.065 78.8443 119.725 79.0665 119.296 79.7759L118.443 79.4827V74.21H122.465V75.1983H119.565V78.6835C119.843 78.1964 120.329 77.856 120.904 77.856C122.083 77.856 122.861 78.9625 122.861 81.029C122.861 82.7409 121.979 84.2352 120.503 84.2352C119.296 84.2352 118.679 83.5827 118.207 82.5801Z" fill="#4D4D4D"/>
<path d="M132.3 84.0568V78.576C132.3 77.9234 132.064 77.6444 131.621 77.6444C131.093 77.6444 130.621 78.2355 130.4 78.8125V84.0568H129.4V78.576C129.4 77.9424 129.164 77.6444 128.721 77.6444C128.174 77.6444 127.703 78.2355 127.486 78.8125V84.0568H126.486V76.9209H127.486V77.9234C127.778 77.3181 128.429 76.7412 129.075 76.7412C129.825 76.7412 130.31 77.1715 130.372 77.9518C130.664 77.3181 131.315 76.7412 131.994 76.7412C132.79 76.7412 133.304 77.1715 133.304 78.2923V84.0521H132.3V84.0568Z" fill="#4D4D4D"/>
<path d="M134.639 86.2125L135.054 85.385C135.408 85.768 135.922 86.0517 136.441 86.0517C137.223 86.0517 137.737 85.5363 137.737 84.3399V82.9827C137.426 83.7062 136.884 84.1507 136.398 84.1507C135.059 84.1507 134.47 82.6422 134.47 80.4575C134.47 78.3011 135.059 76.75 136.398 76.75C136.884 76.75 137.445 77.1047 137.737 77.918V76.9297H138.737V84.3446C138.737 86.2787 137.751 86.9597 136.526 86.9597C135.818 86.955 135.158 86.7469 134.639 86.2125ZM137.733 82.0322V78.8402C137.572 78.2207 137.101 77.6438 136.643 77.6438C135.743 77.6438 135.507 78.9442 135.507 80.448C135.507 81.9376 135.743 83.238 136.643 83.238C137.101 83.2475 137.572 82.6706 137.733 82.0322Z" fill="#4D4D4D"/>
<path d="M23.8678 13.9598C23.6415 14.0922 23.4152 14.2294 23.1983 14.3618C22.8117 14.6029 22.3354 14.6029 21.9488 14.3618C21.7272 14.2246 21.5009 14.0922 21.2745 13.9551C19.8317 15.0995 16.5217 17.9652 13.9473 21.9327C14.5178 22.3347 15.0789 22.713 15.6258 23.0677C18.073 19.2987 21.2698 16.5323 22.5665 15.492C23.849 16.5229 26.9987 19.242 29.4364 22.9494C29.9833 22.5901 30.5444 22.2117 31.1149 21.8098C28.5546 17.9084 25.2965 15.0947 23.8678 13.9598Z" fill="url(#paint0_linear)"/>
<path d="M32.6377 32.4405C32.6377 39.0515 27.6444 44.9201 24.6692 47.8331C23.514 48.9633 21.6374 48.9633 20.4822 47.8331C17.507 44.9248 12.5137 39.0515 12.5137 32.4405C12.5137 32.0669 12.5325 31.6981 12.5655 31.3292C11.9856 30.6152 11.4198 29.868 10.8775 29.083C10.6465 30.1659 10.5098 31.2867 10.5098 32.4405C10.5098 39.7892 15.8803 46.1354 19.0818 49.266C20.0437 50.207 21.3073 50.6799 22.571 50.6799C23.8346 50.6799 25.0983 50.207 26.0602 49.266C29.2617 46.1354 34.6322 39.7845 34.6322 32.4405C34.6322 31.2867 34.4955 30.1707 34.2644 29.083C33.7222 29.868 33.1564 30.6152 32.5764 31.3292C32.6189 31.6981 32.6377 32.0669 32.6377 32.4405Z" fill="url(#paint1_linear)"/>
<path d="M30.0586 23.9424C31.0299 25.5786 31.8268 27.385 32.27 29.3002C32.7839 28.6146 33.2837 27.9005 33.7505 27.1628C33.2366 25.6117 32.534 24.1505 31.7325 22.8027C31.1619 23.2047 30.6055 23.583 30.0586 23.9424Z" fill="url(#paint2_linear)"/>
<path d="M13.3391 22.9307C12.5658 24.2406 11.8963 25.6592 11.3965 27.163C11.868 27.9007 12.3631 28.6148 12.877 29.3005C13.3061 27.4326 14.0794 25.6734 15.013 24.0703C14.4707 23.7109 13.9096 23.3279 13.3391 22.9307Z" fill="url(#paint3_linear)"/>
<path d="M23.8674 13.9594C27.5923 11.7746 32.5385 9.90672 35.1412 11.3585C36.5322 12.1388 37.2394 13.879 37.2394 16.5366C37.2394 16.6218 37.2347 16.7069 37.2347 16.792C37.7345 16.3049 38.2202 15.8037 38.687 15.2882C38.4654 12.7251 37.5223 10.9613 35.8721 10.0391C33.175 8.53061 29.2379 9.68446 26.2155 11.0464C24.9755 12.1766 24.0042 13.1082 23.4619 13.6378C23.5751 13.7277 23.7118 13.8364 23.8674 13.9594Z" fill="url(#paint4_linear)"/>
<path d="M8.07216 18.7739C7.50635 18.2632 6.9594 17.7383 6.42188 17.1992C6.59633 21.5735 8.49652 25.645 10.8729 29.083C11.0097 28.4304 11.1888 27.7872 11.3916 27.163C9.78374 24.6236 8.51066 21.7815 8.07216 18.7739Z" fill="url(#paint5_linear)"/>
<path d="M10.005 11.3643C10.6463 11.0049 11.429 10.8488 12.3013 10.8488C14.9701 10.8488 18.4639 12.3148 21.2741 13.9604C21.4297 13.8375 21.5618 13.7334 21.6702 13.6483C20.9016 12.8964 19.9445 11.9979 18.8647 11.0238C15.8518 9.67605 11.9524 8.55057 9.27421 10.0449C7.57205 10.9954 6.62432 12.8539 6.44043 15.5541C6.91666 16.0648 7.40703 16.5661 7.91626 17.0531C7.91154 16.8829 7.90211 16.7127 7.90211 16.5424C7.90683 13.8848 8.61409 12.1398 10.005 11.3643Z" fill="url(#paint6_linear)"/>
<path d="M26.1542 35.8304C24.1125 37.6274 21.0336 37.6274 18.9919 35.8304C17.2144 34.2651 14.9181 32.0142 12.8765 29.2998C12.7256 29.9619 12.6171 30.6428 12.5605 31.3285C14.4324 33.6409 16.4128 35.5656 18.0018 36.9606C19.3031 38.105 20.9393 38.6819 22.5707 38.6819C24.2021 38.6819 25.8383 38.1097 27.1396 36.9606C28.7286 35.5656 30.709 33.6409 32.5809 31.3285C32.5243 30.6381 32.4158 29.9619 32.265 29.2998C30.228 32.0142 27.9318 34.2651 26.1542 35.8304Z" fill="url(#paint7_linear)"/>
<path d="M37.1071 18.5043C36.7064 21.6111 35.4097 24.5478 33.75 27.1629C33.9575 27.7871 34.1319 28.4302 34.2734 29.0828C36.7016 25.574 38.6254 21.4031 38.7339 16.9248C38.2058 17.4686 37.6635 17.9935 37.1071 18.5043Z" fill="url(#paint8_linear)"/>
<path d="M23.1983 14.3663C23.4152 14.2291 23.6416 14.0967 23.8679 13.9643C23.7076 13.8366 23.5756 13.7326 23.4671 13.6522C23.1701 13.9454 22.9909 14.1204 22.9862 14.1298L22.5759 14.546L22.161 14.1251C22.0101 13.9738 21.8451 13.813 21.6754 13.6475C21.5669 13.7326 21.4349 13.8319 21.2793 13.9596C21.5103 14.092 21.7367 14.2291 21.9536 14.3663C22.3355 14.6027 22.8117 14.6027 23.1983 14.3663Z" fill="url(#paint9_linear)"/>
<path d="M23.1983 14.3663C23.4152 14.2291 23.6416 14.0967 23.8679 13.9643C23.7076 13.8366 23.5756 13.7326 23.4671 13.6522C23.1701 13.9454 22.9909 14.1204 22.9862 14.1298L22.5759 14.546L22.161 14.1251C22.0101 13.9738 21.8451 13.813 21.6754 13.6475C21.5669 13.7326 21.4349 13.8319 21.2793 13.9596C21.5103 14.092 21.7367 14.2291 21.9536 14.3663C22.3355 14.6027 22.8117 14.6027 23.1983 14.3663Z" fill="#5C068C"/>
<path d="M32.2705 29.3005C32.4214 29.9626 32.5298 30.6436 32.5864 31.3292C33.1664 30.6152 33.7322 29.868 34.2744 29.083C34.1377 28.4304 33.9585 27.7873 33.751 27.1631C33.2843 27.9008 32.7845 28.6149 32.2705 29.3005Z" fill="url(#paint10_linear)"/>
<path d="M32.2705 29.3005C32.4214 29.9626 32.5298 30.6436 32.5864 31.3292C33.1664 30.6152 33.7322 29.868 34.2744 29.083C34.1377 28.4304 33.9585 27.7873 33.751 27.1631C33.2843 27.9008 32.7845 28.6149 32.2705 29.3005Z" fill="url(#paint11_linear)"/>
<path d="M12.8762 29.3005C12.3622 28.6149 11.8624 27.9008 11.3956 27.1631C11.1881 27.7873 11.0137 28.4304 10.877 29.083C11.4192 29.868 11.985 30.6152 12.565 31.3292C12.6168 30.6388 12.7253 29.9626 12.8762 29.3005Z" fill="url(#paint12_linear)"/>
<path d="M12.8762 29.3005C12.3622 28.6149 11.8624 27.9008 11.3956 27.1631C11.1881 27.7873 11.0137 28.4304 10.877 29.083C11.4192 29.868 11.985 30.6152 12.565 31.3292C12.6168 30.6388 12.7253 29.9626 12.8762 29.3005Z" fill="url(#paint13_linear)"/>
<path d="M6.44555 15.5582C3.41845 12.2999 1.16935 8.54519 1.16935 4.57291C1.16935 2.79485 1.61728 1.7072 2.50372 1.33835C2.79134 1.22012 3.11668 1.16338 3.47503 1.16338C7.07737 1.16338 14.1312 6.7624 18.8651 11.0231C20.4447 11.7325 21.7838 12.4986 22.5712 12.9809C23.3492 12.5033 24.66 11.7514 26.216 11.0515C27.5786 9.80781 29.2619 8.33239 31.0442 6.90899C38.4139 1.02151 41.3137 0.889099 42.3888 1.33362C43.2705 1.69774 43.7184 2.79012 43.7184 4.57764C43.7184 8.44116 41.5872 12.1013 38.6874 15.2981C38.7204 15.6953 38.744 16.1067 38.744 16.5418C38.744 16.6694 38.7393 16.7971 38.7346 16.9248C42.2049 13.345 44.8878 9.11739 44.8878 4.57291C44.8878 2.26521 44.1994 0.813437 42.8367 0.250698C40.4744 -0.728185 36.377 1.15392 30.3134 5.99631C26.8006 8.80528 23.6604 11.8176 22.5712 12.8863C21.4679 11.8176 18.2852 8.79582 14.7205 5.98213C8.66164 1.20594 4.39919 -0.723456 2.05578 0.255427C0.69312 0.827624 0 2.2794 0 4.57291C0 9.23088 2.81963 13.5626 6.42197 17.1991C6.41254 16.9816 6.40311 16.7593 6.40311 16.5418C6.40782 16.2013 6.42197 15.875 6.44555 15.5582Z" fill="url(#paint14_linear)"/>
<path d="M13.9476 21.9378C11.9531 20.5428 9.84075 18.8972 7.91699 17.0576C7.93585 17.6345 7.98772 18.2115 8.06788 18.7789C9.78889 20.33 11.6042 21.725 13.3299 22.9356C13.5374 22.5904 13.7401 22.2594 13.9476 21.9378Z" fill="url(#paint15_linear)"/>
<path d="M25.2635 25.5028C23.5 26.4959 21.3877 26.4959 19.6242 25.5028C18.5303 24.8833 17.1441 24.0652 15.6305 23.0722C15.4184 23.3985 15.2156 23.7295 15.0176 24.0652C16.5453 25.0678 17.9457 25.8953 19.0537 26.5195C20.1146 27.1201 21.2792 27.418 22.4439 27.418C23.6085 27.418 24.7731 27.1201 25.834 26.5195C26.9892 25.867 28.4556 24.9968 30.0588 23.9376C29.8607 23.6018 29.6485 23.2708 29.4364 22.9492C27.8568 23.9943 26.4046 24.8597 25.2635 25.5028Z" fill="url(#paint16_linear)"/>
<path d="M31.1201 21.8103C31.3323 22.1319 31.535 22.4629 31.7378 22.7987C33.5107 21.5502 35.3684 20.1079 37.113 18.5001C37.1837 17.9374 37.2262 17.3699 37.2403 16.793C35.3024 18.6893 33.1523 20.3775 31.1201 21.8103Z" fill="url(#paint17_linear)"/>
<path d="M30.0579 23.9425C30.6049 23.5831 31.1613 23.2047 31.7318 22.8028C31.529 22.467 31.3263 22.136 31.1141 21.8145C30.5436 22.2164 29.9825 22.5947 29.4355 22.9541C29.6524 23.2757 29.8599 23.6067 30.0579 23.9425Z" fill="url(#paint18_linear)"/>
<path d="M30.0579 23.9425C30.6049 23.5831 31.1613 23.2047 31.7318 22.8028C31.529 22.467 31.3263 22.136 31.1141 21.8145C30.5436 22.2164 29.9825 22.5947 29.4355 22.9541C29.6524 23.2757 29.8599 23.6067 30.0579 23.9425Z" fill="url(#paint19_linear)"/>
<path d="M13.9469 21.9375C13.7348 22.2591 13.532 22.5948 13.334 22.9306C13.9045 23.3325 14.4656 23.7108 15.0126 24.0655C15.2106 23.725 15.4133 23.394 15.6255 23.0724C15.0833 22.713 14.5222 22.3347 13.9469 21.9375Z" fill="url(#paint20_linear)"/>
<path d="M13.9469 21.9375C13.7348 22.2591 13.532 22.5948 13.334 22.9306C13.9045 23.3325 14.4656 23.7108 15.0126 24.0655C15.2106 23.725 15.4133 23.394 15.6255 23.0724C15.0833 22.713 14.5222 22.3347 13.9469 21.9375Z" fill="url(#paint21_linear)"/>
<path d="M21.9868 13.4106L22.5715 12.9897L23.1561 13.4106C23.1939 13.4389 23.307 13.5193 23.4673 13.6423C24.0096 13.1126 24.9809 12.181 26.221 11.0508C24.665 11.7507 23.3542 12.5026 22.5762 12.9802C21.7888 12.4979 20.4497 11.7318 18.8701 11.0225C19.9499 11.9966 20.907 12.8951 21.6756 13.647C21.8359 13.524 21.9491 13.4389 21.9868 13.4106Z" fill="url(#paint22_linear)"/>
<path d="M21.9868 13.4106L22.5715 12.9897L23.1561 13.4106C23.1939 13.4389 23.307 13.5193 23.4673 13.6423C24.0096 13.1126 24.9809 12.181 26.221 11.0508C24.665 11.7507 23.3542 12.5026 22.5762 12.9802C21.7888 12.4979 20.4497 11.7318 18.8701 11.0225C19.9499 11.9966 20.907 12.8951 21.6756 13.647C21.8359 13.524 21.9491 13.4389 21.9868 13.4106Z" fill="#5C068C"/>
<path d="M38.687 15.2979C38.2202 15.8133 37.7345 16.3098 37.2347 16.8016C37.2253 17.3738 37.1829 17.946 37.1074 18.5088C37.6638 17.9981 38.206 17.4731 38.7294 16.9293C38.7341 16.8016 38.7389 16.674 38.7389 16.5463C38.7436 16.1065 38.72 15.6951 38.687 15.2979Z" fill="url(#paint23_linear)"/>
<path d="M38.687 15.2979C38.2202 15.8133 37.7345 16.3098 37.2347 16.8016C37.2253 17.3738 37.1829 17.946 37.1074 18.5088C37.6638 17.9981 38.206 17.4731 38.7294 16.9293C38.7341 16.8016 38.7389 16.674 38.7389 16.5463C38.7436 16.1065 38.72 15.6951 38.687 15.2979Z" fill="url(#paint24_linear)"/>
<path d="M7.92175 17.0518C7.41252 16.5647 6.92215 16.0682 6.44592 15.5527C6.42235 15.8696 6.4082 16.1959 6.4082 16.5363C6.4082 16.7586 6.41763 16.9761 6.42706 17.1937C6.96459 17.7328 7.51625 18.2624 8.07735 18.7684C7.99248 18.2057 7.94061 17.6335 7.92175 17.0518Z" fill="url(#paint25_linear)"/>
<path d="M7.92175 17.0518C7.41252 16.5647 6.92215 16.0682 6.44592 15.5527C6.42235 15.8696 6.4082 16.1959 6.4082 16.5363C6.4082 16.7586 6.41763 16.9761 6.42706 17.1937C6.96459 17.7328 7.51625 18.2624 8.07735 18.7684C7.99248 18.2057 7.94061 17.6335 7.92175 17.0518Z" fill="url(#paint26_linear)"/>
<path d="M22.5705 14.5366L22.9807 14.1204C22.9902 14.111 23.1646 13.936 23.4617 13.6428C23.2966 13.5199 23.1882 13.4348 23.1505 13.4111L22.5658 12.9902L21.9811 13.4111C21.9434 13.4395 21.8302 13.5199 21.6699 13.6428C21.8397 13.8083 22.0047 13.9691 22.1556 14.1204L22.5705 14.5366Z" fill="url(#paint27_linear)"/>
<path d="M22.5705 14.5366L22.9807 14.1204C22.9902 14.111 23.1646 13.936 23.4617 13.6428C23.2966 13.5199 23.1882 13.4348 23.1505 13.4111L22.5658 12.9902L21.9811 13.4111C21.9434 13.4395 21.8302 13.5199 21.6699 13.6428C21.8397 13.8083 22.0047 13.9691 22.1556 14.1204L22.5705 14.5366Z" fill="url(#paint28_linear)"/>
<path d="M22.5705 14.5366L22.9807 14.1204C22.9902 14.111 23.1646 13.936 23.4617 13.6428C23.2966 13.5199 23.1882 13.4348 23.1505 13.4111L22.5658 12.9902L21.9811 13.4111C21.9434 13.4395 21.8302 13.5199 21.6699 13.6428C21.8397 13.8083 22.0047 13.9691 22.1556 14.1204L22.5705 14.5366Z" fill="#5C068C"/>
<path d="M86.3772 17.856C86.3772 18.0026 86.3442 18.1444 86.2782 18.291L78.4653 35.5137C78.3191 35.8826 78.0881 36.0717 77.7675 36.0717C77.6071 36.0717 77.461 36.0386 77.3337 35.9771C76.9612 35.8305 76.7773 35.5894 76.7773 35.2489C76.7773 35.1023 76.8103 34.9604 76.8716 34.8138L79.2622 29.5175V29.4938L73.8822 18.3194C73.8162 18.1917 73.7832 18.0451 73.7832 17.8844C73.7832 17.5439 73.9624 17.3027 74.316 17.1608C74.4433 17.0946 74.5895 17.0615 74.7498 17.0615C75.0893 17.0615 75.3298 17.2318 75.4712 17.5722L80.1769 27.5124L84.6657 17.5959C84.826 17.2412 85.0664 17.0615 85.3871 17.0615C85.5332 17.0615 85.6747 17.0946 85.8209 17.1608C86.1933 17.298 86.3772 17.5344 86.3772 17.856Z" fill="#5C068C"/>
<path d="M93.5292 14.1769C92.9917 14.8862 92.7229 15.832 92.7229 17.0095V17.5675H95.618C95.8726 17.5675 96.0801 17.6432 96.2309 17.7992C96.3818 17.9505 96.462 18.1492 96.462 18.3903C96.462 18.6173 96.3865 18.8065 96.2309 18.9578C96.0801 19.1091 95.8726 19.1895 95.618 19.1895H92.7229V29.3756C92.7229 29.664 92.638 29.8957 92.4683 30.066C92.2986 30.2362 92.0628 30.3213 91.7563 30.3213C91.497 30.3213 91.2848 30.2362 91.1151 30.066C90.9453 29.8957 90.8604 29.6688 90.8604 29.3756V19.1848H89.3186C89.0593 19.1848 88.8565 19.1091 88.7057 18.9531C88.5548 18.797 88.4746 18.6126 88.4746 18.3856C88.4746 18.1444 88.5501 17.9458 88.7057 17.7945C88.8565 17.6432 89.064 17.5628 89.3186 17.5628H90.8604V17.1041C90.8604 15.378 91.3037 14.0019 92.1854 12.9663C93.0718 11.9354 94.3166 11.4199 95.9245 11.4199C96.1979 11.4199 96.4243 11.5003 96.5987 11.6611C96.7779 11.8219 96.8628 12.0252 96.8628 12.2664C96.8628 12.5076 96.7732 12.7109 96.5987 12.8717C96.4195 13.0325 96.1979 13.1129 95.9245 13.1129C94.8683 13.1129 94.0667 13.4675 93.5292 14.1769Z" fill="#5C068C"/>
<path d="M107.993 17.7944C108.907 18.3524 109.619 19.1232 110.129 20.1068C110.638 21.0905 110.888 22.2112 110.888 23.4691C110.888 23.7292 110.808 23.9325 110.647 24.0839C110.487 24.2352 110.275 24.3156 110.02 24.3156H100.274C100.401 25.6397 100.915 26.7084 101.816 27.5312C102.716 28.3541 103.843 28.7655 105.192 28.7655C105.772 28.7655 106.352 28.6662 106.941 28.4628C107.526 28.2595 107.997 28.0088 108.351 27.7015C108.558 27.5407 108.775 27.4603 109.002 27.4603C109.176 27.4603 109.355 27.5265 109.53 27.6542C109.737 27.8481 109.846 28.0656 109.846 28.3068C109.846 28.5148 109.756 28.704 109.582 28.8648C109.049 29.3188 108.375 29.6923 107.554 29.9903C106.734 30.2882 105.946 30.4395 105.192 30.4395C103.905 30.4395 102.754 30.151 101.74 29.5788C100.727 29.0066 99.9345 28.2075 99.364 27.186C98.7935 26.1598 98.5059 25.006 98.5059 23.715C98.5059 22.4098 98.7746 21.2418 99.3121 20.2203C99.8497 19.1989 100.599 18.3997 101.557 17.8275C102.514 17.2553 103.603 16.9669 104.824 16.9669C106.022 16.9621 107.078 17.2364 107.993 17.7944ZM101.792 19.7664C100.986 20.523 100.496 21.5255 100.321 22.7645H109.148C109.021 21.5208 108.568 20.523 107.795 19.7664C107.021 19.0097 106.036 18.6314 104.829 18.6314C103.612 18.6314 102.599 19.0097 101.792 19.7664Z" fill="#5C068C"/>
<path d="M130.892 17.6147C131.623 18.0687 132.194 18.7071 132.604 19.5394C133.014 20.3717 133.217 21.3316 133.217 22.4287V29.3944C133.217 29.6687 133.132 29.8909 132.962 30.0612C132.793 30.2314 132.571 30.3166 132.298 30.3166C132.024 30.3166 131.798 30.2314 131.623 30.0612C131.444 29.8909 131.359 29.6687 131.359 29.3944V22.4287C131.359 21.2843 131.067 20.3764 130.477 19.7096C129.888 19.0381 129.124 18.7071 128.172 18.7071C127.158 18.7071 126.338 19.0476 125.711 19.7238C125.083 20.4 124.777 21.2891 124.796 22.3862V22.4335V29.3991C124.796 29.6734 124.711 29.8957 124.541 30.0659C124.371 30.2362 124.15 30.3213 123.876 30.3213C123.603 30.3213 123.377 30.2362 123.202 30.0659C123.023 29.8957 122.938 29.6734 122.938 29.3991V22.4287C122.938 21.2843 122.646 20.3764 122.056 19.7096C121.467 19.0428 120.703 18.7071 119.755 18.7071C118.756 18.7071 117.94 19.0381 117.294 19.7002C116.648 20.3622 116.327 21.2087 116.327 22.2396V29.3991C116.327 29.6734 116.243 29.8957 116.073 30.0659C115.903 30.2362 115.682 30.3213 115.408 30.3213C115.135 30.3213 114.908 30.2362 114.734 30.0659C114.555 29.8957 114.47 29.6734 114.47 29.3991V18.0261C114.47 17.7518 114.559 17.5249 114.734 17.3499C114.913 17.1702 115.135 17.0851 115.408 17.0851C115.682 17.0851 115.903 17.1749 116.073 17.3499C116.243 17.5296 116.327 17.7518 116.327 18.0261V18.5558C116.775 18.0403 117.313 17.6431 117.931 17.3593C118.548 17.0756 119.223 16.9385 119.944 16.9385C120.83 16.9385 121.623 17.1418 122.33 17.5438C123.037 17.9457 123.598 18.5132 124.018 19.2367C124.485 18.5085 125.093 17.9457 125.838 17.5438C126.588 17.1418 127.427 16.9385 128.36 16.9385C129.322 16.9385 130.162 17.1607 130.892 17.6147Z" fill="#5C068C"/>
<path d="M162.851 17.2031C163.242 17.3828 163.44 17.6287 163.44 17.955C163.44 18.0496 163.431 18.1253 163.417 18.1726C163.351 18.3996 163.252 18.5509 163.115 18.6313C162.978 18.7117 162.79 18.7542 162.549 18.7542C162.403 18.7542 162.153 18.74 161.8 18.7069C161.672 18.6927 161.479 18.6833 161.22 18.6833C160.013 18.6833 159.027 19.0049 158.263 19.6527C157.499 20.2958 157.118 21.1376 157.118 22.1685V29.399C157.118 29.6874 157.037 29.9144 156.877 30.0752C156.717 30.236 156.49 30.3164 156.203 30.3164C155.915 30.3164 155.689 30.236 155.529 30.0752C155.368 29.9144 155.288 29.6874 155.288 29.399V18.0023C155.288 17.7139 155.368 17.4869 155.529 17.3261C155.689 17.1653 155.915 17.0849 156.203 17.0849C156.49 17.0849 156.717 17.1653 156.877 17.3261C157.037 17.4869 157.118 17.7139 157.118 18.0023V19.0663C157.584 18.3901 158.178 17.8652 158.905 17.4916C159.631 17.1228 160.409 16.9336 161.243 16.9336C161.922 16.9383 162.46 17.0234 162.851 17.2031Z" fill="#5C068C"/>
<path d="M174.324 17.7944C175.238 18.3524 175.95 19.1232 176.46 20.1068C176.969 21.0905 177.219 22.2112 177.219 23.4691C177.219 23.7292 177.139 23.9325 176.978 24.0839C176.818 24.2352 176.606 24.3156 176.351 24.3156H166.605C166.732 25.6397 167.246 26.7084 168.147 27.5312C169.047 28.3541 170.174 28.7655 171.523 28.7655C172.103 28.7655 172.683 28.6662 173.272 28.4628C173.857 28.2595 174.328 28.0088 174.682 27.7015C174.89 27.5407 175.106 27.4603 175.333 27.4603C175.507 27.4603 175.686 27.5265 175.861 27.6542C176.068 27.8481 176.177 28.0656 176.177 28.3068C176.177 28.5148 176.087 28.704 175.913 28.8648C175.38 29.3188 174.706 29.6923 173.885 29.9903C173.065 30.2882 172.277 30.4395 171.523 30.4395C170.236 30.4395 169.085 30.151 168.071 29.5788C167.058 29.0066 166.266 28.2075 165.695 27.186C165.125 26.1598 164.837 25.006 164.837 23.715C164.837 22.4098 165.106 21.2418 165.643 20.2203C166.181 19.1989 166.93 18.3997 167.888 17.8275C168.845 17.2553 169.934 16.9669 171.155 16.9669C172.353 16.9621 173.409 17.2364 174.324 17.7944ZM168.123 19.7664C167.317 20.523 166.827 21.5255 166.652 22.7645H175.479C175.352 21.5208 174.899 20.523 174.126 19.7664C173.352 19.0097 172.367 18.6314 171.16 18.6314C169.943 18.6314 168.93 19.0097 168.123 19.7664Z" fill="#5C068C"/>
<path d="M189.11 17.7944C190.025 18.3524 190.737 19.1232 191.246 20.1068C191.755 21.0905 192.005 22.2112 192.005 23.4691C192.005 23.7292 191.925 23.9325 191.764 24.0839C191.604 24.2352 191.392 24.3156 191.137 24.3156H181.391C181.519 25.6397 182.032 26.7084 182.933 27.5312C183.834 28.3541 184.961 28.7655 186.309 28.7655C186.889 28.7655 187.469 28.6662 188.058 28.4628C188.643 28.2595 189.115 28.0088 189.468 27.7015C189.676 27.5407 189.893 27.4603 190.119 27.4603C190.293 27.4603 190.472 27.5265 190.647 27.6542C190.854 27.8481 190.963 28.0656 190.963 28.3068C190.963 28.5148 190.873 28.704 190.699 28.8648C190.166 29.3188 189.492 29.6923 188.671 29.9903C187.851 30.2882 187.063 30.4395 186.309 30.4395C185.022 30.4395 183.871 30.151 182.858 29.5788C181.844 29.0066 181.052 28.2075 180.481 27.186C179.911 26.1598 179.623 25.006 179.623 23.715C179.623 22.4098 179.892 21.2418 180.429 20.2203C180.967 19.1989 181.717 18.3997 182.674 17.8275C183.631 17.2553 184.72 16.9669 185.941 16.9669C187.139 16.9621 188.19 17.2364 189.11 17.7944ZM182.909 19.7664C182.103 20.523 181.613 21.5255 181.438 22.7645H190.265C190.138 21.5208 189.685 20.523 188.912 19.7664C188.139 19.0097 187.153 18.6314 185.946 18.6314C184.725 18.6314 183.716 19.0097 182.909 19.7664Z" fill="#5C068C"/>
<path d="M150.333 20.2631C149.762 19.237 148.98 18.433 147.994 17.8419C147.004 17.2555 145.901 16.9576 144.679 16.9576C143.633 16.9576 142.676 17.1799 141.808 17.6244C140.94 18.0689 140.224 18.6789 139.663 19.4498V12.3659C139.663 12.0916 139.573 11.8646 139.399 11.6896C139.219 11.5099 138.998 11.4248 138.724 11.4248C138.451 11.4248 138.206 11.5147 138.036 11.6896C137.866 11.8693 137.781 12.0916 137.781 12.3659C137.781 12.3659 137.781 17.9034 137.781 18.0027V23.6868V29.3946C137.781 29.6831 137.861 29.9101 138.022 30.0709C138.182 30.2317 138.408 30.312 138.696 30.312C138.984 30.312 139.21 30.2317 139.37 30.0709C139.531 29.9101 139.611 29.6831 139.611 29.3946V28.3968C140.035 28.8461 140.516 29.2339 141.068 29.5507C142.091 30.1418 143.227 30.435 144.481 30.435C145.736 30.435 146.872 30.1418 147.895 29.5507C148.918 28.9596 149.72 28.1509 150.309 27.12C150.899 26.0891 151.191 24.9447 151.191 23.6868C151.191 22.429 150.903 21.2893 150.333 20.2631ZM148.744 26.2641C148.319 27.0302 147.73 27.6355 146.985 28.08C146.235 28.5245 145.406 28.7468 144.491 28.7468C143.576 28.7468 142.746 28.5245 142.006 28.08C141.266 27.6355 140.681 27.0302 140.257 26.2641C139.964 25.7392 139.776 25.167 139.681 24.5759C139.63 24.2449 139.606 23.9091 139.611 23.5734C139.615 23.2423 139.667 22.9208 139.719 22.5945C139.804 22.0601 139.993 21.5352 140.261 21.067C140.521 20.6131 140.86 20.2158 141.247 19.8659C142.138 19.0573 143.222 18.6553 144.491 18.6553C145.406 18.6553 146.24 18.8728 146.985 19.3079C147.73 19.7429 148.319 20.3435 148.744 21.1096C149.168 21.8757 149.385 22.7363 149.385 23.6868C149.38 24.6374 149.168 25.498 148.744 26.2641Z" fill="#5C068C"/>
<path d="M70.19 11.686C70.3691 11.8657 70.454 12.088 70.454 12.3623V29.3674C70.454 29.6275 70.3644 29.8498 70.19 30.0342C70.0155 30.2186 69.7939 30.3132 69.5393 30.3132C69.2658 30.3132 69.0348 30.2186 68.8509 30.0342C68.667 29.8498 68.5727 29.6275 68.5727 29.3674V15.2753C68.3275 15.6063 63.1928 22.5956 62.0847 23.9717C61.9197 24.1798 61.7122 24.4257 61.5142 24.5534C61.2831 24.7 61.0097 24.7284 60.6938 24.577C60.491 24.4777 60.2458 24.1845 60.0855 23.9906C59.416 23.1915 58.9869 22.5531 58.3504 21.7255C57.6054 20.7608 56.8604 19.7914 56.1154 18.8267C55.4741 17.9897 54.8282 17.1574 54.1869 16.3204C53.9559 16.0224 53.7296 15.7245 53.4985 15.4266V29.3721C53.4985 29.6322 53.4089 29.8545 53.2345 30.0389C53.0553 30.2233 52.8337 30.3179 52.5602 30.3179C52.3009 30.3179 52.084 30.2233 51.8954 30.0389C51.7115 29.8545 51.6172 29.6322 51.6172 29.3721V12.367C51.6172 12.0927 51.7115 11.8657 51.8954 11.6908C52.0793 11.5111 52.3009 11.426 52.5602 11.426C52.928 11.426 53.2109 11.5867 53.4042 11.9083L61.1228 22.0944L68.6953 11.9083C68.8886 11.5867 69.1715 11.426 69.5393 11.426C69.7986 11.4212 70.0155 11.5111 70.19 11.686Z" fill="#5C068C"/>
<path d="M195.564 17.2315C195.87 17.4112 196.111 17.6523 196.29 17.9597C196.469 18.2671 196.559 18.6028 196.559 18.967C196.559 19.3358 196.469 19.6763 196.285 19.9837C196.106 20.2911 195.861 20.537 195.554 20.7119C195.248 20.8869 194.918 20.9768 194.56 20.9768C194.197 20.9768 193.857 20.8869 193.551 20.7119C193.244 20.537 193.004 20.2958 192.824 19.9884C192.645 19.681 192.556 19.3406 192.556 18.967C192.556 18.6028 192.645 18.2671 192.824 17.9597C193.004 17.6523 193.244 17.4112 193.551 17.2315C193.857 17.0518 194.192 16.9619 194.564 16.9619C194.927 16.9619 195.262 17.0518 195.564 17.2315ZM195.352 20.3384C195.597 20.1965 195.79 20.0026 195.932 19.7567C196.073 19.5155 196.144 19.2507 196.144 18.9622C196.144 18.6738 196.073 18.409 195.927 18.1678C195.785 17.9219 195.592 17.7327 195.347 17.5861C195.107 17.4443 194.838 17.3686 194.555 17.3686C194.267 17.3686 194.003 17.4395 193.758 17.5861C193.518 17.728 193.324 17.9219 193.178 18.1678C193.037 18.409 192.961 18.6738 192.961 18.9622C192.961 19.2507 193.032 19.5155 193.173 19.7567C193.315 20.0026 193.508 20.1918 193.749 20.3384C193.989 20.4802 194.258 20.5559 194.55 20.5559C194.842 20.5512 195.107 20.4802 195.352 20.3384ZM195.394 19.8182C195.422 19.8655 195.437 19.9128 195.437 19.9506C195.437 19.9979 195.418 20.0357 195.385 20.0688C195.352 20.1019 195.305 20.1161 195.248 20.1161C195.206 20.1161 195.168 20.1066 195.135 20.0925C195.102 20.0735 195.074 20.0546 195.059 20.0262L194.588 19.2318H194.541H194.22V19.9269C194.22 19.9837 194.201 20.031 194.168 20.0688C194.13 20.1066 194.083 20.1208 194.022 20.1208C193.961 20.1208 193.909 20.1019 193.876 20.0688C193.838 20.031 193.819 19.9837 193.819 19.9269V17.9124C193.819 17.8557 193.838 17.8084 193.881 17.7706C193.923 17.7327 193.975 17.7185 194.041 17.7185H194.55C194.795 17.7185 194.998 17.7895 195.158 17.9313C195.319 18.0732 195.399 18.2529 195.399 18.4704C195.399 18.6123 195.361 18.7447 195.29 18.8582C195.22 18.9717 195.121 19.0663 194.998 19.1325L195.394 19.8182ZM194.215 18.8677H194.569C194.692 18.8677 194.791 18.8298 194.861 18.7589C194.937 18.6832 194.97 18.5887 194.97 18.4657C194.97 18.3428 194.932 18.2482 194.861 18.1772C194.786 18.1063 194.692 18.0732 194.569 18.0732H194.215V18.8677Z" fill="#5C068C"/>
</g>
<defs>
<linearGradient id="paint0_linear" x1="22.5333" y1="50.6781" x2="22.5333" y2="12.9942" gradientUnits="userSpaceOnUse">
<stop stop-color="#B8D7C9"/>
<stop offset="0.0963" stop-color="#B8D4C8" stop-opacity="0.9274"/>
<stop offset="0.1596" stop-color="#B7CBC6" stop-opacity="0.8797"/>
<stop offset="0.2134" stop-color="#B5BDC1" stop-opacity="0.8392"/>
<stop offset="0.2619" stop-color="#B3A7BB" stop-opacity="0.8026"/>
<stop offset="0.3068" stop-color="#B18CB3" stop-opacity="0.7688"/>
<stop offset="0.3491" stop-color="#AD6AA9" stop-opacity="0.7369"/>
<stop offset="0.3885" stop-color="#A9439D" stop-opacity="0.7072"/>
<stop offset="0.4247" stop-color="#A51890" stop-opacity="0.68"/>
<stop offset="0.8999" stop-color="#5C068C"/>
</linearGradient>
<linearGradient id="paint1_linear" x1="22.5743" y1="50.6783" x2="22.5743" y2="12.9944" gradientUnits="userSpaceOnUse">
<stop stop-color="#B8D7C9"/>
<stop offset="0.0963" stop-color="#B8D4C8" stop-opacity="0.9274"/>
<stop offset="0.1596" stop-color="#B7CBC6" stop-opacity="0.8797"/>
<stop offset="0.2134" stop-color="#B5BDC1" stop-opacity="0.8392"/>
<stop offset="0.2619" stop-color="#B3A7BB" stop-opacity="0.8026"/>
<stop offset="0.3068" stop-color="#B18CB3" stop-opacity="0.7688"/>
<stop offset="0.3491" stop-color="#AD6AA9" stop-opacity="0.7369"/>
<stop offset="0.3885" stop-color="#A9439D" stop-opacity="0.7072"/>
<stop offset="0.4247" stop-color="#A51890" stop-opacity="0.68"/>
<stop offset="0.8999" stop-color="#5C068C"/>
</linearGradient>
<linearGradient id="paint2_linear" x1="31.906" y1="50.678" x2="31.906" y2="12.9941" gradientUnits="userSpaceOnUse">
<stop stop-color="#B8D7C9"/>
<stop offset="0.0963" stop-color="#B8D4C8" stop-opacity="0.9274"/>
<stop offset="0.1596" stop-color="#B7CBC6" stop-opacity="0.8797"/>
<stop offset="0.2134" stop-color="#B5BDC1" stop-opacity="0.8392"/>
<stop offset="0.2619" stop-color="#B3A7BB" stop-opacity="0.8026"/>
<stop offset="0.3068" stop-color="#B18CB3" stop-opacity="0.7688"/>
<stop offset="0.3491" stop-color="#AD6AA9" stop-opacity="0.7369"/>
<stop offset="0.3885" stop-color="#A9439D" stop-opacity="0.7072"/>
<stop offset="0.4247" stop-color="#A51890" stop-opacity="0.68"/>
<stop offset="0.8999" stop-color="#5C068C"/>
</linearGradient>
<linearGradient id="paint3_linear" x1="13.206" y1="50.6783" x2="13.206" y2="12.9943" gradientUnits="userSpaceOnUse">
<stop stop-color="#B8D7C9"/>
<stop offset="0.0963" stop-color="#B8D4C8" stop-opacity="0.9274"/>
<stop offset="0.1596" stop-color="#B7CBC6" stop-opacity="0.8797"/>
<stop offset="0.2134" stop-color="#B5BDC1" stop-opacity="0.8392"/>
<stop offset="0.2619" stop-color="#B3A7BB" stop-opacity="0.8026"/>
<stop offset="0.3068" stop-color="#B18CB3" stop-opacity="0.7688"/>
<stop offset="0.3491" stop-color="#AD6AA9" stop-opacity="0.7369"/>
<stop offset="0.3885" stop-color="#A9439D" stop-opacity="0.7072"/>
<stop offset="0.4247" stop-color="#A51890" stop-opacity="0.68"/>
<stop offset="0.8999" stop-color="#5C068C"/>
</linearGradient>
<linearGradient id="paint4_linear" x1="31.076" y1="38.6823" x2="31.076" y2="9.33514" gradientUnits="userSpaceOnUse">
<stop offset="0.00127591" stop-color="#B8D7C9"/>
<stop offset="0.3856" stop-color="#A51890" stop-opacity="0.8"/>
<stop offset="0.8178" stop-color="#5C068C"/>
</linearGradient>
<linearGradient id="paint5_linear" x1="8.90961" y1="38.6828" x2="8.90961" y2="9.33567" gradientUnits="userSpaceOnUse">
<stop offset="0.00127591" stop-color="#B8D7C9"/>
<stop offset="0.3856" stop-color="#A51890" stop-opacity="0.8"/>
<stop offset="0.8178" stop-color="#5C068C"/>
</linearGradient>
<linearGradient id="paint6_linear" x1="14.0585" y1="38.6833" x2="14.0585" y2="9.33619" gradientUnits="userSpaceOnUse">
<stop offset="0.00127591" stop-color="#B8D7C9"/>
<stop offset="0.3856" stop-color="#A51890" stop-opacity="0.8"/>
<stop offset="0.8178" stop-color="#5C068C"/>
</linearGradient>
<linearGradient id="paint7_linear" x1="22.5739" y1="38.6821" x2="22.5739" y2="9.335" gradientUnits="userSpaceOnUse">
<stop offset="0.00127591" stop-color="#B8D7C9"/>
<stop offset="0.3856" stop-color="#A51890" stop-opacity="0.8"/>
<stop offset="0.8178" stop-color="#5C068C"/>
</linearGradient>
<linearGradient id="paint8_linear" x1="36.2415" y1="38.6827" x2="36.2415" y2="9.33553" gradientUnits="userSpaceOnUse">
<stop offset="0.00127591" stop-color="#B8D7C9"/>
<stop offset="0.3856" stop-color="#A51890" stop-opacity="0.8"/>
<stop offset="0.8178" stop-color="#5C068C"/>
</linearGradient>
<linearGradient id="paint9_linear" x1="22.5718" y1="50.6779" x2="22.5718" y2="12.994" gradientUnits="userSpaceOnUse">
<stop stop-color="#B8D7C9"/>
<stop offset="0.0963" stop-color="#B8D4C8" stop-opacity="0.9274"/>
<stop offset="0.1596" stop-color="#B7CBC6" stop-opacity="0.8797"/>
<stop offset="0.2134" stop-color="#B5BDC1" stop-opacity="0.8392"/>
<stop offset="0.2619" stop-color="#B3A7BB" stop-opacity="0.8026"/>
<stop offset="0.3068" stop-color="#B18CB3" stop-opacity="0.7688"/>
<stop offset="0.3491" stop-color="#AD6AA9" stop-opacity="0.7369"/>
<stop offset="0.3885" stop-color="#A9439D" stop-opacity="0.7072"/>
<stop offset="0.4247" stop-color="#A51890" stop-opacity="0.68"/>
<stop offset="0.8999" stop-color="#5C068C"/>
</linearGradient>
<linearGradient id="paint10_linear" x1="33.2723" y1="50.6783" x2="33.2723" y2="12.9944" gradientUnits="userSpaceOnUse">
<stop stop-color="#B8D7C9"/>
<stop offset="0.0963" stop-color="#B8D4C8" stop-opacity="0.9274"/>
<stop offset="0.1596" stop-color="#B7CBC6" stop-opacity="0.8797"/>
<stop offset="0.2134" stop-color="#B5BDC1" stop-opacity="0.8392"/>
<stop offset="0.2619" stop-color="#B3A7BB" stop-opacity="0.8026"/>
<stop offset="0.3068" stop-color="#B18CB3" stop-opacity="0.7688"/>
<stop offset="0.3491" stop-color="#AD6AA9" stop-opacity="0.7369"/>
<stop offset="0.3885" stop-color="#A9439D" stop-opacity="0.7072"/>
<stop offset="0.4247" stop-color="#A51890" stop-opacity="0.68"/>
<stop offset="0.8999" stop-color="#5C068C"/>
</linearGradient>
<linearGradient id="paint11_linear" x1="33.2723" y1="38.6829" x2="33.2723" y2="9.33578" gradientUnits="userSpaceOnUse">
<stop offset="0.00127591" stop-color="#B8D7C9"/>
<stop offset="0.3856" stop-color="#A51890" stop-opacity="0.8"/>
<stop offset="0.8178" stop-color="#5C068C"/>
</linearGradient>
<linearGradient id="paint12_linear" x1="11.8759" y1="50.6783" x2="11.8759" y2="12.9944" gradientUnits="userSpaceOnUse">
<stop stop-color="#B8D7C9"/>
<stop offset="0.0963" stop-color="#B8D4C8" stop-opacity="0.9274"/>
<stop offset="0.1596" stop-color="#B7CBC6" stop-opacity="0.8797"/>
<stop offset="0.2134" stop-color="#B5BDC1" stop-opacity="0.8392"/>
<stop offset="0.2619" stop-color="#B3A7BB" stop-opacity="0.8026"/>
<stop offset="0.3068" stop-color="#B18CB3" stop-opacity="0.7688"/>
<stop offset="0.3491" stop-color="#AD6AA9" stop-opacity="0.7369"/>
<stop offset="0.3885" stop-color="#A9439D" stop-opacity="0.7072"/>
<stop offset="0.4247" stop-color="#A51890" stop-opacity="0.68"/>
<stop offset="0.8999" stop-color="#5C068C"/>
</linearGradient>
<linearGradient id="paint13_linear" x1="11.8759" y1="38.6829" x2="11.8759" y2="9.33578" gradientUnits="userSpaceOnUse">
<stop offset="0.00127591" stop-color="#B8D7C9"/>
<stop offset="0.3856" stop-color="#A51890" stop-opacity="0.8"/>
<stop offset="0.8178" stop-color="#5C068C"/>
</linearGradient>
<linearGradient id="paint14_linear" x1="22.4437" y1="27.4194" x2="22.4437" y2="6.53728e-05" gradientUnits="userSpaceOnUse">
<stop stop-color="#B8D7C9"/>
<stop offset="0.0268" stop-color="#B7CCC6" stop-opacity="0.9566"/>
<stop offset="0.0742" stop-color="#B4AEBD" stop-opacity="0.8799"/>
<stop offset="0.1367" stop-color="#AF7DAE" stop-opacity="0.7788"/>
<stop offset="0.211" stop-color="#A83B9A" stop-opacity="0.6586"/>
<stop offset="0.2473" stop-color="#A51890" stop-opacity="0.6"/>
<stop offset="0.3026" stop-color="#92138F" stop-opacity="0.673"/>
<stop offset="0.4023" stop-color="#740C8D" stop-opacity="0.8045"/>
<stop offset="0.4884" stop-color="#62088C" stop-opacity="0.9181"/>
<stop offset="0.5505" stop-color="#5C068C"/>
</linearGradient>
<linearGradient id="paint15_linear" x1="10.9353" y1="27.4198" x2="10.9353" y2="0.000472478" gradientUnits="userSpaceOnUse">
<stop stop-color="#B8D7C9"/>
<stop offset="0.0268" stop-color="#B7CCC6" stop-opacity="0.9566"/>
<stop offset="0.0742" stop-color="#B4AEBD" stop-opacity="0.8799"/>
<stop offset="0.1367" stop-color="#AF7DAE" stop-opacity="0.7788"/>
<stop offset="0.211" stop-color="#A83B9A" stop-opacity="0.6586"/>
<stop offset="0.2473" stop-color="#A51890" stop-opacity="0.6"/>
<stop offset="0.3026" stop-color="#92138F" stop-opacity="0.673"/>
<stop offset="0.4023" stop-color="#740C8D" stop-opacity="0.8045"/>
<stop offset="0.4884" stop-color="#62088C" stop-opacity="0.9181"/>
<stop offset="0.5505" stop-color="#5C068C"/>
</linearGradient>
<linearGradient id="paint16_linear" x1="22.5378" y1="27.4192" x2="22.5378" y2="-0.000181719" gradientUnits="userSpaceOnUse">
<stop stop-color="#B8D7C9"/>
<stop offset="0.0268" stop-color="#B7CCC6" stop-opacity="0.9566"/>
<stop offset="0.0742" stop-color="#B4AEBD" stop-opacity="0.8799"/>
<stop offset="0.1367" stop-color="#AF7DAE" stop-opacity="0.7788"/>
<stop offset="0.211" stop-color="#A83B9A" stop-opacity="0.6586"/>
<stop offset="0.2473" stop-color="#A51890" stop-opacity="0.6"/>
<stop offset="0.3026" stop-color="#92138F" stop-opacity="0.673"/>
<stop offset="0.4023" stop-color="#740C8D" stop-opacity="0.8045"/>
<stop offset="0.4884" stop-color="#62088C" stop-opacity="0.9181"/>
<stop offset="0.5505" stop-color="#5C068C"/>
</linearGradient>
<linearGradient id="paint17_linear" x1="34.1763" y1="27.42" x2="34.1763" y2="0.000651459" gradientUnits="userSpaceOnUse">
<stop stop-color="#B8D7C9"/>
<stop offset="0.0268" stop-color="#B7CCC6" stop-opacity="0.9566"/>
<stop offset="0.0742" stop-color="#B4AEBD" stop-opacity="0.8799"/>
<stop offset="0.1367" stop-color="#AF7DAE" stop-opacity="0.7788"/>
<stop offset="0.211" stop-color="#A83B9A" stop-opacity="0.6586"/>
<stop offset="0.2473" stop-color="#A51890" stop-opacity="0.6"/>
<stop offset="0.3026" stop-color="#92138F" stop-opacity="0.673"/>
<stop offset="0.4023" stop-color="#740C8D" stop-opacity="0.8045"/>
<stop offset="0.4884" stop-color="#62088C" stop-opacity="0.9181"/>
<stop offset="0.5505" stop-color="#5C068C"/>
</linearGradient>
<linearGradient id="paint18_linear" x1="30.5862" y1="50.678" x2="30.5862" y2="12.9942" gradientUnits="userSpaceOnUse">
<stop stop-color="#B8D7C9"/>
<stop offset="0.0963" stop-color="#B8D4C8" stop-opacity="0.9274"/>
<stop offset="0.1596" stop-color="#B7CBC6" stop-opacity="0.8797"/>
<stop offset="0.2134" stop-color="#B5BDC1" stop-opacity="0.8392"/>
<stop offset="0.2619" stop-color="#B3A7BB" stop-opacity="0.8026"/>
<stop offset="0.3068" stop-color="#B18CB3" stop-opacity="0.7688"/>
<stop offset="0.3491" stop-color="#AD6AA9" stop-opacity="0.7369"/>
<stop offset="0.3885" stop-color="#A9439D" stop-opacity="0.7072"/>
<stop offset="0.4247" stop-color="#A51890" stop-opacity="0.68"/>
<stop offset="0.8999" stop-color="#5C068C"/>
</linearGradient>
<linearGradient id="paint19_linear" x1="30.5862" y1="27.4194" x2="30.5862" y2="5.11378e-05" gradientUnits="userSpaceOnUse">
<stop stop-color="#B8D7C9"/>
<stop offset="0.0268" stop-color="#B7CCC6" stop-opacity="0.9566"/>
<stop offset="0.0742" stop-color="#B4AEBD" stop-opacity="0.8799"/>
<stop offset="0.1367" stop-color="#AF7DAE" stop-opacity="0.7788"/>
<stop offset="0.211" stop-color="#A83B9A" stop-opacity="0.6586"/>
<stop offset="0.2473" stop-color="#A51890" stop-opacity="0.6"/>
<stop offset="0.3026" stop-color="#92138F" stop-opacity="0.673"/>
<stop offset="0.4023" stop-color="#740C8D" stop-opacity="0.8045"/>
<stop offset="0.4884" stop-color="#62088C" stop-opacity="0.9181"/>
<stop offset="0.5505" stop-color="#5C068C"/>
</linearGradient>
<linearGradient id="paint20_linear" x1="14.4825" y1="50.6782" x2="14.4825" y2="12.9942" gradientUnits="userSpaceOnUse">
<stop stop-color="#B8D7C9"/>
<stop offset="0.0963" stop-color="#B8D4C8" stop-opacity="0.9274"/>
<stop offset="0.1596" stop-color="#B7CBC6" stop-opacity="0.8797"/>
<stop offset="0.2134" stop-color="#B5BDC1" stop-opacity="0.8392"/>
<stop offset="0.2619" stop-color="#B3A7BB" stop-opacity="0.8026"/>
<stop offset="0.3068" stop-color="#B18CB3" stop-opacity="0.7688"/>
<stop offset="0.3491" stop-color="#AD6AA9" stop-opacity="0.7369"/>
<stop offset="0.3885" stop-color="#A9439D" stop-opacity="0.7072"/>
<stop offset="0.4247" stop-color="#A51890" stop-opacity="0.68"/>
<stop offset="0.8999" stop-color="#5C068C"/>
</linearGradient>
<linearGradient id="paint21_linear" x1="14.4825" y1="27.4195" x2="14.4825" y2="9.73837e-05" gradientUnits="userSpaceOnUse">
<stop stop-color="#B8D7C9"/>
<stop offset="0.0268" stop-color="#B7CCC6" stop-opacity="0.9566"/>
<stop offset="0.0742" stop-color="#B4AEBD" stop-opacity="0.8799"/>
<stop offset="0.1367" stop-color="#AF7DAE" stop-opacity="0.7788"/>
<stop offset="0.211" stop-color="#A83B9A" stop-opacity="0.6586"/>
<stop offset="0.2473" stop-color="#A51890" stop-opacity="0.6"/>
<stop offset="0.3026" stop-color="#92138F" stop-opacity="0.673"/>
<stop offset="0.4023" stop-color="#740C8D" stop-opacity="0.8045"/>
<stop offset="0.4884" stop-color="#62088C" stop-opacity="0.9181"/>
<stop offset="0.5505" stop-color="#5C068C"/>
</linearGradient>
<linearGradient id="paint22_linear" x1="22.543" y1="38.682" x2="22.543" y2="9.33486" gradientUnits="userSpaceOnUse">
<stop offset="0.00127591" stop-color="#B8D7C9"/>
<stop offset="0.3856" stop-color="#A51890" stop-opacity="0.8"/>
<stop offset="0.8178" stop-color="#5C068C"/>
</linearGradient>
<linearGradient id="paint23_linear" x1="37.9252" y1="38.6825" x2="37.9252" y2="9.33532" gradientUnits="userSpaceOnUse">
<stop offset="0.00127591" stop-color="#B8D7C9"/>
<stop offset="0.3856" stop-color="#A51890" stop-opacity="0.8"/>
<stop offset="0.8178" stop-color="#5C068C"/>
</linearGradient>
<linearGradient id="paint24_linear" x1="37.9252" y1="27.4192" x2="37.9252" y2="-0.000144631" gradientUnits="userSpaceOnUse">
<stop stop-color="#B8D7C9"/>
<stop offset="0.0268" stop-color="#B7CCC6" stop-opacity="0.9566"/>
<stop offset="0.0742" stop-color="#B4AEBD" stop-opacity="0.8799"/>
<stop offset="0.1367" stop-color="#AF7DAE" stop-opacity="0.7788"/>
<stop offset="0.211" stop-color="#A83B9A" stop-opacity="0.6586"/>
<stop offset="0.2473" stop-color="#A51890" stop-opacity="0.6"/>
<stop offset="0.3026" stop-color="#92138F" stop-opacity="0.673"/>
<stop offset="0.4023" stop-color="#740C8D" stop-opacity="0.8045"/>
<stop offset="0.4884" stop-color="#62088C" stop-opacity="0.9181"/>
<stop offset="0.5505" stop-color="#5C068C"/>
</linearGradient>
<linearGradient id="paint25_linear" x1="7.24042" y1="38.682" x2="7.24042" y2="9.33483" gradientUnits="userSpaceOnUse">
<stop offset="0.00127591" stop-color="#B8D7C9"/>
<stop offset="0.3856" stop-color="#A51890" stop-opacity="0.8"/>
<stop offset="0.8178" stop-color="#5C068C"/>
</linearGradient>
<linearGradient id="paint26_linear" x1="7.24042" y1="27.4187" x2="7.24042" y2="-0.000645327" gradientUnits="userSpaceOnUse">
<stop stop-color="#B8D7C9"/>
<stop offset="0.0268" stop-color="#B7CCC6" stop-opacity="0.9566"/>
<stop offset="0.0742" stop-color="#B4AEBD" stop-opacity="0.8799"/>
<stop offset="0.1367" stop-color="#AF7DAE" stop-opacity="0.7788"/>
<stop offset="0.211" stop-color="#A83B9A" stop-opacity="0.6586"/>
<stop offset="0.2473" stop-color="#A51890" stop-opacity="0.6"/>
<stop offset="0.3026" stop-color="#92138F" stop-opacity="0.673"/>
<stop offset="0.4023" stop-color="#740C8D" stop-opacity="0.8045"/>
<stop offset="0.4884" stop-color="#62088C" stop-opacity="0.9181"/>
<stop offset="0.5505" stop-color="#5C068C"/>
</linearGradient>
<linearGradient id="paint27_linear" x1="22.5688" y1="50.678" x2="22.5688" y2="12.9941" gradientUnits="userSpaceOnUse">
<stop stop-color="#B8D7C9"/>
<stop offset="0.0963" stop-color="#B8D4C8" stop-opacity="0.9274"/>
<stop offset="0.1596" stop-color="#B7CBC6" stop-opacity="0.8797"/>
<stop offset="0.2134" stop-color="#B5BDC1" stop-opacity="0.8392"/>
<stop offset="0.2619" stop-color="#B3A7BB" stop-opacity="0.8026"/>
<stop offset="0.3068" stop-color="#B18CB3" stop-opacity="0.7688"/>
<stop offset="0.3491" stop-color="#AD6AA9" stop-opacity="0.7369"/>
<stop offset="0.3885" stop-color="#A9439D" stop-opacity="0.7072"/>
<stop offset="0.4247" stop-color="#A51890" stop-opacity="0.68"/>
<stop offset="0.8999" stop-color="#5C068C"/>
</linearGradient>
<linearGradient id="paint28_linear" x1="22.5688" y1="38.6826" x2="22.5688" y2="9.3354" gradientUnits="userSpaceOnUse">
<stop offset="0.00127591" stop-color="#B8D7C9"/>
<stop offset="0.3856" stop-color="#A51890" stop-opacity="0.8"/>
<stop offset="0.8178" stop-color="#5C068C"/>
</linearGradient>
<clipPath id="clip0">
<rect width="213" height="86.9551" fill="white"/>
</clipPath>
</defs>
</svg>
