<svg width="267" height="114" viewBox="0 0 267 114" fill="none" xmlns="http://www.w3.org/2000/svg">
<g clip-path="url(#clip0)">
<path d="M32.4244 18.8426C32.117 19.0213 31.8095 19.2064 31.5148 19.3851C30.9896 19.7106 30.3426 19.7106 29.8174 19.3851C29.5163 19.2 29.2089 19.0213 28.9014 18.8362C26.9413 20.3809 22.4447 24.2489 18.9473 29.6043C19.7223 30.1468 20.4846 30.6575 21.2276 31.1362C24.5521 26.0489 28.895 22.3149 30.6565 20.9106C32.3988 22.3021 36.6777 25.9723 39.9893 30.9766C40.7323 30.4915 41.4946 29.9809 42.2696 29.4383C38.7915 24.1723 34.3653 20.3745 32.4244 18.8426Z" fill="url(#paint0_linear)"/>
<path d="M44.3383 43.7873C44.3383 52.7107 37.5549 60.632 33.513 64.5639C31.9437 66.0894 29.3943 66.0894 27.825 64.5639C23.7831 60.6384 16.9997 52.7107 16.9997 43.7873C16.9997 43.283 17.0253 42.7852 17.0701 42.2873C16.2823 41.3235 15.5136 40.3149 14.777 39.2554C14.4631 40.7171 14.2773 42.2298 14.2773 43.7873C14.2773 53.7064 21.5732 62.2724 25.9225 66.4979C27.2292 67.7681 28.9459 68.4064 30.6626 68.4064C32.3793 68.4064 34.0959 67.7681 35.4026 66.4979C39.752 62.2724 47.0478 53.7001 47.0478 43.7873C47.0478 42.2298 46.8621 40.7235 46.5482 39.2554C45.8116 40.3149 45.0429 41.3235 44.255 42.2873C44.3127 42.7852 44.3383 43.283 44.3383 43.7873Z" fill="url(#paint1_linear)"/>
<path d="M40.835 32.3171C42.1545 34.5256 43.237 36.9639 43.8391 39.549C44.5373 38.6235 45.2163 37.6597 45.8505 36.6639C45.1523 34.5703 44.1978 32.598 43.1089 30.7788C42.3338 31.3214 41.578 31.832 40.835 32.3171Z" fill="url(#paint2_linear)"/>
<path d="M18.1215 30.951C17.071 32.7191 16.1614 34.634 15.4824 36.6638C16.123 37.6596 16.7955 38.6234 17.4937 39.5489C18.0766 37.0276 19.1271 34.6532 20.3954 32.4893C19.6588 32.0042 18.8965 31.4872 18.1215 30.951Z" fill="url(#paint3_linear)"/>
<path d="M32.4249 18.8426C37.4852 15.8937 44.2046 13.3724 47.7404 15.332C49.63 16.3851 50.5909 18.7341 50.5909 22.3213C50.5909 22.4362 50.5845 22.5511 50.5845 22.666C51.2634 22.0086 51.9232 21.332 52.5574 20.6362C52.2563 17.1766 50.9752 14.7958 48.7333 13.5511C45.0693 11.5149 39.7207 13.0724 35.6148 14.9107C33.9302 16.4362 32.6107 17.6937 31.874 18.4086C32.0278 18.5298 32.2135 18.6766 32.4249 18.8426Z" fill="url(#paint4_linear)"/>
<path d="M10.9665 25.3405C10.1979 24.6511 9.45484 23.9426 8.72461 23.215C8.96161 29.1192 11.543 34.615 14.7714 39.2554C14.9572 38.3745 15.2006 37.5065 15.476 36.6639C13.2917 33.2362 11.5622 29.4001 10.9665 25.3405Z" fill="url(#paint5_linear)"/>
<path d="M13.5926 15.3382C14.4637 14.8531 15.527 14.6425 16.712 14.6425C20.3375 14.6425 25.084 16.6212 28.9017 18.8425C29.1131 18.6765 29.2924 18.5361 29.4397 18.4212C28.3956 17.4063 27.0953 16.1936 25.6285 14.8787C21.5354 13.0595 16.238 11.5404 12.5997 13.5574C10.2873 14.8404 8.99981 17.3489 8.75 20.9936C9.39695 21.6829 10.0631 22.3595 10.7549 23.017C10.7485 22.7872 10.7357 22.5574 10.7357 22.3276C10.7421 18.7404 11.7029 16.385 13.5926 15.3382Z" fill="url(#paint6_linear)"/>
<path d="M35.5315 48.3638C32.7579 50.7894 28.5751 50.7894 25.8015 48.3638C23.3867 46.2511 20.2672 43.2128 17.4936 39.549C17.2886 40.4426 17.1413 41.3617 17.0645 42.2872C19.6074 45.4085 22.2977 48.0064 24.4564 49.8894C26.2243 51.4341 28.447 52.2128 30.6633 52.2128C32.8796 52.2128 35.1023 51.4404 36.8702 49.8894C39.0289 48.0064 41.7192 45.4085 44.2622 42.2872C44.1853 41.3553 44.038 40.4426 43.833 39.549C41.0658 43.2128 37.9463 46.2511 35.5315 48.3638Z" fill="url(#paint7_linear)"/>
<path d="M50.4113 24.9765C49.8668 29.1701 48.1053 33.134 45.8506 36.6638C46.1324 37.5063 46.3694 38.3744 46.5616 39.2552C49.8604 34.5191 52.4739 28.8893 52.6212 22.8446C51.9038 23.5786 51.1671 24.2872 50.4113 24.9765Z" fill="url(#paint8_linear)"/>
<path d="M31.5152 19.3915C31.8099 19.2064 32.1174 19.0276 32.4248 18.8489C32.207 18.6766 32.0277 18.5362 31.8804 18.4276C31.4768 18.8234 31.2334 19.0596 31.227 19.0723L30.6697 19.634L30.106 19.0659C29.9011 18.8617 29.6769 18.6447 29.4463 18.4213C29.2989 18.5362 29.1196 18.6702 28.9082 18.8425C29.2221 19.0213 29.5295 19.2064 29.8242 19.3915C30.343 19.7106 30.99 19.7106 31.5152 19.3915Z" fill="url(#paint9_linear)"/>
<path d="M31.5152 19.3915C31.8099 19.2064 32.1174 19.0276 32.4248 18.8489C32.207 18.6766 32.0277 18.5362 31.8804 18.4276C31.4768 18.8234 31.2334 19.0596 31.227 19.0723L30.6697 19.634L30.106 19.0659C29.9011 18.8617 29.6769 18.6447 29.4463 18.4213C29.2989 18.5362 29.1196 18.6702 28.9082 18.8425C29.2221 19.0213 29.5295 19.2064 29.8242 19.3915C30.343 19.7106 30.99 19.7106 31.5152 19.3915Z" fill="#602D91"/>
<path d="M43.8389 39.5489C44.0438 40.4425 44.1912 41.3617 44.268 42.2872C45.0559 41.3234 45.8246 40.3149 46.5612 39.2553C46.3755 38.3745 46.132 37.5064 45.8502 36.6638C45.2161 37.6596 44.5371 38.6234 43.8389 39.5489Z" fill="url(#paint10_linear)"/>
<path d="M43.8389 39.5489C44.0438 40.4425 44.1912 41.3617 44.268 42.2872C45.0559 41.3234 45.8246 40.3149 46.5612 39.2553C46.3755 38.3745 46.132 37.5064 45.8502 36.6638C45.2161 37.6596 44.5371 38.6234 43.8389 39.5489Z" fill="url(#paint11_linear)"/>
<path d="M17.4933 39.5489C16.7951 38.6234 16.1161 37.6596 15.4819 36.6638C15.2001 37.5064 14.9631 38.3745 14.7773 39.2553C15.514 40.3149 16.2826 41.3234 17.0705 42.2872C17.141 41.3553 17.2883 40.4425 17.4933 39.5489Z" fill="url(#paint12_linear)"/>
<path d="M17.4933 39.5489C16.7951 38.6234 16.1161 37.6596 15.4819 36.6638C15.2001 37.5064 14.9631 38.3745 14.7773 39.2553C15.514 40.3149 16.2826 41.3234 17.0705 42.2872C17.141 41.3553 17.2883 40.4425 17.4933 39.5489Z" fill="url(#paint13_linear)"/>
<path d="M8.7563 21C4.64398 16.6021 1.58856 11.534 1.58856 6.17231C1.58856 3.77231 2.19708 2.30422 3.40131 1.80635C3.79205 1.64678 4.23403 1.57018 4.72085 1.57018C9.61464 1.57018 19.1973 9.12763 25.6284 14.8787C27.7742 15.8361 29.5934 16.8702 30.6631 17.5212C31.72 16.8766 33.5007 15.8617 35.6145 14.917C37.4657 13.2383 39.7525 11.2468 42.1737 9.3255C52.1855 1.37869 56.1249 1.19997 57.5854 1.79997C58.7832 2.29146 59.3917 3.76592 59.3917 6.17869C59.3917 11.3936 56.4964 16.334 52.557 20.6489C52.6019 21.1851 52.6339 21.7404 52.6339 22.3276C52.6339 22.5 52.6275 22.6723 52.6211 22.8446C57.3355 18.0127 60.9803 12.3063 60.9803 6.17231C60.9803 3.05741 60.0451 1.09784 58.1939 0.338265C54.9847 -0.983012 49.4184 1.55741 41.1809 8.09358C36.4088 11.8851 32.1427 15.951 30.6631 17.3936C29.1642 15.951 24.8405 11.8723 19.9979 8.07443C11.7669 1.62763 5.97632 -0.976629 2.79279 0.344648C0.941607 1.11699 0 3.07656 0 6.17231C0 12.4595 3.83048 18.3063 8.72428 23.2149C8.71147 22.9212 8.69865 22.6212 8.69865 22.3276C8.70506 21.868 8.72428 21.4276 8.7563 21Z" fill="url(#paint14_linear)"/>
<path d="M18.9475 29.6106C16.238 27.7276 13.3683 25.5063 10.7549 23.0233C10.7805 23.802 10.851 24.5808 10.9599 25.3467C13.2979 27.4403 15.764 29.3233 18.1084 30.9574C18.3902 30.4914 18.6657 30.0446 18.9475 29.6106Z" fill="url(#paint15_linear)"/>
<path d="M34.3205 34.4234C31.9248 35.7638 29.0552 35.7638 26.6595 34.4234C25.1735 33.5872 23.2902 32.4829 21.2341 31.1425C20.9458 31.5829 20.6704 32.0298 20.4014 32.4829C22.4767 33.8361 24.3792 34.9532 25.8845 35.7957C27.3257 36.6064 28.9079 37.0085 30.49 37.0085C32.0722 37.0085 33.6543 36.6064 35.0956 35.7957C36.6649 34.9149 38.657 33.7404 40.8349 32.3106C40.5658 31.8574 40.2776 31.4106 39.9894 30.9766C37.8435 32.3872 35.8706 33.5553 34.3205 34.4234Z" fill="url(#paint16_linear)"/>
<path d="M42.2764 29.4384C42.5646 29.8724 42.84 30.3192 43.1155 30.7724C45.5239 29.0873 48.0477 27.1405 50.4177 24.9703C50.5138 24.2107 50.5715 23.4447 50.5907 22.666C47.958 25.2256 45.0371 27.5043 42.2764 29.4384Z" fill="url(#paint17_linear)"/>
<path d="M40.8348 32.317C41.5778 31.8319 42.3337 31.3213 43.1087 30.7787C42.8333 30.3256 42.5579 29.8787 42.2696 29.4447C41.4945 29.9873 40.7323 30.4979 39.9893 30.983C40.2839 31.417 40.5658 31.8638 40.8348 32.317Z" fill="url(#paint18_linear)"/>
<path d="M40.8348 32.317C41.5778 31.8319 42.3337 31.3213 43.1087 30.7787C42.8333 30.3256 42.5579 29.8787 42.2696 29.4447C41.4945 29.9873 40.7323 30.4979 39.9893 30.983C40.2839 31.417 40.5658 31.8638 40.8348 32.317Z" fill="url(#paint19_linear)"/>
<path d="M18.947 29.6106C18.6587 30.0446 18.3833 30.4978 18.1143 30.951C18.8893 31.4936 19.6516 32.0042 20.3946 32.4829C20.6636 32.0234 20.9391 31.5766 21.2273 31.1425C20.4907 30.6574 19.7284 30.1468 18.947 29.6106Z" fill="url(#paint20_linear)"/>
<path d="M18.947 29.6106C18.6587 30.0446 18.3833 30.4978 18.1143 30.951C18.8893 31.4936 19.6516 32.0042 20.3946 32.4829C20.6636 32.0234 20.9391 31.5766 21.2273 31.1425C20.4907 30.6574 19.7284 30.1468 18.947 29.6106Z" fill="url(#paint21_linear)"/>
<path d="M29.8688 18.1021L30.6631 17.534L31.4574 18.1021C31.5086 18.1404 31.6623 18.2489 31.8801 18.4148C32.6167 17.6999 33.9363 16.4425 35.6209 14.917C33.5071 15.8616 31.7264 16.8765 30.6695 17.5212C29.5998 16.8702 27.7806 15.8361 25.6348 14.8787C27.1016 16.1936 28.4019 17.4063 29.446 18.4212C29.6638 18.2553 29.8176 18.1404 29.8688 18.1021Z" fill="url(#paint22_linear)"/>
<path d="M29.8688 18.1021L30.6631 17.534L31.4574 18.1021C31.5086 18.1404 31.6623 18.2489 31.8801 18.4148C32.6167 17.6999 33.9363 16.4425 35.6209 14.917C33.5071 15.8616 31.7264 16.8765 30.6695 17.5212C29.5998 16.8702 27.7806 15.8361 25.6348 14.8787C27.1016 16.1936 28.4019 17.4063 29.446 18.4212C29.6638 18.2553 29.8176 18.1404 29.8688 18.1021Z" fill="#602D91"/>
<path d="M52.557 20.6489C51.9228 21.3447 51.2631 22.0149 50.5841 22.6787C50.5713 23.4511 50.5136 24.2234 50.4111 24.983C51.167 24.2936 51.9036 23.5851 52.6146 22.8511C52.621 22.6787 52.6274 22.5064 52.6274 22.334C52.6338 21.7404 52.6018 21.1851 52.557 20.6489Z" fill="url(#paint23_linear)"/>
<path d="M52.557 20.6489C51.9228 21.3447 51.2631 22.0149 50.5841 22.6787C50.5713 23.4511 50.5136 24.2234 50.4111 24.983C51.167 24.2936 51.9036 23.5851 52.6146 22.8511C52.621 22.6787 52.6274 22.5064 52.6274 22.334C52.6338 21.7404 52.6018 21.1851 52.557 20.6489Z" fill="url(#paint24_linear)"/>
<path d="M10.7612 23.0171C10.0694 22.3596 9.40328 21.6894 8.75632 20.9937C8.72429 21.4213 8.70508 21.8617 8.70508 22.3213C8.70508 22.6213 8.71789 22.9149 8.7307 23.2085C9.46092 23.9362 10.2104 24.6511 10.9726 25.3341C10.8573 24.5745 10.7869 23.8022 10.7612 23.0171Z" fill="url(#paint25_linear)"/>
<path d="M10.7612 23.0171C10.0694 22.3596 9.40328 21.6894 8.75632 20.9937C8.72429 21.4213 8.70508 21.8617 8.70508 22.3213C8.70508 22.6213 8.71789 22.9149 8.7307 23.2085C9.46092 23.9362 10.2104 24.6511 10.9726 25.3341C10.8573 24.5745 10.7869 23.8022 10.7612 23.0171Z" fill="url(#paint26_linear)"/>
<path d="M30.6629 19.6213L31.2202 19.0596C31.233 19.0468 31.47 18.8107 31.8735 18.4149C31.6494 18.249 31.502 18.1341 31.4508 18.1021L30.6565 17.5341L29.8622 18.1021C29.811 18.1404 29.6572 18.249 29.4395 18.4149C29.6701 18.6383 29.8942 18.8553 30.0992 19.0596L30.6629 19.6213Z" fill="url(#paint27_linear)"/>
<path d="M30.6629 19.6213L31.2202 19.0596C31.233 19.0468 31.47 18.8107 31.8735 18.4149C31.6494 18.249 31.502 18.1341 31.4508 18.1021L30.6565 17.5341L29.8622 18.1021C29.811 18.1404 29.6572 18.249 29.4395 18.4149C29.6701 18.6383 29.8942 18.8553 30.0992 19.0596L30.6629 19.6213Z" fill="url(#paint28_linear)"/>
<path d="M30.6629 19.6213L31.2202 19.0596C31.233 19.0468 31.47 18.8107 31.8735 18.4149C31.6494 18.249 31.502 18.1341 31.4508 18.1021L30.6565 17.5341L29.8622 18.1021C29.811 18.1404 29.6572 18.249 29.4395 18.4149C29.6701 18.6383 29.8942 18.8553 30.0992 19.0596L30.6629 19.6213Z" fill="#602D91"/>
<path d="M73.3298 52.5702C72.0615 54.8553 70.7484 57.6 70.7484 62.2723C70.7484 66.5553 71.7476 69.4277 73.3298 72.2872H72.3754C71.2032 70.3213 69.7939 67.0851 69.7939 62.2468C69.7939 57.5744 71.2544 54.4851 72.3754 52.5702H73.3298Z" fill="#58595B"/>
<path d="M75.0393 61.6148C75.0393 59.7191 75.0393 58.3723 75.0137 57.4659H75.9233C75.9489 57.8744 75.9745 58.3021 75.9745 59.2914C76.3909 57.951 77.4157 57.3702 78.415 57.3191V58.4744C76.788 58.4999 75.9745 59.9042 75.9745 61.7872V69.5936H75.0393V61.6148Z" fill="#58595B"/>
<path d="M80.3375 63.568V65.7701C80.3375 67.2637 80.6066 68.9425 82.0991 68.9425C83.457 68.9425 83.7645 67.9276 83.7645 66.4595V66.3191H84.6997V66.4403C84.6997 67.985 84.3154 69.7978 82.0542 69.7978C80.107 69.7978 79.4023 68.3999 79.4023 65.9297V60.8361C79.4023 58.8063 80.1774 57.2808 82.1247 57.2808C84.2065 57.2808 84.7253 59.0042 84.7253 60.8616C84.7253 61.468 84.7253 62.8978 84.7253 63.5808H80.3375V63.568ZM83.7901 62.7191V60.9127C83.7901 59.7701 83.6876 58.1233 82.0991 58.1233C80.5553 58.1233 80.3375 59.4893 80.3375 60.9382V62.7191H83.7901Z" fill="#58595B"/>
<path d="M86.7754 69.5999V52.6722H87.7106V69.5999H86.7754Z" fill="#58595B"/>
<path d="M95.4866 66.6C95.4866 67.9468 95.4866 69.083 95.5122 69.6H94.6282C94.6026 69.4021 94.577 68.751 94.577 68.2212C94.2567 69.3574 93.5713 69.7915 92.476 69.7915C91.6177 69.7915 90.1572 69.5681 90.1572 66.7532V57.4659H91.0924V66.5106C91.0924 68.2915 91.5536 68.917 92.6426 68.917C93.5649 68.917 94.5514 68.3872 94.5514 65.2851V57.4659H95.4866V66.6Z" fill="#58595B"/>
<path d="M103.077 69.7978C103.077 72.0191 102.783 73.9212 100.182 73.9212C98.0233 73.9212 97.5557 72.3382 97.5557 71.0489V70.9787H98.5165V71.0744C98.5165 71.9616 98.8496 73.0723 100.233 73.0723C101.758 73.0723 102.142 71.9616 102.142 69.9829V68.1765C101.803 69.1659 101.168 69.5999 100.028 69.5999C98.5485 69.5999 97.5877 68.6361 97.5877 65.9808V60.7978C97.5877 58.1489 98.8368 57.2744 100.272 57.2744C101.489 57.2744 102.097 57.951 102.244 58.5127C102.244 58.1936 102.296 57.7787 102.321 57.4659H103.128C103.103 58.0531 103.077 59.2404 103.077 60.8297V69.7978ZM98.5421 60.817V65.8723C98.5421 67.7744 99.0738 68.6872 100.137 68.6872C101.899 68.6872 102.161 66.7021 102.161 64.9085V61.2957C102.161 59.5148 101.969 58.168 100.329 58.168C99.0033 58.1744 98.5421 59.2276 98.5421 60.817Z" fill="#58595B"/>
<path d="M110.693 60.6064V66.1212C110.693 68.7893 109.495 69.7915 107.9 69.7915C106.35 69.7915 105.178 68.8596 105.178 66.2425V60.6319C105.178 58.6021 106.139 57.2744 107.971 57.2744C109.854 57.2681 110.693 58.5829 110.693 60.6064ZM106.132 60.651V66.2681C106.132 67.9532 106.734 68.9425 107.919 68.9425C109.008 68.9425 109.732 68.2404 109.732 66.2681V60.6574C109.732 59.1893 109.181 58.1298 107.945 58.1298C106.664 58.1234 106.132 59.0617 106.132 60.651Z" fill="#58595B"/>
<path d="M112.794 69.5999V52.6722H113.729V69.5999H112.794Z" fill="#58595B"/>
<path d="M116.201 52.6722H117.136V55.0084H116.201V52.6722ZM116.201 57.4659H117.136V69.5999H116.201V57.4659Z" fill="#58595B"/>
<path d="M119.597 57.4659C120.756 60.4979 121.217 61.6149 121.461 62.317H121.486C121.8 61.4936 122.505 59.9681 123.447 57.4659H124.433L122.018 63.1659L124.459 69.6H123.447C122.313 66.6064 121.756 64.9851 121.512 64.2383H121.486C121.198 65.0106 120.494 66.8234 119.482 69.6H118.495L120.98 63.2936L118.591 57.4659H119.597Z" fill="#58595B"/>
<path d="M125.24 72.0894C125.804 70.6404 126.361 68.6234 126.432 66.5043H127.316C127.264 68.3043 126.726 70.6341 126.015 72.0894H125.24Z" fill="#58595B"/>
<path d="M133.106 63.568V65.7701C133.106 67.2637 133.375 68.9425 134.868 68.9425C136.226 68.9425 136.533 67.9276 136.533 66.4595V66.3191H137.468V66.4403C137.468 67.985 137.084 69.7978 134.823 69.7978C132.876 69.7978 132.171 68.3999 132.171 65.9297V60.8361C132.171 58.8063 132.946 57.2808 134.893 57.2808C136.975 57.2808 137.494 59.0042 137.494 60.8616C137.494 61.468 137.494 62.8978 137.494 63.5808H133.106V63.568ZM136.559 62.7191V60.9127C136.559 59.7701 136.456 58.1233 134.868 58.1233C133.324 58.1233 133.106 59.4893 133.106 60.9382V62.7191H136.559Z" fill="#58595B"/>
<path d="M139.972 66.1914V66.7021C139.972 68.3297 140.715 68.9425 141.682 68.9425C142.886 68.9425 143.348 68.1766 143.348 66.734C143.348 65.151 142.867 64.5702 141.573 63.6957C139.991 62.6297 139.28 61.7999 139.28 60.1723C139.28 58.6531 139.902 57.2744 141.759 57.2744C143.764 57.2744 144.168 58.7489 144.168 60.1531V60.7787H143.232V60.1914C143.232 58.9659 142.919 58.1233 141.714 58.1233C140.677 58.1233 140.241 58.8191 140.241 60.0702C140.241 61.2957 140.606 61.8255 141.938 62.7446C143.367 63.7212 144.315 64.551 144.315 66.5617C144.315 68.6297 143.501 69.7978 141.618 69.7978C139.607 69.7978 139.018 68.3617 139.018 66.7531V66.1978H139.972V66.1914Z" fill="#58595B"/>
<path d="M145.026 57.4659H146.532V54.4084H147.441V57.4659H149.356V58.3212H147.441V67.4999C147.441 68.1765 147.589 68.9233 148.389 68.9233C148.633 68.9233 149.043 68.8978 149.26 68.8531V69.6319C148.94 69.734 148.473 69.7531 148.107 69.7531C147.288 69.7531 146.532 69.268 146.532 67.6787V58.3148H145.026V57.4659Z" fill="#58595B"/>
<path d="M150.618 61.6148C150.618 59.7191 150.618 58.3723 150.593 57.4659H151.502C151.528 57.8744 151.554 58.3021 151.554 59.2914C151.97 57.951 152.995 57.3702 153.994 57.3191V58.4744C152.367 58.4999 151.554 59.9042 151.554 61.7872V69.5936H150.618V61.6148Z" fill="#58595B"/>
<path d="M159.906 67.9021C159.906 68.7957 159.932 69.3446 159.958 69.5936H159.048C158.978 69.2297 158.952 68.7446 158.952 68.5084C158.587 69.568 157.735 69.7914 156.979 69.7914C155.295 69.7914 154.635 68.3808 154.635 66.4595V66.2425C154.635 63.7531 156.012 62.5978 158.158 62.5978C158.42 62.5978 158.613 62.5978 158.952 62.5978V60.2872C158.952 59.0297 158.689 58.168 157.504 58.168C156.319 58.168 155.961 59.0553 155.961 60.217V60.6702H155.026V60.217C155.026 58.5893 155.685 57.2744 157.53 57.2744C159.413 57.2744 159.913 58.634 159.913 60.2425V67.9021H159.906ZM158.971 63.4467C158.779 63.4467 158.414 63.4467 158.177 63.4467C156.512 63.4467 155.589 64.1936 155.589 66.1978V66.4148C155.589 67.7361 155.954 68.8914 157.114 68.8914C158.561 68.8914 158.971 67.6467 158.971 65.6425V63.4467Z" fill="#58595B"/>
<path d="M167.548 52.6722V66.7276C167.548 67.7425 167.548 68.8978 167.574 69.5999H166.69C166.664 69.4531 166.639 68.7701 166.639 68.3616C166.395 69.0701 165.857 69.7914 164.544 69.7914C162.635 69.7914 162.033 68.3042 162.033 65.9999V60.7914C162.033 58.6084 162.93 57.268 164.717 57.268C165.998 57.268 166.421 57.8871 166.62 58.2382V52.6722H167.548ZM162.994 60.8425V65.9105C162.994 67.902 163.5 68.8914 164.64 68.8914C166.21 68.8914 166.62 67.3276 166.62 65.3552V61.0978C166.62 59.7382 166.472 58.1808 164.711 58.1808C163.526 58.1744 162.994 59.2084 162.994 60.8425Z" fill="#58595B"/>
<path d="M170.015 52.6722H170.95V55.0084H170.015V52.6722ZM170.015 57.4659H170.95V69.5999H170.015V57.4659Z" fill="#58595B"/>
<path d="M178.579 60.6064V66.1212C178.579 68.7893 177.381 69.7915 175.786 69.7915C174.236 69.7915 173.063 68.8596 173.063 66.2425V60.6319C173.063 58.6021 174.024 57.2744 175.856 57.2744C177.739 57.2681 178.579 58.5829 178.579 60.6064ZM174.018 60.651V66.2681C174.018 67.9532 174.62 68.9425 175.805 68.9425C176.894 68.9425 177.618 68.2404 177.618 66.2681V60.6574C177.618 59.1893 177.067 58.1298 175.831 58.1298C174.55 58.1234 174.018 59.0617 174.018 60.651Z" fill="#58595B"/>
<path d="M180.679 69.5999V52.6722H181.614V69.5999H180.679Z" fill="#58595B"/>
<path d="M183.171 72.0894C183.735 70.6404 184.292 68.6234 184.362 66.5043H185.246C185.195 68.3043 184.657 70.6341 183.946 72.0894H183.171Z" fill="#58595B"/>
<path d="M195.245 67.9021C195.245 68.7957 195.271 69.3446 195.297 69.5936H194.387C194.317 69.2297 194.291 68.7446 194.291 68.5084C193.926 69.568 193.074 69.7914 192.318 69.7914C190.633 69.7914 189.974 68.3808 189.974 66.4595V66.2425C189.974 63.7531 191.351 62.5978 193.497 62.5978C193.759 62.5978 193.951 62.5978 194.291 62.5978V60.2872C194.291 59.0297 194.028 58.168 192.843 58.168C191.658 58.168 191.3 59.0553 191.3 60.217V60.6702H190.364V60.217C190.364 58.5893 191.024 57.2744 192.869 57.2744C194.752 57.2744 195.252 58.634 195.252 60.2425V67.9021H195.245ZM194.317 63.4467C194.124 63.4467 193.759 63.4467 193.522 63.4467C191.857 63.4467 190.934 64.1936 190.934 66.1978V66.4148C190.934 67.7361 191.3 68.8914 192.459 68.8914C193.907 68.8914 194.317 67.6467 194.317 65.6425V63.4467Z" fill="#58595B"/>
<path d="M197.738 61.1043C197.738 58.6979 197.738 58.117 197.712 57.4596H198.596C198.621 57.7277 198.647 58.0915 198.647 58.7872C199.012 57.7021 199.813 57.2617 200.863 57.2617C202.042 57.2617 203.157 57.8745 203.157 60.0383V69.5936H202.221V60.2426C202.221 58.9851 201.805 58.1681 200.697 58.1681C199.512 58.1681 198.666 58.7234 198.666 61.7043V69.5936H197.731V61.1043H197.738Z" fill="#58595B"/>
<path d="M210.779 52.6722V66.7276C210.779 67.7425 210.779 68.8978 210.804 69.5999H209.92C209.895 69.4531 209.869 68.7701 209.869 68.3616C209.626 69.0701 209.088 69.7914 207.775 69.7914C205.866 69.7914 205.264 68.3042 205.264 65.9999V60.7914C205.264 58.6084 206.16 57.268 207.948 57.268C209.229 57.268 209.651 57.8871 209.85 58.2382V52.6722H210.779ZM206.218 60.8425V65.9105C206.218 67.902 206.724 68.8914 207.864 68.8914C209.434 68.8914 209.844 67.3276 209.844 65.3552V61.0978C209.844 59.7382 209.696 58.1808 207.935 58.1808C206.75 58.1744 206.218 59.2084 206.218 60.8425Z" fill="#58595B"/>
<path d="M70.0569 84.0829C70.0569 81.6765 70.0569 81.0957 70.0312 80.4382H70.9152C70.9408 80.7063 70.9665 81.0701 70.9665 81.7659C71.3316 80.6808 72.1322 80.2404 73.1827 80.2404C74.3614 80.2404 75.4759 80.8531 75.4759 83.017V92.5723H74.5407V83.2212C74.5407 81.9638 74.1244 81.1467 73.0162 81.1467C71.8312 81.1467 70.9857 81.7021 70.9857 84.6829V92.5723H70.0505V84.0829H70.0569Z" fill="#58595B"/>
<path d="M83.0913 83.5851V89.1C83.0913 91.7681 81.8935 92.7702 80.2985 92.7702C78.7484 92.7702 77.5762 91.8383 77.5762 89.2213V83.6106C77.5762 81.5809 78.537 80.2532 80.369 80.2532C82.2522 80.2468 83.0913 81.5617 83.0913 83.5851ZM78.5306 83.6298V89.2468C78.5306 90.9319 79.1327 91.9213 80.3177 91.9213C81.4066 91.9213 82.1305 91.2192 82.1305 89.2468V83.6362C82.1305 82.1681 81.5796 81.1085 80.3433 81.1085C79.0622 81.1021 78.5306 82.0404 78.5306 83.6298Z" fill="#58595B"/>
<path d="M85.1926 84.5936C85.1926 82.6979 85.1926 81.351 85.167 80.4447H86.0766C86.1022 80.8532 86.1278 81.2808 86.1278 82.2702C86.5442 80.9298 87.5691 80.3489 88.5683 80.2979V81.4532C86.9413 81.4787 86.1278 82.883 86.1278 84.7659V92.5723H85.1926V84.5936Z" fill="#58595B"/>
<path d="M90.484 86.5467V88.7489C90.484 90.2425 90.7531 91.9212 92.2455 91.9212C93.6035 91.9212 93.911 90.9063 93.911 89.4382V89.2978H94.8462V89.4191C94.8462 90.9638 94.4618 92.7765 92.2007 92.7765C90.2534 92.7765 89.5488 91.3787 89.5488 88.9084V83.8148C89.5488 81.7851 90.3239 80.2595 92.2712 80.2595C94.3529 80.2595 94.8718 81.9829 94.8718 83.8404C94.8718 84.4468 94.8718 85.8765 94.8718 86.5595H90.484V86.5467ZM93.943 85.6978V83.8914C93.943 82.7489 93.8405 81.1021 92.2519 81.1021C90.7082 81.1021 90.4904 82.468 90.4904 83.917V85.6978H93.943Z" fill="#58595B"/>
<path d="M95.832 80.4447H97.3373V77.3872H98.2469V80.4447H100.162V81.3H98.2469V90.4787C98.2469 91.1553 98.3942 91.9021 99.1949 91.9021C99.4383 91.9021 99.8483 91.8766 100.066 91.8319V92.6106C99.7458 92.7128 99.2782 92.7319 98.9131 92.7319C98.0932 92.7319 97.3373 92.2468 97.3373 90.6574V81.3064H95.832V80.4447Z" fill="#58595B"/>
<path d="M102.366 75.651V81.6255C102.609 80.9233 103.34 80.2467 104.557 80.2467C106.337 80.2467 106.85 81.5808 106.85 83.3552V92.5786H105.915V83.5595C105.915 82.4233 105.812 81.1531 104.39 81.1531C102.705 81.1531 102.366 82.5446 102.366 84.7084V92.5786H101.431V75.651H102.366Z" fill="#58595B"/>
<path d="M109.315 75.651H110.251V77.9872H109.315V75.651ZM109.315 80.4446H110.251V92.5786H109.315V80.4446Z" fill="#58595B"/>
<path d="M112.723 84.0829C112.723 81.6765 112.723 81.0957 112.697 80.4382H113.581C113.607 80.7063 113.632 81.0701 113.632 81.7659C113.998 80.6808 114.798 80.2404 115.849 80.2404C117.027 80.2404 118.142 80.8531 118.142 83.017V92.5723H117.207V83.2212C117.207 81.9638 116.79 81.1467 115.682 81.1467C114.497 81.1467 113.652 81.7021 113.652 84.6829V92.5723H112.716V84.0829H112.723Z" fill="#58595B"/>
<path d="M125.759 75.651V89.7063C125.759 90.7212 125.759 91.8765 125.785 92.5787H124.901C124.875 92.4319 124.85 91.7489 124.85 91.3404C124.606 92.0489 124.068 92.7702 122.755 92.7702C120.846 92.7702 120.244 91.2829 120.244 88.9787V83.7702C120.244 81.5872 121.141 80.2468 122.928 80.2468C124.209 80.2468 124.632 80.8659 124.83 81.217V75.651H125.759ZM121.205 83.8212V88.8893C121.205 90.8808 121.711 91.8702 122.851 91.8702C124.421 91.8702 124.83 90.3063 124.83 88.334V84.0765C124.83 82.717 124.683 81.1595 122.922 81.1595C121.73 81.1531 121.205 82.1872 121.205 83.8212Z" fill="#58595B"/>
<path d="M128.225 84.5936C128.225 82.6979 128.225 81.351 128.199 80.4447H129.109C129.134 80.8532 129.16 81.2808 129.16 82.2702C129.576 80.9298 130.601 80.3489 131.601 80.2979V81.4532C129.974 81.4787 129.16 82.883 129.16 84.7659V92.5723H128.225V84.5936Z" fill="#58595B"/>
<path d="M138.102 83.5851V89.1C138.102 91.7681 136.904 92.7702 135.309 92.7702C133.759 92.7702 132.587 91.8383 132.587 89.2213V83.6106C132.587 81.5809 133.548 80.2532 135.38 80.2532C137.263 80.2468 138.102 81.5617 138.102 83.5851ZM133.541 83.6298V89.2468C133.541 90.9319 134.143 91.9213 135.328 91.9213C136.417 91.9213 137.141 91.2192 137.141 89.2468V83.6362C137.141 82.1681 136.59 81.1085 135.354 81.1085C134.073 81.1021 133.541 82.0404 133.541 83.6298Z" fill="#58595B"/>
<path d="M140.203 84.0829C140.203 81.6765 140.203 81.0957 140.178 80.4382H141.062C141.087 80.7063 141.113 81.0701 141.113 81.7659C141.478 80.6808 142.279 80.2404 143.329 80.2404C144.508 80.2404 145.622 80.8531 145.622 83.017V92.5723H144.687V83.2212C144.687 81.9638 144.271 81.1467 143.163 81.1467C141.978 81.1467 141.132 81.7021 141.132 84.6829V92.5723H140.197V84.0829H140.203Z" fill="#58595B"/>
<path d="M148.658 86.5467V88.7489C148.658 90.2425 148.927 91.9212 150.419 91.9212C151.777 91.9212 152.085 90.9063 152.085 89.4382V89.2978H153.02V89.4191C153.02 90.9638 152.636 92.7765 150.375 92.7765C148.427 92.7765 147.723 91.3787 147.723 88.9084V83.8148C147.723 81.7851 148.498 80.2595 150.445 80.2595C152.527 80.2595 153.046 81.9829 153.046 83.8404C153.046 84.4468 153.046 85.8765 153.046 86.5595H148.658V86.5467ZM152.11 85.6978V83.8914C152.11 82.7489 152.008 81.1021 150.419 81.1021C148.876 81.1021 148.658 82.468 148.658 83.917V85.6978H152.11Z" fill="#58595B"/>
<path d="M163.218 90.8808C163.218 91.7745 163.244 92.3234 163.269 92.5723H162.36C162.289 92.2085 162.264 91.7234 162.264 91.4872C161.898 92.5468 161.047 92.7702 160.291 92.7702C158.606 92.7702 157.946 91.3596 157.946 89.4383V89.2213C157.946 86.7319 159.323 85.5766 161.469 85.5766C161.732 85.5766 161.924 85.5766 162.264 85.5766V83.2659C162.264 82.0085 162.001 81.1468 160.816 81.1468C159.631 81.1468 159.272 82.034 159.272 83.1957V83.6489H158.337V83.1957C158.337 81.5681 158.997 80.2532 160.842 80.2532C162.725 80.2532 163.224 81.6127 163.224 83.2213V90.8808H163.218ZM162.283 86.4255C162.091 86.4255 161.726 86.4255 161.489 86.4255C159.823 86.4255 158.901 87.1723 158.901 89.1766V89.3936C158.901 90.7149 159.266 91.8702 160.425 91.8702C161.873 91.8702 162.283 90.6255 162.283 88.6213V86.4255Z" fill="#58595B"/>
<path d="M170.565 88.9532V89.1255C170.565 91.117 170.053 92.7766 167.92 92.7766C165.998 92.7766 165.345 91.3851 165.345 88.9787V83.6872C165.345 81.5553 166.19 80.2532 168.016 80.2532C169.989 80.2532 170.565 81.7276 170.565 83.4638V83.9936H169.604V83.6744C169.604 82.3978 169.387 81.1021 167.99 81.1021C166.805 81.1021 166.299 81.9702 166.299 83.8404V88.9915C166.299 90.3638 166.562 91.9212 167.939 91.9212C169.098 91.9212 169.604 91.2447 169.604 89.1319V88.9532H170.565Z" fill="#58595B"/>
<path d="M173.14 86.5467V88.7489C173.14 90.2425 173.409 91.9212 174.902 91.9212C176.26 91.9212 176.567 90.9063 176.567 89.4382V89.2978H177.502V89.4191C177.502 90.9638 177.118 92.7765 174.857 92.7765C172.91 92.7765 172.205 91.3787 172.205 88.9084V83.8148C172.205 81.7851 172.98 80.2595 174.927 80.2595C177.009 80.2595 177.528 81.9829 177.528 83.8404C177.528 84.4468 177.528 85.8765 177.528 86.5595H173.14V86.5467ZM176.599 85.6978V83.8914C176.599 82.7489 176.497 81.1021 174.908 81.1021C173.364 81.1021 173.147 82.468 173.147 83.917V85.6978H176.599Z" fill="#58595B"/>
<path d="M178.495 80.4447H180V77.3872H180.91V80.4447H182.825V81.3H180.91V90.4787C180.91 91.1553 181.057 91.9021 181.858 91.9021C182.101 91.9021 182.511 91.8766 182.729 91.8319V92.6106C182.409 92.7128 181.941 92.7319 181.576 92.7319C180.756 92.7319 180 92.2468 180 90.6574V81.3064H178.495V80.4447Z" fill="#58595B"/>
<path d="M189.019 90.8808C189.019 91.7745 189.044 92.3234 189.07 92.5723H188.16C188.09 92.2085 188.064 91.7234 188.064 91.4872C187.699 92.5468 186.847 92.7702 186.091 92.7702C184.407 92.7702 183.747 91.3596 183.747 89.4383V89.2213C183.747 86.7319 185.124 85.5766 187.27 85.5766C187.533 85.5766 187.725 85.5766 188.064 85.5766V83.2659C188.064 82.0085 187.802 81.1468 186.617 81.1468C185.432 81.1468 185.073 82.034 185.073 83.1957V83.6489H184.138V83.1957C184.138 81.5681 184.798 80.2532 186.642 80.2532C188.526 80.2532 189.025 81.6127 189.025 83.2213V90.8808H189.019ZM188.084 86.4255C187.891 86.4255 187.526 86.4255 187.289 86.4255C185.624 86.4255 184.702 87.1723 184.702 89.1766V89.3936C184.702 90.7149 185.067 91.8702 186.226 91.8702C187.674 91.8702 188.084 90.6255 188.084 88.6213V86.4255Z" fill="#58595B"/>
<path d="M190.173 80.4447H191.678V77.3872H192.588V80.4447H194.503V81.3H192.588V90.4787C192.588 91.1553 192.735 91.9021 193.536 91.9021C193.779 91.9021 194.189 91.8766 194.407 91.8319V92.6106C194.087 92.7128 193.619 92.7319 193.254 92.7319C192.434 92.7319 191.678 92.2468 191.678 90.6574V81.3064H190.173V80.4447Z" fill="#58595B"/>
<path d="M196.341 86.5467V88.7489C196.341 90.2425 196.61 91.9212 198.103 91.9212C199.461 91.9212 199.768 90.9063 199.768 89.4382V89.2978H200.704V89.4191C200.704 90.9638 200.319 92.7765 198.058 92.7765C196.111 92.7765 195.406 91.3787 195.406 88.9084V83.8148C195.406 81.7851 196.181 80.2595 198.129 80.2595C200.21 80.2595 200.729 81.9829 200.729 83.8404C200.729 84.4468 200.729 85.8765 200.729 86.5595H196.341V86.5467ZM199.794 85.6978V83.8914C199.794 82.7489 199.692 81.1021 198.103 81.1021C196.559 81.1021 196.341 82.468 196.341 83.917V85.6978H199.794Z" fill="#58595B"/>
<path d="M201.952 95.266C203.22 92.9809 204.534 90.2362 204.534 85.5639C204.534 81.2809 203.534 78.4085 201.952 75.549H202.907C204.079 77.5149 205.488 80.7511 205.488 85.5894C205.488 90.2617 204.028 93.3511 202.907 95.266H201.952Z" fill="#58595B"/>
<path d="M209.767 80.4447H211.272V77.3872H212.181V80.4447H214.097V81.3H212.181V90.4787C212.181 91.1553 212.329 91.9021 213.129 91.9021C213.373 91.9021 213.783 91.8766 214.001 91.8319V92.6106C213.68 92.7128 213.213 92.7319 212.848 92.7319C212.028 92.7319 211.272 92.2468 211.272 90.6574V81.3064H209.767V80.4447Z" fill="#58595B"/>
<path d="M220.297 90.8808C220.297 91.7745 220.323 92.3234 220.348 92.5723H219.439C219.368 92.2085 219.343 91.7234 219.343 91.4872C218.978 92.5468 218.126 92.7702 217.37 92.7702C215.685 92.7702 215.025 91.3596 215.025 89.4383V89.2213C215.025 86.7319 216.403 85.5766 218.548 85.5766C218.811 85.5766 219.003 85.5766 219.343 85.5766V83.2659C219.343 82.0085 219.08 81.1468 217.895 81.1468C216.71 81.1468 216.351 82.034 216.351 83.1957V83.6489H215.416V83.1957C215.416 81.5681 216.076 80.2532 217.921 80.2532C219.804 80.2532 220.304 81.6127 220.304 83.2213V90.8808H220.297ZM219.362 86.4255C219.17 86.4255 218.805 86.4255 218.568 86.4255C216.902 86.4255 215.98 87.1723 215.98 89.1766V89.3936C215.98 90.7149 216.345 91.8702 217.504 91.8702C218.952 91.8702 219.362 90.6255 219.362 88.6213V86.4255Z" fill="#58595B"/>
<path d="M222.789 75.651H223.724V81.651C223.994 80.8978 224.608 80.2467 225.915 80.2467C227.6 80.2467 228.304 81.6063 228.304 83.6042V88.7999C228.304 90.9765 227.747 92.7255 225.672 92.7255C224.576 92.7255 223.917 92.1638 223.648 91.3212C223.648 91.851 223.648 92.1701 223.596 92.5787H222.764C222.789 92.0361 222.789 90.9446 222.789 89.2787V75.651ZM227.344 88.9276V83.7318C227.344 82.0659 226.863 81.1531 225.704 81.1531C223.897 81.1531 223.699 83.0233 223.699 84.9957V88.4042C223.699 90.7595 224.256 91.8191 225.627 91.8191C226.761 91.8191 227.344 90.9063 227.344 88.9276Z" fill="#58595B"/>
<path d="M230.405 92.5786V75.651H231.341V92.5786H230.405Z" fill="#58595B"/>
<path d="M234.382 86.5467V88.7489C234.382 90.2425 234.651 91.9212 236.144 91.9212C237.502 91.9212 237.809 90.9063 237.809 89.4382V89.2978H238.745V89.4191C238.745 90.9638 238.36 92.7765 236.099 92.7765C234.152 92.7765 233.447 91.3787 233.447 88.9084V83.8148C233.447 81.7851 234.222 80.2595 236.17 80.2595C238.251 80.2595 238.77 81.9829 238.77 83.8404C238.77 84.4468 238.77 85.8765 238.77 86.5595H234.382V86.5467ZM237.835 85.6978V83.8914C237.835 82.7489 237.733 81.1021 236.144 81.1021C234.6 81.1021 234.382 82.468 234.382 83.917V85.6978H237.835Z" fill="#58595B"/>
<path d="M239.732 80.4447H241.237V77.3872H242.147V80.4447H244.062V81.3H242.147V90.4787C242.147 91.1553 242.294 91.9021 243.095 91.9021C243.338 91.9021 243.748 91.8766 243.966 91.8319V92.6106C243.646 92.7128 243.178 92.7319 242.813 92.7319C241.993 92.7319 241.237 92.2468 241.237 90.6574V81.3064H239.732V80.4447Z" fill="#58595B"/>
<path d="M245.848 89.1702V89.6808C245.848 91.3085 246.592 91.9212 247.559 91.9212C248.763 91.9212 249.224 91.1553 249.224 89.7127C249.224 88.1298 248.744 87.5489 247.45 86.6744C245.868 85.6085 245.157 84.7787 245.157 83.151C245.157 81.6319 245.778 80.2532 247.636 80.2532C249.641 80.2532 250.044 81.7276 250.044 83.1319V83.7574H249.109V83.1702C249.109 81.9447 248.795 81.1021 247.591 81.1021C246.553 81.1021 246.117 81.7979 246.117 83.0489C246.117 84.2744 246.483 84.8042 247.815 85.7234C249.243 86.7 250.191 87.5298 250.191 89.5404C250.191 91.6085 249.378 92.7766 247.495 92.7766C245.483 92.7766 244.894 91.3404 244.894 89.7319V89.1766H245.848V89.1702Z" fill="#58595B"/>
<path d="M72.9972 111.23V108.351H70.1211V107.789L72.7858 101.145H73.7402V107.681H74.5665L74.4832 108.351H73.7402V111.23H72.9972ZM72.9972 104.815C72.9972 103.896 73.0164 102.97 73.0484 102.064H73.0356C72.395 103.877 71.6008 105.906 70.909 107.674H72.9972V104.815Z" fill="#58595B"/>
<path d="M79.3904 103.5V108.887C79.3904 110.738 78.5961 111.351 77.4047 111.351C76.3222 111.351 75.4639 110.764 75.4639 108.913V103.532C75.4639 101.528 76.4567 101.017 77.456 101.017C78.4296 101.017 79.3904 101.521 79.3904 103.5ZM76.2389 103.5V108.913C76.2389 110.094 76.6105 110.623 77.4432 110.623C78.1606 110.623 78.6154 110.266 78.6154 108.881V103.506C78.6154 102.16 78.1029 101.757 77.4304 101.757C76.745 101.751 76.2389 102.096 76.2389 103.5Z" fill="#58595B"/>
<path d="M82.8937 105.657C82.8937 104.336 82.8937 103.813 82.8809 103.417H83.6047C83.6367 103.64 83.6367 103.928 83.6431 104.183C83.8481 103.653 84.2516 103.296 84.9562 103.296C85.5327 103.296 85.9811 103.525 86.1477 104.24C86.3654 103.73 86.7754 103.296 87.5504 103.296C88.255 103.296 88.9725 103.577 88.9725 105.07V111.23H88.2102V105.255C88.2102 104.598 88.1077 104.017 87.3775 104.017C86.5128 104.017 86.3206 104.834 86.3206 105.728V111.23H85.5519V105.338C85.5519 104.406 85.3342 104.017 84.6936 104.017C83.8609 104.017 83.6623 104.859 83.6623 105.849V111.23H82.9001V105.657H82.8937Z" fill="#58595B"/>
<path d="M93.9882 111.262C93.9882 112.742 93.8024 114 92.0345 114C90.5677 114 90.2666 112.959 90.2666 112.123V112.079H91.0417V112.136C91.0417 112.647 91.2338 113.33 92.0794 113.33C93.0017 113.33 93.2259 112.653 93.2259 111.428V110.317C93.0081 110.917 92.5982 111.198 91.8744 111.198C90.8431 111.198 90.273 110.496 90.273 108.849V105.581C90.273 103.985 91.0096 103.296 92.0281 103.296C92.816 103.296 93.2003 103.723 93.3028 104.094C93.3028 103.883 93.3348 103.608 93.3541 103.417H94.0138C94.001 103.813 93.9818 104.553 93.9818 105.549V111.262H93.9882ZM91.0481 105.613V108.779C91.0481 109.928 91.3619 110.489 92.0153 110.489C93.0722 110.489 93.2323 109.34 93.2323 108.217V105.9C93.2323 104.834 93.117 104.017 92.137 104.017C91.3427 104.017 91.0481 104.63 91.0481 105.613Z" fill="#58595B"/>
<path d="M94.8721 112.8C95.2628 111.798 95.6023 110.477 95.6407 109.194H96.3518C96.3197 110.387 95.9482 111.881 95.4806 112.8H94.8721Z" fill="#58595B"/>
<path d="M100.215 111.23V102.077C99.9327 102.262 99.2409 102.517 98.9463 102.568V101.93C99.4843 101.777 100.189 101.343 100.432 101.074H100.977V111.23H100.215Z" fill="#58595B"/>
<path d="M104.87 105.657C104.87 104.336 104.87 103.813 104.857 103.417H105.581C105.613 103.64 105.613 103.928 105.62 104.183C105.825 103.653 106.228 103.296 106.933 103.296C107.509 103.296 107.958 103.525 108.124 104.24C108.342 103.73 108.752 103.296 109.527 103.296C110.232 103.296 110.949 103.577 110.949 105.07V111.23H110.187V105.255C110.187 104.598 110.084 104.017 109.354 104.017C108.489 104.017 108.297 104.834 108.297 105.728V111.23H107.529V105.338C107.529 104.406 107.311 104.017 106.67 104.017C105.837 104.017 105.639 104.859 105.639 105.849V111.23H104.877V105.657H104.87Z" fill="#58595B"/>
<path d="M115.966 111.262C115.966 112.742 115.78 114 114.012 114C112.545 114 112.244 112.959 112.244 112.123V112.079H113.019V112.136C113.019 112.647 113.211 113.33 114.057 113.33C114.979 113.33 115.203 112.653 115.203 111.428V110.317C114.986 110.917 114.576 111.198 113.852 111.198C112.821 111.198 112.251 110.496 112.251 108.849V105.581C112.251 103.985 112.987 103.296 114.006 103.296C114.794 103.296 115.178 103.723 115.28 104.094C115.28 103.883 115.312 103.608 115.332 103.417H115.991C115.979 103.813 115.959 104.553 115.959 105.549V111.262H115.966ZM113.032 105.613V108.779C113.032 109.928 113.346 110.489 113.999 110.489C115.056 110.489 115.216 109.34 115.216 108.217V105.9C115.216 104.834 115.101 104.017 114.121 104.017C113.32 104.017 113.032 104.63 113.032 105.613Z" fill="#58595B"/>
<path d="M116.85 112.8C117.24 111.798 117.58 110.477 117.618 109.194H118.329C118.297 110.387 117.926 111.881 117.458 112.8H116.85Z" fill="#58595B"/>
<path d="M125.336 103.5V108.887C125.336 110.738 124.541 111.351 123.35 111.351C122.268 111.351 121.409 110.764 121.409 108.913V103.532C121.409 101.528 122.402 101.017 123.401 101.017C124.381 101.017 125.336 101.521 125.336 103.5ZM122.191 103.5V108.913C122.191 110.094 122.562 110.623 123.395 110.623C124.112 110.623 124.567 110.266 124.567 108.881V103.506C124.567 102.16 124.055 101.757 123.382 101.757C122.69 101.751 122.191 102.096 122.191 103.5Z" fill="#58595B"/>
<path d="M126.387 111.23V109.2H127.149V111.23H126.387Z" fill="#58595B"/>
<path d="M131.819 101.84H129.302C129.244 102.715 129.135 104.336 129.039 105.243C129.231 104.872 129.705 104.566 130.346 104.566C131.685 104.566 132.088 105.581 132.088 107.221V108.491C132.088 110.049 131.761 111.351 130.07 111.351C128.527 111.351 128.11 110.247 128.11 109.028V108.894H128.885V109.098C128.885 109.851 129.142 110.668 130.07 110.668C131.121 110.668 131.3 109.743 131.3 108.664V107.266C131.3 106.06 131.121 105.262 130.173 105.262C129.462 105.262 129.122 105.664 128.924 106.462L128.219 106.372C128.386 104.994 128.572 101.943 128.616 101.138H131.928L131.819 101.84Z" fill="#58595B"/>
<path d="M135.534 105.657C135.534 104.336 135.534 103.813 135.521 103.417H136.245C136.277 103.64 136.277 103.928 136.284 104.183C136.489 103.653 136.892 103.296 137.597 103.296C138.173 103.296 138.622 103.525 138.788 104.24C139.006 103.73 139.416 103.296 140.191 103.296C140.896 103.296 141.613 103.577 141.613 105.07V111.23H140.851V105.255C140.851 104.598 140.748 104.017 140.018 104.017C139.153 104.017 138.961 104.834 138.961 105.728V111.23H138.193V105.338C138.193 104.406 137.975 104.017 137.334 104.017C136.502 104.017 136.303 104.859 136.303 105.849V111.23H135.541V105.657H135.534Z" fill="#58595B"/>
<path d="M146.629 111.262C146.629 112.742 146.443 114 144.675 114C143.208 114 142.907 112.959 142.907 112.123V112.079H143.682V112.136C143.682 112.647 143.874 113.33 144.72 113.33C145.642 113.33 145.867 112.653 145.867 111.428V110.317C145.649 110.917 145.239 111.198 144.515 111.198C143.484 111.198 142.914 110.496 142.914 108.849V105.581C142.914 103.985 143.65 103.296 144.669 103.296C145.457 103.296 145.841 103.723 145.943 104.094C145.943 103.883 145.975 103.608 145.995 103.417H146.654C146.642 103.813 146.622 104.553 146.622 105.549V111.262H146.629ZM143.689 105.613V108.779C143.689 109.928 144.003 110.489 144.656 110.489C145.713 110.489 145.873 109.34 145.873 108.217V105.9C145.873 104.834 145.758 104.017 144.778 104.017C143.983 104.017 143.689 104.63 143.689 105.613Z" fill="#58595B"/>
<path d="M117.31 24.1021C117.31 24.3 117.265 24.4915 117.176 24.6894L106.562 47.9362C106.363 48.434 106.049 48.6894 105.614 48.6894C105.396 48.6894 105.197 48.6447 105.025 48.5617C104.518 48.3638 104.269 48.0383 104.269 47.5787C104.269 47.3808 104.313 47.1894 104.397 46.9915L107.644 39.8426V39.8106L100.336 24.7277C100.246 24.5553 100.201 24.3574 100.201 24.1404C100.201 23.6808 100.445 23.3553 100.925 23.1638C101.098 23.0745 101.297 23.0298 101.514 23.0298C101.975 23.0298 102.302 23.2596 102.494 23.7191L108.887 37.1362L114.985 23.7511C115.203 23.2723 115.53 23.0298 115.965 23.0298C116.164 23.0298 116.356 23.0745 116.554 23.1638C117.06 23.3489 117.31 23.6681 117.31 24.1021Z" fill="#602D91"/>
<path d="M127.028 19.1362C126.298 20.0936 125.932 21.3702 125.932 22.9596V23.7128H129.865C130.211 23.7128 130.493 23.8149 130.698 24.0256C130.903 24.2298 131.012 24.4979 131.012 24.8234C131.012 25.1298 130.91 25.3851 130.698 25.5894C130.493 25.7936 130.211 25.9022 129.865 25.9022H125.932V39.6511C125.932 40.0404 125.817 40.3532 125.587 40.583C125.356 40.8128 125.036 40.9277 124.619 40.9277C124.267 40.9277 123.979 40.8128 123.748 40.583C123.518 40.3532 123.402 40.0468 123.402 39.6511V25.8958H121.308C120.955 25.8958 120.68 25.7936 120.475 25.583C120.27 25.3724 120.161 25.1234 120.161 24.817C120.161 24.4915 120.264 24.2234 120.475 24.0192C120.68 23.8149 120.962 23.7064 121.308 23.7064H123.402V23.0873C123.402 20.7575 124.004 18.9 125.202 17.5022C126.406 16.1107 128.098 15.4149 130.282 15.4149C130.653 15.4149 130.961 15.5234 131.198 15.7404C131.441 15.9575 131.557 16.2319 131.557 16.5575C131.557 16.883 131.435 17.1575 131.198 17.3745C130.954 17.5915 130.653 17.7 130.282 17.7C128.847 17.7 127.758 18.1787 127.028 19.1362Z" fill="#602D91"/>
<path d="M146.673 24.0192C147.916 24.7724 148.883 25.8128 149.575 27.1405C150.266 28.4681 150.606 29.9809 150.606 31.6788C150.606 32.0298 150.497 32.3043 150.279 32.5086C150.062 32.7128 149.773 32.8213 149.427 32.8213H136.187C136.36 34.6086 137.058 36.0511 138.282 37.1618C139.505 38.2724 141.036 38.8277 142.868 38.8277C143.656 38.8277 144.444 38.6937 145.245 38.4192C146.039 38.1447 146.679 37.8064 147.16 37.3915C147.442 37.1745 147.736 37.066 148.044 37.066C148.281 37.066 148.524 37.1554 148.761 37.3277C149.043 37.5894 149.19 37.883 149.19 38.2086C149.19 38.4894 149.069 38.7447 148.832 38.9618C148.108 39.5745 147.192 40.0788 146.077 40.4809C144.963 40.883 143.893 41.0873 142.868 41.0873C141.119 41.0873 139.557 40.6979 138.179 39.9256C136.802 39.1532 135.726 38.0745 134.951 36.6958C134.176 35.3107 133.785 33.7532 133.785 32.0107C133.785 30.249 134.15 28.6724 134.881 27.2937C135.611 25.9149 136.629 24.8362 137.93 24.0639C139.23 23.2915 140.709 22.9022 142.369 22.9022C143.996 22.8958 145.43 23.266 146.673 24.0192ZM138.25 26.6809C137.154 27.7022 136.488 29.0554 136.251 30.7277H148.242C148.069 29.049 147.454 27.7022 146.404 26.6809C145.353 25.6596 144.015 25.149 142.375 25.149C140.722 25.149 139.345 25.6596 138.25 26.6809Z" fill="#602D91"/>
<path d="M177.785 23.7765C178.778 24.3893 179.553 25.251 180.11 26.3744C180.667 27.4978 180.943 28.7936 180.943 30.2744V39.6765C180.943 40.0467 180.828 40.3467 180.597 40.5765C180.366 40.8063 180.065 40.9212 179.694 40.9212C179.322 40.9212 179.015 40.8063 178.778 40.5765C178.534 40.3467 178.419 40.0467 178.419 39.6765V30.2744C178.419 28.7297 178.022 27.5042 177.221 26.6042C176.421 25.6978 175.383 25.251 174.089 25.251C172.712 25.251 171.597 25.7106 170.745 26.6233C169.893 27.5361 169.477 28.7361 169.503 30.217V30.2808V39.6829C169.503 40.0531 169.387 40.3531 169.157 40.5829C168.926 40.8127 168.625 40.9276 168.254 40.9276C167.882 40.9276 167.575 40.8127 167.338 40.5829C167.094 40.3531 166.979 40.0531 166.979 39.6829V30.2744C166.979 28.7297 166.582 27.5042 165.781 26.6042C164.98 25.7042 163.943 25.251 162.655 25.251C161.297 25.251 160.189 25.6978 159.312 26.5914C158.434 27.485 157.998 28.6276 157.998 30.0191V39.6829C157.998 40.0531 157.883 40.3531 157.652 40.5829C157.422 40.8127 157.121 40.9276 156.749 40.9276C156.378 40.9276 156.07 40.8127 155.833 40.5829C155.59 40.3531 155.475 40.0531 155.475 39.6829V24.3319C155.475 23.9616 155.596 23.6553 155.833 23.4191C156.077 23.1765 156.378 23.0616 156.749 23.0616C157.121 23.0616 157.422 23.1829 157.652 23.4191C157.883 23.6616 157.998 23.9616 157.998 24.3319V25.0467C158.607 24.351 159.337 23.8148 160.176 23.4319C161.015 23.0489 161.931 22.8638 162.911 22.8638C164.109 22.8638 165.192 23.1382 166.153 23.6808C167.113 24.2233 167.876 24.9893 168.446 25.9659C169.08 24.9829 169.906 24.2233 170.918 23.6808C171.937 23.1382 173.077 22.8638 174.345 22.8638C175.652 22.8638 176.792 23.1638 177.785 23.7765Z" fill="#602D91"/>
<path d="M221.201 23.2213C221.733 23.4638 222.002 23.7957 222.002 24.2361C222.002 24.3638 221.989 24.4659 221.97 24.5298C221.88 24.8361 221.746 25.0404 221.56 25.1489C221.374 25.2574 221.118 25.3149 220.791 25.3149C220.593 25.3149 220.253 25.2957 219.773 25.251C219.6 25.2319 219.337 25.2191 218.985 25.2191C217.345 25.2191 216.006 25.6532 214.969 26.5276C213.931 27.3957 213.412 28.5319 213.412 29.9234V39.683C213.412 40.0723 213.303 40.3787 213.085 40.5957C212.868 40.8127 212.56 40.9213 212.169 40.9213C211.779 40.9213 211.471 40.8127 211.253 40.5957C211.036 40.3787 210.927 40.0723 210.927 39.683V24.3C210.927 23.9106 211.036 23.6042 211.253 23.3872C211.471 23.1702 211.779 23.0617 212.169 23.0617C212.56 23.0617 212.868 23.1702 213.085 23.3872C213.303 23.6042 213.412 23.9106 213.412 24.3V25.7361C214.046 24.8234 214.853 24.1149 215.84 23.6106C216.826 23.1127 217.883 22.8574 219.017 22.8574C219.939 22.8638 220.67 22.9787 221.201 23.2213Z" fill="#602D91"/>
<path d="M236.785 24.0192C238.028 24.7724 238.995 25.8128 239.687 27.1405C240.379 28.4681 240.718 29.9809 240.718 31.6788C240.718 32.0298 240.609 32.3043 240.392 32.5086C240.174 32.7128 239.886 32.8213 239.54 32.8213H226.3C226.472 34.6086 227.171 36.0511 228.394 37.1618C229.618 38.2724 231.148 38.8277 232.98 38.8277C233.768 38.8277 234.556 38.6937 235.357 38.4192C236.151 38.1447 236.792 37.8064 237.272 37.3915C237.554 37.1745 237.849 37.066 238.156 37.066C238.393 37.066 238.637 37.1554 238.874 37.3277C239.155 37.5894 239.303 37.883 239.303 38.2086C239.303 38.4894 239.181 38.7447 238.944 38.9618C238.22 39.5745 237.304 40.0788 236.19 40.4809C235.075 40.883 234.005 41.0873 232.98 41.0873C231.232 41.0873 229.669 40.6979 228.292 39.9256C226.914 39.1532 225.838 38.0745 225.063 36.6958C224.288 35.3107 223.897 33.7532 223.897 32.0107C223.897 30.249 224.263 28.6724 224.993 27.2937C225.723 25.9149 226.742 24.8362 228.042 24.0639C229.342 23.2915 230.822 22.9022 232.481 22.9022C234.108 22.8958 235.543 23.266 236.785 24.0192ZM228.362 26.6809C227.267 27.7022 226.601 29.0554 226.364 30.7277H238.355C238.182 29.049 237.567 27.7022 236.516 26.6809C235.466 25.6596 234.127 25.149 232.487 25.149C230.835 25.149 229.457 25.6596 228.362 26.6809Z" fill="#602D91"/>
<path d="M256.873 24.0192C258.116 24.7724 259.083 25.8128 259.775 27.1405C260.467 28.4681 260.806 29.9809 260.806 31.6788C260.806 32.0298 260.697 32.3043 260.479 32.5086C260.262 32.7128 259.973 32.8213 259.628 32.8213H246.387C246.56 34.6086 247.259 36.0511 248.482 37.1618C249.705 38.2724 251.236 38.8277 253.068 38.8277C253.856 38.8277 254.644 38.6937 255.445 38.4192C256.239 38.1447 256.88 37.8064 257.36 37.3915C257.642 37.1745 257.936 37.066 258.244 37.066C258.481 37.066 258.724 37.1554 258.961 37.3277C259.243 37.5894 259.391 37.883 259.391 38.2086C259.391 38.4894 259.269 38.7447 259.032 38.9618C258.308 39.5745 257.392 40.0788 256.277 40.4809C255.163 40.883 254.093 41.0873 253.068 41.0873C251.32 41.0873 249.757 40.6979 248.38 39.9256C247.002 39.1532 245.926 38.0745 245.151 36.6958C244.376 35.3107 243.985 33.7532 243.985 32.0107C243.985 30.249 244.35 28.6724 245.081 27.2937C245.811 25.9149 246.829 24.8362 248.13 24.0639C249.43 23.2915 250.91 22.9022 252.569 22.9022C254.196 22.8958 255.624 23.266 256.873 24.0192ZM248.45 26.6809C247.355 27.7022 246.688 29.0554 246.451 30.7277H258.443C258.27 29.049 257.655 27.7022 256.604 26.6809C255.554 25.6596 254.215 25.149 252.575 25.149C250.916 25.149 249.545 25.6596 248.45 26.6809Z" fill="#602D91"/>
<path d="M204.194 27.351C203.419 25.9659 202.356 24.8808 201.017 24.083C199.672 23.2915 198.173 22.8893 196.514 22.8893C195.092 22.8893 193.791 23.1893 192.613 23.7893C191.434 24.3893 190.461 25.2128 189.698 26.2532V16.6915C189.698 16.3213 189.577 16.0149 189.34 15.7787C189.096 15.5362 188.795 15.4213 188.424 15.4213C188.052 15.4213 187.719 15.5425 187.488 15.7787C187.258 16.0213 187.143 16.3213 187.143 16.6915C187.143 16.6915 187.143 24.1659 187.143 24.3V31.9723V39.6766C187.143 40.0659 187.251 40.3723 187.469 40.5893C187.687 40.8064 187.995 40.9149 188.385 40.9149C188.776 40.9149 189.083 40.8064 189.301 40.5893C189.519 40.3723 189.628 40.0659 189.628 39.6766V38.3298C190.204 38.9362 190.858 39.4596 191.607 39.8872C192.997 40.6851 194.541 41.0808 196.245 41.0808C197.949 41.0808 199.492 40.6851 200.882 39.8872C202.272 39.0893 203.361 37.9979 204.162 36.6064C204.963 35.2149 205.36 33.6702 205.36 31.9723C205.36 30.2745 204.969 28.7362 204.194 27.351ZM202.035 35.451C201.459 36.4851 200.658 37.3021 199.646 37.9021C198.628 38.5021 197.5 38.8021 196.258 38.8021C195.015 38.8021 193.888 38.5021 192.882 37.9021C191.876 37.3021 191.082 36.4851 190.505 35.451C190.108 34.7425 189.852 33.9702 189.724 33.1723C189.654 32.7255 189.622 32.2723 189.628 31.8191C189.634 31.3723 189.705 30.9383 189.775 30.4979C189.891 29.7766 190.147 29.0681 190.512 28.4362C190.864 27.8234 191.325 27.2872 191.851 26.8149C193.061 25.7234 194.535 25.1808 196.258 25.1808C197.5 25.1808 198.634 25.4745 199.646 26.0617C200.658 26.6489 201.459 27.4596 202.035 28.4936C202.612 29.5276 202.906 30.6893 202.906 31.9723C202.9 33.2553 202.612 34.417 202.035 35.451Z" fill="#602D91"/>
<path d="M95.3201 15.7729C95.5635 16.0155 95.6788 16.3155 95.6788 16.6857V39.6389C95.6788 39.99 95.5571 40.29 95.3201 40.5389C95.0831 40.7878 94.782 40.9155 94.4361 40.9155C94.0646 40.9155 93.7507 40.7878 93.5009 40.5389C93.2511 40.29 93.123 39.99 93.123 39.6389V20.6176C92.7899 21.0644 85.8143 30.4985 84.3091 32.3559C84.0849 32.6368 83.803 32.9687 83.534 33.141C83.2201 33.3389 82.8486 33.3772 82.4194 33.1729C82.144 33.0389 81.8109 32.6432 81.5931 32.3814C80.6835 31.3027 80.1006 30.441 79.2359 29.324C78.2238 28.0219 77.2118 26.7134 76.1997 25.4112C75.3286 24.2814 74.451 23.158 73.5799 22.0283C73.266 21.6261 72.9585 21.224 72.6447 20.8219V39.6453C72.6447 39.9963 72.523 40.2963 72.286 40.5453C72.0425 40.7942 71.7415 40.9219 71.37 40.9219C71.0177 40.9219 70.723 40.7942 70.4668 40.5453C70.217 40.2963 70.0889 39.9963 70.0889 39.6453V16.6921C70.0889 16.3219 70.217 16.0155 70.4668 15.7793C70.7166 15.5368 71.0177 15.4219 71.37 15.4219C71.8696 15.4219 72.2539 15.6389 72.5165 16.0729L83.0023 29.8219L93.2896 16.0729C93.5522 15.6389 93.9365 15.4219 94.4361 15.4219C94.7884 15.4155 95.0831 15.5368 95.3201 15.7729Z" fill="#602D91"/>
<path d="M265.642 23.2596C266.058 23.5021 266.385 23.8277 266.628 24.2426C266.872 24.6575 266.993 25.1106 266.993 25.6021C266.993 26.1 266.872 26.5596 266.622 26.9745C266.379 27.3894 266.045 27.7213 265.629 27.9575C265.213 28.1936 264.764 28.3149 264.278 28.3149C263.784 28.3149 263.323 28.1936 262.907 27.9575C262.49 27.7213 262.164 27.3958 261.92 26.9809C261.677 26.566 261.555 26.1064 261.555 25.6021C261.555 25.1106 261.677 24.6575 261.92 24.2426C262.164 23.8277 262.49 23.5021 262.907 23.2596C263.323 23.017 263.778 22.8958 264.284 22.8958C264.777 22.8958 265.232 23.017 265.642 23.2596ZM265.354 27.4532C265.687 27.2617 265.949 27 266.141 26.6681C266.334 26.3426 266.43 25.9851 266.43 25.5958C266.43 25.2064 266.334 24.8489 266.135 24.5234C265.943 24.1915 265.68 23.9362 265.347 23.7383C265.021 23.5468 264.655 23.4447 264.271 23.4447C263.88 23.4447 263.522 23.5404 263.189 23.7383C262.862 23.9298 262.599 24.1915 262.401 24.5234C262.209 24.8489 262.106 25.2064 262.106 25.5958C262.106 25.9851 262.202 26.3426 262.394 26.6681C262.586 27 262.849 27.2553 263.176 27.4532C263.502 27.6447 263.868 27.7468 264.265 27.7468C264.662 27.7404 265.021 27.6447 265.354 27.4532ZM265.411 26.7511C265.45 26.8149 265.469 26.8787 265.469 26.9298C265.469 26.9936 265.443 27.0447 265.398 27.0894C265.354 27.134 265.29 27.1532 265.213 27.1532C265.155 27.1532 265.104 27.1404 265.059 27.1213C265.014 27.0958 264.976 27.0702 264.957 27.0319L264.316 25.9596H264.252H263.816V26.8979C263.816 26.9745 263.791 27.0383 263.746 27.0894C263.695 27.1404 263.631 27.1596 263.547 27.1596C263.464 27.1596 263.394 27.134 263.349 27.0894C263.297 27.0383 263.272 26.9745 263.272 26.8979V24.1787C263.272 24.1021 263.297 24.0383 263.355 23.9872C263.413 23.9362 263.483 23.917 263.573 23.917H264.265C264.598 23.917 264.873 24.0128 265.091 24.2043C265.309 24.3958 265.418 24.6383 265.418 24.9319C265.418 25.1234 265.366 25.3021 265.27 25.4553C265.174 25.6085 265.04 25.7362 264.873 25.8255L265.411 26.7511ZM263.81 25.4681H264.29C264.457 25.4681 264.591 25.417 264.687 25.3213C264.79 25.2192 264.835 25.0915 264.835 24.9255C264.835 24.7596 264.784 24.6319 264.687 24.5362C264.585 24.4404 264.457 24.3958 264.29 24.3958H263.81V25.4681Z" fill="#602D91"/>
</g>
<defs>
<linearGradient id="paint0_linear" x1="30.6114" y1="68.4042" x2="30.6114" y2="17.5392" gradientUnits="userSpaceOnUse">
<stop stop-color="#AFD4C4"/>
<stop offset="0.0871" stop-color="#AFD1C3" stop-opacity="0.9344"/>
<stop offset="0.1444" stop-color="#AFCBC1" stop-opacity="0.8912"/>
<stop offset="0.193" stop-color="#B0C2BE" stop-opacity="0.8546"/>
<stop offset="0.2369" stop-color="#B0B6BA" stop-opacity="0.8215"/>
<stop offset="0.2775" stop-color="#B1A6B5" stop-opacity="0.7909"/>
<stop offset="0.3158" stop-color="#B191AD" stop-opacity="0.7621"/>
<stop offset="0.3522" stop-color="#B279A4" stop-opacity="0.7346"/>
<stop offset="0.3871" stop-color="#B25A99" stop-opacity="0.7083"/>
<stop offset="0.4197" stop-color="#B42A8F" stop-opacity="0.6837"/>
<stop offset="0.4247" stop-color="#B41E8E" stop-opacity="0.68"/>
<stop offset="0.8999" stop-color="#602D91"/>
</linearGradient>
<linearGradient id="paint1_linear" x1="30.6671" y1="68.4043" x2="30.6671" y2="17.5393" gradientUnits="userSpaceOnUse">
<stop stop-color="#AFD4C4"/>
<stop offset="0.0871" stop-color="#AFD1C3" stop-opacity="0.9344"/>
<stop offset="0.1444" stop-color="#AFCBC1" stop-opacity="0.8912"/>
<stop offset="0.193" stop-color="#B0C2BE" stop-opacity="0.8546"/>
<stop offset="0.2369" stop-color="#B0B6BA" stop-opacity="0.8215"/>
<stop offset="0.2775" stop-color="#B1A6B5" stop-opacity="0.7909"/>
<stop offset="0.3158" stop-color="#B191AD" stop-opacity="0.7621"/>
<stop offset="0.3522" stop-color="#B279A4" stop-opacity="0.7346"/>
<stop offset="0.3871" stop-color="#B25A99" stop-opacity="0.7083"/>
<stop offset="0.4197" stop-color="#B42A8F" stop-opacity="0.6837"/>
<stop offset="0.4247" stop-color="#B41E8E" stop-opacity="0.68"/>
<stop offset="0.8999" stop-color="#602D91"/>
</linearGradient>
<linearGradient id="paint2_linear" x1="43.3447" y1="68.4043" x2="43.3447" y2="17.5393" gradientUnits="userSpaceOnUse">
<stop stop-color="#AFD4C4"/>
<stop offset="0.0871" stop-color="#AFD1C3" stop-opacity="0.9344"/>
<stop offset="0.1444" stop-color="#AFCBC1" stop-opacity="0.8912"/>
<stop offset="0.193" stop-color="#B0C2BE" stop-opacity="0.8546"/>
<stop offset="0.2369" stop-color="#B0B6BA" stop-opacity="0.8215"/>
<stop offset="0.2775" stop-color="#B1A6B5" stop-opacity="0.7909"/>
<stop offset="0.3158" stop-color="#B191AD" stop-opacity="0.7621"/>
<stop offset="0.3522" stop-color="#B279A4" stop-opacity="0.7346"/>
<stop offset="0.3871" stop-color="#B25A99" stop-opacity="0.7083"/>
<stop offset="0.4197" stop-color="#B42A8F" stop-opacity="0.6837"/>
<stop offset="0.4247" stop-color="#B41E8E" stop-opacity="0.68"/>
<stop offset="0.8999" stop-color="#602D91"/>
</linearGradient>
<linearGradient id="paint3_linear" x1="17.9406" y1="68.4042" x2="17.9406" y2="17.5392" gradientUnits="userSpaceOnUse">
<stop stop-color="#AFD4C4"/>
<stop offset="0.0871" stop-color="#AFD1C3" stop-opacity="0.9344"/>
<stop offset="0.1444" stop-color="#AFCBC1" stop-opacity="0.8912"/>
<stop offset="0.193" stop-color="#B0C2BE" stop-opacity="0.8546"/>
<stop offset="0.2369" stop-color="#B0B6BA" stop-opacity="0.8215"/>
<stop offset="0.2775" stop-color="#B1A6B5" stop-opacity="0.7909"/>
<stop offset="0.3158" stop-color="#B191AD" stop-opacity="0.7621"/>
<stop offset="0.3522" stop-color="#B279A4" stop-opacity="0.7346"/>
<stop offset="0.3871" stop-color="#B25A99" stop-opacity="0.7083"/>
<stop offset="0.4197" stop-color="#B42A8F" stop-opacity="0.6837"/>
<stop offset="0.4247" stop-color="#B41E8E" stop-opacity="0.68"/>
<stop offset="0.8999" stop-color="#602D91"/>
</linearGradient>
<linearGradient id="paint4_linear" x1="42.2177" y1="52.2131" x2="42.2177" y2="12.6009" gradientUnits="userSpaceOnUse">
<stop offset="0.00127591" stop-color="#AFD4C4"/>
<stop offset="0.3856" stop-color="#B41E8E" stop-opacity="0.8"/>
<stop offset="0.8178" stop-color="#602D91"/>
</linearGradient>
<linearGradient id="paint5_linear" x1="12.1042" y1="52.2131" x2="12.1042" y2="12.6009" gradientUnits="userSpaceOnUse">
<stop offset="0.00127591" stop-color="#AFD4C4"/>
<stop offset="0.3856" stop-color="#B41E8E" stop-opacity="0.8"/>
<stop offset="0.8178" stop-color="#602D91"/>
</linearGradient>
<linearGradient id="paint6_linear" x1="19.0992" y1="52.213" x2="19.0992" y2="12.6008" gradientUnits="userSpaceOnUse">
<stop offset="0.00127591" stop-color="#AFD4C4"/>
<stop offset="0.3856" stop-color="#B41E8E" stop-opacity="0.8"/>
<stop offset="0.8178" stop-color="#602D91"/>
</linearGradient>
<linearGradient id="paint7_linear" x1="30.6677" y1="52.213" x2="30.6677" y2="12.6008" gradientUnits="userSpaceOnUse">
<stop offset="0.00127591" stop-color="#AFD4C4"/>
<stop offset="0.3856" stop-color="#B41E8E" stop-opacity="0.8"/>
<stop offset="0.8178" stop-color="#602D91"/>
</linearGradient>
<linearGradient id="paint8_linear" x1="49.2353" y1="52.213" x2="49.2353" y2="12.6007" gradientUnits="userSpaceOnUse">
<stop offset="0.00127591" stop-color="#AFD4C4"/>
<stop offset="0.3856" stop-color="#B41E8E" stop-opacity="0.8"/>
<stop offset="0.8178" stop-color="#602D91"/>
</linearGradient>
<linearGradient id="paint9_linear" x1="30.6641" y1="68.4042" x2="30.6641" y2="17.5392" gradientUnits="userSpaceOnUse">
<stop stop-color="#AFD4C4"/>
<stop offset="0.0871" stop-color="#AFD1C3" stop-opacity="0.9344"/>
<stop offset="0.1444" stop-color="#AFCBC1" stop-opacity="0.8912"/>
<stop offset="0.193" stop-color="#B0C2BE" stop-opacity="0.8546"/>
<stop offset="0.2369" stop-color="#B0B6BA" stop-opacity="0.8215"/>
<stop offset="0.2775" stop-color="#B1A6B5" stop-opacity="0.7909"/>
<stop offset="0.3158" stop-color="#B191AD" stop-opacity="0.7621"/>
<stop offset="0.3522" stop-color="#B279A4" stop-opacity="0.7346"/>
<stop offset="0.3871" stop-color="#B25A99" stop-opacity="0.7083"/>
<stop offset="0.4197" stop-color="#B42A8F" stop-opacity="0.6837"/>
<stop offset="0.4247" stop-color="#B41E8E" stop-opacity="0.68"/>
<stop offset="0.8999" stop-color="#602D91"/>
</linearGradient>
<linearGradient id="paint10_linear" x1="45.1998" y1="68.4042" x2="45.1998" y2="17.5392" gradientUnits="userSpaceOnUse">
<stop stop-color="#AFD4C4"/>
<stop offset="0.0871" stop-color="#AFD1C3" stop-opacity="0.9344"/>
<stop offset="0.1444" stop-color="#AFCBC1" stop-opacity="0.8912"/>
<stop offset="0.193" stop-color="#B0C2BE" stop-opacity="0.8546"/>
<stop offset="0.2369" stop-color="#B0B6BA" stop-opacity="0.8215"/>
<stop offset="0.2775" stop-color="#B1A6B5" stop-opacity="0.7909"/>
<stop offset="0.3158" stop-color="#B191AD" stop-opacity="0.7621"/>
<stop offset="0.3522" stop-color="#B279A4" stop-opacity="0.7346"/>
<stop offset="0.3871" stop-color="#B25A99" stop-opacity="0.7083"/>
<stop offset="0.4197" stop-color="#B42A8F" stop-opacity="0.6837"/>
<stop offset="0.4247" stop-color="#B41E8E" stop-opacity="0.68"/>
<stop offset="0.8999" stop-color="#602D91"/>
</linearGradient>
<linearGradient id="paint11_linear" x1="45.1998" y1="52.213" x2="45.1998" y2="12.6008" gradientUnits="userSpaceOnUse">
<stop offset="0.00127591" stop-color="#AFD4C4"/>
<stop offset="0.3856" stop-color="#B41E8E" stop-opacity="0.8"/>
<stop offset="0.8178" stop-color="#602D91"/>
</linearGradient>
<linearGradient id="paint12_linear" x1="16.1345" y1="68.4042" x2="16.1345" y2="17.5392" gradientUnits="userSpaceOnUse">
<stop stop-color="#AFD4C4"/>
<stop offset="0.0871" stop-color="#AFD1C3" stop-opacity="0.9344"/>
<stop offset="0.1444" stop-color="#AFCBC1" stop-opacity="0.8912"/>
<stop offset="0.193" stop-color="#B0C2BE" stop-opacity="0.8546"/>
<stop offset="0.2369" stop-color="#B0B6BA" stop-opacity="0.8215"/>
<stop offset="0.2775" stop-color="#B1A6B5" stop-opacity="0.7909"/>
<stop offset="0.3158" stop-color="#B191AD" stop-opacity="0.7621"/>
<stop offset="0.3522" stop-color="#B279A4" stop-opacity="0.7346"/>
<stop offset="0.3871" stop-color="#B25A99" stop-opacity="0.7083"/>
<stop offset="0.4197" stop-color="#B42A8F" stop-opacity="0.6837"/>
<stop offset="0.4247" stop-color="#B41E8E" stop-opacity="0.68"/>
<stop offset="0.8999" stop-color="#602D91"/>
</linearGradient>
<linearGradient id="paint13_linear" x1="16.1345" y1="52.213" x2="16.1345" y2="12.6008" gradientUnits="userSpaceOnUse">
<stop offset="0.00127591" stop-color="#AFD4C4"/>
<stop offset="0.3856" stop-color="#B41E8E" stop-opacity="0.8"/>
<stop offset="0.8178" stop-color="#602D91"/>
</linearGradient>
<linearGradient id="paint14_linear" x1="30.4899" y1="37.0101" x2="30.4899" y2="-3.38314e-05" gradientUnits="userSpaceOnUse">
<stop stop-color="#AFD4C4"/>
<stop offset="0.0214" stop-color="#AFCBC1" stop-opacity="0.9654"/>
<stop offset="0.0592" stop-color="#B0BABC" stop-opacity="0.9042"/>
<stop offset="0.1091" stop-color="#B19DB1" stop-opacity="0.8234"/>
<stop offset="0.1692" stop-color="#B274A2" stop-opacity="0.7263"/>
<stop offset="0.2371" stop-color="#B4308F" stop-opacity="0.6164"/>
<stop offset="0.2473" stop-color="#B41E8E" stop-opacity="0.6"/>
<stop offset="0.2944" stop-color="#A1238F" stop-opacity="0.6622"/>
<stop offset="0.3729" stop-color="#862990" stop-opacity="0.7658"/>
<stop offset="0.4445" stop-color="#722B90" stop-opacity="0.8602"/>
<stop offset="0.5061" stop-color="#652D91" stop-opacity="0.9414"/>
<stop offset="0.5505" stop-color="#602D91"/>
</linearGradient>
<linearGradient id="paint15_linear" x1="14.8552" y1="37.01" x2="14.8552" y2="-0.000119994" gradientUnits="userSpaceOnUse">
<stop stop-color="#AFD4C4"/>
<stop offset="0.0214" stop-color="#AFCBC1" stop-opacity="0.9654"/>
<stop offset="0.0592" stop-color="#B0BABC" stop-opacity="0.9042"/>
<stop offset="0.1091" stop-color="#B19DB1" stop-opacity="0.8234"/>
<stop offset="0.1692" stop-color="#B274A2" stop-opacity="0.7263"/>
<stop offset="0.2371" stop-color="#B4308F" stop-opacity="0.6164"/>
<stop offset="0.2473" stop-color="#B41E8E" stop-opacity="0.6"/>
<stop offset="0.2944" stop-color="#A1238F" stop-opacity="0.6622"/>
<stop offset="0.3729" stop-color="#862990" stop-opacity="0.7658"/>
<stop offset="0.4445" stop-color="#722B90" stop-opacity="0.8602"/>
<stop offset="0.5061" stop-color="#652D91" stop-opacity="0.9414"/>
<stop offset="0.5505" stop-color="#602D91"/>
</linearGradient>
<linearGradient id="paint16_linear" x1="30.6177" y1="37.0101" x2="30.6177" y2="-8.54965e-05" gradientUnits="userSpaceOnUse">
<stop stop-color="#AFD4C4"/>
<stop offset="0.0214" stop-color="#AFCBC1" stop-opacity="0.9654"/>
<stop offset="0.0592" stop-color="#B0BABC" stop-opacity="0.9042"/>
<stop offset="0.1091" stop-color="#B19DB1" stop-opacity="0.8234"/>
<stop offset="0.1692" stop-color="#B274A2" stop-opacity="0.7263"/>
<stop offset="0.2371" stop-color="#B4308F" stop-opacity="0.6164"/>
<stop offset="0.2473" stop-color="#B41E8E" stop-opacity="0.6"/>
<stop offset="0.2944" stop-color="#A1238F" stop-opacity="0.6622"/>
<stop offset="0.3729" stop-color="#862990" stop-opacity="0.7658"/>
<stop offset="0.4445" stop-color="#722B90" stop-opacity="0.8602"/>
<stop offset="0.5061" stop-color="#652D91" stop-opacity="0.9414"/>
<stop offset="0.5505" stop-color="#602D91"/>
</linearGradient>
<linearGradient id="paint17_linear" x1="46.4282" y1="37.0102" x2="46.4282" y2="5.96987e-05" gradientUnits="userSpaceOnUse">
<stop stop-color="#AFD4C4"/>
<stop offset="0.0214" stop-color="#AFCBC1" stop-opacity="0.9654"/>
<stop offset="0.0592" stop-color="#B0BABC" stop-opacity="0.9042"/>
<stop offset="0.1091" stop-color="#B19DB1" stop-opacity="0.8234"/>
<stop offset="0.1692" stop-color="#B274A2" stop-opacity="0.7263"/>
<stop offset="0.2371" stop-color="#B4308F" stop-opacity="0.6164"/>
<stop offset="0.2473" stop-color="#B41E8E" stop-opacity="0.6"/>
<stop offset="0.2944" stop-color="#A1238F" stop-opacity="0.6622"/>
<stop offset="0.3729" stop-color="#862990" stop-opacity="0.7658"/>
<stop offset="0.4445" stop-color="#722B90" stop-opacity="0.8602"/>
<stop offset="0.5061" stop-color="#652D91" stop-opacity="0.9414"/>
<stop offset="0.5505" stop-color="#602D91"/>
</linearGradient>
<linearGradient id="paint18_linear" x1="41.5525" y1="68.4042" x2="41.5525" y2="17.5392" gradientUnits="userSpaceOnUse">
<stop stop-color="#AFD4C4"/>
<stop offset="0.0871" stop-color="#AFD1C3" stop-opacity="0.9344"/>
<stop offset="0.1444" stop-color="#AFCBC1" stop-opacity="0.8912"/>
<stop offset="0.193" stop-color="#B0C2BE" stop-opacity="0.8546"/>
<stop offset="0.2369" stop-color="#B0B6BA" stop-opacity="0.8215"/>
<stop offset="0.2775" stop-color="#B1A6B5" stop-opacity="0.7909"/>
<stop offset="0.3158" stop-color="#B191AD" stop-opacity="0.7621"/>
<stop offset="0.3522" stop-color="#B279A4" stop-opacity="0.7346"/>
<stop offset="0.3871" stop-color="#B25A99" stop-opacity="0.7083"/>
<stop offset="0.4197" stop-color="#B42A8F" stop-opacity="0.6837"/>
<stop offset="0.4247" stop-color="#B41E8E" stop-opacity="0.68"/>
<stop offset="0.8999" stop-color="#602D91"/>
</linearGradient>
<linearGradient id="paint19_linear" x1="41.5525" y1="37.0101" x2="41.5525" y2="5.20139e-05" gradientUnits="userSpaceOnUse">
<stop stop-color="#AFD4C4"/>
<stop offset="0.0214" stop-color="#AFCBC1" stop-opacity="0.9654"/>
<stop offset="0.0592" stop-color="#B0BABC" stop-opacity="0.9042"/>
<stop offset="0.1091" stop-color="#B19DB1" stop-opacity="0.8234"/>
<stop offset="0.1692" stop-color="#B274A2" stop-opacity="0.7263"/>
<stop offset="0.2371" stop-color="#B4308F" stop-opacity="0.6164"/>
<stop offset="0.2473" stop-color="#B41E8E" stop-opacity="0.6"/>
<stop offset="0.2944" stop-color="#A1238F" stop-opacity="0.6622"/>
<stop offset="0.3729" stop-color="#862990" stop-opacity="0.7658"/>
<stop offset="0.4445" stop-color="#722B90" stop-opacity="0.8602"/>
<stop offset="0.5061" stop-color="#652D91" stop-opacity="0.9414"/>
<stop offset="0.5505" stop-color="#602D91"/>
</linearGradient>
<linearGradient id="paint20_linear" x1="19.6745" y1="68.4042" x2="19.6745" y2="17.5392" gradientUnits="userSpaceOnUse">
<stop stop-color="#AFD4C4"/>
<stop offset="0.0871" stop-color="#AFD1C3" stop-opacity="0.9344"/>
<stop offset="0.1444" stop-color="#AFCBC1" stop-opacity="0.8912"/>
<stop offset="0.193" stop-color="#B0C2BE" stop-opacity="0.8546"/>
<stop offset="0.2369" stop-color="#B0B6BA" stop-opacity="0.8215"/>
<stop offset="0.2775" stop-color="#B1A6B5" stop-opacity="0.7909"/>
<stop offset="0.3158" stop-color="#B191AD" stop-opacity="0.7621"/>
<stop offset="0.3522" stop-color="#B279A4" stop-opacity="0.7346"/>
<stop offset="0.3871" stop-color="#B25A99" stop-opacity="0.7083"/>
<stop offset="0.4197" stop-color="#B42A8F" stop-opacity="0.6837"/>
<stop offset="0.4247" stop-color="#B41E8E" stop-opacity="0.68"/>
<stop offset="0.8999" stop-color="#602D91"/>
</linearGradient>
<linearGradient id="paint21_linear" x1="19.6745" y1="37.0101" x2="19.6745" y2="-7.0895e-05" gradientUnits="userSpaceOnUse">
<stop stop-color="#AFD4C4"/>
<stop offset="0.0214" stop-color="#AFCBC1" stop-opacity="0.9654"/>
<stop offset="0.0592" stop-color="#B0BABC" stop-opacity="0.9042"/>
<stop offset="0.1091" stop-color="#B19DB1" stop-opacity="0.8234"/>
<stop offset="0.1692" stop-color="#B274A2" stop-opacity="0.7263"/>
<stop offset="0.2371" stop-color="#B4308F" stop-opacity="0.6164"/>
<stop offset="0.2473" stop-color="#B41E8E" stop-opacity="0.6"/>
<stop offset="0.2944" stop-color="#A1238F" stop-opacity="0.6622"/>
<stop offset="0.3729" stop-color="#862990" stop-opacity="0.7658"/>
<stop offset="0.4445" stop-color="#722B90" stop-opacity="0.8602"/>
<stop offset="0.5061" stop-color="#652D91" stop-opacity="0.9414"/>
<stop offset="0.5505" stop-color="#602D91"/>
</linearGradient>
<linearGradient id="paint22_linear" x1="30.6245" y1="52.213" x2="30.6245" y2="12.6008" gradientUnits="userSpaceOnUse">
<stop offset="0.00127591" stop-color="#AFD4C4"/>
<stop offset="0.3856" stop-color="#B41E8E" stop-opacity="0.8"/>
<stop offset="0.8178" stop-color="#602D91"/>
</linearGradient>
<linearGradient id="paint23_linear" x1="51.522" y1="52.213" x2="51.522" y2="12.6008" gradientUnits="userSpaceOnUse">
<stop offset="0.00127591" stop-color="#AFD4C4"/>
<stop offset="0.3856" stop-color="#B41E8E" stop-opacity="0.8"/>
<stop offset="0.8178" stop-color="#602D91"/>
</linearGradient>
<linearGradient id="paint24_linear" x1="51.522" y1="37.0101" x2="51.522" y2="-1.45059e-05" gradientUnits="userSpaceOnUse">
<stop stop-color="#AFD4C4"/>
<stop offset="0.0214" stop-color="#AFCBC1" stop-opacity="0.9654"/>
<stop offset="0.0592" stop-color="#B0BABC" stop-opacity="0.9042"/>
<stop offset="0.1091" stop-color="#B19DB1" stop-opacity="0.8234"/>
<stop offset="0.1692" stop-color="#B274A2" stop-opacity="0.7263"/>
<stop offset="0.2371" stop-color="#B4308F" stop-opacity="0.6164"/>
<stop offset="0.2473" stop-color="#B41E8E" stop-opacity="0.6"/>
<stop offset="0.2944" stop-color="#A1238F" stop-opacity="0.6622"/>
<stop offset="0.3729" stop-color="#862990" stop-opacity="0.7658"/>
<stop offset="0.4445" stop-color="#722B90" stop-opacity="0.8602"/>
<stop offset="0.5061" stop-color="#652D91" stop-opacity="0.9414"/>
<stop offset="0.5505" stop-color="#602D91"/>
</linearGradient>
<linearGradient id="paint25_linear" x1="9.83565" y1="52.2131" x2="9.83565" y2="12.6009" gradientUnits="userSpaceOnUse">
<stop offset="0.00127591" stop-color="#AFD4C4"/>
<stop offset="0.3856" stop-color="#B41E8E" stop-opacity="0.8"/>
<stop offset="0.8178" stop-color="#602D91"/>
</linearGradient>
<linearGradient id="paint26_linear" x1="9.83565" y1="37.0102" x2="9.83565" y2="1.70959e-05" gradientUnits="userSpaceOnUse">
<stop stop-color="#AFD4C4"/>
<stop offset="0.0214" stop-color="#AFCBC1" stop-opacity="0.9654"/>
<stop offset="0.0592" stop-color="#B0BABC" stop-opacity="0.9042"/>
<stop offset="0.1091" stop-color="#B19DB1" stop-opacity="0.8234"/>
<stop offset="0.1692" stop-color="#B274A2" stop-opacity="0.7263"/>
<stop offset="0.2371" stop-color="#B4308F" stop-opacity="0.6164"/>
<stop offset="0.2473" stop-color="#B41E8E" stop-opacity="0.6"/>
<stop offset="0.2944" stop-color="#A1238F" stop-opacity="0.6622"/>
<stop offset="0.3729" stop-color="#862990" stop-opacity="0.7658"/>
<stop offset="0.4445" stop-color="#722B90" stop-opacity="0.8602"/>
<stop offset="0.5061" stop-color="#652D91" stop-opacity="0.9414"/>
<stop offset="0.5505" stop-color="#602D91"/>
</linearGradient>
<linearGradient id="paint27_linear" x1="30.6605" y1="68.4041" x2="30.6605" y2="17.5392" gradientUnits="userSpaceOnUse">
<stop stop-color="#AFD4C4"/>
<stop offset="0.0871" stop-color="#AFD1C3" stop-opacity="0.9344"/>
<stop offset="0.1444" stop-color="#AFCBC1" stop-opacity="0.8912"/>
<stop offset="0.193" stop-color="#B0C2BE" stop-opacity="0.8546"/>
<stop offset="0.2369" stop-color="#B0B6BA" stop-opacity="0.8215"/>
<stop offset="0.2775" stop-color="#B1A6B5" stop-opacity="0.7909"/>
<stop offset="0.3158" stop-color="#B191AD" stop-opacity="0.7621"/>
<stop offset="0.3522" stop-color="#B279A4" stop-opacity="0.7346"/>
<stop offset="0.3871" stop-color="#B25A99" stop-opacity="0.7083"/>
<stop offset="0.4197" stop-color="#B42A8F" stop-opacity="0.6837"/>
<stop offset="0.4247" stop-color="#B41E8E" stop-opacity="0.68"/>
<stop offset="0.8999" stop-color="#602D91"/>
</linearGradient>
<linearGradient id="paint28_linear" x1="30.6605" y1="52.213" x2="30.6605" y2="12.6009" gradientUnits="userSpaceOnUse">
<stop offset="0.00127591" stop-color="#AFD4C4"/>
<stop offset="0.3856" stop-color="#B41E8E" stop-opacity="0.8"/>
<stop offset="0.8178" stop-color="#602D91"/>
</linearGradient>
<clipPath id="clip0">
<rect width="267" height="114" fill="white"/>
</clipPath>
</defs>
</svg>
