<svg width="267" height="114" viewBox="0 0 267 114" fill="none" xmlns="http://www.w3.org/2000/svg">
<g clip-path="url(#clip0)">
<path d="M32.4244 18.8426C32.117 19.0213 31.8095 19.2064 31.5148 19.3851C30.9896 19.7106 30.3426 19.7106 29.8174 19.3851C29.5163 19.2 29.2089 19.0213 28.9014 18.8362C26.9413 20.3809 22.4447 24.2489 18.9473 29.6043C19.7223 30.1468 20.4846 30.6575 21.2276 31.1362C24.5521 26.0489 28.895 22.3149 30.6565 20.9106C32.3988 22.3021 36.6777 25.9723 39.9893 30.9766C40.7323 30.4915 41.4946 29.9809 42.2696 29.4383C38.7915 24.1723 34.3653 20.3745 32.4244 18.8426Z" fill="url(#paint0_linear)"/>
<path d="M44.3388 43.787C44.3388 52.7104 37.5554 60.6317 33.5135 64.5636C31.9442 66.0892 29.3948 66.0892 27.8254 64.5636C23.7836 60.6381 17.0002 52.7104 17.0002 43.787C17.0002 43.2828 17.0258 42.7849 17.0706 42.287C16.2827 41.3232 15.5141 40.3147 14.7775 39.2551C14.4636 40.7168 14.2778 42.2296 14.2778 43.787C14.2778 53.7062 21.5737 62.2722 25.923 66.4977C27.2297 67.7679 28.9464 68.4062 30.6631 68.4062C32.3797 68.4062 34.0964 67.7679 35.4031 66.4977C39.7525 62.2722 47.0483 53.6998 47.0483 43.787C47.0483 42.2296 46.8626 40.7232 46.5487 39.2551C45.8121 40.3147 45.0434 41.3232 44.2555 42.287C44.3132 42.7849 44.3388 43.2828 44.3388 43.787Z" fill="url(#paint1_linear)"/>
<path d="M40.835 32.3169C42.1545 34.5254 43.237 36.9637 43.8391 39.5488C44.5373 38.6232 45.2163 37.6594 45.8505 36.6637C45.1523 34.5701 44.1978 32.5977 43.1089 30.7786C42.3338 31.3211 41.578 31.8318 40.835 32.3169Z" fill="url(#paint2_linear)"/>
<path d="M18.121 30.9509C17.0705 32.719 16.1609 34.6339 15.4819 36.6637C16.1225 37.6594 16.7951 38.6233 17.4933 39.5488C18.0762 37.0275 19.1267 34.6531 20.3949 32.4892C19.6583 32.0041 18.8961 31.4871 18.121 30.9509Z" fill="url(#paint3_linear)"/>
<path d="M32.4244 18.8426C37.4847 15.8937 44.2041 13.3724 47.7399 15.332C49.6296 16.3851 50.5904 18.7341 50.5904 22.3213C50.5904 22.4362 50.584 22.5511 50.584 22.666C51.263 22.0086 51.9227 21.332 52.5569 20.6362C52.2558 17.1766 50.9747 14.7958 48.7328 13.5511C45.0688 11.5149 39.7203 13.0724 35.6143 14.9107C33.9297 16.4362 32.6102 17.6937 31.8735 18.4086C32.0273 18.5298 32.213 18.6766 32.4244 18.8426Z" fill="url(#paint4_linear)"/>
<path d="M10.966 25.3404C10.1974 24.651 9.45435 23.9425 8.72412 23.2148C8.96112 29.1191 11.5425 34.6148 14.7709 39.2553C14.9567 38.3744 15.2001 37.5063 15.4755 36.6638C13.2912 33.2361 11.5618 29.4 10.966 25.3404Z" fill="url(#paint5_linear)"/>
<path d="M13.5926 15.3382C14.4637 14.8531 15.527 14.6425 16.712 14.6425C20.3375 14.6425 25.084 16.6212 28.9017 18.8425C29.1131 18.6765 29.2924 18.5361 29.4397 18.4212C28.3956 17.4063 27.0953 16.1936 25.6285 14.8787C21.5354 13.0595 16.238 11.5404 12.5997 13.5574C10.2873 14.8404 8.99981 17.3489 8.75 20.9936C9.39695 21.6829 10.0631 22.3595 10.7549 23.017C10.7485 22.7872 10.7357 22.5574 10.7357 22.3276C10.7421 18.7404 11.7029 16.385 13.5926 15.3382Z" fill="url(#paint6_linear)"/>
<path d="M35.5315 48.3637C32.7579 50.7893 28.5751 50.7893 25.8015 48.3637C23.3867 46.251 20.2672 43.2127 17.4936 39.5488C17.2886 40.4424 17.1413 41.3616 17.0645 42.2871C19.6074 45.4084 22.2977 48.0063 24.4564 49.8893C26.2243 51.4339 28.447 52.2127 30.6633 52.2127C32.8796 52.2127 35.1023 51.4403 36.8702 49.8893C39.0289 48.0063 41.7192 45.4084 44.2622 42.2871C44.1853 41.3552 44.038 40.4424 43.833 39.5488C41.0658 43.2127 37.9463 46.251 35.5315 48.3637Z" fill="url(#paint7_linear)"/>
<path d="M50.4113 24.9764C49.8668 29.17 48.1053 33.1338 45.8506 36.6636C46.1324 37.5062 46.3694 38.3743 46.5616 39.2551C49.8604 34.519 52.4739 28.8892 52.6212 22.8445C51.9038 23.5785 51.1671 24.287 50.4113 24.9764Z" fill="url(#paint8_linear)"/>
<path d="M31.5152 19.3914C31.8099 19.2062 32.1174 19.0275 32.4248 18.8488C32.207 18.6765 32.0277 18.536 31.8804 18.4275C31.4768 18.8233 31.2334 19.0594 31.227 19.0722L30.6697 19.6339L30.106 19.0658C29.9011 18.8616 29.6769 18.6445 29.4463 18.4211C29.2989 18.536 29.1196 18.6701 28.9082 18.8424C29.2221 19.0211 29.5295 19.2062 29.8242 19.3914C30.343 19.7105 30.99 19.7105 31.5152 19.3914Z" fill="url(#paint9_linear)"/>
<path d="M31.5152 19.3914C31.8099 19.2062 32.1174 19.0275 32.4248 18.8488C32.207 18.6765 32.0277 18.536 31.8804 18.4275C31.4768 18.8233 31.2334 19.0594 31.227 19.0722L30.6697 19.6339L30.106 19.0658C29.9011 18.8616 29.6769 18.6445 29.4463 18.4211C29.2989 18.536 29.1196 18.6701 28.9082 18.8424C29.2221 19.0211 29.5295 19.2062 29.8242 19.3914C30.343 19.7105 30.99 19.7105 31.5152 19.3914Z" fill="#602D91"/>
<path d="M43.8389 39.5487C44.0438 40.4423 44.1912 41.3614 44.268 42.287C45.0559 41.3231 45.8246 40.3146 46.5612 39.2551C46.3755 38.3742 46.132 37.5061 45.8502 36.6636C45.2161 37.6593 44.5371 38.6231 43.8389 39.5487Z" fill="url(#paint10_linear)"/>
<path d="M43.8389 39.5487C44.0438 40.4423 44.1912 41.3614 44.268 42.287C45.0559 41.3231 45.8246 40.3146 46.5612 39.2551C46.3755 38.3742 46.132 37.5061 45.8502 36.6636C45.2161 37.6593 44.5371 38.6231 43.8389 39.5487Z" fill="url(#paint11_linear)"/>
<path d="M17.4933 39.5487C16.7951 38.6231 16.1161 37.6593 15.4819 36.6636C15.2001 37.5061 14.9631 38.3742 14.7773 39.2551C15.514 40.3146 16.2826 41.3231 17.0705 42.287C17.141 41.3551 17.2883 40.4423 17.4933 39.5487Z" fill="url(#paint12_linear)"/>
<path d="M17.4933 39.5487C16.7951 38.6231 16.1161 37.6593 15.4819 36.6636C15.2001 37.5061 14.9631 38.3742 14.7773 39.2551C15.514 40.3146 16.2826 41.3231 17.0705 42.287C17.141 41.3551 17.2883 40.4423 17.4933 39.5487Z" fill="url(#paint13_linear)"/>
<path d="M8.7563 20.9998C4.64398 16.602 1.58856 11.5339 1.58856 6.17218C1.58856 3.77219 2.19708 2.3041 3.40131 1.80623C3.79205 1.64665 4.23403 1.57006 4.72085 1.57006C9.61464 1.57006 19.1973 9.1275 25.6284 14.8786C27.7742 15.836 29.5934 16.8701 30.6631 17.5211C31.72 16.8764 33.5007 15.8615 35.6145 14.9169C37.4657 13.2381 39.7525 11.2467 42.1737 9.32538C52.1855 1.37857 56.1249 1.19984 57.5854 1.79984C58.7832 2.29133 59.3917 3.7658 59.3917 6.17857C59.3917 11.3935 56.4964 16.3339 52.557 20.6488C52.6019 21.1849 52.6339 21.7403 52.6339 22.3275C52.6339 22.4998 52.6275 22.6722 52.6211 22.8445C57.3355 18.0126 60.9803 12.3062 60.9803 6.17218C60.9803 3.05729 60.0451 1.09772 58.1939 0.338143C54.9847 -0.983134 49.4184 1.55729 41.1809 8.09346C36.4088 11.885 32.1427 15.9509 30.6631 17.3935C29.1642 15.9509 24.8405 11.8722 19.9979 8.07431C11.7669 1.6275 5.97632 -0.976751 2.79279 0.344526C0.941607 1.11687 0 3.07644 0 6.17218C0 12.4594 3.83048 18.3062 8.72428 23.2147C8.71147 22.9211 8.69865 22.6211 8.69865 22.3275C8.70506 21.8679 8.72428 21.4275 8.7563 20.9998Z" fill="url(#paint14_linear)"/>
<path d="M18.9475 29.6104C16.238 27.7275 13.3683 25.5062 10.7549 23.0232C10.7805 23.8019 10.851 24.5806 10.9599 25.3466C13.2979 27.4402 15.764 29.3232 18.1084 30.9572C18.3902 30.4913 18.6657 30.0445 18.9475 29.6104Z" fill="url(#paint15_linear)"/>
<path d="M34.321 34.4234C31.9253 35.7638 29.0557 35.7638 26.66 34.4234C25.1739 33.5872 23.2907 32.4829 21.2346 31.1425C20.9463 31.5829 20.6709 32.0298 20.4019 32.4829C22.4772 33.8361 24.3797 34.9532 25.885 35.7957C27.3262 36.6064 28.9083 37.0085 30.4905 37.0085C32.0727 37.0085 33.6548 36.6064 35.096 35.7957C36.6654 34.9149 38.6575 33.7404 40.8354 32.3106C40.5663 31.8574 40.2781 31.4106 39.9898 30.9766C37.844 32.3872 35.8711 33.5553 34.321 34.4234Z" fill="url(#paint16_linear)"/>
<path d="M42.2764 29.4381C42.5646 29.8722 42.84 30.319 43.1155 30.7722C45.5239 29.087 48.0477 27.1402 50.4177 24.97C50.5138 24.2105 50.5715 23.4445 50.5907 22.6658C47.958 25.2253 45.0371 27.5041 42.2764 29.4381Z" fill="url(#paint17_linear)"/>
<path d="M40.8353 32.3169C41.5783 31.8318 42.3342 31.3212 43.1092 30.7786C42.8338 30.3254 42.5583 29.8786 42.2701 29.4446C41.495 29.9871 40.7328 30.4978 39.9897 30.9829C40.2844 31.4169 40.5662 31.8637 40.8353 32.3169Z" fill="url(#paint18_linear)"/>
<path d="M40.8353 32.3169C41.5783 31.8318 42.3342 31.3212 43.1092 30.7786C42.8338 30.3254 42.5583 29.8786 42.2701 29.4446C41.495 29.9871 40.7328 30.4978 39.9897 30.9829C40.2844 31.4169 40.5662 31.8637 40.8353 32.3169Z" fill="url(#paint19_linear)"/>
<path d="M18.9475 29.6106C18.6592 30.0446 18.3838 30.4978 18.1147 30.951C18.8898 31.4936 19.6521 32.0042 20.3951 32.4829C20.6641 32.0234 20.9396 31.5766 21.2278 31.1425C20.4912 30.6574 19.7289 30.1468 18.9475 29.6106Z" fill="url(#paint20_linear)"/>
<path d="M18.9475 29.6106C18.6592 30.0446 18.3838 30.4978 18.1147 30.951C18.8898 31.4936 19.6521 32.0042 20.3951 32.4829C20.6641 32.0234 20.9396 31.5766 21.2278 31.1425C20.4912 30.6574 19.7289 30.1468 18.9475 29.6106Z" fill="url(#paint21_linear)"/>
<path d="M29.8688 18.1021L30.6631 17.534L31.4574 18.1021C31.5086 18.1404 31.6623 18.2489 31.8801 18.4148C32.6167 17.6999 33.9363 16.4425 35.6209 14.917C33.5071 15.8616 31.7264 16.8765 30.6695 17.5212C29.5998 16.8702 27.7806 15.8361 25.6348 14.8787C27.1016 16.1936 28.4019 17.4063 29.446 18.4212C29.6638 18.2553 29.8176 18.1404 29.8688 18.1021Z" fill="url(#paint22_linear)"/>
<path d="M29.8688 18.1021L30.6631 17.534L31.4574 18.1021C31.5086 18.1404 31.6623 18.2489 31.8801 18.4148C32.6167 17.6999 33.9363 16.4425 35.6209 14.917C33.5071 15.8616 31.7264 16.8765 30.6695 17.5212C29.5998 16.8702 27.7806 15.8361 25.6348 14.8787C27.1016 16.1936 28.4019 17.4063 29.446 18.4212C29.6638 18.2553 29.8176 18.1404 29.8688 18.1021Z" fill="#602D91"/>
<path d="M52.557 20.6489C51.9228 21.3447 51.2631 22.0149 50.5841 22.6787C50.5713 23.4511 50.5136 24.2234 50.4111 24.983C51.167 24.2936 51.9036 23.5851 52.6146 22.8511C52.621 22.6787 52.6274 22.5064 52.6274 22.334C52.6338 21.7404 52.6018 21.1851 52.557 20.6489Z" fill="url(#paint23_linear)"/>
<path d="M52.557 20.6489C51.9228 21.3447 51.2631 22.0149 50.5841 22.6787C50.5713 23.4511 50.5136 24.2234 50.4111 24.983C51.167 24.2936 51.9036 23.5851 52.6146 22.8511C52.621 22.6787 52.6274 22.5064 52.6274 22.334C52.6338 21.7404 52.6018 21.1851 52.557 20.6489Z" fill="url(#paint24_linear)"/>
<path d="M10.7612 23.0168C10.0694 22.3594 9.40328 21.6892 8.75632 20.9934C8.72429 21.4211 8.70508 21.8615 8.70508 22.3211C8.70508 22.6211 8.71789 22.9147 8.7307 23.2083C9.46092 23.936 10.2104 24.6509 10.9726 25.3338C10.8573 24.5743 10.7869 23.8019 10.7612 23.0168Z" fill="url(#paint25_linear)"/>
<path d="M10.7612 23.0168C10.0694 22.3594 9.40328 21.6892 8.75632 20.9934C8.72429 21.4211 8.70508 21.8615 8.70508 22.3211C8.70508 22.6211 8.71789 22.9147 8.7307 23.2083C9.46092 23.936 10.2104 24.6509 10.9726 25.3338C10.8573 24.5743 10.7869 23.8019 10.7612 23.0168Z" fill="url(#paint26_linear)"/>
<path d="M30.6634 19.6212L31.2207 19.0595C31.2335 19.0467 31.4705 18.8105 31.874 18.4148C31.6498 18.2488 31.5025 18.1339 31.4513 18.102L30.657 17.5339L29.8627 18.102C29.8115 18.1403 29.6577 18.2488 29.4399 18.4148C29.6705 18.6382 29.8947 18.8552 30.0997 19.0595L30.6634 19.6212Z" fill="url(#paint27_linear)"/>
<path d="M30.6634 19.6212L31.2207 19.0595C31.2335 19.0467 31.4705 18.8105 31.874 18.4148C31.6498 18.2488 31.5025 18.1339 31.4513 18.102L30.657 17.5339L29.8627 18.102C29.8115 18.1403 29.6577 18.2488 29.4399 18.4148C29.6705 18.6382 29.8947 18.8552 30.0997 19.0595L30.6634 19.6212Z" fill="url(#paint28_linear)"/>
<path d="M30.6634 19.6212L31.2207 19.0595C31.2335 19.0467 31.4705 18.8105 31.874 18.4148C31.6498 18.2488 31.5025 18.1339 31.4513 18.102L30.657 17.5339L29.8627 18.102C29.8115 18.1403 29.6577 18.2488 29.4399 18.4148C29.6705 18.6382 29.8947 18.8552 30.0997 19.0595L30.6634 19.6212Z" fill="#602D91"/>
<path d="M73.3303 52.5703C72.062 54.8554 70.7489 57.6001 70.7489 62.2724C70.7489 66.5554 71.7481 69.4278 73.3303 72.2873H72.3759C71.2036 70.3214 69.7944 67.0852 69.7944 62.2469C69.7944 57.5746 71.2549 54.4852 72.3759 52.5703H73.3303Z" fill="#58595B"/>
<path d="M75.0403 61.6151C75.0403 59.7193 75.0403 58.3725 75.0146 57.4661H75.9242C75.9498 57.8747 75.9755 58.3023 75.9755 59.2917C76.3918 57.9512 77.4167 57.3704 78.416 57.3193V58.4747C76.789 58.5002 75.9755 59.9044 75.9755 61.7874V69.5938H75.0403V61.6151Z" fill="#58595B"/>
<path d="M80.338 63.5682V65.7704C80.338 67.264 80.6071 68.9427 82.0996 68.9427C83.4575 68.9427 83.765 67.9278 83.765 66.4597V66.3193H84.7002V66.4406C84.7002 67.9853 84.3159 69.798 82.0547 69.798C80.1074 69.798 79.4028 68.4002 79.4028 65.9299V60.8363C79.4028 58.8065 80.1779 57.281 82.1252 57.281C84.207 57.281 84.7258 59.0044 84.7258 60.8619C84.7258 61.4682 84.7258 62.898 84.7258 63.581H80.338V63.5682ZM83.7906 62.7193V60.9129C83.7906 59.7704 83.6881 58.1236 82.0996 58.1236C80.5558 58.1236 80.338 59.4895 80.338 60.9385V62.7193H83.7906Z" fill="#58595B"/>
<path d="M86.7754 69.6V52.6724H87.7106V69.6H86.7754Z" fill="#58595B"/>
<path d="M95.4866 66.6001C95.4866 67.9469 95.4866 69.0831 95.5122 69.6001H94.6282C94.6026 69.4022 94.577 68.7512 94.577 68.2214C94.2567 69.3575 93.5713 69.7916 92.476 69.7916C91.6177 69.7916 90.1572 69.5682 90.1572 66.7533V57.4661H91.0924V66.5107C91.0924 68.2916 91.5536 68.9171 92.6426 68.9171C93.5649 68.9171 94.5514 68.3873 94.5514 65.2852V57.4661H95.4866V66.6001Z" fill="#58595B"/>
<path d="M103.078 69.7981C103.078 72.0193 102.783 73.9215 100.182 73.9215C98.0237 73.9215 97.5562 72.3385 97.5562 71.0491V70.9789H98.517V71.0746C98.517 71.9619 98.8501 73.0725 100.234 73.0725C101.758 73.0725 102.142 71.9619 102.142 69.9832V68.1768C101.803 69.1661 101.169 69.6002 100.029 69.6002C98.549 69.6002 97.5882 68.6364 97.5882 65.981V60.7981C97.5882 58.1491 98.8372 57.2747 100.272 57.2747C101.489 57.2747 102.098 57.9513 102.245 58.513C102.245 58.1938 102.296 57.7789 102.322 57.4661H103.129C103.103 58.0534 103.078 59.2406 103.078 60.83V69.7981ZM98.5426 60.8172V65.8725C98.5426 67.7746 99.0743 68.6874 100.138 68.6874C101.899 68.6874 102.162 66.7023 102.162 64.9087V61.2959C102.162 59.5151 101.97 58.1683 100.33 58.1683C99.0038 58.1747 98.5426 59.2278 98.5426 60.8172Z" fill="#58595B"/>
<path d="M110.693 60.6064V66.1212C110.693 68.7893 109.496 69.7915 107.901 69.7915C106.35 69.7915 105.178 68.8596 105.178 66.2425V60.6319C105.178 58.6021 106.139 57.2744 107.971 57.2744C109.854 57.2681 110.693 58.5829 110.693 60.6064ZM106.133 60.651V66.2681C106.133 67.9532 106.735 68.9425 107.92 68.9425C109.009 68.9425 109.733 68.2404 109.733 66.2681V60.6574C109.733 59.1893 109.182 58.1298 107.945 58.1298C106.664 58.1234 106.133 59.0617 106.133 60.651Z" fill="#58595B"/>
<path d="M112.794 69.6V52.6724H113.73V69.6H112.794Z" fill="#58595B"/>
<path d="M116.202 52.6724H117.137V55.0085H116.202V52.6724ZM116.202 57.466H117.137V69.6H116.202V57.466Z" fill="#58595B"/>
<path d="M119.597 57.4661C120.756 60.498 121.217 61.615 121.461 62.3171H121.486C121.8 61.4937 122.505 59.9682 123.447 57.4661H124.433L122.018 63.1661L124.459 69.6001H123.447C122.313 66.6065 121.756 64.9852 121.512 64.2384H121.486C121.198 65.0107 120.494 66.8235 119.482 69.6001H118.495L120.98 63.2937L118.591 57.4661H119.597Z" fill="#58595B"/>
<path d="M125.241 72.0895C125.804 70.6406 126.362 68.6235 126.432 66.5044H127.316C127.265 68.3044 126.727 70.6342 126.016 72.0895H125.241Z" fill="#58595B"/>
<path d="M133.106 63.5682V65.7704C133.106 67.264 133.375 68.9427 134.868 68.9427C136.226 68.9427 136.533 67.9278 136.533 66.4597V66.3193H137.468V66.4406C137.468 67.9853 137.084 69.798 134.823 69.798C132.876 69.798 132.171 68.4002 132.171 65.9299V60.8363C132.171 58.8065 132.946 57.281 134.893 57.281C136.975 57.281 137.494 59.0044 137.494 60.8619C137.494 61.4682 137.494 62.898 137.494 63.581H133.106V63.5682ZM136.559 62.7193V60.9129C136.559 59.7704 136.456 58.1236 134.868 58.1236C133.324 58.1236 133.106 59.4895 133.106 60.9385V62.7193H136.559Z" fill="#58595B"/>
<path d="M139.973 66.1917V66.7023C139.973 68.33 140.716 68.9428 141.683 68.9428C142.887 68.9428 143.349 68.1768 143.349 66.7342C143.349 65.1513 142.868 64.5704 141.574 63.6959C139.992 62.63 139.281 61.8002 139.281 60.1725C139.281 58.6534 139.903 57.2747 141.76 57.2747C143.765 57.2747 144.169 58.7491 144.169 60.1534V60.7789H143.233V60.1917C143.233 58.9661 142.919 58.1236 141.715 58.1236C140.678 58.1236 140.242 58.8193 140.242 60.0704C140.242 61.2959 140.607 61.8257 141.939 62.7449C143.368 63.7215 144.316 64.5513 144.316 66.5619C144.316 68.63 143.502 69.7981 141.619 69.7981C139.608 69.7981 139.019 68.3619 139.019 66.7534V66.1981H139.973V66.1917Z" fill="#58595B"/>
<path d="M145.027 57.4661H146.532V54.4087H147.442V57.4661H149.357V58.3215H147.442V67.5002C147.442 68.1768 147.589 68.9236 148.39 68.9236C148.633 68.9236 149.043 68.8981 149.261 68.8534V69.6321C148.941 69.7342 148.473 69.7534 148.108 69.7534C147.288 69.7534 146.532 69.2683 146.532 67.6789V58.3151H145.027V57.4661Z" fill="#58595B"/>
<path d="M150.619 61.6151C150.619 59.7193 150.619 58.3725 150.594 57.4661H151.503C151.529 57.8747 151.555 58.3023 151.555 59.2917C151.971 57.9512 152.996 57.3704 153.995 57.3193V58.4747C152.368 58.5002 151.555 59.9044 151.555 61.7874V69.5938H150.619V61.6151Z" fill="#58595B"/>
<path d="M159.907 67.9023C159.907 68.7959 159.933 69.3449 159.958 69.5938H159.049C158.978 69.23 158.953 68.7449 158.953 68.5087C158.587 69.5683 157.736 69.7917 156.98 69.7917C155.295 69.7917 154.635 68.381 154.635 66.4598V66.2427C154.635 63.7534 156.012 62.5981 158.158 62.5981C158.421 62.5981 158.613 62.5981 158.953 62.5981V60.2874C158.953 59.03 158.69 58.1683 157.505 58.1683C156.32 58.1683 155.961 59.0555 155.961 60.2172V60.6704H155.026V60.2172C155.026 58.5895 155.686 57.2747 157.531 57.2747C159.414 57.2747 159.913 58.6342 159.913 60.2427V67.9023H159.907ZM158.972 63.447C158.78 63.447 158.414 63.447 158.177 63.447C156.512 63.447 155.59 64.1938 155.59 66.1981V66.4151C155.59 67.7364 155.955 68.8917 157.114 68.8917C158.562 68.8917 158.972 67.647 158.972 65.6427V63.447Z" fill="#58595B"/>
<path d="M167.549 52.6724V66.7277C167.549 67.7426 167.549 68.8979 167.574 69.6H166.691C166.665 69.4532 166.639 68.7702 166.639 68.3617C166.396 69.0702 165.858 69.7915 164.545 69.7915C162.636 69.7915 162.034 68.3043 162.034 66V60.7915C162.034 58.6085 162.93 57.2681 164.718 57.2681C165.999 57.2681 166.421 57.8873 166.62 58.2383V52.6724H167.549ZM162.995 60.8426V65.9107C162.995 67.9022 163.501 68.8915 164.641 68.8915C166.21 68.8915 166.62 67.3277 166.62 65.3553V61.0979C166.62 59.7383 166.473 58.1809 164.711 58.1809C163.526 58.1745 162.995 59.2085 162.995 60.8426Z" fill="#58595B"/>
<path d="M170.015 52.6724H170.95V55.0085H170.015V52.6724ZM170.015 57.466H170.95V69.6H170.015V57.466Z" fill="#58595B"/>
<path d="M178.579 60.6064V66.1212C178.579 68.7893 177.381 69.7915 175.786 69.7915C174.236 69.7915 173.064 68.8596 173.064 66.2425V60.6319C173.064 58.6021 174.025 57.2744 175.857 57.2744C177.74 57.2681 178.579 58.5829 178.579 60.6064ZM174.018 60.651V66.2681C174.018 67.9532 174.62 68.9425 175.806 68.9425C176.894 68.9425 177.618 68.2404 177.618 66.2681V60.6574C177.618 59.1893 177.067 58.1298 175.831 58.1298C174.55 58.1234 174.018 59.0617 174.018 60.651Z" fill="#58595B"/>
<path d="M180.68 69.6V52.6724H181.615V69.6H180.68Z" fill="#58595B"/>
<path d="M183.172 72.0895C183.736 70.6406 184.293 68.6235 184.363 66.5044H185.247C185.196 68.3044 184.658 70.6342 183.947 72.0895H183.172Z" fill="#58595B"/>
<path d="M195.246 67.9023C195.246 68.7959 195.271 69.3449 195.297 69.5938H194.388C194.317 69.23 194.291 68.7449 194.291 68.5087C193.926 69.5683 193.074 69.7917 192.319 69.7917C190.634 69.7917 189.974 68.381 189.974 66.4598V66.2427C189.974 63.7534 191.351 62.5981 193.497 62.5981C193.76 62.5981 193.952 62.5981 194.291 62.5981V60.2874C194.291 59.03 194.029 58.1683 192.844 58.1683C191.659 58.1683 191.3 59.0555 191.3 60.2172V60.6704H190.365V60.2172C190.365 58.5895 191.025 57.2747 192.869 57.2747C194.753 57.2747 195.252 58.6342 195.252 60.2427V67.9023H195.246ZM194.317 63.447C194.125 63.447 193.76 63.447 193.523 63.447C191.857 63.447 190.935 64.1938 190.935 66.1981V66.4151C190.935 67.7364 191.3 68.8917 192.459 68.8917C193.907 68.8917 194.317 67.647 194.317 65.6427V63.447Z" fill="#58595B"/>
<path d="M197.738 61.1043C197.738 58.6979 197.738 58.117 197.712 57.4596H198.596C198.621 57.7277 198.647 58.0915 198.647 58.7872C199.012 57.7021 199.813 57.2617 200.863 57.2617C202.042 57.2617 203.157 57.8745 203.157 60.0383V69.5936H202.221V60.2426C202.221 58.9851 201.805 58.1681 200.697 58.1681C199.512 58.1681 198.666 58.7234 198.666 61.7043V69.5936H197.731V61.1043H197.738Z" fill="#58595B"/>
<path d="M210.779 52.6724V66.7277C210.779 67.7426 210.779 68.8979 210.805 69.6H209.921C209.895 69.4532 209.87 68.7702 209.87 68.3617C209.626 69.0702 209.088 69.7915 207.775 69.7915C205.866 69.7915 205.264 68.3043 205.264 66V60.7915C205.264 58.6085 206.161 57.2681 207.948 57.2681C209.229 57.2681 209.652 57.8873 209.85 58.2383V52.6724H210.779ZM206.219 60.8426V65.9107C206.219 67.9022 206.725 68.8915 207.865 68.8915C209.434 68.8915 209.844 67.3277 209.844 65.3553V61.0979C209.844 59.7383 209.697 58.1809 207.935 58.1809C206.75 58.1745 206.219 59.2085 206.219 60.8426Z" fill="#58595B"/>
<path d="M70.0569 84.083C70.0569 81.6766 70.0569 81.0958 70.0312 80.4383H70.9152C70.9408 80.7064 70.9665 81.0703 70.9665 81.766C71.3316 80.6809 72.1322 80.2405 73.1827 80.2405C74.3614 80.2405 75.4759 80.8532 75.4759 83.0171V92.5724H74.5407V83.2213C74.5407 81.9639 74.1244 81.1469 73.0162 81.1469C71.8312 81.1469 70.9857 81.7022 70.9857 84.683V92.5724H70.0505V84.083H70.0569Z" fill="#58595B"/>
<path d="M83.0918 83.5851V89.1C83.0918 91.7681 81.8939 92.7702 80.299 92.7702C78.7489 92.7702 77.5767 91.8383 77.5767 89.2213V83.6106C77.5767 81.5809 78.5375 80.2532 80.3694 80.2532C82.2527 80.2468 83.0918 81.5617 83.0918 83.5851ZM78.5311 83.6298V89.2468C78.5311 90.9319 79.1332 91.9213 80.3182 91.9213C81.4071 91.9213 82.131 91.2192 82.131 89.2468V83.6362C82.131 82.1681 81.5801 81.1085 80.3438 81.1085C79.0627 81.1021 78.5311 82.0404 78.5311 83.6298Z" fill="#58595B"/>
<path d="M85.1931 84.5936C85.1931 82.6979 85.1931 81.351 85.1675 80.4447H86.0771C86.1027 80.8532 86.1283 81.2808 86.1283 82.2702C86.5447 80.9298 87.5695 80.3489 88.5688 80.2979V81.4532C86.9418 81.4787 86.1283 82.883 86.1283 84.7659V92.5723H85.1931V84.5936Z" fill="#58595B"/>
<path d="M90.484 86.547V88.7491C90.484 90.2427 90.7531 91.9215 92.2455 91.9215C93.6035 91.9215 93.911 90.9066 93.911 89.4385V89.2981H94.8462V89.4193C94.8462 90.964 94.4618 92.7768 92.2007 92.7768C90.2534 92.7768 89.5488 91.3789 89.5488 88.9087V83.8151C89.5488 81.7853 90.3239 80.2598 92.2712 80.2598C94.3529 80.2598 94.8718 81.9832 94.8718 83.8406C94.8718 84.447 94.8718 85.8768 94.8718 86.5598H90.484V86.547ZM93.943 85.6981V83.8917C93.943 82.7491 93.8405 81.1023 92.2519 81.1023C90.7082 81.1023 90.4904 82.4683 90.4904 83.9172V85.6981H93.943Z" fill="#58595B"/>
<path d="M95.8325 80.4449H97.3378V77.3875H98.2474V80.4449H100.163V81.3002H98.2474V90.479C98.2474 91.1556 98.3947 91.9024 99.1954 91.9024C99.4388 91.9024 99.8488 91.8768 100.067 91.8321V92.6109C99.7463 92.713 99.2787 92.7321 98.9136 92.7321C98.0937 92.7321 97.3378 92.247 97.3378 90.6577V81.3066H95.8325V80.4449Z" fill="#58595B"/>
<path d="M102.367 75.6511V81.6256C102.61 80.9235 103.34 80.2469 104.558 80.2469C106.338 80.2469 106.851 81.5809 106.851 83.3554V92.5788H105.916V83.5596C105.916 82.4235 105.813 81.1532 104.391 81.1532C102.706 81.1532 102.367 82.5447 102.367 84.7086V92.5788H101.432V75.6511H102.367Z" fill="#58595B"/>
<path d="M109.316 75.6511H110.251V77.9873H109.316V75.6511ZM109.316 80.4447H110.251V92.5788H109.316V80.4447Z" fill="#58595B"/>
<path d="M112.724 84.083C112.724 81.6766 112.724 81.0958 112.698 80.4383H113.582C113.608 80.7064 113.633 81.0703 113.633 81.766C113.999 80.6809 114.799 80.2405 115.85 80.2405C117.028 80.2405 118.143 80.8532 118.143 83.0171V92.5724H117.208V83.2213C117.208 81.9639 116.791 81.1469 115.683 81.1469C114.498 81.1469 113.653 81.7022 113.653 84.683V92.5724H112.717V84.083H112.724Z" fill="#58595B"/>
<path d="M125.759 75.6511V89.7065C125.759 90.7213 125.759 91.8767 125.785 92.5788H124.901C124.875 92.432 124.85 91.749 124.85 91.3405C124.606 92.049 124.068 92.7703 122.755 92.7703C120.846 92.7703 120.244 91.2831 120.244 88.9788V83.7703C120.244 81.5873 121.141 80.2469 122.928 80.2469C124.209 80.2469 124.632 80.866 124.83 81.2171V75.6511H125.759ZM121.205 83.8214V88.8894C121.205 90.8809 121.711 91.8703 122.851 91.8703C124.421 91.8703 124.83 90.3065 124.83 88.3341V84.0767C124.83 82.7171 124.683 81.1596 122.922 81.1596C121.73 81.1533 121.205 82.1873 121.205 83.8214Z" fill="#58595B"/>
<path d="M128.225 84.5936C128.225 82.6979 128.225 81.351 128.2 80.4447H129.109C129.135 80.8532 129.161 81.2808 129.161 82.2702C129.577 80.9298 130.602 80.3489 131.601 80.2979V81.4532C129.974 81.4787 129.161 82.883 129.161 84.7659V92.5723H128.225V84.5936Z" fill="#58595B"/>
<path d="M138.102 83.5851V89.1C138.102 91.7681 136.905 92.7702 135.31 92.7702C133.76 92.7702 132.587 91.8383 132.587 89.2213V83.6106C132.587 81.5809 133.548 80.2532 135.38 80.2532C137.263 80.2468 138.102 81.5617 138.102 83.5851ZM133.542 83.6298V89.2468C133.542 90.9319 134.144 91.9213 135.329 91.9213C136.418 91.9213 137.142 91.2192 137.142 89.2468V83.6362C137.142 82.1681 136.591 81.1085 135.355 81.1085C134.073 81.1021 133.542 82.0404 133.542 83.6298Z" fill="#58595B"/>
<path d="M140.204 84.083C140.204 81.6766 140.204 81.0958 140.178 80.4383H141.062C141.088 80.7064 141.113 81.0703 141.113 81.766C141.479 80.6809 142.279 80.2405 143.33 80.2405C144.508 80.2405 145.623 80.8532 145.623 83.0171V92.5724H144.688V83.2213C144.688 81.9639 144.271 81.1469 143.163 81.1469C141.978 81.1469 141.133 81.7022 141.133 84.683V92.5724H140.197V84.083H140.204Z" fill="#58595B"/>
<path d="M148.659 86.547V88.7491C148.659 90.2427 148.928 91.9215 150.42 91.9215C151.778 91.9215 152.086 90.9066 152.086 89.4385V89.2981H153.021V89.4193C153.021 90.964 152.637 92.7768 150.376 92.7768C148.428 92.7768 147.724 91.3789 147.724 88.9087V83.8151C147.724 81.7853 148.499 80.2598 150.446 80.2598C152.528 80.2598 153.047 81.9832 153.047 83.8406C153.047 84.447 153.047 85.8768 153.047 86.5598H148.659V86.547ZM152.111 85.6981V83.8917C152.111 82.7491 152.009 81.1023 150.42 81.1023C148.877 81.1023 148.659 82.4683 148.659 83.9172V85.6981H152.111Z" fill="#58595B"/>
<path d="M163.219 90.8808C163.219 91.7745 163.244 92.3234 163.27 92.5723H162.36C162.29 92.2085 162.264 91.7234 162.264 91.4872C161.899 92.5468 161.047 92.7702 160.291 92.7702C158.607 92.7702 157.947 91.3596 157.947 89.4383V89.2213C157.947 86.7319 159.324 85.5766 161.47 85.5766C161.732 85.5766 161.925 85.5766 162.264 85.5766V83.2659C162.264 82.0085 162.001 81.1468 160.816 81.1468C159.631 81.1468 159.273 82.034 159.273 83.1957V83.6489H158.338V83.1957C158.338 81.5681 158.997 80.2532 160.842 80.2532C162.725 80.2532 163.225 81.6127 163.225 83.2213V90.8808H163.219ZM162.283 86.4255C162.091 86.4255 161.726 86.4255 161.489 86.4255C159.824 86.4255 158.901 87.1723 158.901 89.1766V89.3936C158.901 90.7149 159.266 91.8702 160.426 91.8702C161.873 91.8702 162.283 90.6255 162.283 88.6213V86.4255Z" fill="#58595B"/>
<path d="M170.566 88.9532V89.1255C170.566 91.117 170.053 92.7766 167.92 92.7766C165.999 92.7766 165.345 91.3851 165.345 88.9787V83.6872C165.345 81.5553 166.191 80.2532 168.016 80.2532C169.989 80.2532 170.566 81.7276 170.566 83.4638V83.9936H169.605V83.6744C169.605 82.3978 169.387 81.1021 167.991 81.1021C166.806 81.1021 166.3 81.9702 166.3 83.8404V88.9915C166.3 90.3638 166.562 91.9212 167.939 91.9212C169.099 91.9212 169.605 91.2447 169.605 89.1319V88.9532H170.566Z" fill="#58595B"/>
<path d="M173.141 86.547V88.7491C173.141 90.2427 173.41 91.9215 174.902 91.9215C176.26 91.9215 176.568 90.9066 176.568 89.4385V89.2981H177.503V89.4193C177.503 90.964 177.119 92.7768 174.857 92.7768C172.91 92.7768 172.206 91.3789 172.206 88.9087V83.8151C172.206 81.7853 172.981 80.2598 174.928 80.2598C177.01 80.2598 177.529 81.9832 177.529 83.8406C177.529 84.447 177.529 85.8768 177.529 86.5598H173.141V86.547ZM176.6 85.6981V83.8917C176.6 82.7491 176.497 81.1023 174.909 81.1023C173.365 81.1023 173.147 82.4683 173.147 83.9172V85.6981H176.6Z" fill="#58595B"/>
<path d="M178.496 80.4449H180.001V77.3875H180.91V80.4449H182.826V81.3002H180.91V90.479C180.91 91.1556 181.058 91.9024 181.858 91.9024C182.102 91.9024 182.512 91.8768 182.73 91.8321V92.6109C182.409 92.713 181.942 92.7321 181.577 92.7321C180.757 92.7321 180.001 92.247 180.001 90.6577V81.3066H178.496V80.4449Z" fill="#58595B"/>
<path d="M189.02 90.8808C189.02 91.7745 189.045 92.3234 189.071 92.5723H188.161C188.091 92.2085 188.065 91.7234 188.065 91.4872C187.7 92.5468 186.848 92.7702 186.092 92.7702C184.408 92.7702 183.748 91.3596 183.748 89.4383V89.2213C183.748 86.7319 185.125 85.5766 187.271 85.5766C187.534 85.5766 187.726 85.5766 188.065 85.5766V83.2659C188.065 82.0085 187.803 81.1468 186.618 81.1468C185.433 81.1468 185.074 82.034 185.074 83.1957V83.6489H184.139V83.1957C184.139 81.5681 184.799 80.2532 186.643 80.2532C188.527 80.2532 189.026 81.6127 189.026 83.2213V90.8808H189.02ZM188.085 86.4255C187.892 86.4255 187.527 86.4255 187.29 86.4255C185.625 86.4255 184.702 87.1723 184.702 89.1766V89.3936C184.702 90.7149 185.068 91.8702 186.227 91.8702C187.675 91.8702 188.085 90.6255 188.085 88.6213V86.4255Z" fill="#58595B"/>
<path d="M190.173 80.4449H191.678V77.3875H192.588V80.4449H194.503V81.3002H192.588V90.479C192.588 91.1556 192.735 91.9024 193.536 91.9024C193.779 91.9024 194.189 91.8768 194.407 91.8321V92.6109C194.087 92.713 193.619 92.7321 193.254 92.7321C192.434 92.7321 191.678 92.247 191.678 90.6577V81.3066H190.173V80.4449Z" fill="#58595B"/>
<path d="M196.341 86.547V88.7491C196.341 90.2427 196.61 91.9215 198.103 91.9215C199.461 91.9215 199.768 90.9066 199.768 89.4385V89.2981H200.704V89.4193C200.704 90.964 200.319 92.7768 198.058 92.7768C196.111 92.7768 195.406 91.3789 195.406 88.9087V83.8151C195.406 81.7853 196.181 80.2598 198.129 80.2598C200.21 80.2598 200.729 81.9832 200.729 83.8406C200.729 84.447 200.729 85.8768 200.729 86.5598H196.341V86.547ZM199.794 85.6981V83.8917C199.794 82.7491 199.692 81.1023 198.103 81.1023C196.559 81.1023 196.341 82.4683 196.341 83.9172V85.6981H199.794Z" fill="#58595B"/>
<path d="M201.952 95.2661C203.22 92.981 204.534 90.2363 204.534 85.564C204.534 81.281 203.534 78.4086 201.952 75.5491H202.907C204.079 77.515 205.488 80.7512 205.488 85.5895C205.488 90.2618 204.028 93.3512 202.907 95.2661H201.952Z" fill="#58595B"/>
<path d="M209.767 80.4449H211.272V77.3875H212.181V80.4449H214.097V81.3002H212.181V90.479C212.181 91.1556 212.329 91.9024 213.129 91.9024C213.373 91.9024 213.783 91.8768 214.001 91.8321V92.6109C213.68 92.713 213.213 92.7321 212.848 92.7321C212.028 92.7321 211.272 92.247 211.272 90.6577V81.3066H209.767V80.4449Z" fill="#58595B"/>
<path d="M220.298 90.8808C220.298 91.7745 220.323 92.3234 220.349 92.5723H219.439C219.369 92.2085 219.343 91.7234 219.343 91.4872C218.978 92.5468 218.126 92.7702 217.37 92.7702C215.686 92.7702 215.026 91.3596 215.026 89.4383V89.2213C215.026 86.7319 216.403 85.5766 218.549 85.5766C218.812 85.5766 219.004 85.5766 219.343 85.5766V83.2659C219.343 82.0085 219.081 81.1468 217.896 81.1468C216.711 81.1468 216.352 82.034 216.352 83.1957V83.6489H215.417V83.1957C215.417 81.5681 216.076 80.2532 217.921 80.2532C219.804 80.2532 220.304 81.6127 220.304 83.2213V90.8808H220.298ZM219.362 86.4255C219.17 86.4255 218.805 86.4255 218.568 86.4255C216.903 86.4255 215.98 87.1723 215.98 89.1766V89.3936C215.98 90.7149 216.345 91.8702 217.505 91.8702C218.952 91.8702 219.362 90.6255 219.362 88.6213V86.4255Z" fill="#58595B"/>
<path d="M222.79 75.6511H223.725V81.6511C223.994 80.8979 224.609 80.2469 225.916 80.2469C227.6 80.2469 228.305 81.6064 228.305 83.6043V88.8001C228.305 90.9767 227.748 92.7256 225.672 92.7256C224.577 92.7256 223.917 92.1639 223.648 91.3213C223.648 91.8511 223.648 92.1703 223.597 92.5788H222.764C222.79 92.0362 222.79 90.9447 222.79 89.2788V75.6511ZM227.344 88.9277V83.732C227.344 82.066 226.864 81.1533 225.704 81.1533C223.898 81.1533 223.699 83.0235 223.699 84.9958V88.4043C223.699 90.7596 224.257 91.8192 225.627 91.8192C226.761 91.8192 227.344 90.9064 227.344 88.9277Z" fill="#58595B"/>
<path d="M230.405 92.5788V75.6511H231.341V92.5788H230.405Z" fill="#58595B"/>
<path d="M234.383 86.547V88.7491C234.383 90.2427 234.652 91.9215 236.145 91.9215C237.503 91.9215 237.81 90.9066 237.81 89.4385V89.2981H238.746V89.4193C238.746 90.964 238.361 92.7768 236.1 92.7768C234.153 92.7768 233.448 91.3789 233.448 88.9087V83.8151C233.448 81.7853 234.223 80.2598 236.171 80.2598C238.252 80.2598 238.771 81.9832 238.771 83.8406C238.771 84.447 238.771 85.8768 238.771 86.5598H234.383V86.547ZM237.836 85.6981V83.8917C237.836 82.7491 237.733 81.1023 236.145 81.1023C234.601 81.1023 234.383 82.4683 234.383 83.9172V85.6981H237.836Z" fill="#58595B"/>
<path d="M239.732 80.4449H241.238V77.3875H242.147V80.4449H244.062V81.3002H242.147V90.479C242.147 91.1556 242.295 91.9024 243.095 91.9024C243.339 91.9024 243.749 91.8768 243.966 91.8321V92.6109C243.646 92.713 243.179 92.7321 242.813 92.7321C241.994 92.7321 241.238 92.247 241.238 90.6577V81.3066H239.732V80.4449Z" fill="#58595B"/>
<path d="M245.849 89.1702V89.6808C245.849 91.3085 246.592 91.9212 247.559 91.9212C248.763 91.9212 249.225 91.1553 249.225 89.7127C249.225 88.1298 248.744 87.5489 247.45 86.6744C245.868 85.6085 245.157 84.7787 245.157 83.151C245.157 81.6319 245.778 80.2532 247.636 80.2532C249.641 80.2532 250.045 81.7276 250.045 83.1319V83.7574H249.109V83.1702C249.109 81.9447 248.795 81.1021 247.591 81.1021C246.554 81.1021 246.118 81.7979 246.118 83.0489C246.118 84.2744 246.483 84.8042 247.815 85.7234C249.244 86.7 250.192 87.5298 250.192 89.5404C250.192 91.6085 249.378 92.7766 247.495 92.7766C245.484 92.7766 244.895 91.3404 244.895 89.7319V89.1766H245.849V89.1702Z" fill="#58595B"/>
<path d="M72.9972 111.23V108.351H70.1211V107.789L72.7858 101.145H73.7402V107.681H74.5665L74.4832 108.351H73.7402V111.23H72.9972ZM72.9972 104.815C72.9972 103.896 73.0164 102.97 73.0484 102.064H73.0356C72.395 103.877 71.6008 105.906 70.909 107.675H72.9972V104.815Z" fill="#58595B"/>
<path d="M79.3899 103.5V108.887C79.3899 110.738 78.5957 111.351 77.4042 111.351C76.3217 111.351 75.4634 110.764 75.4634 108.913V103.532C75.4634 101.528 76.4562 101.017 77.4555 101.017C78.4291 101.017 79.3899 101.521 79.3899 103.5ZM76.2384 103.5V108.913C76.2384 110.094 76.61 110.623 77.4427 110.623C78.1601 110.623 78.6149 110.266 78.6149 108.881V103.506C78.6149 102.16 78.1024 101.758 77.4299 101.758C76.7445 101.751 76.2384 102.096 76.2384 103.5Z" fill="#58595B"/>
<path d="M82.8937 105.658C82.8937 104.336 82.8937 103.813 82.8809 103.417H83.6047C83.6367 103.641 83.6367 103.928 83.6431 104.183C83.8481 103.653 84.2516 103.296 84.9562 103.296C85.5327 103.296 85.9811 103.526 86.1477 104.241C86.3654 103.73 86.7754 103.296 87.5504 103.296C88.255 103.296 88.9725 103.577 88.9725 105.07V111.23H88.2102V105.255C88.2102 104.598 88.1077 104.017 87.3775 104.017C86.5128 104.017 86.3206 104.834 86.3206 105.728V111.23H85.5519V105.338C85.5519 104.407 85.3342 104.017 84.6936 104.017C83.8609 104.017 83.6623 104.86 83.6623 105.849V111.23H82.9001V105.658H82.8937Z" fill="#58595B"/>
<path d="M93.9877 111.262C93.9877 112.743 93.8019 114 92.034 114C90.5672 114 90.2661 112.96 90.2661 112.124V112.079H91.0412V112.136C91.0412 112.647 91.2333 113.33 92.0789 113.33C93.0013 113.33 93.2254 112.653 93.2254 111.428V110.317C93.0077 110.917 92.5977 111.198 91.8739 111.198C90.8426 111.198 90.2725 110.496 90.2725 108.849V105.581C90.2725 103.985 91.0092 103.296 92.0276 103.296C92.8155 103.296 93.1998 103.724 93.3023 104.094C93.3023 103.883 93.3343 103.609 93.3536 103.417H94.0133C94.0005 103.813 93.9813 104.553 93.9813 105.549V111.262H93.9877ZM91.0476 105.613V108.779C91.0476 109.928 91.3614 110.49 92.0148 110.49C93.0717 110.49 93.2319 109.341 93.2319 108.217V105.9C93.2319 104.834 93.1166 104.017 92.1365 104.017C91.3422 104.017 91.0476 104.63 91.0476 105.613Z" fill="#58595B"/>
<path d="M94.8721 112.8C95.2628 111.798 95.6023 110.477 95.6407 109.194H96.3518C96.3197 110.387 95.9482 111.881 95.4806 112.8H94.8721Z" fill="#58595B"/>
<path d="M100.214 111.23V102.077C99.9322 102.262 99.2405 102.517 98.9458 102.568V101.93C99.4839 101.777 100.188 101.343 100.432 101.074H100.976V111.23H100.214Z" fill="#58595B"/>
<path d="M104.871 105.658C104.871 104.336 104.871 103.813 104.858 103.417H105.582C105.614 103.641 105.614 103.928 105.62 104.183C105.825 103.653 106.229 103.296 106.933 103.296C107.51 103.296 107.958 103.526 108.125 104.241C108.342 103.73 108.752 103.296 109.528 103.296C110.232 103.296 110.95 103.577 110.95 105.07V111.23H110.187V105.255C110.187 104.598 110.085 104.017 109.355 104.017C108.49 104.017 108.298 104.834 108.298 105.728V111.23H107.529V105.338C107.529 104.407 107.311 104.017 106.671 104.017C105.838 104.017 105.639 104.86 105.639 105.849V111.23H104.877V105.658H104.871Z" fill="#58595B"/>
<path d="M115.965 111.262C115.965 112.743 115.779 114 114.012 114C112.545 114 112.244 112.96 112.244 112.124V112.079H113.019V112.136C113.019 112.647 113.211 113.33 114.056 113.33C114.979 113.33 115.203 112.653 115.203 111.428V110.317C114.985 110.917 114.575 111.198 113.851 111.198C112.82 111.198 112.25 110.496 112.25 108.849V105.581C112.25 103.985 112.987 103.296 114.005 103.296C114.793 103.296 115.177 103.724 115.28 104.094C115.28 103.883 115.312 103.609 115.331 103.417H115.991C115.978 103.813 115.959 104.553 115.959 105.549V111.262H115.965ZM113.032 105.613V108.779C113.032 109.928 113.345 110.49 113.999 110.49C115.056 110.49 115.216 109.341 115.216 108.217V105.9C115.216 104.834 115.1 104.017 114.12 104.017C113.32 104.017 113.032 104.63 113.032 105.613Z" fill="#58595B"/>
<path d="M116.849 112.8C117.24 111.798 117.579 110.477 117.618 109.194H118.329C118.297 110.387 117.925 111.881 117.458 112.8H116.849Z" fill="#58595B"/>
<path d="M125.336 103.5V108.887C125.336 110.738 124.542 111.351 123.351 111.351C122.268 111.351 121.41 110.764 121.41 108.913V103.532C121.41 101.528 122.403 101.017 123.402 101.017C124.382 101.017 125.336 101.521 125.336 103.5ZM122.191 103.5V108.913C122.191 110.094 122.563 110.623 123.395 110.623C124.113 110.623 124.568 110.266 124.568 108.881V103.506C124.568 102.16 124.055 101.758 123.383 101.758C122.691 101.751 122.191 102.096 122.191 103.5Z" fill="#58595B"/>
<path d="M126.387 111.23V109.2H127.149V111.23H126.387Z" fill="#58595B"/>
<path d="M131.819 101.841H129.301C129.244 102.715 129.135 104.336 129.039 105.243C129.231 104.872 129.705 104.566 130.345 104.566C131.684 104.566 132.088 105.581 132.088 107.221V108.492C132.088 110.049 131.761 111.351 130.07 111.351C128.526 111.351 128.11 110.247 128.11 109.028V108.894H128.885V109.098C128.885 109.851 129.141 110.668 130.07 110.668C131.12 110.668 131.3 109.743 131.3 108.664V107.266C131.3 106.06 131.12 105.262 130.172 105.262C129.461 105.262 129.122 105.664 128.923 106.462L128.219 106.372C128.385 104.994 128.571 101.943 128.616 101.138H131.928L131.819 101.841Z" fill="#58595B"/>
<path d="M135.534 105.658C135.534 104.336 135.534 103.813 135.521 103.417H136.245C136.277 103.641 136.277 103.928 136.284 104.183C136.489 103.653 136.892 103.296 137.597 103.296C138.173 103.296 138.622 103.526 138.788 104.241C139.006 103.73 139.416 103.296 140.191 103.296C140.896 103.296 141.613 103.577 141.613 105.07V111.23H140.851V105.255C140.851 104.598 140.748 104.017 140.018 104.017C139.153 104.017 138.961 104.834 138.961 105.728V111.23H138.193V105.338C138.193 104.407 137.975 104.017 137.334 104.017C136.502 104.017 136.303 104.86 136.303 105.849V111.23H135.541V105.658H135.534Z" fill="#58595B"/>
<path d="M146.628 111.262C146.628 112.743 146.443 114 144.675 114C143.208 114 142.907 112.96 142.907 112.124V112.079H143.682V112.136C143.682 112.647 143.874 113.33 144.719 113.33C145.642 113.33 145.866 112.653 145.866 111.428V110.317C145.648 110.917 145.238 111.198 144.515 111.198C143.483 111.198 142.913 110.496 142.913 108.849V105.581C142.913 103.985 143.65 103.296 144.668 103.296C145.456 103.296 145.84 103.724 145.943 104.094C145.943 103.883 145.975 103.609 145.994 103.417H146.654C146.641 103.813 146.622 104.553 146.622 105.549V111.262H146.628ZM143.688 105.613V108.779C143.688 109.928 144.002 110.49 144.655 110.49C145.712 110.49 145.872 109.341 145.872 108.217V105.9C145.872 104.834 145.757 104.017 144.777 104.017C143.983 104.017 143.688 104.63 143.688 105.613Z" fill="#58595B"/>
<path d="M117.31 24.1021C117.31 24.3 117.265 24.4915 117.176 24.6894L106.562 47.9362C106.363 48.434 106.049 48.6894 105.614 48.6894C105.396 48.6894 105.197 48.6447 105.025 48.5617C104.518 48.3638 104.269 48.0383 104.269 47.5787C104.269 47.3808 104.313 47.1894 104.397 46.9915L107.644 39.8426V39.8106L100.336 24.7277C100.246 24.5553 100.201 24.3574 100.201 24.1404C100.201 23.6808 100.445 23.3553 100.925 23.1638C101.098 23.0745 101.297 23.0298 101.514 23.0298C101.975 23.0298 102.302 23.2596 102.494 23.7191L108.887 37.1362L114.985 23.7511C115.203 23.2723 115.53 23.0298 115.965 23.0298C116.164 23.0298 116.356 23.0745 116.554 23.1638C117.06 23.3489 117.31 23.6681 117.31 24.1021Z" fill="#602D91"/>
<path d="M127.027 19.1361C126.297 20.0935 125.932 21.3701 125.932 22.9595V23.7127H129.865C130.211 23.7127 130.493 23.8148 130.698 24.0254C130.903 24.2297 131.012 24.4978 131.012 24.8233C131.012 25.1297 130.909 25.385 130.698 25.5893C130.493 25.7935 130.211 25.902 129.865 25.902H125.932V39.651C125.932 40.0403 125.817 40.3531 125.586 40.5829C125.355 40.8127 125.035 40.9276 124.619 40.9276C124.267 40.9276 123.978 40.8127 123.748 40.5829C123.517 40.3531 123.402 40.0467 123.402 39.651V25.8956H121.307C120.955 25.8956 120.679 25.7935 120.475 25.5829C120.27 25.3722 120.161 25.1233 120.161 24.8169C120.161 24.4914 120.263 24.2233 120.475 24.019C120.679 23.8148 120.961 23.7063 121.307 23.7063H123.402V23.0871C123.402 20.7573 124.004 18.8999 125.202 17.502C126.406 16.1105 128.097 15.4148 130.281 15.4148C130.653 15.4148 130.96 15.5233 131.197 15.7403C131.441 15.9573 131.556 16.2318 131.556 16.5573C131.556 16.8829 131.434 17.1573 131.197 17.3744C130.954 17.5914 130.653 17.6999 130.281 17.6999C128.846 17.6999 127.758 18.1786 127.027 19.1361Z" fill="#602D91"/>
<path d="M146.673 24.019C147.916 24.7721 148.883 25.8126 149.575 27.1402C150.266 28.4679 150.606 29.9807 150.606 31.6785C150.606 32.0296 150.497 32.3041 150.279 32.5083C150.062 32.7126 149.773 32.8211 149.427 32.8211H136.187C136.36 34.6083 137.058 36.0509 138.282 37.1615C139.505 38.2722 141.036 38.8275 142.868 38.8275C143.656 38.8275 144.444 38.6934 145.245 38.419C146.039 38.1445 146.679 37.8062 147.16 37.3913C147.442 37.1743 147.736 37.0658 148.044 37.0658C148.281 37.0658 148.524 37.1551 148.761 37.3275C149.043 37.5892 149.19 37.8828 149.19 38.2083C149.19 38.4892 149.069 38.7445 148.832 38.9615C148.108 39.5743 147.192 40.0785 146.077 40.4807C144.963 40.8828 143.893 41.087 142.868 41.087C141.119 41.087 139.557 40.6977 138.179 39.9253C136.802 39.153 135.726 38.0743 134.951 36.6956C134.176 35.3105 133.785 33.753 133.785 32.0104C133.785 30.2487 134.15 28.6721 134.881 27.2934C135.611 25.9147 136.629 24.836 137.93 24.0636C139.23 23.2913 140.709 22.9019 142.369 22.9019C143.996 22.8956 145.43 23.2658 146.673 24.019ZM138.25 26.6807C137.154 27.7019 136.488 29.0551 136.251 30.7275H148.242C148.069 29.0487 147.454 27.7019 146.404 26.6807C145.353 25.6594 144.015 25.1487 142.375 25.1487C140.722 25.1487 139.345 25.6594 138.25 26.6807Z" fill="#602D91"/>
<path d="M177.784 23.7765C178.777 24.3893 179.552 25.251 180.11 26.3744C180.667 27.4978 180.942 28.7936 180.942 30.2744V39.6765C180.942 40.0467 180.827 40.3467 180.596 40.5765C180.366 40.8063 180.065 40.9212 179.693 40.9212C179.322 40.9212 179.014 40.8063 178.777 40.5765C178.534 40.3467 178.419 40.0467 178.419 39.6765V30.2744C178.419 28.7297 178.021 27.5042 177.221 26.6042C176.42 25.6978 175.382 25.251 174.088 25.251C172.711 25.251 171.597 25.7106 170.745 26.6233C169.893 27.5361 169.477 28.7361 169.502 30.217V30.2808V39.6829C169.502 40.0531 169.387 40.3531 169.156 40.5829C168.926 40.8127 168.625 40.9276 168.253 40.9276C167.882 40.9276 167.574 40.8127 167.337 40.5829C167.094 40.3531 166.978 40.0531 166.978 39.6829V30.2744C166.978 28.7297 166.581 27.5042 165.781 26.6042C164.98 25.7042 163.942 25.251 162.655 25.251C161.297 25.251 160.189 25.6978 159.311 26.5914C158.433 27.485 157.998 28.6276 157.998 30.0191V39.6829C157.998 40.0531 157.883 40.3531 157.652 40.5829C157.421 40.8127 157.12 40.9276 156.749 40.9276C156.377 40.9276 156.07 40.8127 155.833 40.5829C155.589 40.3531 155.474 40.0531 155.474 39.6829V24.3319C155.474 23.9616 155.596 23.6553 155.833 23.4191C156.076 23.1765 156.377 23.0616 156.749 23.0616C157.12 23.0616 157.421 23.1829 157.652 23.4191C157.883 23.6616 157.998 23.9616 157.998 24.3319V25.0467C158.606 24.351 159.337 23.8148 160.176 23.4319C161.015 23.0489 161.931 22.8638 162.911 22.8638C164.109 22.8638 165.191 23.1382 166.152 23.6808C167.113 24.2233 167.875 24.9893 168.445 25.9659C169.079 24.9829 169.906 24.2233 170.918 23.6808C171.936 23.1382 173.076 22.8638 174.345 22.8638C175.651 22.8638 176.792 23.1638 177.784 23.7765Z" fill="#602D91"/>
<path d="M221.201 23.2213C221.732 23.4638 222.001 23.7957 222.001 24.2361C222.001 24.3638 221.989 24.4659 221.969 24.5298C221.88 24.8361 221.745 25.0404 221.559 25.1489C221.374 25.2574 221.117 25.3149 220.791 25.3149C220.592 25.3149 220.253 25.2957 219.772 25.251C219.599 25.2319 219.337 25.2191 218.984 25.2191C217.345 25.2191 216.006 25.6532 214.968 26.5276C213.93 27.3957 213.412 28.5319 213.412 29.9234V39.683C213.412 40.0723 213.303 40.3787 213.085 40.5957C212.867 40.8127 212.56 40.9213 212.169 40.9213C211.778 40.9213 211.471 40.8127 211.253 40.5957C211.035 40.3787 210.926 40.0723 210.926 39.683V24.3C210.926 23.9106 211.035 23.6042 211.253 23.3872C211.471 23.1702 211.778 23.0617 212.169 23.0617C212.56 23.0617 212.867 23.1702 213.085 23.3872C213.303 23.6042 213.412 23.9106 213.412 24.3V25.7361C214.046 24.8234 214.853 24.1149 215.839 23.6106C216.826 23.1127 217.883 22.8574 219.016 22.8574C219.939 22.8638 220.669 22.9787 221.201 23.2213Z" fill="#602D91"/>
<path d="M236.785 24.019C238.028 24.7721 238.995 25.8126 239.687 27.1402C240.379 28.4679 240.718 29.9807 240.718 31.6785C240.718 32.0296 240.609 32.3041 240.392 32.5083C240.174 32.7126 239.886 32.8211 239.54 32.8211H226.3C226.472 34.6083 227.171 36.0509 228.394 37.1615C229.618 38.2722 231.148 38.8275 232.98 38.8275C233.768 38.8275 234.556 38.6934 235.357 38.419C236.151 38.1445 236.792 37.8062 237.272 37.3913C237.554 37.1743 237.849 37.0658 238.156 37.0658C238.393 37.0658 238.637 37.1551 238.874 37.3275C239.155 37.5892 239.303 37.8828 239.303 38.2083C239.303 38.4892 239.181 38.7445 238.944 38.9615C238.22 39.5743 237.304 40.0785 236.19 40.4807C235.075 40.8828 234.005 41.087 232.98 41.087C231.232 41.087 229.669 40.6977 228.292 39.9253C226.914 39.153 225.838 38.0743 225.063 36.6956C224.288 35.3105 223.897 33.753 223.897 32.0104C223.897 30.2487 224.263 28.6721 224.993 27.2934C225.723 25.9147 226.742 24.836 228.042 24.0636C229.342 23.2913 230.822 22.9019 232.481 22.9019C234.108 22.8956 235.543 23.2658 236.785 24.019ZM228.362 26.6807C227.267 27.7019 226.601 29.0551 226.364 30.7275H238.355C238.182 29.0487 237.567 27.7019 236.516 26.6807C235.466 25.6594 234.127 25.1487 232.487 25.1487C230.835 25.1487 229.457 25.6594 228.362 26.6807Z" fill="#602D91"/>
<path d="M256.873 24.019C258.116 24.7721 259.083 25.8126 259.775 27.1402C260.467 28.4679 260.806 29.9807 260.806 31.6785C260.806 32.0296 260.697 32.3041 260.479 32.5083C260.262 32.7126 259.973 32.8211 259.628 32.8211H246.387C246.56 34.6083 247.259 36.0509 248.482 37.1615C249.705 38.2722 251.236 38.8275 253.068 38.8275C253.856 38.8275 254.644 38.6934 255.445 38.419C256.239 38.1445 256.88 37.8062 257.36 37.3913C257.642 37.1743 257.936 37.0658 258.244 37.0658C258.481 37.0658 258.724 37.1551 258.961 37.3275C259.243 37.5892 259.391 37.8828 259.391 38.2083C259.391 38.4892 259.269 38.7445 259.032 38.9615C258.308 39.5743 257.392 40.0785 256.277 40.4807C255.163 40.8828 254.093 41.087 253.068 41.087C251.32 41.087 249.757 40.6977 248.38 39.9253C247.002 39.153 245.926 38.0743 245.151 36.6956C244.376 35.3105 243.985 33.753 243.985 32.0104C243.985 30.2487 244.35 28.6721 245.081 27.2934C245.811 25.9147 246.829 24.836 248.13 24.0636C249.43 23.2913 250.91 22.9019 252.569 22.9019C254.196 22.8956 255.624 23.2658 256.873 24.019ZM248.45 26.6807C247.355 27.7019 246.688 29.0551 246.451 30.7275H258.443C258.27 29.0487 257.655 27.7019 256.604 26.6807C255.554 25.6594 254.215 25.1487 252.575 25.1487C250.916 25.1487 249.545 25.6594 248.45 26.6807Z" fill="#602D91"/>
<path d="M204.194 27.3509C203.419 25.9658 202.356 24.8807 201.017 24.0828C199.672 23.2914 198.173 22.8892 196.514 22.8892C195.092 22.8892 193.791 23.1892 192.613 23.7892C191.434 24.3892 190.461 25.2126 189.698 26.2531V16.6914C189.698 16.3211 189.577 16.0148 189.34 15.7786C189.096 15.536 188.795 15.4211 188.424 15.4211C188.052 15.4211 187.719 15.5424 187.488 15.7786C187.258 16.0211 187.143 16.3211 187.143 16.6914C187.143 16.6914 187.143 24.1658 187.143 24.2999V31.9722V39.6765C187.143 40.0658 187.251 40.3722 187.469 40.5892C187.687 40.8062 187.995 40.9148 188.385 40.9148C188.776 40.9148 189.083 40.8062 189.301 40.5892C189.519 40.3722 189.628 40.0658 189.628 39.6765V38.3296C190.204 38.936 190.858 39.4594 191.607 39.8871C192.997 40.685 194.541 41.0807 196.245 41.0807C197.949 41.0807 199.492 40.685 200.882 39.8871C202.272 39.0892 203.361 37.9977 204.162 36.6062C204.963 35.2148 205.36 33.6701 205.36 31.9722C205.36 30.2743 204.969 28.736 204.194 27.3509ZM202.035 35.4509C201.459 36.485 200.658 37.302 199.646 37.902C198.628 38.502 197.5 38.802 196.258 38.802C195.015 38.802 193.888 38.502 192.882 37.902C191.876 37.302 191.082 36.485 190.505 35.4509C190.108 34.7424 189.852 33.9701 189.724 33.1722C189.654 32.7254 189.622 32.2722 189.628 31.819C189.634 31.3722 189.705 30.9382 189.775 30.4977C189.891 29.7765 190.147 29.0679 190.512 28.436C190.864 27.8233 191.325 27.2871 191.851 26.8148C193.061 25.7233 194.535 25.1807 196.258 25.1807C197.5 25.1807 198.634 25.4743 199.646 26.0616C200.658 26.6488 201.459 27.4594 202.035 28.4935C202.612 29.5275 202.906 30.6892 202.906 31.9722C202.9 33.2552 202.612 34.4169 202.035 35.4509Z" fill="#602D91"/>
<path d="M95.3201 15.7729C95.5635 16.0155 95.6788 16.3155 95.6788 16.6857V39.6389C95.6788 39.99 95.5571 40.29 95.3201 40.5389C95.0831 40.7878 94.782 40.9155 94.4361 40.9155C94.0646 40.9155 93.7507 40.7878 93.5009 40.5389C93.2511 40.29 93.123 39.99 93.123 39.6389V20.6176C92.7899 21.0644 85.8143 30.4985 84.3091 32.3559C84.0849 32.6368 83.803 32.9687 83.534 33.141C83.2201 33.3389 82.8486 33.3772 82.4194 33.1729C82.144 33.0389 81.8109 32.6432 81.5931 32.3814C80.6835 31.3027 80.1006 30.441 79.2359 29.324C78.2238 28.0219 77.2118 26.7134 76.1997 25.4112C75.3286 24.2814 74.451 23.158 73.5799 22.0283C73.266 21.6261 72.9585 21.224 72.6447 20.8219V39.6453C72.6447 39.9963 72.523 40.2963 72.286 40.5453C72.0425 40.7942 71.7415 40.9219 71.37 40.9219C71.0177 40.9219 70.723 40.7942 70.4668 40.5453C70.217 40.2963 70.0889 39.9963 70.0889 39.6453V16.6921C70.0889 16.3219 70.217 16.0155 70.4668 15.7793C70.7166 15.5368 71.0177 15.4219 71.37 15.4219C71.8696 15.4219 72.2539 15.6389 72.5165 16.0729L83.0023 29.8219L93.2896 16.0729C93.5522 15.6389 93.9365 15.4219 94.4361 15.4219C94.7884 15.4155 95.0831 15.5368 95.3201 15.7729Z" fill="#602D91"/>
<path d="M265.642 23.2596C266.058 23.5021 266.385 23.8277 266.628 24.2426C266.872 24.6575 266.993 25.1106 266.993 25.6021C266.993 26.1 266.872 26.5596 266.622 26.9745C266.379 27.3894 266.045 27.7213 265.629 27.9575C265.213 28.1936 264.764 28.3149 264.278 28.3149C263.784 28.3149 263.323 28.1936 262.907 27.9575C262.49 27.7213 262.164 27.3958 261.92 26.9809C261.677 26.566 261.555 26.1064 261.555 25.6021C261.555 25.1106 261.677 24.6575 261.92 24.2426C262.164 23.8277 262.49 23.5021 262.907 23.2596C263.323 23.017 263.778 22.8958 264.284 22.8958C264.777 22.8958 265.232 23.017 265.642 23.2596ZM265.354 27.4532C265.687 27.2617 265.949 27 266.141 26.6681C266.334 26.3426 266.43 25.9851 266.43 25.5958C266.43 25.2064 266.334 24.8489 266.135 24.5234C265.943 24.1915 265.68 23.9362 265.347 23.7383C265.021 23.5468 264.655 23.4447 264.271 23.4447C263.88 23.4447 263.522 23.5404 263.189 23.7383C262.862 23.9298 262.599 24.1915 262.401 24.5234C262.209 24.8489 262.106 25.2064 262.106 25.5958C262.106 25.9851 262.202 26.3426 262.394 26.6681C262.586 27 262.849 27.2553 263.176 27.4532C263.502 27.6447 263.868 27.7468 264.265 27.7468C264.662 27.7404 265.021 27.6447 265.354 27.4532ZM265.411 26.7511C265.45 26.8149 265.469 26.8787 265.469 26.9298C265.469 26.9936 265.443 27.0447 265.398 27.0894C265.354 27.134 265.29 27.1532 265.213 27.1532C265.155 27.1532 265.104 27.1404 265.059 27.1213C265.014 27.0958 264.976 27.0702 264.957 27.0319L264.316 25.9596H264.252H263.816V26.8979C263.816 26.9745 263.791 27.0383 263.746 27.0894C263.695 27.1404 263.631 27.1596 263.547 27.1596C263.464 27.1596 263.394 27.134 263.349 27.0894C263.297 27.0383 263.272 26.9745 263.272 26.8979V24.1787C263.272 24.1021 263.297 24.0383 263.355 23.9872C263.413 23.9362 263.483 23.917 263.573 23.917H264.265C264.598 23.917 264.873 24.0128 265.091 24.2043C265.309 24.3958 265.418 24.6383 265.418 24.9319C265.418 25.1234 265.366 25.3021 265.27 25.4553C265.174 25.6085 265.04 25.7362 264.873 25.8255L265.411 26.7511ZM263.81 25.4681H264.29C264.457 25.4681 264.591 25.417 264.687 25.3213C264.79 25.2192 264.835 25.0915 264.835 24.9255C264.835 24.7596 264.784 24.6319 264.687 24.5362C264.585 24.4404 264.457 24.3958 264.29 24.3958H263.81V25.4681Z" fill="#602D91"/>
</g>
<defs>
<linearGradient id="paint0_linear" x1="30.6114" y1="68.4042" x2="30.6114" y2="17.5392" gradientUnits="userSpaceOnUse">
<stop stop-color="#AFD4C4"/>
<stop offset="0.0871" stop-color="#AFD1C3" stop-opacity="0.9344"/>
<stop offset="0.1444" stop-color="#AFCBC1" stop-opacity="0.8912"/>
<stop offset="0.193" stop-color="#B0C2BE" stop-opacity="0.8546"/>
<stop offset="0.2369" stop-color="#B0B6BA" stop-opacity="0.8215"/>
<stop offset="0.2775" stop-color="#B1A6B5" stop-opacity="0.7909"/>
<stop offset="0.3158" stop-color="#B191AD" stop-opacity="0.7621"/>
<stop offset="0.3522" stop-color="#B279A4" stop-opacity="0.7346"/>
<stop offset="0.3871" stop-color="#B25A99" stop-opacity="0.7083"/>
<stop offset="0.4197" stop-color="#B42A8F" stop-opacity="0.6837"/>
<stop offset="0.4247" stop-color="#B41E8E" stop-opacity="0.68"/>
<stop offset="0.8999" stop-color="#602D91"/>
</linearGradient>
<linearGradient id="paint1_linear" x1="30.6676" y1="68.404" x2="30.6676" y2="17.539" gradientUnits="userSpaceOnUse">
<stop stop-color="#AFD4C4"/>
<stop offset="0.0871" stop-color="#AFD1C3" stop-opacity="0.9344"/>
<stop offset="0.1444" stop-color="#AFCBC1" stop-opacity="0.8912"/>
<stop offset="0.193" stop-color="#B0C2BE" stop-opacity="0.8546"/>
<stop offset="0.2369" stop-color="#B0B6BA" stop-opacity="0.8215"/>
<stop offset="0.2775" stop-color="#B1A6B5" stop-opacity="0.7909"/>
<stop offset="0.3158" stop-color="#B191AD" stop-opacity="0.7621"/>
<stop offset="0.3522" stop-color="#B279A4" stop-opacity="0.7346"/>
<stop offset="0.3871" stop-color="#B25A99" stop-opacity="0.7083"/>
<stop offset="0.4197" stop-color="#B42A8F" stop-opacity="0.6837"/>
<stop offset="0.4247" stop-color="#B41E8E" stop-opacity="0.68"/>
<stop offset="0.8999" stop-color="#602D91"/>
</linearGradient>
<linearGradient id="paint2_linear" x1="43.3447" y1="68.4041" x2="43.3447" y2="17.5391" gradientUnits="userSpaceOnUse">
<stop stop-color="#AFD4C4"/>
<stop offset="0.0871" stop-color="#AFD1C3" stop-opacity="0.9344"/>
<stop offset="0.1444" stop-color="#AFCBC1" stop-opacity="0.8912"/>
<stop offset="0.193" stop-color="#B0C2BE" stop-opacity="0.8546"/>
<stop offset="0.2369" stop-color="#B0B6BA" stop-opacity="0.8215"/>
<stop offset="0.2775" stop-color="#B1A6B5" stop-opacity="0.7909"/>
<stop offset="0.3158" stop-color="#B191AD" stop-opacity="0.7621"/>
<stop offset="0.3522" stop-color="#B279A4" stop-opacity="0.7346"/>
<stop offset="0.3871" stop-color="#B25A99" stop-opacity="0.7083"/>
<stop offset="0.4197" stop-color="#B42A8F" stop-opacity="0.6837"/>
<stop offset="0.4247" stop-color="#B41E8E" stop-opacity="0.68"/>
<stop offset="0.8999" stop-color="#602D91"/>
</linearGradient>
<linearGradient id="paint3_linear" x1="17.9401" y1="68.4041" x2="17.9401" y2="17.5391" gradientUnits="userSpaceOnUse">
<stop stop-color="#AFD4C4"/>
<stop offset="0.0871" stop-color="#AFD1C3" stop-opacity="0.9344"/>
<stop offset="0.1444" stop-color="#AFCBC1" stop-opacity="0.8912"/>
<stop offset="0.193" stop-color="#B0C2BE" stop-opacity="0.8546"/>
<stop offset="0.2369" stop-color="#B0B6BA" stop-opacity="0.8215"/>
<stop offset="0.2775" stop-color="#B1A6B5" stop-opacity="0.7909"/>
<stop offset="0.3158" stop-color="#B191AD" stop-opacity="0.7621"/>
<stop offset="0.3522" stop-color="#B279A4" stop-opacity="0.7346"/>
<stop offset="0.3871" stop-color="#B25A99" stop-opacity="0.7083"/>
<stop offset="0.4197" stop-color="#B42A8F" stop-opacity="0.6837"/>
<stop offset="0.4247" stop-color="#B41E8E" stop-opacity="0.68"/>
<stop offset="0.8999" stop-color="#602D91"/>
</linearGradient>
<linearGradient id="paint4_linear" x1="42.2173" y1="52.2131" x2="42.2173" y2="12.6009" gradientUnits="userSpaceOnUse">
<stop offset="0.00127591" stop-color="#AFD4C4"/>
<stop offset="0.3856" stop-color="#B41E8E" stop-opacity="0.8"/>
<stop offset="0.8178" stop-color="#602D91"/>
</linearGradient>
<linearGradient id="paint5_linear" x1="12.1037" y1="52.213" x2="12.1037" y2="12.6008" gradientUnits="userSpaceOnUse">
<stop offset="0.00127591" stop-color="#AFD4C4"/>
<stop offset="0.3856" stop-color="#B41E8E" stop-opacity="0.8"/>
<stop offset="0.8178" stop-color="#602D91"/>
</linearGradient>
<linearGradient id="paint6_linear" x1="19.0992" y1="52.213" x2="19.0992" y2="12.6008" gradientUnits="userSpaceOnUse">
<stop offset="0.00127591" stop-color="#AFD4C4"/>
<stop offset="0.3856" stop-color="#B41E8E" stop-opacity="0.8"/>
<stop offset="0.8178" stop-color="#602D91"/>
</linearGradient>
<linearGradient id="paint7_linear" x1="30.6677" y1="52.2129" x2="30.6677" y2="12.6007" gradientUnits="userSpaceOnUse">
<stop offset="0.00127591" stop-color="#AFD4C4"/>
<stop offset="0.3856" stop-color="#B41E8E" stop-opacity="0.8"/>
<stop offset="0.8178" stop-color="#602D91"/>
</linearGradient>
<linearGradient id="paint8_linear" x1="49.2353" y1="52.2128" x2="49.2353" y2="12.6006" gradientUnits="userSpaceOnUse">
<stop offset="0.00127591" stop-color="#AFD4C4"/>
<stop offset="0.3856" stop-color="#B41E8E" stop-opacity="0.8"/>
<stop offset="0.8178" stop-color="#602D91"/>
</linearGradient>
<linearGradient id="paint9_linear" x1="30.6641" y1="68.404" x2="30.6641" y2="17.5391" gradientUnits="userSpaceOnUse">
<stop stop-color="#AFD4C4"/>
<stop offset="0.0871" stop-color="#AFD1C3" stop-opacity="0.9344"/>
<stop offset="0.1444" stop-color="#AFCBC1" stop-opacity="0.8912"/>
<stop offset="0.193" stop-color="#B0C2BE" stop-opacity="0.8546"/>
<stop offset="0.2369" stop-color="#B0B6BA" stop-opacity="0.8215"/>
<stop offset="0.2775" stop-color="#B1A6B5" stop-opacity="0.7909"/>
<stop offset="0.3158" stop-color="#B191AD" stop-opacity="0.7621"/>
<stop offset="0.3522" stop-color="#B279A4" stop-opacity="0.7346"/>
<stop offset="0.3871" stop-color="#B25A99" stop-opacity="0.7083"/>
<stop offset="0.4197" stop-color="#B42A8F" stop-opacity="0.6837"/>
<stop offset="0.4247" stop-color="#B41E8E" stop-opacity="0.68"/>
<stop offset="0.8999" stop-color="#602D91"/>
</linearGradient>
<linearGradient id="paint10_linear" x1="45.1998" y1="68.4039" x2="45.1998" y2="17.539" gradientUnits="userSpaceOnUse">
<stop stop-color="#AFD4C4"/>
<stop offset="0.0871" stop-color="#AFD1C3" stop-opacity="0.9344"/>
<stop offset="0.1444" stop-color="#AFCBC1" stop-opacity="0.8912"/>
<stop offset="0.193" stop-color="#B0C2BE" stop-opacity="0.8546"/>
<stop offset="0.2369" stop-color="#B0B6BA" stop-opacity="0.8215"/>
<stop offset="0.2775" stop-color="#B1A6B5" stop-opacity="0.7909"/>
<stop offset="0.3158" stop-color="#B191AD" stop-opacity="0.7621"/>
<stop offset="0.3522" stop-color="#B279A4" stop-opacity="0.7346"/>
<stop offset="0.3871" stop-color="#B25A99" stop-opacity="0.7083"/>
<stop offset="0.4197" stop-color="#B42A8F" stop-opacity="0.6837"/>
<stop offset="0.4247" stop-color="#B41E8E" stop-opacity="0.68"/>
<stop offset="0.8999" stop-color="#602D91"/>
</linearGradient>
<linearGradient id="paint11_linear" x1="45.1998" y1="52.2128" x2="45.1998" y2="12.6006" gradientUnits="userSpaceOnUse">
<stop offset="0.00127591" stop-color="#AFD4C4"/>
<stop offset="0.3856" stop-color="#B41E8E" stop-opacity="0.8"/>
<stop offset="0.8178" stop-color="#602D91"/>
</linearGradient>
<linearGradient id="paint12_linear" x1="16.1345" y1="68.4039" x2="16.1345" y2="17.539" gradientUnits="userSpaceOnUse">
<stop stop-color="#AFD4C4"/>
<stop offset="0.0871" stop-color="#AFD1C3" stop-opacity="0.9344"/>
<stop offset="0.1444" stop-color="#AFCBC1" stop-opacity="0.8912"/>
<stop offset="0.193" stop-color="#B0C2BE" stop-opacity="0.8546"/>
<stop offset="0.2369" stop-color="#B0B6BA" stop-opacity="0.8215"/>
<stop offset="0.2775" stop-color="#B1A6B5" stop-opacity="0.7909"/>
<stop offset="0.3158" stop-color="#B191AD" stop-opacity="0.7621"/>
<stop offset="0.3522" stop-color="#B279A4" stop-opacity="0.7346"/>
<stop offset="0.3871" stop-color="#B25A99" stop-opacity="0.7083"/>
<stop offset="0.4197" stop-color="#B42A8F" stop-opacity="0.6837"/>
<stop offset="0.4247" stop-color="#B41E8E" stop-opacity="0.68"/>
<stop offset="0.8999" stop-color="#602D91"/>
</linearGradient>
<linearGradient id="paint13_linear" x1="16.1345" y1="52.2128" x2="16.1345" y2="12.6006" gradientUnits="userSpaceOnUse">
<stop offset="0.00127591" stop-color="#AFD4C4"/>
<stop offset="0.3856" stop-color="#B41E8E" stop-opacity="0.8"/>
<stop offset="0.8178" stop-color="#602D91"/>
</linearGradient>
<linearGradient id="paint14_linear" x1="30.4899" y1="37.0099" x2="30.4899" y2="-0.000155902" gradientUnits="userSpaceOnUse">
<stop stop-color="#AFD4C4"/>
<stop offset="0.0214" stop-color="#AFCBC1" stop-opacity="0.9654"/>
<stop offset="0.0592" stop-color="#B0BABC" stop-opacity="0.9042"/>
<stop offset="0.1091" stop-color="#B19DB1" stop-opacity="0.8234"/>
<stop offset="0.1692" stop-color="#B274A2" stop-opacity="0.7263"/>
<stop offset="0.2371" stop-color="#B4308F" stop-opacity="0.6164"/>
<stop offset="0.2473" stop-color="#B41E8E" stop-opacity="0.6"/>
<stop offset="0.2944" stop-color="#A1238F" stop-opacity="0.6622"/>
<stop offset="0.3729" stop-color="#862990" stop-opacity="0.7658"/>
<stop offset="0.4445" stop-color="#722B90" stop-opacity="0.8602"/>
<stop offset="0.5061" stop-color="#652D91" stop-opacity="0.9414"/>
<stop offset="0.5505" stop-color="#602D91"/>
</linearGradient>
<linearGradient id="paint15_linear" x1="14.8552" y1="37.0099" x2="14.8552" y2="-0.000242064" gradientUnits="userSpaceOnUse">
<stop stop-color="#AFD4C4"/>
<stop offset="0.0214" stop-color="#AFCBC1" stop-opacity="0.9654"/>
<stop offset="0.0592" stop-color="#B0BABC" stop-opacity="0.9042"/>
<stop offset="0.1091" stop-color="#B19DB1" stop-opacity="0.8234"/>
<stop offset="0.1692" stop-color="#B274A2" stop-opacity="0.7263"/>
<stop offset="0.2371" stop-color="#B4308F" stop-opacity="0.6164"/>
<stop offset="0.2473" stop-color="#B41E8E" stop-opacity="0.6"/>
<stop offset="0.2944" stop-color="#A1238F" stop-opacity="0.6622"/>
<stop offset="0.3729" stop-color="#862990" stop-opacity="0.7658"/>
<stop offset="0.4445" stop-color="#722B90" stop-opacity="0.8602"/>
<stop offset="0.5061" stop-color="#652D91" stop-opacity="0.9414"/>
<stop offset="0.5505" stop-color="#602D91"/>
</linearGradient>
<linearGradient id="paint16_linear" x1="30.6182" y1="37.0101" x2="30.6182" y2="-8.54965e-05" gradientUnits="userSpaceOnUse">
<stop stop-color="#AFD4C4"/>
<stop offset="0.0214" stop-color="#AFCBC1" stop-opacity="0.9654"/>
<stop offset="0.0592" stop-color="#B0BABC" stop-opacity="0.9042"/>
<stop offset="0.1091" stop-color="#B19DB1" stop-opacity="0.8234"/>
<stop offset="0.1692" stop-color="#B274A2" stop-opacity="0.7263"/>
<stop offset="0.2371" stop-color="#B4308F" stop-opacity="0.6164"/>
<stop offset="0.2473" stop-color="#B41E8E" stop-opacity="0.6"/>
<stop offset="0.2944" stop-color="#A1238F" stop-opacity="0.6622"/>
<stop offset="0.3729" stop-color="#862990" stop-opacity="0.7658"/>
<stop offset="0.4445" stop-color="#722B90" stop-opacity="0.8602"/>
<stop offset="0.5061" stop-color="#652D91" stop-opacity="0.9414"/>
<stop offset="0.5505" stop-color="#602D91"/>
</linearGradient>
<linearGradient id="paint17_linear" x1="46.4282" y1="37.0099" x2="46.4282" y2="-0.000184442" gradientUnits="userSpaceOnUse">
<stop stop-color="#AFD4C4"/>
<stop offset="0.0214" stop-color="#AFCBC1" stop-opacity="0.9654"/>
<stop offset="0.0592" stop-color="#B0BABC" stop-opacity="0.9042"/>
<stop offset="0.1091" stop-color="#B19DB1" stop-opacity="0.8234"/>
<stop offset="0.1692" stop-color="#B274A2" stop-opacity="0.7263"/>
<stop offset="0.2371" stop-color="#B4308F" stop-opacity="0.6164"/>
<stop offset="0.2473" stop-color="#B41E8E" stop-opacity="0.6"/>
<stop offset="0.2944" stop-color="#A1238F" stop-opacity="0.6622"/>
<stop offset="0.3729" stop-color="#862990" stop-opacity="0.7658"/>
<stop offset="0.4445" stop-color="#722B90" stop-opacity="0.8602"/>
<stop offset="0.5061" stop-color="#652D91" stop-opacity="0.9414"/>
<stop offset="0.5505" stop-color="#602D91"/>
</linearGradient>
<linearGradient id="paint18_linear" x1="41.5529" y1="68.4041" x2="41.5529" y2="17.5391" gradientUnits="userSpaceOnUse">
<stop stop-color="#AFD4C4"/>
<stop offset="0.0871" stop-color="#AFD1C3" stop-opacity="0.9344"/>
<stop offset="0.1444" stop-color="#AFCBC1" stop-opacity="0.8912"/>
<stop offset="0.193" stop-color="#B0C2BE" stop-opacity="0.8546"/>
<stop offset="0.2369" stop-color="#B0B6BA" stop-opacity="0.8215"/>
<stop offset="0.2775" stop-color="#B1A6B5" stop-opacity="0.7909"/>
<stop offset="0.3158" stop-color="#B191AD" stop-opacity="0.7621"/>
<stop offset="0.3522" stop-color="#B279A4" stop-opacity="0.7346"/>
<stop offset="0.3871" stop-color="#B25A99" stop-opacity="0.7083"/>
<stop offset="0.4197" stop-color="#B42A8F" stop-opacity="0.6837"/>
<stop offset="0.4247" stop-color="#B41E8E" stop-opacity="0.68"/>
<stop offset="0.8999" stop-color="#602D91"/>
</linearGradient>
<linearGradient id="paint19_linear" x1="41.5529" y1="37.01" x2="41.5529" y2="-7.00564e-05" gradientUnits="userSpaceOnUse">
<stop stop-color="#AFD4C4"/>
<stop offset="0.0214" stop-color="#AFCBC1" stop-opacity="0.9654"/>
<stop offset="0.0592" stop-color="#B0BABC" stop-opacity="0.9042"/>
<stop offset="0.1091" stop-color="#B19DB1" stop-opacity="0.8234"/>
<stop offset="0.1692" stop-color="#B274A2" stop-opacity="0.7263"/>
<stop offset="0.2371" stop-color="#B4308F" stop-opacity="0.6164"/>
<stop offset="0.2473" stop-color="#B41E8E" stop-opacity="0.6"/>
<stop offset="0.2944" stop-color="#A1238F" stop-opacity="0.6622"/>
<stop offset="0.3729" stop-color="#862990" stop-opacity="0.7658"/>
<stop offset="0.4445" stop-color="#722B90" stop-opacity="0.8602"/>
<stop offset="0.5061" stop-color="#652D91" stop-opacity="0.9414"/>
<stop offset="0.5505" stop-color="#602D91"/>
</linearGradient>
<linearGradient id="paint20_linear" x1="19.675" y1="68.4042" x2="19.675" y2="17.5392" gradientUnits="userSpaceOnUse">
<stop stop-color="#AFD4C4"/>
<stop offset="0.0871" stop-color="#AFD1C3" stop-opacity="0.9344"/>
<stop offset="0.1444" stop-color="#AFCBC1" stop-opacity="0.8912"/>
<stop offset="0.193" stop-color="#B0C2BE" stop-opacity="0.8546"/>
<stop offset="0.2369" stop-color="#B0B6BA" stop-opacity="0.8215"/>
<stop offset="0.2775" stop-color="#B1A6B5" stop-opacity="0.7909"/>
<stop offset="0.3158" stop-color="#B191AD" stop-opacity="0.7621"/>
<stop offset="0.3522" stop-color="#B279A4" stop-opacity="0.7346"/>
<stop offset="0.3871" stop-color="#B25A99" stop-opacity="0.7083"/>
<stop offset="0.4197" stop-color="#B42A8F" stop-opacity="0.6837"/>
<stop offset="0.4247" stop-color="#B41E8E" stop-opacity="0.68"/>
<stop offset="0.8999" stop-color="#602D91"/>
</linearGradient>
<linearGradient id="paint21_linear" x1="19.675" y1="37.0101" x2="19.675" y2="-7.0895e-05" gradientUnits="userSpaceOnUse">
<stop stop-color="#AFD4C4"/>
<stop offset="0.0214" stop-color="#AFCBC1" stop-opacity="0.9654"/>
<stop offset="0.0592" stop-color="#B0BABC" stop-opacity="0.9042"/>
<stop offset="0.1091" stop-color="#B19DB1" stop-opacity="0.8234"/>
<stop offset="0.1692" stop-color="#B274A2" stop-opacity="0.7263"/>
<stop offset="0.2371" stop-color="#B4308F" stop-opacity="0.6164"/>
<stop offset="0.2473" stop-color="#B41E8E" stop-opacity="0.6"/>
<stop offset="0.2944" stop-color="#A1238F" stop-opacity="0.6622"/>
<stop offset="0.3729" stop-color="#862990" stop-opacity="0.7658"/>
<stop offset="0.4445" stop-color="#722B90" stop-opacity="0.8602"/>
<stop offset="0.5061" stop-color="#652D91" stop-opacity="0.9414"/>
<stop offset="0.5505" stop-color="#602D91"/>
</linearGradient>
<linearGradient id="paint22_linear" x1="30.6245" y1="52.213" x2="30.6245" y2="12.6008" gradientUnits="userSpaceOnUse">
<stop offset="0.00127591" stop-color="#AFD4C4"/>
<stop offset="0.3856" stop-color="#B41E8E" stop-opacity="0.8"/>
<stop offset="0.8178" stop-color="#602D91"/>
</linearGradient>
<linearGradient id="paint23_linear" x1="51.522" y1="52.213" x2="51.522" y2="12.6008" gradientUnits="userSpaceOnUse">
<stop offset="0.00127591" stop-color="#AFD4C4"/>
<stop offset="0.3856" stop-color="#B41E8E" stop-opacity="0.8"/>
<stop offset="0.8178" stop-color="#602D91"/>
</linearGradient>
<linearGradient id="paint24_linear" x1="51.522" y1="37.0101" x2="51.522" y2="-1.45059e-05" gradientUnits="userSpaceOnUse">
<stop stop-color="#AFD4C4"/>
<stop offset="0.0214" stop-color="#AFCBC1" stop-opacity="0.9654"/>
<stop offset="0.0592" stop-color="#B0BABC" stop-opacity="0.9042"/>
<stop offset="0.1091" stop-color="#B19DB1" stop-opacity="0.8234"/>
<stop offset="0.1692" stop-color="#B274A2" stop-opacity="0.7263"/>
<stop offset="0.2371" stop-color="#B4308F" stop-opacity="0.6164"/>
<stop offset="0.2473" stop-color="#B41E8E" stop-opacity="0.6"/>
<stop offset="0.2944" stop-color="#A1238F" stop-opacity="0.6622"/>
<stop offset="0.3729" stop-color="#862990" stop-opacity="0.7658"/>
<stop offset="0.4445" stop-color="#722B90" stop-opacity="0.8602"/>
<stop offset="0.5061" stop-color="#652D91" stop-opacity="0.9414"/>
<stop offset="0.5505" stop-color="#602D91"/>
</linearGradient>
<linearGradient id="paint25_linear" x1="9.83565" y1="52.2128" x2="9.83565" y2="12.6006" gradientUnits="userSpaceOnUse">
<stop offset="0.00127591" stop-color="#AFD4C4"/>
<stop offset="0.3856" stop-color="#B41E8E" stop-opacity="0.8"/>
<stop offset="0.8178" stop-color="#602D91"/>
</linearGradient>
<linearGradient id="paint26_linear" x1="9.83565" y1="37.0099" x2="9.83565" y2="-0.000227045" gradientUnits="userSpaceOnUse">
<stop stop-color="#AFD4C4"/>
<stop offset="0.0214" stop-color="#AFCBC1" stop-opacity="0.9654"/>
<stop offset="0.0592" stop-color="#B0BABC" stop-opacity="0.9042"/>
<stop offset="0.1091" stop-color="#B19DB1" stop-opacity="0.8234"/>
<stop offset="0.1692" stop-color="#B274A2" stop-opacity="0.7263"/>
<stop offset="0.2371" stop-color="#B4308F" stop-opacity="0.6164"/>
<stop offset="0.2473" stop-color="#B41E8E" stop-opacity="0.6"/>
<stop offset="0.2944" stop-color="#A1238F" stop-opacity="0.6622"/>
<stop offset="0.3729" stop-color="#862990" stop-opacity="0.7658"/>
<stop offset="0.4445" stop-color="#722B90" stop-opacity="0.8602"/>
<stop offset="0.5061" stop-color="#652D91" stop-opacity="0.9414"/>
<stop offset="0.5505" stop-color="#602D91"/>
</linearGradient>
<linearGradient id="paint27_linear" x1="30.661" y1="68.404" x2="30.661" y2="17.5391" gradientUnits="userSpaceOnUse">
<stop stop-color="#AFD4C4"/>
<stop offset="0.0871" stop-color="#AFD1C3" stop-opacity="0.9344"/>
<stop offset="0.1444" stop-color="#AFCBC1" stop-opacity="0.8912"/>
<stop offset="0.193" stop-color="#B0C2BE" stop-opacity="0.8546"/>
<stop offset="0.2369" stop-color="#B0B6BA" stop-opacity="0.8215"/>
<stop offset="0.2775" stop-color="#B1A6B5" stop-opacity="0.7909"/>
<stop offset="0.3158" stop-color="#B191AD" stop-opacity="0.7621"/>
<stop offset="0.3522" stop-color="#B279A4" stop-opacity="0.7346"/>
<stop offset="0.3871" stop-color="#B25A99" stop-opacity="0.7083"/>
<stop offset="0.4197" stop-color="#B42A8F" stop-opacity="0.6837"/>
<stop offset="0.4247" stop-color="#B41E8E" stop-opacity="0.68"/>
<stop offset="0.8999" stop-color="#602D91"/>
</linearGradient>
<linearGradient id="paint28_linear" x1="30.661" y1="52.2129" x2="30.661" y2="12.6007" gradientUnits="userSpaceOnUse">
<stop offset="0.00127591" stop-color="#AFD4C4"/>
<stop offset="0.3856" stop-color="#B41E8E" stop-opacity="0.8"/>
<stop offset="0.8178" stop-color="#602D91"/>
</linearGradient>
<clipPath id="clip0">
<rect width="267" height="114" fill="white"/>
</clipPath>
</defs>
</svg>
