<svg width="26" height="34" viewBox="0 0 26 34" fill="none" xmlns="http://www.w3.org/2000/svg">
<path d="M11.8125 20.7422H14.1406V23H11.8125V20.7422ZM8.96094 15.1172C9.02344 13.6328 9.54167 12.5807 10.5156 11.9609C11.1302 11.5651 11.8854 11.3672 12.7812 11.3672C13.9583 11.3672 14.9349 11.6484 15.7109 12.2109C16.4922 12.7734 16.8828 13.6068 16.8828 14.7109C16.8828 15.388 16.7135 15.9583 16.375 16.4219C16.1771 16.7031 15.7969 17.0625 15.2344 17.5L14.6797 17.9297C14.3776 18.1641 14.1771 18.4375 14.0781 18.75C14.0156 18.9479 13.9818 19.2552 13.9766 19.6719H11.8672C11.8984 18.7917 11.9818 18.1849 12.1172 17.8516C12.2526 17.513 12.6016 17.125 13.1641 16.6875L13.7344 16.2422C13.9219 16.1016 14.0729 15.9479 14.1875 15.7812C14.3958 15.4948 14.5 15.1797 14.5 14.8359C14.5 14.4401 14.3828 14.0807 14.1484 13.7578C13.9193 13.4297 13.4974 13.2656 12.8828 13.2656C12.2786 13.2656 11.849 13.4661 11.5938 13.8672C11.3438 14.2682 11.2188 14.6849 11.2188 15.1172H8.96094Z" fill="#A51140"/>
<rect x="3" y="7" width="20" height="20" rx="3" stroke="#A51140" stroke-width="2"/>
</svg>
