<svg width="23" height="30" viewBox="0 0 23 30" fill="none" xmlns="http://www.w3.org/2000/svg">
<path d="M10.5508 15.6011H13.0244V18H10.5508V15.6011ZM7.521 9.62451C7.5874 8.04736 8.13802 6.92952 9.17285 6.271C9.82585 5.85042 10.6283 5.64014 11.5801 5.64014C12.8307 5.64014 13.8683 5.93896 14.6929 6.53662C15.5229 7.13428 15.938 8.01969 15.938 9.19287C15.938 9.91227 15.7581 10.5182 15.3984 11.0107C15.1882 11.3096 14.7842 11.6914 14.1865 12.1562L13.5972 12.6128C13.2762 12.8618 13.0632 13.1523 12.958 13.4844C12.8916 13.6947 12.8556 14.0212 12.8501 14.4639H10.6089C10.6421 13.5286 10.7306 12.884 10.8745 12.5298C11.0184 12.1701 11.3892 11.7578 11.9868 11.293L12.5928 10.8198C12.792 10.6704 12.9525 10.5072 13.0742 10.3301C13.2956 10.0257 13.4062 9.69092 13.4062 9.32568C13.4062 8.90511 13.2817 8.52327 13.0327 8.18018C12.7892 7.83154 12.341 7.65723 11.688 7.65723C11.0461 7.65723 10.5895 7.87028 10.3184 8.29639C10.0527 8.72249 9.91992 9.1652 9.91992 9.62451H7.521Z" fill="#A51140"/>
<rect x="0.5" y="0.5" width="22" height="29" rx="1.5" stroke="#A51140"/>
<path d="M18 21H5V22.5H18V21Z" fill="#EBCED7"/>
<path d="M18 24H5V25.5H18V24Z" fill="#EBCED7"/>
</svg>
