<svg width="53" height="53" viewBox="0 0 53 53" fill="none" xmlns="http://www.w3.org/2000/svg">
<g clip-path="url(#clip0)">
<path fill-rule="evenodd" clip-rule="evenodd" d="M6 3.55024C6 1.5895 7.5895 0 9.55024 0H37.445C39.4057 0 40.9952 1.5895 40.9952 3.55024V49.4498C40.9952 51.4105 39.4057 53 37.445 53H9.55024C7.5895 53 6 51.4105 6 49.4498V3.55024ZM8.78946 5.57892H38.2057V42.3493H8.78946V5.57892ZM21.8493 48.1818C21.4992 48.1818 21.2153 48.4657 21.2153 48.8158C21.2153 49.1659 21.4992 49.4498 21.8493 49.4498H25.1459C25.4961 49.4498 25.7799 49.1659 25.7799 48.8158C25.7799 48.4657 25.4961 48.1818 25.1459 48.1818H21.8493Z" fill="#B8D7C9"/>
<path fill-rule="evenodd" clip-rule="evenodd" d="M16.6523 22.8809C16.6523 17.1067 21.3332 12.4258 27.1074 12.4258H37.9595C43.7337 12.4258 48.4146 17.1067 48.4146 22.8809C48.4146 28.655 43.7337 33.336 37.9595 33.336H27.1074C26.8458 33.336 26.5863 33.3263 26.3295 33.3074L21.6056 36.1032C20.6239 36.6842 19.4342 35.7746 19.7375 34.6749L20.7097 31.1506C18.2413 29.2382 16.6523 26.2451 16.6523 22.8809ZM33.8985 18.0049C34.1786 18.0049 34.4057 18.232 34.4057 18.5121V21.0475C34.4057 21.3276 34.6328 21.5547 34.9129 21.5547H37.4499C37.73 21.5547 37.957 21.7818 37.957 22.0619V24.5978C37.957 24.8779 37.73 25.1049 37.4499 25.1049H34.9129C34.6328 25.1049 34.4057 25.332 34.4057 25.6121V28.1484C34.4057 28.4285 34.1786 28.6556 33.8985 28.6556H31.3626C31.0825 28.6556 30.8555 28.4285 30.8555 28.1484V25.6121C30.8555 25.332 30.6284 25.1049 30.3483 25.1049H27.8135C27.5334 25.1049 27.3063 24.8779 27.3063 24.5978V22.0619C27.3063 21.7818 27.5334 21.5547 27.8135 21.5547H30.3483C30.6284 21.5547 30.8555 21.3276 30.8555 21.0475V18.5121C30.8555 18.232 31.0825 18.0049 31.3626 18.0049H33.8985Z" fill="#5C068C"/>
</g>
<defs>
<clipPath id="clip0">
<rect width="53" height="53" fill="white"/>
</clipPath>
</defs>
</svg>
