<svg width="56" height="56" viewBox="0 0 56 56" fill="none" xmlns="http://www.w3.org/2000/svg">
<path fill-rule="evenodd" clip-rule="evenodd" d="M11 8.94737C11 7.31958 12.3172 6 13.942 6H37.058C38.6828 6 40 7.31958 40 8.94737V47.0526C40 48.6804 38.6828 50 37.058 50H13.942C12.3172 50 11 48.6804 11 47.0526V8.94737ZM13.3116 10.6316H37.6884V41.1579H13.3116V10.6316ZM24.1341 46C23.8438 46 23.6087 46.2356 23.6087 46.5263C23.6087 46.8171 23.8438 47.0526 24.1341 47.0526H26.8659C27.1562 47.0526 27.3913 46.8171 27.3913 46.5263C27.3913 46.2356 27.1562 46 26.8659 46H24.1341Z" fill="#B8D7C9"/>
<path fill-rule="evenodd" clip-rule="evenodd" d="M20 24.7644C20 19.924 23.8318 16 28.5584 16H37.4418C42.1684 16 46 19.924 46 24.7644C46 29.6045 42.1684 33.5285 37.4418 33.5285H28.5584C28.3442 33.5285 28.1319 33.5204 27.9216 33.5047L24.0547 35.8483C23.2512 36.3354 22.2772 35.5726 22.5255 34.6509L23.3213 31.6967C21.3007 30.0935 20 27.5844 20 24.7644ZM34.1157 20.6767C34.345 20.6767 34.5308 20.867 34.5308 21.1019V23.2276C34.5308 23.4625 34.7166 23.6528 34.946 23.6528H37.0218C37.2512 23.6528 37.437 23.843 37.437 24.0779V26.2037C37.437 26.4386 37.2512 26.6289 37.0218 26.6289H34.946C34.7166 26.6289 34.5308 26.8191 34.5308 27.054V29.1798C34.5308 29.4147 34.345 29.6049 34.1157 29.6049H32.0398C31.8104 29.6049 31.6247 29.4147 31.6247 29.1798V27.054C31.6247 26.8191 31.4389 26.6289 31.2095 26.6289H29.1337C28.9043 26.6289 28.7185 26.4386 28.7185 26.2037V24.0779C28.7185 23.843 28.9043 23.6528 29.1337 23.6528H31.2095C31.4389 23.6528 31.6247 23.4625 31.6247 23.2276V21.1019C31.6247 20.867 31.8104 20.6767 32.0398 20.6767H34.1157Z" fill="#5C068C"/>
</svg>
