<svg width="11" height="13" viewBox="0 0 11 13" fill="none" xmlns="http://www.w3.org/2000/svg">
<path d="M2.64 12.32C2.46933 11.872 2.29333 11.4453 2.112 11.04C1.94133 10.624 1.75467 10.224 1.552 9.84C1.34933 9.456 1.13067 9.07733 0.896 8.704C0.661333 8.32 0.4 7.93067 0.112 7.536L1.616 6.56C2.032 7.22133 2.4 7.888 2.72 8.56C3.05067 9.22133 3.34933 9.888 3.616 10.56H3.68C3.968 9.6 4.29867 8.66667 4.672 7.76C5.056 6.85333 5.472 5.98933 5.92 5.168C6.368 4.34667 6.84267 3.584 7.344 2.88C7.856 2.176 8.384 1.54667 8.928 0.992L10.368 2.24C9.824 2.752 9.29067 3.33333 8.768 3.984C8.24533 4.63467 7.744 5.37067 7.264 6.192C6.79467 7.00267 6.352 7.89867 5.936 8.88C5.53067 9.85067 5.168 10.912 4.848 12.064L2.64 12.32Z" fill="#5C068C"/>
</svg>
