<svg width="179" height="42" viewBox="0 0 179 42" fill="none" xmlns="http://www.w3.org/2000/svg">
<path d="M178.629 0.261719H177.946V41.0956H178.629V0.261719Z" fill="black"/>
<path d="M59.3673 8.27881L53.2583 22.0194L47.1139 8.27881L41.7417 27.4801H44.3572L47.6507 15.6434L53.263 28.1896L58.8588 15.7474L62.1099 27.4801H64.7372L59.3673 8.27881Z" fill="#394A59"/>
<path d="M64.6851 9.04272H67.4606L71.9665 16.4688L76.4253 9.04272H79.2056L73.186 19.0277V27.4802H70.6788V19.0584L64.6851 9.04272Z" fill="#394A59"/>
<path d="M96.4687 18.2711C96.5205 14.331 93.3847 11.0933 89.4627 11.0413C89.3991 11.0413 89.3356 11.0413 89.2696 11.0413C87.3981 11.02 85.6019 11.7934 84.3259 13.1698C82.9793 14.5202 82.2354 16.3625 82.266 18.2734C82.2307 20.1985 83.0005 22.0527 84.3848 23.3842C85.7549 24.7606 87.6264 25.515 89.5639 25.4725C91.4119 25.4866 93.1799 24.7133 94.43 23.344C95.7624 21.9983 96.4969 20.1678 96.4687 18.2711ZM79.7729 18.1552C79.8012 12.7961 84.1282 8.46584 89.4627 8.45874C92.0617 8.45874 94.3005 9.41656 96.1815 11.3298C98.013 13.1178 99.0324 15.5821 99.0065 18.1481C99.0065 20.934 98.0789 23.2872 96.2215 25.2099C92.5608 28.9868 86.5459 29.0696 82.7863 25.392C82.718 25.3258 82.6497 25.2572 82.5838 25.1887C80.7405 23.318 79.7306 20.778 79.78 18.1481" fill="#394A59"/>
<path d="M99.2676 9.07349H101.914L107.674 22.1306L113.48 9.07349H116.149L107.644 28.1045L99.2676 9.07349Z" fill="#394A59"/>
<path d="M122.805 14.0897L125.773 20.6644H119.869L122.805 14.0897ZM114.219 27.4803H116.825L118.932 22.7621H126.72L128.839 27.4803H131.466L122.812 8.33569L114.219 27.4803Z" fill="#394A59"/>
<path d="M134.227 27.4803H136.734V14.3854L150.301 28.3341V9.04288H147.796V22.3199L134.227 8.30737V27.4803Z" fill="#394A59"/>
<path d="M153.515 9.04272V11.5614H157.879V27.4802H160.358V11.5614H164.737V9.04272H153.515Z" fill="#394A59"/>
<path d="M82.6261 33.2484L81.555 33.9579C81.0842 33.3501 80.545 33.0451 79.9071 33.0451C79.4927 33.0427 79.0902 33.1941 78.7818 33.4708C78.4804 33.7025 78.2992 34.0596 78.2898 34.4404C78.2898 34.7455 78.4145 35.0387 78.6382 35.2469C79.0666 35.5945 79.5422 35.8783 80.0507 36.0888C80.651 36.3466 81.1901 36.7297 81.6327 37.2098C81.9882 37.645 82.1741 38.1984 82.1553 38.7612C82.1459 39.5228 81.8022 40.2394 81.2136 40.7194C80.6227 41.2705 79.8459 41.5708 79.0407 41.5614C78.3745 41.5614 77.7224 41.3745 77.1574 41.0174C76.59 40.6816 76.1451 40.1731 75.8838 39.5653L77.0609 39.0143C77.5717 39.8302 78.2238 40.237 79.0219 40.237C79.4857 40.2394 79.9353 40.0714 80.2861 39.764C80.618 39.5204 80.8228 39.1349 80.837 38.721C80.837 38.4112 80.7051 38.1156 80.4768 37.9098C80.0483 37.5646 79.5728 37.2831 79.0643 37.075C78.4663 36.8243 77.9319 36.4459 77.494 35.9658C77.1409 35.5354 76.9549 34.9867 76.9738 34.4286C76.9667 33.6954 77.2798 32.9954 77.8283 32.5106C78.3863 31.9832 79.1255 31.697 79.8906 31.7136C81.0112 31.6923 82.0588 32.2741 82.6332 33.2414" fill="#007A94"/>
<path d="M95.181 32.8676L94.7855 34.315C93.9827 33.466 93.0623 33.0426 92.0264 33.0403C91.0471 33.0166 90.1031 33.3997 89.4133 34.0998C88.7165 34.7809 88.3327 35.7245 88.3539 36.7013C88.3327 37.6378 88.6929 38.5436 89.3474 39.2105C89.9759 39.8822 90.8564 40.2582 91.7745 40.2416C92.6267 40.2133 93.4554 39.9626 94.1805 39.5156L93.971 41.0434C93.2977 41.3674 92.5632 41.5447 91.8169 41.5637C89.2179 41.6133 87.0709 39.5345 87.0215 36.9236C87.0191 36.8597 87.0215 36.7935 87.0215 36.7296C86.9885 35.3863 87.5182 34.0903 88.4834 33.1585C89.4533 32.203 90.7693 31.6851 92.1277 31.7253C93.2482 31.7466 94.3288 32.151 95.1881 32.8747" fill="#007A94"/>
<path d="M100.789 32.033L99.4424 41.2517H100.681L102.027 32.033H100.789Z" fill="#007A94"/>
<path d="M108.223 32.033L106.849 41.2517H111.185L111.35 39.9911H108.296L108.763 36.7937H111.832L112.014 35.5639H108.927L109.278 33.2628H112.35L112.546 32.033H108.223Z" fill="#007A94"/>
<path d="M117.746 41.2516H118.97L119.935 34.6083L125.232 41.6063L126.614 32.0328H125.42L124.429 38.5886L119.151 31.5906L117.746 41.2516Z" fill="#007A94"/>
<path d="M139.138 32.8678L138.74 34.3151C138.046 33.5134 137.04 33.0499 135.983 33.0404C135.004 33.0168 134.06 33.3999 133.37 34.0999C132.671 34.7811 132.285 35.7247 132.309 36.7014C132.29 37.638 132.648 38.5438 133.304 39.2107C133.931 39.8847 134.813 40.2584 135.732 40.2418C136.584 40.2134 137.412 39.9627 138.138 39.5134L137.928 41.0412C137.255 41.3652 136.52 41.5426 135.774 41.5615C133.175 41.6111 131.028 39.5323 130.979 36.9214C130.976 36.8575 130.979 36.7913 130.979 36.7274C130.946 35.3841 131.475 34.0881 132.44 33.1563C133.41 32.2009 134.724 31.6829 136.082 31.7231C137.203 31.7444 138.283 32.1512 139.143 32.8725" fill="#007A94"/>
<path d="M144.863 32.033L143.488 41.2517H147.825L147.987 39.9911H144.936L145.402 36.7937H148.472L148.651 35.5639H145.567L145.918 33.2628H148.99L149.185 32.033H144.863Z" fill="#007A94"/>
<path d="M160.392 33.2484L159.318 33.9579C158.861 33.3501 158.308 33.0451 157.67 33.0451C157.256 33.0427 156.853 33.1941 156.545 33.4708C156.243 33.7025 156.062 34.0596 156.053 34.4404C156.053 34.7455 156.178 35.0387 156.399 35.2469C156.827 35.5945 157.303 35.8783 157.811 36.0888C158.409 36.3489 158.948 36.7297 159.393 37.2098C159.749 37.645 159.935 38.1984 159.916 38.7612C159.907 39.5228 159.561 40.2394 158.974 40.7194C158.383 41.2705 157.604 41.5708 156.799 41.5614C156.133 41.5614 155.481 41.3745 154.916 41.0174C154.348 40.6816 153.903 40.1731 153.642 39.5653L154.819 39.0143C155.328 39.8302 155.98 40.237 156.778 40.237C157.242 40.2417 157.691 40.0714 158.04 39.764C158.374 39.5204 158.576 39.1349 158.591 38.721C158.591 38.4112 158.459 38.1156 158.23 37.9098C157.802 37.5646 157.326 37.2831 156.818 37.075C156.222 36.8219 155.686 36.4435 155.248 35.9658C154.895 35.533 154.711 34.9867 154.73 34.4286C154.723 33.6954 155.036 32.9954 155.584 32.5106C156.142 31.9832 156.881 31.697 157.647 31.7136C158.767 31.6923 159.815 32.2741 160.389 33.2414" fill="#007A94"/>
<path d="M20.1937 32.0233L24.2311 24.9993H32.3059L36.3433 32.0233L32.3059 39.0497H24.2311L20.1937 32.0233ZM22.7009 22.3269L17.1333 32.0233L22.7009 41.7198H33.8361L39.4061 32.0233L33.8361 22.3269H22.7009Z" fill="#FFCB00"/>
<path d="M32.9744 18.2048L36.3808 14.506L33.2215 10.9822H24.2428L20.3749 14.3452L24.0945 18.2048H32.9744ZM23.0586 20.4705L17.2485 14.2837L23.254 8.69995H34.1609L39.5566 14.5036L33.8383 20.4681L23.0586 20.4705Z" fill="#007A94"/>
<path d="M3.58295 27.8089L7.82045 20.5247L15.1843 18.2047L18.1859 21.5937L13.8495 28.963L6.59157 31.3327L3.58295 27.8089ZM6.17253 18.5121L0.550781 28.1376L5.87591 34.1991L15.4621 30.9993L21.2251 21.2508L15.8552 15.3667L6.17253 18.5121Z" fill="#EA7125"/>
</svg>
