<svg width="53" height="53" viewBox="0 0 53 53" fill="none" xmlns="http://www.w3.org/2000/svg">
<path d="M45.6333 10.5713H16.8986C15.0389 10.5713 13.5312 12.0789 13.5312 13.9386V49.6325C13.5312 51.4922 15.0389 52.9999 16.8986 52.9999H45.6333C47.493 52.9999 49.0006 51.4922 49.0006 49.6325V13.9386C49.0006 12.0789 47.493 10.5713 45.6333 10.5713Z" fill="#5C068C"/>
<path d="M38.4958 14.6299H9.61936C9.10902 14.6299 8.69531 15.0436 8.69531 15.5539V15.5539C8.69531 16.0643 9.10902 16.478 9.61936 16.478H38.4958C39.0062 16.478 39.4199 16.0643 39.4199 15.5539C39.4199 15.0436 39.0062 14.6299 38.4958 14.6299Z" fill="white"/>
<path fill-rule="evenodd" clip-rule="evenodd" d="M37.3396 9.68185C36.9559 9.79098 36.5619 9.54449 36.4923 9.15167L35.0464 1H8.36735C6.50761 1 5 2.50761 5 4.36735V44.759C5 46.6187 6.50761 48.1264 8.36735 48.1264H41.1357C42.9953 48.1264 44.503 46.6187 44.503 44.759V7.6449L37.3396 9.68185Z" fill="#B8D7C9"/>
<path d="M38.4958 33.5723H9.61936C9.10902 33.5723 8.69531 33.986 8.69531 34.4963V34.4963C8.69531 35.0066 9.10902 35.4204 9.61936 35.4204H38.4958C39.0062 35.4204 39.4199 35.0066 39.4199 34.4963C39.4199 33.986 39.0062 33.5723 38.4958 33.5723Z" fill="white"/>
<path d="M38.4958 21.0977H9.61936C9.10902 21.0977 8.69531 21.5114 8.69531 22.0217V22.0217C8.69531 22.532 9.10902 22.9457 9.61936 22.9457H38.4958C39.0062 22.9457 39.4199 22.532 39.4199 22.0217C39.4199 21.5114 39.0062 21.0977 38.4958 21.0977Z" fill="white"/>
<path d="M38.4958 27.335H9.61936C9.10902 27.335 8.69531 27.7487 8.69531 28.259V28.259C8.69531 28.7693 9.10902 29.1831 9.61936 29.1831H38.4958C39.0062 29.1831 39.4199 28.7693 39.4199 28.259C39.4199 27.7487 39.0062 27.335 38.4958 27.335Z" fill="white"/>
<path d="M37.6124 7.25383C37.6858 7.64106 38.0748 7.88263 38.4544 7.77692L43.7268 6.30927C44.2918 6.15199 44.3998 5.3978 43.9017 5.08836L37.6076 1.17941C37.1095 0.869973 36.4812 1.30104 36.5907 1.87724L37.6124 7.25383Z" fill="#B8D7C9"/>
</svg>
