<svg width="54" height="53" viewBox="0 0 54 53" fill="none" xmlns="http://www.w3.org/2000/svg">
<path d="M45.8292 9.73535H16.601C14.7093 9.73535 13.1758 11.2689 13.1758 13.1605V49.4675C13.1758 51.3592 14.7093 52.8927 16.601 52.8927H45.8292C47.7209 52.8927 49.2544 51.3592 49.2544 49.4675V13.1605C49.2544 11.2689 47.7209 9.73535 45.8292 9.73535Z" fill="#5C068C"/>
<path d="M38.5702 13.8633H9.19773C8.67863 13.8633 8.25781 14.2841 8.25781 14.8032V14.8032C8.25781 15.3223 8.67863 15.7431 9.19773 15.7431H38.5702C39.0893 15.7431 39.5101 15.3223 39.5101 14.8032C39.5101 14.2841 39.0893 13.8633 38.5702 13.8633Z" fill="white"/>
<path fill-rule="evenodd" clip-rule="evenodd" d="M37.395 8.83099C37.0048 8.94197 36.604 8.69125 36.5332 8.29171L35.0625 0H7.92518C6.0335 0 4.5 1.53352 4.5 3.42518V44.5106C4.5 46.4022 6.0335 47.9358 7.92518 47.9358H41.2563C43.1479 47.9358 44.6815 46.4022 44.6815 44.5106V6.75903L37.395 8.83099Z" fill="#B8D7C9"/>
<path d="M38.4081 36.4512H19.6838C19.1163 36.4512 18.6562 36.9112 18.6562 37.4787C18.6562 38.0462 19.1163 38.5063 19.6838 38.5063H38.4081C38.9756 38.5063 39.4357 38.0462 39.4357 37.4787C39.4357 36.9112 38.9756 36.4512 38.4081 36.4512Z" fill="white"/>
<path d="M38.5223 20.4678H19.5696C19.0652 20.4678 18.6562 20.8767 18.6562 21.3812C18.6562 21.8856 19.0652 22.2945 19.5696 22.2945H38.5223C39.0268 22.2945 39.4357 21.8856 39.4357 21.3812C39.4357 20.8767 39.0268 20.4678 38.5223 20.4678Z" fill="white"/>
<path d="M38.5223 28.2314H19.5696C19.0652 28.2314 18.6562 28.6404 18.6562 29.1448C18.6562 29.6493 19.0652 30.0582 19.5696 30.0582H38.5223C39.0268 30.0582 39.4357 29.6493 39.4357 29.1448C39.4357 28.6404 39.0268 28.2314 38.5223 28.2314Z" fill="white"/>
<path d="M37.6729 6.36092C37.7478 6.75479 38.1435 7.00051 38.5296 6.89298L43.8925 5.40013C44.4673 5.24015 44.5771 4.473 44.0702 4.15825L37.6683 0.182159C37.1614 -0.132592 36.5225 0.305876 36.6339 0.891971L37.6729 6.36092Z" fill="#B8D7C9"/>
<path d="M24.5938 11.2119V14.8654" stroke="#5C068C" stroke-width="2.54946" stroke-linecap="round" stroke-linejoin="round"/>
<path d="M20.9414 10.6416H24.5949" stroke="#5C068C" stroke-width="2.54946" stroke-linecap="round" stroke-linejoin="round"/>
<path d="M24.5938 6.41699V10.8697" stroke="#5C068C" stroke-width="2.54946" stroke-linecap="round" stroke-linejoin="round"/>
<path d="M24.5938 10.6416H28.2473" stroke="#5C068C" stroke-width="2.54946" stroke-linecap="round" stroke-linejoin="round"/>
<mask id="mask0" mask-type="alpha" maskUnits="userSpaceOnUse" x="9" y="26" width="7" height="7">
<path d="M14.547 26.0547H10.6652C10.0346 26.0547 9.52344 26.5659 9.52344 27.1964V31.0783C9.52344 31.7088 10.0346 32.22 10.6652 32.22H14.547C15.1776 32.22 15.6888 31.7088 15.6888 31.0783V27.1964C15.6888 26.5659 15.1776 26.0547 14.547 26.0547Z" fill="white"/>
</mask>
<g mask="url(#mask0)">
<path d="M14.547 26.0547H10.6652C10.0346 26.0547 9.52344 26.5659 9.52344 27.1964V31.0783C9.52344 31.7088 10.0346 32.22 10.6652 32.22H14.547C15.1776 32.22 15.6888 31.7088 15.6888 31.0783V27.1964C15.6888 26.5659 15.1776 26.0547 14.547 26.0547Z" stroke="white" stroke-width="3.19684"/>
</g>
<mask id="mask1" mask-type="alpha" maskUnits="userSpaceOnUse" x="9" y="34" width="7" height="7">
<path d="M14.547 34.5039H10.6652C10.0346 34.5039 9.52344 35.0151 9.52344 35.6456V39.5275C9.52344 40.1581 10.0346 40.6692 10.6652 40.6692H14.547C15.1776 40.6692 15.6888 40.1581 15.6888 39.5275V35.6456C15.6888 35.0151 15.1776 34.5039 14.547 34.5039Z" fill="white"/>
</mask>
<g mask="url(#mask1)">
<path d="M14.547 34.5039H10.6652C10.0346 34.5039 9.52344 35.0151 9.52344 35.6456V39.5275C9.52344 40.1581 10.0346 40.6692 10.6652 40.6692H14.547C15.1776 40.6692 15.6888 40.1581 15.6888 39.5275V35.6456C15.6888 35.0151 15.1776 34.5039 14.547 34.5039Z" stroke="white" stroke-width="3.19684"/>
</g>
<mask id="mask2" mask-type="alpha" maskUnits="userSpaceOnUse" x="9" y="18" width="7" height="7">
<path d="M14.547 18.291H10.6652C10.0346 18.291 9.52344 18.8022 9.52344 19.4327V23.3146C9.52344 23.9452 10.0346 24.4563 10.6652 24.4563H14.547C15.1776 24.4563 15.6888 23.9452 15.6888 23.3146V19.4327C15.6888 18.8022 15.1776 18.291 14.547 18.291Z" fill="white"/>
</mask>
<g mask="url(#mask2)">
<path d="M14.547 18.291H10.6652C10.0346 18.291 9.52344 18.8022 9.52344 19.4327V23.3146C9.52344 23.9452 10.0346 24.4563 10.6652 24.4563H14.547C15.1776 24.4563 15.6888 23.9452 15.6888 23.3146V19.4327C15.6888 18.8022 15.1776 18.291 14.547 18.291Z" stroke="white" stroke-width="3.19684"/>
</g>
</svg>
