<svg width="56" height="56" viewBox="0 0 56 56" fill="none" xmlns="http://www.w3.org/2000/svg">
<path fill-rule="evenodd" clip-rule="evenodd" d="M12.9853 17.9036C13.3535 17.8375 13.5845 17.4641 13.4823 17.1003L11.4861 10H47.8437C49.5868 10 51 11.4293 51 13.1924V45.8076C51 47.5706 49.5868 49 47.8437 49H8.15632C6.41313 49 5 47.5706 5 45.8076V19.3361L12.9853 17.9036ZM11.3768 39.3333C10.8927 39.3333 10.5003 39.7302 10.5003 40.2197C10.5003 40.7095 10.8927 41.1064 11.3768 41.1064H44.9028C45.387 41.1064 45.7792 40.7095 45.7792 40.2197C45.7792 39.7302 45.387 39.3333 44.9028 39.3333H11.3768ZM10.5003 27.3653C10.5003 26.8756 10.8927 26.4787 11.3768 26.4787H32.6319C33.1159 26.4787 33.5083 26.8756 33.5083 27.3653C33.5083 27.8548 33.1159 28.2518 32.6319 28.2518H11.3768C10.8927 28.2518 10.5003 27.8548 10.5003 27.3653ZM11.3768 33.1277C10.8927 33.1277 10.5003 33.5246 10.5003 34.0141C10.5003 34.5038 10.8927 34.9007 11.3768 34.9007H44.9028C45.387 34.9007 45.7792 34.5038 45.7792 34.0141C45.7792 33.5246 45.387 33.1277 44.9028 33.1277H11.3768Z" fill="#B8D7C9"/>
<path d="M12.3773 16.9075C12.8173 16.834 13.0918 16.4455 12.9717 16.0663L11.2064 10.4925C11.0277 9.92815 10.1707 9.82035 9.81904 10.318L5.11731 16.9718C4.76569 17.4694 5.25553 18.0968 5.91028 17.9875L12.3773 16.9075Z" fill="#B8D7C9"/>
<path d="M34 23.9474L35.6732 21.2573C36.5099 21.7773 37.2942 22.1898 38.0262 22.4947C38.7756 22.7818 39.5686 22.9252 40.4053 22.9252C41.0326 22.9252 41.512 22.8175 41.8432 22.6024C42.1743 22.3872 42.3398 22.0911 42.3398 21.7146C42.3398 21.338 42.1482 21.0241 41.7646 20.773C41.3986 20.5221 40.9281 20.28 40.353 20.0469C39.7952 19.8137 39.1852 19.5716 38.523 19.3205C37.8605 19.0694 37.2419 18.7556 36.6667 18.379C36.1089 18.0023 35.6384 17.5361 35.2548 16.9801C34.8888 16.4242 34.7059 15.7337 34.7059 14.9088C34.7059 13.7431 35.0893 12.7747 35.8563 12.0035C36.623 11.2324 37.6689 10.7392 38.9934 10.524V7H41.5557V10.4971C42.4619 10.6226 43.2462 10.8827 43.9085 11.2772C44.5883 11.6538 45.1983 12.129 45.7385 12.7029L43.8301 14.9626C43.2201 14.5142 42.6363 14.1825 42.0785 13.9672C41.5381 13.7341 40.9108 13.6175 40.1961 13.6175C38.9934 13.6175 38.3922 14.03 38.3922 14.855C38.3922 15.1778 38.5751 15.4468 38.9411 15.662C39.3247 15.8772 39.7952 16.0924 40.353 16.3076C40.9281 16.5228 41.5381 16.756 42.183 17.007C42.8452 17.2581 43.4554 17.5809 44.0132 17.9754C44.5883 18.352 45.0588 18.8183 45.4248 19.3743C45.8082 19.9302 46 20.6116 46 21.4187C46 22.5486 45.6253 23.5349 44.8757 24.3778C44.1263 25.2028 43.0197 25.7408 41.5557 25.9917V30H38.9934V26.0724C38.1394 25.9829 37.2592 25.7586 36.353 25.4C35.4466 25.0234 34.6623 24.5392 34 23.9474Z" fill="#5C068C"/>
</svg>
