<svg width="45" height="52" viewBox="0 0 45 52" fill="none" xmlns="http://www.w3.org/2000/svg">
<path d="M41.1323 9.57101H12.3976C10.5379 9.57101 9.03027 11.0786 9.03027 12.9384V48.6322C9.03027 50.492 10.5379 51.9996 12.3976 51.9996H41.1323C42.992 51.9996 44.4997 50.492 44.4997 48.6322V12.9384C44.4997 11.0786 42.992 9.57101 41.1323 9.57101Z" fill="#5C068C"/>
<path d="M33.9968 13.6296H5.12033C4.61 13.6296 4.19629 14.0433 4.19629 14.5537V14.5537C4.19629 15.064 4.61 15.4777 5.12033 15.4777H33.9968C34.5072 15.4777 34.9209 15.064 34.9209 14.5537C34.9209 14.0433 34.5072 13.6296 33.9968 13.6296Z" fill="white"/>
<path fill-rule="evenodd" clip-rule="evenodd" d="M32.8396 8.68185C32.4559 8.79098 32.0619 8.54449 31.9923 8.15167L30.5464 0H3.86735C2.00761 0 0.5 1.50761 0.5 3.36735V43.759C0.5 45.6187 2.00761 47.1264 3.86735 47.1264H36.6357C38.4953 47.1264 40.003 45.6187 40.003 43.759V6.6449L32.8396 8.68185Z" fill="#B8D7C9"/>
<path d="M33.9968 32.5724H5.12033C4.61 32.5724 4.19629 32.9861 4.19629 33.4965V33.4965C4.19629 34.0068 4.61 34.4205 5.12033 34.4205H33.9968C34.5072 34.4205 34.9209 34.0068 34.9209 33.4965C34.9209 32.9861 34.5072 32.5724 33.9968 32.5724Z" fill="white"/>
<path d="M33.9968 20.098H5.12033C4.61 20.098 4.19629 20.5117 4.19629 21.0221V21.0221C4.19629 21.5324 4.61 21.9461 5.12033 21.9461H33.9968C34.5072 21.9461 34.9209 21.5324 34.9209 21.0221C34.9209 20.5117 34.5072 20.098 33.9968 20.098Z" fill="white"/>
<path d="M33.9968 26.3353H5.12033C4.61 26.3353 4.19629 26.749 4.19629 27.2593V27.2593C4.19629 27.7696 4.61 28.1833 5.12033 28.1833H33.9968C34.5072 28.1833 34.9209 27.7696 34.9209 27.2593C34.9209 26.749 34.5072 26.3353 33.9968 26.3353Z" fill="white"/>
<path d="M33.1104 6.25347C33.1838 6.64069 33.5729 6.88226 33.9525 6.77655L39.2248 5.3089C39.7899 5.15163 39.8979 4.39743 39.3997 4.08799L33.1057 0.179043C32.6075 -0.130393 31.9792 0.300672 32.0888 0.87687L33.1104 6.25347Z" fill="#B8D7C9"/>
</svg>
