<svg width="53" height="53" viewBox="0 0 53 53" fill="none" xmlns="http://www.w3.org/2000/svg">
<g clip-path="url(#clip0)">
<path d="M41.666 16.2037H10.4752C10.2191 16.2164 9.97763 16.327 9.80081 16.5126C9.624 16.6983 9.52539 16.9449 9.52539 17.2012C9.52539 17.4576 9.624 17.7041 9.80081 17.8898C9.97763 18.0755 10.2191 18.1861 10.4752 18.1987H41.666C41.8012 18.2054 41.9363 18.1845 42.0632 18.1374C42.1901 18.0903 42.306 18.0179 42.404 17.9246C42.5021 17.8313 42.5801 17.7191 42.6334 17.5947C42.6868 17.4704 42.7143 17.3365 42.7143 17.2012C42.7143 17.0659 42.6868 16.932 42.6334 16.8077C42.5801 16.6833 42.5021 16.5711 42.404 16.4778C42.306 16.3846 42.1901 16.3122 42.0632 16.265C41.9363 16.2179 41.8012 16.1971 41.666 16.2037Z" fill="#5C068C"/>
<path fill-rule="evenodd" clip-rule="evenodd" d="M39.9324 10.3761C39.8344 10.4037 39.7318 10.4105 39.631 10.396C39.5303 10.3815 39.4337 10.346 39.3476 10.2919C39.2614 10.2378 39.1876 10.1661 39.1309 10.0817C39.0741 9.99723 39.0357 9.90182 39.0182 9.80161L37.4542 1H8.63727C7.67261 1 6.74745 1.38308 6.06533 2.06497C5.38321 2.74685 5 3.67169 5 4.63603V48.2514C5 49.2157 5.38321 50.1406 6.06533 50.8224C6.74745 51.5043 7.67261 51.8874 8.63727 51.8874H44.0401C45.0047 51.8874 45.9299 51.5043 46.612 50.8224C47.2941 50.1406 47.6773 49.2157 47.6773 48.2514V8.18237L39.9324 10.3761Z" stroke="#B8D7C9" stroke-width="2.84656" stroke-miterlimit="10"/>
<path d="M41.666 36.6578H10.4752C10.2191 36.6705 9.97763 36.7811 9.80081 36.9667C9.624 37.1524 9.52539 37.399 9.52539 37.6553C9.52539 37.9117 9.624 38.1582 9.80081 38.3439C9.97763 38.5296 10.2191 38.6402 10.4752 38.6528H41.666C41.8012 38.6595 41.9363 38.6386 42.0632 38.5915C42.1901 38.5443 42.306 38.4719 42.404 38.3787C42.5021 38.2854 42.5801 38.1732 42.6334 38.0488C42.6868 37.9245 42.7143 37.7906 42.7143 37.6553C42.7143 37.52 42.6868 37.3861 42.6334 37.2618C42.5801 37.1374 42.5021 37.0252 42.404 36.9319C42.306 36.8387 42.1901 36.7663 42.0632 36.7191C41.9363 36.672 41.8012 36.6512 41.666 36.6578Z" fill="#5C068C"/>
<path d="M41.666 23.1876H10.4752C10.2191 23.2002 9.97763 23.3108 9.80081 23.4965C9.624 23.6822 9.52539 23.9287 9.52539 24.1851C9.52539 24.4415 9.624 24.688 9.80081 24.8737C9.97763 25.0594 10.2191 25.17 10.4752 25.1826H41.666C41.8012 25.1892 41.9363 25.1684 42.0632 25.1213C42.1901 25.0741 42.306 25.0017 42.404 24.9085C42.5021 24.8152 42.5801 24.703 42.6334 24.5786C42.6868 24.4543 42.7143 24.3204 42.7143 24.1851C42.7143 24.0498 42.6868 23.9159 42.6334 23.7916C42.5801 23.6672 42.5021 23.555 42.404 23.4617C42.306 23.3685 42.1901 23.2961 42.0632 23.2489C41.9363 23.2018 41.8012 23.1809 41.666 23.1876Z" fill="#5C068C"/>
<path d="M41.6635 29.921H10.4727C10.2077 29.921 9.9536 30.0262 9.76624 30.2135C9.57889 30.4008 9.47363 30.6549 9.47363 30.9197C9.47363 31.1846 9.57889 31.4386 9.76624 31.6259C9.9536 31.8132 10.2077 31.9184 10.4727 31.9184H41.6635C41.9284 31.9184 42.1826 31.8132 42.3699 31.6259C42.5573 31.4386 42.6625 31.1846 42.6625 30.9197C42.6625 30.6549 42.5573 30.4008 42.3699 30.2135C42.1826 30.0262 41.9284 29.921 41.6635 29.921Z" fill="#5C068C"/>
<path d="M38.6436 1L47.6689 6.8128" stroke="#B8D7C9" stroke-width="2.84656" stroke-miterlimit="10" stroke-linecap="round"/>
</g>
<defs>
<clipPath id="clip0">
<rect width="53" height="53" fill="white"/>
</clipPath>
</defs>
</svg>
