<svg width="122" height="51" viewBox="0 0 122 51" fill="none" xmlns="http://www.w3.org/2000/svg">
<path d="M1.15869 27.3702C2.61592 23.1724 10.9026 21.4057 22.9912 22.8767L25.3312 14.2303C13.3697 12.7026 4.63579 14.4195 3.18092 19.8874L1.15869 27.3702Z" fill="#0095FF"/>
<path d="M44.8187 18.3738C43.3615 22.5693 35.0795 24.3288 22.9909 22.8673L20.6367 31.5136C32.5982 33.0391 41.3322 31.3244 42.787 25.8542L44.8187 18.3738Z" fill="#0000C9"/>
<path d="M8.81689 9.26144C26.4731 10.5314 44.5107 19.3055 42.8016 25.8542L44.3859 20.0056C44.8921 18.1609 45.144 17.2078 45.144 16.4581C45.144 9.78174 27.7397 1.64146 11.1569 0.624512L8.81689 9.26144Z" fill="#0095FF"/>
<path d="M37.1679 36.473C19.5117 35.2007 1.47165 26.4266 3.18078 19.8779L1.59878 25.7289C1.09264 27.5712 0.838379 28.5267 0.838379 29.2882C0.838379 35.9646 18.2427 44.1025 34.8255 45.1194L37.1679 36.473Z" fill="#0000C9"/>
<path d="M101.571 34.4394C99.3364 34.4677 98.1452 33.0416 98.1452 30.504C98.1452 30.3361 98.1452 30.1729 98.1593 30.0097H106.938C107.119 29.3333 107.216 28.638 107.228 27.938C107.228 24.8493 105.344 22.4985 101.483 22.4985C97.5355 22.4985 94.0254 26.4055 94.0254 30.5158C94.0254 34.4512 96.5797 36.8422 100.852 36.8422C102.665 36.8469 104.431 36.2746 105.9 35.2103L105.088 33.1694C104.078 33.9569 102.846 34.4015 101.571 34.4394ZM101.54 24.7027C102.846 24.7027 103.515 25.5494 103.515 27.4153C103.515 27.5998 103.503 27.7843 103.482 27.9687H98.4748C99.0209 26.0058 100.186 24.7027 101.545 24.7027H101.54Z" fill="#0000C9"/>
<path d="M66.8114 21.614C66.8114 18.4071 64.316 16.0752 60.5423 16.0752H53.2303L47.7168 36.4803H52.331L54.3626 28.9596H58.3647C62.9624 28.9596 66.8114 25.9869 66.8114 21.614ZM56.6061 26.5686H55.0171L57.2088 18.4638H58.8567C60.9567 18.4638 62.1361 19.8828 62.1361 21.789C62.1384 24.8185 59.7725 26.5686 56.6061 26.5686Z" fill="#0000C9"/>
<path d="M72.8217 22.8675L73.3396 20.9755C73.6009 19.9846 74.0459 18.2936 74.6462 16.3425C75.2841 14.3299 76.4448 13.0765 78.0126 13.0765C78.766 13.0765 79.2297 13.4265 79.2297 14.0083C79.2015 14.6515 78.6788 15.0299 78.6788 16.0493C78.6788 17.2459 79.6958 18.1777 81 18.1777C82.6103 18.1848 83.9239 16.8794 83.931 15.2617C83.931 12.7856 81.8122 11.1514 78.5917 11.1514C73.8622 11.1514 70.7571 14.1833 68.8125 21.2688L60.9214 50.098H65.3943L72.2214 25.1166H76.852L73.7916 36.4851H78.2645L81.9205 22.8722L72.8217 22.8675Z" fill="#0000C9"/>
<path d="M95.4522 22.8674H83.6108L83.0317 25.1118H88.7617L79.8677 36.4803H92.4036L92.9851 34.2359H86.5323L95.4522 22.8674Z" fill="#0000C9"/>
<path d="M118.9 22.6333C117.297 22.6333 115.604 23.6739 114.258 25.8331L115.039 22.8674H110.566L106.91 36.4803H111.383L113.031 30.3573C113.697 27.8505 115.322 25.3909 116.395 25.3909C117.558 25.3909 117.123 27.5761 119.124 27.5761C120.574 27.5761 121.445 26.2352 121.445 25.0125C121.452 23.5958 120.322 22.6333 118.9 22.6333Z" fill="#0000C9"/>
</svg>
