<svg width="12" height="12" viewBox="0 0 12 12" fill="none" xmlns="http://www.w3.org/2000/svg">
<g filter="url(#filter0_d)">
<path d="M11.5 7H7V11.5C7 11.7763 6.77625 12 6.5 12H5.5C5.22375 12 5 11.7763 5 11.5V7H0.5C0.22375 7 0 6.77625 0 6.5V5.5C0 5.22375 0.22375 5 0.5 5H5V0.5C5 0.22375 5.22375 0 5.5 0H6.5C6.77625 0 7 0.22375 7 0.5V5H11.5C11.7762 5 12 5.22375 12 5.5V6.5C12 6.77625 11.7762 7 11.5 7Z" fill="#5C068C"/>
</g>
<defs>
<filter id="filter0_d" x="0" y="0" width="12" height="12" filterUnits="userSpaceOnUse" color-interpolation-filters="sRGB">
<feFlood flood-opacity="0" result="BackgroundImageFix"/>
<feColorMatrix in="SourceAlpha" type="matrix" values="0 0 0 0 0 0 0 0 0 0 0 0 0 0 0 0 0 0 127 0"/>
<feMorphology radius="60" operator="erode" in="SourceAlpha" result="effect1_dropShadow"/>
<feOffset dy="3"/>
<feGaussianBlur stdDeviation="5"/>
<feColorMatrix type="matrix" values="0 0 0 0 0 0 0 0 0 0 0 0 0 0 0 0 0 0 0.2 0"/>
<feBlend mode="normal" in2="BackgroundImageFix" result="effect1_dropShadow"/>
<feBlend mode="normal" in="SourceGraphic" in2="effect1_dropShadow" result="shape"/>
</filter>
</defs>
</svg>
