<svg width="54" height="53" viewBox="0 0 54 53" fill="none" xmlns="http://www.w3.org/2000/svg">
<g clip-path="url(#clip0)">
<path d="M44.4697 27.7381C43.4998 27.0554 42.2118 26.8582 41.0297 27.3512L29.6412 32.9483C30.2323 33.7901 30.5656 34.7837 30.611 35.8075L44.4697 27.7381ZM52.3042 28.9684C51.0161 27.1255 48.1369 27.5047 45.3788 29.1353C40.6507 31.9337 30.4292 37.8571 30.4292 37.8571C30.3536 38.1451 30.2549 38.4334 30.1261 38.7141C29.4443 40.1853 28.1485 41.247 26.5726 41.6337C25.3981 41.922 24.1479 41.8007 23.0492 41.2925L15.116 37.5005V36.1505L23.5872 39.9115C24.2918 40.2374 25.0495 40.3436 25.7695 40.2602C25.9059 40.2449 26.0347 40.2223 26.171 40.192L26.2695 40.1691C27.0802 39.972 27.8152 39.517 28.376 38.8648C28.6108 38.5917 28.8155 38.2883 28.9744 37.9471C29.1487 37.5754 29.2549 37.1962 29.3079 36.8171C29.4669 35.7097 29.1563 34.6025 28.482 33.738C28.103 33.2526 27.6105 32.843 27.0121 32.5623C27.0121 32.5623 17.9119 28.5437 14.8735 27.133C13.6688 26.5643 12.1609 27.0193 10.4713 27.3151C8.74368 27.6184 2.13647 28.6726 2.13647 28.6726C1.78036 28.7484 1.5 29.0974 1.5 29.4538L1.50758 44.8115C1.50758 45.1605 1.79551 45.4486 2.14405 45.4486H8.12236C8.12236 45.4486 8.971 45.4259 9.44077 45.5244C9.70597 45.5851 10.3652 45.843 10.3652 45.843L25.8149 51.8571C26.4892 52.0391 27.1939 52.0469 27.8607 51.8874C28.1788 51.8116 28.5048 51.7132 28.7851 51.5311C33.6116 48.5126 48.5081 36.9014 50.1372 35.6197C53.8878 32.6845 53.4637 30.6294 52.3042 28.9684Z" fill="#B8D7C9"/>
<path d="M27.4258 14.4395V22.5481" stroke="#5C068C" stroke-width="5.55223" stroke-linecap="round" stroke-linejoin="round"/>
<path d="M19.3164 13.1729H27.425" stroke="#5C068C" stroke-width="5.55223" stroke-linecap="round" stroke-linejoin="round"/>
<path d="M27.4258 3.79688V13.6792" stroke="#5C068C" stroke-width="5.55223" stroke-linecap="round" stroke-linejoin="round"/>
<path d="M27.4258 13.1729H35.5344" stroke="#5C068C" stroke-width="5.55223" stroke-linecap="round" stroke-linejoin="round"/>
</g>
<defs>
<clipPath id="clip0">
<rect width="53" height="53" fill="white" transform="translate(0.5)"/>
</clipPath>
</defs>
</svg>
