<svg width="143" height="104" viewBox="0 0 143 104" fill="none" xmlns="http://www.w3.org/2000/svg">
<g clip-path="url(#clip0)">
<path d="M72.1882 10.1035L71.702 10.3971C71.4237 10.5708 71.0705 10.5708 70.7921 10.3971L70.3019 10.1035C68.2328 11.7454 66.4296 13.7016 64.9629 15.8935C65.3784 16.183 65.7939 16.4559 66.2093 16.7206C67.6095 14.6528 69.313 12.8041 71.2658 11.2408C73.1936 12.7752 74.8805 14.5866 76.2724 16.6172C76.6879 16.3567 77.0784 16.0837 77.4981 15.7901C76.0272 13.6395 74.2365 11.7206 72.1882 10.1035Z" fill="url(#paint0_linear)"/>
<path d="M78.5781 23.4696C78.5781 28.2505 74.9385 32.4937 72.7613 34.5988C71.9096 35.4176 70.5634 35.4176 69.7117 34.5988C67.5428 32.4937 63.8949 28.2505 63.8949 23.4696C63.8949 23.2008 63.8949 22.932 63.9323 22.6673C63.5168 22.1504 63.1013 21.6086 62.6858 21.042C62.5113 21.8402 62.4241 22.6549 62.4199 23.4696C62.4199 28.784 66.3338 33.3953 68.6522 35.641C70.0731 37.0016 72.3167 37.0016 73.7377 35.641C76.0727 33.3746 79.97 28.784 79.97 23.4696C79.97 22.6549 79.8786 21.8402 79.7041 21.042C79.3093 21.6086 78.8939 22.1504 78.4576 22.6673C78.5656 22.9237 78.5781 23.2008 78.5781 23.4696Z" fill="url(#paint1_linear)"/>
<path d="M76.6992 17.3242C77.4346 18.5236 77.9789 19.8346 78.3113 21.1993C78.6852 20.7031 79.0467 20.1861 79.3916 19.6526C79.0176 18.5525 78.5232 17.4938 77.9207 16.4971C77.5053 16.7907 77.0981 17.0637 76.6992 17.3242Z" fill="url(#paint2_linear)"/>
<path d="M64.5142 16.5928C63.9367 17.5605 63.463 18.5862 63.1016 19.6532C63.4423 20.1867 63.8037 20.7036 64.1777 21.1999C64.5017 19.8682 65.0253 18.5903 65.7316 17.4158C65.341 17.1552 64.9297 16.8823 64.5142 16.5928Z" fill="url(#paint3_linear)"/>
<path d="M72.1871 10.1039C74.9043 8.52403 78.5066 7.17166 80.4012 8.22626C81.4191 8.78871 81.9343 10.0501 81.9343 11.9732C81.9343 12.0352 81.9343 12.0973 81.9343 12.1593C82.3 11.8036 82.6531 11.4438 82.9938 11.0716C82.8318 9.21882 82.1629 7.9409 80.9455 7.27505C78.9761 6.18323 76.1092 7.01864 73.9072 8.00293C73.0056 8.83007 72.2993 9.49591 71.9004 9.8764L72.1871 10.1039Z" fill="url(#paint4_linear)"/>
<path d="M60.6776 13.5856C60.2621 13.2175 59.8466 12.837 59.4727 12.4482C59.6015 15.612 60.985 18.5566 62.7176 21.0422C62.8173 20.5707 62.9461 20.1075 63.0998 19.6526C61.8742 17.8246 61.0473 15.7568 60.6776 13.5856Z" fill="url(#paint5_linear)"/>
<path d="M62.0865 8.22616C62.6017 7.96562 63.171 7.83741 63.7485 7.85395C65.693 7.85395 68.2399 8.91269 70.2841 10.1038L70.5749 9.88044C70.014 9.33453 69.3284 8.68522 68.5307 7.98216C66.3328 7.00614 63.4909 6.19141 61.5423 7.27496C60.2958 7.96148 59.6103 9.30558 59.4648 11.2576C59.8097 11.6298 60.1712 11.9896 60.5409 12.3412C60.5409 12.2171 60.5409 12.0972 60.5409 11.9731C60.5576 10.05 61.0686 8.78862 62.0865 8.22616Z" fill="url(#paint6_linear)"/>
<path d="M73.8544 25.9222C72.3586 27.2208 70.1316 27.2208 68.6359 25.9222C66.9947 24.4995 65.5031 22.9155 64.1777 21.1992C64.0697 21.6831 63.9908 22.1752 63.9492 22.6674C65.1541 24.1314 66.4837 25.4921 67.9129 26.741C69.82 28.3912 72.6536 28.3912 74.5607 26.741C75.9941 25.4962 77.3195 24.1314 78.5244 22.6674C78.4829 22.1711 78.4081 21.6831 78.2959 21.1992C76.9788 22.9197 75.4914 24.4995 73.8544 25.9222Z" fill="url(#paint7_linear)"/>
<path d="M81.8356 13.412C81.4908 15.6535 80.6556 17.7875 79.3926 19.6734C79.5463 20.1283 79.6709 20.5915 79.7707 21.063C81.5406 18.5237 82.945 15.5087 83.0197 12.2705C82.6375 12.651 82.2428 13.0315 81.8356 13.412Z" fill="url(#paint8_linear)"/>
<path d="M71.701 10.3971L72.1871 10.1034L71.8921 9.87598C71.676 10.091 71.5472 10.2151 71.5431 10.2234L71.2439 10.5211L70.9406 10.2234L70.5875 9.88011L70.3008 10.1034L70.7952 10.3971C71.0736 10.5708 71.4226 10.5708 71.701 10.3971Z" fill="url(#paint9_linear)"/>
<path d="M71.701 10.3971L72.1871 10.1034L71.8921 9.87598C71.676 10.091 71.5472 10.2151 71.5431 10.2234L71.2439 10.5211L70.9406 10.2234L70.5875 9.88011L70.3008 10.1034L70.7952 10.3971C71.0736 10.5708 71.4226 10.5708 71.701 10.3971Z" fill="#5C068C"/>
<path d="M78.3125 21.1991C78.4247 21.683 78.4995 22.171 78.541 22.6673C78.9648 22.1503 79.3803 21.6085 79.7875 21.0419C79.6878 20.5705 79.5631 20.1073 79.4094 19.6523C79.0562 20.1817 78.6906 20.6945 78.3125 21.1991Z" fill="url(#paint10_linear)"/>
<path d="M78.3125 21.1991C78.4247 21.683 78.4995 22.171 78.541 22.6673C78.9648 22.1503 79.3803 21.6085 79.7875 21.0419C79.6878 20.5705 79.5631 20.1073 79.4094 19.6523C79.0562 20.1817 78.6906 20.6945 78.3125 21.1991Z" fill="url(#paint11_linear)"/>
<path d="M64.1771 21.1991C63.8032 20.7028 63.4417 20.1858 63.101 19.6523C62.9473 20.1073 62.8185 20.5705 62.7188 21.0419C63.1135 21.6085 63.5289 22.1503 63.9652 22.6673C64.0026 22.1751 64.0732 21.6871 64.1771 21.1991Z" fill="url(#paint12_linear)"/>
<path d="M64.1771 21.1991C63.8032 20.7028 63.4417 20.1858 63.101 19.6523C62.9473 20.1073 62.8185 20.5705 62.7188 21.0419C63.1135 21.6085 63.5289 22.1503 63.9652 22.6673C64.0026 22.1751 64.0732 21.6871 64.1771 21.1991Z" fill="url(#paint13_linear)"/>
<path d="M59.498 11.2574C57.2959 8.9042 55.6547 6.18706 55.6547 3.31689C55.6547 2.0307 55.9788 1.24905 56.627 0.976098C56.8513 0.885113 57.0923 0.843756 57.3333 0.847892C59.9591 0.847892 65.0987 4.89672 68.5513 7.98194C69.4779 8.39965 70.3836 8.87111 71.252 9.39635C72.1079 8.87939 72.9929 8.41205 73.9069 8.00262C74.9041 7.10104 76.1256 6.03404 77.4261 5.00425C82.7983 0.7445 84.9048 0.649379 85.6942 0.971962C86.3341 1.23665 86.6623 2.02656 86.6623 3.31689C86.6623 6.10848 85.1084 8.75945 82.9936 11.0713C83.0185 11.3567 83.0351 11.6586 83.0351 11.9729C83.0351 12.0639 83.0351 12.1548 83.0351 12.25C85.5654 9.66103 87.5224 6.60063 87.5224 3.31689C87.5224 1.66262 87.0196 0.595615 86.0266 0.190318C84.3065 -0.516883 81.3192 0.83962 76.886 4.326C74.3266 6.35662 72.0414 8.53612 71.2437 9.3095C70.4376 8.53612 68.1192 6.35248 65.5225 4.31773C61.11 0.856163 58.0064 -0.537562 56.2946 0.182047C55.3016 0.595615 54.7988 1.64608 54.7988 3.30449C54.7988 6.67093 56.8555 9.80578 59.4772 12.4361C59.4772 12.2748 59.4772 12.1176 59.4772 11.9605C59.4606 11.7247 59.473 11.489 59.498 11.2574Z" fill="url(#paint14_linear)"/>
<path d="M64.9581 15.8932C63.4083 14.8303 61.9375 13.6475 60.5664 12.3613C60.5789 12.7749 60.6163 13.1926 60.6786 13.602C61.8918 14.6814 63.1715 15.6864 64.5135 16.6087C64.6589 16.3481 64.8043 16.1083 64.9581 15.8932Z" fill="url(#paint15_linear)"/>
<path d="M73.2104 18.4532C71.9348 19.1728 70.3768 19.1728 69.1013 18.4532C68.2994 18.0065 67.2897 17.411 66.1929 16.6955C66.0391 16.9271 65.8896 17.167 65.7441 17.4151C66.8576 18.1389 67.8756 18.7386 68.6858 19.1894C70.2147 20.0578 72.0927 20.062 73.6259 19.2018C74.4568 18.7303 75.5371 18.1017 76.7046 17.3366C76.5592 17.0926 76.4096 16.8527 76.2517 16.6211C75.0925 17.3614 74.0414 17.9859 73.2104 18.4532Z" fill="url(#paint16_linear)"/>
<path d="M77.4727 15.7823C77.6264 16.0181 77.7718 16.2579 77.9214 16.4978C79.2925 15.5549 80.6012 14.5251 81.8352 13.4126C81.8892 13.0031 81.9225 12.5854 81.9266 12.1719C80.5389 13.4912 79.0515 14.6988 77.4727 15.7823Z" fill="url(#paint17_linear)"/>
<path d="M76.699 17.3239C77.1145 17.0633 77.505 16.7904 77.9205 16.4967C77.7709 16.2569 77.6255 16.017 77.4718 15.7812C77.0563 16.0749 76.6408 16.3478 76.2461 16.6084C76.404 16.84 76.5536 17.0799 76.699 17.3239Z" fill="url(#paint18_linear)"/>
<path d="M76.699 17.3239C77.1145 17.0633 77.505 16.7904 77.9205 16.4967C77.7709 16.2569 77.6255 16.017 77.4718 15.7812C77.0563 16.0749 76.6408 16.3478 76.2461 16.6084C76.404 16.84 76.5536 17.0799 76.699 17.3239Z" fill="url(#paint19_linear)"/>
<path d="M64.9582 15.8936C64.8045 16.1293 64.6591 16.3692 64.5137 16.6132C64.9292 16.9027 65.3446 17.1756 65.7352 17.4403C65.8806 17.1922 66.0302 16.9523 66.1839 16.7207C65.785 16.4353 65.3779 16.1624 64.9582 15.8936Z" fill="url(#paint20_linear)"/>
<path d="M64.9582 15.8936C64.8045 16.1293 64.6591 16.3692 64.5137 16.6132C64.9292 16.9027 65.3446 17.1756 65.7352 17.4403C65.8806 17.1922 66.0302 16.9523 66.1839 16.7207C65.785 16.4353 65.3779 16.1624 64.9582 15.8936Z" fill="url(#paint21_linear)"/>
<path d="M70.8169 9.71016L71.2324 9.40412L71.6479 9.71016L71.8723 9.87559C72.2877 9.49511 72.9774 8.81685 73.8791 8.00212C72.965 8.41156 72.08 8.87889 71.2241 9.39585C70.3557 8.87062 69.45 8.39915 68.5234 7.98145C69.3087 8.68451 70.0067 9.33381 70.5676 9.87972C70.7172 9.78874 70.7878 9.7267 70.8169 9.71016Z" fill="url(#paint22_linear)"/>
<path d="M70.8169 9.71016L71.2324 9.40412L71.6479 9.71016L71.8723 9.87559C72.2877 9.49511 72.9774 8.81685 73.8791 8.00212C72.965 8.41156 72.08 8.87889 71.2241 9.39585C70.3557 8.87062 69.45 8.39915 68.5234 7.98145C69.3087 8.68451 70.0067 9.33381 70.5676 9.87972C70.7172 9.78874 70.7878 9.7267 70.8169 9.71016Z" fill="#5C068C"/>
<path d="M82.9868 11.0713C82.6461 11.4435 82.293 11.8033 81.9273 12.159C81.9232 12.5725 81.89 12.9902 81.8359 13.3997C82.2431 13.0316 82.6378 12.6511 83.0201 12.2582C83.0201 12.1631 83.0201 12.0721 83.0201 11.9811C83.0284 11.6586 83.0118 11.3442 82.9868 11.0713Z" fill="url(#paint23_linear)"/>
<path d="M82.9868 11.0713C82.6461 11.4435 82.293 11.8033 81.9273 12.159C81.9232 12.5725 81.89 12.9902 81.8359 13.3997C82.2431 13.0316 82.6378 12.6511 83.0201 12.2582C83.0201 12.1631 83.0201 12.0721 83.0201 11.9811C83.0284 11.6586 83.0118 11.3442 82.9868 11.0713Z" fill="url(#paint24_linear)"/>
<path d="M60.5661 12.3414C60.1963 11.9898 59.8349 11.63 59.49 11.2578C59.49 11.4894 59.4609 11.7251 59.4609 11.9733C59.4609 12.1304 59.4609 12.2876 59.4609 12.4489C59.8515 12.8376 60.2545 13.2181 60.6658 13.5862C60.6077 13.1768 60.5744 12.7591 60.5661 12.3414Z" fill="url(#paint25_linear)"/>
<path d="M60.5661 12.3414C60.1963 11.9898 59.8349 11.63 59.49 11.2578C59.49 11.4894 59.4609 11.7251 59.4609 11.9733C59.4609 12.1304 59.4609 12.2876 59.4609 12.4489C59.8515 12.8376 60.2545 13.2181 60.6658 13.5862C60.6077 13.1768 60.5744 12.7591 60.5661 12.3414Z" fill="url(#paint26_linear)"/>
<path d="M71.2451 10.517L71.5442 10.2193C71.5442 10.2193 71.6772 10.0869 71.8932 9.87186L71.6689 9.70643L71.2534 9.40039L70.8379 9.70643C70.8088 9.70643 70.7299 9.78501 70.6094 9.87599L70.9625 10.2193L71.2451 10.517Z" fill="url(#paint27_linear)"/>
<path d="M71.2451 10.517L71.5442 10.2193C71.5442 10.2193 71.6772 10.0869 71.8932 9.87186L71.6689 9.70643L71.2534 9.40039L70.8379 9.70643C70.8088 9.70643 70.7299 9.78501 70.6094 9.87599L70.9625 10.2193L71.2451 10.517Z" fill="url(#paint28_linear)"/>
<path d="M71.2451 10.517L71.5442 10.2193C71.5442 10.2193 71.6772 10.0869 71.8932 9.87186L71.6689 9.70643L71.2534 9.40039L70.8379 9.70643C70.8088 9.70643 70.7299 9.78501 70.6094 9.87599L70.9625 10.2193L71.2451 10.517Z" fill="#5C068C"/>
<path d="M40.1736 44.43C40.1736 44.5623 40.1445 44.6905 40.0863 44.8063L33.2101 59.8478C33.1394 60.129 32.886 60.3317 32.5951 60.3358C32.4622 60.3358 32.3334 60.3069 32.2129 60.249C31.9262 60.1704 31.7268 59.914 31.7268 59.6162C31.7268 59.4839 31.7559 59.3556 31.8099 59.2357L33.9122 54.6079V54.5872L29.1674 44.8435C29.1092 44.7236 29.0801 44.5954 29.0801 44.463C29.076 44.1694 29.2671 43.9089 29.5496 43.8262C29.6701 43.7683 29.7989 43.7434 29.9319 43.7434C30.2186 43.7352 30.4762 43.9171 30.5676 44.186L34.7224 52.8709L38.6695 44.2108C38.7609 43.9378 39.0144 43.7517 39.3052 43.7476C39.4382 43.7476 39.567 43.7765 39.6875 43.8303C39.9658 43.9047 40.1611 44.1487 40.1736 44.43Z" fill="#5C068C"/>
<path d="M46.4697 41.2082C45.9629 41.9319 45.7094 42.8087 45.7593 43.6896V44.1735H48.302C48.5056 44.1652 48.7009 44.2355 48.8463 44.3761C48.9793 44.5126 49.054 44.7028 49.0457 44.8931C49.0499 45.0792 48.9793 45.257 48.8463 45.3894C48.7009 45.5258 48.5015 45.5961 48.302 45.5879H45.7593V54.4837C45.7717 54.7071 45.6886 54.9221 45.5349 55.0834C45.3646 55.2406 45.1402 55.3233 44.9075 55.3067C44.6956 55.3109 44.4962 55.2323 44.3466 55.0834C44.1929 54.9221 44.1098 54.7071 44.1223 54.4837V45.5796H42.7636C42.5642 45.5879 42.3689 45.5176 42.2235 45.3811C42.0905 45.2487 42.0199 45.0709 42.0241 44.8848C42.0158 44.6946 42.0905 44.5043 42.2235 44.3678C42.3689 44.2272 42.5642 44.1528 42.7636 44.1652H44.1264V43.7516C44.0641 42.4489 44.4754 41.1627 45.2939 40.1412C46.1249 39.2148 47.3381 38.7185 48.5846 38.7888C48.8006 38.7805 49.0167 38.855 49.1787 38.9997C49.3283 39.1321 49.4155 39.3264 49.4114 39.5291C49.4155 39.7317 49.3283 39.922 49.1787 40.0543C49.0167 40.1991 48.8006 40.2735 48.5846 40.2652C47.7661 40.2156 46.9766 40.5671 46.4697 41.2082Z" fill="#5C068C"/>
<path d="M59.1908 44.3673C59.9968 44.8512 60.645 45.5501 61.0688 46.3855C61.5258 47.2954 61.7543 48.3004 61.7377 49.3177C61.746 49.5204 61.6671 49.7189 61.5217 49.8595C61.3721 49.996 61.1768 50.0663 60.9732 50.058H52.3976C52.5306 52.312 54.4584 54.0448 56.727 53.9456C57.2505 53.9456 57.7698 53.8546 58.2643 53.6809C58.7213 53.5403 59.1409 53.3169 59.5107 53.015C59.6728 52.8827 59.8763 52.8082 60.0841 52.8041C60.2544 52.8082 60.4165 52.8703 60.5494 52.9737C60.7198 53.1143 60.8236 53.3211 60.8278 53.5444C60.8236 53.7346 60.7406 53.9125 60.5951 54.0324C60.0633 54.4584 59.4609 54.7934 58.8127 55.0126C57.1383 55.6412 55.2686 55.513 53.6981 54.6528C52.8214 54.1647 52.1026 53.441 51.6207 52.5642C51.1096 51.6378 50.8479 50.5915 50.8645 49.5328C50.8437 48.474 51.0889 47.4236 51.575 46.4807C52.0237 45.6122 52.7051 44.8884 53.5485 44.388C54.421 43.8793 55.4141 43.6229 56.4237 43.6394C57.3959 43.6229 58.3557 43.8752 59.1908 44.3673ZM53.7355 46.0836C53.0126 46.7784 52.5514 47.7048 52.4392 48.7015H60.2087C60.1381 47.7172 59.7185 46.7867 59.0205 46.0836C58.3224 45.4136 57.3793 45.0538 56.4071 45.0911C55.4182 45.058 54.4584 45.4178 53.7355 46.0836Z" fill="#5C068C"/>
<path d="M79.3387 44.206C79.991 44.6113 80.5145 45.1945 80.8469 45.8892C81.2208 46.675 81.4078 47.5394 81.387 48.412V54.4956C81.4119 54.9133 81.0878 55.2731 80.6682 55.2979C80.6391 55.2979 80.61 55.2979 80.581 55.2979C80.3607 55.3062 80.1488 55.2235 79.9868 55.0746C79.8289 54.9216 79.7458 54.7148 79.7541 54.4956V48.412C79.7998 47.5518 79.5256 46.704 78.9813 46.034C78.4703 45.455 77.7266 45.1324 76.9538 45.1572C76.1353 45.1283 75.3459 45.4509 74.7891 46.0464C74.2199 46.6833 73.9291 47.5187 73.9831 48.3707V54.4956C73.9914 54.7107 73.9124 54.9216 73.7587 55.0746C73.605 55.2235 73.3931 55.3062 73.177 55.2979C72.9568 55.3062 72.7449 55.2235 72.5829 55.0746C72.425 54.9257 72.3377 54.7148 72.3461 54.4956V48.412C72.3918 47.5518 72.1175 46.704 71.5733 46.034C71.0622 45.455 70.3185 45.1324 69.5457 45.1572C68.7355 45.1324 67.9502 45.4467 67.381 46.0257C66.816 46.6213 66.5168 47.4236 66.55 48.2425V54.4956C66.5708 54.9174 66.2467 55.2772 65.8188 55.2979C65.7939 55.2979 65.7689 55.2979 65.744 55.2979C65.5238 55.3062 65.3119 55.2235 65.1499 55.0746C64.992 54.9257 64.9047 54.7148 64.9172 54.4956V44.57C64.9089 44.3508 64.992 44.1357 65.1499 43.9786C65.3078 43.8214 65.5238 43.7387 65.744 43.747C65.9601 43.7387 66.172 43.8214 66.3257 43.9786C66.4753 44.1399 66.5584 44.3508 66.55 44.57V45.0373C66.9364 44.5906 67.4184 44.2308 67.9627 43.991C69.2091 43.4451 70.6384 43.503 71.835 44.1481C72.4541 44.4997 72.9693 45.0083 73.3183 45.6287C73.713 45.0042 74.2656 44.4955 74.9221 44.1481C75.6034 43.7883 76.3679 43.6064 77.1407 43.6188C77.9135 43.6105 78.6739 43.8131 79.3387 44.206Z" fill="#5C068C"/>
<path d="M107.459 43.8507C107.754 43.9376 107.961 44.1981 107.978 44.5042C107.978 44.5662 107.974 44.6324 107.957 44.6944C107.928 44.8598 107.832 45.0087 107.691 45.108C107.537 45.1865 107.363 45.2196 107.193 45.2114C107.064 45.2114 106.848 45.2114 106.536 45.17C106.366 45.1617 106.195 45.1617 106.025 45.17C105.086 45.1245 104.164 45.4181 103.424 45.9971C102.768 46.5348 102.394 47.3454 102.419 48.1932V54.5084C102.419 54.9509 102.057 55.3107 101.613 55.3107C101.168 55.3107 100.807 54.9509 100.807 54.5084V44.5455C100.807 44.103 101.168 43.7432 101.613 43.7432C102.057 43.7432 102.419 44.103 102.419 44.5455V45.476C102.818 44.8929 103.358 44.4214 103.989 44.103C104.621 43.7763 105.323 43.6067 106.033 43.6026C106.52 43.586 107.006 43.6729 107.459 43.8507Z" fill="#5C068C"/>
<path d="M117.55 44.3673C118.356 44.8512 119.004 45.5501 119.428 46.3855C119.885 47.2954 120.113 48.3003 120.097 49.3177C120.105 49.5204 120.026 49.7147 119.885 49.8595C119.735 49.996 119.536 50.0663 119.332 50.058H110.757C110.89 52.3119 112.818 54.0448 115.086 53.9455C115.61 53.9455 116.133 53.8546 116.628 53.6809C117.085 53.5402 117.504 53.3169 117.874 53.015C118.036 52.8827 118.24 52.8082 118.447 52.8041C118.618 52.8082 118.784 52.8703 118.917 52.9737C119.087 53.1143 119.187 53.3252 119.191 53.5444C119.187 53.7346 119.104 53.9125 118.958 54.0324C118.427 54.4584 117.824 54.7934 117.176 55.0125C115.502 55.6412 113.632 55.513 112.061 54.6527C111.185 54.1647 110.466 53.441 109.984 52.5642C109.473 51.6378 109.211 50.5915 109.228 49.5328C109.207 48.474 109.452 47.4236 109.938 46.4806C110.387 45.6121 111.073 44.8884 111.912 44.388C112.784 43.8793 113.781 43.6229 114.791 43.6394C115.759 43.627 116.715 43.8793 117.55 44.3673ZM112.095 46.0836C111.372 46.7784 110.91 47.7048 110.798 48.7015H118.568C118.497 47.7172 118.078 46.7867 117.38 46.0836C116.682 45.4136 115.738 45.058 114.77 45.091C113.781 45.058 112.818 45.4136 112.095 46.0836Z" fill="#5C068C"/>
<path d="M130.547 44.3672C131.353 44.8511 132.001 45.5501 132.425 46.3855C132.882 47.2953 133.11 48.3003 133.094 49.3177C133.102 49.5203 133.027 49.7188 132.882 49.8594C132.732 49.9959 132.533 50.0662 132.329 50.0579H123.766C123.903 52.3119 125.831 54.0406 128.095 53.9414C128.619 53.9414 129.142 53.8504 129.637 53.6767C130.094 53.5361 130.513 53.3127 130.883 53.0108C131.045 52.8785 131.249 52.804 131.457 52.7999C131.627 52.804 131.793 52.8661 131.926 52.9695C132.096 53.1059 132.2 53.3086 132.209 53.5278C132.205 53.718 132.121 53.8959 131.976 54.0158C131.444 54.4459 130.842 54.7768 130.194 54.996C128.519 55.6246 126.649 55.4964 125.079 54.6361C124.202 54.1481 123.484 53.4244 123.002 52.5476C122.49 51.6212 122.229 50.5749 122.245 49.5162C122.225 48.4574 122.47 47.407 122.96 46.464C123.409 45.5955 124.09 44.8718 124.934 44.3714C125.806 43.8627 126.799 43.6063 127.809 43.6228C128.773 43.6187 129.72 43.8751 130.547 44.3672ZM125.104 46.0836C124.381 46.7783 123.92 47.7047 123.808 48.7014H131.577C131.507 47.7172 131.087 46.7866 130.389 46.0836C129.691 45.4136 128.748 45.0579 127.78 45.091C126.791 45.0579 125.827 45.4136 125.104 46.0836Z" fill="#5C068C"/>
<path d="M96.4442 46.5226C95.4512 44.7112 93.5316 43.5945 91.4584 43.6276C90.5817 43.6152 89.7175 43.8137 88.9364 44.2066C88.1885 44.5788 87.5403 45.1289 87.0459 45.803V39.5995C87.0667 39.1611 86.7218 38.793 86.2814 38.7723C86.2606 38.7723 86.2357 38.7723 86.2149 38.7723C85.787 38.7434 85.4131 39.0618 85.384 39.4878C85.3798 39.525 85.3798 39.5623 85.384 39.5995V54.4879C85.384 54.9304 85.7454 55.2902 86.19 55.2902C86.6346 55.2902 86.996 54.9304 86.996 54.4879V53.6194C87.3741 54.0123 87.8062 54.3514 88.2799 54.6244C90.1454 55.6542 92.4181 55.6542 94.2836 54.6244C95.1728 54.124 95.904 53.3878 96.4068 52.5028C97.4289 50.6376 97.4372 48.3878 96.4275 46.5143L96.4442 46.5226ZM95.044 51.7584C94.6825 52.416 94.1465 52.966 93.4942 53.3423C92.8295 53.7352 92.0691 53.9337 91.2963 53.9255C89.7424 53.9503 88.3048 53.1149 87.557 51.7584C87.3035 51.2993 87.1332 50.803 87.0542 50.2861C87.0085 49.9966 86.9877 49.7029 86.9919 49.4093C87.0044 49.1239 87.0334 48.8344 87.0875 48.5532C87.1622 48.0859 87.3243 47.6351 87.5611 47.2215C87.7938 46.8286 88.0846 46.473 88.4295 46.1711C89.2106 45.468 90.2285 45.0917 91.2797 45.1165C92.0525 45.1082 92.8087 45.3026 93.4776 45.6872C94.1299 46.0594 94.6659 46.6053 95.0274 47.2629C95.7752 48.669 95.7752 50.3522 95.0274 51.7584H95.044V51.7584Z" fill="#5C068C"/>
<path d="M25.9353 39.0529C26.089 39.2101 26.1721 39.4252 26.168 39.6444V54.4956C26.168 54.7106 26.0849 54.9174 25.9353 55.0746C25.7857 55.2317 25.578 55.3227 25.3619 55.3186C25.1334 55.3227 24.9173 55.2359 24.7553 55.0746C24.5974 54.9216 24.5102 54.7148 24.5102 54.4956V42.163C24.2941 42.4525 19.7778 48.5567 18.8056 49.7561C18.6643 49.9505 18.4898 50.12 18.2987 50.2648C18.0785 50.3971 17.8001 50.3971 17.5799 50.2648C17.3722 50.1242 17.1935 49.9505 17.0439 49.752C16.4581 49.053 16.0758 48.5113 15.5149 47.7751L13.5497 45.2565L11.8504 43.0687L11.2479 42.2912V54.4708C11.2479 54.6858 11.1648 54.8926 11.0152 55.0498C10.6912 55.3724 10.1677 55.3765 9.83943 55.0539C9.68155 54.9009 9.59429 54.69 9.59429 54.4708V39.6237C9.58598 39.4003 9.67324 39.1853 9.83527 39.0323C10.1801 38.7097 10.7244 38.7262 11.0526 39.0695C11.0942 39.115 11.1357 39.1646 11.1648 39.2225L17.9497 48.1142L24.5974 39.2225C24.7512 38.9578 25.0337 38.8007 25.3411 38.8089C25.5655 38.8048 25.7816 38.8958 25.9353 39.0529Z" fill="#5C068C"/>
<path d="M136.239 43.8754C136.505 44.0284 136.725 44.2476 136.879 44.5123C137.037 44.777 137.12 45.0789 137.116 45.389C137.112 46.3609 136.322 47.1467 135.346 47.1426C135.038 47.1426 134.739 47.064 134.473 46.911C134.207 46.7621 133.987 46.5429 133.833 46.2782C133.343 45.4428 133.621 44.3675 134.465 43.8795L134.469 43.8754C135.018 43.5611 135.691 43.5611 136.239 43.8754ZM136.052 46.5843C136.26 46.4643 136.434 46.2865 136.559 46.0797C136.808 45.6496 136.808 45.1161 136.559 44.686C136.434 44.4792 136.26 44.3055 136.048 44.1814C135.616 43.9291 135.084 43.9291 134.652 44.1814C134.22 44.4296 133.95 44.8886 133.954 45.3849C133.954 45.8812 134.22 46.3361 134.648 46.5843C134.86 46.7125 135.101 46.7786 135.35 46.7745C135.595 46.7786 135.84 46.7125 136.052 46.5843ZM136.089 46.1335C136.114 46.1666 136.127 46.2079 136.127 46.2493C136.127 46.2906 136.11 46.3278 136.081 46.3527C136.048 46.3816 136.002 46.3982 135.957 46.394C135.923 46.394 135.886 46.3857 135.857 46.3692C135.828 46.3568 135.807 46.3361 135.79 46.3113L135.375 45.6165H135.051V46.2245C135.051 46.2699 135.034 46.3113 135.005 46.3444C134.972 46.3775 134.926 46.3982 134.876 46.394C134.826 46.3982 134.781 46.3775 134.747 46.3444C134.714 46.3154 134.698 46.2699 134.698 46.2245V44.4627C134.698 44.4172 134.714 44.3717 134.752 44.3386C134.789 44.3055 134.839 44.2931 134.889 44.2931H135.337C135.533 44.2848 135.72 44.351 135.869 44.4751C136.006 44.5909 136.085 44.7646 136.081 44.9465C136.081 45.0665 136.048 45.1823 135.986 45.2857C135.923 45.389 135.836 45.4718 135.728 45.5255L136.089 46.1335ZM135.051 45.3063H135.362C135.545 45.3187 135.707 45.1864 135.72 45.0003C135.72 44.9837 135.72 44.9672 135.72 44.9507C135.724 44.8597 135.691 44.7687 135.624 44.7025C135.553 44.6405 135.458 44.6074 135.362 44.6115H135.051V45.3063Z" fill="#5C068C"/>
<path d="M14.291 76.204C12.2676 71.7458 12.2676 66.634 14.291 62.1758L15.0555 62.4942C13.6304 66.8367 13.6262 71.5142 15.043 75.8608L14.291 76.204Z" fill="#4D4D4D"/>
<path d="M15.9277 73.0482V65.3806H17.0121V66.6213C17.3778 65.7942 17.9844 65.2441 18.8153 65.2441V66.3484C18.7156 66.3318 18.6118 66.3236 18.512 66.3194C17.8556 66.3194 17.3155 66.9356 17.0121 67.6015V73.0482H15.9277V73.0482Z" fill="#4D4D4D"/>
<path d="M19.4668 69.2062C19.4668 66.9853 20.2188 65.1904 21.9057 65.1904C23.5926 65.1904 24.2823 66.9977 24.2823 69.1896V69.5701H20.5429C20.5429 71.2244 21.1038 72.3327 22.2048 72.3327C22.7699 72.2748 23.256 71.915 23.4804 71.3939L24.1202 71.9812C23.7255 72.7174 22.9652 73.1888 22.1259 73.2219C20.3144 73.2385 19.4668 71.5222 19.4668 69.2062ZM21.8766 66.0961C20.8088 66.0961 20.5512 67.6677 20.5512 68.7595H23.1978C23.1978 67.556 22.9361 66.0961 21.8766 66.0961Z" fill="#4D4D4D"/>
<path d="M25.5625 73.0483V62.4609H26.6469V73.0483H25.5625Z" fill="#4D4D4D"/>
<path d="M31.3823 73.0484V71.998C31.0873 72.701 30.4225 73.1808 29.658 73.2387C28.6401 73.2387 28.2246 72.6969 28.2246 71.5844V65.3809H29.309V71.2866C29.309 71.969 29.5666 72.2668 30.0444 72.2668C30.6344 72.2668 31.1413 71.6795 31.3823 71.0467V65.3809H32.4667V73.0484H31.3823V73.0484Z" fill="#4D4D4D"/>
<path d="M34.0246 75.3642L34.4692 74.475C34.8514 74.9051 35.3916 75.1656 35.9691 75.1905C36.8 75.1905 37.3734 74.6321 37.3734 73.3459V71.886C37.0369 72.6636 36.4469 73.1268 35.9192 73.1268C34.4692 73.1268 33.8418 71.5056 33.8418 69.1565C33.8418 66.8074 34.4775 65.1738 35.9192 65.1738C36.4469 65.1738 37.0535 65.5543 37.3734 66.4145V65.3517H38.4578V73.317C38.4578 75.3848 37.3859 76.1293 36.0646 76.1293C35.3085 76.1665 34.5689 75.8894 34.0246 75.3642ZM37.3734 70.8728V67.4443C37.1948 66.7785 36.6879 66.1581 36.1934 66.1581C35.2212 66.1581 34.947 67.556 34.947 69.173C34.947 70.7901 35.2046 72.1714 36.1934 72.1714C36.6879 72.1714 37.1948 71.5552 37.3734 70.8728Z" fill="#4D4D4D"/>
<path d="M39.8047 69.2062C39.8047 67.0928 40.4736 65.1904 42.2436 65.1904C44.0135 65.1904 44.6825 67.0928 44.6825 69.2062C44.6825 71.3195 44.0135 73.2385 42.2436 73.2385C40.4736 73.2385 39.8047 71.3112 39.8047 69.2062ZM43.544 69.2062C43.544 67.6801 43.2864 66.1582 42.2353 66.1582C41.1841 66.1582 40.9265 67.6801 40.9265 69.2062C40.9265 70.7322 41.1966 72.2666 42.2353 72.2666C43.274 72.2666 43.5524 70.7446 43.5524 69.2062H43.544Z" fill="#4D4D4D"/>
<path d="M46.041 73.0483V62.4609H47.1254V73.0483H46.041Z" fill="#4D4D4D"/>
<path d="M48.5215 63.5074C48.5506 63.0897 48.9162 62.7796 49.3358 62.8085C49.7098 62.8375 50.0089 63.1352 50.038 63.5074C50.0089 63.9251 49.6433 64.2353 49.2237 64.2064C48.8497 64.1816 48.5506 63.8838 48.5215 63.5074ZM48.7292 73.0485V65.3809H49.8136V73.0485H48.7292Z" fill="#4D4D4D"/>
<path d="M54.459 73.0484L53.2125 70.0294L51.9661 73.0484H50.8027L52.5395 69.1733L50.8775 65.3809H52.0409L53.1918 68.3172L54.3385 65.3809H55.4852L53.8441 69.1733L55.5808 73.0484H54.459Z" fill="#4D4D4D"/>
<path d="M57.18 75.0336L56.6191 74.5911C57.1343 74.252 57.4917 73.7184 57.608 73.1146C57.5498 73.1312 57.4917 73.1395 57.4335 73.1477C57.0263 73.1477 56.6981 72.821 56.6981 72.4157C56.6981 72.3992 56.6981 72.3826 56.6981 72.3661C56.6939 71.9318 57.0471 71.5803 57.4833 71.5762C57.4875 71.5762 57.4917 71.5762 57.4958 71.5762C57.9902 71.5762 58.4223 71.9897 58.4223 72.7176C58.3933 73.644 57.9321 74.5001 57.18 75.0336Z" fill="#4D4D4D"/>
<path d="M62.6777 69.2062C62.6777 66.9853 63.4298 65.1904 65.1208 65.1904C66.8118 65.1904 67.4932 66.9977 67.4932 69.1896V69.5701H63.7538C63.7538 71.2244 64.3147 72.3327 65.4158 72.3327C65.9808 72.2707 66.4711 71.915 66.6955 71.3939L67.3312 71.9812C66.9365 72.7174 66.1761 73.1888 65.3368 73.2219C63.5253 73.2385 62.6777 71.5222 62.6777 69.2062ZM65.0875 66.0961C64.0197 66.0961 63.7621 67.6677 63.7621 68.7595H66.4088C66.4088 67.556 66.147 66.0961 65.0875 66.0961Z" fill="#4D4D4D"/>
<path d="M68.332 72.2668L68.8597 71.5224C69.1879 72.0228 69.7405 72.333 70.343 72.3495C70.9454 72.3702 71.4523 71.9029 71.4731 71.3032C71.4731 71.2701 71.4731 71.237 71.4731 71.2039C71.4731 69.4752 68.5647 69.5869 68.5647 67.0931C68.5564 66.0509 69.3957 65.1948 70.4468 65.1865C70.5009 65.1865 70.5549 65.1865 70.6047 65.1907C71.3152 65.1865 71.9841 65.5008 72.437 66.0467L71.9343 66.7622C71.6476 66.3238 71.1573 66.0592 70.6297 66.0633C70.0937 66.0343 69.6367 66.4479 69.6076 66.9814C69.6076 67.0021 69.6076 67.0269 69.6076 67.0476C69.6076 68.6646 72.516 68.6357 72.516 71.1833C72.5575 72.2833 71.6974 73.2097 70.5923 73.2511C70.5424 73.2511 70.4925 73.2511 70.4385 73.2511C69.6159 73.3007 68.8223 72.9285 68.332 72.2668Z" fill="#4D4D4D"/>
<path d="M74.1151 71.5846V66.3488H73.334V65.3976H74.1151V63.3008H75.2161V65.3976H76.2548V66.3488H75.2161V71.4439C75.2161 72.0147 75.3283 72.2711 75.6939 72.2711C75.8975 72.2711 76.0887 72.1718 76.205 72.0023L76.554 72.8294C76.2715 73.1106 75.8851 73.2595 75.4862 73.243C74.514 73.2388 74.1151 72.6971 74.1151 71.5846Z" fill="#4D4D4D"/>
<path d="M77.5605 73.0482V65.3806H78.645V66.6213C79.0106 65.7942 79.6172 65.2441 80.4482 65.2441V66.3484C80.3484 66.3318 80.2446 66.3236 80.1449 66.3194C79.4925 66.3194 78.9483 66.9356 78.645 67.6015V73.0482H77.5605V73.0482Z" fill="#4D4D4D"/>
<path d="M84.6319 73.0482V72.2211C84.3701 72.8166 83.7843 73.2054 83.132 73.2219C81.9354 73.2219 81.1543 72.188 81.1543 70.6661C81.1543 69.1441 81.9354 68.1433 83.132 68.1433C83.776 68.1433 84.3577 68.5155 84.6319 69.0945V67.7752C84.6319 66.7124 84.3286 66.121 83.4353 66.121C82.8287 66.1499 82.2719 66.4559 81.9229 66.9481L81.4576 66.1706C82.0019 65.5585 82.7788 65.2028 83.5973 65.1904C85.0141 65.1904 85.6997 65.9679 85.6997 67.585V73.0482H84.6319ZM84.6319 71.4891V69.9341C84.5114 69.3675 84.017 68.9622 83.4353 68.9498C82.6376 68.9498 82.2719 69.7769 82.2719 70.6992C82.2719 71.6214 82.6376 72.4444 83.4353 72.4444C84.0087 72.4403 84.4989 72.0432 84.6319 71.4891Z" fill="#4D4D4D"/>
<path d="M90.6017 73.0483V72.0144C90.2651 72.7919 89.6751 73.2551 89.1516 73.2551C87.6974 73.2551 87.0742 71.6008 87.0742 69.2393C87.0742 66.8778 87.7099 65.207 89.1516 65.207C89.6751 65.207 90.2818 65.5875 90.6017 66.4477V62.4609H91.6861V73.0483H90.6017ZM90.6017 70.9804V67.4279C90.4272 66.762 89.9161 66.1417 89.4217 66.1417C88.4495 66.1417 88.1753 67.585 88.1753 69.2062C88.1753 70.8274 88.4329 72.2501 89.4217 72.2501C89.9161 72.2666 90.4272 71.667 90.6017 70.997V70.9804Z" fill="#4D4D4D"/>
<path d="M93.0899 63.5078C93.0857 63.0901 93.4223 62.7552 93.8419 62.751C94.2615 62.7469 94.5981 63.0819 94.6022 63.4996C94.6064 63.9173 94.2698 64.2523 93.8502 64.2564C93.846 64.2564 93.8419 64.2564 93.8377 64.2564C93.4264 64.2523 93.094 63.9214 93.0899 63.5078ZM93.2976 73.0489V65.3813H94.3986V73.0489H93.2976Z" fill="#4D4D4D"/>
<path d="M95.6738 69.2062C95.6738 67.0928 96.3428 65.1904 98.1127 65.1904C99.8827 65.1904 100.552 67.0928 100.552 69.2062C100.552 71.3195 99.8827 73.2385 98.1127 73.2385C96.3428 73.2385 95.6738 71.3112 95.6738 69.2062ZM99.4132 69.2062C99.4132 67.6801 99.1597 66.1582 98.1044 66.1582C97.0491 66.1582 96.7998 67.6801 96.7998 69.2062C96.7998 70.7322 97.0699 72.2666 98.1044 72.2666C99.139 72.2666 99.4215 70.7446 99.4215 69.2062H99.4132Z" fill="#4D4D4D"/>
<path d="M101.912 73.0483V62.4609H102.997V73.0483H101.912Z" fill="#4D4D4D"/>
<path d="M105.039 75.0336L104.482 74.5911C104.993 74.2478 105.351 73.7184 105.467 73.1146C105.409 73.1312 105.351 73.1436 105.293 73.1477C104.885 73.1477 104.557 72.8169 104.561 72.4116C104.561 72.395 104.561 72.3785 104.561 72.3661C104.557 71.936 104.906 71.5803 105.338 71.5762C105.347 71.5762 105.351 71.5762 105.359 71.5762C105.854 71.5762 106.281 71.9897 106.281 72.7176C106.252 73.644 105.791 74.5001 105.039 75.0336Z" fill="#4D4D4D"/>
<path d="M113.927 73.0485V72.2214C113.665 72.8169 113.079 73.2057 112.427 73.2222C111.234 73.2222 110.453 72.1883 110.453 70.6664C110.453 69.1444 111.234 68.1436 112.427 68.1436C113.071 68.1436 113.652 68.5158 113.927 69.0948V67.7755C113.927 66.7126 113.623 66.1212 112.73 66.1212C112.123 66.1502 111.567 66.4562 111.218 66.9484L110.752 66.1709C111.301 65.5588 112.086 65.2073 112.909 65.2031C114.325 65.2031 115.011 65.9806 115.011 67.5977V73.0485H113.927ZM113.927 71.4894V69.9343C113.806 69.3678 113.312 68.9625 112.73 68.95C111.932 68.95 111.567 69.7772 111.567 70.6994C111.567 71.6217 111.932 72.4447 112.73 72.4447C113.303 72.4406 113.794 72.0435 113.927 71.4894Z" fill="#4D4D4D"/>
<path d="M119.777 73.0482V67.1756C119.777 66.4932 119.519 66.1747 119.041 66.1747C118.451 66.1747 117.94 66.7951 117.704 67.4154V73.0482H116.619V65.3807H117.704V66.4601C118.036 65.7777 118.721 65.1904 119.424 65.1904C120.446 65.1904 120.861 65.7777 120.861 66.8447V73.0482H119.777V73.0482Z" fill="#4D4D4D"/>
<path d="M125.764 73.0483V72.0144C125.431 72.7919 124.841 73.2551 124.314 73.2551C122.864 73.2551 122.236 71.6008 122.236 69.2393C122.236 66.8778 122.876 65.207 124.314 65.207C124.841 65.207 125.448 65.5875 125.764 66.4477V62.4609H126.848V73.0483H125.764ZM125.764 70.9804V67.4279C125.589 66.762 125.078 66.1417 124.584 66.1417C123.612 66.1417 123.358 67.585 123.358 69.2062C123.358 70.8274 123.612 72.2501 124.584 72.2501C125.078 72.2666 125.589 71.667 125.764 70.997V70.9804Z" fill="#4D4D4D"/>
<path d="M3.63691 87.809V81.9239C3.63691 81.2374 3.38346 80.9231 2.90565 80.9231C2.31567 80.9231 1.80462 81.5393 1.56364 82.1638V87.7966H0.5V80.1456H1.58441V81.2374C1.92096 80.555 2.6065 79.9678 3.30867 79.9678C4.32661 79.9678 4.74209 80.555 4.74209 81.622V87.8256L3.63691 87.809Z" fill="#4D4D4D"/>
<path d="M6.06836 83.9708C6.06836 81.8575 6.74144 79.9551 8.51141 79.9551C10.2814 79.9551 10.9503 81.8575 10.9503 83.9708C10.9503 86.0842 10.2814 87.999 8.51141 87.999C6.74144 87.999 6.06836 86.08 6.06836 83.9708ZM9.80772 83.9708C9.80772 82.4448 9.55427 80.9228 8.5031 80.9228C7.45192 80.9228 7.19432 82.4448 7.19432 83.9708C7.19432 85.4969 7.46439 87.0312 8.5031 87.0312C9.54181 87.0312 9.81603 85.5093 9.81603 83.9708H9.80772Z" fill="#4D4D4D"/>
<path d="M12.2949 87.8091V80.1457H13.3793V81.3657C13.745 80.5386 14.3516 79.9844 15.1784 79.9844V81.0969C15.0787 81.0803 14.9789 81.0679 14.8792 81.0638C14.2228 81.0638 13.6826 81.6841 13.3793 82.35V87.8091H12.2949V87.8091Z" fill="#4D4D4D"/>
<path d="M15.8359 83.9708C15.8359 81.7458 16.5838 79.9551 18.2748 79.9551C19.9659 79.9551 20.6514 81.7624 20.6514 83.9543V84.3348H16.912C16.912 85.9684 17.4688 87.0974 18.574 87.0974C19.139 87.0354 19.6252 86.6756 19.8495 86.1586L20.4894 86.7459C20.0947 87.482 19.3343 87.9576 18.495 87.9866C16.7043 87.999 15.8359 86.2868 15.8359 83.9708ZM18.2457 80.8567C17.1738 80.8567 16.9204 82.4282 16.9204 83.5242H19.567C19.567 82.3166 19.3135 80.8567 18.2457 80.8567Z" fill="#4D4D4D"/>
<path d="M22.1307 86.3491V81.0968H21.3496V80.1456H22.1307V78.0488H23.2318V80.1456H24.2663V81.0968H23.2318V86.2003C23.2318 86.771 23.3398 87.0274 23.7096 87.0274C23.9131 87.0274 24.1043 86.9281 24.2164 86.7586L24.5696 87.5857C24.2871 87.8628 23.9007 88.0158 23.5018 87.9993C22.5213 87.9993 22.1307 87.4616 22.1307 86.3491Z" fill="#4D4D4D"/>
<path d="M28.7277 87.8088V81.9072C28.7277 81.2248 28.4743 80.9229 27.9965 80.9229C27.4065 80.9229 26.8955 81.5391 26.6586 82.1636V87.7964H25.5742V77.2256H26.6753V81.2372C27.0076 80.5548 27.6932 79.9675 28.3954 79.9675C29.4174 79.9675 29.8288 80.5052 29.8288 81.6218V87.8253L28.7277 87.8088Z" fill="#4D4D4D"/>
<path d="M31.2169 78.2723C31.2086 77.8546 31.5452 77.5114 31.9648 77.5031C32.3845 77.4948 32.7293 77.8298 32.7376 78.2475C32.7459 78.6652 32.4094 79.0085 31.9897 79.0167C31.9814 79.0167 31.9773 79.0167 31.969 79.0167C31.5576 79.0126 31.2253 78.6859 31.2169 78.2723ZM31.4247 87.8092V80.1458H32.4925V87.8092H31.4247Z" fill="#4D4D4D"/>
<path d="M37.271 87.809V81.9239C37.271 81.2374 37.0134 80.9231 36.5356 80.9231C35.9456 80.9231 35.4345 81.5393 35.1977 82.1638V87.7966H34.1133V80.1456H35.1977V81.2374C35.5301 80.555 36.2156 79.9678 36.9178 79.9678C37.9399 79.9678 38.3554 80.555 38.3554 81.622V87.8256L37.271 87.809Z" fill="#4D4D4D"/>
<path d="M43.2579 87.8088V86.779C42.9255 87.5565 42.3356 87.999 41.8079 87.999C40.3578 87.999 39.7305 86.3448 39.7305 83.9833C39.7305 81.6218 40.3703 79.9551 41.8079 79.9551C42.3356 79.9551 42.9422 80.3356 43.2579 81.1958V77.2256H44.3423V87.8088H43.2579V87.8088ZM43.2579 85.7616V82.2091C43.0834 81.5391 42.5724 80.9229 42.078 80.9229C41.1057 80.9229 40.8523 82.3662 40.8523 83.9833C40.8523 85.6004 41.1057 87.0313 42.078 87.0313C42.5724 87.0272 43.0834 86.4275 43.2579 85.7616Z" fill="#4D4D4D"/>
<path d="M45.9453 87.8091V80.1457H47.0339V81.3657C47.4037 80.5386 48.0061 79.9844 48.8371 79.9844V81.0969C48.7374 81.0803 48.6335 81.0679 48.5338 81.0638C47.8815 81.0638 47.3372 81.6841 47.0339 82.35V87.8091H45.9453V87.8091Z" fill="#4D4D4D"/>
<path d="M49.4941 83.9708C49.4941 81.8575 50.1672 79.9551 51.9372 79.9551C53.7071 79.9551 54.3761 81.8575 54.3761 83.9708C54.3761 86.0842 53.7071 87.999 51.9372 87.999C50.1672 87.999 49.4941 86.08 49.4941 83.9708ZM53.2335 83.9708C53.2335 82.4448 52.9801 80.9228 51.9289 80.9228C50.8777 80.9228 50.6201 82.4448 50.6201 83.9708C50.6201 85.4969 50.8902 87.0312 51.9289 87.0312C52.9676 87.0312 53.2418 85.5093 53.2418 83.9708H53.2335Z" fill="#4D4D4D"/>
<path d="M58.8803 87.809V81.9239C58.8803 81.2374 58.6227 80.9231 58.1449 80.9231C57.5549 80.9231 57.0439 81.5393 56.8071 82.1638V87.7966H55.7227V80.1456H56.8071V81.2374C57.1395 80.555 57.825 79.9678 58.5272 79.9678C59.5493 79.9678 59.9647 80.555 59.9647 81.622V87.8256L58.8803 87.809Z" fill="#4D4D4D"/>
<path d="M61.3105 83.9708C61.3105 81.7458 62.0584 79.9551 63.7494 79.9551C65.4405 79.9551 66.126 81.7624 66.126 83.9543V84.3348H62.3867C62.3867 85.9684 62.9434 87.0974 64.0486 87.0974C64.6095 87.0312 65.0915 86.6756 65.3158 86.1586L65.9515 86.7459C65.5568 87.482 64.8006 87.9535 63.9613 87.9866C62.154 87.999 61.3105 86.2868 61.3105 83.9708ZM63.7162 80.8567C62.6484 80.8567 62.395 82.4282 62.395 83.5242H65.0416C65.0416 82.3166 64.784 80.8567 63.7162 80.8567Z" fill="#4D4D4D"/>
<path d="M73.3799 87.8087V87.0023C73.1182 87.5937 72.5324 87.9824 71.8801 87.999C70.6835 87.999 69.9023 86.9692 69.9023 85.4431C69.9023 83.9171 70.6835 82.9204 71.8801 82.9204C72.5241 82.9204 73.1057 83.2926 73.3799 83.8716V82.5564C73.3799 81.4936 73.0766 80.9021 72.1834 80.9021C71.5767 80.9311 71.0158 81.2371 70.6668 81.7293L70.2057 80.9518C70.7541 80.3232 71.5435 79.9633 72.3786 79.9551C73.7996 79.9551 74.4851 80.7326 74.4851 82.3496V87.8087H73.3799ZM73.3799 86.2537V84.6987C73.1223 83.9708 72.6612 83.7144 72.1834 83.7144C71.3856 83.7144 71.02 84.5416 71.02 85.4597C71.02 86.3778 71.3856 87.2049 72.1834 87.2049C72.7526 87.2008 73.247 86.8079 73.3799 86.2537Z" fill="#4D4D4D"/>
<path d="M75.791 83.9712C75.791 81.7008 76.6511 79.9555 78.3089 79.9555C78.9113 79.9431 79.493 80.1954 79.8877 80.6503L79.439 81.4774C79.2229 81.1424 78.8531 80.9315 78.4501 80.9233C77.3366 80.9233 76.9211 82.3997 76.9211 83.9712C76.9211 85.5428 77.3366 87.0316 78.4501 87.0316C78.8531 87.0275 79.2271 86.8207 79.439 86.4775L79.8877 87.3046C79.5055 87.7802 78.9196 88.0407 78.3089 88.0035C76.6511 87.9994 75.791 86.2376 75.791 83.9712Z" fill="#4D4D4D"/>
<path d="M80.4922 83.9708C80.4922 81.7458 81.2442 79.9551 82.9352 79.9551C84.6263 79.9551 85.3076 81.7624 85.3076 83.9543V84.3348H81.5683C81.5683 85.9684 82.1292 87.0974 83.2302 87.0974C83.7953 87.0395 84.2814 86.6797 84.5058 86.1586L85.1456 86.7459C84.7509 87.482 83.9906 87.9576 83.1513 87.9866C81.3398 87.999 80.4922 86.2868 80.4922 83.9708ZM82.902 80.8567C81.8342 80.8567 81.5766 82.4282 81.5766 83.5242H84.2232C84.2232 82.3166 83.9698 80.8567 82.902 80.8567Z" fill="#4D4D4D"/>
<path d="M86.787 86.3491V81.0968H86.0059V80.1456H86.787V78.0488H87.888V80.1456H88.9226V81.0968H87.888V86.2003C87.888 86.771 88.0002 87.0274 88.3658 87.0274C88.5694 87.0274 88.7605 86.9281 88.8769 86.7586L89.2259 87.5857C88.9433 87.8669 88.5569 88.0158 88.1581 87.9993C87.1858 87.9993 86.787 87.4616 86.787 86.3491Z" fill="#4D4D4D"/>
<path d="M93.2977 87.8091V87.0026C93.0401 87.5982 92.4501 87.991 91.7978 87.9993C90.6053 87.9993 89.8242 86.9695 89.8242 85.4435C89.8242 83.9174 90.6053 82.9207 91.7978 82.9207C92.4418 82.9207 93.0235 83.2929 93.2977 83.8719V82.5568C93.2977 81.4939 92.9944 80.9025 92.1011 80.9025C91.4945 80.9314 90.9377 81.2375 90.5887 81.7296L90.1234 80.9521C90.6718 80.34 91.4571 79.9885 92.2797 79.9844C93.6965 79.9844 94.3821 80.7619 94.3821 82.3789V87.838L93.2977 87.8091ZM93.2977 86.2541V84.6991C93.1772 84.1325 92.6828 83.7272 92.1011 83.7148C91.3033 83.7148 90.9377 84.5419 90.9377 85.46C90.9377 86.3781 91.3033 87.2053 92.1011 87.2053C92.6703 87.2011 93.1647 86.8082 93.2977 86.2541Z" fill="#4D4D4D"/>
<path d="M96.1991 86.3491V81.0968H95.418V80.1456H96.1991V78.0488H97.3084V80.1456H98.3471V81.0968H97.3084V86.2003C97.3084 86.771 97.4206 87.0274 97.7862 87.0274C97.9898 87.0274 98.1809 86.9281 98.2973 86.7586L98.6504 87.5857C98.3679 87.8669 97.9774 88.0158 97.5785 87.9993C96.5979 87.9993 96.1991 87.4616 96.1991 86.3491Z" fill="#4D4D4D"/>
<path d="M99.0977 83.9708C99.0977 81.7458 99.8455 79.9551 101.537 79.9551C103.228 79.9551 103.913 81.7624 103.913 83.9543V84.3348H100.174C100.174 85.9684 100.731 87.0974 101.836 87.0974C102.405 87.0395 102.899 86.6797 103.124 86.1586L103.764 86.7459C103.369 87.482 102.608 87.9576 101.769 87.9866C99.9411 87.999 99.0977 86.2868 99.0977 83.9708ZM101.507 80.8567C100.436 80.8567 100.182 82.4282 100.182 83.5242H102.829C102.829 82.3166 102.575 80.8567 101.507 80.8567Z" fill="#4D4D4D"/>
<path d="M104.396 90.6337C105.822 86.2871 105.822 81.6013 104.396 77.2547L105.149 76.9404C107.189 81.3946 107.189 86.5145 105.149 90.9687L104.396 90.6337Z" fill="#4D4D4D"/>
<path d="M111.267 86.3491V81.0968H110.486V80.1456H111.267V78.0488H112.368V80.1456H113.403V81.0968H112.368V86.2003C112.368 86.771 112.481 87.0274 112.846 87.0274C113.05 87.0274 113.241 86.9281 113.357 86.7586L113.706 87.5857C113.424 87.8669 113.037 88.0158 112.639 87.9993C111.666 87.9993 111.267 87.4616 111.267 86.3491Z" fill="#4D4D4D"/>
<path d="M117.778 87.8091V87.0026C117.521 87.5982 116.935 87.9869 116.282 87.9993C115.086 87.9993 114.305 86.9695 114.305 85.4435C114.305 83.9174 115.086 82.9207 116.282 82.9207C116.922 82.9248 117.504 83.2929 117.778 83.8719V82.5568C117.778 81.4939 117.475 80.9025 116.582 80.9025C115.975 80.9314 115.418 81.2375 115.069 81.7296L114.608 80.9521C115.156 80.34 115.938 79.9885 116.76 79.9844C118.177 79.9844 118.863 80.7619 118.863 82.3789V87.838L117.778 87.8091ZM117.778 86.2541V84.6991C117.525 83.9712 117.064 83.7148 116.582 83.7148C115.788 83.7148 115.418 84.5419 115.418 85.46C115.418 86.3781 115.788 87.2053 116.582 87.2053C117.151 87.2011 117.645 86.8082 117.778 86.2541Z" fill="#4D4D4D"/>
<path d="M120.463 87.8088V77.2256H121.547V81.2083C121.867 80.3356 122.474 79.9675 122.997 79.9675C124.452 79.9675 125.104 81.6797 125.104 83.9957C125.104 86.3117 124.452 88.0115 122.997 88.0115C122.474 88.0115 121.884 87.5689 121.547 86.7914V87.8212L120.463 87.8088ZM122.727 87.0313C123.7 87.0313 123.974 85.6045 123.974 83.9833C123.974 82.3621 123.716 80.9229 122.727 80.9229C122.233 80.9229 121.738 81.5391 121.547 82.2215V85.7616C121.738 86.4275 122.237 87.0272 122.727 87.0313Z" fill="#4D4D4D"/>
<path d="M126.471 87.8088V77.2256H127.555V87.8088H126.471Z" fill="#4D4D4D"/>
<path d="M128.885 83.9708C128.885 81.7458 129.633 79.9551 131.324 79.9551C133.015 79.9551 133.7 81.7624 133.7 83.9543V84.3348H129.961C129.961 85.9684 130.518 87.0974 131.623 87.0974C132.188 87.0354 132.674 86.6756 132.898 86.1586L133.534 86.7459C133.139 87.482 132.383 87.9535 131.544 87.9866C129.741 87.999 128.885 86.2868 128.885 83.9708ZM131.29 80.8567C130.223 80.8567 129.969 82.4282 129.969 83.5242H132.624C132.624 82.3166 132.371 80.8567 131.303 80.8567H131.29Z" fill="#4D4D4D"/>
<path d="M135.187 86.3491V81.0968H134.406V80.1456H135.187V78.0488H136.288V80.1456H137.327V81.0968H136.288V86.2003C136.288 86.771 136.401 87.0274 136.766 87.0274C136.97 87.0274 137.161 86.9281 137.277 86.7586L137.626 87.5857C137.344 87.8669 136.957 88.0158 136.558 87.9993C135.586 87.9993 135.187 87.4616 135.187 86.3491Z" fill="#4D4D4D"/>
<path d="M138.316 87.0273L138.84 86.2829C139.168 86.7833 139.721 87.0935 140.323 87.1101C140.926 87.1349 141.433 86.6675 141.457 86.0679C141.457 86.0348 141.457 86.0017 141.457 85.9686C141.457 84.2399 138.549 84.3515 138.549 81.8577C138.541 80.8114 139.388 79.9594 140.44 79.9512C140.489 79.9512 140.539 79.9512 140.589 79.9553C141.304 79.9553 141.977 80.2737 142.43 80.8238L141.919 81.5517C141.628 81.1174 141.138 80.8569 140.61 80.8569C140.074 80.8279 139.621 81.2374 139.592 81.7709C139.592 81.7916 139.592 81.8164 139.592 81.837C139.592 83.4582 142.5 83.4252 142.5 85.9727C142.534 87.0728 141.665 87.9868 140.564 88.0199C140.518 88.0199 140.473 88.0199 140.423 88.0199C139.596 88.0695 138.803 87.6932 138.316 87.0273Z" fill="#4D4D4D"/>
<path d="M35.0596 101.465V99.232H32.334V98.3386L34.8643 92.8506H36.0318V98.3676H36.7173V99.232H36.0318V101.465H35.0596ZM35.0596 94.0789L33.165 98.3676H35.0596V94.0789Z" fill="#4D4D4D"/>
<path d="M37.4238 97.1634C37.4238 95.1245 37.8684 92.7217 39.5553 92.7217C41.2421 92.7217 41.6701 95.1245 41.6701 97.1634C41.6701 99.2023 41.2546 101.622 39.5553 101.622C37.8559 101.622 37.4238 99.1899 37.4238 97.1634ZM40.6563 97.1634C40.6563 95.4843 40.5649 93.5984 39.5553 93.5984C38.5456 93.5984 38.4376 95.4843 38.4376 97.1634C38.4376 98.8425 38.5166 100.741 39.5553 100.741C40.594 100.741 40.6563 98.8301 40.6563 97.1634Z" fill="#4D4D4D"/>
<path d="M50.0255 101.465V96.6716C50.0255 96.105 49.8178 95.8445 49.4314 95.8445C48.9619 95.8445 48.5464 96.3615 48.3511 96.8619V101.448H47.4703V96.6716C47.4703 96.1174 47.2625 95.8445 46.872 95.8445C46.3942 95.8445 45.9787 96.3615 45.7834 96.8619V101.448H44.8984V95.2283H45.7876V96.1257C46.0369 95.5591 46.5687 95.1662 47.1878 95.0918C47.7694 95.0422 48.2805 95.4723 48.3262 96.0513C48.3303 96.0844 48.3303 96.1174 48.3303 96.1505C48.5796 95.5633 49.1239 95.158 49.7596 95.0918C50.4576 95.0918 50.9146 95.4681 50.9146 96.4483V101.486L50.0255 101.465Z" fill="#4D4D4D"/>
<path d="M52.0856 103.351L52.4471 102.627C52.7587 102.979 53.1991 103.19 53.6686 103.21C54.3542 103.21 54.8112 102.76 54.8112 101.713V100.522C54.537 101.155 54.0592 101.544 53.6312 101.544C52.4471 101.544 51.9277 100.224 51.9277 98.3137C51.9277 96.403 52.4471 95.0713 53.6312 95.0713C54.0467 95.0713 54.5494 95.3815 54.8112 96.0928V95.2284H55.692V101.713C55.692 103.405 54.8237 103.996 53.7476 103.996C53.1285 104.025 52.526 103.789 52.0856 103.351ZM54.8112 99.695V96.9075C54.6658 96.3616 54.2544 95.8612 53.8514 95.8612C53.0579 95.8612 52.8501 96.9944 52.8501 98.3137C52.8501 99.6329 53.0579 100.754 53.8514 100.754C54.2544 100.754 54.6658 100.262 54.8112 99.695Z" fill="#4D4D4D"/>
<path d="M57.3044 103.082L56.8516 102.718C57.267 102.441 57.5579 102.011 57.6576 101.519C57.6077 101.531 57.562 101.539 57.5122 101.544C57.1798 101.544 56.9139 101.275 56.918 100.944C56.918 100.931 56.918 100.919 56.918 100.911C56.9139 100.559 57.1964 100.27 57.5496 100.266C57.5537 100.266 57.562 100.266 57.5662 100.266C57.9817 100.266 58.3182 100.601 58.3182 101.196C58.2933 101.949 57.9194 102.648 57.3044 103.082Z" fill="#4D4D4D"/>
<path d="M63.0298 101.465V94.1408L61.7294 95.5097L61.1602 94.8852L63.1462 92.8174H64.0145V101.432L63.0298 101.465Z" fill="#4D4D4D"/>
<path d="M72.6329 101.465V96.672C72.6329 96.1054 72.4252 95.8448 72.0346 95.8448C71.5693 95.8448 71.1538 96.3618 70.9585 96.8622V101.449H70.0777V96.672C70.0777 96.1178 69.87 95.8448 69.4794 95.8448C69.0016 95.8448 68.5861 96.3618 68.3908 96.8622V101.449H67.5059V95.2286H68.3908V96.1261C68.6401 95.5595 69.172 95.1666 69.791 95.0921C70.3727 95.0466 70.8837 95.4809 70.9294 96.0599C70.9336 96.0888 70.9336 96.1219 70.9336 96.1509C71.1787 95.5636 71.7272 95.1583 72.3629 95.0921C73.0609 95.0921 73.5179 95.4685 73.5179 96.4487V101.486L72.6329 101.465Z" fill="#4D4D4D"/>
<path d="M74.693 103.351L75.0545 102.627C75.3661 102.979 75.8065 103.19 76.276 103.21C76.9616 103.21 77.4186 102.76 77.4186 101.713V100.522C77.1444 101.155 76.6666 101.544 76.2345 101.544C75.0545 101.544 74.5352 100.224 74.5352 98.3137C74.5352 96.403 75.0545 95.0713 76.2345 95.0713C76.65 95.0713 77.1569 95.3815 77.4186 96.0928V95.2284H78.2994V101.713C78.2994 103.405 77.4311 103.996 76.355 103.996C75.7359 104.025 75.1335 103.789 74.693 103.351ZM77.4186 99.695V96.9075C77.2732 96.3616 76.8577 95.8612 76.4588 95.8612C75.6653 95.8612 75.4575 96.9944 75.4575 98.3137C75.4575 99.6329 75.6653 100.754 76.4588 100.754C76.8577 100.754 77.2732 100.262 77.4186 99.695Z" fill="#4D4D4D"/>
<path d="M79.9119 103.082L79.459 102.718C79.8828 102.437 80.1778 101.998 80.2733 101.502C80.2235 101.515 80.1778 101.523 80.1279 101.527C79.7955 101.527 79.5296 101.258 79.5338 100.927C79.5338 100.915 79.5338 100.902 79.5338 100.894C79.5296 100.543 79.8122 100.253 80.1653 100.249C80.1695 100.249 80.1778 100.249 80.1819 100.249C80.5974 100.249 80.934 100.584 80.934 101.18C80.9132 101.941 80.5351 102.648 79.9119 103.082Z" fill="#4D4D4D"/>
<path d="M84.1953 97.1634C84.1953 95.1245 84.6357 92.7217 86.3226 92.7217C88.0094 92.7217 88.4374 95.1245 88.4374 97.1634C88.4374 99.2023 88.0219 101.622 86.3226 101.622C84.6233 101.622 84.1953 99.1899 84.1953 97.1634ZM87.4278 97.1634C87.4278 95.4843 87.3364 93.5984 86.3226 93.5984C85.3088 93.5984 85.2091 95.4843 85.2091 97.1634C85.2091 98.8425 85.2839 100.741 86.3226 100.741C87.3613 100.741 87.4278 98.8301 87.4278 97.1634Z" fill="#4D4D4D"/>
<path d="M89.2559 100.923C89.2559 100.555 89.555 100.257 89.9248 100.257C90.2946 100.257 90.5937 100.555 90.5937 100.923C90.5937 101.291 90.2946 101.589 89.9248 101.589C89.555 101.589 89.2559 101.291 89.2559 100.923Z" fill="#4D4D4D"/>
<path d="M91.5273 100.175L92.242 99.6579C92.5162 100.357 92.8777 100.741 93.5134 100.741C94.228 100.741 94.6186 99.7985 94.6186 98.8308C94.6186 97.528 94.2529 96.9077 93.6172 96.9077C93.1644 96.9077 92.8652 97.0979 92.4913 97.7348L91.7351 97.4784V92.8506H95.2792V93.7149H92.7364V96.7629C92.9691 96.3287 93.422 96.0516 93.9164 96.0392C94.9551 96.0392 95.6406 97.0111 95.6406 98.8184C95.6406 100.315 94.8637 101.622 93.5632 101.622C92.4913 101.622 91.9428 101.052 91.5273 100.175Z" fill="#4D4D4D"/>
<path d="M103.955 101.465V96.6716C103.955 96.105 103.747 95.8445 103.357 95.8445C102.887 95.8445 102.472 96.3615 102.281 96.8619V101.448H101.396V96.6716C101.396 96.1174 101.188 95.8445 100.802 95.8445C100.32 95.8445 99.9042 96.3615 99.7089 96.8619V101.448H98.8281V95.2283H99.7089V96.1257C99.9624 95.5591 100.494 95.1704 101.109 95.0918C101.691 95.0422 102.202 95.4723 102.248 96.0513C102.252 96.0844 102.252 96.1174 102.252 96.1505C102.501 95.5633 103.045 95.158 103.681 95.0918C104.383 95.0918 104.836 95.4681 104.836 96.4483V101.486L103.955 101.465Z" fill="#4D4D4D"/>
<path d="M106.007 103.351L106.373 102.627C106.68 102.979 107.121 103.19 107.59 103.21C108.28 103.21 108.733 102.76 108.733 101.713V100.522C108.459 101.155 107.981 101.544 107.553 101.544C106.373 101.544 105.854 100.224 105.854 98.3137C105.854 96.403 106.373 95.0713 107.553 95.0713C108.126 95.1251 108.6 95.5345 108.733 96.0928V95.2284H109.614V101.713C109.614 103.405 108.745 103.996 107.669 103.996C107.05 104.025 106.448 103.789 106.007 103.351ZM108.733 99.695V96.9075C108.592 96.3616 108.176 95.8612 107.773 95.8612C106.979 95.8612 106.772 96.9944 106.772 98.3137C106.772 99.6329 106.979 100.754 107.773 100.754C108.176 100.754 108.592 100.262 108.733 99.695Z" fill="#4D4D4D"/>
</g>
<defs>
<linearGradient id="paint0_linear" x1="71.2305" y1="36.6649" x2="71.2305" y2="9.40661" gradientUnits="userSpaceOnUse">
<stop stop-color="#B8D7C9"/>
<stop offset="0.1" stop-color="#B8D4C8"/>
<stop offset="0.16" stop-color="#B7CCC6" stop-opacity="0.98"/>
<stop offset="0.21" stop-color="#B5BEC1" stop-opacity="0.96"/>
<stop offset="0.26" stop-color="#B3A9BB" stop-opacity="0.92"/>
<stop offset="0.3" stop-color="#B18FB3" stop-opacity="0.88"/>
<stop offset="0.34" stop-color="#AE6EAA" stop-opacity="0.82"/>
<stop offset="0.38" stop-color="#AA489E" stop-opacity="0.76"/>
<stop offset="0.42" stop-color="#A51890" stop-opacity="0.68"/>
<stop offset="0.9" stop-color="#5C068C"/>
</linearGradient>
<linearGradient id="paint1_linear" x1="71.1949" y1="36.664" x2="71.1949" y2="9.40571" gradientUnits="userSpaceOnUse">
<stop stop-color="#B8D7C9"/>
<stop offset="0.1" stop-color="#B8D4C8"/>
<stop offset="0.16" stop-color="#B7CCC6" stop-opacity="0.98"/>
<stop offset="0.21" stop-color="#B5BEC1" stop-opacity="0.96"/>
<stop offset="0.26" stop-color="#B3A9BB" stop-opacity="0.92"/>
<stop offset="0.3" stop-color="#B18FB3" stop-opacity="0.88"/>
<stop offset="0.34" stop-color="#AE6EAA" stop-opacity="0.82"/>
<stop offset="0.38" stop-color="#AA489E" stop-opacity="0.76"/>
<stop offset="0.42" stop-color="#A51890" stop-opacity="0.68"/>
<stop offset="0.9" stop-color="#5C068C"/>
</linearGradient>
<linearGradient id="paint2_linear" x1="78.0454" y1="36.6647" x2="78.0454" y2="9.4064" gradientUnits="userSpaceOnUse">
<stop stop-color="#B8D7C9"/>
<stop offset="0.1" stop-color="#B8D4C8"/>
<stop offset="0.16" stop-color="#B7CCC6" stop-opacity="0.98"/>
<stop offset="0.21" stop-color="#B5BEC1" stop-opacity="0.96"/>
<stop offset="0.26" stop-color="#B3A9BB" stop-opacity="0.92"/>
<stop offset="0.3" stop-color="#B18FB3" stop-opacity="0.88"/>
<stop offset="0.34" stop-color="#AE6EAA" stop-opacity="0.82"/>
<stop offset="0.38" stop-color="#AA489E" stop-opacity="0.76"/>
<stop offset="0.42" stop-color="#A51890" stop-opacity="0.68"/>
<stop offset="0.9" stop-color="#5C068C"/>
</linearGradient>
<linearGradient id="paint3_linear" x1="64.4166" y1="36.6653" x2="64.4166" y2="9.40698" gradientUnits="userSpaceOnUse">
<stop stop-color="#B8D7C9"/>
<stop offset="0.1" stop-color="#B8D4C8"/>
<stop offset="0.16" stop-color="#B7CCC6" stop-opacity="0.98"/>
<stop offset="0.21" stop-color="#B5BEC1" stop-opacity="0.96"/>
<stop offset="0.26" stop-color="#B3A9BB" stop-opacity="0.92"/>
<stop offset="0.3" stop-color="#B18FB3" stop-opacity="0.88"/>
<stop offset="0.34" stop-color="#AE6EAA" stop-opacity="0.82"/>
<stop offset="0.38" stop-color="#AA489E" stop-opacity="0.76"/>
<stop offset="0.42" stop-color="#A51890" stop-opacity="0.68"/>
<stop offset="0.9" stop-color="#5C068C"/>
</linearGradient>
<linearGradient id="paint4_linear" x1="77.4471" y1="27.9886" x2="77.4471" y2="6.76425" gradientUnits="userSpaceOnUse">
<stop stop-color="#B8D7C9"/>
<stop offset="0.39" stop-color="#A51890" stop-opacity="0.8"/>
<stop offset="0.82" stop-color="#5C068C"/>
</linearGradient>
<linearGradient id="paint5_linear" x1="61.2862" y1="27.988" x2="61.2862" y2="6.7637" gradientUnits="userSpaceOnUse">
<stop stop-color="#B8D7C9"/>
<stop offset="0.39" stop-color="#A51890" stop-opacity="0.8"/>
<stop offset="0.82" stop-color="#5C068C"/>
</linearGradient>
<linearGradient id="paint6_linear" x1="65.0199" y1="27.9885" x2="65.0199" y2="6.76416" gradientUnits="userSpaceOnUse">
<stop stop-color="#B8D7C9"/>
<stop offset="0.39" stop-color="#A51890" stop-opacity="0.8"/>
<stop offset="0.82" stop-color="#5C068C"/>
</linearGradient>
<linearGradient id="paint7_linear" x1="71.2368" y1="27.9879" x2="71.2368" y2="6.76357" gradientUnits="userSpaceOnUse">
<stop stop-color="#B8D7C9"/>
<stop offset="0.39" stop-color="#A51890" stop-opacity="0.8"/>
<stop offset="0.82" stop-color="#5C068C"/>
</linearGradient>
<linearGradient id="paint8_linear" x1="81.2062" y1="27.9881" x2="81.2062" y2="6.7638" gradientUnits="userSpaceOnUse">
<stop stop-color="#B8D7C9"/>
<stop offset="0.39" stop-color="#A51890" stop-opacity="0.8"/>
<stop offset="0.82" stop-color="#5C068C"/>
</linearGradient>
<linearGradient id="paint9_linear" x1="71.2439" y1="36.6649" x2="71.2439" y2="9.40653" gradientUnits="userSpaceOnUse">
<stop stop-color="#B8D7C9"/>
<stop offset="0.1" stop-color="#B8D4C8"/>
<stop offset="0.16" stop-color="#B7CCC6" stop-opacity="0.98"/>
<stop offset="0.21" stop-color="#B5BEC1" stop-opacity="0.96"/>
<stop offset="0.26" stop-color="#B3A9BB" stop-opacity="0.92"/>
<stop offset="0.3" stop-color="#B18FB3" stop-opacity="0.88"/>
<stop offset="0.34" stop-color="#AE6EAA" stop-opacity="0.82"/>
<stop offset="0.38" stop-color="#AA489E" stop-opacity="0.76"/>
<stop offset="0.42" stop-color="#A51890" stop-opacity="0.68"/>
<stop offset="0.9" stop-color="#5C068C"/>
</linearGradient>
<linearGradient id="paint10_linear" x1="79.05" y1="36.6644" x2="79.05" y2="9.40615" gradientUnits="userSpaceOnUse">
<stop stop-color="#B8D7C9"/>
<stop offset="0.1" stop-color="#B8D4C8"/>
<stop offset="0.16" stop-color="#B7CCC6" stop-opacity="0.98"/>
<stop offset="0.21" stop-color="#B5BEC1" stop-opacity="0.96"/>
<stop offset="0.26" stop-color="#B3A9BB" stop-opacity="0.92"/>
<stop offset="0.3" stop-color="#B18FB3" stop-opacity="0.88"/>
<stop offset="0.34" stop-color="#AE6EAA" stop-opacity="0.82"/>
<stop offset="0.38" stop-color="#AA489E" stop-opacity="0.76"/>
<stop offset="0.42" stop-color="#A51890" stop-opacity="0.68"/>
<stop offset="0.9" stop-color="#5C068C"/>
</linearGradient>
<linearGradient id="paint11_linear" x1="79.05" y1="27.9878" x2="79.05" y2="6.76345" gradientUnits="userSpaceOnUse">
<stop stop-color="#B8D7C9"/>
<stop offset="0.39" stop-color="#A51890" stop-opacity="0.8"/>
<stop offset="0.82" stop-color="#5C068C"/>
</linearGradient>
<linearGradient id="paint12_linear" x1="63.4479" y1="36.6644" x2="63.4479" y2="9.40615" gradientUnits="userSpaceOnUse">
<stop stop-color="#B8D7C9"/>
<stop offset="0.1" stop-color="#B8D4C8"/>
<stop offset="0.16" stop-color="#B7CCC6" stop-opacity="0.98"/>
<stop offset="0.21" stop-color="#B5BEC1" stop-opacity="0.96"/>
<stop offset="0.26" stop-color="#B3A9BB" stop-opacity="0.92"/>
<stop offset="0.3" stop-color="#B18FB3" stop-opacity="0.88"/>
<stop offset="0.34" stop-color="#AE6EAA" stop-opacity="0.82"/>
<stop offset="0.38" stop-color="#AA489E" stop-opacity="0.76"/>
<stop offset="0.42" stop-color="#A51890" stop-opacity="0.68"/>
<stop offset="0.9" stop-color="#5C068C"/>
</linearGradient>
<linearGradient id="paint13_linear" x1="63.4479" y1="27.9878" x2="63.4479" y2="6.76345" gradientUnits="userSpaceOnUse">
<stop stop-color="#B8D7C9"/>
<stop offset="0.39" stop-color="#A51890" stop-opacity="0.8"/>
<stop offset="0.82" stop-color="#5C068C"/>
</linearGradient>
<linearGradient id="paint14_linear" x1="71.1606" y1="19.841" x2="71.1606" y2="0.0103751" gradientUnits="userSpaceOnUse">
<stop stop-color="#B8D7C9"/>
<stop offset="0.03" stop-color="#B7CCC6" stop-opacity="0.98"/>
<stop offset="0.07" stop-color="#B4B0BD" stop-opacity="0.92"/>
<stop offset="0.13" stop-color="#B082B0" stop-opacity="0.82"/>
<stop offset="0.2" stop-color="#A9429D" stop-opacity="0.69"/>
<stop offset="0.25" stop-color="#A51890" stop-opacity="0.6"/>
<stop offset="0.37" stop-color="#7D0E8E" stop-opacity="0.82"/>
<stop offset="0.47" stop-color="#65088C" stop-opacity="0.95"/>
<stop offset="0.55" stop-color="#5C068C"/>
</linearGradient>
<linearGradient id="paint15_linear" x1="62.7622" y1="19.8407" x2="62.7622" y2="0.0100708" gradientUnits="userSpaceOnUse">
<stop stop-color="#B8D7C9"/>
<stop offset="0.03" stop-color="#B7CCC6" stop-opacity="0.98"/>
<stop offset="0.07" stop-color="#B4B0BD" stop-opacity="0.92"/>
<stop offset="0.13" stop-color="#B082B0" stop-opacity="0.82"/>
<stop offset="0.2" stop-color="#A9429D" stop-opacity="0.69"/>
<stop offset="0.25" stop-color="#A51890" stop-opacity="0.6"/>
<stop offset="0.37" stop-color="#7D0E8E" stop-opacity="0.82"/>
<stop offset="0.47" stop-color="#65088C" stop-opacity="0.95"/>
<stop offset="0.55" stop-color="#5C068C"/>
</linearGradient>
<linearGradient id="paint16_linear" x1="71.2244" y1="19.8407" x2="71.2244" y2="0.0100806" gradientUnits="userSpaceOnUse">
<stop stop-color="#B8D7C9"/>
<stop offset="0.03" stop-color="#B7CCC6" stop-opacity="0.98"/>
<stop offset="0.07" stop-color="#B4B0BD" stop-opacity="0.92"/>
<stop offset="0.13" stop-color="#B082B0" stop-opacity="0.82"/>
<stop offset="0.2" stop-color="#A9429D" stop-opacity="0.69"/>
<stop offset="0.25" stop-color="#A51890" stop-opacity="0.6"/>
<stop offset="0.37" stop-color="#7D0E8E" stop-opacity="0.82"/>
<stop offset="0.47" stop-color="#65088C" stop-opacity="0.95"/>
<stop offset="0.55" stop-color="#5C068C"/>
</linearGradient>
<linearGradient id="paint17_linear" x1="79.6996" y1="19.8415" x2="79.6996" y2="0.0108591" gradientUnits="userSpaceOnUse">
<stop stop-color="#B8D7C9"/>
<stop offset="0.03" stop-color="#B7CCC6" stop-opacity="0.98"/>
<stop offset="0.07" stop-color="#B4B0BD" stop-opacity="0.92"/>
<stop offset="0.13" stop-color="#B082B0" stop-opacity="0.82"/>
<stop offset="0.2" stop-color="#A9429D" stop-opacity="0.69"/>
<stop offset="0.25" stop-color="#A51890" stop-opacity="0.6"/>
<stop offset="0.37" stop-color="#7D0E8E" stop-opacity="0.82"/>
<stop offset="0.47" stop-color="#65088C" stop-opacity="0.95"/>
<stop offset="0.55" stop-color="#5C068C"/>
</linearGradient>
<linearGradient id="paint18_linear" x1="77.0833" y1="36.6643" x2="77.0833" y2="9.40606" gradientUnits="userSpaceOnUse">
<stop stop-color="#B8D7C9"/>
<stop offset="0.1" stop-color="#B8D4C8"/>
<stop offset="0.16" stop-color="#B7CCC6" stop-opacity="0.98"/>
<stop offset="0.21" stop-color="#B5BEC1" stop-opacity="0.96"/>
<stop offset="0.26" stop-color="#B3A9BB" stop-opacity="0.92"/>
<stop offset="0.3" stop-color="#B18FB3" stop-opacity="0.88"/>
<stop offset="0.34" stop-color="#AE6EAA" stop-opacity="0.82"/>
<stop offset="0.38" stop-color="#AA489E" stop-opacity="0.76"/>
<stop offset="0.42" stop-color="#A51890" stop-opacity="0.68"/>
<stop offset="0.9" stop-color="#5C068C"/>
</linearGradient>
<linearGradient id="paint19_linear" x1="77.0833" y1="19.8404" x2="77.0833" y2="0.00978766" gradientUnits="userSpaceOnUse">
<stop stop-color="#B8D7C9"/>
<stop offset="0.03" stop-color="#B7CCC6" stop-opacity="0.98"/>
<stop offset="0.07" stop-color="#B4B0BD" stop-opacity="0.92"/>
<stop offset="0.13" stop-color="#B082B0" stop-opacity="0.82"/>
<stop offset="0.2" stop-color="#A9429D" stop-opacity="0.69"/>
<stop offset="0.25" stop-color="#A51890" stop-opacity="0.6"/>
<stop offset="0.37" stop-color="#7D0E8E" stop-opacity="0.82"/>
<stop offset="0.47" stop-color="#65088C" stop-opacity="0.95"/>
<stop offset="0.55" stop-color="#5C068C"/>
</linearGradient>
<linearGradient id="paint20_linear" x1="65.3488" y1="36.665" x2="65.3488" y2="9.4067" gradientUnits="userSpaceOnUse">
<stop stop-color="#B8D7C9"/>
<stop offset="0.1" stop-color="#B8D4C8"/>
<stop offset="0.16" stop-color="#B7CCC6" stop-opacity="0.98"/>
<stop offset="0.21" stop-color="#B5BEC1" stop-opacity="0.96"/>
<stop offset="0.26" stop-color="#B3A9BB" stop-opacity="0.92"/>
<stop offset="0.3" stop-color="#B18FB3" stop-opacity="0.88"/>
<stop offset="0.34" stop-color="#AE6EAA" stop-opacity="0.82"/>
<stop offset="0.38" stop-color="#AA489E" stop-opacity="0.76"/>
<stop offset="0.42" stop-color="#A51890" stop-opacity="0.68"/>
<stop offset="0.9" stop-color="#5C068C"/>
</linearGradient>
<linearGradient id="paint21_linear" x1="65.3488" y1="19.841" x2="65.3488" y2="0.0104441" gradientUnits="userSpaceOnUse">
<stop stop-color="#B8D7C9"/>
<stop offset="0.03" stop-color="#B7CCC6" stop-opacity="0.98"/>
<stop offset="0.07" stop-color="#B4B0BD" stop-opacity="0.92"/>
<stop offset="0.13" stop-color="#B082B0" stop-opacity="0.82"/>
<stop offset="0.2" stop-color="#A9429D" stop-opacity="0.69"/>
<stop offset="0.25" stop-color="#A51890" stop-opacity="0.6"/>
<stop offset="0.37" stop-color="#7D0E8E" stop-opacity="0.82"/>
<stop offset="0.47" stop-color="#65088C" stop-opacity="0.95"/>
<stop offset="0.55" stop-color="#5C068C"/>
</linearGradient>
<linearGradient id="paint22_linear" x1="71.2012" y1="27.9878" x2="71.2012" y2="6.76344" gradientUnits="userSpaceOnUse">
<stop stop-color="#B8D7C9"/>
<stop offset="0.39" stop-color="#A51890" stop-opacity="0.8"/>
<stop offset="0.82" stop-color="#5C068C"/>
</linearGradient>
<linearGradient id="paint23_linear" x1="82.4291" y1="27.9883" x2="82.4291" y2="6.76393" gradientUnits="userSpaceOnUse">
<stop stop-color="#B8D7C9"/>
<stop offset="0.39" stop-color="#A51890" stop-opacity="0.8"/>
<stop offset="0.82" stop-color="#5C068C"/>
</linearGradient>
<linearGradient id="paint24_linear" x1="82.4291" y1="19.841" x2="82.4291" y2="0.0103567" gradientUnits="userSpaceOnUse">
<stop stop-color="#B8D7C9"/>
<stop offset="0.03" stop-color="#B7CCC6" stop-opacity="0.98"/>
<stop offset="0.07" stop-color="#B4B0BD" stop-opacity="0.92"/>
<stop offset="0.13" stop-color="#B082B0" stop-opacity="0.82"/>
<stop offset="0.2" stop-color="#A9429D" stop-opacity="0.69"/>
<stop offset="0.25" stop-color="#A51890" stop-opacity="0.6"/>
<stop offset="0.37" stop-color="#7D0E8E" stop-opacity="0.82"/>
<stop offset="0.47" stop-color="#65088C" stop-opacity="0.95"/>
<stop offset="0.55" stop-color="#5C068C"/>
</linearGradient>
<linearGradient id="paint25_linear" x1="60.0634" y1="27.9887" x2="60.0634" y2="6.76435" gradientUnits="userSpaceOnUse">
<stop stop-color="#B8D7C9"/>
<stop offset="0.39" stop-color="#A51890" stop-opacity="0.8"/>
<stop offset="0.82" stop-color="#5C068C"/>
</linearGradient>
<linearGradient id="paint26_linear" x1="60.0634" y1="19.8414" x2="60.0634" y2="0.0107834" gradientUnits="userSpaceOnUse">
<stop stop-color="#B8D7C9"/>
<stop offset="0.03" stop-color="#B7CCC6" stop-opacity="0.98"/>
<stop offset="0.07" stop-color="#B4B0BD" stop-opacity="0.92"/>
<stop offset="0.13" stop-color="#B082B0" stop-opacity="0.82"/>
<stop offset="0.2" stop-color="#A9429D" stop-opacity="0.69"/>
<stop offset="0.25" stop-color="#A51890" stop-opacity="0.6"/>
<stop offset="0.37" stop-color="#7D0E8E" stop-opacity="0.82"/>
<stop offset="0.47" stop-color="#65088C" stop-opacity="0.95"/>
<stop offset="0.55" stop-color="#5C068C"/>
</linearGradient>
<linearGradient id="paint27_linear" x1="71.2513" y1="36.6648" x2="71.2513" y2="9.40655" gradientUnits="userSpaceOnUse">
<stop stop-color="#B8D7C9"/>
<stop offset="0.1" stop-color="#B8D4C8"/>
<stop offset="0.16" stop-color="#B7CCC6" stop-opacity="0.98"/>
<stop offset="0.21" stop-color="#B5BEC1" stop-opacity="0.96"/>
<stop offset="0.26" stop-color="#B3A9BB" stop-opacity="0.92"/>
<stop offset="0.3" stop-color="#B18FB3" stop-opacity="0.88"/>
<stop offset="0.34" stop-color="#AE6EAA" stop-opacity="0.82"/>
<stop offset="0.38" stop-color="#AA489E" stop-opacity="0.76"/>
<stop offset="0.42" stop-color="#A51890" stop-opacity="0.68"/>
<stop offset="0.9" stop-color="#5C068C"/>
</linearGradient>
<linearGradient id="paint28_linear" x1="71.2513" y1="27.9882" x2="71.2513" y2="6.76385" gradientUnits="userSpaceOnUse">
<stop stop-color="#B8D7C9"/>
<stop offset="0.39" stop-color="#A51890" stop-opacity="0.8"/>
<stop offset="0.82" stop-color="#5C068C"/>
</linearGradient>
<clipPath id="clip0">
<rect width="142" height="104" fill="white" transform="translate(0.5)"/>
</clipPath>
</defs>
</svg>
