<svg width="132" height="105" viewBox="0 0 132 105" fill="none" xmlns="http://www.w3.org/2000/svg">
<path d="M18.2492 64.197C17.4197 65.6983 16.5609 67.5014 16.5609 70.571C16.5609 73.3847 17.2144 75.2718 18.2492 77.1504H17.6249C16.8583 75.8588 15.9366 73.7328 15.9366 70.5542C15.9366 67.4846 16.8918 65.455 17.6249 64.197H18.2492Z" fill="#333333"/>
<path d="M19.3721 70.1349C19.3721 68.8895 19.3721 68.0047 19.3553 67.4092H19.9502C19.967 67.6776 19.9837 67.9585 19.9837 68.6085C20.2561 67.7279 20.9263 67.3463 21.5799 67.3127V68.0717C20.5158 68.0885 19.9837 69.0111 19.9837 70.2481V75.3766H19.3721V70.1349Z" fill="#333333"/>
<path d="M22.8322 71.4222V72.869C22.8322 73.8502 23.0082 74.9531 23.9843 74.9531C24.8724 74.9531 25.0735 74.2863 25.0735 73.3218V73.2296H25.6852V73.3093C25.6852 74.3241 25.4338 75.515 23.955 75.515C22.6814 75.515 22.2206 74.5966 22.2206 72.9738V69.6275C22.2206 68.294 22.7275 67.2917 24.001 67.2917C25.3626 67.2917 25.7019 68.424 25.7019 69.6442C25.7019 70.0426 25.7019 70.9819 25.7019 71.4306H22.8322V71.4222ZM25.0903 70.8603V69.6736C25.0903 68.923 25.0232 67.8411 23.9843 67.8411C22.9747 67.8411 22.8322 68.7385 22.8322 69.6904V70.8603H25.0903V70.8603Z" fill="#333333"/>
<path d="M27.0427 75.3809V64.26H27.6544V75.3809H27.0427Z" fill="#333333"/>
<path d="M32.7403 73.4141C32.7403 74.2989 32.7403 75.0453 32.757 75.385H32.1789C32.1622 75.255 32.1454 74.8273 32.1454 74.4792C31.9359 75.2257 31.4877 75.5108 30.7713 75.5108C30.2099 75.5108 29.2548 75.364 29.2548 73.5147V67.4092H29.8664V73.3512C29.8664 74.5212 30.168 74.9321 30.8802 74.9321C31.4835 74.9321 32.1286 74.5841 32.1286 72.5461V67.4092H32.7403V73.4141Z" fill="#333333"/>
<path d="M37.7045 75.5109C37.7045 76.9702 37.5117 78.2198 35.8109 78.2198C34.3991 78.2198 34.0933 77.1798 34.0933 76.3328V76.2866H34.7217V76.3495C34.7217 76.9324 34.9395 77.6621 35.8444 77.6621C36.8415 77.6621 37.0928 76.9324 37.0928 75.6325V74.4457C36.8708 75.0957 36.456 75.3809 35.7103 75.3809C34.7426 75.3809 34.1142 74.7477 34.1142 73.0032V69.5982C34.1142 67.8579 34.9311 67.2834 35.8695 67.2834C36.6655 67.2834 37.0635 67.7279 37.1598 68.097C37.1598 67.8873 37.1934 67.6147 37.2101 67.4093H37.738C37.7212 67.795 37.7045 68.575 37.7045 69.6192V75.5109V75.5109ZM34.7384 69.615V72.9361C34.7384 74.1858 35.0861 74.7854 35.7816 74.7854C36.9336 74.7854 37.1054 73.4813 37.1054 72.3029V69.9295C37.1054 68.7595 36.9797 67.8747 35.9072 67.8747C35.04 67.8747 34.7384 68.5666 34.7384 69.615Z" fill="#333333"/>
<path d="M42.6856 69.4766V73.0996C42.6856 74.8525 41.9022 75.5108 40.8591 75.5108C39.8453 75.5108 39.0786 74.8986 39.0786 73.1793V69.4933C39.0786 68.1598 39.707 67.2876 40.9052 67.2876C42.1368 67.2834 42.6856 68.1431 42.6856 69.4766ZM39.707 69.5017V73.1919C39.707 74.2989 40.1008 74.9489 40.8758 74.9489C41.588 74.9489 42.0614 74.4876 42.0614 73.1919V69.5059C42.0614 68.5414 41.7011 67.8453 40.8926 67.8453C40.0547 67.8411 39.707 68.4576 39.707 69.5017Z" fill="#333333"/>
<path d="M44.0597 75.3809V64.26H44.6713V75.3809H44.0597Z" fill="#333333"/>
<path d="M46.2885 64.26H46.9001V65.7948H46.2885V64.26ZM46.2885 67.4092H46.9001V75.3809H46.2885V67.4092Z" fill="#333333"/>
<path d="M48.5089 67.4092C49.2672 69.401 49.5688 70.1349 49.728 70.5962H49.7448C49.9501 70.0552 50.4109 69.053 51.0267 67.4092H51.6719L50.0883 71.1539L51.6844 75.3808H51.0225C50.281 73.4141 49.9165 72.349 49.7574 71.8584H49.7406C49.5521 72.3658 49.0913 73.5567 48.4293 75.3808H47.7842L49.4096 71.2377L47.847 67.4092H48.5089V67.4092Z" fill="#333333"/>
<path d="M52.2037 77.0205C52.5724 76.0686 52.9369 74.7435 52.9829 73.3513H53.5611C53.5276 74.5339 53.1757 76.0645 52.7106 77.0205H52.2037Z" fill="#333333"/>
<path d="M57.3441 71.4222V72.869C57.3441 73.8502 57.52 74.9531 58.4961 74.9531C59.3843 74.9531 59.5854 74.2863 59.5854 73.3218V73.2296H60.197V73.3093C60.197 74.3241 59.9456 75.515 58.4668 75.515C57.1932 75.515 56.7324 74.5966 56.7324 72.9738V69.6275C56.7324 68.294 57.2393 67.2917 58.5129 67.2917C59.8744 67.2917 60.2138 68.424 60.2138 69.6442C60.2138 70.0426 60.2138 70.9819 60.2138 71.4306H57.3441V71.4222ZM59.6021 70.8603V69.6736C59.6021 68.923 59.5351 67.8411 58.4961 67.8411C57.4865 67.8411 57.3441 68.7385 57.3441 69.6904V70.8603H59.6021V70.8603Z" fill="#333333"/>
<path d="M61.835 73.1416V73.4771C61.835 74.5464 62.321 74.9489 62.9536 74.9489C63.7412 74.9489 64.0428 74.4457 64.0428 73.498C64.0428 72.4581 63.7286 72.0765 62.8824 71.502C61.8476 70.8017 61.3826 70.2566 61.3826 69.1872C61.3826 68.1892 61.7889 67.2834 63.0039 67.2834C64.3151 67.2834 64.579 68.2521 64.579 69.1747V69.5856H63.9674V69.1998C63.9674 68.3947 63.7621 67.8412 62.9745 67.8412C62.2959 67.8412 62.011 68.2982 62.011 69.1201C62.011 69.9253 62.2498 70.2733 63.1212 70.8772C64.0554 71.5188 64.6754 72.0639 64.6754 73.3848C64.6754 74.7435 64.1434 75.5109 62.9117 75.5109C61.5962 75.5109 61.2108 74.5674 61.2108 73.5106V73.1458H61.835V73.1416Z" fill="#333333"/>
<path d="M65.1405 67.4093H66.125V65.4006H66.7199V67.4093H67.9725V67.9712H66.7199V74.0013C66.7199 74.4458 66.8162 74.9364 67.3399 74.9364C67.4991 74.9364 67.7672 74.9196 67.9096 74.8903V75.4018C67.7002 75.4689 67.3944 75.4815 67.1556 75.4815C66.6193 75.4815 66.125 75.1628 66.125 74.1187V67.9754H65.1405V67.4093V67.4093Z" fill="#333333"/>
<path d="M68.7978 70.1349C68.7978 68.8895 68.7978 68.0047 68.781 67.4092H69.3759C69.3926 67.6776 69.4094 67.9585 69.4094 68.6085C69.6817 67.7279 70.352 67.3463 71.0055 67.3127V68.0717C69.9414 68.0885 69.4094 69.0111 69.4094 70.2481V75.3766H68.7978V70.1349Z" fill="#333333"/>
<path d="M74.8723 74.2696C74.8723 74.8567 74.889 75.2173 74.9058 75.3808H74.3109C74.2648 75.1418 74.2481 74.8231 74.2481 74.668C74.0093 75.3641 73.4521 75.5108 72.9577 75.5108C71.8559 75.5108 71.4244 74.5841 71.4244 73.3219V73.1793C71.4244 71.5439 72.3251 70.7849 73.7286 70.7849C73.9003 70.7849 74.026 70.7849 74.2481 70.7849V69.2669C74.2481 68.4408 74.0763 67.8747 73.3013 67.8747C72.5262 67.8747 72.2916 68.4576 72.2916 69.2207V69.5185H71.68V69.2207C71.68 68.1514 72.1115 67.2876 73.318 67.2876C74.5497 67.2876 74.8765 68.1808 74.8765 69.2375V74.2696H74.8723ZM74.2648 71.3426C74.1391 71.3426 73.9003 71.3426 73.7453 71.3426C72.6561 71.3426 72.0528 71.8332 72.0528 73.1499V73.2925C72.0528 74.1606 72.2916 74.9196 73.0499 74.9196C73.9967 74.9196 74.2648 74.1018 74.2648 72.7851V71.3426Z" fill="#333333"/>
<path d="M79.8743 64.26V73.4938C79.8743 74.1606 79.8743 74.9196 79.8911 75.3809H79.313C79.2962 75.2844 79.2794 74.8357 79.2794 74.5674C79.1203 75.0328 78.7684 75.5067 77.9095 75.5067C76.6611 75.5067 76.2673 74.5296 76.2673 73.0158V69.594C76.2673 68.1599 76.8538 67.2792 78.0227 67.2792C78.8605 67.2792 79.137 67.686 79.2669 67.9166V64.26H79.8743V64.26ZM76.8915 69.6275V72.9571C76.8915 74.2654 77.2225 74.9154 77.9682 74.9154C78.9946 74.9154 79.2627 73.888 79.2627 72.5923V69.7953C79.2627 68.9021 79.1663 67.8789 78.0143 67.8789C77.2393 67.8747 76.8915 68.554 76.8915 69.6275Z" fill="#333333"/>
<path d="M81.4872 64.26H82.0988V65.7948H81.4872V64.26ZM81.4872 67.4092H82.0988V75.3809H81.4872V67.4092Z" fill="#333333"/>
<path d="M87.0842 69.4766V73.0996C87.0842 74.8525 86.3008 75.5108 85.2576 75.5108C84.2438 75.5108 83.4772 74.8986 83.4772 73.1793V69.4933C83.4772 68.1598 84.1056 67.2876 85.3037 67.2876C86.5354 67.2834 87.0842 68.1431 87.0842 69.4766ZM84.1014 69.5017V73.1919C84.1014 74.2989 84.4952 74.9489 85.2702 74.9489C85.9824 74.9489 86.4558 74.4876 86.4558 73.1919V69.5059C86.4558 68.5414 86.0955 67.8453 85.287 67.8453C84.4491 67.8411 84.1014 68.4576 84.1014 69.5017Z" fill="#333333"/>
<path d="M88.4581 75.3809V64.26H89.0698V75.3809H88.4581Z" fill="#333333"/>
<path d="M90.0878 77.0205C90.4564 76.0686 90.8209 74.7435 90.867 73.3513H91.4451C91.4116 74.5339 91.0597 76.0645 90.5947 77.0205H90.0878Z" fill="#333333"/>
<path d="M97.9889 74.2696C97.9889 74.8567 98.0057 75.2173 98.0225 75.3808H97.4276C97.3815 75.1418 97.3647 74.8231 97.3647 74.668C97.126 75.3641 96.5688 75.5108 96.0744 75.5108C94.9726 75.5108 94.5411 74.5841 94.5411 73.3219V73.1793C94.5411 71.5439 95.4418 70.7849 96.8453 70.7849C97.017 70.7849 97.1427 70.7849 97.3647 70.7849V69.2669C97.3647 68.4408 97.193 67.8747 96.418 67.8747C95.6429 67.8747 95.4083 68.4576 95.4083 69.2207V69.5185H94.7967V69.2207C94.7967 68.1514 95.2282 67.2876 96.4347 67.2876C97.6664 67.2876 97.9931 68.1808 97.9931 69.2375V74.2696H97.9889ZM97.3773 71.3426C97.2516 71.3426 97.0128 71.3426 96.8578 71.3426C95.7686 71.3426 95.1653 71.8332 95.1653 73.1499V73.2925C95.1653 74.1606 95.4041 74.9196 96.1624 74.9196C97.1092 74.9196 97.3773 74.1018 97.3773 72.7851V71.3426Z" fill="#333333"/>
<path d="M99.6184 69.8037C99.6184 68.2228 99.6184 67.8412 99.6017 67.4093H100.18C100.197 67.5854 100.213 67.8244 100.213 68.2815C100.452 67.5686 100.976 67.2793 101.663 67.2793C102.434 67.2793 103.163 67.6819 103.163 69.1034V75.3809H102.551V69.2376C102.551 68.4115 102.279 67.8748 101.554 67.8748C100.779 67.8748 100.226 68.2396 100.226 70.1979V75.3809H99.6143V69.8037H99.6184Z" fill="#333333"/>
<path d="M108.144 64.26V73.4938C108.144 74.1606 108.144 74.9196 108.161 75.3809H107.583C107.566 75.2844 107.549 74.8357 107.549 74.5674C107.39 75.0328 107.038 75.5067 106.179 75.5067C104.931 75.5067 104.537 74.5296 104.537 73.0158V69.594C104.537 68.1599 105.123 67.2792 106.292 67.2792C107.13 67.2792 107.407 67.686 107.537 67.9166V64.26H108.144V64.26ZM105.165 69.6275V72.9571C105.165 74.2654 105.496 74.9154 106.242 74.9154C107.268 74.9154 107.537 73.888 107.537 72.5923V69.7953C107.537 68.9021 107.44 67.8789 106.288 67.8789C105.509 67.8747 105.165 68.554 105.165 69.6275Z" fill="#333333"/>
<path d="M4.54178 84.8999C4.54178 83.319 4.54178 82.9374 4.52502 82.5055H5.10315C5.11991 82.6816 5.13667 82.9206 5.13667 83.3777C5.37546 82.6648 5.89912 82.3755 6.58617 82.3755C7.35701 82.3755 8.08595 82.7781 8.08595 84.1996V90.4771H7.47431V84.3338C7.47431 83.5077 7.20201 82.9709 6.47725 82.9709C5.70223 82.9709 5.14923 83.3358 5.14923 85.2941V90.4771H4.54178V84.8999Z" fill="#333333"/>
<path d="M13.0712 84.5728V88.1958C13.0712 89.9487 12.2878 90.607 11.2447 90.607C10.2309 90.607 9.46423 89.9948 9.46423 88.2755V84.5895C9.46423 83.256 10.0926 82.3838 11.2908 82.3838C12.5224 82.3796 13.0712 83.2393 13.0712 84.5728ZM10.0884 84.5979V88.2881C10.0884 89.3951 10.4822 90.0451 11.2573 90.0451C11.9695 90.0451 12.4428 89.5838 12.4428 88.2881V84.6021C12.4428 83.6376 12.0826 82.9415 11.274 82.9415C10.4362 82.9373 10.0884 83.5538 10.0884 84.5979Z" fill="#333333"/>
<path d="M14.4452 85.2311C14.4452 83.9856 14.4452 83.1008 14.4285 82.5054H15.0234C15.0401 82.7738 15.0569 83.0547 15.0569 83.7047C15.3292 82.8241 15.9995 82.4425 16.653 82.4089V83.1679C15.5889 83.1847 15.0569 84.1073 15.0569 85.3443V90.4728H14.4452V85.2311Z" fill="#333333"/>
<path d="M17.9057 86.5184V87.9651C17.9057 88.9464 18.0817 90.0493 19.0578 90.0493C19.9459 90.0493 20.147 89.3825 20.147 88.418V88.3258H20.7586V88.4054C20.7586 89.4202 20.5073 90.6112 19.0285 90.6112C17.7549 90.6112 17.2941 89.6928 17.2941 88.07V84.7237C17.2941 83.3902 17.801 82.3879 19.0745 82.3879C20.4361 82.3879 20.7754 83.5202 20.7754 84.7404C20.7754 85.1388 20.7754 86.0781 20.7754 86.5268H17.9057V86.5184ZM20.1638 85.9565V84.7698C20.1638 84.0192 20.0967 82.9373 19.0578 82.9373C18.0481 82.9373 17.9057 83.8347 17.9057 84.7866V85.9565H20.1638V85.9565Z" fill="#333333"/>
<path d="M21.4038 82.5055H22.3883V80.4968H22.9832V82.5055H24.2358V83.0674H22.9832V89.0975C22.9832 89.542 23.0795 90.0326 23.6032 90.0326C23.7624 90.0326 24.0305 90.0158 24.173 89.9865V90.498C23.9635 90.5651 23.6577 90.5777 23.4189 90.5777C22.8826 90.5777 22.3883 90.259 22.3883 89.2149V83.0716H21.4038V82.5055V82.5055Z" fill="#333333"/>
<path d="M25.6727 79.3562V83.2812C25.8319 82.8199 26.3095 82.3754 27.1054 82.3754C28.2701 82.3754 28.6052 83.2519 28.6052 84.4176V90.4771H27.9936V84.5518C27.9936 83.8054 27.9265 82.9709 26.9965 82.9709C25.8947 82.9709 25.6727 83.8851 25.6727 85.3066V90.4771H25.061V79.3562H25.6727V79.3562Z" fill="#333333"/>
<path d="M30.2181 79.3562H30.8298V80.891H30.2181V79.3562ZM30.2181 82.5054H30.8298V90.4771H30.2181V82.5054Z" fill="#333333"/>
<path d="M32.4469 84.8999C32.4469 83.319 32.4469 82.9374 32.4302 82.5055H33.0083C33.0251 82.6816 33.0418 82.9206 33.0418 83.3777C33.2806 82.6648 33.8043 82.3755 34.4913 82.3755C35.2622 82.3755 35.9911 82.7781 35.9911 84.1996V90.4771H35.3837V84.3338C35.3837 83.5077 35.1113 82.9709 34.3866 82.9709C33.6116 82.9709 33.0586 83.3358 33.0586 85.2941V90.4771H32.4469V84.8999V84.8999Z" fill="#333333"/>
<path d="M40.9763 79.3562V88.5901C40.9763 89.2568 40.9763 90.0158 40.9931 90.4771H40.4107C40.394 90.3806 40.3772 89.9319 40.3772 89.6636C40.218 90.129 39.8661 90.6029 39.0073 90.6029C37.7589 90.6029 37.3651 89.6258 37.3651 88.112V84.6902C37.3651 83.2561 37.9516 82.3754 39.1204 82.3754C39.9583 82.3754 40.2348 82.7822 40.3647 83.0128V79.3562H40.9763V79.3562ZM37.9935 84.7237V88.0533C37.9935 89.3616 38.3245 90.0116 39.0702 90.0116C40.0965 90.0116 40.3647 88.9842 40.3647 87.6885V84.8915C40.3647 83.9983 40.2683 82.9751 39.1162 82.9751C38.3412 82.9709 37.9935 83.6502 37.9935 84.7237Z" fill="#333333"/>
<path d="M42.5894 85.2311C42.5894 83.9856 42.5894 83.1008 42.5726 82.5054H43.1675C43.1843 82.7738 43.201 83.0547 43.201 83.7047C43.4733 82.8241 44.1436 82.4425 44.7972 82.4089V83.1679C43.7331 83.1847 43.201 84.1073 43.201 85.3443V90.4728H42.5894V85.2311Z" fill="#333333"/>
<path d="M49.045 84.5728V88.1958C49.045 89.9487 48.2616 90.607 47.2185 90.607C46.2046 90.607 45.438 89.9948 45.438 88.2755V84.5895C45.438 83.256 46.0664 82.3838 47.2645 82.3838C48.4962 82.3796 49.045 83.2393 49.045 84.5728ZM46.0664 84.5979V88.2881C46.0664 89.3951 46.4602 90.0451 47.2352 90.0451C47.9474 90.0451 48.4208 89.5838 48.4208 88.2881V84.6021C48.4208 83.6376 48.0605 82.9415 47.252 82.9415C46.4141 82.9373 46.0664 83.5538 46.0664 84.5979Z" fill="#333333"/>
<path d="M50.4193 84.8999C50.4193 83.319 50.4193 82.9374 50.4026 82.5055H50.9807C50.9975 82.6816 51.0142 82.9206 51.0142 83.3777C51.253 82.6648 51.7767 82.3755 52.4637 82.3755C53.2346 82.3755 53.9635 82.7781 53.9635 84.1996V90.4771H53.3519V84.3338C53.3519 83.5077 53.0796 82.9709 52.3548 82.9709C51.5798 82.9709 51.0268 83.3358 51.0268 85.2941V90.4771H50.4152V84.8999H50.4193Z" fill="#333333"/>
<path d="M55.949 86.5184V87.9651C55.949 88.9464 56.125 90.0493 57.1011 90.0493C57.9893 90.0493 58.1903 89.3825 58.1903 88.418V88.3258H58.802V88.4054C58.802 89.4202 58.5506 90.6112 57.0718 90.6112C55.7982 90.6112 55.3374 89.6928 55.3374 88.07V84.7237C55.3374 83.3902 55.8443 82.3879 57.1179 82.3879C58.4794 82.3879 58.8187 83.5202 58.8187 84.7404C58.8187 85.1388 58.8187 86.0781 58.8187 86.5268H55.949V86.5184ZM58.2113 85.9565V84.7698C58.2113 84.0192 58.1443 82.9373 57.1053 82.9373C56.0957 82.9373 55.9532 83.8347 55.9532 84.7866V85.9565H58.2113V85.9565Z" fill="#333333"/>
<path d="M65.4758 89.3658C65.4758 89.9528 65.4925 90.3135 65.5093 90.477H64.9144C64.8683 90.238 64.8516 89.9193 64.8516 89.7641C64.6128 90.4602 64.0556 90.607 63.5613 90.607C62.4595 90.607 62.028 89.6803 62.028 88.4181V88.2755C62.028 86.6401 62.9287 85.8811 64.3321 85.8811C64.5038 85.8811 64.6295 85.8811 64.8516 85.8811V84.3631C64.8516 83.537 64.6798 82.9709 63.9048 82.9709C63.1297 82.9709 62.8951 83.5537 62.8951 84.3169V84.6147H62.2835V84.3169C62.2835 83.2476 62.715 82.3838 63.9215 82.3838C65.1532 82.3838 65.48 83.277 65.48 84.3337V89.3658H65.4758ZM64.8641 86.4388C64.7385 86.4388 64.4997 86.4388 64.3447 86.4388C63.2554 86.4388 62.6522 86.9294 62.6522 88.2461V88.3887C62.6522 89.2567 62.891 90.0157 63.6492 90.0157C64.596 90.0157 64.8641 89.198 64.8641 87.8813V86.4388Z" fill="#333333"/>
<path d="M70.2807 88.0952V88.2085C70.2807 89.5168 69.9456 90.6071 68.5506 90.6071C67.2938 90.6071 66.8665 89.6929 66.8665 88.112V84.6357C66.8665 83.2351 67.4194 82.3796 68.6134 82.3796C69.9037 82.3796 70.2807 83.3483 70.2807 84.4889V84.837H69.6523V84.6273C69.6523 83.7886 69.5099 82.9374 68.5966 82.9374C67.8216 82.9374 67.4907 83.5077 67.4907 84.7363V88.1204C67.4907 89.022 67.6624 90.0452 68.5631 90.0452C69.3214 90.0452 69.6523 89.6007 69.6523 88.2126V88.0952H70.2807V88.0952Z" fill="#333333"/>
<path d="M71.9648 86.5184V87.9651C71.9648 88.9464 72.1407 90.0493 73.1169 90.0493C74.005 90.0493 74.2061 89.3825 74.2061 88.418V88.3258H74.8177V88.4054C74.8177 89.4202 74.5664 90.6112 73.0875 90.6112C71.814 90.6112 71.3531 89.6928 71.3531 88.07V84.7237C71.3531 83.3902 71.8601 82.3879 73.1336 82.3879C74.4952 82.3879 74.8345 83.5202 74.8345 84.7404C74.8345 85.1388 74.8345 86.0781 74.8345 86.5268H71.9648V86.5184ZM74.227 85.9565V84.7698C74.227 84.0192 74.16 82.9373 73.1211 82.9373C72.1114 82.9373 71.969 83.8347 71.969 84.7866V85.9565H74.227V85.9565Z" fill="#333333"/>
<path d="M75.4629 82.5055H76.4474V80.4968H77.0423V82.5055H78.2949V83.0674H77.0423V89.0975C77.0423 89.542 77.1386 90.0326 77.6623 90.0326C77.8215 90.0326 78.0896 90.0158 78.232 89.9865V90.498C78.0226 90.5651 77.7168 90.5777 77.478 90.5777C76.9417 90.5777 76.4474 90.259 76.4474 89.2149V83.0716H75.4629V82.5055V82.5055Z" fill="#333333"/>
<path d="M82.3502 89.3658C82.3502 89.9528 82.3669 90.3135 82.3837 90.477H81.7888C81.7427 90.238 81.726 89.9193 81.726 89.7641C81.4872 90.4602 80.93 90.607 80.4356 90.607C79.3338 90.607 78.9023 89.6803 78.9023 88.4181V88.2755C78.9023 86.6401 79.803 85.8811 81.2065 85.8811C81.3782 85.8811 81.5039 85.8811 81.726 85.8811V84.3631C81.726 83.537 81.5542 82.9709 80.7792 82.9709C80.0041 82.9709 79.7695 83.5537 79.7695 84.3169V84.6147H79.1579V84.3169C79.1579 83.2476 79.5894 82.3838 80.7959 82.3838C82.0276 82.3838 82.3544 83.277 82.3544 84.3337V89.3658H82.3502ZM81.7385 86.4388C81.6128 86.4388 81.374 86.4388 81.219 86.4388C80.1298 86.4388 79.5266 86.9294 79.5266 88.2461V88.3887C79.5266 89.2567 79.7653 90.0157 80.5236 90.0157C81.4704 90.0157 81.7385 89.198 81.7385 87.8813V86.4388Z" fill="#333333"/>
<path d="M83.1044 82.5055H84.0889V80.4968H84.6837V82.5055H85.9364V83.0674H84.6837V89.0975C84.6837 89.542 84.7801 90.0326 85.3038 90.0326C85.463 90.0326 85.7311 90.0158 85.8735 89.9865V90.498C85.664 90.5651 85.3582 90.5777 85.1194 90.5777C84.5832 90.5777 84.0889 90.259 84.0889 89.2149V83.0716H83.1044V82.5055V82.5055Z" fill="#333333"/>
<path d="M87.1345 86.5184V87.9651C87.1345 88.9464 87.3104 90.0493 88.2865 90.0493C89.1747 90.0493 89.3758 89.3825 89.3758 88.418V88.3258H89.9874V88.4054C89.9874 89.4202 89.7361 90.6112 88.2572 90.6112C86.9837 90.6112 86.5228 89.6928 86.5228 88.07V84.7237C86.5228 83.3902 87.0297 82.3879 88.3033 82.3879C89.6648 82.3879 90.0042 83.5202 90.0042 84.7404C90.0042 85.1388 90.0042 86.0781 90.0042 86.5268H87.1345V86.5184ZM89.3967 85.9565V84.7698C89.3967 84.0192 89.3297 82.9373 88.2907 82.9373C87.2811 82.9373 87.1387 83.8347 87.1387 84.7866V85.9565H89.3967V85.9565Z" fill="#333333"/>
<path d="M90.8085 92.2424C91.638 90.7412 92.4968 88.9381 92.4968 85.8685C92.4968 83.0547 91.8432 81.1677 90.8085 79.2891H91.4327C92.1993 80.5806 93.121 82.7067 93.121 85.8853C93.121 88.9548 92.1658 90.9844 91.4327 92.2424H90.8085Z" fill="#333333"/>
<path d="M95.9193 82.5055H96.9038V80.4968H97.4987V82.5055H98.7513V83.0674H97.4987V89.0975C97.4987 89.542 97.595 90.0326 98.1187 90.0326C98.2779 90.0326 98.546 90.0158 98.6885 89.9865V90.498C98.479 90.5651 98.1732 90.5777 97.9344 90.5777C97.3982 90.5777 96.9038 90.259 96.9038 89.2149V83.0716H95.9193V82.5055V82.5055Z" fill="#333333"/>
<path d="M102.803 89.3658C102.803 89.9528 102.819 90.3135 102.836 90.477H102.241C102.195 90.238 102.178 89.9193 102.178 89.7641C101.94 90.4602 101.382 90.607 100.888 90.607C99.7862 90.607 99.3547 89.6803 99.3547 88.4181V88.2755C99.3547 86.6401 100.255 85.8811 101.659 85.8811C101.831 85.8811 101.956 85.8811 102.178 85.8811V84.3631C102.178 83.537 102.007 82.9709 101.232 82.9709C100.457 82.9709 100.222 83.5537 100.222 84.3169V84.6147H99.6103V84.3169C99.6103 83.2476 100.042 82.3838 101.248 82.3838C102.48 82.3838 102.807 83.277 102.807 84.3337V89.3658H102.803ZM102.191 86.4388C102.065 86.4388 101.826 86.4388 101.671 86.4388C100.582 86.4388 99.9789 86.9294 99.9789 88.2461V88.3887C99.9789 89.2567 100.218 90.0157 100.976 90.0157C101.923 90.0157 102.191 89.198 102.191 87.8813V86.4388Z" fill="#333333"/>
<path d="M104.432 79.3562H105.044V83.298C105.22 82.8032 105.622 82.3754 106.477 82.3754C107.578 82.3754 108.039 83.2686 108.039 84.5812V87.9946C108.039 89.4245 107.675 90.5735 106.317 90.5735C105.601 90.5735 105.169 90.2045 104.994 89.651C104.994 89.999 104.994 90.2087 104.96 90.4771H104.415C104.432 90.1206 104.432 89.4036 104.432 88.3091V79.3562V79.3562ZM107.415 88.0785V84.665C107.415 83.5706 107.101 82.9709 106.343 82.9709C105.161 82.9709 105.031 84.1996 105.031 85.4953V87.7346C105.031 89.282 105.396 89.9781 106.292 89.9781C107.034 89.9823 107.415 89.3784 107.415 88.0785Z" fill="#333333"/>
<path d="M109.417 90.4771V79.3562H110.029V90.4771H109.417Z" fill="#333333"/>
<path d="M112.015 86.5184V87.9651C112.015 88.9464 112.191 90.0493 113.167 90.0493C114.055 90.0493 114.256 89.3825 114.256 88.418V88.3258H114.868V88.4054C114.868 89.4202 114.616 90.6112 113.137 90.6112C111.864 90.6112 111.403 89.6928 111.403 88.07V84.7237C111.403 83.3902 111.91 82.3879 113.184 82.3879C114.545 82.3879 114.884 83.5202 114.884 84.7404C114.884 85.1388 114.884 86.0781 114.884 86.5268H112.015V86.5184ZM114.277 85.9565V84.7698C114.277 84.0192 114.21 82.9373 113.171 82.9373C112.161 82.9373 112.019 83.8347 112.019 84.7866V85.9565H114.277V85.9565Z" fill="#333333"/>
<path d="M115.517 82.5055H116.502V80.4968H117.097V82.5055H118.349V83.0674H117.097V89.0975C117.097 89.542 117.193 90.0326 117.717 90.0326C117.876 90.0326 118.144 90.0158 118.286 89.9865V90.498C118.077 90.5651 117.771 90.5777 117.532 90.5777C116.996 90.5777 116.502 90.259 116.502 89.2149V83.0716H115.517V82.5055V82.5055Z" fill="#333333"/>
<path d="M119.514 88.2378V88.5733C119.514 89.6426 120 90.0452 120.632 90.0452C121.42 90.0452 121.721 89.542 121.721 88.5942C121.721 87.5543 121.407 87.1727 120.561 86.5982C119.526 85.8979 119.061 85.3528 119.061 84.2834C119.061 83.2854 119.468 82.3796 120.682 82.3796C121.994 82.3796 122.258 83.3483 122.258 84.2709V84.6818H121.646V84.296C121.646 83.4909 121.441 82.9374 120.653 82.9374C119.974 82.9374 119.69 83.3944 119.69 84.2163C119.69 85.0215 119.928 85.3695 120.8 85.9734C121.734 86.615 122.354 87.1601 122.354 88.481C122.354 89.8397 121.822 90.6071 120.59 90.6071C119.275 90.6071 118.889 89.6636 118.889 88.6068V88.242H119.514V88.2378Z" fill="#333333"/>
<path d="M64.286 11.3352C64.1184 11.4317 63.955 11.5323 63.7917 11.6329C63.5068 11.8091 63.1549 11.8091 62.8742 11.6329C62.7108 11.5323 62.5474 11.4317 62.3757 11.3352C61.3158 12.1781 58.8776 14.279 56.984 17.1934C57.4071 17.4869 57.8177 17.7637 58.2199 18.0278C60.0213 15.2602 62.3757 13.2264 63.3266 12.4632C64.2734 13.218 66.5901 15.2183 68.3832 17.9398C68.7853 17.6756 69.1959 17.3946 69.619 17.1011C67.7338 14.237 65.3375 12.1697 64.286 11.3352Z" fill="url(#paint0_linear)"/>
<path d="M70.7417 24.9093C70.7417 29.7653 67.0677 34.0761 64.8766 36.2147C64.0262 37.045 62.6437 37.045 61.7933 36.2147C59.6023 34.0761 55.9282 29.7653 55.9282 24.9093C55.9282 24.6367 55.945 24.3642 55.9659 24.0958C55.5428 23.5716 55.1239 23.0223 54.7259 22.4436C54.5541 23.2403 54.4578 24.0623 54.4578 24.9093C54.4578 30.3062 58.4125 34.9693 60.7669 37.2672C61.4749 37.9591 62.4049 38.303 63.335 38.303C64.265 38.303 65.195 37.9591 65.903 37.2672C68.2616 34.9693 72.2122 30.3062 72.2122 24.9093C72.2122 24.0623 72.1116 23.2403 71.944 22.4436C71.5461 23.0181 71.1271 23.5716 70.704 24.0916C70.7249 24.3642 70.7417 24.6326 70.7417 24.9093Z" fill="url(#paint1_linear)"/>
<path d="M68.844 18.6695C69.5562 19.873 70.1469 21.1981 70.4695 22.6029C70.8465 22.0997 71.2152 21.5755 71.5587 21.0346C71.1816 19.894 70.6664 18.8205 70.0757 17.8308C69.6567 18.1243 69.242 18.4053 68.844 18.6695Z" fill="url(#paint2_linear)"/>
<path d="M56.5357 17.9231C55.9702 18.8876 55.4716 19.9275 55.1072 21.0304C55.4549 21.5755 55.8194 22.0997 56.1964 22.5987C56.5106 21.2275 57.0804 19.9359 57.7674 18.7576C57.3694 18.4976 56.9547 18.2166 56.5357 17.9231Z" fill="url(#paint3_linear)"/>
<path d="M64.2858 11.3354C67.0299 9.72931 70.6662 8.35807 72.5807 9.42739C73.6071 9.99769 74.1266 11.2767 74.1266 13.2308C74.1266 13.2937 74.1224 13.3566 74.1224 13.4195C74.491 13.0589 74.8471 12.694 75.1907 12.3166C75.0273 10.4338 74.3319 9.13804 73.1211 8.46291C71.1354 7.35585 68.2406 8.20292 66.016 9.20094C65.1028 10.0312 64.3906 10.7189 63.9884 11.1047C64.0722 11.1676 64.1685 11.2431 64.2858 11.3354Z" fill="url(#paint4_linear)"/>
<path d="M52.6605 14.8747C52.2457 14.5014 51.8394 14.1157 51.4456 13.7173C51.5754 16.9294 52.9705 19.9193 54.7216 22.4437C54.8222 21.9615 54.952 21.4918 55.107 21.0347C53.9215 19.1687 52.983 17.0804 52.6605 14.8747Z" fill="url(#paint5_linear)"/>
<path d="M54.085 9.42725C54.5584 9.16306 55.1323 9.04984 55.7775 9.04984C57.7423 9.04984 60.3145 10.1275 62.3799 11.3352C62.493 11.243 62.5935 11.1675 62.6731 11.1088C62.1076 10.5553 61.4038 9.8969 60.6078 9.18403C58.3916 8.19439 55.522 7.36829 53.5488 8.46696C52.2962 9.16726 51.6007 10.5301 51.4667 12.5136C51.8144 12.891 52.1789 13.2558 52.5517 13.6122C52.5475 13.4864 52.5433 13.3606 52.5433 13.2348C52.5391 11.2807 53.0586 9.99755 54.085 9.42725Z" fill="url(#paint6_linear)"/>
<path d="M65.97 27.4003C64.4661 28.7212 62.2038 28.7212 60.6999 27.4003C59.3928 26.2513 57.7003 24.5949 56.2005 22.603C56.0874 23.0895 56.012 23.5885 55.9701 24.0959C57.3484 25.7942 58.8063 27.2074 59.9751 28.2347C60.9345 29.0776 62.1368 29.497 63.3391 29.497C64.5415 29.497 65.7438 29.0776 66.7032 28.2347C67.872 27.2074 69.3299 25.7942 70.7082 24.0959C70.6663 23.5885 70.5867 23.0937 70.4777 22.603C68.9654 24.5949 67.2771 26.2513 65.97 27.4003Z" fill="url(#paint7_linear)"/>
<path d="M74.0303 14.6733C73.737 16.9545 72.7819 19.1141 71.5586 21.0305C71.7094 21.4917 71.8393 21.9614 71.944 22.4394C73.7329 19.8647 75.1489 16.7993 75.2243 13.5117C74.8388 13.9101 74.4367 14.3001 74.0303 14.6733Z" fill="url(#paint8_linear)"/>
<path d="M63.7916 11.6331C63.9508 11.5325 64.1184 11.4361 64.2859 11.3354C64.1686 11.2432 64.0723 11.1677 63.9885 11.1048C63.7665 11.3186 63.6408 11.4486 63.6324 11.4528L63.3308 11.7548L63.025 11.4528C62.9118 11.3438 62.7945 11.2222 62.6689 11.1006C62.5893 11.1635 62.4929 11.239 62.3756 11.327C62.5432 11.4277 62.7108 11.5241 62.8741 11.6248C63.159 11.8093 63.5109 11.8093 63.7916 11.6331Z" fill="url(#paint9_linear)"/>
<path d="M63.7916 11.6331C63.9508 11.5325 64.1184 11.4361 64.2859 11.3354C64.1686 11.2432 64.0723 11.1677 63.9885 11.1048C63.7665 11.3186 63.6408 11.4486 63.6324 11.4528L63.3308 11.7548L63.025 11.4528C62.9118 11.3438 62.7945 11.2222 62.6689 11.1006C62.5893 11.1635 62.4929 11.239 62.3756 11.327C62.5432 11.4277 62.7108 11.5241 62.8741 11.6248C63.159 11.8093 63.5109 11.8093 63.7916 11.6331Z" fill="#5C068C"/>
<path d="M70.4692 22.603C70.5824 23.0894 70.6578 23.5884 70.6997 24.0958C71.127 23.5716 71.5417 23.0223 71.9397 22.4478C71.8392 21.9656 71.7093 21.4959 71.5543 21.0388C71.215 21.5756 70.8463 22.0997 70.4692 22.603Z" fill="url(#paint10_linear)"/>
<path d="M70.4692 22.603C70.5824 23.0894 70.6578 23.5884 70.6997 24.0958C71.127 23.5716 71.5417 23.0223 71.9397 22.4478C71.8392 21.9656 71.7093 21.4959 71.5543 21.0388C71.215 21.5756 70.8463 22.0997 70.4692 22.603Z" fill="url(#paint11_linear)"/>
<path d="M56.1963 22.603C55.8193 22.0998 55.4506 21.5756 55.1071 21.0347C54.9563 21.4959 54.8264 21.9656 54.7217 22.4436C55.1197 23.0181 55.5386 23.5717 55.9617 24.0958C56.0078 23.5884 56.0874 23.0894 56.1963 22.603Z" fill="url(#paint12_linear)"/>
<path d="M56.1963 22.603C55.8193 22.0998 55.4506 21.5756 55.1071 21.0347C54.9563 21.4959 54.8264 21.9656 54.7217 22.4436C55.1197 23.0181 55.5386 23.5717 55.9617 24.0958C56.0078 23.5884 56.0874 23.0894 56.1963 22.603Z" fill="url(#paint13_linear)"/>
<path d="M51.4623 12.5095C49.2378 10.1151 47.5788 7.36 47.5788 4.44559C47.5788 3.14145 47.9098 2.34051 48.5591 2.06794C48.7686 1.97988 49.0074 1.93795 49.2755 1.93795C51.9273 1.93795 57.1179 6.05166 60.6035 9.17993C61.7681 9.69991 62.7526 10.2618 63.3307 10.6183C63.9046 10.2702 64.8682 9.71668 66.0119 9.2009C67.0173 8.28674 68.2532 7.20484 69.5644 6.1565C74.9896 1.83311 77.122 1.73247 77.9138 2.05956C78.5631 2.32793 78.8899 3.12887 78.8899 4.4414C78.8899 7.27613 77.3231 9.96829 75.1865 12.3166C75.2116 12.6101 75.2284 12.912 75.2284 13.2307C75.2284 13.3272 75.2242 13.4194 75.22 13.5117C77.7755 10.8824 79.7487 7.77514 79.7487 4.4414C79.7487 2.74727 79.2418 1.67796 78.2405 1.26701C76.502 0.549938 73.4898 1.92956 69.024 5.48975C66.4392 7.5529 64.1309 9.76281 63.3265 10.5512C62.5138 9.76281 60.1719 7.5487 57.5494 5.48136C53.092 1.9673 49.9584 0.554131 48.2282 1.27539C47.2269 1.69473 46.7158 2.75985 46.7158 4.44559C46.7158 7.8674 48.7937 11.046 51.4414 13.7172C51.433 13.5578 51.4288 13.3943 51.4288 13.2349C51.433 12.9791 51.4456 12.7443 51.4623 12.5095Z" fill="url(#paint14_linear)"/>
<path d="M56.9839 17.1935C55.5134 16.1703 53.9634 14.9584 52.5474 13.6082C52.5599 14.0317 52.5976 14.4552 52.6605 14.8746C53.9257 16.0152 55.2621 17.0383 56.5356 17.9273C56.6822 17.6757 56.8331 17.4325 56.9839 17.1935Z" fill="url(#paint15_linear)"/>
<path d="M65.3123 19.8143C64.0136 20.544 62.4594 20.544 61.1607 19.8143C60.3521 19.3615 59.3341 18.7576 58.2198 18.0322C58.0648 18.2712 57.914 18.5144 57.7673 18.7618C58.8943 19.4956 59.9206 20.1079 60.7376 20.565C61.521 21.0053 62.3756 21.2233 63.2344 21.2233C64.0932 21.2233 64.9478 21.0053 65.7312 20.565C66.5817 20.0869 67.6625 19.4453 68.8397 18.6695C68.6931 18.4221 68.5381 18.1789 68.3831 17.9441C67.2185 18.7073 66.1502 19.3405 65.3123 19.8143Z" fill="url(#paint16_linear)"/>
<path d="M69.6189 17.1013C69.7739 17.3361 69.9247 17.5793 70.0713 17.8267C71.3742 16.9084 72.7441 15.8474 74.0261 14.6691C74.0805 14.254 74.1098 13.8388 74.1182 13.4153C72.698 14.8075 71.1187 16.0487 69.6189 17.1013Z" fill="url(#paint17_linear)"/>
<path d="M68.8438 18.6696C69.246 18.4054 69.6566 18.1245 70.0755 17.8309C69.9289 17.5835 69.7781 17.3403 69.6231 17.1055C69.2041 17.399 68.7894 17.68 68.3872 17.9441C68.5422 18.179 68.6972 18.418 68.8438 18.6696Z" fill="url(#paint18_linear)"/>
<path d="M68.8438 18.6696C69.246 18.4054 69.6566 18.1245 70.0755 17.8309C69.9289 17.5835 69.7781 17.3403 69.6231 17.1055C69.2041 17.399 68.7894 17.68 68.3872 17.9441C68.5422 18.179 68.6972 18.418 68.8438 18.6696Z" fill="url(#paint19_linear)"/>
<path d="M56.9839 17.1936C56.8289 17.4326 56.6781 17.6758 56.5356 17.9233C56.9546 18.2168 57.3693 18.4977 57.7715 18.7577C57.9181 18.5103 58.0689 18.2671 58.2239 18.0281C57.8218 17.7681 57.407 17.4871 56.9839 17.1936Z" fill="url(#paint20_linear)"/>
<path d="M56.9839 17.1936C56.8289 17.4326 56.6781 17.6758 56.5356 17.9233C56.9546 18.2168 57.3693 18.4977 57.7715 18.7577C57.9181 18.5103 58.0689 18.2671 58.2239 18.0281C57.8218 17.7681 57.407 17.4871 56.9839 17.1936Z" fill="url(#paint21_linear)"/>
<path d="M62.8993 10.9328L63.3266 10.6267L63.7539 10.9328C63.7832 10.9537 63.8628 11.0124 63.9843 11.1047C64.3823 10.7147 65.0987 10.0312 66.0119 9.2009C64.8682 9.71669 63.9005 10.2702 63.3308 10.6183C62.7526 10.266 61.7681 9.69991 60.6035 9.17993C61.3995 9.89281 62.1033 10.5554 62.6689 11.1047C62.7903 11.0166 62.8741 10.9537 62.8993 10.9328Z" fill="url(#paint22_linear)"/>
<path d="M62.8993 10.9328L63.3266 10.6267L63.7539 10.9328C63.7832 10.9537 63.8628 11.0124 63.9843 11.1047C64.3823 10.7147 65.0987 10.0312 66.0119 9.2009C64.8682 9.71669 63.9005 10.2702 63.3308 10.6183C62.7526 10.266 61.7681 9.69991 60.6035 9.17993C61.3995 9.89281 62.1033 10.5554 62.6689 11.1047C62.7903 11.0166 62.8741 10.9537 62.8993 10.9328Z" fill="#5C068C"/>
<path d="M75.1906 12.3167C74.8471 12.6941 74.491 13.0631 74.1223 13.4195C74.1139 13.8388 74.0846 14.2582 74.0302 14.6733C74.4407 14.3001 74.8387 13.9101 75.2241 13.516C75.2283 13.4237 75.2325 13.3273 75.2325 13.235C75.2325 12.9121 75.2157 12.6102 75.1906 12.3167Z" fill="url(#paint23_linear)"/>
<path d="M75.1906 12.3167C74.8471 12.6941 74.491 13.0631 74.1223 13.4195C74.1139 13.8388 74.0846 14.2582 74.0302 14.6733C74.4407 14.3001 74.8387 13.9101 75.2241 13.516C75.2283 13.4237 75.2325 13.3273 75.2325 13.235C75.2325 12.9121 75.2157 12.6102 75.1906 12.3167Z" fill="url(#paint24_linear)"/>
<path d="M52.5475 13.6082C52.1746 13.2518 51.8101 12.8827 51.4624 12.5095C51.4457 12.7444 51.4331 12.9834 51.4331 13.2308C51.4331 13.3943 51.4373 13.5537 51.4457 13.713C51.8395 14.1114 52.2458 14.4972 52.6606 14.8704C52.6019 14.4553 52.5642 14.0317 52.5475 13.6082Z" fill="url(#paint25_linear)"/>
<path d="M52.5475 13.6082C52.1746 13.2518 51.8101 12.8827 51.4624 12.5095C51.4457 12.7444 51.4331 12.9834 51.4331 13.2308C51.4331 13.3943 51.4373 13.5537 51.4457 13.713C51.8395 14.1114 52.2458 14.4972 52.6606 14.8704C52.6019 14.4553 52.5642 14.0317 52.5475 13.6082Z" fill="url(#paint26_linear)"/>
<path d="M63.3308 11.7589L63.6325 11.457C63.6366 11.4528 63.7665 11.3228 63.9885 11.1089C63.8671 11.0167 63.7875 10.9579 63.7581 10.937L63.3308 10.6309L62.9035 10.937C62.8742 10.9579 62.7946 11.0167 62.6731 11.1089C62.7988 11.2305 62.9203 11.3479 63.0292 11.4612L63.3308 11.7589Z" fill="url(#paint27_linear)"/>
<path d="M63.3308 11.7589L63.6325 11.457C63.6366 11.4528 63.7665 11.3228 63.9885 11.1089C63.8671 11.0167 63.7875 10.9579 63.7581 10.937L63.3308 10.6309L62.9035 10.937C62.8742 10.9579 62.7946 11.0167 62.6731 11.1089C62.7988 11.2305 62.9203 11.3479 63.0292 11.4612L63.3308 11.7589Z" fill="url(#paint28_linear)"/>
<path d="M63.3308 11.7589L63.6325 11.457C63.6366 11.4528 63.7665 11.3228 63.9885 11.1089C63.8671 11.0167 63.7875 10.9579 63.7581 10.937L63.3308 10.6309L62.9035 10.937C62.8742 10.9579 62.7946 11.0167 62.6731 11.1089C62.7988 11.2305 62.9203 11.3479 63.0292 11.4612L63.3308 11.7589Z" fill="#5C068C"/>
<path d="M39.925 102.097V100.206H38.0439V99.8368L39.7867 95.4714H40.4109V99.7655H40.9513L40.8969 100.206H40.4109V102.097H39.925V102.097ZM39.925 97.8826C39.925 97.2788 39.9375 96.6707 39.9585 96.0753H39.9501C39.5312 97.2662 39.0117 98.5997 38.5592 99.7613H39.925V97.8826V97.8826Z" fill="#333333"/>
<path d="M44.1101 97.0187V100.558C44.1101 101.774 43.5906 102.177 42.8114 102.177C42.1034 102.177 41.542 101.791 41.542 100.575V97.0396C41.542 95.7229 42.1913 95.3875 42.8449 95.3875C43.4816 95.3875 44.1101 95.7187 44.1101 97.0187ZM42.0489 97.0187V100.575C42.0489 101.35 42.2919 101.698 42.8365 101.698C43.3057 101.698 43.6031 101.464 43.6031 100.554V97.0229C43.6031 96.1381 43.268 95.8739 42.8281 95.8739C42.3799 95.8697 42.0489 96.1003 42.0489 97.0187Z" fill="#333333"/>
<path d="M46.4016 98.4361C46.4016 97.568 46.4016 97.2242 46.3932 96.9642H46.8666C46.8875 97.111 46.8875 97.2997 46.8917 97.4674C47.0258 97.1194 47.2897 96.8845 47.7505 96.8845C48.1276 96.8845 48.4208 97.0355 48.5297 97.5051C48.6722 97.1697 48.9403 96.8845 49.4472 96.8845C49.908 96.8845 50.3772 97.069 50.3772 98.0503V102.097H49.8787V98.1719C49.8787 97.74 49.8117 97.3584 49.3341 97.3584C48.7685 97.3584 48.6429 97.8951 48.6429 98.4822V102.097H48.1401V98.2264C48.1401 97.6142 47.9977 97.3584 47.5788 97.3584C47.0342 97.3584 46.9043 97.9119 46.9043 98.5619V102.097H46.4058V98.4361H46.4016Z" fill="#333333"/>
<path d="M53.6576 102.118C53.6576 103.091 53.5361 103.917 52.3799 103.917C51.4205 103.917 51.2236 103.233 51.2236 102.684V102.655H51.7305V102.692C51.7305 103.028 51.8562 103.477 52.4092 103.477C53.0125 103.477 53.1591 103.032 53.1591 102.227V101.497C53.0167 101.891 52.7485 102.076 52.2752 102.076C51.6007 102.076 51.2278 101.615 51.2278 100.533V98.3857C51.2278 97.3374 51.7096 96.8845 52.3757 96.8845C52.891 96.8845 53.1423 97.1655 53.2094 97.4087C53.2094 97.2703 53.2303 97.09 53.2429 96.9642H53.6744C53.666 97.2242 53.6534 97.7106 53.6534 98.3648V102.118H53.6576ZM51.7347 98.4067V100.487C51.7347 101.241 51.94 101.61 52.3673 101.61C53.0586 101.61 53.1633 100.856 53.1633 100.118V98.5954C53.1633 97.8951 53.0879 97.3584 52.4469 97.3584C51.9274 97.3584 51.7347 97.7651 51.7347 98.4067Z" fill="#333333"/>
<path d="M54.2314 103.129C54.487 102.47 54.709 101.602 54.7342 100.759H55.1992C55.1782 101.543 54.9352 102.525 54.6294 103.129H54.2314Z" fill="#333333"/>
<path d="M57.7255 102.097V96.0837C57.5412 96.2053 57.0887 96.373 56.896 96.4066V95.9872C57.2479 95.8866 57.7087 95.6014 57.8679 95.4253H58.224V102.097H57.7255Z" fill="#333333"/>
<path d="M60.7751 98.4361C60.7751 97.568 60.7751 97.2242 60.7667 96.9642H61.2401C61.2611 97.111 61.2611 97.2997 61.2652 97.4674C61.3993 97.1194 61.6632 96.8845 62.1241 96.8845C62.5011 96.8845 62.7944 97.0355 62.9033 97.5051C63.0457 97.1697 63.3138 96.8845 63.8207 96.8845C64.2816 96.8845 64.7508 97.069 64.7508 98.0503V102.097H64.2522V98.1719C64.2522 97.74 64.1852 97.3584 63.7076 97.3584C63.1421 97.3584 63.0164 97.8951 63.0164 98.4822V102.097H62.5137V98.2264C62.5137 97.6142 62.3712 97.3584 61.9523 97.3584C61.4077 97.3584 61.2778 97.9119 61.2778 98.5619V102.097H60.7793V98.4361H60.7751Z" fill="#333333"/>
<path d="M68.0312 102.118C68.0312 103.091 67.9097 103.917 66.7534 103.917C65.7941 103.917 65.5972 103.233 65.5972 102.684V102.655H66.1041V102.692C66.1041 103.028 66.2298 103.477 66.7827 103.477C67.386 103.477 67.5326 103.032 67.5326 102.227V101.497C67.3902 101.891 67.1221 102.076 66.6487 102.076C65.9742 102.076 65.6014 101.615 65.6014 100.533V98.3857C65.6014 97.3374 66.0831 96.8845 66.7492 96.8845C67.2645 96.8845 67.5159 97.1655 67.5829 97.4087C67.5829 97.2703 67.6039 97.09 67.6164 96.9642H68.0479C68.0395 97.2242 68.027 97.7106 68.027 98.3648V102.118H68.0312ZM66.1083 98.4067V100.487C66.1083 101.241 66.3135 101.61 66.7409 101.61C67.4321 101.61 67.5368 100.856 67.5368 100.118V98.5954C67.5368 97.8951 67.4614 97.3584 66.8205 97.3584C66.301 97.3584 66.1083 97.7651 66.1083 98.4067Z" fill="#333333"/>
<path d="M68.605 103.129C68.8605 102.47 69.0826 101.602 69.1077 100.759H69.5727C69.5518 101.543 69.3088 102.525 69.003 103.129H68.605Z" fill="#333333"/>
<path d="M74.1601 97.0187V100.558C74.1601 101.774 73.6406 102.177 72.8614 102.177C72.1534 102.177 71.592 101.791 71.592 100.575V97.0396C71.592 95.7229 72.2414 95.3875 72.8949 95.3875C73.5317 95.3875 74.1601 95.7187 74.1601 97.0187ZM72.0989 97.0187V100.575C72.0989 101.35 72.3419 101.698 72.8865 101.698C73.3557 101.698 73.6532 101.464 73.6532 100.554V97.0229C73.6532 96.1381 73.318 95.8739 72.8782 95.8739C72.4299 95.8697 72.0989 96.1003 72.0989 97.0187Z" fill="#333333"/>
<path d="M74.8472 102.097V100.763H75.3457V102.097H74.8472Z" fill="#333333"/>
<path d="M78.3997 95.9327H76.7533C76.7156 96.5072 76.6444 97.5723 76.5816 98.1678C76.7073 97.9246 77.0173 97.7233 77.4362 97.7233C78.3118 97.7233 78.5757 98.39 78.5757 99.4677V100.302C78.5757 101.325 78.362 102.181 77.2561 102.181C76.2464 102.181 75.9741 101.455 75.9741 100.654V100.566H76.481V100.701C76.481 101.195 76.6486 101.732 77.2561 101.732C77.9431 101.732 78.0604 101.124 78.0604 100.415V99.4971C78.0604 98.7045 77.9431 98.1804 77.3231 98.1804C76.8581 98.1804 76.636 98.4445 76.5062 98.9687L76.0453 98.91C76.1543 98.0042 76.2758 95.9998 76.3051 95.4714H78.471L78.3997 95.9327Z" fill="#333333"/>
<path d="M80.8297 98.4361C80.8297 97.568 80.8297 97.2242 80.8213 96.9642H81.2947C81.3156 97.111 81.3156 97.2997 81.3198 97.4674C81.4539 97.1194 81.7178 96.8845 82.1786 96.8845C82.5557 96.8845 82.8489 97.0355 82.9578 97.5051C83.1003 97.1697 83.3684 96.8845 83.8753 96.8845C84.3361 96.8845 84.8053 97.069 84.8053 98.0503V102.097H84.3068V98.1719C84.3068 97.74 84.2398 97.3584 83.7622 97.3584C83.1966 97.3584 83.071 97.8951 83.071 98.4822V102.097H82.5682V98.2264C82.5682 97.6142 82.4258 97.3584 82.0069 97.3584C81.4623 97.3584 81.3324 97.9119 81.3324 98.5619V102.097H80.8339V98.4361H80.8297Z" fill="#333333"/>
<path d="M88.0855 102.118C88.0855 103.091 87.964 103.917 86.8077 103.917C85.8484 103.917 85.6515 103.233 85.6515 102.684V102.655H86.1584V102.692C86.1584 103.028 86.2841 103.477 86.8371 103.477C87.4403 103.477 87.587 103.032 87.587 102.227V101.497C87.4445 101.891 87.1764 102.076 86.703 102.076C86.0285 102.076 85.6557 101.615 85.6557 100.533V98.3857C85.6557 97.3374 86.1374 96.8845 86.8036 96.8845C87.3188 96.8845 87.5702 97.1655 87.6372 97.4087C87.6372 97.2703 87.6582 97.09 87.6707 96.9642H88.1022C88.0939 97.2242 88.0813 97.7106 88.0813 98.3648V102.118H88.0855ZM86.1626 98.4067V100.487C86.1626 101.241 86.3679 101.61 86.7952 101.61C87.4864 101.61 87.5911 100.856 87.5911 100.118V98.5954C87.5911 97.8951 87.5157 97.3584 86.8748 97.3584C86.3553 97.3584 86.1626 97.7651 86.1626 98.4067Z" fill="#333333"/>
<path d="M31.957 46.1825C31.957 46.3125 31.9277 46.4383 31.8691 46.5683L24.9273 61.8448C24.7975 62.1719 24.5922 62.3396 24.3073 62.3396C24.1649 62.3396 24.035 62.3103 23.9219 62.2557C23.5909 62.1257 23.4276 61.9119 23.4276 61.61C23.4276 61.48 23.4569 61.3542 23.5113 61.2242L25.6353 56.5276V56.5066L20.8553 46.5976C20.7967 46.4844 20.7673 46.3544 20.7673 46.2118C20.7673 45.9099 20.9265 45.696 21.2407 45.5702C21.3538 45.5115 21.4837 45.4822 21.6261 45.4822C21.9278 45.4822 22.1414 45.6331 22.2671 45.9351L26.4481 54.7496L30.4363 45.956C30.5787 45.6415 30.7924 45.4822 31.0773 45.4822C31.2071 45.4822 31.3328 45.5115 31.4627 45.5702C31.7895 45.6918 31.957 45.8973 31.957 46.1825Z" fill="#5C068C"/>
<path d="M38.3121 42.9242C37.8345 43.5532 37.5958 44.3919 37.5958 45.436V45.9309H40.168C40.3942 45.9309 40.5786 45.998 40.7126 46.1363C40.8467 46.2705 40.9179 46.4466 40.9179 46.6605C40.9179 46.8618 40.8509 47.0295 40.7126 47.1637C40.5786 47.2979 40.3942 47.3692 40.168 47.3692H37.5958V56.4018C37.5958 56.6575 37.5203 56.863 37.3695 57.014C37.2187 57.165 37.0092 57.2404 36.7369 57.2404C36.5065 57.2404 36.318 57.165 36.1672 57.014C36.0164 56.863 35.941 56.6617 35.941 56.4018V47.3692H34.5711C34.3406 47.3692 34.1605 47.3021 34.0264 47.1637C33.8924 47.0253 33.8212 46.8618 33.8212 46.6605C33.8212 46.4466 33.8882 46.2705 34.0264 46.1363C34.1605 46.0021 34.3448 45.9309 34.5711 45.9309H35.941V45.5241C35.941 43.9935 36.3348 42.7732 37.1182 41.8549C37.9058 40.9407 39.0117 40.4836 40.4403 40.4836C40.6833 40.4836 40.8844 40.5549 41.0394 40.6975C41.1986 40.8401 41.274 41.0204 41.274 41.2343C41.274 41.4481 41.1944 41.6284 41.0394 41.771C40.8802 41.9136 40.6833 41.9849 40.4403 41.9849C39.5019 41.9807 38.7897 42.2952 38.3121 42.9242Z" fill="#5C068C"/>
<path d="M51.1609 46.1322C51.9736 46.6271 52.6062 47.3106 53.0586 48.1828C53.5111 49.055 53.7331 50.0489 53.7331 51.1643C53.7331 51.3949 53.6619 51.5753 53.5195 51.7094C53.377 51.8436 53.1885 51.9149 52.9623 51.9149H44.3029C44.416 53.0891 44.8727 54.0368 45.6728 54.7664C46.473 55.4961 47.4743 55.8609 48.6724 55.8609C49.1877 55.8609 49.703 55.7728 50.2266 55.5925C50.7461 55.4122 51.1651 55.19 51.4793 54.9174C51.6636 54.7748 51.8563 54.7035 52.0574 54.7035C52.2124 54.7035 52.3716 54.7622 52.5266 54.8755C52.7109 55.0474 52.8073 55.2403 52.8073 55.4541C52.8073 55.6387 52.7277 55.8064 52.5727 55.949C52.0993 56.3515 51.5002 56.6828 50.7713 56.947C50.0423 57.2112 49.3427 57.3454 48.6724 57.3454C47.5287 57.3454 46.5065 57.0896 45.6058 56.5822C44.7051 56.0748 44.0013 55.3661 43.4944 54.4603C42.9875 53.5503 42.7319 52.5272 42.7319 51.3824C42.7319 50.225 42.9707 49.1892 43.4483 48.2834C43.9259 47.3777 44.592 46.669 45.4424 46.1616C46.2929 45.6542 47.2606 45.3984 48.3456 45.3984C49.4097 45.39 50.3439 45.6374 51.1609 46.1322ZM45.6519 47.8767C44.9355 48.5476 44.4998 49.4366 44.3448 50.5353H52.1873C52.0741 49.4324 51.672 48.5476 50.9849 47.8767C50.2979 47.2057 49.4223 46.8703 48.3498 46.8703C47.2648 46.8703 46.3641 47.2057 45.6519 47.8767Z" fill="#5C068C"/>
<path d="M71.5084 45.9685C72.1578 46.371 72.6647 46.9371 73.0292 47.6752C73.3936 48.4132 73.5738 49.2645 73.5738 50.2373V56.4142C73.5738 56.6574 73.4984 56.8545 73.3476 57.0055C73.1967 57.1564 72.9998 57.2319 72.7569 57.2319C72.5139 57.2319 72.3128 57.1564 72.1578 57.0055C71.9986 56.8545 71.9232 56.6574 71.9232 56.4142V50.2373C71.9232 49.2225 71.6634 48.4174 71.1398 47.8261C70.6161 47.2307 69.9374 46.9371 69.0912 46.9371C68.1905 46.9371 67.4615 47.2391 66.9044 47.8387C66.3472 48.4384 66.0749 49.2267 66.0916 50.1996V50.2415V56.4184C66.0916 56.6616 66.0162 56.8587 65.8654 57.0097C65.7146 57.1606 65.5177 57.2361 65.2747 57.2361C65.0317 57.2361 64.8306 57.1606 64.6756 57.0097C64.5164 56.8587 64.441 56.6616 64.441 56.4184V50.2415C64.441 49.2267 64.1813 48.4216 63.6576 47.8303C63.134 47.2391 62.4553 46.9413 61.6132 46.9413C60.7251 46.9413 60.0003 47.2349 59.4264 47.822C58.8525 48.409 58.5676 49.1596 58.5676 50.0738V56.4226C58.5676 56.6658 58.4922 56.8629 58.3414 57.0139C58.1905 57.1648 57.9936 57.2403 57.7507 57.2403C57.5077 57.2403 57.3066 57.1648 57.1516 57.0139C56.9924 56.8629 56.917 56.6658 56.917 56.4226V46.3417C56.917 46.0985 56.9966 45.8972 57.1516 45.742C57.3108 45.5827 57.5077 45.5072 57.7507 45.5072C57.9936 45.5072 58.1905 45.5869 58.3414 45.742C58.4922 45.9014 58.5676 46.0985 58.5676 46.3417V46.8113C58.9656 46.3543 59.4432 46.002 59.992 45.7504C60.5408 45.4988 61.1398 45.3772 61.7808 45.3772C62.5684 45.3772 63.2722 45.5575 63.9006 45.914C64.529 46.2704 65.0275 46.7736 65.4004 47.4152C65.8151 46.7694 66.3556 46.2704 67.0175 45.914C67.6836 45.5575 68.4293 45.3772 69.2588 45.3772C70.1092 45.3688 70.8591 45.5701 71.5084 45.9685Z" fill="#5C068C"/>
<path d="M99.9039 45.6037C100.252 45.7631 100.428 45.9811 100.428 46.2705C100.428 46.3543 100.419 46.4214 100.407 46.4634C100.348 46.6647 100.26 46.7988 100.139 46.8701C100.017 46.9414 99.8495 46.9792 99.6358 46.9792C99.5059 46.9792 99.2839 46.9666 98.9697 46.9372C98.8566 46.9246 98.6848 46.9163 98.4544 46.9163C97.3819 46.9163 96.5064 47.2014 95.8277 47.7759C95.149 48.3462 94.8097 49.0926 94.8097 50.0068V56.4185C94.8097 56.6743 94.7385 56.8755 94.596 57.0181C94.4536 57.1607 94.2525 57.232 93.9969 57.232C93.7414 57.232 93.5403 57.1607 93.3979 57.0181C93.2554 56.8755 93.1842 56.6743 93.1842 56.4185V46.3166C93.1842 46.0608 93.2554 45.8595 93.3979 45.7169C93.5403 45.5744 93.7414 45.5031 93.9969 45.5031C94.2525 45.5031 94.4536 45.5744 94.596 45.7169C94.7385 45.8595 94.8097 46.0608 94.8097 46.3166V47.2601C95.2244 46.6605 95.7523 46.195 96.3974 45.8637C97.0426 45.5366 97.7338 45.3689 98.4753 45.3689C99.0786 45.3689 99.552 45.4486 99.9039 45.6037Z" fill="#5C068C"/>
<path d="M110.097 46.1322C110.909 46.6271 111.542 47.3106 111.994 48.1828C112.447 49.055 112.669 50.0489 112.669 51.1643C112.669 51.3949 112.598 51.5753 112.455 51.7094C112.313 51.8436 112.124 51.9149 111.898 51.9149H103.239C103.352 53.0891 103.808 54.0368 104.609 54.7664C105.409 55.4961 106.41 55.8609 107.608 55.8609C108.123 55.8609 108.639 55.7728 109.162 55.5925C109.682 55.4122 110.101 55.19 110.415 54.9174C110.599 54.7748 110.792 54.7035 110.993 54.7035C111.148 54.7035 111.307 54.7622 111.462 54.8755C111.647 55.0474 111.743 55.2403 111.743 55.4541C111.743 55.6387 111.663 55.8064 111.508 55.949C111.035 56.3515 110.436 56.6828 109.707 56.947C108.978 57.2112 108.278 57.3454 107.608 57.3454C106.464 57.3454 105.442 57.0896 104.541 56.5822C103.641 56.0748 102.937 55.3661 102.43 54.4603C101.923 53.5503 101.668 52.5272 101.668 51.3824C101.668 50.225 101.906 49.1892 102.384 48.2834C102.862 47.3777 103.528 46.669 104.378 46.1616C105.229 45.6542 106.196 45.3984 107.281 45.3984C108.345 45.39 109.28 45.6374 110.097 46.1322ZM104.588 47.8767C103.871 48.5476 103.436 49.4366 103.281 50.5353H111.123C111.01 49.4324 110.608 48.5476 109.921 47.8767C109.234 47.2057 108.358 46.8703 107.286 46.8703C106.2 46.8703 105.3 47.2057 104.588 47.8767Z" fill="#5C068C"/>
<path d="M123.23 46.1322C124.043 46.6271 124.675 47.3106 125.128 48.1828C125.58 49.055 125.802 50.0489 125.802 51.1643C125.802 51.3949 125.731 51.5753 125.589 51.7094C125.446 51.8436 125.258 51.9149 125.031 51.9149H116.372C116.485 53.0891 116.942 54.0368 117.742 54.7664C118.542 55.4961 119.543 55.8609 120.741 55.8609C121.257 55.8609 121.772 55.7728 122.296 55.5925C122.815 55.4122 123.234 55.19 123.548 54.9174C123.733 54.7748 123.925 54.7035 124.126 54.7035C124.281 54.7035 124.441 54.7622 124.596 54.8755C124.78 55.0474 124.876 55.2403 124.876 55.4541C124.876 55.6387 124.797 55.8064 124.642 55.949C124.168 56.3515 123.569 56.6828 122.84 56.947C122.111 57.2112 121.412 57.3454 120.741 57.3454C119.598 57.3454 118.576 57.0896 117.675 56.5822C116.774 56.0748 116.07 55.3661 115.563 54.4603C115.057 53.5503 114.801 52.5272 114.801 51.3824C114.801 50.225 115.04 49.1892 115.517 48.2834C115.995 47.3777 116.661 46.669 117.512 46.1616C118.362 45.6542 119.33 45.3984 120.415 45.3984C121.483 45.39 122.417 45.6374 123.23 46.1322ZM117.725 47.8767C117.009 48.5476 116.573 49.4366 116.418 50.5353H124.261C124.147 49.4324 123.745 48.5476 123.058 47.8767C122.371 47.2057 121.496 46.8703 120.423 46.8703C119.338 46.8703 118.437 47.2057 117.725 47.8767Z" fill="#5C068C"/>
<path d="M88.7808 48.3169C88.2739 47.407 87.5784 46.6941 86.7029 46.1699C85.8231 45.6499 84.8428 45.3858 83.7578 45.3858C82.8277 45.3858 81.9773 45.5828 81.2065 45.977C80.4356 46.3712 79.7989 46.9121 79.3003 47.5957V41.314C79.3003 41.0708 79.2207 40.8695 79.0657 40.7143C78.9065 40.555 78.7096 40.4795 78.4667 40.4795C78.2237 40.4795 78.0058 40.5592 77.855 40.7143C77.7042 40.8737 77.6288 41.0708 77.6288 41.314C77.6288 41.314 77.6288 46.2244 77.6288 46.3125V51.3529V56.4144C77.6288 56.6702 77.7 56.8714 77.8424 57.014C77.9849 57.1566 78.186 57.2279 78.4415 57.2279C78.6971 57.2279 78.8981 57.1566 79.0406 57.014C79.183 56.8714 79.2542 56.6702 79.2542 56.4144V55.5296C79.6313 55.9279 80.0586 56.2718 80.5487 56.5527C81.4578 57.0769 82.4675 57.3369 83.5818 57.3369C84.6962 57.3369 85.7058 57.0769 86.6149 56.5527C87.524 56.0286 88.2362 55.3115 88.7598 54.3973C89.2835 53.4832 89.5432 52.4684 89.5432 51.3529C89.5432 50.2375 89.2877 49.2269 88.7808 48.3169ZM87.3648 53.6383C86.9877 54.3177 86.4641 54.8544 85.8022 55.2486C85.1361 55.6428 84.3987 55.8399 83.586 55.8399C82.7733 55.8399 82.036 55.6428 81.3782 55.2486C80.7205 54.8544 80.201 54.3177 79.824 53.6383C79.5643 53.1729 79.3967 52.6655 79.3129 52.1413C79.2668 51.8478 79.2459 51.55 79.2501 51.2523C79.2542 50.9588 79.3003 50.6736 79.3464 50.3843C79.4218 49.9104 79.5894 49.445 79.8282 49.0298C80.0586 48.6272 80.3602 48.275 80.7038 47.9647C81.4955 47.2476 82.4591 46.8912 83.586 46.8912C84.3987 46.8912 85.1403 47.0841 85.8022 47.4699C86.4641 47.8557 86.9877 48.3882 87.3648 49.0676C87.7418 49.7469 87.9345 50.5101 87.9345 51.3529C87.9345 52.1958 87.746 52.959 87.3648 53.6383Z" fill="#5C068C"/>
<path d="M17.5749 40.7143C17.7341 40.8737 17.8095 41.0708 17.8095 41.314V56.3934C17.8095 56.624 17.7299 56.8211 17.5749 56.9847C17.4199 57.1482 17.223 57.2321 16.9968 57.2321C16.7538 57.2321 16.5485 57.1482 16.3851 56.9847C16.2217 56.8211 16.138 56.624 16.138 56.3934V43.8929C15.9201 44.1864 11.3579 50.3843 10.3734 51.6046C10.2268 51.7891 10.0425 52.0071 9.86652 52.1203C9.66125 52.2503 9.41827 52.2755 9.13758 52.1413C8.95744 52.0532 8.73959 51.7933 8.59716 51.6213C8.00227 50.9126 7.62104 50.3465 7.05548 49.6127C6.39357 48.7572 5.73166 47.8976 5.06974 47.0421C4.49999 46.2999 3.92605 45.5619 3.3563 44.8197C3.15103 44.5555 2.94994 44.2913 2.74466 44.0271V56.3934C2.74466 56.624 2.66507 56.8211 2.51006 56.9847C2.35087 57.1482 2.15397 57.2321 1.91099 57.2321C1.68057 57.2321 1.48786 57.1482 1.32029 56.9847C1.15691 56.8211 1.07312 56.624 1.07312 56.3934V41.314C1.07312 41.0708 1.15691 40.8695 1.32029 40.7143C1.48367 40.555 1.68057 40.4795 1.91099 40.4795C2.23775 40.4795 2.48911 40.6221 2.66088 40.9072L9.51881 49.9398L16.2469 40.9072C16.4186 40.6221 16.67 40.4795 16.9968 40.4795C17.223 40.4795 17.4199 40.555 17.5749 40.7143Z" fill="#5C068C"/>
<path d="M128.969 45.6289C129.241 45.7883 129.455 46.0021 129.614 46.2747C129.773 46.5473 129.853 46.845 129.853 47.1679C129.853 47.495 129.773 47.7969 129.61 48.0695C129.451 48.342 129.233 48.5601 128.961 48.7152C128.688 48.8704 128.395 48.9501 128.077 48.9501C127.754 48.9501 127.453 48.8704 127.18 48.7152C126.908 48.5601 126.694 48.3462 126.535 48.0737C126.376 47.8011 126.296 47.4992 126.296 47.1679C126.296 46.845 126.376 46.5473 126.535 46.2747C126.694 46.0021 126.908 45.7883 127.18 45.6289C127.453 45.4696 127.75 45.3899 128.081 45.3899C128.399 45.3899 128.697 45.4696 128.969 45.6289ZM128.776 48.384C128.994 48.2582 129.166 48.0862 129.292 47.8682C129.417 47.6543 129.48 47.4195 129.48 47.1637C129.48 46.9079 129.417 46.6731 129.287 46.4592C129.162 46.2411 128.99 46.0734 128.772 45.9434C128.558 45.8176 128.32 45.7505 128.068 45.7505C127.813 45.7505 127.578 45.8134 127.36 45.9434C127.143 46.0734 126.975 46.2411 126.845 46.4592C126.719 46.6731 126.652 46.9079 126.652 47.1637C126.652 47.4195 126.715 47.6543 126.841 47.8682C126.967 48.0862 127.138 48.254 127.352 48.384C127.566 48.5098 127.804 48.5769 128.064 48.5769C128.324 48.5769 128.563 48.5098 128.776 48.384ZM128.818 47.9227C128.843 47.9646 128.856 48.0066 128.856 48.0401C128.856 48.082 128.839 48.1156 128.81 48.145C128.781 48.1743 128.739 48.1869 128.688 48.1869C128.651 48.1869 128.617 48.1785 128.588 48.1659C128.558 48.1491 128.533 48.1324 128.521 48.1072L128.102 47.4027H128.06H127.775V48.0191C127.775 48.0695 127.758 48.1114 127.729 48.145C127.695 48.1785 127.654 48.1911 127.599 48.1911C127.545 48.1911 127.499 48.1743 127.469 48.145C127.436 48.1114 127.419 48.0695 127.419 48.0191V46.2328C127.419 46.1824 127.436 46.1405 127.473 46.107C127.511 46.0734 127.557 46.0608 127.616 46.0608H128.068C128.286 46.0608 128.466 46.1237 128.609 46.2495C128.751 46.3753 128.822 46.5347 128.822 46.7276C128.822 46.8534 128.789 46.9708 128.726 47.0714C128.663 47.1721 128.575 47.256 128.466 47.3147L128.818 47.9227ZM127.771 47.0798H128.085C128.194 47.0798 128.282 47.0463 128.345 46.9834C128.412 46.9163 128.441 46.8324 128.441 46.7234C128.441 46.6144 128.408 46.5305 128.345 46.4676C128.278 46.4047 128.194 46.3753 128.085 46.3753H127.771V47.0798Z" fill="#5C068C"/>
<defs>
<linearGradient id="paint0_linear" x1="63.3033" y1="38.3049" x2="63.3033" y2="10.6264" gradientUnits="userSpaceOnUse">
<stop stop-color="#B8D7C9"/>
<stop offset="0.0963" stop-color="#B8D4C8" stop-opacity="0.9274"/>
<stop offset="0.1596" stop-color="#B7CBC6" stop-opacity="0.8797"/>
<stop offset="0.2134" stop-color="#B5BDC1" stop-opacity="0.8392"/>
<stop offset="0.2619" stop-color="#B3A7BB" stop-opacity="0.8026"/>
<stop offset="0.3068" stop-color="#B18CB3" stop-opacity="0.7688"/>
<stop offset="0.3491" stop-color="#AD6AA9" stop-opacity="0.7369"/>
<stop offset="0.3885" stop-color="#A9439D" stop-opacity="0.7072"/>
<stop offset="0.4247" stop-color="#A51890" stop-opacity="0.68"/>
<stop offset="0.8999" stop-color="#5C068C"/>
</linearGradient>
<linearGradient id="paint1_linear" x1="63.3336" y1="38.3051" x2="63.3336" y2="10.6265" gradientUnits="userSpaceOnUse">
<stop stop-color="#B8D7C9"/>
<stop offset="0.0963" stop-color="#B8D4C8" stop-opacity="0.9274"/>
<stop offset="0.1596" stop-color="#B7CBC6" stop-opacity="0.8797"/>
<stop offset="0.2134" stop-color="#B5BDC1" stop-opacity="0.8392"/>
<stop offset="0.2619" stop-color="#B3A7BB" stop-opacity="0.8026"/>
<stop offset="0.3068" stop-color="#B18CB3" stop-opacity="0.7688"/>
<stop offset="0.3491" stop-color="#AD6AA9" stop-opacity="0.7369"/>
<stop offset="0.3885" stop-color="#A9439D" stop-opacity="0.7072"/>
<stop offset="0.4247" stop-color="#A51890" stop-opacity="0.68"/>
<stop offset="0.8999" stop-color="#5C068C"/>
</linearGradient>
<linearGradient id="paint2_linear" x1="70.2011" y1="38.305" x2="70.2011" y2="10.6265" gradientUnits="userSpaceOnUse">
<stop stop-color="#B8D7C9"/>
<stop offset="0.0963" stop-color="#B8D4C8" stop-opacity="0.9274"/>
<stop offset="0.1596" stop-color="#B7CBC6" stop-opacity="0.8797"/>
<stop offset="0.2134" stop-color="#B5BDC1" stop-opacity="0.8392"/>
<stop offset="0.2619" stop-color="#B3A7BB" stop-opacity="0.8026"/>
<stop offset="0.3068" stop-color="#B18CB3" stop-opacity="0.7688"/>
<stop offset="0.3491" stop-color="#AD6AA9" stop-opacity="0.7369"/>
<stop offset="0.3885" stop-color="#A9439D" stop-opacity="0.7072"/>
<stop offset="0.4247" stop-color="#A51890" stop-opacity="0.68"/>
<stop offset="0.8999" stop-color="#5C068C"/>
</linearGradient>
<linearGradient id="paint3_linear" x1="56.439" y1="38.305" x2="56.439" y2="10.6265" gradientUnits="userSpaceOnUse">
<stop stop-color="#B8D7C9"/>
<stop offset="0.0963" stop-color="#B8D4C8" stop-opacity="0.9274"/>
<stop offset="0.1596" stop-color="#B7CBC6" stop-opacity="0.8797"/>
<stop offset="0.2134" stop-color="#B5BDC1" stop-opacity="0.8392"/>
<stop offset="0.2619" stop-color="#B3A7BB" stop-opacity="0.8026"/>
<stop offset="0.3068" stop-color="#B18CB3" stop-opacity="0.7688"/>
<stop offset="0.3491" stop-color="#AD6AA9" stop-opacity="0.7369"/>
<stop offset="0.3885" stop-color="#A9439D" stop-opacity="0.7072"/>
<stop offset="0.4247" stop-color="#A51890" stop-opacity="0.68"/>
<stop offset="0.8999" stop-color="#5C068C"/>
</linearGradient>
<linearGradient id="paint4_linear" x1="69.5903" y1="29.4946" x2="69.5903" y2="7.93936" gradientUnits="userSpaceOnUse">
<stop offset="0.00127591" stop-color="#B8D7C9"/>
<stop offset="0.3856" stop-color="#A51890" stop-opacity="0.8"/>
<stop offset="0.8178" stop-color="#5C068C"/>
</linearGradient>
<linearGradient id="paint5_linear" x1="53.2772" y1="29.4947" x2="53.2772" y2="7.93943" gradientUnits="userSpaceOnUse">
<stop offset="0.00127591" stop-color="#B8D7C9"/>
<stop offset="0.3856" stop-color="#A51890" stop-opacity="0.8"/>
<stop offset="0.8178" stop-color="#5C068C"/>
</linearGradient>
<linearGradient id="paint6_linear" x1="57.0668" y1="29.4944" x2="57.0668" y2="7.93922" gradientUnits="userSpaceOnUse">
<stop offset="0.00127591" stop-color="#B8D7C9"/>
<stop offset="0.3856" stop-color="#A51890" stop-opacity="0.8"/>
<stop offset="0.8178" stop-color="#5C068C"/>
</linearGradient>
<linearGradient id="paint7_linear" x1="63.3335" y1="29.4946" x2="63.3335" y2="7.93937" gradientUnits="userSpaceOnUse">
<stop offset="0.00127591" stop-color="#B8D7C9"/>
<stop offset="0.3856" stop-color="#A51890" stop-opacity="0.8"/>
<stop offset="0.8178" stop-color="#5C068C"/>
</linearGradient>
<linearGradient id="paint8_linear" x1="73.392" y1="29.4946" x2="73.392" y2="7.93934" gradientUnits="userSpaceOnUse">
<stop offset="0.00127591" stop-color="#B8D7C9"/>
<stop offset="0.3856" stop-color="#A51890" stop-opacity="0.8"/>
<stop offset="0.8178" stop-color="#5C068C"/>
</linearGradient>
<linearGradient id="paint9_linear" x1="63.3316" y1="38.3051" x2="63.3316" y2="10.6267" gradientUnits="userSpaceOnUse">
<stop stop-color="#B8D7C9"/>
<stop offset="0.0963" stop-color="#B8D4C8" stop-opacity="0.9274"/>
<stop offset="0.1596" stop-color="#B7CBC6" stop-opacity="0.8797"/>
<stop offset="0.2134" stop-color="#B5BDC1" stop-opacity="0.8392"/>
<stop offset="0.2619" stop-color="#B3A7BB" stop-opacity="0.8026"/>
<stop offset="0.3068" stop-color="#B18CB3" stop-opacity="0.7688"/>
<stop offset="0.3491" stop-color="#AD6AA9" stop-opacity="0.7369"/>
<stop offset="0.3885" stop-color="#A9439D" stop-opacity="0.7072"/>
<stop offset="0.4247" stop-color="#A51890" stop-opacity="0.68"/>
<stop offset="0.8999" stop-color="#5C068C"/>
</linearGradient>
<linearGradient id="paint10_linear" x1="71.206" y1="38.305" x2="71.206" y2="10.6266" gradientUnits="userSpaceOnUse">
<stop stop-color="#B8D7C9"/>
<stop offset="0.0963" stop-color="#B8D4C8" stop-opacity="0.9274"/>
<stop offset="0.1596" stop-color="#B7CBC6" stop-opacity="0.8797"/>
<stop offset="0.2134" stop-color="#B5BDC1" stop-opacity="0.8392"/>
<stop offset="0.2619" stop-color="#B3A7BB" stop-opacity="0.8026"/>
<stop offset="0.3068" stop-color="#B18CB3" stop-opacity="0.7688"/>
<stop offset="0.3491" stop-color="#AD6AA9" stop-opacity="0.7369"/>
<stop offset="0.3885" stop-color="#A9439D" stop-opacity="0.7072"/>
<stop offset="0.4247" stop-color="#A51890" stop-opacity="0.68"/>
<stop offset="0.8999" stop-color="#5C068C"/>
</linearGradient>
<linearGradient id="paint11_linear" x1="71.206" y1="29.4945" x2="71.206" y2="7.93931" gradientUnits="userSpaceOnUse">
<stop offset="0.00127591" stop-color="#B8D7C9"/>
<stop offset="0.3856" stop-color="#A51890" stop-opacity="0.8"/>
<stop offset="0.8178" stop-color="#5C068C"/>
</linearGradient>
<linearGradient id="paint12_linear" x1="55.4608" y1="38.3051" x2="55.4608" y2="10.6266" gradientUnits="userSpaceOnUse">
<stop stop-color="#B8D7C9"/>
<stop offset="0.0963" stop-color="#B8D4C8" stop-opacity="0.9274"/>
<stop offset="0.1596" stop-color="#B7CBC6" stop-opacity="0.8797"/>
<stop offset="0.2134" stop-color="#B5BDC1" stop-opacity="0.8392"/>
<stop offset="0.2619" stop-color="#B3A7BB" stop-opacity="0.8026"/>
<stop offset="0.3068" stop-color="#B18CB3" stop-opacity="0.7688"/>
<stop offset="0.3491" stop-color="#AD6AA9" stop-opacity="0.7369"/>
<stop offset="0.3885" stop-color="#A9439D" stop-opacity="0.7072"/>
<stop offset="0.4247" stop-color="#A51890" stop-opacity="0.68"/>
<stop offset="0.8999" stop-color="#5C068C"/>
</linearGradient>
<linearGradient id="paint13_linear" x1="55.4608" y1="29.4946" x2="55.4608" y2="7.93933" gradientUnits="userSpaceOnUse">
<stop offset="0.00127591" stop-color="#B8D7C9"/>
<stop offset="0.3856" stop-color="#A51890" stop-opacity="0.8"/>
<stop offset="0.8178" stop-color="#5C068C"/>
</linearGradient>
<linearGradient id="paint14_linear" x1="63.2372" y1="21.2218" x2="63.2372" y2="1.0825" gradientUnits="userSpaceOnUse">
<stop stop-color="#B8D7C9"/>
<stop offset="0.0268" stop-color="#B7CCC6" stop-opacity="0.9566"/>
<stop offset="0.0742" stop-color="#B4AEBD" stop-opacity="0.8799"/>
<stop offset="0.1367" stop-color="#AF7DAE" stop-opacity="0.7788"/>
<stop offset="0.211" stop-color="#A83B9A" stop-opacity="0.6586"/>
<stop offset="0.2473" stop-color="#A51890" stop-opacity="0.6"/>
<stop offset="0.3026" stop-color="#92138F" stop-opacity="0.673"/>
<stop offset="0.4023" stop-color="#740C8D" stop-opacity="0.8045"/>
<stop offset="0.4884" stop-color="#62088C" stop-opacity="0.9181"/>
<stop offset="0.5505" stop-color="#5C068C"/>
</linearGradient>
<linearGradient id="paint15_linear" x1="54.7676" y1="21.2218" x2="54.7676" y2="1.08251" gradientUnits="userSpaceOnUse">
<stop stop-color="#B8D7C9"/>
<stop offset="0.0268" stop-color="#B7CCC6" stop-opacity="0.9566"/>
<stop offset="0.0742" stop-color="#B4AEBD" stop-opacity="0.8799"/>
<stop offset="0.1367" stop-color="#AF7DAE" stop-opacity="0.7788"/>
<stop offset="0.211" stop-color="#A83B9A" stop-opacity="0.6586"/>
<stop offset="0.2473" stop-color="#A51890" stop-opacity="0.6"/>
<stop offset="0.3026" stop-color="#92138F" stop-opacity="0.673"/>
<stop offset="0.4023" stop-color="#740C8D" stop-opacity="0.8045"/>
<stop offset="0.4884" stop-color="#62088C" stop-opacity="0.9181"/>
<stop offset="0.5505" stop-color="#5C068C"/>
</linearGradient>
<linearGradient id="paint16_linear" x1="63.3066" y1="21.2218" x2="63.3066" y2="1.08247" gradientUnits="userSpaceOnUse">
<stop stop-color="#B8D7C9"/>
<stop offset="0.0268" stop-color="#B7CCC6" stop-opacity="0.9566"/>
<stop offset="0.0742" stop-color="#B4AEBD" stop-opacity="0.8799"/>
<stop offset="0.1367" stop-color="#AF7DAE" stop-opacity="0.7788"/>
<stop offset="0.211" stop-color="#A83B9A" stop-opacity="0.6586"/>
<stop offset="0.2473" stop-color="#A51890" stop-opacity="0.6"/>
<stop offset="0.3026" stop-color="#92138F" stop-opacity="0.673"/>
<stop offset="0.4023" stop-color="#740C8D" stop-opacity="0.8045"/>
<stop offset="0.4884" stop-color="#62088C" stop-opacity="0.9181"/>
<stop offset="0.5505" stop-color="#5C068C"/>
</linearGradient>
<linearGradient id="paint17_linear" x1="71.8713" y1="21.2218" x2="71.8713" y2="1.08253" gradientUnits="userSpaceOnUse">
<stop stop-color="#B8D7C9"/>
<stop offset="0.0268" stop-color="#B7CCC6" stop-opacity="0.9566"/>
<stop offset="0.0742" stop-color="#B4AEBD" stop-opacity="0.8799"/>
<stop offset="0.1367" stop-color="#AF7DAE" stop-opacity="0.7788"/>
<stop offset="0.211" stop-color="#A83B9A" stop-opacity="0.6586"/>
<stop offset="0.2473" stop-color="#A51890" stop-opacity="0.6"/>
<stop offset="0.3026" stop-color="#92138F" stop-opacity="0.673"/>
<stop offset="0.4023" stop-color="#740C8D" stop-opacity="0.8045"/>
<stop offset="0.4884" stop-color="#62088C" stop-opacity="0.9181"/>
<stop offset="0.5505" stop-color="#5C068C"/>
</linearGradient>
<linearGradient id="paint18_linear" x1="69.2301" y1="38.3051" x2="69.2301" y2="10.6266" gradientUnits="userSpaceOnUse">
<stop stop-color="#B8D7C9"/>
<stop offset="0.0963" stop-color="#B8D4C8" stop-opacity="0.9274"/>
<stop offset="0.1596" stop-color="#B7CBC6" stop-opacity="0.8797"/>
<stop offset="0.2134" stop-color="#B5BDC1" stop-opacity="0.8392"/>
<stop offset="0.2619" stop-color="#B3A7BB" stop-opacity="0.8026"/>
<stop offset="0.3068" stop-color="#B18CB3" stop-opacity="0.7688"/>
<stop offset="0.3491" stop-color="#AD6AA9" stop-opacity="0.7369"/>
<stop offset="0.3885" stop-color="#A9439D" stop-opacity="0.7072"/>
<stop offset="0.4247" stop-color="#A51890" stop-opacity="0.68"/>
<stop offset="0.8999" stop-color="#5C068C"/>
</linearGradient>
<linearGradient id="paint19_linear" x1="69.2301" y1="21.2218" x2="69.2301" y2="1.0825" gradientUnits="userSpaceOnUse">
<stop stop-color="#B8D7C9"/>
<stop offset="0.0268" stop-color="#B7CCC6" stop-opacity="0.9566"/>
<stop offset="0.0742" stop-color="#B4AEBD" stop-opacity="0.8799"/>
<stop offset="0.1367" stop-color="#AF7DAE" stop-opacity="0.7788"/>
<stop offset="0.211" stop-color="#A83B9A" stop-opacity="0.6586"/>
<stop offset="0.2473" stop-color="#A51890" stop-opacity="0.6"/>
<stop offset="0.3026" stop-color="#92138F" stop-opacity="0.673"/>
<stop offset="0.4023" stop-color="#740C8D" stop-opacity="0.8045"/>
<stop offset="0.4884" stop-color="#62088C" stop-opacity="0.9181"/>
<stop offset="0.5505" stop-color="#5C068C"/>
</linearGradient>
<linearGradient id="paint20_linear" x1="57.3787" y1="38.3052" x2="57.3787" y2="10.6267" gradientUnits="userSpaceOnUse">
<stop stop-color="#B8D7C9"/>
<stop offset="0.0963" stop-color="#B8D4C8" stop-opacity="0.9274"/>
<stop offset="0.1596" stop-color="#B7CBC6" stop-opacity="0.8797"/>
<stop offset="0.2134" stop-color="#B5BDC1" stop-opacity="0.8392"/>
<stop offset="0.2619" stop-color="#B3A7BB" stop-opacity="0.8026"/>
<stop offset="0.3068" stop-color="#B18CB3" stop-opacity="0.7688"/>
<stop offset="0.3491" stop-color="#AD6AA9" stop-opacity="0.7369"/>
<stop offset="0.3885" stop-color="#A9439D" stop-opacity="0.7072"/>
<stop offset="0.4247" stop-color="#A51890" stop-opacity="0.68"/>
<stop offset="0.8999" stop-color="#5C068C"/>
</linearGradient>
<linearGradient id="paint21_linear" x1="57.3787" y1="21.2219" x2="57.3787" y2="1.0826" gradientUnits="userSpaceOnUse">
<stop stop-color="#B8D7C9"/>
<stop offset="0.0268" stop-color="#B7CCC6" stop-opacity="0.9566"/>
<stop offset="0.0742" stop-color="#B4AEBD" stop-opacity="0.8799"/>
<stop offset="0.1367" stop-color="#AF7DAE" stop-opacity="0.7788"/>
<stop offset="0.211" stop-color="#A83B9A" stop-opacity="0.6586"/>
<stop offset="0.2473" stop-color="#A51890" stop-opacity="0.6"/>
<stop offset="0.3026" stop-color="#92138F" stop-opacity="0.673"/>
<stop offset="0.4023" stop-color="#740C8D" stop-opacity="0.8045"/>
<stop offset="0.4884" stop-color="#62088C" stop-opacity="0.9181"/>
<stop offset="0.5505" stop-color="#5C068C"/>
</linearGradient>
<linearGradient id="paint22_linear" x1="63.3102" y1="29.4946" x2="63.3102" y2="7.93932" gradientUnits="userSpaceOnUse">
<stop offset="0.00127591" stop-color="#B8D7C9"/>
<stop offset="0.3856" stop-color="#A51890" stop-opacity="0.8"/>
<stop offset="0.8178" stop-color="#5C068C"/>
</linearGradient>
<linearGradient id="paint23_linear" x1="74.6307" y1="29.4946" x2="74.6307" y2="7.93939" gradientUnits="userSpaceOnUse">
<stop offset="0.00127591" stop-color="#B8D7C9"/>
<stop offset="0.3856" stop-color="#A51890" stop-opacity="0.8"/>
<stop offset="0.8178" stop-color="#5C068C"/>
</linearGradient>
<linearGradient id="paint24_linear" x1="74.6307" y1="21.2218" x2="74.6307" y2="1.08257" gradientUnits="userSpaceOnUse">
<stop stop-color="#B8D7C9"/>
<stop offset="0.0268" stop-color="#B7CCC6" stop-opacity="0.9566"/>
<stop offset="0.0742" stop-color="#B4AEBD" stop-opacity="0.8799"/>
<stop offset="0.1367" stop-color="#AF7DAE" stop-opacity="0.7788"/>
<stop offset="0.211" stop-color="#A83B9A" stop-opacity="0.6586"/>
<stop offset="0.2473" stop-color="#A51890" stop-opacity="0.6"/>
<stop offset="0.3026" stop-color="#92138F" stop-opacity="0.673"/>
<stop offset="0.4023" stop-color="#740C8D" stop-opacity="0.8045"/>
<stop offset="0.4884" stop-color="#62088C" stop-opacity="0.9181"/>
<stop offset="0.5505" stop-color="#5C068C"/>
</linearGradient>
<linearGradient id="paint25_linear" x1="52.0486" y1="29.4946" x2="52.0486" y2="7.93935" gradientUnits="userSpaceOnUse">
<stop offset="0.00127591" stop-color="#B8D7C9"/>
<stop offset="0.3856" stop-color="#A51890" stop-opacity="0.8"/>
<stop offset="0.8178" stop-color="#5C068C"/>
</linearGradient>
<linearGradient id="paint26_linear" x1="52.0486" y1="21.2218" x2="52.0486" y2="1.08253" gradientUnits="userSpaceOnUse">
<stop stop-color="#B8D7C9"/>
<stop offset="0.0268" stop-color="#B7CCC6" stop-opacity="0.9566"/>
<stop offset="0.0742" stop-color="#B4AEBD" stop-opacity="0.8799"/>
<stop offset="0.1367" stop-color="#AF7DAE" stop-opacity="0.7788"/>
<stop offset="0.211" stop-color="#A83B9A" stop-opacity="0.6586"/>
<stop offset="0.2473" stop-color="#A51890" stop-opacity="0.6"/>
<stop offset="0.3026" stop-color="#92138F" stop-opacity="0.673"/>
<stop offset="0.4023" stop-color="#740C8D" stop-opacity="0.8045"/>
<stop offset="0.4884" stop-color="#62088C" stop-opacity="0.9181"/>
<stop offset="0.5505" stop-color="#5C068C"/>
</linearGradient>
<linearGradient id="paint27_linear" x1="63.3299" y1="38.3051" x2="63.3299" y2="10.6266" gradientUnits="userSpaceOnUse">
<stop stop-color="#B8D7C9"/>
<stop offset="0.0963" stop-color="#B8D4C8" stop-opacity="0.9274"/>
<stop offset="0.1596" stop-color="#B7CBC6" stop-opacity="0.8797"/>
<stop offset="0.2134" stop-color="#B5BDC1" stop-opacity="0.8392"/>
<stop offset="0.2619" stop-color="#B3A7BB" stop-opacity="0.8026"/>
<stop offset="0.3068" stop-color="#B18CB3" stop-opacity="0.7688"/>
<stop offset="0.3491" stop-color="#AD6AA9" stop-opacity="0.7369"/>
<stop offset="0.3885" stop-color="#A9439D" stop-opacity="0.7072"/>
<stop offset="0.4247" stop-color="#A51890" stop-opacity="0.68"/>
<stop offset="0.8999" stop-color="#5C068C"/>
</linearGradient>
<linearGradient id="paint28_linear" x1="63.3299" y1="29.4946" x2="63.3299" y2="7.93933" gradientUnits="userSpaceOnUse">
<stop offset="0.00127591" stop-color="#B8D7C9"/>
<stop offset="0.3856" stop-color="#A51890" stop-opacity="0.8"/>
<stop offset="0.8178" stop-color="#5C068C"/>
</linearGradient>
</defs>
</svg>
