<svg width="53" height="53" viewBox="0 0 53 53" fill="none" xmlns="http://www.w3.org/2000/svg">
<path d="M26.4281 8.85059L11.6426 14.4621L11.6426 28.7749C12.2331 35.4767 19.6964 43.9963 26.4281 43.9963C33.7502 43.9963 40.8918 32.2204 41.2855 28.7749V14.4621L26.4281 8.85059Z" fill="#B8D7C9"/>
<path d="M26.5391 26.7021V31.9568" stroke="#5C068C" stroke-width="3.6667" stroke-linecap="round" stroke-linejoin="round"/>
<path d="M21.0391 25.8809H26.5383" stroke="#5C068C" stroke-width="3.6667" stroke-linecap="round" stroke-linejoin="round"/>
<path d="M26.5391 19.8047V26.2086" stroke="#5C068C" stroke-width="3.6667" stroke-linecap="round" stroke-linejoin="round"/>
<path d="M26.5391 25.8809H32.0383" stroke="#5C068C" stroke-width="3.6667" stroke-linecap="round" stroke-linejoin="round"/>
<path d="M28.5817 37.0024C28.5817 38.0829 27.6651 38.9589 26.534 38.9589C25.4032 38.9589 24.4863 38.0829 24.4863 37.0024C24.4863 35.9219 25.4032 35.0459 26.534 35.0459C27.6651 35.0459 28.5817 35.9219 28.5817 37.0024Z" fill="#5C068C"/>
<path d="M28.5817 14.7593C28.5817 15.8398 27.6651 16.7159 26.534 16.7159C25.4032 16.7159 24.4863 15.8398 24.4863 14.7593C24.4863 13.6787 25.4032 12.8027 26.534 12.8027C27.6651 12.8027 28.5817 13.6787 28.5817 14.7593Z" fill="#5C068C"/>
<path d="M39.3612 25.8803C39.3612 26.9608 38.4444 27.8369 37.3133 27.8369C36.1825 27.8369 35.2656 26.9608 35.2656 25.8803C35.2656 24.7996 36.1825 23.9238 37.3133 23.9238C38.4444 23.9238 39.3612 24.7996 39.3612 25.8803Z" fill="#5C068C"/>
<path d="M17.8062 25.8803C17.8062 26.9608 16.8896 27.8369 15.7586 27.8369C14.6277 27.8369 13.7109 26.9608 13.7109 25.8803C13.7109 24.7996 14.6277 23.9238 15.7586 23.9238C16.8896 23.9238 17.8062 24.7996 17.8062 25.8803Z" fill="#5C068C"/>
<path fill-rule="evenodd" clip-rule="evenodd" d="M4 8.46217L26.4093 0L48.9275 8.46217V30.0459C48.331 35.2419 37.5069 53 26.4093 53C16.2066 53 4.89496 40.1525 4 30.0459L4 8.46217ZM9.27083 12.7446L26.4221 6.23527L43.6566 12.7446V29.3474C43.2 33.3445 34.9157 47.0045 26.4221 47.0045C18.6133 47.0045 9.95579 37.1217 9.27083 29.3474L9.27083 12.7446Z" fill="#B8D7C9"/>
</svg>
