<svg width="53" height="53" viewBox="0 0 53 53" fill="none" xmlns="http://www.w3.org/2000/svg">
<path d="M13.2463 17.4126C13.2464 16.7446 14.3031 14.7622 15.5669 13.0179C15.9184 12.5327 16.4891 12.2627 17.0881 12.2627H36.7899C37.4477 12.2627 38.0621 12.5897 38.4111 13.1473C39.1845 14.3829 40.4735 16.5688 40.4735 17.4126V49.7565C40.4735 50.5966 39.9435 51.3498 39.1356 51.5795C30.8961 53.9229 19.7742 52.9675 14.5587 51.5668C13.759 51.3521 13.2463 50.6118 13.2463 49.784C13.2462 43.717 13.2459 19.5705 13.2463 17.4126Z" fill="#B8D7C9"/>
<path d="M39.6813 0H13.9679C12.881 0 12 0.881044 12 1.96787V11.1513C12 12.2381 12.881 13.1191 13.9679 13.1191H39.6813C40.7682 13.1191 41.6492 12.2381 41.6492 11.1513V1.96787C41.6492 0.881044 40.7682 0 39.6813 0Z" fill="#5C068C"/>
<path fill-rule="evenodd" clip-rule="evenodd" d="M22.3594 39.5697C25.9 42.0596 30.7887 41.2079 33.2784 37.6673C35.7684 34.1267 34.9166 29.238 31.376 26.748L22.3594 39.5697Z" fill="white"/>
<path fill-rule="evenodd" clip-rule="evenodd" d="M31.3775 26.7475C27.8369 24.2575 22.9482 25.1095 20.4584 28.6499C17.9685 32.1905 18.8204 37.0792 22.3608 39.5691C22.361 39.5691 22.361 39.5691 22.361 39.5691L31.3775 26.7475Z" fill="#E3EFE9"/>
</svg>
