<svg width="27" height="59" viewBox="0 0 27 59" fill="none" xmlns="http://www.w3.org/2000/svg">
<path fill-rule="evenodd" clip-rule="evenodd" d="M14.0873 1.74013e-06L16 1.9009L3.8255 14L16 26.0991L14.0873 28L5.99229e-06 14L14.0873 1.74013e-06Z" fill="#5C068C"/>
<path d="M0.996 44V35.456H4.536C5.44 35.456 6.14 35.672 6.636 36.104C7.14 36.536 7.392 37.132 7.392 37.892C7.392 38.636 7.14 39.228 6.636 39.668C6.132 40.108 5.432 40.328 4.536 40.328H2.232V44H0.996ZM2.232 39.344H4.416C5.008 39.344 5.452 39.22 5.748 38.972C6.044 38.716 6.192 38.356 6.192 37.892C6.192 37.428 6.044 37.072 5.748 36.824C5.452 36.576 5.008 36.452 4.416 36.452H2.232V39.344ZM8.65725 44V39.656C8.65725 39.376 8.64925 39.092 8.63325 38.804C8.62525 38.516 8.60125 38.232 8.56125 37.952H9.71325L9.85725 39.476L9.71325 39.416C9.81725 38.888 10.0533 38.488 10.4213 38.216C10.7973 37.944 11.2173 37.808 11.6813 37.808C11.7933 37.808 11.8973 37.816 11.9933 37.832C12.0893 37.848 12.1773 37.868 12.2573 37.892L12.2333 38.996C12.0173 38.916 11.7813 38.876 11.5253 38.876C11.1333 38.876 10.8173 38.96 10.5773 39.128C10.3373 39.288 10.1573 39.504 10.0373 39.776C9.92525 40.04 9.86925 40.324 9.86925 40.628V44H8.65725ZM13.169 44V37.952H14.381V44H13.169ZM13.085 35.312H14.489V36.584H13.085V35.312ZM18.7615 44.084C18.1615 44.084 17.6375 43.956 17.1895 43.7C16.7495 43.444 16.4095 43.084 16.1695 42.62C15.9295 42.148 15.8095 41.588 15.8095 40.94C15.8095 40.308 15.9295 39.756 16.1695 39.284C16.4095 38.812 16.7495 38.448 17.1895 38.192C17.6375 37.936 18.1615 37.808 18.7615 37.808C19.3535 37.808 19.8695 37.936 20.3095 38.192C20.7575 38.448 21.1015 38.812 21.3415 39.284C21.5895 39.756 21.7135 40.308 21.7135 40.94C21.7135 41.588 21.5895 42.148 21.3415 42.62C21.1015 43.084 20.7575 43.444 20.3095 43.7C19.8695 43.956 19.3535 44.084 18.7615 44.084ZM18.7615 43.124C19.3055 43.124 19.7255 42.94 20.0215 42.572C20.3255 42.204 20.4775 41.66 20.4775 40.94C20.4775 40.244 20.3255 39.712 20.0215 39.344C19.7255 38.968 19.3055 38.78 18.7615 38.78C18.2175 38.78 17.7895 38.968 17.4775 39.344C17.1735 39.712 17.0215 40.244 17.0215 40.94C17.0215 41.66 17.1695 42.204 17.4655 42.572C17.7695 42.94 18.2015 43.124 18.7615 43.124ZM23.1182 44V39.656C23.1182 39.376 23.1102 39.092 23.0942 38.804C23.0862 38.516 23.0622 38.232 23.0222 37.952H24.1742L24.3182 39.476L24.1742 39.416C24.2782 38.888 24.5142 38.488 24.8822 38.216C25.2582 37.944 25.6782 37.808 26.1422 37.808C26.2542 37.808 26.3582 37.816 26.4542 37.832C26.5502 37.848 26.6382 37.868 26.7182 37.892L26.6942 38.996C26.4782 38.916 26.2422 38.876 25.9862 38.876C25.5942 38.876 25.2782 38.96 25.0382 39.128C24.7982 39.288 24.6182 39.504 24.4982 39.776C24.3862 40.04 24.3302 40.324 24.3302 40.628V44H23.1182ZM3.036 58V50.488H0.144V49.456H7.176V50.488H4.284V58H3.036ZM9.60272 58.084C9.06672 58.084 8.59472 57.96 8.18672 57.712C7.78672 57.456 7.47472 57.096 7.25072 56.632C7.03472 56.16 6.92672 55.608 6.92672 54.976C6.92672 54.344 7.03872 53.792 7.26272 53.32C7.48672 52.84 7.79872 52.468 8.19872 52.204C8.60672 51.94 9.07472 51.808 9.60272 51.808C10.1387 51.808 10.5947 51.94 10.9707 52.204C11.3547 52.46 11.6147 52.828 11.7507 53.308L11.6067 53.404V51.952H12.8067V58H11.6067V56.524L11.7507 56.584C11.6147 57.064 11.3547 57.436 10.9707 57.7C10.5947 57.956 10.1387 58.084 9.60272 58.084ZM9.89072 57.124C10.4347 57.124 10.8547 56.936 11.1507 56.56C11.4547 56.184 11.6067 55.648 11.6067 54.952C11.6067 54.256 11.4547 53.72 11.1507 53.344C10.8547 52.968 10.4347 52.78 9.89072 52.78C9.33872 52.78 8.90672 52.976 8.59472 53.368C8.29072 53.752 8.13872 54.288 8.13872 54.976C8.13872 55.664 8.29072 56.196 8.59472 56.572C8.90672 56.94 9.33872 57.124 9.89072 57.124ZM14.5752 58V49.168H15.7872V53.452L15.6552 53.308C15.7912 52.836 16.0472 52.468 16.4232 52.204C16.8072 51.94 17.2632 51.808 17.7912 51.808C18.3272 51.808 18.7952 51.936 19.1952 52.192C19.5952 52.448 19.9072 52.808 20.1312 53.272C20.3632 53.736 20.4792 54.284 20.4792 54.916C20.4792 55.556 20.3632 56.116 20.1312 56.596C19.9072 57.068 19.5912 57.436 19.1832 57.7C18.7832 57.956 18.3192 58.084 17.7912 58.084C17.2632 58.084 16.8072 57.956 16.4232 57.7C16.0472 57.436 15.7912 57.064 15.6552 56.584L15.7872 56.416V58H14.5752ZM17.5152 57.124C18.0592 57.124 18.4832 56.932 18.7872 56.548C19.0912 56.164 19.2432 55.62 19.2432 54.916C19.2432 54.236 19.0912 53.712 18.7872 53.344C18.4832 52.968 18.0592 52.78 17.5152 52.78C16.9552 52.78 16.5272 52.972 16.2312 53.356C15.9352 53.732 15.7872 54.26 15.7872 54.94C15.7872 55.644 15.9352 56.184 16.2312 56.56C16.5272 56.936 16.9552 57.124 17.5152 57.124Z" fill="#5C068C"/>
</svg>
