<svg width="26" height="59" viewBox="0 0 26 59" fill="none" xmlns="http://www.w3.org/2000/svg">
<path fill-rule="evenodd" clip-rule="evenodd" d="M11.9127 28L10 26.0991L22.1745 14L10 1.9009L11.9127 3.34436e-07L26 14L11.9127 28Z" fill="#5C068C"/>
<path d="M7.66025 35.456V44H6.71225L1.81625 37.544V44H0.65225V35.456H1.58825L6.49625 41.924V35.456H7.66025ZM14.7043 41H10.3843C10.4243 42.416 11.0683 43.124 12.3163 43.124C13.0123 43.124 13.6483 42.896 14.2243 42.44L14.5963 43.304C14.3243 43.544 13.9763 43.736 13.5523 43.88C13.1363 44.016 12.7163 44.084 12.2923 44.084C11.3243 44.084 10.5643 43.808 10.0123 43.256C9.46025 42.696 9.18425 41.932 9.18425 40.964C9.18425 40.348 9.30425 39.8 9.54425 39.32C9.79225 38.84 10.1363 38.468 10.5763 38.204C11.0163 37.94 11.5163 37.808 12.0763 37.808C12.8923 37.808 13.5323 38.072 13.9963 38.6C14.4683 39.128 14.7043 39.86 14.7043 40.796V41ZM12.1003 38.708C11.6443 38.708 11.2723 38.844 10.9843 39.116C10.6963 39.388 10.5123 39.776 10.4323 40.28H13.6363C13.5883 39.768 13.4323 39.38 13.1683 39.116C12.9043 38.844 12.5483 38.708 12.1003 38.708ZM21.6164 44H20.1764L18.3884 41.768L16.6244 44H15.1724L17.6924 40.892L15.3164 37.952H16.7684L18.3884 40.016L20.0204 37.952H21.4844L19.1084 40.892L21.6164 44ZM24.1006 38.888V41.924C24.1006 42.34 24.1886 42.636 24.3646 42.812C24.5486 42.98 24.8006 43.064 25.1206 43.064C25.3286 43.064 25.5406 43.032 25.7566 42.968V43.952C25.4926 44.04 25.1926 44.084 24.8566 44.084C24.2326 44.084 23.7486 43.908 23.4046 43.556C23.0606 43.204 22.8886 42.692 22.8886 42.02V38.888H21.7126V37.952H22.8886V36.44L24.1006 36.02V37.952H25.7686V38.888H24.1006ZM8.02428 50.488H5.13228V49.456H12.1643V50.488H9.27228V58H8.02428V50.488ZM17.795 51.952V58H16.595V56.968C16.419 57.328 16.155 57.604 15.803 57.796C15.459 57.988 15.055 58.084 14.591 58.084C14.055 58.084 13.583 57.956 13.175 57.7C12.775 57.444 12.463 57.084 12.239 56.62C12.015 56.148 11.903 55.6 11.903 54.976C11.903 54.352 12.015 53.8 12.239 53.32C12.471 52.84 12.791 52.468 13.199 52.204C13.607 51.94 14.071 51.808 14.591 51.808C15.055 51.808 15.459 51.908 15.803 52.108C16.147 52.3 16.411 52.576 16.595 52.936V51.952H17.795ZM14.879 57.124C15.423 57.124 15.843 56.936 16.139 56.56C16.443 56.176 16.595 55.64 16.595 54.952C16.595 54.256 16.443 53.72 16.139 53.344C15.843 52.968 15.419 52.78 14.867 52.78C14.323 52.78 13.895 52.976 13.583 53.368C13.279 53.752 13.127 54.288 13.127 54.976C13.127 55.656 13.279 56.184 13.583 56.56C13.895 56.936 14.327 57.124 14.879 57.124ZM22.7795 51.808C23.3075 51.808 23.7755 51.936 24.1835 52.192C24.5915 52.448 24.9075 52.812 25.1315 53.284C25.3555 53.756 25.4675 54.304 25.4675 54.928C25.4675 55.552 25.3515 56.104 25.1195 56.584C24.8955 57.056 24.5795 57.424 24.1715 57.688C23.7635 57.952 23.2995 58.084 22.7795 58.084C22.3155 58.084 21.9075 57.988 21.5555 57.796C21.2115 57.596 20.9515 57.312 20.7755 56.944V58H19.5755V49.168H20.7755V52.948C20.9515 52.588 21.2115 52.308 21.5555 52.108C21.9075 51.908 22.3155 51.808 22.7795 51.808ZM22.5035 57.124C23.0475 57.124 23.4715 56.932 23.7755 56.548C24.0795 56.156 24.2315 55.616 24.2315 54.928C24.2315 54.248 24.0795 53.72 23.7755 53.344C23.4715 52.968 23.0475 52.78 22.5035 52.78C21.9515 52.78 21.5235 52.968 21.2195 53.344C20.9235 53.72 20.7755 54.256 20.7755 54.952C20.7755 55.648 20.9235 56.184 21.2195 56.56C21.5235 56.936 21.9515 57.124 22.5035 57.124Z" fill="#5C068C"/>
</svg>
