<svg width="26" height="59" viewBox="0 0 26 59" fill="none" xmlns="http://www.w3.org/2000/svg">
<path fill-rule="evenodd" clip-rule="evenodd" d="M11.9127 28L10 26.0991L22.1745 14L10 1.9009L11.9127 3.34436e-07L26 14L11.9127 28Z" fill="#E5E5E5"/>
<path d="M0.65225 44V35.456H1.58825L6.79625 42.32L6.49625 42.44V35.456H7.66025V44H6.71225L1.52825 37.148L1.81625 37.016V44H0.65225ZM14.5963 43.304C14.3243 43.544 13.9803 43.736 13.5643 43.88C13.1483 44.016 12.7243 44.084 12.2923 44.084C11.6523 44.084 11.1003 43.96 10.6363 43.712C10.1723 43.464 9.81625 43.104 9.56825 42.632C9.32025 42.16 9.19625 41.6 9.19625 40.952C9.19625 40.328 9.31625 39.78 9.55625 39.308C9.80425 38.836 10.1443 38.468 10.5763 38.204C11.0083 37.94 11.5083 37.808 12.0763 37.808C12.6203 37.808 13.0883 37.928 13.4803 38.168C13.8723 38.408 14.1723 38.752 14.3803 39.2C14.5963 39.64 14.7043 40.172 14.7043 40.796V41H10.2523L10.2643 40.28H13.9963L13.6483 40.712C13.6563 40.064 13.5283 39.568 13.2643 39.224C13.0003 38.88 12.6123 38.708 12.1003 38.708C11.5643 38.708 11.1443 38.9 10.8403 39.284C10.5363 39.66 10.3843 40.188 10.3843 40.868C10.3843 41.628 10.5483 42.196 10.8763 42.572C11.2043 42.94 11.6843 43.124 12.3163 43.124C12.6603 43.124 12.9923 43.068 13.3123 42.956C13.6323 42.844 13.9363 42.672 14.2243 42.44L14.5963 43.304ZM20.1764 44L18.3884 41.768L17.6924 40.88L15.3164 37.952H16.7684L18.3884 40.016L19.1084 40.88L21.6164 44H20.1764ZM16.6244 44H15.1724L17.6924 40.88L18.3884 40.016L20.0204 37.952H21.4844L19.1084 40.88L18.3884 41.768L16.6244 44ZM21.7126 38.888V37.952H25.7686V38.888H21.7126ZM25.7566 42.968V43.952C25.6126 44 25.4686 44.032 25.3246 44.048C25.1806 44.072 25.0246 44.084 24.8566 44.084C24.2406 44.084 23.7566 43.912 23.4046 43.568C23.0606 43.216 22.8886 42.7 22.8886 42.02V36.44L24.1006 36.02V41.924C24.1006 42.22 24.1446 42.452 24.2326 42.62C24.3206 42.78 24.4406 42.896 24.5926 42.968C24.7526 43.032 24.9286 43.064 25.1206 43.064C25.2326 43.064 25.3366 43.056 25.4326 43.04C25.5286 43.024 25.6366 43 25.7566 42.968ZM8.02428 58V50.488H5.13228V49.456H12.1643V50.488H9.27228V58H8.02428ZM14.591 58.084C14.055 58.084 13.583 57.96 13.175 57.712C12.775 57.456 12.463 57.096 12.239 56.632C12.023 56.16 11.915 55.608 11.915 54.976C11.915 54.344 12.027 53.792 12.251 53.32C12.475 52.84 12.787 52.468 13.187 52.204C13.595 51.94 14.063 51.808 14.591 51.808C15.127 51.808 15.583 51.94 15.959 52.204C16.343 52.46 16.603 52.828 16.739 53.308L16.595 53.404V51.952H17.795V58H16.595V56.524L16.739 56.584C16.603 57.064 16.343 57.436 15.959 57.7C15.583 57.956 15.127 58.084 14.591 58.084ZM14.879 57.124C15.423 57.124 15.843 56.936 16.139 56.56C16.443 56.184 16.595 55.648 16.595 54.952C16.595 54.256 16.443 53.72 16.139 53.344C15.843 52.968 15.423 52.78 14.879 52.78C14.327 52.78 13.895 52.976 13.583 53.368C13.279 53.752 13.127 54.288 13.127 54.976C13.127 55.664 13.279 56.196 13.583 56.572C13.895 56.94 14.327 57.124 14.879 57.124ZM19.5635 58V49.168H20.7755V53.452L20.6435 53.308C20.7795 52.836 21.0355 52.468 21.4115 52.204C21.7955 51.94 22.2515 51.808 22.7795 51.808C23.3155 51.808 23.7835 51.936 24.1835 52.192C24.5835 52.448 24.8955 52.808 25.1195 53.272C25.3515 53.736 25.4675 54.284 25.4675 54.916C25.4675 55.556 25.3515 56.116 25.1195 56.596C24.8955 57.068 24.5795 57.436 24.1715 57.7C23.7715 57.956 23.3075 58.084 22.7795 58.084C22.2515 58.084 21.7955 57.956 21.4115 57.7C21.0355 57.436 20.7795 57.064 20.6435 56.584L20.7755 56.416V58H19.5635ZM22.5035 57.124C23.0475 57.124 23.4715 56.932 23.7755 56.548C24.0795 56.164 24.2315 55.62 24.2315 54.916C24.2315 54.236 24.0795 53.712 23.7755 53.344C23.4715 52.968 23.0475 52.78 22.5035 52.78C21.9435 52.78 21.5155 52.972 21.2195 53.356C20.9235 53.732 20.7755 54.26 20.7755 54.94C20.7755 55.644 20.9235 56.184 21.2195 56.56C21.5155 56.936 21.9435 57.124 22.5035 57.124Z" fill="#E5E5E5"/>
</svg>
