<svg width="364" height="399" viewBox="0 0 364 399" fill="none" xmlns="http://www.w3.org/2000/svg">
<g clip-path="url(#clip0)">
<mask id="mask0" mask-type="alpha" maskUnits="userSpaceOnUse" x="76" y="0" width="227" height="742">
<g opacity="0.5" clip-path="url(#clip1)">
<path d="M162.306 333.279C162.306 333.279 175.964 335.982 169.294 343.296C169.294 343.296 165.641 345.045 160.559 343.932C154.048 342.501 151.03 336.618 155.001 334.392C158.812 332.483 162.306 333.279 162.306 333.279Z" fill="white" stroke="#231F20" stroke-width="1.07902" stroke-miterlimit="10"/>
<path d="M221.385 334.391C221.385 334.391 235.202 332.96 230.914 341.865C230.914 341.865 227.896 344.568 222.814 345.045C216.144 345.681 211.539 340.752 214.715 337.571C217.732 334.55 221.385 334.391 221.385 334.391Z" fill="white" stroke="#231F20" stroke-width="1.07902" stroke-miterlimit="10"/>
<path d="M243.303 245.348C234.886 259.182 236.95 277.308 242.35 291.937C245.367 300.046 249.497 307.679 252.991 315.47C256.326 322.784 260.614 329.463 263.949 336.618C270.46 350.928 273.795 366.829 275.066 382.412C276.336 397.199 275.701 411.987 272.366 426.457C266.331 453.011 257.278 478.611 252.514 505.483C250.449 517.409 248.703 529.97 250.767 542.055C252.038 549.369 254.896 556.524 256.484 563.68C258.549 572.743 259.978 582.283 259.502 591.665C258.867 601.682 256.484 611.382 253.785 620.922C251.244 630.303 248.544 639.844 246.003 649.225C240.921 668.147 236.474 687.387 235.521 706.945C235.203 711.715 235.203 716.485 235.362 721.255C235.521 724.912 242.032 727.934 242.032 723.004C241.556 703.447 244.891 684.207 249.497 665.285C254.102 646.363 260.455 627.759 264.266 608.52C266.172 599.138 266.649 589.757 265.696 580.375C264.743 571.153 262.519 561.93 259.978 553.026C258.231 547.461 256.961 542.214 256.643 536.33C256.326 530.288 256.802 524.405 257.596 518.522C261.09 491.013 269.984 464.618 276.813 438.064C280.148 424.867 282.212 411.669 282.054 397.995C282.054 381.935 279.671 365.716 274.907 350.451C272.683 343.137 269.825 335.982 266.172 329.304C264.266 325.646 262.043 322.307 260.296 318.65C258.39 314.834 256.643 310.859 254.896 307.043C251.402 299.569 247.591 292.414 245.685 284.305C243.779 276.672 243.144 268.404 244.732 260.772C245.526 257.114 246.956 253.775 248.861 250.595C251.085 247.256 245.367 241.85 243.303 245.348Z" fill="#231F20"/>
<path d="M189.94 401.174C189.463 419.937 183.905 438.064 180.411 456.349C178.346 467.162 178.823 477.974 179.776 488.787C180.57 499.44 181.681 510.094 183.905 520.429C186.287 532.355 189.304 544.28 190.734 556.365C191.051 559.386 195.816 559.386 195.498 556.365C194.228 545.552 191.846 534.899 189.463 524.086C187.24 513.91 185.811 503.733 184.858 493.239C183.905 482.268 182.634 470.501 184.54 459.53C185.969 450.784 188.51 442.198 190.099 433.452C192.004 422.481 194.387 411.827 194.704 400.697C194.863 398.153 190.099 398.153 189.94 401.174Z" fill="#231F20"/>
<path d="M150.234 170.136C148.011 171.249 145.629 172.044 143.088 172.203C141.182 172.203 139.435 171.885 138.165 171.249C135.147 169.818 131.971 166.32 129.906 162.981C124.507 154.395 123.871 143.741 125.777 134.042C127.048 127.364 129.747 121.162 134.194 115.915C135.147 114.802 131.653 113.053 131.336 112.735C124.824 109.873 120.536 103.194 119.742 96.1982C118.789 88.0888 122.283 79.9795 128.636 75.0503C131.812 72.5062 134.512 70.1211 134.829 65.8279C135.147 61.6937 133.559 57.5595 132.606 53.5844C130.859 45.634 132.924 37.3657 138.165 31.1644C143.564 24.8041 153.411 21.147 161.669 23.3731C162.463 23.5321 165.004 24.3271 165.004 22.737C165.004 16.6948 169.133 11.4476 174.215 8.58543C179.774 5.40529 186.603 4.29225 193.114 4.45125C193.908 4.45125 194.861 4.61026 195.655 4.61026C195.338 4.61026 195.179 4.61026 194.861 4.45125C195.338 4.61026 195.179 4.61026 194.702 4.45125C195.179 4.61026 195.02 4.61026 194.702 4.45125C194.861 4.61026 195.179 4.76927 195.338 4.76927C195.973 5.08728 195.814 5.08728 196.291 5.40529C198.037 6.67735 199.784 8.26742 201.373 9.69848C204.549 12.7196 207.566 15.8997 210.901 18.6029C212.172 19.5569 214.395 20.829 216.142 20.3519C217.73 19.8749 216.619 18.4439 215.825 17.8078C215.348 17.4898 214.713 16.8538 214.713 16.8538C213.919 16.2178 213.284 15.5817 212.648 14.7867C211.06 13.3556 209.631 11.7656 208.043 10.3345C204.866 7.31338 201.531 4.29225 197.72 2.22516C192.955 -0.477958 187.238 -0.318951 181.997 0.317077C176.28 0.953104 170.245 2.54317 165.639 5.88231C160.875 9.22146 157.54 14.3097 157.699 20.3519C158.81 20.1929 159.922 19.8749 161.034 19.7159C152.299 17.3308 142.611 18.2848 135.147 23.8501C128.318 29.0973 124.348 37.5247 124.507 46.111C124.665 50.8812 126.571 55.1744 127.206 59.7856C127.524 61.8527 127.524 63.9198 126.73 65.9869C125.777 68.372 123.871 69.644 121.807 71.2341C114.978 76.6403 111.007 85.2267 112.119 93.9721C113.39 103.831 120.695 111.94 129.747 115.756C128.794 114.643 127.842 113.689 126.889 112.576C118.472 122.434 115.772 137.381 118.154 150.101C120.219 160.437 127.524 170.136 137.37 174.43C143.723 177.133 150.393 177.292 156.746 174.112C158.175 173.475 155.634 171.408 154.999 171.09C153.887 170.454 151.664 169.341 150.234 170.136Z" fill="#231F20"/>
<path d="M113.391 142.311C92.7453 143.901 78.7696 167.275 80.993 186.515C83.8517 212.115 86.3927 237.715 86.2339 263.475C86.2339 276.513 85.4398 289.552 84.1693 302.59C82.8988 314.198 80.8342 325.646 79.4049 337.254C77.0227 357.289 75.7522 377.641 77.6579 397.676C79.0873 414.213 82.4224 432.976 93.857 445.855C94.9687 447.127 96.2392 448.399 97.5097 449.512C99.0979 450.785 101.321 450.784 103.068 449.83C104.339 449.035 105.609 447.127 104.021 445.855C91.9512 435.679 88.1397 418.188 86.2339 403.4C83.6929 384.161 84.3281 364.444 86.3927 345.204C87.5044 335.028 89.0926 325.01 90.5219 314.993C92.2688 301.954 93.3805 288.916 93.857 275.877C94.8099 251.072 93.2217 226.267 90.6807 201.621C90.0454 195.579 88.9337 189.377 88.7749 183.335C88.6161 178.406 89.569 173.636 91.1571 169.025C94.1746 160.915 100.21 152.488 108.468 149.149C110.374 148.354 112.121 148.036 114.185 147.877C115.773 147.718 117.997 146.605 117.838 144.696C117.52 142.629 114.979 142.152 113.391 142.311Z" fill="#231F20"/>
<path d="M244.737 131.658C254.107 131.817 262.207 137.859 267.765 145.173C270.783 149.148 273.006 153.601 274.277 158.371C275.706 163.618 275.229 168.706 275.071 174.113C273.8 199.077 273.324 224.041 275.547 248.846C276.659 261.566 278.406 274.287 280.947 287.007C283.17 297.979 286.029 308.95 288.411 319.922C292.381 339.003 294.922 358.56 294.446 378.118C294.287 387.023 293.493 396.086 291.111 404.831C289.205 412.146 286.188 419.619 281.264 425.343C280.153 426.615 278.882 427.887 277.612 429C276.182 430.272 277.77 431.863 279.041 432.34C280.788 432.976 283.011 432.817 284.441 431.545C297.305 420.414 300.799 401.969 302.069 385.751C303.498 365.716 301.116 345.363 297.463 325.646C295.399 315.152 292.699 304.816 290.476 294.322C287.617 281.124 285.552 267.768 284.123 254.252C281.582 228.811 281.741 203.37 283.011 177.77C283.329 172.045 283.964 166.162 283.011 160.438C282.058 155.35 280.153 150.421 277.294 146.127C271.577 137.223 263.16 130.386 252.837 127.683C250.296 127.047 247.755 126.729 245.214 126.729C243.784 126.729 241.243 127.206 241.243 128.955C240.767 131.022 243.467 131.658 244.737 131.658Z" fill="#231F20"/>
<path d="M153.575 740.336C154.21 736.202 155.004 731.908 155.639 727.774C155.957 725.866 156.274 723.958 156.116 722.05C155.957 718.075 154.051 714.259 152.78 710.442C149.763 700.743 147.54 690.885 144.522 681.185C141.346 670.85 137.852 660.673 134.834 650.179C131.817 639.843 129.276 629.349 128.482 618.537C127.688 608.996 128.323 599.615 129.752 590.233C131.182 581.488 132.929 572.902 134.358 564.156C135.629 556.842 137.217 549.21 137.217 541.895C137.217 538.874 136.581 535.853 135.946 532.832C134.993 528.062 133.882 523.45 132.77 518.839C129.752 506.596 126.258 494.511 122.765 482.427C119.271 470.342 115.618 458.417 111.648 446.491C110.218 442.357 108.948 438.223 107.36 434.248C105.93 430.432 104.183 426.933 102.595 423.276C94.9721 404.513 95.1309 382.888 101.96 363.808C105.613 353.631 111.648 344.568 116.412 335.027C120.541 326.918 124.035 318.491 126.258 309.586C127.529 304.816 128.323 300.046 129.117 295.276C129.435 293.05 124.194 287.484 123.717 290.824C122.288 300.205 120.065 309.427 116.412 318.173C112.442 327.713 107.36 336.618 102.436 345.84C92.9075 363.808 89.4136 384.479 92.9075 404.513C93.8604 409.602 95.1309 414.531 97.0367 419.301C97.8308 421.527 98.7837 423.753 99.7365 425.82C99.8954 426.138 101.325 429.318 100.531 427.569C100.689 427.728 100.689 428.046 100.848 428.205C102.119 431.227 103.23 434.248 104.183 437.269C107.836 447.763 111.012 458.258 114.189 468.911C118 481.473 121.653 494.193 124.988 507.073C127.37 516.136 129.911 525.359 131.341 534.74C131.341 534.899 131.499 536.012 131.341 535.217C131.341 535.535 131.341 535.853 131.499 536.171C131.499 536.648 131.499 537.125 131.499 537.602C131.499 540.941 131.023 544.28 130.546 547.619C129.276 556.524 127.688 565.428 126.1 574.174C124.67 582.283 122.923 590.551 122.447 598.82C121.812 609.314 122.923 619.809 124.988 630.144C129.276 651.61 137.693 671.804 143.252 692.952C145.157 700.266 147.063 707.58 149.604 714.736C149.763 715.054 149.922 715.531 149.922 715.849C149.604 715.054 149.922 716.008 150.081 716.326C150.081 716.644 150.239 716.962 150.239 717.121C150.239 717.28 150.239 717.757 150.239 717.121C150.239 717.28 150.239 717.598 150.239 717.757C150.239 719.665 149.922 721.732 149.604 723.64C148.969 727.774 148.175 731.908 147.54 736.043C147.857 737.951 153.098 743.516 153.575 740.336Z" fill="#231F20"/>
<path d="M217.258 94.4502C217.258 94.4502 218.052 107.171 199.312 118.46C191.53 123.23 185.654 124.98 180.572 124.502C172.155 123.707 165.485 114.326 161.355 104.945C161.355 104.945 169.455 120.686 181.048 121.163C190.736 121.64 205.665 116.234 217.258 94.4502Z" fill="#231F20"/>
<path d="M242.345 121.321C249.968 118.141 256.162 111.622 258.068 103.512C259.974 95.2439 257.115 86.3395 251.08 80.6153C249.492 79.1842 247.745 78.0712 246.157 76.4811C244.251 74.732 243.457 72.5059 243.298 69.9618C243.139 65.1916 245.363 60.7394 245.998 56.1282C247.11 47.7009 244.092 38.7965 237.74 33.0722C230.434 26.3939 219.953 24.8039 210.741 27.348C210.106 27.348 208.359 27.984 208.518 28.62C208.677 29.4151 210.583 28.9381 211.059 28.7791C218.841 26.712 227.576 29.2561 233.452 34.6623C239.487 40.0685 242.504 48.6549 241.551 56.7642C240.598 64.3966 235.516 72.9829 242.822 79.0252C245.998 81.7283 249.016 84.1134 251.08 87.7706C252.986 91.2687 254.098 95.2439 254.098 99.2191C254.256 107.805 248.857 116.71 240.757 120.208C240.281 120.367 239.01 120.844 239.487 121.639C239.804 122.275 242.028 121.639 242.345 121.321Z" fill="#231F20"/>
<path d="M225.351 323.737L224.557 323.896C221.858 324.691 218.999 325.327 216.934 325.486H216.458C212.646 325.645 208.994 324.214 205.976 321.67C201.053 317.377 196.288 317.377 192.318 317.377C189.459 317.377 183.742 317.377 178.025 322.147C175.325 324.373 171.99 325.486 168.337 325.486C168.337 325.486 168.337 325.486 168.178 325.486C165.955 325.327 163.255 324.691 160.555 323.896L159.761 323.737C153.567 322.147 146.58 320.239 142.45 325.009C140.386 327.394 139.909 330.256 141.021 332.96C142.927 337.412 150.391 342.659 158.014 342.977C158.173 342.977 158.332 342.977 158.491 342.977C158.808 342.977 159.126 342.659 159.126 342.341C159.126 342.023 158.967 341.705 158.808 341.546C158.808 341.546 157.379 340.751 156.108 339.638C156.744 339.479 157.697 339.479 158.65 339.32C158.967 339.32 159.285 339.002 159.444 338.684C159.444 338.366 159.285 337.889 158.967 337.889C158.967 337.889 157.697 337.253 156.426 336.617C157.061 336.299 158.014 336.14 158.967 335.822C159.285 335.663 159.602 335.345 159.602 335.027C159.602 334.709 159.285 334.391 158.808 334.232C152.456 333.914 148.485 332.642 147.533 330.734C147.215 329.938 147.215 329.461 147.691 328.825C149.438 326.917 154.52 328.189 159.126 329.461C162.143 330.256 165.161 331.052 168.02 331.211C168.02 331.211 168.02 331.211 168.178 331.211C168.814 331.211 169.449 331.211 170.084 331.211C172.308 331.211 174.213 332.642 174.531 334.709C174.531 334.868 174.531 335.027 174.69 335.345C174.849 335.981 174.849 336.617 174.849 337.253C175.007 342.5 176.437 346.793 179.137 350.291C179.931 351.245 180.566 351.881 181.201 352.358C182.63 353.79 183.425 354.426 183.107 356.97V357.606C182.789 360.786 182.789 364.284 184.536 367.146L185.489 368.736C186.918 370.962 187.554 372.393 187.554 374.937C187.554 374.937 187.554 374.937 187.554 375.096C187.554 375.255 187.554 375.255 187.554 375.573C187.554 377.481 187.395 383.047 188.189 391.951C188.189 392.428 188.665 392.746 189.142 392.746C189.618 392.746 189.936 392.269 189.936 391.951C189.142 383.047 189.301 377.482 189.301 375.732C189.301 375.573 189.301 375.255 189.301 375.096C189.301 372.075 188.507 370.485 187.077 368.1L186.124 366.51C184.536 363.966 184.695 360.786 184.854 357.924V357.288C185.171 353.948 183.901 352.835 182.472 351.404C181.836 350.927 181.201 350.291 180.566 349.496C178.025 346.316 176.596 342.341 176.596 337.412C176.596 336.617 176.437 335.822 176.278 335.186C176.278 335.027 176.278 334.709 176.119 334.55C175.643 331.847 173.26 329.779 170.084 329.62C169.608 329.62 168.972 329.62 168.496 329.62C168.496 329.62 168.496 329.62 168.337 329.62C165.637 329.461 162.62 328.666 159.602 327.871C154.362 326.44 148.962 325.009 146.58 327.871C145.627 328.984 145.468 330.256 146.262 331.529C147.374 333.596 150.232 334.868 155.314 335.504C154.679 335.981 154.679 336.299 154.52 336.458C154.52 336.617 154.52 337.253 155.156 337.571C155.473 337.73 155.791 337.889 156.108 338.048C154.679 338.366 154.52 338.843 154.52 339.002C154.362 339.32 154.52 339.797 154.838 340.115C155.156 340.433 155.473 340.751 155.791 341.069C149.915 339.956 144.515 335.981 142.927 332.483C141.974 330.416 142.45 328.189 144.039 326.281C147.374 322.306 153.885 324.055 159.602 325.486L160.396 325.645C163.096 326.44 165.955 327.076 168.337 327.235C172.308 327.394 176.278 326.122 179.295 323.578C184.536 319.285 189.936 319.285 192.477 319.285C196.288 319.285 200.576 319.285 205.023 323.101C208.358 325.963 212.488 327.394 216.617 327.235H217.093C219.475 327.076 222.334 326.44 225.193 325.645L225.987 325.486C231.704 323.896 238.215 322.306 241.55 326.281C243.139 328.189 243.615 330.416 242.662 332.483C241.233 335.981 235.674 339.956 229.798 341.069C230.116 340.751 230.434 340.433 230.751 340.115C231.069 339.797 231.228 339.32 231.069 339.002C230.91 338.843 230.751 338.366 229.481 338.048C229.798 337.889 230.116 337.73 230.434 337.571C231.069 337.253 231.069 336.617 231.069 336.458C231.069 336.299 230.91 335.981 230.275 335.504C235.357 334.868 238.374 333.596 239.327 331.529C239.962 330.256 239.804 328.984 239.009 327.871C236.627 325.168 231.228 326.599 225.987 327.871C222.969 328.666 219.952 329.461 217.252 329.62C216.299 329.62 215.346 329.62 214.393 329.62C214.234 329.62 214.234 329.62 214.076 329.62C212.805 329.62 211.535 330.097 210.582 331.052C209.629 332.006 209.152 333.278 209.152 334.55C209.152 335.186 209.152 335.822 208.994 336.617C208.517 342.5 207.405 346.157 204.706 349.337C204.07 350.132 203.435 350.768 202.8 351.245C201.212 352.676 200.1 353.79 200.418 357.129L200.576 358.242C200.735 360.945 200.894 363.966 199.624 366.351L198.671 368.1C197.559 370.326 196.765 371.757 196.765 374.46C196.765 374.46 197.241 381.616 196.13 391.633C196.13 392.11 196.447 392.428 196.924 392.428C196.924 392.428 196.924 392.428 197.083 392.428C197.559 392.428 197.877 392.11 197.877 391.792C198.988 381.616 198.512 374.301 198.512 374.301C198.512 371.916 198.988 370.803 200.259 368.736L201.212 366.987C202.641 364.125 202.641 361.104 202.323 358.083L202.165 356.97C202.006 354.426 202.641 353.63 204.07 352.358C204.706 351.722 205.341 351.086 206.135 350.291C208.994 346.793 210.264 342.818 210.741 336.617C210.741 335.981 210.899 335.186 210.899 334.391C210.899 333.437 211.217 332.642 211.852 332.006C212.488 331.37 213.282 331.052 214.234 331.052C215.187 331.052 216.299 331.052 217.411 331.052C220.269 330.893 223.446 330.097 226.463 329.302C231.069 328.03 236.151 326.758 237.739 328.666C238.215 329.302 238.215 329.779 237.898 330.574C236.945 332.483 232.975 333.755 226.622 334.073C226.146 334.073 225.828 334.391 225.828 334.868C225.828 335.186 225.987 335.663 226.463 335.663C227.416 335.822 228.369 336.14 229.004 336.458C227.734 337.094 226.463 337.73 226.463 337.73C226.146 337.889 225.987 338.207 225.987 338.525C225.987 338.843 226.304 339.161 226.781 339.161C227.734 339.161 228.687 339.32 229.322 339.479C228.051 340.592 226.781 341.387 226.622 341.387C226.304 341.546 226.146 341.864 226.304 342.182C226.304 342.5 226.622 342.818 226.94 342.818C227.098 342.818 227.257 342.818 227.416 342.818C235.039 342.659 242.503 337.412 244.409 332.801C245.521 330.097 245.044 327.394 242.98 324.85C238.692 320.239 231.545 322.147 225.351 323.737Z" fill="#333333" stroke="#020000" stroke-width="1.07902" stroke-miterlimit="10"/>
<path d="M189.454 358.242C189.295 360.309 189.295 362.535 190.09 363.966L191.042 365.556C191.36 366.192 191.678 366.669 191.836 367.146C191.995 367.464 192.313 367.623 192.631 367.623C192.948 367.623 193.266 367.464 193.425 367.146C193.583 366.828 193.742 366.351 194.06 366.033L195.013 364.284C195.648 363.171 195.648 361.263 195.33 358.878L195.172 357.765C194.695 352.517 196.76 349.973 199.46 347.588C199.936 347.111 200.254 346.793 200.571 346.316C202.318 344.249 203.43 341.864 203.748 336.299C203.748 335.822 203.906 335.186 203.906 334.55C203.906 334.55 203.748 329.302 202.318 327.553C199.618 324.214 196.442 324.214 193.107 324.214H192.472C192.154 324.214 191.836 324.214 191.519 324.214C189.137 324.214 185.007 324.055 182.625 327.394C181.355 328.825 181.355 332.8 181.514 336.458C181.514 336.617 181.514 336.935 181.514 336.935C181.672 340.751 182.466 343.772 184.372 345.998C184.849 346.634 185.325 346.952 185.802 347.588C188.184 349.814 190.248 352.358 189.772 357.606L189.454 358.242ZM186.754 346.634C186.278 346.157 185.802 345.839 185.484 345.203C183.896 343.295 183.102 340.592 182.943 337.094C182.943 336.935 182.943 336.776 182.943 336.458C182.784 332.005 182.943 329.302 183.737 328.507L183.896 328.348C185.802 325.645 189.137 325.645 191.519 325.804C191.836 325.804 192.154 325.804 192.472 325.804H193.107C196.283 325.804 198.824 325.804 201.207 328.507C202.001 329.461 202.318 333.436 202.318 334.55C202.318 335.027 202.318 335.663 202.318 336.14C202.001 341.387 200.889 343.454 199.46 345.362C199.142 345.68 198.824 345.998 198.507 346.475C195.648 349.178 193.266 351.881 193.742 357.924L193.901 359.037C194.06 360.15 194.219 362.535 193.742 363.489L192.948 365.079L192.789 364.92L191.836 363.33C191.201 362.217 191.36 359.514 191.519 358.56V357.924C191.678 351.881 189.137 348.86 186.754 346.634Z" fill="#333333" stroke="#020000" stroke-width="1.07902" stroke-miterlimit="10"/>
<path d="M181.844 37.2076L181.526 68.214C171.68 74.8922 168.98 78.3904 158.657 73.9382C154.051 71.8711 153.098 63.7618 155.957 63.2847L160.086 63.1257L155.957 63.2847C153.098 62.1717 150.875 59.4686 150.875 56.4475C150.875 52.4723 154.369 49.1331 158.657 48.9741L161.674 50.4052L158.657 48.9741C156.91 47.7021 155.798 45.794 155.798 43.5679C155.798 39.9108 158.975 36.8896 163.104 36.8896C164.215 36.8896 165.327 37.0486 166.28 37.5257L168.821 39.7517L166.28 37.3666C165.804 36.4126 164.057 35.4586 164.057 34.5045C164.057 30.8474 166.28 25.7591 171.838 25.7591C171.838 25.7591 176.603 25.6001 179.779 31.9604" stroke="black" stroke-width="2.15805" stroke-miterlimit="10" stroke-linecap="round" stroke-linejoin="round"/>
<path d="M187.087 67.5777C196.616 74.733 195.981 78.3902 206.462 74.256C211.068 72.5069 212.497 64.3976 209.639 63.7615L205.509 63.4435L209.639 63.7615C212.656 62.8075 214.879 60.2634 214.879 57.0833C215.038 53.1081 211.703 49.6099 207.415 49.2919L204.239 50.564L207.415 49.2919C209.321 48.1789 210.433 46.2708 210.591 44.0447C210.75 40.3875 207.574 37.2074 203.604 37.0484C202.492 37.0484 201.38 37.2074 200.427 37.5254L197.886 39.7515L200.586 37.5254C201.063 36.7304 201.38 35.6173 201.38 34.6633C201.539 31.0061 199.633 25.7589 193.916 25.5999C193.916 25.5999 189.152 25.1229 185.816 31.4832" stroke="black" stroke-width="2.15805" stroke-miterlimit="10" stroke-linecap="round" stroke-linejoin="round"/>
</g>
</mask>
<g mask="url(#mask0)">
<rect x="18.1133" y="-10.3408" width="339.538" height="409.341" fill="#C4C4C4"/>
</g>
</g>
<defs>
<clipPath id="clip0">
<rect width="364" height="399" fill="white"/>
</clipPath>
<clipPath id="clip1">
<rect width="225.516" height="741.29" fill="white" transform="translate(76.707)"/>
</clipPath>
</defs>
</svg>
