<svg width="188" height="188" viewBox="0 0 188 188" fill="none" xmlns="http://www.w3.org/2000/svg">
<circle cx="94" cy="94" r="90" stroke="#997F8A" stroke-width="2"/>
<path d="M94 4C117.782 4 139.409 13.2242 155.5 28.29" stroke="#E3FF39" stroke-width="8" stroke-linecap="round"/>
<path d="M62.8838 78.332C63.0598 78.244 63.2504 78.2 63.4558 78.2H66.9318C67.2251 78.2 67.3718 78.3467 67.3718 78.64V108.56C67.3718 108.853 67.2251 109 66.9318 109H63.5878C63.2944 109 63.1478 108.853 63.1478 108.56V82.732C63.1478 82.6733 63.1184 82.6293 63.0598 82.6C63.0304 82.5707 62.9864 82.5707 62.9278 82.6L58.3078 84.184C58.2491 84.2133 58.1758 84.228 58.0878 84.228C57.9118 84.228 57.8091 84.1107 57.7798 83.876L57.6038 81.368C57.6038 81.0747 57.6918 80.8987 57.8678 80.84L62.8838 78.332ZM79.1885 105.128C79.1592 105.187 79.1592 105.245 79.1885 105.304C79.2178 105.333 79.2618 105.348 79.3205 105.348H92.5645C92.8578 105.348 93.0045 105.495 93.0045 105.788V108.56C93.0045 108.853 92.8578 109 92.5645 109H74.1285C73.8352 109 73.6885 108.853 73.6885 108.56V105.876C73.6885 105.671 73.7618 105.495 73.9085 105.348C74.9058 104.204 77.1938 101.52 80.7725 97.296L83.8085 93.644C86.5365 90.388 87.9005 87.8653 87.9005 86.076C87.9005 84.6973 87.4312 83.5973 86.4925 82.776C85.5832 81.9253 84.3658 81.5 82.8405 81.5C81.3152 81.5 80.0978 81.9253 79.1885 82.776C78.2792 83.6267 77.8392 84.7413 77.8685 86.12V87.44C77.8685 87.7333 77.7218 87.88 77.4285 87.88H74.0405C73.7472 87.88 73.6005 87.7333 73.6005 87.44V85.548C73.6592 84.0227 74.0845 82.6733 74.8765 81.5C75.6978 80.3267 76.7978 79.432 78.1765 78.816C79.5552 78.1707 81.1098 77.848 82.8405 77.848C84.7178 77.848 86.3605 78.2 87.7685 78.904C89.1765 79.608 90.2618 80.576 91.0245 81.808C91.7872 83.04 92.1685 84.4333 92.1685 85.988C92.1685 88.4227 90.8485 91.2973 88.2085 94.612C87.0352 96.108 85.6418 97.7947 84.0285 99.672C82.4152 101.52 80.8018 103.339 79.1885 105.128ZM105.894 90.828C104.691 90.828 103.577 90.5347 102.55 89.948C101.553 89.3613 100.761 88.5693 100.174 87.572C99.5874 86.5747 99.2941 85.4747 99.2941 84.272C99.2941 83.0987 99.5874 82.0133 100.174 81.016C100.761 80.0187 101.553 79.2413 102.55 78.684C103.577 78.0973 104.691 77.804 105.894 77.804C107.067 77.804 108.153 78.0973 109.15 78.684C110.147 79.2707 110.939 80.0627 111.526 81.06C112.113 82.028 112.406 83.0987 112.406 84.272C112.406 85.4747 112.113 86.5747 111.526 87.572C110.939 88.5693 110.147 89.3613 109.15 89.948C108.153 90.5347 107.067 90.828 105.894 90.828ZM104.618 109C104.442 109 104.325 108.956 104.266 108.868C104.207 108.751 104.222 108.619 104.31 108.472L120.942 78.508C121.059 78.3027 121.235 78.2 121.47 78.2H123.626C123.802 78.2 123.919 78.2587 123.978 78.376C124.037 78.464 124.022 78.5813 123.934 78.728L107.302 108.692C107.214 108.897 107.038 109 106.774 109H104.618ZM105.894 88.232C106.979 88.232 107.889 87.8507 108.622 87.088C109.355 86.3253 109.722 85.3867 109.722 84.272C109.722 83.1867 109.341 82.2773 108.578 81.544C107.845 80.7813 106.95 80.4 105.894 80.4C104.809 80.4 103.885 80.7813 103.122 81.544C102.359 82.2773 101.978 83.1867 101.978 84.272C101.978 85.3867 102.359 86.3253 103.122 87.088C103.885 87.8507 104.809 88.232 105.894 88.232ZM122.658 109.396C121.455 109.396 120.341 109.103 119.314 108.516C118.317 107.929 117.525 107.137 116.938 106.14C116.351 105.143 116.058 104.057 116.058 102.884C116.058 101.711 116.351 100.625 116.938 99.628C117.525 98.6307 118.317 97.8387 119.314 97.252C120.341 96.6653 121.455 96.372 122.658 96.372C123.831 96.372 124.917 96.6653 125.914 97.252C126.911 97.8387 127.703 98.6307 128.29 99.628C128.877 100.625 129.17 101.711 129.17 102.884C129.17 104.057 128.877 105.143 128.29 106.14C127.703 107.137 126.911 107.929 125.914 108.516C124.917 109.103 123.831 109.396 122.658 109.396ZM122.658 106.8C123.743 106.8 124.653 106.419 125.386 105.656C126.119 104.893 126.486 103.969 126.486 102.884C126.486 101.799 126.105 100.875 125.342 100.112C124.609 99.3493 123.714 98.968 122.658 98.968C121.573 98.968 120.649 99.3493 119.886 100.112C119.123 100.875 118.742 101.799 118.742 102.884C118.742 103.969 119.123 104.893 119.886 105.656C120.649 106.419 121.573 106.8 122.658 106.8Z" fill="white"/>
</svg>
