<svg width="188" height="188" viewBox="0 0 188 188" fill="none" xmlns="http://www.w3.org/2000/svg">
<circle cx="94" cy="94" r="90" stroke="#997F8A" stroke-width="2"/>
<path d="M184 94C184 44.2944 143.706 4 94 4" stroke="#E3FF39" stroke-width="8" stroke-linecap="round"/>
<path d="M59.9985 105.128C59.9692 105.187 59.9692 105.245 59.9985 105.304C60.0278 105.333 60.0718 105.348 60.1305 105.348H73.3745C73.6678 105.348 73.8145 105.495 73.8145 105.788V108.56C73.8145 108.853 73.6678 109 73.3745 109H54.9385C54.6452 109 54.4985 108.853 54.4985 108.56V105.876C54.4985 105.671 54.5718 105.495 54.7185 105.348C55.7158 104.204 58.0038 101.52 61.5825 97.296L64.6185 93.644C67.3465 90.388 68.7105 87.8653 68.7105 86.076C68.7105 84.6973 68.2412 83.5973 67.3025 82.776C66.3932 81.9253 65.1758 81.5 63.6505 81.5C62.1252 81.5 60.9078 81.9253 59.9985 82.776C59.0892 83.6267 58.6492 84.7413 58.6785 86.12V87.44C58.6785 87.7333 58.5318 87.88 58.2385 87.88H54.8505C54.5572 87.88 54.4105 87.7333 54.4105 87.44V85.548C54.4692 84.0227 54.8945 82.6733 55.6865 81.5C56.5078 80.3267 57.6078 79.432 58.9865 78.816C60.3652 78.1707 61.9198 77.848 63.6505 77.848C65.5278 77.848 67.1705 78.2 68.5785 78.904C69.9865 79.608 71.0718 80.576 71.8345 81.808C72.5972 83.04 72.9785 84.4333 72.9785 85.988C72.9785 88.4227 71.6585 91.2973 69.0185 94.612C67.8452 96.108 66.4518 97.7947 64.8385 99.672C63.2252 101.52 61.6118 103.339 59.9985 105.128ZM97.0881 95.36C97.4108 96.6507 97.5721 97.9853 97.5721 99.364C97.5721 100.743 97.3961 102.019 97.0441 103.192C96.4868 105.069 95.4161 106.565 93.8321 107.68C92.2774 108.765 90.4148 109.308 88.2441 109.308C86.1028 109.308 84.2694 108.78 82.7441 107.724C81.2188 106.668 80.1481 105.231 79.5321 103.412C79.2388 102.591 79.0774 101.872 79.0481 101.256V101.168C79.0481 100.933 79.1801 100.816 79.4441 100.816H82.9201C83.1841 100.816 83.3308 100.948 83.3601 101.212C83.3894 101.417 83.4628 101.725 83.5801 102.136C83.9028 103.221 84.4601 104.087 85.2521 104.732C86.0734 105.348 87.0561 105.656 88.2001 105.656C89.4028 105.656 90.4148 105.333 91.2361 104.688C92.0868 104.013 92.6588 103.089 92.9521 101.916C93.1574 101.3 93.2601 100.449 93.2601 99.364C93.2601 98.396 93.1721 97.5013 92.9961 96.68C92.7908 95.5653 92.2628 94.7147 91.4121 94.128C90.5908 93.512 89.5641 93.204 88.3321 93.204C87.1881 93.204 86.1614 93.468 85.2521 93.996C84.3428 94.4947 83.7561 95.1693 83.4921 96.02C83.4041 96.284 83.2428 96.416 83.0081 96.416H79.4881C79.1948 96.416 79.0481 96.2693 79.0481 95.976V78.64C79.0481 78.3467 79.1948 78.2 79.4881 78.2H95.9441C96.2374 78.2 96.3841 78.3467 96.3841 78.64V81.412C96.3841 81.7053 96.2374 81.852 95.9441 81.852H83.4481C83.3308 81.852 83.2721 81.9107 83.2721 82.028L83.2281 91.224C83.2281 91.4 83.3014 91.444 83.4481 91.356C84.1521 90.74 84.9588 90.2853 85.8681 89.992C86.8068 89.6693 87.7894 89.508 88.8161 89.508C90.8694 89.508 92.6294 90.0213 94.0961 91.048C95.5921 92.0747 96.5894 93.512 97.0881 95.36ZM110.175 90.828C108.973 90.828 107.858 90.5347 106.831 89.948C105.834 89.3613 105.042 88.5693 104.455 87.572C103.869 86.5747 103.575 85.4747 103.575 84.272C103.575 83.0987 103.869 82.0133 104.455 81.016C105.042 80.0187 105.834 79.2413 106.831 78.684C107.858 78.0973 108.973 77.804 110.175 77.804C111.349 77.804 112.434 78.0973 113.431 78.684C114.429 79.2707 115.221 80.0627 115.807 81.06C116.394 82.028 116.687 83.0987 116.687 84.272C116.687 85.4747 116.394 86.5747 115.807 87.572C115.221 88.5693 114.429 89.3613 113.431 89.948C112.434 90.5347 111.349 90.828 110.175 90.828ZM108.899 109C108.723 109 108.606 108.956 108.547 108.868C108.489 108.751 108.503 108.619 108.591 108.472L125.223 78.508C125.341 78.3027 125.517 78.2 125.751 78.2H127.907C128.083 78.2 128.201 78.2587 128.259 78.376C128.318 78.464 128.303 78.5813 128.215 78.728L111.583 108.692C111.495 108.897 111.319 109 111.055 109H108.899ZM110.175 88.232C111.261 88.232 112.17 87.8507 112.903 87.088C113.637 86.3253 114.003 85.3867 114.003 84.272C114.003 83.1867 113.622 82.2773 112.859 81.544C112.126 80.7813 111.231 80.4 110.175 80.4C109.09 80.4 108.166 80.7813 107.403 81.544C106.641 82.2773 106.259 83.1867 106.259 84.272C106.259 85.3867 106.641 86.3253 107.403 87.088C108.166 87.8507 109.09 88.232 110.175 88.232ZM126.939 109.396C125.737 109.396 124.622 109.103 123.595 108.516C122.598 107.929 121.806 107.137 121.219 106.14C120.633 105.143 120.339 104.057 120.339 102.884C120.339 101.711 120.633 100.625 121.219 99.628C121.806 98.6307 122.598 97.8387 123.595 97.252C124.622 96.6653 125.737 96.372 126.939 96.372C128.113 96.372 129.198 96.6653 130.195 97.252C131.193 97.8387 131.985 98.6307 132.571 99.628C133.158 100.625 133.451 101.711 133.451 102.884C133.451 104.057 133.158 105.143 132.571 106.14C131.985 107.137 131.193 107.929 130.195 108.516C129.198 109.103 128.113 109.396 126.939 109.396ZM126.939 106.8C128.025 106.8 128.934 106.419 129.667 105.656C130.401 104.893 130.767 103.969 130.767 102.884C130.767 101.799 130.386 100.875 129.623 100.112C128.89 99.3493 127.995 98.968 126.939 98.968C125.854 98.968 124.93 99.3493 124.167 100.112C123.405 100.875 123.023 101.799 123.023 102.884C123.023 103.969 123.405 104.893 124.167 105.656C124.93 106.419 125.854 106.8 126.939 106.8Z" fill="white"/>
</svg>
