<svg width="188" height="188" viewBox="0 0 188 188" fill="none" xmlns="http://www.w3.org/2000/svg">
<circle cx="94" cy="94" r="90" stroke="#997F8A" stroke-width="2"/>
<path d="M94 4C143.706 4 184 44.2944 184 94C184 143.706 143.706 184 94 184C68.1866 184 44.9114 173.133 28.5 155.724" stroke="#E3FF39" stroke-width="8" stroke-linecap="round"/>
<path d="M71.8962 93.82C72.7175 95.3747 73.1282 97.2373 73.1282 99.408C73.1282 101.197 72.8349 102.767 72.2482 104.116C71.5735 105.788 70.5175 107.079 69.0802 107.988C67.6722 108.868 65.9562 109.308 63.9322 109.308C61.7615 109.308 59.9135 108.809 58.3882 107.812C56.8922 106.815 55.8362 105.407 55.2202 103.588C54.7802 102.356 54.5602 100.933 54.5602 99.32V85.768C54.5602 83.3627 55.3962 81.4413 57.0682 80.004C58.7402 78.5667 60.9255 77.848 63.6242 77.848C65.3549 77.848 66.8802 78.1707 68.2002 78.816C69.5495 79.4613 70.5909 80.3707 71.3242 81.544C72.0575 82.688 72.4242 84.008 72.4242 85.504V86.384C72.4242 86.6773 72.2775 86.824 71.9842 86.824H68.6402C68.3469 86.824 68.2002 86.6773 68.2002 86.384V85.988C68.2002 84.668 67.7749 83.5973 66.9242 82.776C66.0735 81.9547 64.9735 81.544 63.6242 81.544C62.1869 81.544 61.0135 81.9693 60.1042 82.82C59.2242 83.6707 58.7842 84.8 58.7842 86.208V91.752C58.7842 91.8107 58.7989 91.8547 58.8282 91.884C58.8869 91.884 58.9455 91.8547 59.0042 91.796C60.2655 90.388 62.0989 89.684 64.5042 89.684C67.9655 89.684 70.4295 91.0627 71.8962 93.82ZM68.2442 102.796C68.6842 101.857 68.9042 100.728 68.9042 99.408C68.9042 97.912 68.6402 96.7093 68.1122 95.8C67.2615 94.0987 65.8242 93.248 63.8002 93.248C62.7735 93.248 61.8935 93.4827 61.1602 93.952C60.4269 94.392 59.8695 95.0373 59.4882 95.888C59.0189 96.856 58.7842 98.1027 58.7842 99.628C58.7842 100.86 58.9749 101.901 59.3562 102.752C59.7375 103.691 60.3095 104.409 61.0722 104.908C61.8349 105.377 62.7589 105.612 63.8442 105.612C65.9855 105.612 67.4522 104.673 68.2442 102.796ZM95.1914 94.392C95.7781 95.8293 96.0714 97.4867 96.0714 99.364C96.0714 100.919 95.8368 102.356 95.3674 103.676C94.7221 105.495 93.6514 106.903 92.1554 107.9C90.6594 108.868 88.8554 109.352 86.7434 109.352C84.6314 109.352 82.7981 108.809 81.2434 107.724C79.7181 106.639 78.6474 105.172 78.0314 103.324C77.7088 102.503 77.5181 101.329 77.4594 99.804C77.4594 99.5107 77.6061 99.364 77.8994 99.364H81.2874C81.5808 99.364 81.7274 99.5107 81.7274 99.804C81.7861 100.86 81.9034 101.637 82.0794 102.136C82.3728 103.221 82.9154 104.087 83.7074 104.732C84.5288 105.377 85.5408 105.7 86.7434 105.7C88.9728 105.7 90.4688 104.688 91.2314 102.664C91.6128 101.784 91.8034 100.64 91.8034 99.232C91.8034 97.736 91.5688 96.4013 91.0994 95.228C90.2781 93.4093 88.8114 92.5 86.6994 92.5C86.2008 92.5 85.5701 92.72 84.8074 93.16C84.6901 93.2187 84.6021 93.248 84.5434 93.248C84.3968 93.248 84.2794 93.1747 84.1914 93.028L82.5194 90.74C82.4608 90.6227 82.4314 90.52 82.4314 90.432C82.4314 90.344 82.4754 90.2413 82.5634 90.124L90.0874 82.072C90.1754 81.9253 90.1461 81.852 89.9994 81.852H78.2954C78.0021 81.852 77.8554 81.7053 77.8554 81.412V78.64C77.8554 78.3467 78.0021 78.2 78.2954 78.2H95.3674C95.6608 78.2 95.8074 78.3467 95.8074 78.64V81.808C95.8074 81.9547 95.7341 82.1307 95.5874 82.336L88.8994 89.64C88.8408 89.6987 88.8261 89.7573 88.8554 89.816C88.8848 89.8453 88.9434 89.8747 89.0314 89.904C90.5274 90.0507 91.7888 90.52 92.8154 91.312C93.8421 92.0747 94.6341 93.1013 95.1914 94.392ZM109.246 90.828C108.043 90.828 106.928 90.5347 105.902 89.948C104.904 89.3613 104.112 88.5693 103.526 87.572C102.939 86.5747 102.646 85.4747 102.646 84.272C102.646 83.0987 102.939 82.0133 103.526 81.016C104.112 80.0187 104.904 79.2413 105.902 78.684C106.928 78.0973 108.043 77.804 109.246 77.804C110.419 77.804 111.504 78.0973 112.502 78.684C113.499 79.2707 114.291 80.0627 114.878 81.06C115.464 82.028 115.758 83.0987 115.758 84.272C115.758 85.4747 115.464 86.5747 114.878 87.572C114.291 88.5693 113.499 89.3613 112.502 89.948C111.504 90.5347 110.419 90.828 109.246 90.828ZM107.97 109C107.794 109 107.676 108.956 107.618 108.868C107.559 108.751 107.574 108.619 107.662 108.472L124.294 78.508C124.411 78.3027 124.587 78.2 124.822 78.2H126.978C127.154 78.2 127.271 78.2587 127.33 78.376C127.388 78.464 127.374 78.5813 127.286 78.728L110.654 108.692C110.566 108.897 110.39 109 110.126 109H107.97ZM109.246 88.232C110.331 88.232 111.24 87.8507 111.974 87.088C112.707 86.3253 113.074 85.3867 113.074 84.272C113.074 83.1867 112.692 82.2773 111.93 81.544C111.196 80.7813 110.302 80.4 109.246 80.4C108.16 80.4 107.236 80.7813 106.474 81.544C105.711 82.2773 105.33 83.1867 105.33 84.272C105.33 85.3867 105.711 86.3253 106.474 87.088C107.236 87.8507 108.16 88.232 109.246 88.232ZM126.01 109.396C124.807 109.396 123.692 109.103 122.666 108.516C121.668 107.929 120.876 107.137 120.29 106.14C119.703 105.143 119.41 104.057 119.41 102.884C119.41 101.711 119.703 100.625 120.29 99.628C120.876 98.6307 121.668 97.8387 122.666 97.252C123.692 96.6653 124.807 96.372 126.01 96.372C127.183 96.372 128.268 96.6653 129.266 97.252C130.263 97.8387 131.055 98.6307 131.642 99.628C132.228 100.625 132.522 101.711 132.522 102.884C132.522 104.057 132.228 105.143 131.642 106.14C131.055 107.137 130.263 107.929 129.266 108.516C128.268 109.103 127.183 109.396 126.01 109.396ZM126.01 106.8C127.095 106.8 128.004 106.419 128.738 105.656C129.471 104.893 129.838 103.969 129.838 102.884C129.838 101.799 129.456 100.875 128.694 100.112C127.96 99.3493 127.066 98.968 126.01 98.968C124.924 98.968 124 99.3493 123.238 100.112C122.475 100.875 122.094 101.799 122.094 102.884C122.094 103.969 122.475 104.893 123.238 105.656C124 106.419 124.924 106.8 126.01 106.8Z" fill="white"/>
</svg>
