<svg width="189" height="189" viewBox="0 0 189 189" fill="none" xmlns="http://www.w3.org/2000/svg">
<circle cx="94.3334" cy="95" r="90" stroke="#997F8A" stroke-width="2"/>
<mask id="path-2-outside-1_31:1982" maskUnits="userSpaceOnUse" x="93.3334" y="0" width="65" height="33" fill="black">
<rect fill="white" x="93.3334" width="65" height="33"/>
<path d="M94.3334 5.98798C94.3334 3.2332 96.5686 0.986194 99.3195 1.13223C119.767 2.21771 139.307 9.95421 154.956 23.1601C157.061 24.9368 157.152 28.1049 155.266 30.113C153.381 32.1212 150.233 32.2074 148.116 30.444C134.333 18.96 117.228 12.1878 99.319 11.1239C96.5691 10.9605 94.3334 8.74276 94.3334 5.98798Z"/>
</mask>
<path d="M94.3334 5.98798C94.3334 3.2332 96.5686 0.986194 99.3195 1.13223C119.767 2.21771 139.307 9.95421 154.956 23.1601C157.061 24.9368 157.152 28.1049 155.266 30.113C153.381 32.1212 150.233 32.2074 148.116 30.444C134.333 18.96 117.228 12.1878 99.319 11.1239C96.5691 10.9605 94.3334 8.74276 94.3334 5.98798Z" fill="#E3FF39"/>
<path d="M94.3334 5.98798C94.3334 3.2332 96.5686 0.986194 99.3195 1.13223C119.767 2.21771 139.307 9.95421 154.956 23.1601C157.061 24.9368 157.152 28.1049 155.266 30.113C153.381 32.1212 150.233 32.2074 148.116 30.444C134.333 18.96 117.228 12.1878 99.319 11.1239C96.5691 10.9605 94.3334 8.74276 94.3334 5.98798Z" stroke="#3E404C" stroke-width="2" mask="url(#path-2-outside-1_31:1982)"/>
<path d="M63.2171 79.4089C63.3931 79.3209 63.5838 79.2769 63.7891 79.2769H67.2651C67.5585 79.2769 67.7051 79.4236 67.7051 79.7169V109.637C67.7051 109.93 67.5585 110.077 67.2651 110.077H63.9211C63.6278 110.077 63.4811 109.93 63.4811 109.637V83.8089C63.4811 83.7502 63.4518 83.7062 63.3931 83.6769C63.3638 83.6476 63.3198 83.6476 63.2611 83.6769L58.6411 85.2609C58.5825 85.2902 58.5091 85.3049 58.4211 85.3049C58.2451 85.3049 58.1425 85.1876 58.1131 84.9529L57.9371 82.4449C57.9371 82.1516 58.0251 81.9756 58.2011 81.9169L63.2171 79.4089ZM79.5219 106.205C79.4925 106.264 79.4925 106.322 79.5219 106.381C79.5512 106.41 79.5952 106.425 79.6539 106.425H92.8979C93.1912 106.425 93.3379 106.572 93.3379 106.865V109.637C93.3379 109.93 93.1912 110.077 92.8979 110.077H74.4619C74.1685 110.077 74.0219 109.93 74.0219 109.637V106.953C74.0219 106.748 74.0952 106.572 74.2419 106.425C75.2392 105.281 77.5272 102.597 81.1059 98.3729L84.1419 94.7209C86.8699 91.4649 88.2339 88.9422 88.2339 87.1529C88.2339 85.7742 87.7645 84.6742 86.8259 83.8529C85.9165 83.0022 84.6992 82.5769 83.1739 82.5769C81.6485 82.5769 80.4312 83.0022 79.5219 83.8529C78.6125 84.7036 78.1725 85.8182 78.2019 87.1969V88.5169C78.2019 88.8102 78.0552 88.9569 77.7619 88.9569H74.3739C74.0805 88.9569 73.9339 88.8102 73.9339 88.5169V86.6249C73.9925 85.0996 74.4179 83.7502 75.2099 82.5769C76.0312 81.4036 77.1312 80.5089 78.5099 79.8929C79.8885 79.2476 81.4432 78.9249 83.1739 78.9249C85.0512 78.9249 86.6939 79.2769 88.1019 79.9809C89.5099 80.6849 90.5952 81.6529 91.3579 82.8849C92.1205 84.1169 92.5019 85.5102 92.5019 87.0649C92.5019 89.4996 91.1819 92.3742 88.5419 95.6889C87.3685 97.1849 85.9752 98.8716 84.3619 100.749C82.7485 102.597 81.1352 104.416 79.5219 106.205ZM106.227 91.9049C105.025 91.9049 103.91 91.6116 102.883 91.0249C101.886 90.4382 101.094 89.6462 100.507 88.6489C99.9208 87.6516 99.6275 86.5516 99.6275 85.3489C99.6275 84.1756 99.9208 83.0902 100.507 82.0929C101.094 81.0956 101.886 80.3182 102.883 79.7609C103.91 79.1742 105.025 78.8809 106.227 78.8809C107.401 78.8809 108.486 79.1742 109.483 79.7609C110.481 80.3476 111.273 81.1396 111.859 82.1369C112.446 83.1049 112.739 84.1756 112.739 85.3489C112.739 86.5516 112.446 87.6516 111.859 88.6489C111.273 89.6462 110.481 90.4382 109.483 91.0249C108.486 91.6116 107.401 91.9049 106.227 91.9049ZM104.951 110.077C104.775 110.077 104.658 110.033 104.599 109.945C104.541 109.828 104.555 109.696 104.643 109.549L121.275 79.5849C121.393 79.3796 121.569 79.2769 121.803 79.2769H123.959C124.135 79.2769 124.253 79.3356 124.311 79.4529C124.37 79.5409 124.355 79.6582 124.267 79.8049L107.635 109.769C107.547 109.974 107.371 110.077 107.107 110.077H104.951ZM106.227 89.3089C107.313 89.3089 108.222 88.9276 108.955 88.1649C109.689 87.4022 110.055 86.4636 110.055 85.3489C110.055 84.2636 109.674 83.3542 108.911 82.6209C108.178 81.8582 107.283 81.4769 106.227 81.4769C105.142 81.4769 104.218 81.8582 103.455 82.6209C102.693 83.3542 102.311 84.2636 102.311 85.3489C102.311 86.4636 102.693 87.4022 103.455 88.1649C104.218 88.9276 105.142 89.3089 106.227 89.3089ZM122.991 110.473C121.789 110.473 120.674 110.18 119.647 109.593C118.65 109.006 117.858 108.214 117.271 107.217C116.685 106.22 116.391 105.134 116.391 103.961C116.391 102.788 116.685 101.702 117.271 100.705C117.858 99.7076 118.65 98.9156 119.647 98.3289C120.674 97.7422 121.789 97.4489 122.991 97.4489C124.165 97.4489 125.25 97.7422 126.247 98.3289C127.245 98.9156 128.037 99.7076 128.623 100.705C129.21 101.702 129.503 102.788 129.503 103.961C129.503 105.134 129.21 106.22 128.623 107.217C128.037 108.214 127.245 109.006 126.247 109.593C125.25 110.18 124.165 110.473 122.991 110.473ZM122.991 107.877C124.077 107.877 124.986 107.496 125.719 106.733C126.453 105.97 126.819 105.046 126.819 103.961C126.819 102.876 126.438 101.952 125.675 101.189C124.942 100.426 124.047 100.045 122.991 100.045C121.906 100.045 120.982 100.426 120.219 101.189C119.457 101.952 119.075 102.876 119.075 103.961C119.075 105.046 119.457 105.97 120.219 106.733C120.982 107.496 121.906 107.877 122.991 107.877Z" fill="white"/>
</svg>
