<svg width="189" height="189" viewBox="0 0 189 189" fill="none" xmlns="http://www.w3.org/2000/svg">
<circle cx="94" cy="95" r="90" stroke="#997F8A" stroke-width="2"/>
<mask id="path-2-outside-1_31:1963" maskUnits="userSpaceOnUse" x="93" y="0" width="96" height="96" fill="black">
<rect fill="white" x="93" width="96" height="96"/>
<path d="M94 5.98798C94 3.2332 96.2348 0.986199 98.9857 1.13231C109.626 1.69746 120.106 4.06843 129.972 8.15533C141.377 12.8793 151.739 19.8033 160.468 28.532C169.197 37.2607 176.121 47.6232 180.845 59.0278C184.932 68.8944 187.303 79.3739 187.868 90.0143C188.014 92.7652 185.767 95 183.012 95C180.257 95 178.039 92.7648 177.876 90.0149C177.322 80.6853 175.214 71.5015 171.628 62.8454C167.405 52.6511 161.216 43.3884 153.414 35.586C145.612 27.7837 136.349 21.5945 126.155 17.3719C117.498 13.7864 108.315 11.6785 98.9851 11.124C96.2352 10.9605 94 8.74276 94 5.98798Z"/>
</mask>
<path d="M94 5.98798C94 3.2332 96.2348 0.986199 98.9857 1.13231C109.626 1.69746 120.106 4.06843 129.972 8.15533C141.377 12.8793 151.739 19.8033 160.468 28.532C169.197 37.2607 176.121 47.6232 180.845 59.0278C184.932 68.8944 187.303 79.3739 187.868 90.0143C188.014 92.7652 185.767 95 183.012 95C180.257 95 178.039 92.7648 177.876 90.0149C177.322 80.6853 175.214 71.5015 171.628 62.8454C167.405 52.6511 161.216 43.3884 153.414 35.586C145.612 27.7837 136.349 21.5945 126.155 17.3719C117.498 13.7864 108.315 11.6785 98.9851 11.124C96.2352 10.9605 94 8.74276 94 5.98798Z" fill="#E3FF39"/>
<path d="M94 5.98798C94 3.2332 96.2348 0.986199 98.9857 1.13231C109.626 1.69746 120.106 4.06843 129.972 8.15533C141.377 12.8793 151.739 19.8033 160.468 28.532C169.197 37.2607 176.121 47.6232 180.845 59.0278C184.932 68.8944 187.303 79.3739 187.868 90.0143C188.014 92.7652 185.767 95 183.012 95C180.257 95 178.039 92.7648 177.876 90.0149C177.322 80.6853 175.214 71.5015 171.628 62.8454C167.405 52.6511 161.216 43.3884 153.414 35.586C145.612 27.7837 136.349 21.5945 126.155 17.3719C117.498 13.7864 108.315 11.6785 98.9851 11.124C96.2352 10.9605 94 8.74276 94 5.98798Z" stroke="#3E404C" stroke-width="2" mask="url(#path-2-outside-1_31:1963)"/>
<path d="M59.9985 106.205C59.9692 106.264 59.9692 106.322 59.9985 106.381C60.0278 106.41 60.0718 106.425 60.1305 106.425H73.3745C73.6678 106.425 73.8145 106.572 73.8145 106.865V109.637C73.8145 109.93 73.6678 110.077 73.3745 110.077H54.9385C54.6452 110.077 54.4985 109.93 54.4985 109.637V106.953C54.4985 106.748 54.5718 106.572 54.7185 106.425C55.7158 105.281 58.0038 102.597 61.5825 98.3729L64.6185 94.7209C67.3465 91.4649 68.7105 88.9422 68.7105 87.1529C68.7105 85.7742 68.2412 84.6742 67.3025 83.8529C66.3932 83.0022 65.1758 82.5769 63.6505 82.5769C62.1252 82.5769 60.9078 83.0022 59.9985 83.8529C59.0892 84.7036 58.6492 85.8182 58.6785 87.1969V88.5169C58.6785 88.8102 58.5318 88.9569 58.2385 88.9569H54.8505C54.5572 88.9569 54.4105 88.8102 54.4105 88.5169V86.6249C54.4692 85.0996 54.8945 83.7502 55.6865 82.5769C56.5078 81.4036 57.6078 80.5089 58.9865 79.8929C60.3652 79.2476 61.9198 78.9249 63.6505 78.9249C65.5278 78.9249 67.1705 79.2769 68.5785 79.9809C69.9865 80.6849 71.0718 81.6529 71.8345 82.8849C72.5972 84.1169 72.9785 85.5102 72.9785 87.0649C72.9785 89.4996 71.6585 92.3742 69.0185 95.6889C67.8452 97.1849 66.4518 98.8716 64.8385 100.749C63.2252 102.597 61.6118 104.416 59.9985 106.205ZM97.0881 96.4369C97.4108 97.7276 97.5721 99.0622 97.5721 100.441C97.5721 101.82 97.3961 103.096 97.0441 104.269C96.4868 106.146 95.4161 107.642 93.8321 108.757C92.2774 109.842 90.4148 110.385 88.2441 110.385C86.1028 110.385 84.2694 109.857 82.7441 108.801C81.2188 107.745 80.1481 106.308 79.5321 104.489C79.2388 103.668 79.0774 102.949 79.0481 102.333V102.245C79.0481 102.01 79.1801 101.893 79.4441 101.893H82.9201C83.1841 101.893 83.3308 102.025 83.3601 102.289C83.3894 102.494 83.4628 102.802 83.5801 103.213C83.9028 104.298 84.4601 105.164 85.2521 105.809C86.0734 106.425 87.0561 106.733 88.2001 106.733C89.4028 106.733 90.4148 106.41 91.2361 105.765C92.0868 105.09 92.6588 104.166 92.9521 102.993C93.1574 102.377 93.2601 101.526 93.2601 100.441C93.2601 99.4729 93.1721 98.5782 92.9961 97.7569C92.7908 96.6422 92.2628 95.7916 91.4121 95.2049C90.5908 94.5889 89.5641 94.2809 88.3321 94.2809C87.1881 94.2809 86.1614 94.5449 85.2521 95.0729C84.3428 95.5716 83.7561 96.2462 83.4921 97.0969C83.4041 97.3609 83.2428 97.4929 83.0081 97.4929H79.4881C79.1948 97.4929 79.0481 97.3462 79.0481 97.0529V79.7169C79.0481 79.4236 79.1948 79.2769 79.4881 79.2769H95.9441C96.2374 79.2769 96.3841 79.4236 96.3841 79.7169V82.4889C96.3841 82.7822 96.2374 82.9289 95.9441 82.9289H83.4481C83.3308 82.9289 83.2721 82.9876 83.2721 83.1049L83.2281 92.3009C83.2281 92.4769 83.3014 92.5209 83.4481 92.4329C84.1521 91.8169 84.9588 91.3622 85.8681 91.0689C86.8068 90.7462 87.7894 90.5849 88.8161 90.5849C90.8694 90.5849 92.6294 91.0982 94.0961 92.1249C95.5921 93.1516 96.5894 94.5889 97.0881 96.4369ZM110.175 91.9049C108.973 91.9049 107.858 91.6116 106.831 91.0249C105.834 90.4382 105.042 89.6462 104.455 88.6489C103.869 87.6516 103.575 86.5516 103.575 85.3489C103.575 84.1756 103.869 83.0902 104.455 82.0929C105.042 81.0956 105.834 80.3182 106.831 79.7609C107.858 79.1742 108.973 78.8809 110.175 78.8809C111.349 78.8809 112.434 79.1742 113.431 79.7609C114.429 80.3476 115.221 81.1396 115.807 82.1369C116.394 83.1049 116.687 84.1756 116.687 85.3489C116.687 86.5516 116.394 87.6516 115.807 88.6489C115.221 89.6462 114.429 90.4382 113.431 91.0249C112.434 91.6116 111.349 91.9049 110.175 91.9049ZM108.899 110.077C108.723 110.077 108.606 110.033 108.547 109.945C108.489 109.828 108.503 109.696 108.591 109.549L125.223 79.5849C125.341 79.3796 125.517 79.2769 125.751 79.2769H127.907C128.083 79.2769 128.201 79.3356 128.259 79.4529C128.318 79.5409 128.303 79.6582 128.215 79.8049L111.583 109.769C111.495 109.974 111.319 110.077 111.055 110.077H108.899ZM110.175 89.3089C111.261 89.3089 112.17 88.9276 112.903 88.1649C113.637 87.4022 114.003 86.4636 114.003 85.3489C114.003 84.2636 113.622 83.3542 112.859 82.6209C112.126 81.8582 111.231 81.4769 110.175 81.4769C109.09 81.4769 108.166 81.8582 107.403 82.6209C106.641 83.3542 106.259 84.2636 106.259 85.3489C106.259 86.4636 106.641 87.4022 107.403 88.1649C108.166 88.9276 109.09 89.3089 110.175 89.3089ZM126.939 110.473C125.737 110.473 124.622 110.18 123.595 109.593C122.598 109.006 121.806 108.214 121.219 107.217C120.633 106.22 120.339 105.134 120.339 103.961C120.339 102.788 120.633 101.702 121.219 100.705C121.806 99.7076 122.598 98.9156 123.595 98.3289C124.622 97.7422 125.737 97.4489 126.939 97.4489C128.113 97.4489 129.198 97.7422 130.195 98.3289C131.193 98.9156 131.985 99.7076 132.571 100.705C133.158 101.702 133.451 102.788 133.451 103.961C133.451 105.134 133.158 106.22 132.571 107.217C131.985 108.214 131.193 109.006 130.195 109.593C129.198 110.18 128.113 110.473 126.939 110.473ZM126.939 107.877C128.025 107.877 128.934 107.496 129.667 106.733C130.401 105.97 130.767 105.046 130.767 103.961C130.767 102.876 130.386 101.952 129.623 101.189C128.89 100.426 127.995 100.045 126.939 100.045C125.854 100.045 124.93 100.426 124.167 101.189C123.405 101.952 123.023 102.876 123.023 103.961C123.023 105.046 123.405 105.97 124.167 106.733C124.93 107.496 125.854 107.877 126.939 107.877Z" fill="white"/>
</svg>
