<svg width="190" height="190" viewBox="0 0 190 190" fill="none" xmlns="http://www.w3.org/2000/svg">
<circle cx="94.6667" cy="95" r="90" stroke="#997F8A" stroke-width="2"/>
<mask id="path-2-outside-1_31:2001" maskUnits="userSpaceOnUse" x="26.6667" y="0" width="163" height="190" fill="black">
<rect fill="white" x="26.6667" width="163" height="190"/>
<path d="M94.6667 5.98798C94.6667 3.2332 96.9017 0.986198 99.6526 1.1323C113.51 1.86829 127.054 5.66498 139.303 12.274C153.018 19.6739 164.677 30.3672 173.233 43.3918C181.788 56.4165 186.972 71.3639 188.316 86.8891C189.661 102.414 187.125 118.03 180.936 132.332C174.747 146.634 165.099 159.172 152.862 168.82C140.624 178.467 126.179 184.921 110.828 187.6C95.4768 190.28 79.7003 189.1 64.9179 184.168C51.7153 179.764 39.6757 172.489 29.6532 162.891C27.6636 160.986 27.7716 157.819 29.7798 155.933C31.7879 154.047 34.9347 154.158 36.9363 156.051C45.8181 164.45 56.4415 170.824 68.0751 174.705C81.2886 179.114 95.3909 180.168 109.113 177.773C122.835 175.378 135.746 169.609 146.686 160.985C157.625 152.362 166.248 141.154 171.78 128.37C177.312 115.586 179.579 101.627 178.377 87.7499C177.175 73.8723 172.542 60.5113 164.895 48.8689C157.247 37.2265 146.825 27.668 134.566 21.0535C123.773 15.2299 111.854 11.8492 99.6519 11.124C96.902 10.9605 94.6667 8.74276 94.6667 5.98798Z"/>
</mask>
<path d="M94.6667 5.98798C94.6667 3.2332 96.9017 0.986198 99.6526 1.1323C113.51 1.86829 127.054 5.66498 139.303 12.274C153.018 19.6739 164.677 30.3672 173.233 43.3918C181.788 56.4165 186.972 71.3639 188.316 86.8891C189.661 102.414 187.125 118.03 180.936 132.332C174.747 146.634 165.099 159.172 152.862 168.82C140.624 178.467 126.179 184.921 110.828 187.6C95.4768 190.28 79.7003 189.1 64.9179 184.168C51.7153 179.764 39.6757 172.489 29.6532 162.891C27.6636 160.986 27.7716 157.819 29.7798 155.933C31.7879 154.047 34.9347 154.158 36.9363 156.051C45.8181 164.45 56.4415 170.824 68.0751 174.705C81.2886 179.114 95.3909 180.168 109.113 177.773C122.835 175.378 135.746 169.609 146.686 160.985C157.625 152.362 166.248 141.154 171.78 128.37C177.312 115.586 179.579 101.627 178.377 87.7499C177.175 73.8723 172.542 60.5113 164.895 48.8689C157.247 37.2265 146.825 27.668 134.566 21.0535C123.773 15.2299 111.854 11.8492 99.6519 11.124C96.902 10.9605 94.6667 8.74276 94.6667 5.98798Z" fill="#E3FF39"/>
<path d="M94.6667 5.98798C94.6667 3.2332 96.9017 0.986198 99.6526 1.1323C113.51 1.86829 127.054 5.66498 139.303 12.274C153.018 19.6739 164.677 30.3672 173.233 43.3918C181.788 56.4165 186.972 71.3639 188.316 86.8891C189.661 102.414 187.125 118.03 180.936 132.332C174.747 146.634 165.099 159.172 152.862 168.82C140.624 178.467 126.179 184.921 110.828 187.6C95.4768 190.28 79.7003 189.1 64.9179 184.168C51.7153 179.764 39.6757 172.489 29.6532 162.891C27.6636 160.986 27.7716 157.819 29.7798 155.933C31.7879 154.047 34.9347 154.158 36.9363 156.051C45.8181 164.45 56.4415 170.824 68.0751 174.705C81.2886 179.114 95.3909 180.168 109.113 177.773C122.835 175.378 135.746 169.609 146.686 160.985C157.625 152.362 166.248 141.154 171.78 128.37C177.312 115.586 179.579 101.627 178.377 87.7499C177.175 73.8723 172.542 60.5113 164.895 48.8689C157.247 37.2265 146.825 27.668 134.566 21.0535C123.773 15.2299 111.854 11.8492 99.6519 11.124C96.902 10.9605 94.6667 8.74276 94.6667 5.98798Z" stroke="#3E404C" stroke-width="2" mask="url(#path-2-outside-1_31:2001)"/>
<path d="M72.5629 94.8969C73.3843 96.4516 73.7949 98.3142 73.7949 100.485C73.7949 102.274 73.5016 103.844 72.9149 105.193C72.2403 106.865 71.1843 108.156 69.7469 109.065C68.3389 109.945 66.6229 110.385 64.5989 110.385C62.4283 110.385 60.5803 109.886 59.0549 108.889C57.5589 107.892 56.5029 106.484 55.8869 104.665C55.4469 103.433 55.2269 102.01 55.2269 100.397V86.8449C55.2269 84.4396 56.0629 82.5182 57.7349 81.0809C59.4069 79.6436 61.5923 78.9249 64.2909 78.9249C66.0216 78.9249 67.5469 79.2476 68.8669 79.8929C70.2163 80.5382 71.2576 81.4476 71.9909 82.6209C72.7243 83.7649 73.0909 85.0849 73.0909 86.5809V87.4609C73.0909 87.7542 72.9443 87.9009 72.6509 87.9009H69.3069C69.0136 87.9009 68.8669 87.7542 68.8669 87.4609V87.0649C68.8669 85.7449 68.4416 84.6742 67.5909 83.8529C66.7403 83.0316 65.6403 82.6209 64.2909 82.6209C62.8536 82.6209 61.6803 83.0462 60.7709 83.8969C59.8909 84.7476 59.4509 85.8769 59.4509 87.2849V92.8289C59.4509 92.8876 59.4656 92.9316 59.4949 92.9609C59.5536 92.9609 59.6123 92.9316 59.6709 92.8729C60.9323 91.4649 62.7656 90.7609 65.1709 90.7609C68.6323 90.7609 71.0963 92.1396 72.5629 94.8969ZM68.9109 103.873C69.3509 102.934 69.5709 101.805 69.5709 100.485C69.5709 98.9889 69.3069 97.7862 68.7789 96.8769C67.9283 95.1756 66.4909 94.3249 64.4669 94.3249C63.4403 94.3249 62.5603 94.5596 61.8269 95.0289C61.0936 95.4689 60.5363 96.1142 60.1549 96.9649C59.6856 97.9329 59.4509 99.1796 59.4509 100.705C59.4509 101.937 59.6416 102.978 60.0229 103.829C60.4043 104.768 60.9763 105.486 61.7389 105.985C62.5016 106.454 63.4256 106.689 64.5109 106.689C66.6523 106.689 68.1189 105.75 68.9109 103.873ZM95.8582 95.4689C96.4449 96.9062 96.7382 98.5636 96.7382 100.441C96.7382 101.996 96.5035 103.433 96.0342 104.753C95.3889 106.572 94.3182 107.98 92.8222 108.977C91.3262 109.945 89.5222 110.429 87.4102 110.429C85.2982 110.429 83.4649 109.886 81.9102 108.801C80.3849 107.716 79.3142 106.249 78.6982 104.401C78.3755 103.58 78.1849 102.406 78.1262 100.881C78.1262 100.588 78.2729 100.441 78.5662 100.441H81.9542C82.2475 100.441 82.3942 100.588 82.3942 100.881C82.4529 101.937 82.5702 102.714 82.7462 103.213C83.0395 104.298 83.5822 105.164 84.3742 105.809C85.1955 106.454 86.2075 106.777 87.4102 106.777C89.6395 106.777 91.1355 105.765 91.8982 103.741C92.2795 102.861 92.4702 101.717 92.4702 100.309C92.4702 98.8129 92.2355 97.4782 91.7662 96.3049C90.9449 94.4862 89.4782 93.5769 87.3662 93.5769C86.8675 93.5769 86.2369 93.7969 85.4742 94.2369C85.3569 94.2956 85.2689 94.3249 85.2102 94.3249C85.0635 94.3249 84.9462 94.2516 84.8582 94.1049L83.1862 91.8169C83.1275 91.6996 83.0982 91.5969 83.0982 91.5089C83.0982 91.4209 83.1422 91.3182 83.2302 91.2009L90.7542 83.1489C90.8422 83.0022 90.8129 82.9289 90.6662 82.9289H78.9622C78.6689 82.9289 78.5222 82.7822 78.5222 82.4889V79.7169C78.5222 79.4236 78.6689 79.2769 78.9622 79.2769H96.0342C96.3275 79.2769 96.4742 79.4236 96.4742 79.7169V82.8849C96.4742 83.0316 96.4009 83.2076 96.2542 83.4129L89.5662 90.7169C89.5075 90.7756 89.4929 90.8342 89.5222 90.8929C89.5515 90.9222 89.6102 90.9516 89.6982 90.9809C91.1942 91.1276 92.4555 91.5969 93.4822 92.3889C94.5089 93.1516 95.3009 94.1782 95.8582 95.4689ZM109.912 91.9049C108.71 91.9049 107.595 91.6116 106.568 91.0249C105.571 90.4382 104.779 89.6462 104.192 88.6489C103.606 87.6516 103.312 86.5516 103.312 85.3489C103.312 84.1756 103.606 83.0902 104.192 82.0929C104.779 81.0956 105.571 80.3182 106.568 79.7609C107.595 79.1742 108.71 78.8809 109.912 78.8809C111.086 78.8809 112.171 79.1742 113.168 79.7609C114.166 80.3476 114.958 81.1396 115.544 82.1369C116.131 83.1049 116.424 84.1756 116.424 85.3489C116.424 86.5516 116.131 87.6516 115.544 88.6489C114.958 89.6462 114.166 90.4382 113.168 91.0249C112.171 91.6116 111.086 91.9049 109.912 91.9049ZM108.636 110.077C108.46 110.077 108.343 110.033 108.284 109.945C108.226 109.828 108.24 109.696 108.328 109.549L124.96 79.5849C125.078 79.3796 125.254 79.2769 125.488 79.2769H127.644C127.82 79.2769 127.938 79.3356 127.996 79.4529C128.055 79.5409 128.04 79.6582 127.952 79.8049L111.32 109.769C111.232 109.974 111.056 110.077 110.792 110.077H108.636ZM109.912 89.3089C110.998 89.3089 111.907 88.9276 112.64 88.1649C113.374 87.4022 113.74 86.4636 113.74 85.3489C113.74 84.2636 113.359 83.3542 112.596 82.6209C111.863 81.8582 110.968 81.4769 109.912 81.4769C108.827 81.4769 107.903 81.8582 107.14 82.6209C106.378 83.3542 105.996 84.2636 105.996 85.3489C105.996 86.4636 106.378 87.4022 107.14 88.1649C107.903 88.9276 108.827 89.3089 109.912 89.3089ZM126.676 110.473C125.474 110.473 124.359 110.18 123.332 109.593C122.335 109.006 121.543 108.214 120.956 107.217C120.37 106.22 120.076 105.134 120.076 103.961C120.076 102.788 120.37 101.702 120.956 100.705C121.543 99.7076 122.335 98.9156 123.332 98.3289C124.359 97.7422 125.474 97.4489 126.676 97.4489C127.85 97.4489 128.935 97.7422 129.932 98.3289C130.93 98.9156 131.722 99.7076 132.308 100.705C132.895 101.702 133.188 102.788 133.188 103.961C133.188 105.134 132.895 106.22 132.308 107.217C131.722 108.214 130.93 109.006 129.932 109.593C128.935 110.18 127.85 110.473 126.676 110.473ZM126.676 107.877C127.762 107.877 128.671 107.496 129.404 106.733C130.138 105.97 130.504 105.046 130.504 103.961C130.504 102.876 130.123 101.952 129.36 101.189C128.627 100.426 127.732 100.045 126.676 100.045C125.591 100.045 124.667 100.426 123.904 101.189C123.142 101.952 122.76 102.876 122.76 103.961C122.76 105.046 123.142 105.97 123.904 106.733C124.667 107.496 125.591 107.877 126.676 107.877Z" fill="white"/>
</svg>
