<svg width="81" height="80" viewBox="0 0 81 80" fill="none" xmlns="http://www.w3.org/2000/svg">
<circle cx="40.6666" cy="40" r="40" fill="#484848"/>
<g clip-path="url(#clip0_31:2095)">
<path d="M56.6562 19.3302C56.6668 18.8098 56.6668 18.2851 56.6668 17.7647C56.6657 17.2944 56.4754 16.8437 56.1375 16.5112C55.7997 16.1786 55.3419 15.9913 54.8641 15.9902C54.3864 15.9913 53.9285 16.1786 53.5907 16.5112C53.2528 16.8437 53.0625 17.2944 53.0614 17.7647C53.0614 18.3249 53.0614 18.8808 53.0508 19.4368C52.5964 34.3496 39.587 37.2506 31.6183 47.4168C28.255 51.7077 26.671 56.4188 26.671 61.8384C26.671 62.294 26.671 62.7496 26.671 63.2116C26.6721 63.6818 26.8624 64.1326 27.2002 64.4651C27.5381 64.7976 27.9959 64.9849 28.4737 64.986C28.9489 64.9839 29.4041 64.7975 29.7407 64.4673C30.0773 64.1372 30.2682 63.6898 30.2721 63.222V61.8488C30.2721 41.4266 56.1317 42.0348 56.6562 19.3302Z" fill="white"/>
<path d="M37.1257 39.0384C37.6778 38.5841 38.2355 38.1334 38.7989 37.6861L39.9667 36.756C34.8389 32.5069 30.5393 27.9128 30.2823 19.4522C30.2654 18.892 30.2717 18.3361 30.2717 17.7801C30.2706 17.3098 30.0803 16.8591 29.7425 16.5266C29.4047 16.194 28.9468 16.0067 28.4691 16.0056C27.9913 16.0067 27.5334 16.194 27.1956 16.5266C26.8578 16.8591 26.6675 17.3098 26.6664 17.7801C26.6664 18.3047 26.6664 18.8252 26.677 19.3456C26.8999 28.9746 31.688 34.4109 37.1257 39.0384Z" fill="white"/>
<path d="M46.6234 54.4805H36.7119C35.9602 54.4805 35.3508 55.0798 35.3508 55.8192C35.3508 56.5585 35.9602 57.1579 36.7119 57.1579H46.6234C47.3751 57.1579 47.9844 56.5585 47.9844 55.8192C47.9844 55.0798 47.3751 54.4805 46.6234 54.4805Z" fill="#E3FF39"/>
<path d="M56.6626 61.8523C56.6626 56.4327 55.0787 51.7216 51.7154 47.4307C50.0737 45.3856 48.2286 43.507 46.2075 41.823C45.2627 42.5942 44.2966 43.355 43.356 44.1221C48.6047 48.5238 53.0615 53.377 53.0615 61.8544V63.2234C53.0626 63.6937 53.2529 64.1444 53.5908 64.4769C53.9286 64.8095 54.3864 64.9968 54.8642 64.9979C55.342 64.9968 55.7998 64.8095 56.1376 64.4769C56.4755 64.1444 56.6658 63.6937 56.6669 63.2234C56.6669 62.7636 56.6626 62.3079 56.6626 61.8523Z" fill="white"/>
<path d="M44.4793 48.7935H38.8526C38.1009 48.7935 37.4916 49.3928 37.4916 50.1322C37.4916 50.8715 38.1009 51.4709 38.8526 51.4709H44.4793C45.231 51.4709 45.8404 50.8715 45.8404 50.1322C45.8404 49.3928 45.231 48.7935 44.4793 48.7935Z" fill="#E3FF39"/>
<path d="M48.0868 60.5857H35.2473C34.4956 60.5857 33.8862 61.1851 33.8862 61.9244C33.8862 62.6637 34.4956 63.2631 35.2473 63.2631H48.0868C48.8385 63.2631 49.4478 62.6637 49.4478 61.9244C49.4478 61.1851 48.8385 60.5857 48.0868 60.5857Z" fill="#E3FF39"/>
<path d="M46.6234 23.6582H36.7119C35.9602 23.6582 35.3508 24.2576 35.3508 24.9969C35.3508 25.7362 35.9602 26.3356 36.7119 26.3356H46.6234C47.3751 26.3356 47.9844 25.7362 47.9844 24.9969C47.9844 24.2576 47.3751 23.6582 46.6234 23.6582Z" fill="#E3FF39"/>
<path d="M44.4793 29.3452H38.8526C38.1009 29.3452 37.4916 29.9446 37.4916 30.6839C37.4916 31.4233 38.1009 32.0226 38.8526 32.0226H44.4793C45.231 32.0226 45.8404 31.4233 45.8404 30.6839C45.8404 29.9446 45.231 29.3452 44.4793 29.3452Z" fill="#E3FF39"/>
<path d="M48.0868 17.762H35.2473C34.4956 17.762 33.8862 18.3613 33.8862 19.1007C33.8862 19.84 34.4956 20.4394 35.2473 20.4394H48.0868C48.8385 20.4394 49.4478 19.84 49.4478 19.1007C49.4478 18.3613 48.8385 17.762 48.0868 17.762Z" fill="#E3FF39"/>
</g>
<defs>
<clipPath id="clip0_31:2095">
<rect width="30" height="49" fill="white" transform="translate(26.6666 16)"/>
</clipPath>
</defs>
</svg>
