<svg width="80" height="80" viewBox="0 0 80 80" fill="none" xmlns="http://www.w3.org/2000/svg">
<circle cx="40" cy="40" r="40" fill="#484848"/>
<path d="M44.1545 26.7528C43.0581 25.178 42.08 23.7761 41.5496 22.9781C41.3456 22.6683 41.027 22.4521 40.6638 22.3771C40.3006 22.3021 39.9225 22.3743 39.6125 22.5778C39.4482 22.6855 39.3086 22.8268 39.2028 22.9923C38.6771 23.7903 37.7014 25.1875 36.6144 26.7505C33.8177 30.7763 30.2205 35.9293 29.1667 38.4514C28.53 39.9495 28.1991 41.5598 28.1934 43.1876C28.1941 45.4972 28.8915 47.7528 30.1944 49.6597C31.4955 51.5696 33.3248 53.0591 35.4588 53.946C36.5813 54.414 37.7659 54.7163 38.9754 54.8435V57.4296H41.7864V54.8435C42.9958 54.7156 44.1803 54.4133 45.3031 53.946C47.4367 53.0585 49.2658 51.5691 50.5674 49.6597C51.8677 47.7519 52.5626 45.4964 52.5614 43.1876C52.5545 41.5599 52.2236 39.9499 51.5881 38.4514C50.5485 35.9293 46.9513 30.7668 44.1545 26.7528ZM48.2561 48.0825C47.2594 49.5386 45.8607 50.6733 44.2303 51.3482C43.449 51.6742 42.6281 51.8956 41.7888 52.0065V48.0968L46.0064 45.6599C46.1657 45.568 46.3053 45.4455 46.4173 45.2996C46.5292 45.1536 46.6113 44.987 46.6588 44.8093C46.7063 44.6316 46.7183 44.4462 46.6942 44.2639C46.67 44.0815 46.6101 43.9057 46.5179 43.7465C46.3313 43.4251 46.0248 43.1907 45.6657 43.0948C45.3066 42.999 44.9241 43.0493 44.6021 43.235L41.7888 44.8595V39.6496L43.2096 38.8255C43.3688 38.7334 43.5082 38.6108 43.6199 38.4647C43.7316 38.3187 43.8134 38.152 43.8607 37.9743C43.908 37.7966 43.9198 37.6114 43.8954 37.4291C43.8711 37.2468 43.8111 37.0712 43.7188 36.9121C43.6268 36.7528 43.5044 36.6132 43.3584 36.5012C43.2124 36.3893 43.0458 36.3072 42.8681 36.2597C42.6904 36.2122 42.505 36.2002 42.3227 36.2243C42.1403 36.2485 41.9645 36.3084 41.8053 36.4006L41.784 36.4124V33.0071C41.7834 32.6344 41.6349 32.2772 41.3712 32.0139C41.1075 31.7507 40.75 31.6028 40.3774 31.6028C40.0051 31.6034 39.6483 31.7515 39.3851 32.0147C39.1218 32.278 38.9737 32.6348 38.9731 33.0071V36.4172L38.947 36.4006C38.625 36.2162 38.243 36.167 37.8848 36.2638C37.5266 36.3605 37.2213 36.5954 37.0359 36.9168C36.9444 37.076 36.8851 37.2517 36.8615 37.4338C36.8379 37.616 36.8504 37.8009 36.8984 37.9782C36.9463 38.1555 37.0287 38.3216 37.1409 38.467C37.2531 38.6124 37.3929 38.7342 37.5522 38.8255L38.9731 39.6473V44.8571L36.1597 43.2326C35.8377 43.047 35.4552 42.9966 35.0961 43.0925C34.737 43.1884 34.4305 43.4227 34.2439 43.7441C34.1517 43.9033 34.0918 44.0791 34.0677 44.2615C34.0435 44.4439 34.0555 44.6292 34.103 44.8069C34.1505 44.9846 34.2326 45.1512 34.3445 45.2972C34.4565 45.4432 34.5961 45.5656 34.7554 45.6576L38.9731 48.0944V52.0065C38.1337 51.8959 37.3127 51.6745 36.5315 51.3482C34.9012 50.6733 33.5024 49.5386 32.5057 48.0825C31.5212 46.6376 30.9963 44.929 30.9996 43.1805C31.0045 41.9245 31.2605 40.6821 31.7526 39.5265C32.6833 37.2981 36.1881 32.2658 38.9139 28.3537C39.4333 27.6101 39.9203 26.9076 40.375 26.2461C40.832 26.9068 41.3222 27.6101 41.8385 28.3537C44.5642 32.2658 48.069 37.2981 48.9997 39.5265C49.4918 40.6821 49.7479 41.9245 49.7528 43.1805C49.7579 44.9278 49.2363 46.6361 48.2561 48.0825Z" fill="#E3FF39"/>
<path d="M65.3575 59.1867H61.4738V39.0576H65.3433C65.5281 39.0576 65.711 39.0212 65.8816 38.9505C66.0523 38.8798 66.2074 38.7762 66.338 38.6456C66.4686 38.515 66.5722 38.3599 66.6429 38.1892C66.7136 38.0186 66.75 37.8357 66.75 37.6509V34.6529C66.7495 34.4602 66.7093 34.2697 66.6318 34.0933C66.5544 33.9169 66.4415 33.7583 66.3001 33.6275L41.2666 10.4435C41.0131 10.1729 40.6627 10.0137 40.2921 10.0008C39.9215 9.98797 39.5609 10.1225 39.2892 10.3749L14.5162 33.5328C14.3549 33.6643 14.2249 33.83 14.1356 34.018C14.0463 34.2061 14 34.4116 14 34.6197V37.6533C14 38.026 14.1479 38.3834 14.4112 38.6471C14.6744 38.9109 15.0316 39.0593 15.4043 39.06H19.2999V59.189H15.4185C15.2338 59.189 15.0509 59.2254 14.8802 59.2961C14.7095 59.3668 14.5545 59.4704 14.4238 59.6011C14.2932 59.7317 14.1896 59.8867 14.1189 60.0574C14.0482 60.2281 14.0118 60.411 14.0118 60.5957C14.0125 60.9684 14.1609 61.3256 14.4247 61.5888C14.6884 61.8521 15.0458 62 15.4185 62H65.3575C65.7298 61.9994 66.0866 61.8512 66.3498 61.588C66.6131 61.3248 66.7612 60.968 66.7618 60.5957C66.7622 60.411 66.7261 60.228 66.6557 60.0572C66.5853 59.8864 66.4819 59.7312 66.3515 59.6004C66.2211 59.4695 66.0662 59.3656 65.8957 59.2947C65.7251 59.2237 65.5423 59.187 65.3575 59.1867ZM58.6628 37.6581V59.1867H22.1108V37.6581C22.1102 37.2854 21.9617 36.9282 21.698 36.6649C21.4343 36.4016 21.0768 36.2537 20.7042 36.2537H16.811V35.2307L40.2554 13.3184L63.9367 35.2662V36.2561H60.0671C59.6951 36.2561 59.3383 36.4037 59.075 36.6666C58.8117 36.9294 58.6635 37.286 58.6628 37.6581Z" fill="white"/>
</svg>
