<svg width="81" height="80" viewBox="0 0 81 80" fill="none" xmlns="http://www.w3.org/2000/svg">
<circle cx="40.3335" cy="40" r="40" fill="#484848"/>
<path d="M40.8284 66C40.1511 65.9998 39.4818 65.8531 38.8665 65.5699C38.2513 65.2867 37.7046 64.8737 37.264 64.3593C36.8235 63.8449 36.4994 63.2413 36.3142 62.5899C36.129 61.9385 36.0869 61.2547 36.1909 60.5856L37.1695 54.2976C37.2325 53.8912 37.1586 53.4753 36.9596 53.1154C36.7606 52.7554 36.4477 52.4717 36.07 52.3088L35.9309 52.2495C35.5445 52.0697 35.1077 52.0291 34.6948 52.1347C34.2819 52.2403 33.9183 52.4856 33.6657 52.8288L29.9019 57.9787C29.5039 58.5291 28.991 58.9866 28.3989 59.3194C27.8067 59.6523 27.1493 59.8526 26.4721 59.9065C25.795 59.9605 25.1141 59.8668 24.4767 59.6319C23.8393 59.397 23.2605 59.0266 22.7803 58.5461C22.3001 58.0657 21.93 57.4867 21.6955 56.8493C21.4611 56.2118 21.3678 55.531 21.4222 54.854C21.4767 54.177 21.6775 53.5198 22.0108 52.928C22.3441 52.3361 22.802 51.8237 23.3528 51.4262L28.6427 47.5603C28.9787 47.312 29.2218 46.9582 29.333 46.5555C29.4442 46.1528 29.4172 45.7245 29.2563 45.3389L29.2404 45.2978C29.0866 44.9029 28.8029 44.572 28.4359 44.3598C28.069 44.1475 27.6407 44.0665 27.2216 44.1301L20.7478 45.1359C20.0786 45.2401 19.3948 45.1982 18.7433 45.0132C18.0919 44.8281 17.4882 44.5043 16.9738 44.0638C16.4593 43.6234 16.0464 43.0768 15.7632 42.4617C15.4801 41.8466 15.3335 41.1775 15.3335 40.5004C15.3335 39.8232 15.4801 39.1541 15.7632 38.539C16.0464 37.9239 16.4593 37.3773 16.9738 36.9369C17.4882 36.4965 18.0919 36.1726 18.7433 35.9875C19.3948 35.8025 20.0786 35.7606 20.7478 35.8648L27.2216 36.8706C27.6407 36.9342 28.069 36.8532 28.4359 36.6409C28.8029 36.4287 29.0866 36.0978 29.2404 35.7028L29.2563 35.6618C29.4172 35.2762 29.4442 34.8479 29.333 34.4452C29.2218 34.0425 28.9787 33.6887 28.6427 33.4404L23.3528 29.5677C22.8069 29.1678 22.354 28.6547 22.0251 28.0634C21.6962 27.4721 21.4991 26.8166 21.4473 26.142C21.3956 25.4674 21.4904 24.7896 21.7252 24.155C21.9601 23.5205 22.3294 22.9442 22.8079 22.4658C23.2864 21.9874 23.8628 21.6181 24.4974 21.3833C25.1321 21.1485 25.81 21.0537 26.4847 21.1055C27.1595 21.1572 27.815 21.3542 28.4064 21.6831C28.9978 22.0119 29.5111 22.4648 29.911 23.0106L33.6748 28.1628C33.928 28.5053 34.2916 28.75 34.7043 28.8555C35.117 28.9611 35.5534 28.921 35.94 28.7421L36.0791 28.6805C36.4569 28.5183 36.77 28.2351 36.969 27.8754C37.1681 27.5158 37.2418 27.1001 37.1786 26.694L36.2 20.406C36.097 19.7374 36.1398 19.0544 36.3255 18.4039C36.5112 17.7534 36.8354 17.1507 37.2759 16.6372C37.7164 16.1237 38.2627 15.7115 38.8775 15.4289C39.4923 15.1463 40.1609 15 40.8375 15C41.5141 15 42.1828 15.1463 42.7975 15.4289C43.4123 15.7115 43.9587 16.1237 44.3992 16.6372C44.8397 17.1507 45.1639 17.7534 45.3496 18.4039C45.5353 19.0544 45.5781 19.7374 45.475 20.406L44.5375 26.4317C44.4744 26.8536 44.5577 27.2844 44.7735 27.6525C44.9893 28.0205 45.3246 28.3036 45.7237 28.4547L45.9814 28.5551C46.364 28.7092 46.787 28.7314 47.1836 28.6182C47.5802 28.5051 47.9277 28.2629 48.1713 27.9301L51.7663 23.0106C52.165 22.4612 52.6781 22.0048 53.2704 21.6729C53.8626 21.3411 54.5198 21.1417 55.1966 21.0885C55.8734 21.0353 56.5537 21.1295 57.1905 21.3648C57.8274 21.6 58.4055 21.9706 58.8852 22.451C59.3648 22.9314 59.7345 23.5101 59.9687 24.1473C60.2028 24.7844 60.2959 25.4647 60.2415 26.1413C60.1871 26.8179 59.9866 27.4747 59.6536 28.0662C59.3207 28.6578 58.8633 29.1701 58.3131 29.5677L53.5456 33.0504C53.2053 33.3021 52.9606 33.662 52.8516 34.0709C52.7426 34.4799 52.7758 34.9138 52.9457 35.3014C52.9958 35.4155 53.0437 35.5295 53.0916 35.6458C53.2488 36.0304 53.5318 36.3503 53.8943 36.5533C54.2569 36.7563 54.6775 36.8304 55.0876 36.7634L60.9181 35.8511C61.5873 35.7467 62.2711 35.7885 62.9227 35.9734C63.5742 36.1583 64.1779 36.482 64.6924 36.9224C65.207 37.3627 65.6201 37.9091 65.9033 38.5242C66.1866 39.1393 66.3334 39.8084 66.3335 40.4855C66.3337 41.1629 66.1872 41.8322 65.904 42.4476C65.6209 43.0629 65.2079 43.6096 64.6933 44.0502C64.1788 44.4908 63.5749 44.8148 62.9232 44.9998C62.2715 45.1849 61.5875 45.2266 60.9181 45.1222L55.0876 44.2099C54.6773 44.1408 54.2558 44.214 53.8927 44.4172C53.5297 44.6205 53.2471 44.9416 53.0916 45.3275C53.0437 45.4438 52.9958 45.5556 52.9457 45.6719C52.776 46.0592 52.7429 46.4927 52.8519 46.9013C52.9609 47.3099 53.2055 47.6693 53.5456 47.9207L58.3131 51.4056C58.8606 51.8048 59.3151 52.3178 59.6455 52.9093C59.9758 53.5008 60.1741 54.1569 60.2267 54.8323C60.2792 55.5077 60.1849 56.1865 59.9501 56.822C59.7153 57.4575 59.3456 58.0347 58.8665 58.5137C58.3873 58.9928 57.8101 59.3624 57.1745 59.5972C56.5389 59.8319 55.86 59.9262 55.1844 59.8737C54.5089 59.8211 53.8527 59.6228 53.2611 59.2926C52.6695 58.9623 52.1564 58.5079 51.7572 57.9604L48.1622 53.0592C47.9187 52.7263 47.5713 52.484 47.1747 52.3704C46.7782 52.2568 46.3551 52.2785 45.9723 52.432L45.7145 52.5323C45.3153 52.6838 44.9799 52.9673 44.7641 53.3358C44.5484 53.7042 44.4652 54.1353 44.5284 54.5576L45.4659 60.5833C45.5695 61.2523 45.5272 61.9358 45.3418 62.5869C45.1564 63.238 44.8323 63.8414 44.3918 64.3555C43.9513 64.8696 43.4047 65.2824 42.7896 65.5654C42.1745 65.8485 41.5055 65.9952 40.8284 65.9954V66ZM35.1393 50.523C35.6309 50.5242 36.1167 50.6291 36.565 50.8309L36.6882 50.8856C37.3799 51.1863 37.9529 51.7072 38.318 52.3671C38.6831 53.0271 38.8198 53.7891 38.707 54.5348L37.7238 60.825C37.655 61.2719 37.6837 61.7284 37.8079 62.1632C37.9321 62.598 38.1488 63.0007 38.4433 63.3439C38.7377 63.6871 39.1029 63.9626 39.5138 64.1514C39.9247 64.3403 40.3716 64.438 40.8238 64.438C41.2761 64.438 41.723 64.3403 42.1339 64.1514C42.5448 63.9626 42.9099 63.6871 43.2044 63.3439C43.4989 63.0007 43.7156 62.598 43.8398 62.1632C43.964 61.7284 43.9927 61.2719 43.9239 60.825L42.9863 54.7994C42.868 54.0242 43.0196 53.2319 43.4158 52.5551C43.8119 51.8784 44.4286 51.3582 45.1625 51.0818L45.3906 50.9951C46.0929 50.7101 46.8703 50.6676 47.5995 50.8741C48.3288 51.0807 48.9683 51.5245 49.4168 52.1355L53.0072 57.0641C53.2747 57.4286 53.6179 57.731 54.0131 57.9505C54.4084 58.17 54.8465 58.3015 55.2973 58.3359C55.7482 58.3703 56.2011 58.3069 56.6252 58.1499C57.0492 57.993 57.4343 57.7462 57.754 57.4265C58.0737 57.1068 58.3205 56.7218 58.4775 56.2979C58.6345 55.8739 58.698 55.421 58.6636 54.9702C58.6291 54.5195 58.4976 54.0815 58.2781 53.6863C58.0585 53.2911 57.7561 52.948 57.3915 52.6806L52.624 49.1979C51.9973 48.7373 51.5462 48.077 51.3451 47.3258C51.1439 46.5745 51.2048 45.7772 51.5177 45.0652L51.6477 44.7596C51.9362 44.0504 52.4567 43.4599 53.1241 43.0846C53.7916 42.7093 54.5666 42.5713 55.3226 42.6933L61.1531 43.6056C61.6005 43.6755 62.0578 43.6477 62.4935 43.5242C62.9291 43.4006 63.3329 43.1842 63.6769 42.8898C64.021 42.5954 64.2972 42.23 64.4866 41.8187C64.676 41.4074 64.7741 40.96 64.7741 40.5072C64.7741 40.0544 64.676 39.607 64.4866 39.1957C64.2972 38.7844 64.021 38.419 63.6769 38.1246C63.3329 37.8302 62.9291 37.6138 62.4935 37.4902C62.0578 37.3666 61.6005 37.3389 61.1531 37.4088L55.3226 38.3211C55.1459 38.3482 54.9675 38.3619 54.7888 38.3622C54.1142 38.364 53.4544 38.1641 52.8943 37.7882C52.3342 37.4122 51.8993 36.8774 51.6454 36.2525C51.6044 36.1522 51.561 36.0495 51.5177 35.9492C51.2048 35.2372 51.1439 34.4398 51.3451 33.6886C51.5462 32.9373 51.9973 32.277 52.624 31.8165L57.3915 28.3315C57.7523 28.0628 58.0509 27.7196 58.2673 27.3253C58.4837 26.9309 58.6127 26.4947 58.6456 26.0461C58.6784 25.5975 58.6144 25.1471 58.4578 24.7255C58.3013 24.3038 58.0558 23.9208 57.7381 23.6023C57.4205 23.2839 57.038 23.0375 56.6167 22.8798C56.1954 22.7222 55.745 22.657 55.2963 22.6887C54.8476 22.7204 54.4109 22.8483 54.016 23.0636C53.621 23.2789 53.277 23.5766 53.0072 23.9366L49.4122 28.8538C48.965 29.4664 48.3262 29.9123 47.5969 30.1209C46.8677 30.3296 46.0896 30.289 45.3861 30.0056L45.1579 29.9166C44.424 29.6402 43.8074 29.12 43.4112 28.4433C43.015 27.7665 42.8634 26.9742 42.9818 26.1991L43.9193 20.1734C43.9881 19.7265 43.9594 19.27 43.8352 18.8352C43.711 18.4004 43.4943 17.9977 43.1998 17.6545C42.9054 17.3113 42.5402 17.0358 42.1293 16.847C41.7184 16.6581 41.2715 16.5604 40.8193 16.5604C40.367 16.5604 39.9202 16.6581 39.5093 16.847C39.0984 17.0358 38.7332 17.3113 38.4387 17.6545C38.1443 17.9977 37.9275 18.4004 37.8033 18.8352C37.6791 19.27 37.6505 19.7265 37.7192 20.1734L38.6978 26.4613C38.8105 27.2073 38.6734 27.9695 38.3079 28.6295C37.9424 29.2895 37.3689 29.8102 36.6768 30.1105L36.5559 30.1652C35.8449 30.4922 35.0426 30.563 34.2854 30.3655C33.5281 30.168 32.8626 29.7144 32.402 29.0819L28.6359 23.932C28.3695 23.5641 28.0263 23.2583 27.6301 23.036C27.2338 22.8137 26.7941 22.6801 26.3411 22.6445C25.8882 22.6089 25.4329 22.6721 25.0068 22.8297C24.5807 22.9873 24.1939 23.2356 23.8732 23.5574C23.5526 23.8792 23.3056 24.2668 23.1495 24.6934C22.9934 25.1201 22.9319 25.5755 22.9692 26.0282C23.0065 26.4809 23.1417 26.9202 23.3655 27.3155C23.5892 27.7108 23.8963 28.0528 24.2653 28.3179L29.5574 32.1951C30.1748 32.6474 30.6226 33.2936 30.8294 34.0304C31.0361 34.7671 30.9899 35.5519 30.698 36.2593L30.682 36.2958C30.3971 37.016 29.8761 37.6181 29.2045 38.0038C28.5328 38.3895 27.7501 38.536 26.9843 38.4192L20.5083 37.4134C20.0608 37.3435 19.6036 37.3712 19.1679 37.4948C18.7322 37.6183 18.3285 37.8347 17.9844 38.1292C17.6404 38.4236 17.3641 38.789 17.1747 39.2003C16.9854 39.6116 16.8873 40.059 16.8873 40.5117C16.8873 40.9645 16.9854 41.412 17.1747 41.8232C17.3641 42.2345 17.6404 42.5999 17.9844 42.8943C18.3285 43.1887 18.7322 43.4052 19.1679 43.5287C19.6036 43.6523 20.0608 43.68 20.5083 43.6101L26.9843 42.6043C27.7501 42.4875 28.5328 42.634 29.2045 43.0197C29.8761 43.4054 30.3971 44.0075 30.682 44.7277L30.698 44.7642C30.9893 45.4713 31.0353 46.2556 30.8285 46.9919C30.6218 47.7281 30.1743 48.3739 29.5574 48.8261L24.2653 52.6806C23.9007 52.948 23.5983 53.2911 23.3787 53.6863C23.1592 54.0815 23.0277 54.5195 22.9932 54.9702C22.9588 55.421 23.0223 55.8739 23.1793 56.2979C23.3363 56.7218 23.5831 57.1068 23.9028 57.4265C24.2225 57.7462 24.6076 57.993 25.0316 58.1499C25.4557 58.3069 25.9086 58.3703 26.3595 58.3359C26.8103 58.3015 27.2484 58.17 27.6437 57.9505C28.0389 57.731 28.3821 57.4286 28.6496 57.0641L32.4111 51.9188C32.723 51.4869 33.1329 51.1352 33.6072 50.8926C34.0814 50.6499 34.6065 50.5233 35.1393 50.523Z" fill="white" stroke="white" stroke-width="1.22" stroke-miterlimit="10"/>
<g clip-path="url(#clip0_31:2137)">
<path d="M37.0369 46.1324C36.6198 46.1324 36.2121 46.0138 35.8653 45.7915C35.5184 45.5692 35.2481 45.2532 35.0885 44.8836C34.9289 44.5139 34.8871 44.1072 34.9685 43.7148C35.0499 43.3223 35.2507 42.9619 35.5457 42.6789C35.8406 42.396 36.2164 42.2034 36.6255 42.1253C37.0346 42.0472 37.4586 42.0873 37.844 42.2404C38.2293 42.3935 38.5587 42.6528 38.7904 42.9855C39.0222 43.3182 39.1459 43.7093 39.1459 44.1094C39.1453 44.6458 38.9229 45.16 38.5275 45.5393C38.1322 45.9185 37.5961 46.1318 37.0369 46.1324ZM37.0369 43.5387C36.9193 43.5387 36.8042 43.5722 36.7064 43.6349C36.6086 43.6976 36.5323 43.7868 36.4873 43.891C36.4422 43.9953 36.4305 44.11 36.4534 44.2207C36.4764 44.3315 36.533 44.4332 36.6162 44.513C36.6994 44.5928 36.8055 44.6471 36.9209 44.6692C37.0363 44.6912 37.1559 44.6799 37.2646 44.6367C37.3733 44.5935 37.4662 44.5203 37.5316 44.4265C37.597 44.3326 37.6319 44.2223 37.6319 44.1094C37.6319 43.9581 37.5692 43.8129 37.4576 43.7059C37.346 43.5988 37.1947 43.5387 37.0369 43.5387Z" fill="#E3FF39"/>
<path d="M43.9101 38.2619C43.3673 38.2623 42.8365 38.1082 42.3849 37.8192C41.9333 37.5301 41.5813 37.1191 41.3734 36.6381C41.1654 36.157 41.1109 35.6276 41.2167 35.1169C41.3225 34.6061 41.5839 34.1369 41.9677 33.7687C42.3516 33.4005 42.8407 33.1498 43.3732 33.0483C43.9056 32.9468 44.4575 32.9991 44.959 33.1986C45.4604 33.398 45.8889 33.7357 46.1903 34.1689C46.4916 34.6021 46.6522 35.1112 46.6518 35.632C46.6506 36.3291 46.3614 36.9974 45.8475 37.4903C45.3336 37.9833 44.6369 38.2607 43.9101 38.2619ZM43.9101 34.4522C43.6668 34.4518 43.4288 34.5207 43.2263 34.65C43.0237 34.7794 42.8657 34.9635 42.7723 35.179C42.6789 35.3945 42.6542 35.6318 42.7014 35.8608C42.7486 36.0898 42.8656 36.3002 43.0375 36.4654C43.2094 36.6306 43.4285 36.7432 43.6672 36.7889C43.9058 36.8346 44.1532 36.8113 44.378 36.7221C44.6029 36.6329 44.7951 36.4817 44.9303 36.2876C45.0656 36.0936 45.1378 35.8654 45.1378 35.632C45.1378 35.3195 45.0085 35.0197 44.7783 34.7985C44.5482 34.5774 44.2359 34.4528 43.9101 34.4522Z" fill="#E3FF39"/>
<path d="M47.3177 42.2607C47.4373 41.5537 46.9368 40.8876 46.1998 40.7728C45.4628 40.6581 44.7684 41.1382 44.6487 41.8452C44.5291 42.5521 45.0296 43.2183 45.7666 43.333C46.5036 43.4478 47.1981 42.9677 47.3177 42.2607Z" fill="#E3FF39"/>
<path d="M44.2331 47.6191C44.7611 47.1127 44.7611 46.2916 44.2331 45.7851C43.7052 45.2787 42.8492 45.2787 42.3212 45.7851C41.7932 46.2916 41.7932 47.1127 42.3212 47.6192C42.8492 48.1256 43.7052 48.1256 44.2331 47.6191Z" fill="#E3FF39"/>
<path d="M36.2035 38.732C36.8933 38.4579 37.2208 37.6993 36.9351 37.0376C36.6494 36.3759 35.8585 36.0617 35.1687 36.3357C34.4789 36.6098 34.1513 37.3684 34.437 38.0302C34.7228 38.6919 35.5136 39.0061 36.2035 38.732Z" fill="#E3FF39"/>
</g>
<defs>
<clipPath id="clip0_31:2137">
<rect width="13" height="15" fill="white" transform="translate(34.3335 33)"/>
</clipPath>
</defs>
</svg>
