<svg width="11" height="11" viewBox="0 0 11 11" fill="none" xmlns="http://www.w3.org/2000/svg">
<path d="M1.71437 0.723358C1.44081 0.449799 0.997283 0.449799 0.723724 0.723358C0.450165 0.996917 0.450165 1.44044 0.723724 1.714L4.76888 5.75916L0.723766 9.80427C0.450207 10.0778 0.450207 10.5214 0.723766 10.7949C0.997325 11.0685 1.44085 11.0685 1.71441 10.7949L5.75952 6.7498L9.80463 10.7949C10.0782 11.0685 10.5217 11.0685 10.7953 10.7949C11.0688 10.5214 11.0688 10.0778 10.7953 9.80427L6.75017 5.75916L10.7953 1.714C11.0689 1.44044 11.0689 0.996917 10.7953 0.723358C10.5218 0.449799 10.0782 0.449799 9.80467 0.723358L5.75952 4.76851L1.71437 0.723358Z" fill="#5C068C"/>
</svg>
