<svg width="130" height="70" viewBox="0 0 130 70" fill="none" xmlns="http://www.w3.org/2000/svg">
<g clip-path="url(#clip0_260_4978)">
<path d="M21.5403 52.1894C20.2667 54.7707 17.9501 58.7843 12.1056 58.7843C5.21803 58.7843 0.158203 53.9206 0.158203 47.1949C0.158203 38.6104 7.56891 35.4094 12.6287 35.4094C15.7425 35.4094 18.4701 36.2252 20.8552 36.9663C20.7587 38.0125 20.7587 38.9902 20.7587 40.0364C20.7427 40.984 20.7749 41.9318 20.8552 42.8762L20.136 43.7916L19.289 43.5301C18.8967 40.9612 18.1463 37.0535 12.6599 37.0535C8.84243 37.0535 5.38306 39.7967 5.38306 47.2074C5.38306 52.1676 7.30735 56.8382 13.018 56.8382C17.1655 56.8382 18.8967 54.0358 20.1796 52.3015L21.288 51.8095L21.5403 52.1894Z" fill="white"/>
<path d="M22.6703 50.5268C22.6703 47.1017 25.7373 42.9822 31.1895 42.9822C36.0874 42.9822 39.5468 46.2485 39.5468 50.916C39.5468 55.3562 36.1528 58.7844 30.9279 58.7844C25.51 58.7844 22.6703 54.8673 22.6703 50.5268ZM31.4199 57.3147C33.3131 57.3147 35.1097 55.3562 35.1097 51.7972C35.1097 48.0109 33.8642 44.4519 30.8657 44.4519C28.1878 44.4519 27.1105 46.9429 27.1105 49.6425C27.1105 54.6712 28.8729 57.3147 31.4199 57.3147Z" fill="white"/>
<path d="M42.0258 38.9997C42.0258 37.7542 41.8608 37.0412 40.6247 37.0412H39.7404L39.4788 36.6177L40.4129 35.7365L46.3539 34.7588L46.192 46.1177C47.6306 44.6169 49.3058 42.9822 51.7407 42.9822C56.3428 42.9822 57.1929 46.4073 57.1929 48.7955V54.31C57.1929 57.022 57.5852 57.0874 60.1976 57.3147L60.4249 57.5763L59.6309 58.4263C58.1955 58.2924 56.7601 58.2302 55.3215 58.2302C53.5903 58.2302 51.8622 58.3267 50.1309 58.4263L49.8694 58.0651L50.6852 57.3147C52.4818 56.9255 52.7776 56.7916 52.7776 54.31V49.5459C52.7776 47.3912 52.2856 45.2708 49.9036 45.2708C46.8988 45.2708 46.4785 47.9455 46.4785 49.5459V54.31C46.4785 57.022 46.7899 57.0874 49.1221 57.3147L49.3525 57.5763L48.5336 58.4263C47.0981 58.2924 45.6627 58.2302 44.2241 58.2302C42.6237 58.2302 40.9921 58.3267 39.3916 58.4263L39.1332 58.0651L39.949 57.3147C41.7456 56.9255 42.0383 56.7916 42.0383 54.31L42.0258 38.9997Z" fill="white"/>
<path d="M74.6664 56.4335C72.5364 57.9904 69.9592 58.8152 67.3211 58.7844C63.2078 58.7844 60.2373 56.0755 60.2373 51.2772C60.2373 45.9838 63.404 42.9822 68.0403 42.9822C70.7493 42.9822 74.9279 44.648 74.9279 48.4997C74.9491 49.0425 74.8721 49.5847 74.7006 50.1002H64.6775C64.7771 53.3665 65.9479 56.4989 69.0367 56.4989C71.8391 56.4989 73.3773 55.0977 74.6197 54.2477L75.0089 54.475L74.6664 56.4335ZM70.6185 48.8921C70.6185 46.6408 69.9958 44.4519 67.9407 44.4519C65.5587 44.4519 64.7086 46.7062 64.7086 49.0882L70.6185 48.8921Z" fill="white"/>
<path d="M79.0222 47.2605C79.0222 46.015 78.8634 45.3019 77.6521 45.3019H76.7554L76.4938 44.8784L77.428 43.9941L83.4686 42.9822L83.1105 47.2293L83.1728 47.2947C84.1536 45.1151 85.6638 42.9822 87.2207 42.9822C88.0365 42.9822 88.8211 43.5053 89.5715 43.8976L89.9296 44.4207L87.9648 47.7524C86.9217 46.7062 86.464 46.0866 85.5828 46.0866C83.4624 46.0866 83.4624 49.6113 83.4624 50.5237V54.31C83.4624 57.022 83.8205 57.0874 86.1371 57.3147L86.3364 57.5763L85.5517 58.4263C84.1132 58.2924 82.6777 58.2302 81.2423 58.2302C79.6076 58.2302 78.0102 58.3267 76.3755 58.4263L76.1171 58.0651L76.964 57.3147C78.7295 56.9255 79.0191 56.7916 79.0191 54.31L79.0222 47.2605Z" fill="white"/>
<path d="M109.45 58.2924C108.7 58.2644 107.949 58.2302 107.164 58.2302C105.991 58.2302 104.848 58.3267 103.705 58.3921C103.836 57.0874 103.901 56.2716 104.063 55.2254L103.998 55.16C103.344 55.9758 101.55 58.7844 98.2187 58.7844C94.367 58.7844 92.7696 56.2716 92.7696 51.7972V47.0985C92.7696 45.9558 92.6046 45.3019 91.3965 45.3019H90.4842L90.2195 44.8753L91.1692 43.9941L97.2098 42.9822V53.3011C97.2098 54.7365 97.9602 56.4989 100.18 56.4989C102.671 56.4989 103.509 53.6966 103.509 51.7972V47.0985C103.509 45.9558 103.344 45.3019 102.139 45.3019H101.223L100.962 44.8753L101.896 43.9941L107.937 42.9822V54.1481C107.937 56.857 108.622 56.9504 109.992 57.1839L110.188 57.4953L109.45 58.2924Z" fill="white"/>
<path d="M121.102 47.3912C120.576 46.0523 119.763 44.4518 117.447 44.4518C116.008 44.4518 114.996 45.3019 114.996 46.345C114.996 47.6185 115.93 47.9019 118.228 48.5993C120.841 49.4151 123.388 50.2309 123.388 53.4941C123.388 57.4766 119.651 58.7875 116.849 58.7875C114.778 58.7882 112.737 58.2837 110.905 57.3178C110.988 56.8221 111.021 56.3193 111.004 55.817C111.017 55.2495 110.984 54.682 110.905 54.12L111.92 53.2045L112.312 53.3665C112.77 54.7396 113.748 57.3178 116.457 57.3178C118.013 57.3178 119.134 56.1751 119.134 54.9358C119.134 53.435 117.599 52.943 116.021 52.3888C114.059 51.8003 111.384 50.9502 111.384 47.9174C111.384 44.4923 114.551 42.9853 117.26 42.9853C119.009 42.9669 120.739 43.347 122.32 44.0969C122.254 44.9438 122.22 45.3704 122.22 46.7716L121.597 47.3943L121.102 47.3912Z" fill="white"/>
<path d="M89.6601 15.4971C104.257 13.221 110.36 24.5083 111.54 34.5657C110.983 30.7233 114.567 21.488 114.218 13.9434C108.847 12.6232 100.829 12.7602 89.6508 15.5003" fill="white"/>
<path d="M87.443 8.67492C85.0448 11.1725 82.8489 13.8566 80.8761 16.7021C83.3462 15.7132 85.874 14.8751 88.4456 14.1925C88.8597 14.0773 89.2583 13.9807 89.6662 13.8811C100.801 11.0258 108.831 10.8047 114.215 12.0658C113.312 -3.90148 98.8299 -2.94556 87.4367 8.68114" fill="white"/>
<path d="M116.117 14.1145C116.462 21.6653 112.879 30.8944 113.433 34.7337C113.545 35.4779 113.803 36.0197 114.277 36.3092C115.245 36.8946 116.416 36.6985 117.618 35.9605C124.156 31.9438 125.654 16.4591 116.117 14.1145Z" fill="white"/>
<path d="M65.8767 36.5117C69.5914 39.1677 75.8874 31.7009 79.2844 27.1549C81.7754 23.8387 84.7646 19.822 88.2769 16.0637C71.1358 20.3856 60.2315 32.4794 65.8767 36.5117Z" fill="white"/>
<path d="M56.782 63.0314H59.6996C60.3521 62.9932 60.994 63.2097 61.49 63.6355C61.6329 63.7802 61.7457 63.9519 61.8216 64.1406C61.8975 64.3293 61.9351 64.5313 61.9321 64.7346V64.7658C61.9384 65.1106 61.8371 65.4488 61.6424 65.7334C61.4476 66.0179 61.1691 66.2348 60.8454 66.3538C61.6581 66.5967 62.312 67.0668 62.312 68.0072V68.0259C62.312 69.1997 61.3249 69.8941 59.821 69.8941H56.7758L56.782 63.0314ZM59.5844 66.086C60.5185 66.086 61.163 65.6625 61.163 64.8592V64.8405C61.163 64.1648 60.6212 63.7258 59.6435 63.7258H57.5573V66.086H59.5844ZM59.8584 69.1998C60.8983 69.1998 61.5429 68.7389 61.5429 67.9792V67.9574C61.5429 67.2132 60.9201 66.7835 59.7214 66.7835H57.5449V69.1998H59.8584Z" fill="white"/>
<path d="M64.4319 63.0315H63.6597V69.888H64.4319V63.0315Z" fill="white"/>
<path d="M65.7996 66.4785V66.4567C65.7844 65.989 65.8633 65.523 66.0315 65.0863C66.1997 64.6497 66.4539 64.2512 66.7789 63.9146C67.104 63.5779 67.4933 63.31 67.9238 63.1265C68.3542 62.9431 68.8172 62.8479 69.2851 62.8467C69.7531 62.8454 70.2165 62.9381 70.648 63.1193C71.0794 63.3004 71.4701 63.5663 71.797 63.9012C72.1238 64.2361 72.3801 64.6331 72.5506 65.0689C72.7212 65.5047 72.8026 65.9702 72.7899 66.438V66.4567C72.8053 66.9243 72.7266 67.3903 72.5585 67.8271C72.3905 68.2638 72.1365 68.6623 71.8116 68.9991C71.4867 69.3359 71.0976 69.604 70.6672 69.7876C70.2368 69.9712 69.7739 70.0666 69.306 70.068C68.838 70.0695 68.3746 69.977 67.943 69.7961C67.5115 69.6152 67.1207 69.3495 66.7937 69.0147C66.4667 68.68 66.2102 68.283 66.0395 67.8474C65.8687 67.4117 65.7871 66.9462 65.7996 66.4785ZM71.9866 66.4785V66.4567C71.9866 64.8998 70.8501 63.6263 69.2838 63.6263C67.7176 63.6263 66.6029 64.8718 66.6029 66.4286V66.4473C66.6029 68.0042 67.7394 69.2777 69.3056 69.2777C70.8719 69.2777 71.9866 68.0322 71.9866 66.4753" fill="white"/>
<path d="M73.7827 68.8854L74.2622 68.3187C74.5698 68.6287 74.9362 68.874 75.3399 69.0403C75.7436 69.2066 76.1765 69.2905 76.6131 69.2871C77.5472 69.2871 78.142 68.7983 78.142 68.1195V68.1039C78.142 67.4656 77.7994 67.1044 76.3609 66.7992C74.7822 66.4567 74.0598 65.9492 74.0598 64.822V64.8033C74.0598 63.726 74.994 62.9351 76.308 62.9351C77.1873 62.9098 78.0452 63.209 78.718 63.7758L78.2696 64.3736C77.7205 63.8954 77.0174 63.6312 76.2893 63.6294C75.3987 63.6294 74.832 64.1214 74.832 64.7348V64.766C74.832 65.4105 75.1839 65.7748 76.7003 66.0955C78.2167 66.4162 78.9328 66.9892 78.9328 68.0354V68.0541C78.9328 69.2311 77.9551 69.9939 76.5944 69.9939C75.5536 70.0055 74.5489 69.6125 73.7921 68.8979" fill="white"/>
<path d="M80.0293 66.4783V66.4565C80.0168 65.9946 80.0972 65.5349 80.2658 65.1046C80.4343 64.6744 80.6876 64.2824 81.0105 63.9519C81.3335 63.6214 81.7195 63.3592 82.1458 63.1807C82.572 63.0023 83.0297 62.9113 83.4918 62.9131C83.9885 62.8977 84.4829 62.9861 84.9435 63.1727C85.404 63.3593 85.8206 63.6399 86.1665 63.9967L85.6372 64.5665C85.3599 64.2731 85.026 64.039 84.6556 63.8785C84.2853 63.7179 83.8862 63.6342 83.4825 63.6324C81.9661 63.6324 80.8296 64.8779 80.8296 66.4347V66.4534C80.8296 68.0383 81.9754 69.2838 83.4825 69.2838C84.4166 69.2838 85.0393 68.9226 85.6963 68.2936L86.207 68.7949C85.8643 69.1823 85.4414 69.4904 84.9677 69.6979C84.494 69.9055 83.9809 70.0075 83.4638 69.9969C83.0058 69.997 82.5523 69.9053 82.1304 69.7272C81.7084 69.5491 81.3264 69.2881 81.0071 68.9598C80.6878 68.6314 80.4375 68.2424 80.2712 67.8156C80.1048 67.3888 80.0258 66.9331 80.0387 66.4752" fill="white"/>
<path d="M88.5135 63.0315H87.7382V69.888H88.5135V63.0315Z" fill="white"/>
<path d="M90.4231 63.0315H95.377V63.7352H91.1953V66.0767H94.938V66.7804H91.1953V69.178H95.4269V69.8848H90.4231V63.0315Z" fill="white"/>
<path d="M97.0322 63.0315H97.7577L102.073 68.521V63.0315H102.827V69.8848H102.21L97.7858 64.2614V69.8848H97.0322V63.0315Z" fill="white"/>
<path d="M104.089 66.4785V66.4567C104.077 65.9945 104.158 65.5346 104.328 65.1044C104.497 64.6741 104.751 64.2822 105.074 63.9518C105.398 63.6213 105.784 63.3592 106.211 63.1808C106.637 63.0024 107.095 62.9115 107.558 62.9133C108.054 62.8981 108.548 62.9867 109.008 63.1733C109.468 63.3598 109.884 63.6404 110.229 63.9969L109.7 64.5667C109.423 64.2731 109.09 64.0389 108.72 63.8783C108.35 63.7177 107.952 63.6341 107.548 63.6326C106.029 63.6326 104.892 64.8781 104.892 66.4349V66.4536C104.892 68.0385 106.038 69.284 107.548 69.284C108.482 69.284 109.105 68.9228 109.762 68.2938L110.267 68.7951C109.925 69.1825 109.502 69.4908 109.029 69.6983C108.556 69.9059 108.043 70.0078 107.526 69.997C107.068 69.9972 106.615 69.9055 106.193 69.7274C105.771 69.5493 105.389 69.2883 105.07 68.96C104.75 68.6316 104.5 68.2426 104.334 67.8158C104.167 67.389 104.088 66.9333 104.101 66.4754" fill="white"/>
<path d="M111.369 63.0315H116.323V63.7352H112.144V66.0767H115.884V66.7804H112.144V69.178H116.373V69.8848H111.369V63.0315Z" fill="white"/>
<path d="M117.213 68.8853L117.692 68.3186C117.999 68.6286 118.365 68.874 118.768 69.0403C119.171 69.2066 119.604 69.2905 120.04 69.2869C120.974 69.2869 121.569 68.7981 121.569 68.1193V68.1037C121.569 67.4654 121.226 67.1042 119.788 66.7991C118.209 66.4566 117.487 65.949 117.487 64.8218V64.8032C117.487 63.7258 118.436 62.9349 119.738 62.9349C120.617 62.9089 121.474 63.2083 122.145 63.7756L121.697 64.3735C121.148 63.8948 120.444 63.6305 119.716 63.6293C118.829 63.6293 118.262 64.1212 118.262 64.7347V64.7658C118.262 65.4103 118.614 65.7746 120.13 66.0954C121.647 66.4161 122.363 66.989 122.363 68.0352V68.0539C122.363 69.2309 121.385 69.9938 120.021 69.9938C118.98 70.0066 117.975 69.6135 117.219 68.8977" fill="white"/>
<path d="M124.481 55.8076H125.253V57.9156H125.857V55.8076H126.623V55.2876H124.481V55.8076Z" fill="white"/>
<path d="M128.578 55.2876L128.142 57.1901L127.706 55.3218V55.2969H126.869V57.9156H127.432V56.0474L127.847 57.8969V57.9218H128.42L128.843 56.0536V57.9218H129.41V55.2938L128.578 55.2876Z" fill="white"/>
</g>
<defs>
<clipPath id="clip0_260_4978">
<rect width="129.251" height="70" fill="white" transform="translate(0.158203)"/>
</clipPath>
</defs>
</svg>
