<svg width="169" height="97" viewBox="0 0 169 97" fill="none" xmlns="http://www.w3.org/2000/svg">
<path d="M27.9587 72.3192C26.2929 75.8908 23.2636 81.4527 15.6227 81.4527C6.61182 81.4527 0 74.7185 0 65.3941C0 53.5 9.68619 49.0627 16.3044 49.0627C20.3629 49.0627 23.9453 50.1942 27.0647 51.2371C26.9361 52.6821 26.9361 54.0385 26.9361 55.4903C26.9361 56.7581 26.9361 58.1554 27.0647 59.4232L26.1257 60.691L25.013 60.3297C24.4985 56.7513 23.5208 51.3257 16.3495 51.3257C11.3584 51.3257 6.8305 55.1291 6.8305 65.3941C6.8305 72.2715 9.3453 78.7399 16.819 78.7399C22.2409 78.7399 24.5049 74.848 26.1707 72.4487L27.6243 71.7739L27.9587 72.3192Z" fill="white"/>
<path d="M40.8731 79.4216C43.3493 79.4216 45.6969 76.7088 45.6969 71.774C45.6969 66.5256 44.0697 61.5976 40.1463 61.5976C36.6475 61.5976 35.2389 65.0329 35.2389 68.7885C35.2389 75.7546 37.5479 79.4216 40.8731 79.4216ZM29.4375 70.0086C29.4375 65.2578 33.4509 59.5596 40.5773 59.5596C46.9768 59.5596 51.5048 64.0786 51.5048 70.5471C51.5048 76.702 47.0669 81.4528 40.2364 81.4528C33.1486 81.4528 29.4375 76.0272 29.4375 70.0086Z" fill="white"/>
<path d="M54.74 54.0383C54.74 52.3206 54.5278 51.3255 52.907 51.3255H51.7493L51.4084 50.7393L52.6433 49.5192L60.4128 48.1628L60.2006 63.9012C62.0851 61.8223 64.2526 59.5593 67.4556 59.5593C73.4757 59.5593 74.5819 64.3101 74.5819 67.6159V75.2568C74.5819 79.0124 75.0965 79.101 78.5117 79.4214L78.8076 79.7826L77.7399 80.9618C75.8618 80.7778 73.9838 80.6892 72.1057 80.6892C69.8417 80.6892 67.5778 80.8187 65.3202 80.9618L64.9793 80.4642L66.047 79.4214C68.3946 78.8829 68.7805 78.6989 68.7805 75.2568V68.652C68.7805 65.6665 68.1373 62.7288 65.0244 62.7288C61.0946 62.7288 60.5415 66.4367 60.5415 68.652V75.2568C60.5415 79.0124 60.9724 79.101 64.0017 79.4214L64.304 79.7826L63.2364 80.9618C61.3583 80.7778 59.4802 80.6892 57.6022 80.6892C55.5118 80.6892 53.3765 80.8187 51.2862 80.9618L50.9453 80.4642L52.013 79.4214C54.3606 78.8829 54.7465 78.6989 54.7465 75.2568V54.0383H54.74Z" fill="white"/>
<path d="M92.1276 67.7525C92.1276 64.6308 91.3172 61.5976 88.6223 61.5976C85.5029 61.5976 84.3967 64.7194 84.3967 68.0252L92.1276 67.7525ZM97.4209 78.2016C96.7777 78.6105 93.5361 81.4596 87.8183 81.4596C82.435 81.4596 78.5566 77.704 78.5566 71.0583C78.5566 63.731 82.6922 59.5664 88.7574 59.5664C92.3013 59.5664 97.7682 61.8702 97.7682 67.214C97.7682 67.9843 97.7232 68.659 97.4724 69.4293H84.3645C84.4931 73.9551 86.0303 78.297 90.0823 78.297C93.7548 78.297 95.7615 76.3544 97.3823 75.1752L97.8904 75.4888L97.4209 78.2016Z" fill="white"/>
<path d="M103.12 65.4895C103.12 63.7719 102.907 62.7699 101.325 62.7699H100.135L99.7943 62.1837L101.029 60.9568L108.927 59.5527L108.458 65.435L108.541 65.5236C109.821 62.4905 111.783 59.5527 113.835 59.5527C114.902 59.5527 115.925 60.2752 116.909 60.8205L117.379 61.543L114.819 66.1575C113.455 64.7125 112.857 63.8469 111.699 63.8469C108.921 63.8469 108.921 68.734 108.921 70.0018V75.2502C108.921 79.0058 109.39 79.0944 112.426 79.408L112.684 79.7692L111.661 80.9484C109.783 80.7644 107.905 80.6757 106.027 80.6757C103.891 80.6757 101.801 80.8121 99.6592 80.9484L99.3184 80.4508L100.425 79.408C102.734 78.8695 103.113 78.6855 103.113 75.2502V65.4895H103.12Z" fill="white"/>
<path d="M142.899 80.778C141.915 80.7371 140.938 80.6894 139.915 80.6894C138.384 80.6894 136.886 80.8189 135.394 80.9143C135.567 79.1013 135.651 77.9766 135.863 76.5248L135.773 76.4362C134.918 77.5677 132.577 81.4596 128.216 81.4596C123.18 81.4596 121.089 77.9766 121.089 71.7808V65.2646C121.089 63.6833 120.877 62.7768 119.295 62.7768H118.099L117.758 62.1906L118.999 60.9705L126.897 59.5664V73.8597C126.897 75.85 127.881 78.2902 130.782 78.2902C134.024 78.2902 135.136 74.3982 135.136 71.7808V65.2646C135.136 63.6833 134.918 62.7768 133.342 62.7768H132.146L131.805 62.1906L133.04 60.9705L140.938 59.5664V75.0389C140.938 78.7945 141.832 78.9309 143.626 79.2444L143.884 79.7011L142.899 80.778Z" fill="white"/>
<path d="M158.137 65.6663C157.448 63.8124 156.387 61.5971 153.358 61.5971C151.48 61.5971 150.155 62.7763 150.155 64.2213C150.155 65.9867 151.396 66.3957 154.38 67.3431C157.796 68.4746 161.127 69.606 161.127 74.1251C161.127 79.6461 156.258 81.4592 152.586 81.4592C148.875 81.4592 146.527 80.28 144.816 79.4212C144.945 78.6987 144.945 78.0648 144.945 77.3423C144.945 76.6198 144.945 75.8973 144.816 74.9907L146.141 73.7298L146.656 73.9547C147.254 75.8564 148.534 79.428 152.078 79.428C154.123 79.428 155.583 77.8467 155.583 76.129C155.583 74.0501 153.576 73.3685 151.525 72.5983C148.958 71.7872 145.466 70.608 145.466 66.4025C145.466 61.6517 149.608 59.5728 153.152 59.5728C156.689 59.5728 159.043 60.7519 159.77 61.1132C159.68 62.2856 159.642 62.8786 159.642 64.8211L158.831 65.68H158.137V65.6663Z" fill="white"/>
<path d="M117.025 21.4711C136.108 18.3153 144.09 33.9581 145.634 47.897L145.647 47.8902C144.92 42.5737 149.602 29.7799 149.152 19.3172C142.128 17.4905 131.619 17.6814 117.025 21.4711Z" fill="white"/>
<path d="M114.125 12.0174C111.064 15.33 108.189 19.1675 105.539 23.1412C108.594 21.8394 111.881 20.6738 115.437 19.6582C115.978 19.5014 116.499 19.3651 117.033 19.222C131.594 15.2687 142.097 14.9551 149.133 16.7068C147.95 -5.41133 129.015 -4.08901 114.125 12.0174Z" fill="white"/>
<path d="M151.615 19.5627C152.066 30.0254 147.383 42.8124 148.11 48.1289C148.252 49.1582 148.592 49.9147 149.21 50.3101C150.477 51.1212 152.008 50.8485 153.577 49.8261C162.15 44.2642 164.086 22.8072 151.615 19.5627Z" fill="white"/>
<path d="M85.927 50.5898C90.7894 54.2705 99.0156 43.9237 103.46 37.6256C106.702 33.0316 110.625 27.4697 115.217 22.2622C92.8025 28.2467 78.5434 45.0075 85.927 50.5898Z" fill="white"/>
<path d="M78.0427 95.8692C79.3998 95.8692 80.2423 95.2285 80.2423 94.172V94.1379C80.2423 93.1087 79.4255 92.5157 77.8626 92.5157H75.0326V95.8692H78.0427ZM77.6825 91.5682C78.8981 91.5682 79.7471 90.9889 79.7471 89.871V89.8438C79.7471 88.91 79.0396 88.2965 77.7597 88.2965H75.0326V91.5682H77.6825ZM74.0357 87.3354H77.8497C78.8724 87.3354 79.6828 87.649 80.1909 88.1738C80.5575 88.5828 80.7698 89.0804 80.7698 89.6938V89.7211C80.7698 90.9616 80.0494 91.5955 79.3483 91.9227C80.4096 92.2567 81.265 92.911 81.265 94.2129V94.2401C81.265 95.8692 79.9722 96.8302 78.0105 96.8302H74.0293V87.3354H74.0357Z" fill="white"/>
<path d="M84.0371 87.3354H83.0273V96.8371H84.0371V87.3354Z" fill="white"/>
<path d="M93.9153 92.1128V92.0855C93.9153 89.9248 92.4296 88.1663 90.3843 88.1663C88.339 88.1663 86.8726 89.9044 86.8726 92.0651V92.0924C86.8726 94.2531 88.3583 96.0116 90.4036 96.0116C92.4553 96.0048 93.9153 94.2667 93.9153 92.1128ZM85.8242 92.1128V92.0855C85.8242 89.4682 87.683 87.1711 90.41 87.1711C93.1371 87.1711 94.9701 89.4409 94.9701 92.0583V92.0855C94.9701 94.7029 93.1114 96.9931 90.3843 96.9931C87.6508 96.9999 85.8242 94.7302 85.8242 92.1128Z" fill="white"/>
<path d="M96.2695 95.4525L96.8998 94.6687C97.8324 95.5616 98.7329 96.0115 99.9742 96.0115C101.177 96.0115 101.968 95.3367 101.968 94.396V94.3688C101.968 93.4827 101.518 92.9851 99.6398 92.5625C97.5752 92.0854 96.6297 91.3833 96.6297 89.8224V89.7952C96.6297 88.3025 97.8646 87.2051 99.569 87.2051C100.875 87.2051 101.814 87.6004 102.721 88.3706L102.129 89.2022C101.299 88.4865 100.463 88.173 99.5433 88.173C98.3791 88.173 97.6331 88.8546 97.6331 89.7066V89.7338C97.6331 90.6267 98.0961 91.1311 100.064 91.581C102.065 92.0377 102.984 92.8147 102.984 94.2665V94.2938C102.984 95.9228 101.704 96.9861 99.9292 96.9861C98.5078 96.9725 97.3436 96.4681 96.2695 95.4525Z" fill="white"/>
<path d="M104.432 92.1128V92.0855C104.432 89.4 106.323 87.1711 108.966 87.1711C110.593 87.1711 111.564 87.7846 112.458 88.6775L111.77 89.4682C111.011 88.7048 110.169 88.1663 108.96 88.1663C106.972 88.1663 105.486 89.8771 105.486 92.0651V92.0924C105.486 94.2871 106.985 96.0116 108.96 96.0116C110.188 96.0116 110.992 95.514 111.854 94.6416L112.516 95.33C111.584 96.3388 110.561 96.9999 108.934 96.9999C106.335 96.9999 104.432 94.8392 104.432 92.1128Z" fill="white"/>
<path d="M115.526 87.3354H114.51V96.8371H115.526V87.3354Z" fill="white"/>
<path d="M118.021 87.3354V96.8371H124.563V95.8555H119.031V92.5361H123.919V91.5546H119.031V88.317H124.498V87.3354H118.021Z" fill="white"/>
<path d="M133.259 87.3354V94.949L127.611 87.3354H126.666V96.8371H127.65V89.0463L133.439 96.8371H134.243V87.3354H133.259Z" fill="white"/>
<path d="M135.889 92.1128V92.0855C135.889 89.4 137.786 87.1711 140.423 87.1711C142.05 87.1711 143.021 87.7846 143.915 88.6775L143.227 89.4682C142.475 88.7048 141.626 88.1663 140.41 88.1663C138.423 88.1663 136.937 89.8771 136.937 92.0651V92.0924C136.937 94.2871 138.436 96.0116 140.41 96.0116C141.639 96.0116 142.449 95.514 143.304 94.6416L143.967 95.33C143.034 96.3388 142.012 96.9999 140.384 96.9999C137.799 96.9999 135.889 94.8392 135.889 92.1128Z" fill="white"/>
<path d="M145.408 87.3354V96.8371H151.949V95.8555H146.418V92.5361H151.313V91.5546H146.418V88.317H151.885V87.3354H145.408Z" fill="white"/>
<path d="M162.555 77.3292H163.564V80.2533H164.349V77.3292H165.352V76.6067H162.555V77.3292Z" fill="white"/>
<path d="M167.912 76.6067L167.34 79.2445L166.774 76.6408L166.767 76.6067H165.674V80.2533H166.413V77.8063C166.413 77.7654 166.413 77.7177 166.413 77.6564L166.954 80.2192L166.96 80.2601H167.706L168.259 77.6564V77.8063V80.2533H168.999V76.6067H167.912Z" fill="white"/>
</svg>
