<svg width="140" height="80" viewBox="0 0 140 80" fill="none" xmlns="http://www.w3.org/2000/svg">
<path d="M10.176 20.192C8.928 20.192 7.84 19.992 6.912 19.592C5.984 19.192 5.264 18.632 4.752 17.912C4.256 17.192 4.008 16.344 4.008 15.368V14.768C4.008 14.688 4.032 14.624 4.08 14.576C4.144 14.512 4.216 14.48 4.296 14.48H6.432C6.512 14.48 6.576 14.512 6.624 14.576C6.688 14.624 6.72 14.688 6.72 14.768V15.224C6.72 15.96 7.048 16.576 7.704 17.072C8.36 17.552 9.256 17.792 10.392 17.792C11.368 17.792 12.104 17.584 12.6 17.168C13.096 16.752 13.344 16.216 13.344 15.56C13.344 15.112 13.208 14.736 12.936 14.432C12.664 14.112 12.272 13.824 11.76 13.568C11.264 13.312 10.512 12.992 9.504 12.608C8.368 12.192 7.448 11.8 6.744 11.432C6.04 11.064 5.448 10.568 4.968 9.944C4.504 9.304 4.272 8.512 4.272 7.568C4.272 6.16 4.784 5.048 5.808 4.232C6.832 3.416 8.2 3.008 9.912 3.008C11.112 3.008 12.168 3.216 13.08 3.632C14.008 4.048 14.728 4.632 15.24 5.384C15.752 6.12 16.008 6.976 16.008 7.952V8.36C16.008 8.44 15.976 8.512 15.912 8.576C15.864 8.624 15.8 8.648 15.72 8.648H13.56C13.48 8.648 13.408 8.624 13.344 8.576C13.296 8.512 13.272 8.44 13.272 8.36V8.096C13.272 7.344 12.96 6.712 12.336 6.2C11.728 5.672 10.88 5.408 9.792 5.408C8.912 5.408 8.224 5.592 7.728 5.96C7.248 6.328 7.008 6.848 7.008 7.52C7.008 8 7.136 8.392 7.392 8.696C7.648 9 8.032 9.28 8.544 9.536C9.056 9.776 9.848 10.088 10.92 10.472C12.056 10.904 12.96 11.296 13.632 11.648C14.32 12 14.904 12.496 15.384 13.136C15.88 13.76 16.128 14.544 16.128 15.488C16.128 16.928 15.592 18.072 14.52 18.92C13.464 19.768 12.016 20.192 10.176 20.192ZM29.8277 5.312C29.8277 5.392 29.7957 5.464 29.7317 5.528C29.6837 5.576 29.6197 5.6 29.5397 5.6H21.3557C21.2757 5.6 21.2357 5.64 21.2357 5.72V10.208C21.2357 10.288 21.2757 10.328 21.3557 10.328H26.8517C26.9317 10.328 26.9957 10.36 27.0437 10.424C27.1077 10.472 27.1397 10.536 27.1397 10.616V12.44C27.1397 12.52 27.1077 12.592 27.0437 12.656C26.9957 12.704 26.9317 12.728 26.8517 12.728H21.3557C21.2757 12.728 21.2357 12.768 21.2357 12.848V17.48C21.2357 17.56 21.2757 17.6 21.3557 17.6H29.5397C29.6197 17.6 29.6837 17.632 29.7317 17.696C29.7957 17.744 29.8277 17.808 29.8277 17.888V19.712C29.8277 19.792 29.7957 19.864 29.7317 19.928C29.6837 19.976 29.6197 20 29.5397 20H18.7397C18.6597 20 18.5877 19.976 18.5237 19.928C18.4757 19.864 18.4517 19.792 18.4517 19.712V3.488C18.4517 3.408 18.4757 3.344 18.5237 3.296C18.5877 3.232 18.6597 3.2 18.7397 3.2H29.5397C29.6197 3.2 29.6837 3.232 29.7317 3.296C29.7957 3.344 29.8277 3.408 29.8277 3.488V5.312ZM43.5508 5.312C43.5508 5.392 43.5188 5.464 43.4548 5.528C43.4068 5.576 43.3428 5.6 43.2628 5.6H35.0788C34.9988 5.6 34.9588 5.64 34.9588 5.72V10.208C34.9588 10.288 34.9988 10.328 35.0788 10.328H40.5748C40.6548 10.328 40.7188 10.36 40.7668 10.424C40.8308 10.472 40.8628 10.536 40.8628 10.616V12.44C40.8628 12.52 40.8308 12.592 40.7668 12.656C40.7188 12.704 40.6548 12.728 40.5748 12.728H35.0788C34.9988 12.728 34.9588 12.768 34.9588 12.848V17.48C34.9588 17.56 34.9988 17.6 35.0788 17.6H43.2628C43.3428 17.6 43.4068 17.632 43.4548 17.696C43.5188 17.744 43.5508 17.808 43.5508 17.888V19.712C43.5508 19.792 43.5188 19.864 43.4548 19.928C43.4068 19.976 43.3428 20 43.2628 20H32.4628C32.3828 20 32.3108 19.976 32.2468 19.928C32.1988 19.864 32.1748 19.792 32.1748 19.712V3.488C32.1748 3.408 32.1988 3.344 32.2468 3.296C32.3108 3.232 32.3828 3.2 32.4628 3.2H43.2628C43.3428 3.2 43.4068 3.232 43.4548 3.296C43.5188 3.344 43.5508 3.408 43.5508 3.488V5.312ZM61.2626 3.2C61.3426 3.2 61.4066 3.232 61.4546 3.296C61.5186 3.344 61.5506 3.408 61.5506 3.488V5.336C61.5506 5.416 61.5186 5.488 61.4546 5.552C61.4066 5.6 61.3426 5.624 61.2626 5.624H56.8466C56.7666 5.624 56.7266 5.664 56.7266 5.744V19.712C56.7266 19.792 56.6946 19.864 56.6306 19.928C56.5826 19.976 56.5186 20 56.4386 20H54.2306C54.1506 20 54.0786 19.976 54.0146 19.928C53.9666 19.864 53.9426 19.792 53.9426 19.712V5.744C53.9426 5.664 53.9026 5.624 53.8226 5.624H49.5746C49.4946 5.624 49.4226 5.6 49.3586 5.552C49.3106 5.488 49.2866 5.416 49.2866 5.336V3.488C49.2866 3.408 49.3106 3.344 49.3586 3.296C49.4226 3.232 49.4946 3.2 49.5746 3.2H61.2626ZM72.7851 3.488C72.7851 3.408 72.8091 3.344 72.8571 3.296C72.9211 3.232 72.9931 3.2 73.0731 3.2H75.2811C75.3611 3.2 75.4251 3.232 75.4731 3.296C75.5371 3.344 75.5691 3.408 75.5691 3.488V19.712C75.5691 19.792 75.5371 19.864 75.4731 19.928C75.4251 19.976 75.3611 20 75.2811 20H73.0731C72.9931 20 72.9211 19.976 72.8571 19.928C72.8091 19.864 72.7851 19.792 72.7851 19.712V12.848C72.7851 12.768 72.7451 12.728 72.6651 12.728H66.5451C66.4651 12.728 66.4251 12.768 66.4251 12.848V19.712C66.4251 19.792 66.3931 19.864 66.3291 19.928C66.2811 19.976 66.2171 20 66.1371 20H63.9291C63.8491 20 63.7771 19.976 63.7131 19.928C63.6651 19.864 63.6411 19.792 63.6411 19.712V3.488C63.6411 3.408 63.6651 3.344 63.7131 3.296C63.7771 3.232 63.8491 3.2 63.9291 3.2H66.1371C66.2171 3.2 66.2811 3.232 66.3291 3.296C66.3931 3.344 66.4251 3.408 66.4251 3.488V10.208C66.4251 10.288 66.4651 10.328 66.5451 10.328H72.6651C72.7451 10.328 72.7851 10.288 72.7851 10.208V3.488ZM89.8183 5.312C89.8183 5.392 89.7863 5.464 89.7223 5.528C89.6743 5.576 89.6103 5.6 89.5303 5.6H81.3463C81.2663 5.6 81.2263 5.64 81.2263 5.72V10.208C81.2263 10.288 81.2663 10.328 81.3463 10.328H86.8423C86.9223 10.328 86.9863 10.36 87.0343 10.424C87.0983 10.472 87.1303 10.536 87.1303 10.616V12.44C87.1303 12.52 87.0983 12.592 87.0343 12.656C86.9863 12.704 86.9223 12.728 86.8423 12.728H81.3463C81.2663 12.728 81.2263 12.768 81.2263 12.848V17.48C81.2263 17.56 81.2663 17.6 81.3463 17.6H89.5303C89.6103 17.6 89.6743 17.632 89.7223 17.696C89.7863 17.744 89.8183 17.808 89.8183 17.888V19.712C89.8183 19.792 89.7863 19.864 89.7223 19.928C89.6743 19.976 89.6103 20 89.5303 20H78.7303C78.6503 20 78.5783 19.976 78.5143 19.928C78.4663 19.864 78.4423 19.792 78.4423 19.712V3.488C78.4423 3.408 78.4663 3.344 78.5143 3.296C78.5783 3.232 78.6503 3.2 78.7303 3.2H89.5303C89.6103 3.2 89.6743 3.232 89.7223 3.296C89.7863 3.344 89.8183 3.408 89.8183 3.488V5.312Z" fill="white"/>
<path d="M50.748 54.542C50.748 54.6687 50.6973 54.7827 50.596 54.884C50.52 54.96 50.4187 54.998 50.292 54.998H37.866C37.7393 54.998 37.676 55.0613 37.676 55.188V61.078C37.676 61.2047 37.7393 61.268 37.866 61.268H46.036C46.1627 61.268 46.264 61.3187 46.34 61.42C46.4413 61.496 46.492 61.5973 46.492 61.724V65.41C46.492 65.5367 46.4413 65.6507 46.34 65.752C46.264 65.828 46.1627 65.866 46.036 65.866H37.866C37.7393 65.866 37.676 65.9293 37.676 66.056V76.544C37.676 76.6707 37.6253 76.7847 37.524 76.886C37.448 76.962 37.3467 77 37.22 77H32.774C32.6473 77 32.5333 76.962 32.432 76.886C32.356 76.7847 32.318 76.6707 32.318 76.544V50.856C32.318 50.7293 32.356 50.628 32.432 50.552C32.5333 50.4507 32.6473 50.4 32.774 50.4H50.292C50.4187 50.4 50.52 50.4507 50.596 50.552C50.6973 50.628 50.748 50.7293 50.748 50.856V54.542ZM66.7629 77C66.5096 77 66.3449 76.8733 66.2689 76.62L65.1289 72.896C65.0783 72.7947 65.0149 72.744 64.9389 72.744H55.5909C55.5149 72.744 55.4516 72.7947 55.4009 72.896L54.2989 76.62C54.2229 76.8733 54.0583 77 53.8049 77H48.9789C48.8269 77 48.7129 76.962 48.6369 76.886C48.5609 76.7847 48.5483 76.6453 48.5989 76.468L56.8069 50.78C56.8829 50.5267 57.0476 50.4 57.3009 50.4H63.2669C63.5203 50.4 63.6849 50.5267 63.7609 50.78L71.9689 76.468C71.9943 76.5187 72.0069 76.582 72.0069 76.658C72.0069 76.886 71.8676 77 71.5889 77H66.7629ZM56.7689 68.374C56.7436 68.526 56.7943 68.602 56.9209 68.602H63.6089C63.7609 68.602 63.8116 68.526 63.7609 68.374L60.3409 57.088C60.3156 56.9867 60.2776 56.9487 60.2269 56.974C60.1763 56.974 60.1383 57.012 60.1129 57.088L56.7689 68.374ZM83.1187 77.304C81.1427 77.304 79.4073 76.924 77.9127 76.164C76.418 75.3787 75.2653 74.2893 74.4547 72.896C73.644 71.5027 73.2387 69.894 73.2387 68.07V59.292C73.2387 57.468 73.644 55.8593 74.4547 54.466C75.2653 53.0727 76.418 51.996 77.9127 51.236C79.4073 50.476 81.1427 50.096 83.1187 50.096C85.0693 50.096 86.7793 50.4633 88.2487 51.198C89.7433 51.9073 90.896 52.9333 91.7067 54.276C92.5427 55.5933 92.9607 57.126 92.9607 58.874C92.9607 59.102 92.8087 59.2413 92.5047 59.292L88.0587 59.558H87.9827C87.7293 59.558 87.6027 59.4187 87.6027 59.14C87.6027 57.7973 87.1847 56.7207 86.3487 55.91C85.538 55.0993 84.4613 54.694 83.1187 54.694C81.7507 54.694 80.6487 55.0993 79.8127 55.91C79.002 56.7207 78.5967 57.7973 78.5967 59.14V68.298C78.5967 69.6153 79.002 70.6793 79.8127 71.49C80.6487 72.3007 81.7507 72.706 83.1187 72.706C84.4613 72.706 85.538 72.3007 86.3487 71.49C87.1847 70.6793 87.6027 69.6153 87.6027 68.298C87.6027 68.0193 87.7547 67.88 88.0587 67.88L92.5047 68.07C92.6313 68.07 92.7327 68.108 92.8087 68.184C92.91 68.26 92.9607 68.3487 92.9607 68.45C92.9607 70.198 92.5427 71.7433 91.7067 73.086C90.896 74.4287 89.7433 75.4673 88.2487 76.202C86.7793 76.9367 85.0693 77.304 83.1187 77.304ZM114.187 50.4C114.314 50.4 114.415 50.4507 114.491 50.552C114.592 50.628 114.643 50.7293 114.643 50.856V54.58C114.643 54.7067 114.592 54.8207 114.491 54.922C114.415 54.998 114.314 55.036 114.187 55.036H107.385C107.258 55.036 107.195 55.0993 107.195 55.226V76.544C107.195 76.6707 107.144 76.7847 107.043 76.886C106.967 76.962 106.866 77 106.739 77H102.293C102.166 77 102.052 76.962 101.951 76.886C101.875 76.7847 101.837 76.6707 101.837 76.544V55.226C101.837 55.0993 101.774 55.036 101.647 55.036H95.0349C94.9083 55.036 94.7943 54.998 94.6929 54.922C94.6169 54.8207 94.5789 54.7067 94.5789 54.58V50.856C94.5789 50.7293 94.6169 50.628 94.6929 50.552C94.7943 50.4507 94.9083 50.4 95.0349 50.4H114.187ZM126.199 77.304C124.172 77.304 122.399 76.9873 120.879 76.354C119.359 75.6953 118.181 74.7707 117.345 73.58C116.534 72.364 116.129 70.958 116.129 69.362V68.526C116.129 68.3993 116.167 68.298 116.243 68.222C116.344 68.1207 116.458 68.07 116.585 68.07H120.917C121.043 68.07 121.145 68.1207 121.221 68.222C121.322 68.298 121.373 68.3993 121.373 68.526V69.096C121.373 70.1093 121.841 70.9707 122.779 71.68C123.716 72.364 124.983 72.706 126.579 72.706C127.921 72.706 128.922 72.4273 129.581 71.87C130.239 71.2873 130.569 70.578 130.569 69.742C130.569 69.134 130.366 68.6273 129.961 68.222C129.555 67.7913 128.998 67.424 128.289 67.12C127.605 66.7907 126.503 66.3473 124.983 65.79C123.285 65.2073 121.841 64.612 120.651 64.004C119.485 63.396 118.497 62.5727 117.687 61.534C116.901 60.47 116.509 59.1653 116.509 57.62C116.509 56.1 116.901 54.77 117.687 53.63C118.472 52.49 119.561 51.616 120.955 51.008C122.348 50.4 123.957 50.096 125.781 50.096C127.706 50.096 129.416 50.438 130.911 51.122C132.431 51.806 133.609 52.7687 134.445 54.01C135.306 55.226 135.737 56.6447 135.737 58.266V58.836C135.737 58.9627 135.686 59.0767 135.585 59.178C135.509 59.254 135.407 59.292 135.281 59.292H130.911C130.784 59.292 130.67 59.254 130.569 59.178C130.493 59.0767 130.455 58.9627 130.455 58.836V58.532C130.455 57.468 130.011 56.5687 129.125 55.834C128.263 55.074 127.073 54.694 125.553 54.694C124.362 54.694 123.425 54.9473 122.741 55.454C122.082 55.9607 121.753 56.6573 121.753 57.544C121.753 58.1773 121.943 58.7093 122.323 59.14C122.728 59.5707 123.311 59.9633 124.071 60.318C124.856 60.6473 126.059 61.1033 127.681 61.686C129.479 62.3447 130.885 62.9273 131.899 63.434C132.937 63.9407 133.862 64.7007 134.673 65.714C135.509 66.702 135.927 67.994 135.927 69.59C135.927 71.9713 135.053 73.8587 133.305 75.252C131.557 76.62 129.188 77.304 126.199 77.304Z" fill="white"/>
<path d="M10.24 45.77C8.92 45.77 7.76 45.51 6.76 44.99C5.76 44.47 4.98 43.73 4.42 42.77C3.88 41.81 3.61 40.71 3.61 39.47V30.47C3.61 29.25 3.88 28.17 4.42 27.23C4.98 26.29 5.76 25.56 6.76 25.04C7.76 24.52 8.92 24.26 10.24 24.26C11.54 24.26 12.69 24.52 13.69 25.04C14.69 25.56 15.46 26.29 16 27.23C16.56 28.17 16.84 29.25 16.84 30.47V30.5C16.84 30.7 16.74 30.8 16.54 30.8H16.24C16.04 30.8 15.94 30.71 15.94 30.53V30.44C15.94 28.84 15.42 27.55 14.38 26.57C13.34 25.59 11.96 25.1 10.24 25.1C8.52 25.1 7.13 25.59 6.07 26.57C5.03 27.55 4.51 28.84 4.51 30.44V39.56C4.51 41.16 5.03 42.46 6.07 43.46C7.13 44.44 8.52 44.93 10.24 44.93C11.94 44.93 13.31 44.44 14.35 43.46C15.41 42.46 15.94 41.16 15.94 39.56V39.5C15.94 39.3 16.04 39.2 16.24 39.2L16.54 39.23C16.74 39.23 16.84 39.32 16.84 39.5C16.84 40.74 16.56 41.84 16 42.8C15.46 43.74 14.69 44.47 13.69 44.99C12.69 45.51 11.54 45.77 10.24 45.77ZM39.8577 45.5C39.6777 45.5 39.5577 45.42 39.4977 45.26L38.1177 41.03C38.0977 40.97 38.0577 40.94 37.9977 40.94H28.1577C28.0977 40.94 28.0577 40.97 28.0377 41.03L26.6577 45.26C26.5977 45.42 26.4777 45.5 26.2977 45.5H25.9977C25.7777 45.5 25.6977 45.39 25.7577 45.17L32.4777 24.74C32.5377 24.58 32.6577 24.5 32.8377 24.5H33.2577C33.4377 24.5 33.5577 24.58 33.6177 24.74L40.3677 45.17L40.3977 45.29C40.3977 45.43 40.3077 45.5 40.1277 45.5H39.8577ZM28.3377 39.98C28.3177 40.02 28.3177 40.06 28.3377 40.1C28.3777 40.12 28.4177 40.13 28.4577 40.13H37.6677C37.7077 40.13 37.7377 40.12 37.7577 40.1C37.7777 40.06 37.7777 40.02 37.7577 39.98L33.1377 25.91C33.1177 25.87 33.0877 25.85 33.0477 25.85C33.0077 25.85 32.9777 25.87 32.9577 25.91L28.3377 39.98ZM62.8778 24.8C62.8778 24.6 62.9778 24.5 63.1778 24.5H63.4778C63.6778 24.5 63.7778 24.6 63.7778 24.8V45.2C63.7778 45.4 63.6778 45.5 63.4778 45.5H63.1478C63.0078 45.5 62.8878 45.43 62.7878 45.29L51.1478 26.42C51.1278 26.36 51.0978 26.34 51.0578 26.36C51.0178 26.36 50.9978 26.39 50.9978 26.45V45.2C50.9978 45.4 50.8978 45.5 50.6978 45.5H50.3978C50.1978 45.5 50.0978 45.4 50.0978 45.2V24.8C50.0978 24.6 50.1978 24.5 50.3978 24.5H50.7578C50.8978 24.5 51.0178 24.57 51.1178 24.71L62.7578 43.58C62.7778 43.64 62.8078 43.67 62.8478 43.67C62.8878 43.65 62.9078 43.61 62.9078 43.55L62.8778 24.8ZM81.5263 45.77C80.2063 45.77 79.0463 45.51 78.0463 44.99C77.0463 44.47 76.2663 43.73 75.7063 42.77C75.1663 41.81 74.8963 40.71 74.8963 39.47V30.47C74.8963 29.25 75.1663 28.17 75.7063 27.23C76.2663 26.29 77.0463 25.56 78.0463 25.04C79.0463 24.52 80.2063 24.26 81.5263 24.26C82.8263 24.26 83.9763 24.52 84.9763 25.04C85.9763 25.56 86.7463 26.29 87.2863 27.23C87.8463 28.17 88.1263 29.25 88.1263 30.47V30.5C88.1263 30.7 88.0263 30.8 87.8263 30.8H87.5263C87.3263 30.8 87.2263 30.71 87.2263 30.53V30.44C87.2263 28.84 86.7063 27.55 85.6663 26.57C84.6263 25.59 83.2463 25.1 81.5263 25.1C79.8063 25.1 78.4163 25.59 77.3563 26.57C76.3163 27.55 75.7963 28.84 75.7963 30.44V39.56C75.7963 41.16 76.3163 42.46 77.3563 43.46C78.4163 44.44 79.8063 44.93 81.5263 44.93C83.2263 44.93 84.5963 44.44 85.6363 43.46C86.6963 42.46 87.2263 41.16 87.2263 39.56V39.5C87.2263 39.3 87.3263 39.2 87.5263 39.2L87.8263 39.23C88.0263 39.23 88.1263 39.32 88.1263 39.5C88.1263 40.74 87.8463 41.84 87.2863 42.8C86.7463 43.74 85.9763 44.47 84.9763 44.99C83.9763 45.51 82.8263 45.77 81.5263 45.77ZM112.02 25.04C112.02 25.24 111.92 25.34 111.72 25.34H99.9897C99.9097 25.34 99.8697 25.38 99.8697 25.46V34.43C99.8697 34.51 99.9097 34.55 99.9897 34.55H108.45C108.65 34.55 108.75 34.65 108.75 34.85V35.09C108.75 35.29 108.65 35.39 108.45 35.39H99.9897C99.9097 35.39 99.8697 35.43 99.8697 35.51V44.54C99.8697 44.62 99.9097 44.66 99.9897 44.66H111.72C111.92 44.66 112.02 44.76 112.02 44.96V45.2C112.02 45.4 111.92 45.5 111.72 45.5H99.2697C99.0697 45.5 98.9697 45.4 98.9697 45.2V24.8C98.9697 24.6 99.0697 24.5 99.2697 24.5H111.72C111.92 24.5 112.02 24.6 112.02 24.8V25.04ZM135.305 45.5C135.125 45.5 135.005 45.43 134.945 45.29L130.145 35.45C130.125 35.39 130.085 35.36 130.025 35.36H123.635C123.555 35.36 123.515 35.4 123.515 35.48V45.2C123.515 45.4 123.415 45.5 123.215 45.5H122.915C122.715 45.5 122.615 45.4 122.615 45.2V24.8C122.615 24.6 122.715 24.5 122.915 24.5H130.175C131.795 24.5 133.095 25.01 134.075 26.03C135.075 27.03 135.575 28.34 135.575 29.96C135.575 31.42 135.175 32.63 134.375 33.59C133.575 34.53 132.495 35.09 131.135 35.27C131.035 35.31 131.005 35.36 131.045 35.42L135.785 45.14C135.805 45.18 135.815 45.23 135.815 45.29C135.815 45.43 135.735 45.5 135.575 45.5H135.305ZM123.635 25.34C123.555 25.34 123.515 25.38 123.515 25.46V34.43C123.515 34.51 123.555 34.55 123.635 34.55H130.175C131.515 34.55 132.595 34.13 133.415 33.29C134.255 32.43 134.675 31.32 134.675 29.96C134.675 28.58 134.255 27.47 133.415 26.63C132.595 25.77 131.515 25.34 130.175 25.34H123.635Z" fill="white"/>
<path d="M95 4H135V18" stroke="#E3FF39" stroke-width="2" stroke-linecap="square"/>
<path d="M27 76L4 76L4 51" stroke="#E3FF39" stroke-width="2" stroke-linecap="square"/>
</svg>
