<svg width="108" height="76" viewBox="0 0 108 76" fill="none" xmlns="http://www.w3.org/2000/svg">
<g clip-path="url(#clip0_234_3908)">
<path d="M33.3807 56.28H22.7807C22.6507 56.28 22.5907 56.34 22.5907 56.48V61.48C22.5907 61.62 22.6507 61.68 22.7807 61.68H29.6807C29.7566 61.6702 29.8337 61.6779 29.9061 61.7026C29.9785 61.7273 30.0443 61.7682 30.0984 61.8223C30.1525 61.8764 30.1935 61.9422 30.2181 62.0146C30.2428 62.087 30.2505 62.1641 30.2407 62.24V65.11C30.2522 65.1866 30.2458 65.2649 30.2219 65.3386C30.198 65.4123 30.1573 65.4795 30.103 65.5347C30.0486 65.59 29.9822 65.6319 29.909 65.6571C29.8357 65.6823 29.7576 65.6902 29.6807 65.68H22.7807C22.755 65.6767 22.7289 65.6794 22.7043 65.6878C22.6798 65.6962 22.6575 65.7101 22.6392 65.7285C22.6208 65.7468 22.6069 65.7691 22.5985 65.7936C22.5901 65.8181 22.5875 65.8443 22.5907 65.87V74.78C22.6009 74.8568 22.5931 74.935 22.5678 75.0082C22.5426 75.0815 22.5007 75.1479 22.4455 75.2022C22.3902 75.2565 22.323 75.2973 22.2493 75.3212C22.1756 75.3451 22.0974 75.3515 22.0207 75.34H18.5007C18.4245 75.352 18.3464 75.3457 18.273 75.3218C18.1996 75.2979 18.1329 75.257 18.0783 75.2024C18.0237 75.1478 17.9828 75.0811 17.9589 75.0077C17.935 74.9343 17.9288 74.8563 17.9407 74.78V52.78C17.9292 52.7034 17.9357 52.6251 17.9596 52.5514C17.9835 52.4777 18.0242 52.4106 18.0785 52.3553C18.1328 52.3 18.1992 52.2581 18.2725 52.2329C18.3458 52.2077 18.4239 52.1998 18.5007 52.21H33.3807C33.4576 52.1998 33.5357 52.2077 33.609 52.2329C33.6822 52.2581 33.7486 52.3 33.803 52.3553C33.8573 52.4106 33.898 52.4777 33.9219 52.5514C33.9458 52.6251 33.9522 52.7034 33.9407 52.78V55.65C33.9636 55.7308 33.9658 55.8161 33.947 55.898C33.9283 55.9799 33.8892 56.0557 33.8334 56.1185C33.7776 56.1812 33.7068 56.2289 33.6277 56.2572C33.5486 56.2854 33.4637 56.2933 33.3807 56.28Z" fill="white"/>
<path d="M47.4007 74.92L46.5007 71.85C46.4982 71.8263 46.491 71.8033 46.4796 71.7824C46.4682 71.7615 46.4527 71.7431 46.4341 71.7282C46.4155 71.7133 46.3941 71.7023 46.3712 71.6957C46.3483 71.6892 46.3243 71.6872 46.3007 71.69H38.1907C38.1675 71.6872 38.1441 71.6892 38.1218 71.6959C38.0995 71.7026 38.0788 71.7137 38.0609 71.7287C38.0431 71.7438 38.0286 71.7623 38.0182 71.7831C38.0078 71.804 38.0019 71.8267 38.0007 71.85L37.0707 74.92C37.0346 75.0555 36.9536 75.1747 36.841 75.2583C36.7284 75.3418 36.5908 75.3847 36.4507 75.38H32.6207C32.5398 75.3872 32.4583 75.3745 32.3834 75.3432C32.3085 75.3118 32.2423 75.2627 32.1907 75.2C32.151 75.1334 32.1301 75.0574 32.1301 74.98C32.1301 74.9025 32.151 74.8265 32.1907 74.76L39.1907 52.76C39.2231 52.6217 39.3028 52.4991 39.416 52.4133C39.5292 52.3275 39.6688 52.2839 39.8107 52.29H44.6607C44.8034 52.2853 44.9435 52.3293 45.058 52.4147C45.1724 52.5001 45.2545 52.6218 45.2907 52.76L52.2907 74.76C52.3044 74.8259 52.3044 74.894 52.2907 74.96C52.2935 75.0181 52.2833 75.0761 52.2608 75.1297C52.2383 75.1833 52.2041 75.2313 52.1607 75.27C52.0586 75.3503 51.9302 75.3896 51.8007 75.38H48.0307C47.8889 75.387 47.7489 75.3452 47.6343 75.2615C47.5196 75.1778 47.4371 75.0572 47.4007 74.92ZM39.3207 68.09H45.1607C45.2907 68.09 45.3407 68.01 45.3207 67.86L42.3207 57.8C42.3207 57.71 42.2607 57.66 42.2107 57.66C42.1607 57.66 42.1007 57.71 42.0607 57.8L39.1507 67.86C39.1307 68 39.1907 68.09 39.3207 68.09Z" fill="white"/>
<path d="M57.5709 74.64C56.3198 74.0092 55.2779 73.0298 54.5709 71.82C53.8467 70.5439 53.4773 69.0971 53.5009 67.63V60C53.4713 58.5316 53.8338 57.0818 54.5509 55.8C55.2586 54.5958 56.3008 53.6231 57.5509 53C58.9563 52.3109 60.5061 51.968 62.0709 52C63.6133 51.9668 65.1426 52.2884 66.541 52.94C67.7774 53.5223 68.8192 54.4495 69.541 55.61C70.2684 56.8155 70.6394 58.2024 70.611 59.61C70.611 59.81 70.4409 59.93 70.0909 59.98L66.5609 60.21H66.4209C66.1109 60.21 65.9609 60.15 65.9609 60.04V59.84C65.9835 59.3249 65.9002 58.8107 65.7162 58.3291C65.5321 57.8475 65.2513 57.4088 64.8909 57.04C64.5161 56.6903 64.0756 56.4183 63.595 56.2398C63.1144 56.0613 62.6032 55.9798 62.091 56C61.5677 55.9772 61.0451 56.0592 60.5539 56.2412C60.0628 56.4233 59.613 56.7017 59.2309 57.06C58.8706 57.4288 58.5897 57.8675 58.4057 58.3491C58.2217 58.8307 58.1384 59.3449 58.1609 59.86V67.86C58.1401 68.3704 58.2244 68.8796 58.4084 69.3561C58.5925 69.8326 58.8724 70.2662 59.2309 70.63C59.613 70.9884 60.0628 71.2668 60.5539 71.4488C61.0451 71.6308 61.5677 71.7128 62.091 71.69C62.6079 71.7103 63.1237 71.6269 63.608 71.4449C64.0923 71.2628 64.5353 70.9858 64.911 70.63C65.2695 70.2662 65.5494 69.8326 65.7335 69.3561C65.9175 68.8796 66.0018 68.3704 65.981 67.86C65.9804 67.8045 65.9938 67.7497 66.02 67.7008C66.0463 67.6518 66.0844 67.6103 66.1309 67.58C66.1898 67.5384 66.2564 67.509 66.3268 67.4935C66.3973 67.4781 66.4701 67.4769 66.541 67.49L70.0709 67.66C70.4509 67.66 70.6309 67.76 70.6309 67.82V68C70.6589 69.4076 70.2879 70.7944 69.5609 72C68.8442 73.1746 67.8021 74.116 66.5609 74.71C65.1692 75.3871 63.6385 75.7296 62.091 75.71C60.5198 75.7251 58.9686 75.3579 57.5709 74.64Z" fill="white"/>
<path d="M89.4405 52.85V55.75C89.4524 55.8262 89.4462 55.9042 89.4223 55.9776C89.3984 56.051 89.3574 56.1178 89.3028 56.1723C89.2483 56.2269 89.1815 56.2679 89.1081 56.2918C89.0347 56.3157 88.9567 56.3219 88.8804 56.31H83.1704C83.0404 56.31 82.9805 56.38 82.9805 56.51V74.82C82.9906 74.8968 82.9828 74.9749 82.9576 75.0482C82.9324 75.1215 82.8905 75.1879 82.8352 75.2422C82.7799 75.2965 82.7128 75.3372 82.639 75.3611C82.5653 75.385 82.4871 75.3915 82.4105 75.3799H78.8804C78.8042 75.3919 78.7262 75.3857 78.6528 75.3618C78.5794 75.3379 78.5126 75.2969 78.4581 75.2424C78.4035 75.1878 78.3625 75.121 78.3386 75.0476C78.3147 74.9742 78.3085 74.8962 78.3204 74.82V56.51C78.3237 56.4829 78.3207 56.4555 78.3118 56.4298C78.3029 56.404 78.2882 56.3807 78.269 56.3614C78.2497 56.3422 78.2264 56.3275 78.2006 56.3186C78.1749 56.3097 78.1475 56.3067 78.1205 56.31H72.5805C72.5046 56.3198 72.4275 56.312 72.3551 56.2874C72.2826 56.2627 72.2169 56.2217 72.1628 56.1676C72.1087 56.1135 72.0677 56.0478 72.043 55.9753C72.0184 55.9029 72.0106 55.8258 72.0204 55.75V52.85C72.0089 52.7733 72.0154 52.6951 72.0393 52.6214C72.0632 52.5476 72.1039 52.4805 72.1582 52.4252C72.2125 52.3699 72.2789 52.3281 72.3522 52.3028C72.4255 52.2776 72.5036 52.2698 72.5805 52.28H88.8804C88.9573 52.2698 89.0354 52.2776 89.1087 52.3028C89.182 52.3281 89.2484 52.3699 89.3027 52.4252C89.357 52.4805 89.3977 52.5476 89.4216 52.6214C89.4455 52.6951 89.452 52.7733 89.4405 52.85Z" fill="white"/>
<path d="M94.8607 74.79C93.6515 74.2889 92.6107 73.4527 91.8607 72.38C91.1651 71.3002 90.8162 70.0337 90.8607 68.75V68.19C90.8487 68.1137 90.8549 68.0357 90.8788 67.9623C90.9027 67.8889 90.9437 67.8222 90.9983 67.7676C91.0528 67.713 91.1196 67.6721 91.193 67.6482C91.2664 67.6243 91.3444 67.618 91.4207 67.63H94.8806C95.2606 67.63 95.4407 67.77 95.4407 68.06V68.52C95.4451 68.9622 95.5577 69.3966 95.7686 69.7854C95.9795 70.1741 96.2823 70.5052 96.6507 70.75C97.5725 71.3904 98.6793 71.7102 99.8007 71.66C100.727 71.735 101.648 71.4682 102.391 70.91C102.659 70.6872 102.873 70.4071 103.019 70.0904C103.164 69.7737 103.236 69.4284 103.231 69.08C103.238 68.8324 103.194 68.586 103.103 68.3556C103.012 68.1253 102.875 67.9159 102.701 67.74C102.291 67.3369 101.809 67.0146 101.281 66.79C100.691 66.51 99.7307 66.13 98.4107 65.65C97.1204 65.2278 95.8636 64.7097 94.6507 64.1C93.6465 63.5764 92.7692 62.8391 92.0807 61.94C91.3523 60.9633 90.9784 59.7676 91.0206 58.55C90.9918 57.3215 91.3409 56.1137 92.0206 55.09C92.7398 54.0754 93.7313 53.2849 94.8806 52.81C96.1875 52.2605 97.5931 51.9849 99.0107 52C100.554 51.9746 102.084 52.278 103.501 52.89C104.738 53.4232 105.807 54.2842 106.591 55.38C107.331 56.4775 107.715 57.7764 107.691 59.1V59.42C107.702 59.4966 107.696 59.5749 107.672 59.6486C107.648 59.7223 107.607 59.7895 107.553 59.8447C107.499 59.9 107.432 59.9419 107.359 59.9671C107.286 59.9923 107.207 60.0002 107.131 59.99H103.671C103.291 59.99 103.111 59.88 103.111 59.66V59.33C103.107 58.8811 103.003 58.4387 102.805 58.0354C102.608 57.6322 102.323 57.2783 101.971 57C101.086 56.2992 99.9775 55.9438 98.8507 56C97.9868 55.9446 97.1288 56.1766 96.4107 56.66C96.1297 56.8702 95.9044 57.1459 95.7545 57.4631C95.6046 57.7804 95.5346 58.1295 95.5507 58.48C95.5337 58.9854 95.7087 59.4785 96.0407 59.86C96.4666 60.2929 96.9773 60.6333 97.5407 60.86C98.2207 61.17 99.2607 61.56 100.661 62.05C102.061 62.54 103.421 63.12 104.331 63.55C105.278 64.0248 106.106 64.7087 106.751 65.55C107.498 66.5211 107.877 67.7258 107.821 68.95C107.857 70.2013 107.508 71.4336 106.821 72.48C106.081 73.5218 105.062 74.333 103.881 74.82C100.987 75.9491 97.7744 75.9491 94.8806 74.82L94.8607 74.79Z" fill="white"/>
<path d="M3.21007 15.18C2.40354 14.845 1.7096 14.2864 1.21007 13.57C0.729896 12.8557 0.48194 12.0105 0.500073 11.15V10.78C0.491303 10.7294 0.494811 10.6775 0.510303 10.6286C0.525794 10.5797 0.552815 10.5353 0.589087 10.499C0.625359 10.4627 0.66982 10.4357 0.718721 10.4202C0.767623 10.4047 0.819532 10.4012 0.870073 10.41H3.18007C3.43007 10.41 3.56007 10.5 3.56007 10.69V11C3.56373 11.2944 3.63836 11.5835 3.77763 11.8429C3.9169 12.1023 4.1167 12.3243 4.36007 12.49C4.97631 12.9128 5.71348 13.1234 6.46007 13.09C7.07693 13.1403 7.69122 12.9663 8.19007 12.6C8.36803 12.4487 8.51047 12.26 8.60726 12.0474C8.70405 11.8349 8.75281 11.6036 8.75007 11.37C8.7549 11.0388 8.62917 10.7191 8.40007 10.48C8.10962 10.2086 7.77028 9.99479 7.40007 9.84999C7.01007 9.65999 6.40007 9.40998 5.49007 9.08998C4.6296 8.81983 3.79058 8.48556 2.98007 8.08998C2.3225 7.72383 1.75261 7.21878 1.31007 6.60998C0.828813 5.96083 0.58203 5.16759 0.610073 4.35998C0.594087 3.53842 0.831515 2.73186 1.29007 2.04998C1.76674 1.37366 2.42561 0.84656 3.19007 0.529984C4.07409 0.164542 5.02363 -0.0158364 5.98007 -1.5526e-05C7.01046 -0.016713 8.03275 0.184339 8.98007 0.589984C9.8091 0.943551 10.5227 1.52202 11.0401 2.25998C11.5342 2.98742 11.7894 3.85079 11.7701 4.72998V4.99998C11.7788 5.05053 11.7753 5.10243 11.7598 5.15134C11.7444 5.20024 11.7173 5.2447 11.6811 5.28097C11.6448 5.31724 11.6003 5.34426 11.5514 5.35975C11.5025 5.37525 11.4506 5.37875 11.4001 5.36998H9.08007C8.83007 5.36998 8.71007 5.29998 8.71007 5.14998V4.87998C8.71019 4.57788 8.64188 4.27968 8.51025 4.00777C8.37862 3.73585 8.1871 3.49729 7.95007 3.30998C7.3574 2.85036 6.619 2.61961 5.87007 2.65998C5.29322 2.62428 4.7206 2.77885 4.24007 3.09998C4.05553 3.24166 3.90751 3.4254 3.80836 3.63587C3.70921 3.84635 3.6618 4.07747 3.67007 4.30998C3.65976 4.65037 3.77752 4.98223 4.00007 5.23998C4.28379 5.53218 4.62404 5.76355 5.00007 5.91998C5.45007 6.11998 6.14007 6.38998 7.08007 6.70998C8.02007 7.02998 8.92007 7.42998 9.52007 7.70998C10.1486 8.01533 10.7018 8.45584 11.1401 8.99998C11.633 9.65135 11.884 10.4539 11.8501 11.27C11.8675 12.1057 11.6265 12.9264 11.1601 13.62C10.6589 14.323 9.96396 14.865 9.16007 15.18C8.20936 15.5705 7.18748 15.7578 6.16007 15.73C5.14952 15.7498 4.1456 15.5626 3.21007 15.18Z" fill="white"/>
<path d="M24.3494 2.83995H17.2594C17.2419 2.83842 17.2243 2.84074 17.2079 2.84673C17.1914 2.85272 17.1764 2.86225 17.164 2.87464C17.1517 2.88703 17.1421 2.90198 17.1361 2.91845C17.1301 2.93492 17.1278 2.95249 17.1294 2.96995V6.33995C17.1278 6.35741 17.1301 6.37498 17.1361 6.39145C17.1421 6.40792 17.1517 6.42287 17.164 6.43526C17.1764 6.44765 17.1914 6.45718 17.2079 6.46317C17.2243 6.46916 17.2419 6.47148 17.2594 6.46995H21.8594C21.9103 6.46167 21.9624 6.46543 22.0116 6.48094C22.0607 6.49645 22.1056 6.52326 22.1426 6.55923C22.1795 6.59521 22.2075 6.63934 22.2243 6.68809C22.2411 6.73684 22.2463 6.78885 22.2394 6.83995V8.75995C22.2463 8.81105 22.2411 8.86306 22.2243 8.91181C22.2075 8.96056 22.1795 9.00469 22.1426 9.04067C22.1056 9.07664 22.0607 9.10346 22.0116 9.11896C21.9624 9.13447 21.9103 9.13823 21.8594 9.12995H17.2594C17.2419 9.12842 17.2243 9.13074 17.2079 9.13673C17.1914 9.14272 17.1764 9.15225 17.164 9.16464C17.1517 9.17703 17.1421 9.19198 17.1361 9.20845C17.1301 9.22492 17.1278 9.24249 17.1294 9.25995V12.78C17.1278 12.7974 17.1301 12.815 17.1361 12.8315C17.1421 12.8479 17.1517 12.8629 17.164 12.8753C17.1764 12.8876 17.1914 12.8972 17.2079 12.9032C17.2243 12.9092 17.2419 12.9115 17.2594 12.91H24.3494C24.4005 12.903 24.4525 12.9082 24.5012 12.925C24.55 12.9418 24.5941 12.9698 24.6301 13.0068C24.666 13.0437 24.6929 13.0886 24.7084 13.1377C24.7239 13.1869 24.7276 13.2391 24.7194 13.29V15.2C24.7276 15.2508 24.7239 15.303 24.7084 15.3522C24.6929 15.4013 24.666 15.4462 24.6301 15.4831C24.5941 15.5201 24.55 15.5481 24.5012 15.5649C24.4525 15.5817 24.4005 15.5869 24.3494 15.58H14.3494C14.2983 15.5869 14.2462 15.5817 14.1975 15.5649C14.1487 15.5481 14.1046 15.5201 14.0686 15.4831C14.0327 15.4462 14.0059 15.4013 13.9903 15.3522C13.9748 15.303 13.9711 15.2508 13.9794 15.2V0.54995C13.9671 0.494163 13.97 0.436116 13.9878 0.381834C14.0056 0.327553 14.0375 0.279017 14.0804 0.241262C14.1233 0.203508 14.1754 0.177911 14.2315 0.16713C14.2876 0.156349 14.3456 0.160775 14.3994 0.17995H24.3994C24.4499 0.17118 24.5018 0.174688 24.5507 0.19018C24.5996 0.205672 24.6441 0.232692 24.6803 0.268964C24.7166 0.305237 24.7436 0.349697 24.7591 0.398599C24.7746 0.4475 24.7781 0.499409 24.7694 0.54995V2.45995C24.7805 2.51591 24.7769 2.57381 24.759 2.62798C24.7411 2.68215 24.7094 2.73075 24.6671 2.76903C24.6248 2.80732 24.5733 2.83397 24.5176 2.8464C24.4619 2.85883 24.4039 2.85661 24.3494 2.83995Z" fill="white"/>
<path d="M37.2002 2.84H30.1102C30.0202 2.84 29.9802 2.84 29.9802 2.97V6.34C29.9786 6.35746 29.9809 6.37504 29.9869 6.3915C29.9929 6.40797 30.0025 6.42292 30.0148 6.43531C30.0272 6.4477 30.0422 6.45723 30.0587 6.46322C30.0751 6.46922 30.0927 6.47153 30.1102 6.47H34.7102C34.7607 6.46123 34.8126 6.46474 34.8615 6.48023C34.9104 6.49573 34.9549 6.52275 34.9911 6.55902C35.0274 6.59529 35.0544 6.63975 35.0699 6.68865C35.0854 6.73755 35.0889 6.78946 35.0802 6.84V8.76C35.0889 8.81055 35.0854 8.86246 35.0699 8.91136C35.0544 8.96026 35.0274 9.00472 34.9911 9.04099C34.9549 9.07726 34.9104 9.10428 34.8615 9.11977C34.8126 9.13527 34.7607 9.13877 34.7102 9.13H30.1102C30.0202 9.13 29.9802 9.13 29.9802 9.26V12.78C29.9802 12.87 29.9802 12.91 30.1102 12.91H37.2002C37.2513 12.9031 37.3033 12.9082 37.352 12.925C37.4008 12.9419 37.4449 12.9699 37.4809 13.0068C37.5168 13.0438 37.5437 13.0886 37.5592 13.1378C37.5747 13.187 37.5784 13.2391 37.5702 13.29V15.2C37.5784 15.2509 37.5747 15.303 37.5592 15.3522C37.5437 15.4014 37.5168 15.4463 37.4809 15.4832C37.4449 15.5201 37.4008 15.5482 37.352 15.565C37.3033 15.5818 37.2513 15.5869 37.2002 15.58H27.2002C27.1491 15.5869 27.097 15.5818 27.0483 15.565C26.9995 15.5482 26.9554 15.5201 26.9194 15.4832C26.8835 15.4463 26.8566 15.4014 26.8411 15.3522C26.8256 15.303 26.8219 15.2509 26.8302 15.2V0.550005C26.8214 0.499464 26.8249 0.447555 26.8404 0.398653C26.8559 0.349752 26.8829 0.305291 26.9192 0.269019C26.9554 0.232747 26.9999 0.205726 27.0488 0.190234C27.0977 0.174743 27.1496 0.171234 27.2002 0.180005H37.2002C37.2507 0.171234 37.3026 0.174743 37.3515 0.190234C37.4004 0.205726 37.4449 0.232747 37.4811 0.269019C37.5174 0.305291 37.5444 0.349752 37.5599 0.398653C37.5754 0.447555 37.5789 0.499464 37.5702 0.550005V2.46C37.5784 2.5109 37.5747 2.56303 37.5592 2.61221C37.5437 2.66139 37.5168 2.70626 37.4809 2.7432C37.4449 2.78015 37.4008 2.80815 37.352 2.82496C37.3033 2.84177 37.2513 2.84692 37.2002 2.84Z" fill="white"/>
<path d="M55.0205 0.550005V2.49C55.0274 2.54111 55.0222 2.59312 55.0054 2.64187C54.9886 2.69062 54.9606 2.73475 54.9237 2.77072C54.8867 2.8067 54.8419 2.83351 54.7927 2.84902C54.7435 2.86452 54.6914 2.86828 54.6405 2.86H50.8405C50.7505 2.86 50.7005 2.86 50.7005 2.99V15.2C50.7087 15.2509 50.705 15.303 50.6895 15.3522C50.674 15.4014 50.6472 15.4463 50.6112 15.4832C50.5752 15.5201 50.5311 15.5482 50.4823 15.565C50.4336 15.5818 50.3816 15.5869 50.3305 15.58H47.9805C47.929 15.5865 47.8767 15.5812 47.8277 15.5644C47.7786 15.5476 47.734 15.5198 47.6974 15.4831C47.6607 15.4464 47.6329 15.4019 47.6161 15.3528C47.5993 15.3037 47.5939 15.2515 47.6005 15.2V3C47.6005 2.91 47.6005 2.87 47.4705 2.87H43.7705C43.7199 2.87878 43.668 2.87527 43.6191 2.85978C43.5702 2.84428 43.5257 2.81726 43.4895 2.78099C43.4532 2.74472 43.4262 2.70026 43.4107 2.65136C43.3952 2.60245 43.3917 2.55055 43.4005 2.5V0.550005C43.3917 0.499464 43.3952 0.447555 43.4107 0.398653C43.4262 0.349752 43.4532 0.305291 43.4895 0.269019C43.5257 0.232747 43.5702 0.205726 43.6191 0.190234C43.668 0.174743 43.7199 0.171234 43.7705 0.180005H54.6405C54.6914 0.171725 54.7435 0.175489 54.7927 0.190994C54.8419 0.206499 54.8867 0.233314 54.9237 0.269288C54.9606 0.305262 54.9886 0.349394 55.0054 0.398144C55.0222 0.446893 55.0274 0.498904 55.0205 0.550005Z" fill="white"/>
<path d="M65.5501 0.180005H67.9101C67.9606 0.171234 68.0125 0.174743 68.0614 0.190234C68.1103 0.205726 68.1548 0.232747 68.1911 0.269019C68.2273 0.305291 68.2543 0.349752 68.2698 0.398653C68.2853 0.447555 68.2888 0.499464 68.2801 0.550005V15.2C68.2884 15.2509 68.2846 15.303 68.2691 15.3522C68.2536 15.4014 68.2268 15.4463 68.1908 15.4832C68.1548 15.5201 68.1107 15.5482 68.0619 15.565C68.0132 15.5818 67.9612 15.5869 67.9101 15.58H65.5501C65.499 15.5869 65.447 15.5818 65.3982 15.565C65.3495 15.5482 65.3053 15.5201 65.2694 15.4832C65.2334 15.4463 65.2066 15.4014 65.1911 15.3522C65.1756 15.303 65.1718 15.2509 65.1801 15.2V9.26C65.1801 9.17 65.1801 9.13 65.0501 9.13H60.2301C60.1401 9.13 60.1001 9.13 60.1001 9.26V15.2C60.1066 15.2515 60.1012 15.3037 60.0844 15.3528C60.0677 15.4019 60.0399 15.4464 60.0032 15.4831C59.9665 15.5198 59.9219 15.5476 59.8729 15.5644C59.8238 15.5812 59.7715 15.5865 59.7201 15.58H57.3701C57.319 15.5869 57.267 15.5818 57.2182 15.565C57.1695 15.5482 57.1253 15.5201 57.0894 15.4832C57.0534 15.4463 57.0266 15.4014 57.0111 15.3522C56.9956 15.303 56.9918 15.2509 57.0001 15.2V0.550005C56.9913 0.499464 56.9948 0.447555 57.0103 0.398653C57.0258 0.349752 57.0528 0.305291 57.0891 0.269019C57.1254 0.232747 57.1698 0.205726 57.2187 0.190234C57.2676 0.174743 57.3195 0.171234 57.3701 0.180005H59.7201C59.771 0.171725 59.8231 0.175489 59.8723 0.190994C59.9215 0.206499 59.9663 0.233314 60.0033 0.269288C60.0402 0.305262 60.0682 0.349394 60.085 0.398144C60.1018 0.446893 60.107 0.498904 60.1001 0.550005V6.34C60.0985 6.35746 60.1009 6.37504 60.1069 6.3915C60.1128 6.40797 60.1224 6.42292 60.1348 6.43531C60.1472 6.4477 60.1621 6.45723 60.1786 6.46322C60.195 6.46922 60.2126 6.47153 60.2301 6.47H65.0501C65.0675 6.47153 65.0851 6.46922 65.1016 6.46322C65.118 6.45723 65.133 6.4477 65.1454 6.43531C65.1578 6.42292 65.1673 6.40797 65.1733 6.3915C65.1793 6.37504 65.1816 6.35746 65.1801 6.34V0.550005C65.1713 0.499464 65.1748 0.447555 65.1903 0.398653C65.2058 0.349752 65.2328 0.305291 65.2691 0.269019C65.3054 0.232747 65.3498 0.205726 65.3987 0.190234C65.4476 0.174743 65.4995 0.171234 65.5501 0.180005Z" fill="white"/>
<path d="M81.1308 2.84H74.0509C73.9609 2.84 73.9109 2.84 73.9109 2.97V6.34C73.909 6.35841 73.9115 6.37699 73.918 6.39429C73.9246 6.41158 73.9351 6.42713 73.9486 6.43972C73.9622 6.4523 73.9784 6.46159 73.9962 6.46684C74.0139 6.47209 74.0326 6.47318 74.0509 6.47H78.6408C78.6917 6.46173 78.7439 6.46549 78.7931 6.48099C78.8422 6.4965 78.8871 6.52331 78.924 6.55929C78.961 6.59526 78.989 6.63939 79.0058 6.68814C79.0226 6.73689 79.0278 6.7889 79.0208 6.84V8.76C79.0278 8.81111 79.0226 8.86312 79.0058 8.91187C78.989 8.96062 78.961 9.00475 78.924 9.04072C78.8871 9.0767 78.8422 9.10351 78.7931 9.11902C78.7439 9.13452 78.6917 9.13828 78.6408 9.13H74.0509C73.9609 9.13 73.9109 9.13 73.9109 9.26V12.78C73.9109 12.87 73.9109 12.91 74.0509 12.91H81.1308C81.1819 12.9031 81.234 12.9082 81.2827 12.925C81.3315 12.9419 81.3756 12.9699 81.4116 13.0068C81.4475 13.0438 81.4744 13.0886 81.4899 13.1378C81.5054 13.187 81.5091 13.2391 81.5008 13.29V15.2C81.5091 15.2509 81.5054 15.303 81.4899 15.3522C81.4744 15.4014 81.4475 15.4463 81.4116 15.4832C81.3756 15.5201 81.3315 15.5482 81.2827 15.565C81.234 15.5818 81.1819 15.5869 81.1308 15.58H71.1909C71.1394 15.5865 71.0871 15.5812 71.0381 15.5644C70.989 15.5476 70.9444 15.5198 70.9077 15.4831C70.8711 15.4464 70.8433 15.4019 70.8265 15.3528C70.8097 15.3037 70.8043 15.2515 70.8108 15.2V0.550005C70.8039 0.498904 70.8091 0.446893 70.8259 0.398144C70.8427 0.349394 70.8707 0.305262 70.9076 0.269288C70.9446 0.233314 70.9895 0.206499 71.0386 0.190994C71.0878 0.175489 71.14 0.171725 71.1909 0.180005H81.1308C81.1814 0.171234 81.2333 0.174743 81.2822 0.190234C81.3311 0.205726 81.3756 0.232747 81.4118 0.269019C81.4481 0.305291 81.4751 0.349752 81.4906 0.398653C81.5061 0.447555 81.5096 0.499464 81.5008 0.550005V2.46C81.5091 2.5109 81.5054 2.56303 81.4899 2.61221C81.4744 2.66139 81.4475 2.70626 81.4116 2.7432C81.3756 2.78015 81.3315 2.80815 81.2827 2.82496C81.234 2.84177 81.1819 2.84692 81.1308 2.84Z" fill="white"/>
<path d="M13.3793 75.3399H0.499268V52.45H2.49927V73.3399H13.3793V75.3399Z" fill="#E3FF39"/>
<path d="M107.199 15.76H105.199V2.19996H84.8293V0.209961H107.199V15.76Z" fill="#E3FF39"/>
<path d="M67.1804 27.65C67.1804 23.81 64.6504 21.86 59.6504 21.86H43.1204V33.4H58.3204C64.0304 33.4 67.1804 31.36 67.1804 27.65Z" stroke="white" stroke-width="0.2"/>
<path d="M27.8694 44.22L2.38942 20.41H0.659424V46.29H2.33942V22.48L27.8194 46.29H29.5494V20.41H27.8694V44.22Z" fill="white" stroke="white" stroke-width="0.2"/>
<path d="M59.3807 20.41H41.4407V46.29H43.1207V34.85H58.1207C67.4907 34.85 68.8907 30.34 68.8907 27.65C68.8607 24.34 67.2107 20.41 59.3807 20.41ZM43.1207 33.41V21.86H59.6507C64.6507 21.86 67.1807 23.81 67.1807 27.65C67.1807 31.49 64.0307 33.4 58.3207 33.4L43.1207 33.41Z" fill="white" stroke="white" stroke-width="0.2"/>
<path d="M105.499 41.1099H104.959C102.309 43.7999 97.9593 45.3999 93.1393 45.3999C86.0293 45.3999 78.3793 41.6299 78.3793 33.3999C78.3793 25.1699 86.0293 21.3999 93.1393 21.3999C100.249 21.3999 103.609 23.6799 105.249 25.6899H107.159L107.019 25.4799C104.629 21.9099 99.6993 19.9399 93.1393 19.9399C83.4893 19.9399 76.7493 25.4999 76.7493 33.4499C76.7493 41.3999 83.4993 46.8599 93.1593 46.8599C98.8793 46.8599 104.159 44.7399 106.889 41.3399L107.069 41.1099H105.499Z" fill="white" stroke="white" stroke-width="0.2"/>
</g>
<defs>
<clipPath id="clip0_234_3908">
<rect width="107.32" height="75.65" fill="white" transform="translate(0.5)"/>
</clipPath>
</defs>
</svg>
