<svg width="189" height="189" viewBox="0 0 189 189" fill="none" xmlns="http://www.w3.org/2000/svg">
<circle cx="94.5" cy="95" r="90" stroke="#997F8A" stroke-width="2"/>
<mask id="path-2-outside-1_31:1101" maskUnits="userSpaceOnUse" x="93.5" y="0" width="95" height="82" fill="black">
<rect fill="white" x="93.5" width="95" height="82"/>
<path d="M94.5 4.995C94.5 2.78862 96.2896 0.991136 98.494 1.08484C119.345 1.97114 139.353 9.77722 155.323 23.3304C171.293 36.8836 182.249 55.3554 186.515 75.7851C186.966 77.9449 185.484 80.003 183.307 80.3618C181.13 80.7207 179.083 79.244 178.624 77.086C174.672 58.525 164.679 41.75 150.153 29.4223C135.627 17.0947 117.451 9.96347 98.4938 9.08271C96.2898 8.98031 94.5 7.20138 94.5 4.995Z"/>
</mask>
<path d="M94.5 4.995C94.5 2.78862 96.2896 0.991136 98.494 1.08484C119.345 1.97114 139.353 9.77722 155.323 23.3304C171.293 36.8836 182.249 55.3554 186.515 75.7851C186.966 77.9449 185.484 80.003 183.307 80.3618C181.13 80.7207 179.083 79.244 178.624 77.086C174.672 58.525 164.679 41.75 150.153 29.4223C135.627 17.0947 117.451 9.96347 98.4938 9.08271C96.2898 8.98031 94.5 7.20138 94.5 4.995Z" fill="#E3FF39"/>
<path d="M94.5 4.995C94.5 2.78862 96.2896 0.991136 98.494 1.08484C119.345 1.97114 139.353 9.77722 155.323 23.3304C171.293 36.8836 182.249 55.3554 186.515 75.7851C186.966 77.9449 185.484 80.003 183.307 80.3618C181.13 80.7207 179.083 79.244 178.624 77.086C174.672 58.525 164.679 41.75 150.153 29.4223C135.627 17.0947 117.451 9.96347 98.4938 9.08271C96.2898 8.98031 94.5 7.20138 94.5 4.995Z" stroke="#3E404C" stroke-width="2" mask="url(#path-2-outside-1_31:1101)"/>
<path d="M40.5019 106.205C40.4725 106.264 40.4725 106.322 40.5019 106.381C40.5312 106.41 40.5752 106.425 40.6339 106.425H53.8779C54.1712 106.425 54.3179 106.572 54.3179 106.865V109.637C54.3179 109.93 54.1712 110.077 53.8779 110.077H35.4419C35.1485 110.077 35.0019 109.93 35.0019 109.637V106.953C35.0019 106.748 35.0752 106.572 35.2219 106.425C36.2192 105.281 38.5072 102.597 42.0859 98.3729L45.1219 94.7209C47.8499 91.4649 49.2139 88.9422 49.2139 87.1529C49.2139 85.7742 48.7445 84.6742 47.8059 83.8529C46.8965 83.0022 45.6792 82.5769 44.1539 82.5769C42.6285 82.5769 41.4112 83.0022 40.5019 83.8529C39.5925 84.7036 39.1525 85.8182 39.1819 87.1969V88.5169C39.1819 88.8102 39.0352 88.9569 38.7419 88.9569H35.3539C35.0605 88.9569 34.9139 88.8102 34.9139 88.5169V86.6249C34.9725 85.0996 35.3979 83.7502 36.1899 82.5769C37.0112 81.4036 38.1112 80.5089 39.4899 79.8929C40.8685 79.2476 42.4232 78.9249 44.1539 78.9249C46.0312 78.9249 47.6739 79.2769 49.0819 79.9809C50.4899 80.6849 51.5752 81.6529 52.3379 82.8849C53.1005 84.1169 53.4819 85.5102 53.4819 87.0649C53.4819 89.4996 52.1619 92.3742 49.5219 95.6889C48.3485 97.1849 46.9552 98.8716 45.3419 100.749C43.7285 102.597 42.1152 104.416 40.5019 106.205ZM64.8755 106.205C64.8461 106.264 64.8461 106.322 64.8755 106.381C64.9048 106.41 64.9488 106.425 65.0075 106.425H78.2515C78.5448 106.425 78.6915 106.572 78.6915 106.865V109.637C78.6915 109.93 78.5448 110.077 78.2515 110.077H59.8155C59.5221 110.077 59.3755 109.93 59.3755 109.637V106.953C59.3755 106.748 59.4488 106.572 59.5955 106.425C60.5928 105.281 62.8808 102.597 66.4595 98.3729L69.4955 94.7209C72.2235 91.4649 73.5875 88.9422 73.5875 87.1529C73.5875 85.7742 73.1181 84.6742 72.1795 83.8529C71.2701 83.0022 70.0528 82.5769 68.5275 82.5769C67.0021 82.5769 65.7848 83.0022 64.8755 83.8529C63.9661 84.7036 63.5261 85.8182 63.5555 87.1969V88.5169C63.5555 88.8102 63.4088 88.9569 63.1155 88.9569H59.7275C59.4341 88.9569 59.2875 88.8102 59.2875 88.5169V86.6249C59.3461 85.0996 59.7715 83.7502 60.5635 82.5769C61.3848 81.4036 62.4848 80.5089 63.8635 79.8929C65.2421 79.2476 66.7968 78.9249 68.5275 78.9249C70.4048 78.9249 72.0475 79.2769 73.4555 79.9809C74.8635 80.6849 75.9488 81.6529 76.7115 82.8849C77.4741 84.1169 77.8555 85.5102 77.8555 87.0649C77.8555 89.4996 76.5355 92.3742 73.8955 95.6889C72.7221 97.1849 71.3288 98.8716 69.7155 100.749C68.1021 102.597 66.4888 104.416 64.8755 106.205ZM87.313 110.077C86.4917 110.077 85.817 109.813 85.289 109.285C84.761 108.757 84.497 108.082 84.497 107.261C84.497 106.44 84.761 105.765 85.289 105.237C85.817 104.709 86.4917 104.445 87.313 104.445C88.1344 104.445 88.809 104.709 89.337 105.237C89.865 105.765 90.129 106.44 90.129 107.261C90.129 108.082 89.865 108.757 89.337 109.285C88.809 109.813 88.1344 110.077 87.313 110.077ZM116.106 98.0209C116.4 98.0209 116.546 98.1676 116.546 98.4609V101.365C116.546 101.658 116.4 101.805 116.106 101.805H114.214C114.097 101.805 114.038 101.864 114.038 101.981V109.637C114.038 109.93 113.892 110.077 113.598 110.077H110.254C109.961 110.077 109.814 109.93 109.814 109.637V101.981C109.814 101.864 109.756 101.805 109.638 101.805H96.2622C95.9689 101.805 95.8222 101.658 95.8222 101.365V98.9889C95.8222 98.8422 95.8662 98.6662 95.9542 98.4609L104.622 79.5849C104.71 79.3796 104.872 79.2769 105.106 79.2769H108.626C108.773 79.2769 108.876 79.3356 108.934 79.4529C109.022 79.5409 109.037 79.6582 108.978 79.8049L100.706 97.8009C100.677 97.8596 100.677 97.9182 100.706 97.9769C100.736 98.0062 100.78 98.0209 100.838 98.0209H109.638C109.756 98.0209 109.814 97.9622 109.814 97.8449V91.2889C109.814 90.9956 109.961 90.8489 110.254 90.8489H113.598C113.892 90.8489 114.038 90.9956 114.038 91.2889V97.8449C114.038 97.9622 114.097 98.0209 114.214 98.0209H116.106ZM129.672 91.9049C128.469 91.9049 127.355 91.6116 126.328 91.0249C125.331 90.4382 124.539 89.6462 123.952 88.6489C123.365 87.6516 123.072 86.5516 123.072 85.3489C123.072 84.1756 123.365 83.0902 123.952 82.0929C124.539 81.0956 125.331 80.3182 126.328 79.7609C127.355 79.1742 128.469 78.8809 129.672 78.8809C130.845 78.8809 131.931 79.1742 132.928 79.7609C133.925 80.3476 134.717 81.1396 135.304 82.1369C135.891 83.1049 136.184 84.1756 136.184 85.3489C136.184 86.5516 135.891 87.6516 135.304 88.6489C134.717 89.6462 133.925 90.4382 132.928 91.0249C131.931 91.6116 130.845 91.9049 129.672 91.9049ZM128.396 110.077C128.22 110.077 128.103 110.033 128.044 109.945C127.985 109.828 128 109.696 128.088 109.549L144.72 79.5849C144.837 79.3796 145.013 79.2769 145.248 79.2769H147.404C147.58 79.2769 147.697 79.3356 147.756 79.4529C147.815 79.5409 147.8 79.6582 147.712 79.8049L131.08 109.769C130.992 109.974 130.816 110.077 130.552 110.077H128.396ZM129.672 89.3089C130.757 89.3089 131.667 88.9276 132.4 88.1649C133.133 87.4022 133.5 86.4636 133.5 85.3489C133.5 84.2636 133.119 83.3542 132.356 82.6209C131.623 81.8582 130.728 81.4769 129.672 81.4769C128.587 81.4769 127.663 81.8582 126.9 82.6209C126.137 83.3542 125.756 84.2636 125.756 85.3489C125.756 86.4636 126.137 87.4022 126.9 88.1649C127.663 88.9276 128.587 89.3089 129.672 89.3089ZM146.436 110.473C145.233 110.473 144.119 110.18 143.092 109.593C142.095 109.006 141.303 108.214 140.716 107.217C140.129 106.22 139.836 105.134 139.836 103.961C139.836 102.788 140.129 101.702 140.716 100.705C141.303 99.7076 142.095 98.9156 143.092 98.3289C144.119 97.7422 145.233 97.4489 146.436 97.4489C147.609 97.4489 148.695 97.7422 149.692 98.3289C150.689 98.9156 151.481 99.7076 152.068 100.705C152.655 101.702 152.948 102.788 152.948 103.961C152.948 105.134 152.655 106.22 152.068 107.217C151.481 108.214 150.689 109.006 149.692 109.593C148.695 110.18 147.609 110.473 146.436 110.473ZM146.436 107.877C147.521 107.877 148.431 107.496 149.164 106.733C149.897 105.97 150.264 105.046 150.264 103.961C150.264 102.876 149.883 101.952 149.12 101.189C148.387 100.426 147.492 100.045 146.436 100.045C145.351 100.045 144.427 100.426 143.664 101.189C142.901 101.952 142.52 102.876 142.52 103.961C142.52 105.046 142.901 105.97 143.664 106.733C144.427 107.496 145.351 107.877 146.436 107.877Z" fill="white"/>
</svg>
