<svg width="189" height="188" viewBox="0 0 189 188" fill="none" xmlns="http://www.w3.org/2000/svg">
<circle cx="94.5" cy="94" r="90" stroke="#997F8A" stroke-width="2"/>
<path d="M94.5 4C139.269 4 176.404 36.6886 183.338 79.5" stroke="#E3FF39" stroke-width="8" stroke-linecap="round"/>
<path d="M40.5019 105.128C40.4725 105.187 40.4725 105.245 40.5019 105.304C40.5312 105.333 40.5752 105.348 40.6339 105.348H53.8779C54.1712 105.348 54.3179 105.495 54.3179 105.788V108.56C54.3179 108.853 54.1712 109 53.8779 109H35.4419C35.1485 109 35.0019 108.853 35.0019 108.56V105.876C35.0019 105.671 35.0752 105.495 35.2219 105.348C36.2192 104.204 38.5072 101.52 42.0859 97.296L45.1219 93.644C47.8499 90.388 49.2139 87.8653 49.2139 86.076C49.2139 84.6973 48.7445 83.5973 47.8059 82.776C46.8965 81.9253 45.6792 81.5 44.1539 81.5C42.6285 81.5 41.4112 81.9253 40.5019 82.776C39.5925 83.6267 39.1525 84.7413 39.1819 86.12V87.44C39.1819 87.7333 39.0352 87.88 38.7419 87.88H35.3539C35.0605 87.88 34.9139 87.7333 34.9139 87.44V85.548C34.9725 84.0227 35.3979 82.6733 36.1899 81.5C37.0112 80.3267 38.1112 79.432 39.4899 78.816C40.8685 78.1707 42.4232 77.848 44.1539 77.848C46.0312 77.848 47.6739 78.2 49.0819 78.904C50.4899 79.608 51.5752 80.576 52.3379 81.808C53.1005 83.04 53.4819 84.4333 53.4819 85.988C53.4819 88.4227 52.1619 91.2973 49.5219 94.612C48.3485 96.108 46.9552 97.7947 45.3419 99.672C43.7285 101.52 42.1152 103.339 40.5019 105.128ZM64.8755 105.128C64.8461 105.187 64.8461 105.245 64.8755 105.304C64.9048 105.333 64.9488 105.348 65.0075 105.348H78.2515C78.5448 105.348 78.6915 105.495 78.6915 105.788V108.56C78.6915 108.853 78.5448 109 78.2515 109H59.8155C59.5221 109 59.3755 108.853 59.3755 108.56V105.876C59.3755 105.671 59.4488 105.495 59.5955 105.348C60.5928 104.204 62.8808 101.52 66.4595 97.296L69.4955 93.644C72.2235 90.388 73.5875 87.8653 73.5875 86.076C73.5875 84.6973 73.1181 83.5973 72.1795 82.776C71.2701 81.9253 70.0528 81.5 68.5275 81.5C67.0021 81.5 65.7848 81.9253 64.8755 82.776C63.9661 83.6267 63.5261 84.7413 63.5555 86.12V87.44C63.5555 87.7333 63.4088 87.88 63.1155 87.88H59.7275C59.4341 87.88 59.2875 87.7333 59.2875 87.44V85.548C59.3461 84.0227 59.7715 82.6733 60.5635 81.5C61.3848 80.3267 62.4848 79.432 63.8635 78.816C65.2421 78.1707 66.7968 77.848 68.5275 77.848C70.4048 77.848 72.0475 78.2 73.4555 78.904C74.8635 79.608 75.9488 80.576 76.7115 81.808C77.4741 83.04 77.8555 84.4333 77.8555 85.988C77.8555 88.4227 76.5355 91.2973 73.8955 94.612C72.7221 96.108 71.3288 97.7947 69.7155 99.672C68.1021 101.52 66.4888 103.339 64.8755 105.128ZM87.313 109C86.4917 109 85.817 108.736 85.289 108.208C84.761 107.68 84.497 107.005 84.497 106.184C84.497 105.363 84.761 104.688 85.289 104.16C85.817 103.632 86.4917 103.368 87.313 103.368C88.1344 103.368 88.809 103.632 89.337 104.16C89.865 104.688 90.129 105.363 90.129 106.184C90.129 107.005 89.865 107.68 89.337 108.208C88.809 108.736 88.1344 109 87.313 109ZM116.106 96.944C116.4 96.944 116.546 97.0907 116.546 97.384V100.288C116.546 100.581 116.4 100.728 116.106 100.728H114.214C114.097 100.728 114.038 100.787 114.038 100.904V108.56C114.038 108.853 113.892 109 113.598 109H110.254C109.961 109 109.814 108.853 109.814 108.56V100.904C109.814 100.787 109.756 100.728 109.638 100.728H96.2622C95.9689 100.728 95.8222 100.581 95.8222 100.288V97.912C95.8222 97.7653 95.8662 97.5893 95.9542 97.384L104.622 78.508C104.71 78.3027 104.872 78.2 105.106 78.2H108.626C108.773 78.2 108.876 78.2587 108.934 78.376C109.022 78.464 109.037 78.5813 108.978 78.728L100.706 96.724C100.677 96.7827 100.677 96.8413 100.706 96.9C100.736 96.9293 100.78 96.944 100.838 96.944H109.638C109.756 96.944 109.814 96.8853 109.814 96.768V90.212C109.814 89.9187 109.961 89.772 110.254 89.772H113.598C113.892 89.772 114.038 89.9187 114.038 90.212V96.768C114.038 96.8853 114.097 96.944 114.214 96.944H116.106ZM129.672 90.828C128.469 90.828 127.355 90.5347 126.328 89.948C125.331 89.3613 124.539 88.5693 123.952 87.572C123.365 86.5747 123.072 85.4747 123.072 84.272C123.072 83.0987 123.365 82.0133 123.952 81.016C124.539 80.0187 125.331 79.2413 126.328 78.684C127.355 78.0973 128.469 77.804 129.672 77.804C130.845 77.804 131.931 78.0973 132.928 78.684C133.925 79.2707 134.717 80.0627 135.304 81.06C135.891 82.028 136.184 83.0987 136.184 84.272C136.184 85.4747 135.891 86.5747 135.304 87.572C134.717 88.5693 133.925 89.3613 132.928 89.948C131.931 90.5347 130.845 90.828 129.672 90.828ZM128.396 109C128.22 109 128.103 108.956 128.044 108.868C127.985 108.751 128 108.619 128.088 108.472L144.72 78.508C144.837 78.3027 145.013 78.2 145.248 78.2H147.404C147.58 78.2 147.697 78.2587 147.756 78.376C147.815 78.464 147.8 78.5813 147.712 78.728L131.08 108.692C130.992 108.897 130.816 109 130.552 109H128.396ZM129.672 88.232C130.757 88.232 131.667 87.8507 132.4 87.088C133.133 86.3253 133.5 85.3867 133.5 84.272C133.5 83.1867 133.119 82.2773 132.356 81.544C131.623 80.7813 130.728 80.4 129.672 80.4C128.587 80.4 127.663 80.7813 126.9 81.544C126.137 82.2773 125.756 83.1867 125.756 84.272C125.756 85.3867 126.137 86.3253 126.9 87.088C127.663 87.8507 128.587 88.232 129.672 88.232ZM146.436 109.396C145.233 109.396 144.119 109.103 143.092 108.516C142.095 107.929 141.303 107.137 140.716 106.14C140.129 105.143 139.836 104.057 139.836 102.884C139.836 101.711 140.129 100.625 140.716 99.628C141.303 98.6307 142.095 97.8387 143.092 97.252C144.119 96.6653 145.233 96.372 146.436 96.372C147.609 96.372 148.695 96.6653 149.692 97.252C150.689 97.8387 151.481 98.6307 152.068 99.628C152.655 100.625 152.948 101.711 152.948 102.884C152.948 104.057 152.655 105.143 152.068 106.14C151.481 107.137 150.689 107.929 149.692 108.516C148.695 109.103 147.609 109.396 146.436 109.396ZM146.436 106.8C147.521 106.8 148.431 106.419 149.164 105.656C149.897 104.893 150.264 103.969 150.264 102.884C150.264 101.799 149.883 100.875 149.12 100.112C148.387 99.3493 147.492 98.968 146.436 98.968C145.351 98.968 144.427 99.3493 143.664 100.112C142.901 100.875 142.52 101.799 142.52 102.884C142.52 103.969 142.901 104.893 143.664 105.656C144.427 106.419 145.351 106.8 146.436 106.8Z" fill="white"/>
</svg>
