<svg width="190" height="189" viewBox="0 0 190 189" fill="none" xmlns="http://www.w3.org/2000/svg">
<circle cx="94.5" cy="95" r="90" stroke="#997F8A" stroke-width="2"/>
<mask id="path-2-outside-1_31:3240" maskUnits="userSpaceOnUse" x="93.5" y="0" width="96" height="146" fill="black">
<rect fill="white" x="93.5" width="96" height="146"/>
<path d="M94.5 4.995C94.5 2.78862 96.2896 0.991139 98.494 1.08487C113.99 1.74378 129.104 6.22844 142.477 14.1655C156.997 22.7832 168.927 35.1527 177.015 49.9742C185.102 64.7956 189.049 81.5219 188.439 98.3953C187.877 113.936 183.47 129.073 175.639 142.461C174.525 144.365 172.045 144.898 170.189 143.704C168.334 142.51 167.806 140.042 168.913 138.133C175.971 125.956 179.944 112.213 180.454 98.1067C181.012 82.6675 177.401 67.363 170.001 53.8014C162.601 40.2397 151.684 28.9217 138.399 21.0364C126.26 13.8319 112.553 9.73622 98.4937 9.08275C96.2897 8.98032 94.5 7.20138 94.5 4.995Z"/>
</mask>
<path d="M94.5 4.995C94.5 2.78862 96.2896 0.991139 98.494 1.08487C113.99 1.74378 129.104 6.22844 142.477 14.1655C156.997 22.7832 168.927 35.1527 177.015 49.9742C185.102 64.7956 189.049 81.5219 188.439 98.3953C187.877 113.936 183.47 129.073 175.639 142.461C174.525 144.365 172.045 144.898 170.189 143.704C168.334 142.51 167.806 140.042 168.913 138.133C175.971 125.956 179.944 112.213 180.454 98.1067C181.012 82.6675 177.401 67.363 170.001 53.8014C162.601 40.2397 151.684 28.9217 138.399 21.0364C126.26 13.8319 112.553 9.73622 98.4937 9.08275C96.2897 8.98032 94.5 7.20138 94.5 4.995Z" fill="#E3FF39"/>
<path d="M94.5 4.995C94.5 2.78862 96.2896 0.991139 98.494 1.08487C113.99 1.74378 129.104 6.22844 142.477 14.1655C156.997 22.7832 168.927 35.1527 177.015 49.9742C185.102 64.7956 189.049 81.5219 188.439 98.3953C187.877 113.936 183.47 129.073 175.639 142.461C174.525 144.365 172.045 144.898 170.189 143.704C168.334 142.51 167.806 140.042 168.913 138.133C175.971 125.956 179.944 112.213 180.454 98.1067C181.012 82.6675 177.401 67.363 170.001 53.8014C162.601 40.2397 151.684 28.9217 138.399 21.0364C126.26 13.8319 112.553 9.73622 98.4937 9.08275C96.2897 8.98032 94.5 7.20138 94.5 4.995Z" stroke="#3E404C" stroke-width="2" mask="url(#path-2-outside-1_31:3240)"/>
<path d="M57.456 95.4689C58.0426 96.9062 58.336 98.5636 58.336 100.441C58.336 101.996 58.1013 103.433 57.632 104.753C56.9866 106.572 55.916 107.98 54.42 108.977C52.924 109.945 51.12 110.429 49.008 110.429C46.896 110.429 45.0626 109.886 43.508 108.801C41.9826 107.716 40.912 106.249 40.296 104.401C39.9733 103.58 39.7826 102.406 39.724 100.881C39.724 100.588 39.8706 100.441 40.164 100.441H43.552C43.8453 100.441 43.992 100.588 43.992 100.881C44.0506 101.937 44.168 102.714 44.344 103.213C44.6373 104.298 45.18 105.164 45.972 105.809C46.7933 106.454 47.8053 106.777 49.008 106.777C51.2373 106.777 52.7333 105.765 53.496 103.741C53.8773 102.861 54.068 101.717 54.068 100.309C54.068 98.8129 53.8333 97.4782 53.364 96.3049C52.5426 94.4862 51.076 93.5769 48.964 93.5769C48.4653 93.5769 47.8346 93.7969 47.072 94.2369C46.9546 94.2956 46.8666 94.3249 46.808 94.3249C46.6613 94.3249 46.544 94.2516 46.456 94.1049L44.784 91.8169C44.7253 91.6996 44.696 91.5969 44.696 91.5089C44.696 91.4209 44.74 91.3182 44.828 91.2009L52.352 83.1489C52.44 83.0022 52.4106 82.9289 52.264 82.9289H40.56C40.2666 82.9289 40.12 82.7822 40.12 82.4889V79.7169C40.12 79.4236 40.2666 79.2769 40.56 79.2769H57.632C57.9253 79.2769 58.072 79.4236 58.072 79.7169V82.8849C58.072 83.0316 57.9986 83.2076 57.852 83.4129L51.164 90.7169C51.1053 90.7756 51.0906 90.8342 51.12 90.8929C51.1493 90.9222 51.208 90.9516 51.296 90.9809C52.792 91.1276 54.0533 91.5969 55.08 92.3889C56.1066 93.1516 56.8986 94.1782 57.456 95.4689ZM83.4782 98.0209C83.7715 98.0209 83.9182 98.1676 83.9182 98.4609V101.365C83.9182 101.658 83.7715 101.805 83.4782 101.805H81.5862C81.4689 101.805 81.4102 101.864 81.4102 101.981V109.637C81.4102 109.93 81.2635 110.077 80.9702 110.077H77.6262C77.3329 110.077 77.1862 109.93 77.1862 109.637V101.981C77.1862 101.864 77.1275 101.805 77.0102 101.805H63.6342C63.3409 101.805 63.1942 101.658 63.1942 101.365V98.9889C63.1942 98.8422 63.2382 98.6662 63.3262 98.4609L71.9942 79.5849C72.0822 79.3796 72.2435 79.2769 72.4782 79.2769H75.9982C76.1449 79.2769 76.2475 79.3356 76.3062 79.4529C76.3942 79.5409 76.4089 79.6582 76.3502 79.8049L68.0782 97.8009C68.0489 97.8596 68.0489 97.9182 68.0782 97.9769C68.1075 98.0062 68.1515 98.0209 68.2102 98.0209H77.0102C77.1275 98.0209 77.1862 97.9622 77.1862 97.8449V91.2889C77.1862 90.9956 77.3329 90.8489 77.6262 90.8489H80.9702C81.2635 90.8489 81.4102 90.9956 81.4102 91.2889V97.8449C81.4102 97.9622 81.4689 98.0209 81.5862 98.0209H83.4782ZM92.7759 110.077C91.9546 110.077 91.2799 109.813 90.7519 109.285C90.2239 108.757 89.9599 108.082 89.9599 107.261C89.9599 106.44 90.2239 105.765 90.7519 105.237C91.2799 104.709 91.9546 104.445 92.7759 104.445C93.5973 104.445 94.2719 104.709 94.7999 105.237C95.3279 105.765 95.5919 106.44 95.5919 107.261C95.5919 108.082 95.3279 108.757 94.7999 109.285C94.2719 109.813 93.5973 110.077 92.7759 110.077ZM106.873 79.4089C107.049 79.3209 107.24 79.2769 107.445 79.2769H110.921C111.214 79.2769 111.361 79.4236 111.361 79.7169V109.637C111.361 109.93 111.214 110.077 110.921 110.077H107.577C107.284 110.077 107.137 109.93 107.137 109.637V83.8089C107.137 83.7502 107.108 83.7062 107.049 83.6769C107.02 83.6476 106.976 83.6476 106.917 83.6769L102.297 85.2609C102.238 85.2902 102.165 85.3049 102.077 85.3049C101.901 85.3049 101.798 85.1876 101.769 84.9529L101.593 82.4449C101.593 82.1516 101.681 81.9756 101.857 81.9169L106.873 79.4089ZM125.51 91.9049C124.307 91.9049 123.193 91.6116 122.166 91.0249C121.169 90.4382 120.377 89.6462 119.79 88.6489C119.203 87.6516 118.91 86.5516 118.91 85.3489C118.91 84.1756 119.203 83.0902 119.79 82.0929C120.377 81.0956 121.169 80.3182 122.166 79.7609C123.193 79.1742 124.307 78.8809 125.51 78.8809C126.683 78.8809 127.769 79.1742 128.766 79.7609C129.763 80.3476 130.555 81.1396 131.142 82.1369C131.729 83.1049 132.022 84.1756 132.022 85.3489C132.022 86.5516 131.729 87.6516 131.142 88.6489C130.555 89.6462 129.763 90.4382 128.766 91.0249C127.769 91.6116 126.683 91.9049 125.51 91.9049ZM124.234 110.077C124.058 110.077 123.941 110.033 123.882 109.945C123.823 109.828 123.838 109.696 123.926 109.549L140.558 79.5849C140.675 79.3796 140.851 79.2769 141.086 79.2769H143.242C143.418 79.2769 143.535 79.3356 143.594 79.4529C143.653 79.5409 143.638 79.6582 143.55 79.8049L126.918 109.769C126.83 109.974 126.654 110.077 126.39 110.077H124.234ZM125.51 89.3089C126.595 89.3089 127.505 88.9276 128.238 88.1649C128.971 87.4022 129.338 86.4636 129.338 85.3489C129.338 84.2636 128.957 83.3542 128.194 82.6209C127.461 81.8582 126.566 81.4769 125.51 81.4769C124.425 81.4769 123.501 81.8582 122.738 82.6209C121.975 83.3542 121.594 84.2636 121.594 85.3489C121.594 86.4636 121.975 87.4022 122.738 88.1649C123.501 88.9276 124.425 89.3089 125.51 89.3089ZM142.274 110.473C141.071 110.473 139.957 110.18 138.93 109.593C137.933 109.006 137.141 108.214 136.554 107.217C135.967 106.22 135.674 105.134 135.674 103.961C135.674 102.788 135.967 101.702 136.554 100.705C137.141 99.7076 137.933 98.9156 138.93 98.3289C139.957 97.7422 141.071 97.4489 142.274 97.4489C143.447 97.4489 144.533 97.7422 145.53 98.3289C146.527 98.9156 147.319 99.7076 147.906 100.705C148.493 101.702 148.786 102.788 148.786 103.961C148.786 105.134 148.493 106.22 147.906 107.217C147.319 108.214 146.527 109.006 145.53 109.593C144.533 110.18 143.447 110.473 142.274 110.473ZM142.274 107.877C143.359 107.877 144.269 107.496 145.002 106.733C145.735 105.97 146.102 105.046 146.102 103.961C146.102 102.876 145.721 101.952 144.958 101.189C144.225 100.426 143.33 100.045 142.274 100.045C141.189 100.045 140.265 100.426 139.502 101.189C138.739 101.952 138.358 102.876 138.358 103.961C138.358 105.046 138.739 105.97 139.502 106.733C140.265 107.496 141.189 107.877 142.274 107.877Z" fill="white"/>
</svg>
