<svg width="189" height="188" viewBox="0 0 189 188" fill="none" xmlns="http://www.w3.org/2000/svg">
<circle cx="94.5" cy="94" r="90" stroke="#997F8A" stroke-width="2"/>
<path d="M94.5 4C144.206 4 184.5 44.2944 184.5 94C184.5 111.945 179.248 128.663 170.198 142.701" stroke="#E3FF39" stroke-width="8" stroke-linecap="round"/>
<path d="M57.456 94.392C58.0426 95.8293 58.336 97.4867 58.336 99.364C58.336 100.919 58.1013 102.356 57.632 103.676C56.9866 105.495 55.916 106.903 54.42 107.9C52.924 108.868 51.12 109.352 49.008 109.352C46.896 109.352 45.0626 108.809 43.508 107.724C41.9826 106.639 40.912 105.172 40.296 103.324C39.9733 102.503 39.7826 101.329 39.724 99.804C39.724 99.5107 39.8706 99.364 40.164 99.364H43.552C43.8453 99.364 43.992 99.5107 43.992 99.804C44.0506 100.86 44.168 101.637 44.344 102.136C44.6373 103.221 45.18 104.087 45.972 104.732C46.7933 105.377 47.8053 105.7 49.008 105.7C51.2373 105.7 52.7333 104.688 53.496 102.664C53.8773 101.784 54.068 100.64 54.068 99.232C54.068 97.736 53.8333 96.4013 53.364 95.228C52.5426 93.4093 51.076 92.5 48.964 92.5C48.4653 92.5 47.8346 92.72 47.072 93.16C46.9546 93.2187 46.8666 93.248 46.808 93.248C46.6613 93.248 46.544 93.1747 46.456 93.028L44.784 90.74C44.7253 90.6227 44.696 90.52 44.696 90.432C44.696 90.344 44.74 90.2413 44.828 90.124L52.352 82.072C52.44 81.9253 52.4106 81.852 52.264 81.852H40.56C40.2666 81.852 40.12 81.7053 40.12 81.412V78.64C40.12 78.3467 40.2666 78.2 40.56 78.2H57.632C57.9253 78.2 58.072 78.3467 58.072 78.64V81.808C58.072 81.9547 57.9986 82.1307 57.852 82.336L51.164 89.64C51.1053 89.6987 51.0906 89.7573 51.12 89.816C51.1493 89.8453 51.208 89.8747 51.296 89.904C52.792 90.0507 54.0533 90.52 55.08 91.312C56.1066 92.0747 56.8986 93.1013 57.456 94.392ZM83.4782 96.944C83.7715 96.944 83.9182 97.0907 83.9182 97.384V100.288C83.9182 100.581 83.7715 100.728 83.4782 100.728H81.5862C81.4689 100.728 81.4102 100.787 81.4102 100.904V108.56C81.4102 108.853 81.2635 109 80.9702 109H77.6262C77.3329 109 77.1862 108.853 77.1862 108.56V100.904C77.1862 100.787 77.1275 100.728 77.0102 100.728H63.6342C63.3409 100.728 63.1942 100.581 63.1942 100.288V97.912C63.1942 97.7653 63.2382 97.5893 63.3262 97.384L71.9942 78.508C72.0822 78.3027 72.2435 78.2 72.4782 78.2H75.9982C76.1449 78.2 76.2475 78.2587 76.3062 78.376C76.3942 78.464 76.4089 78.5813 76.3502 78.728L68.0782 96.724C68.0489 96.7827 68.0489 96.8413 68.0782 96.9C68.1075 96.9293 68.1515 96.944 68.2102 96.944H77.0102C77.1275 96.944 77.1862 96.8853 77.1862 96.768V90.212C77.1862 89.9187 77.3329 89.772 77.6262 89.772H80.9702C81.2635 89.772 81.4102 89.9187 81.4102 90.212V96.768C81.4102 96.8853 81.4689 96.944 81.5862 96.944H83.4782ZM92.7759 109C91.9546 109 91.2799 108.736 90.7519 108.208C90.2239 107.68 89.9599 107.005 89.9599 106.184C89.9599 105.363 90.2239 104.688 90.7519 104.16C91.2799 103.632 91.9546 103.368 92.7759 103.368C93.5973 103.368 94.2719 103.632 94.7999 104.16C95.3279 104.688 95.5919 105.363 95.5919 106.184C95.5919 107.005 95.3279 107.68 94.7999 108.208C94.2719 108.736 93.5973 109 92.7759 109ZM106.873 78.332C107.049 78.244 107.24 78.2 107.445 78.2H110.921C111.214 78.2 111.361 78.3467 111.361 78.64V108.56C111.361 108.853 111.214 109 110.921 109H107.577C107.284 109 107.137 108.853 107.137 108.56V82.732C107.137 82.6733 107.108 82.6293 107.049 82.6C107.02 82.5707 106.976 82.5707 106.917 82.6L102.297 84.184C102.238 84.2133 102.165 84.228 102.077 84.228C101.901 84.228 101.798 84.1107 101.769 83.876L101.593 81.368C101.593 81.0747 101.681 80.8987 101.857 80.84L106.873 78.332ZM125.51 90.828C124.307 90.828 123.193 90.5347 122.166 89.948C121.169 89.3613 120.377 88.5693 119.79 87.572C119.203 86.5747 118.91 85.4747 118.91 84.272C118.91 83.0987 119.203 82.0133 119.79 81.016C120.377 80.0187 121.169 79.2413 122.166 78.684C123.193 78.0973 124.307 77.804 125.51 77.804C126.683 77.804 127.769 78.0973 128.766 78.684C129.763 79.2707 130.555 80.0627 131.142 81.06C131.729 82.028 132.022 83.0987 132.022 84.272C132.022 85.4747 131.729 86.5747 131.142 87.572C130.555 88.5693 129.763 89.3613 128.766 89.948C127.769 90.5347 126.683 90.828 125.51 90.828ZM124.234 109C124.058 109 123.941 108.956 123.882 108.868C123.823 108.751 123.838 108.619 123.926 108.472L140.558 78.508C140.675 78.3027 140.851 78.2 141.086 78.2H143.242C143.418 78.2 143.535 78.2587 143.594 78.376C143.653 78.464 143.638 78.5813 143.55 78.728L126.918 108.692C126.83 108.897 126.654 109 126.39 109H124.234ZM125.51 88.232C126.595 88.232 127.505 87.8507 128.238 87.088C128.971 86.3253 129.338 85.3867 129.338 84.272C129.338 83.1867 128.957 82.2773 128.194 81.544C127.461 80.7813 126.566 80.4 125.51 80.4C124.425 80.4 123.501 80.7813 122.738 81.544C121.975 82.2773 121.594 83.1867 121.594 84.272C121.594 85.3867 121.975 86.3253 122.738 87.088C123.501 87.8507 124.425 88.232 125.51 88.232ZM142.274 109.396C141.071 109.396 139.957 109.103 138.93 108.516C137.933 107.929 137.141 107.137 136.554 106.14C135.967 105.143 135.674 104.057 135.674 102.884C135.674 101.711 135.967 100.625 136.554 99.628C137.141 98.6307 137.933 97.8387 138.93 97.252C139.957 96.6653 141.071 96.372 142.274 96.372C143.447 96.372 144.533 96.6653 145.53 97.252C146.527 97.8387 147.319 98.6307 147.906 99.628C148.493 100.625 148.786 101.711 148.786 102.884C148.786 104.057 148.493 105.143 147.906 106.14C147.319 107.137 146.527 107.929 145.53 108.516C144.533 109.103 143.447 109.396 142.274 109.396ZM142.274 106.8C143.359 106.8 144.269 106.419 145.002 105.656C145.735 104.893 146.102 103.969 146.102 102.884C146.102 101.799 145.721 100.875 144.958 100.112C144.225 99.3493 143.33 98.968 142.274 98.968C141.189 98.968 140.265 99.3493 139.502 100.112C138.739 100.875 138.358 101.799 138.358 102.884C138.358 103.969 138.739 104.893 139.502 105.656C140.265 106.419 141.189 106.8 142.274 106.8Z" fill="white"/>
</svg>
