<svg width="188" height="188" viewBox="0 0 188 188" fill="none" xmlns="http://www.w3.org/2000/svg">
<circle cx="94" cy="94" r="90" stroke="#997F8A" stroke-width="2"/>
<path d="M94 4C143.706 4 184 44.2944 184 94C184 122.537 170.719 147.972 150 164.46" stroke="#E3FF39" stroke-width="8" stroke-linecap="round"/>
<path d="M54.1415 94.392C54.7282 95.8293 55.0215 97.4867 55.0215 99.364C55.0215 100.919 54.7868 102.356 54.3175 103.676C53.6722 105.495 52.6015 106.903 51.1055 107.9C49.6095 108.868 47.8055 109.352 45.6935 109.352C43.5815 109.352 41.7482 108.809 40.1935 107.724C38.6682 106.639 37.5975 105.172 36.9815 103.324C36.6588 102.503 36.4682 101.329 36.4095 99.804C36.4095 99.5107 36.5562 99.364 36.8495 99.364H40.2375C40.5308 99.364 40.6775 99.5107 40.6775 99.804C40.7362 100.86 40.8535 101.637 41.0295 102.136C41.3228 103.221 41.8655 104.087 42.6575 104.732C43.4788 105.377 44.4908 105.7 45.6935 105.7C47.9228 105.7 49.4188 104.688 50.1815 102.664C50.5628 101.784 50.7535 100.64 50.7535 99.232C50.7535 97.736 50.5188 96.4013 50.0495 95.228C49.2282 93.4093 47.7615 92.5 45.6495 92.5C45.1508 92.5 44.5202 92.72 43.7575 93.16C43.6402 93.2187 43.5522 93.248 43.4935 93.248C43.3468 93.248 43.2295 93.1747 43.1415 93.028L41.4695 90.74C41.4108 90.6227 41.3815 90.52 41.3815 90.432C41.3815 90.344 41.4255 90.2413 41.5135 90.124L49.0375 82.072C49.1255 81.9253 49.0962 81.852 48.9495 81.852H37.2455C36.9522 81.852 36.8055 81.7053 36.8055 81.412V78.64C36.8055 78.3467 36.9522 78.2 37.2455 78.2H54.3175C54.6108 78.2 54.7575 78.3467 54.7575 78.64V81.808C54.7575 81.9547 54.6842 82.1307 54.5375 82.336L47.8495 89.64C47.7908 89.6987 47.7762 89.7573 47.8055 89.816C47.8348 89.8453 47.8935 89.8747 47.9815 89.904C49.4775 90.0507 50.7388 90.52 51.7655 91.312C52.7922 92.0747 53.5842 93.1013 54.1415 94.392ZM77.9197 83.612C78.3597 84.844 78.5797 86.2667 78.5797 87.88V101.432C78.5797 103.837 77.7437 105.759 76.0717 107.196C74.3997 108.633 72.2144 109.352 69.5157 109.352C67.7851 109.352 66.2451 109.029 64.8957 108.384C63.5757 107.739 62.5491 106.844 61.8157 105.7C61.0824 104.527 60.7157 103.192 60.7157 101.696V100.816C60.7157 100.523 60.8624 100.376 61.1557 100.376H64.4997C64.7931 100.376 64.9397 100.523 64.9397 100.816V101.212C64.9397 102.532 65.3651 103.603 66.2157 104.424C67.0664 105.245 68.1664 105.656 69.5157 105.656C70.9237 105.656 72.0824 105.231 72.9917 104.38C73.9011 103.529 74.3557 102.4 74.3557 100.992V95.448C74.3557 95.3893 74.3264 95.3453 74.2677 95.316C74.2384 95.2867 74.1944 95.3013 74.1357 95.36C72.8744 96.7973 71.0411 97.516 68.6357 97.516C66.9051 97.516 65.4091 97.164 64.1477 96.46C62.9157 95.756 61.9477 94.7293 61.2437 93.38C60.4224 91.8253 60.0117 89.9627 60.0117 87.792C60.0117 86.032 60.2904 84.4627 60.8477 83.084C61.5224 81.412 62.5784 80.136 64.0157 79.256C65.4531 78.3467 67.1837 77.892 69.2077 77.892C71.3784 77.892 73.2117 78.3907 74.7077 79.388C76.2037 80.3853 77.2744 81.7933 77.9197 83.612ZM73.6517 91.312C74.1211 90.344 74.3557 89.0973 74.3557 87.572C74.3557 86.34 74.1651 85.2987 73.7837 84.448C73.4024 83.5093 72.8304 82.8053 72.0677 82.336C71.3051 81.8373 70.3811 81.588 69.2957 81.588C68.2104 81.588 67.2864 81.8373 66.5237 82.336C65.7904 82.8053 65.2477 83.4947 64.8957 84.404C64.4557 85.3133 64.2357 86.4427 64.2357 87.792C64.2357 89.2587 64.4851 90.4613 64.9837 91.4C65.8931 93.1013 67.3304 93.952 69.2957 93.952C71.3784 93.952 72.8304 93.072 73.6517 91.312ZM87.4849 109C86.6636 109 85.9889 108.736 85.4609 108.208C84.9329 107.68 84.6689 107.005 84.6689 106.184C84.6689 105.363 84.9329 104.688 85.4609 104.16C85.9889 103.632 86.6636 103.368 87.4849 103.368C88.3063 103.368 88.9809 103.632 89.5089 104.16C90.0369 104.688 90.3009 105.363 90.3009 106.184C90.3009 107.005 90.0369 107.68 89.5089 108.208C88.9809 108.736 88.3063 109 87.4849 109ZM113.77 94.392C114.357 95.8293 114.65 97.4867 114.65 99.364C114.65 100.919 114.415 102.356 113.946 103.676C113.301 105.495 112.23 106.903 110.734 107.9C109.238 108.868 107.434 109.352 105.322 109.352C103.21 109.352 101.377 108.809 99.8221 107.724C98.2968 106.639 97.2261 105.172 96.6101 103.324C96.2874 102.503 96.0968 101.329 96.0381 99.804C96.0381 99.5107 96.1848 99.364 96.4781 99.364H99.8661C100.159 99.364 100.306 99.5107 100.306 99.804C100.365 100.86 100.482 101.637 100.658 102.136C100.951 103.221 101.494 104.087 102.286 104.732C103.107 105.377 104.119 105.7 105.322 105.7C107.551 105.7 109.047 104.688 109.81 102.664C110.191 101.784 110.382 100.64 110.382 99.232C110.382 97.736 110.147 96.4013 109.678 95.228C108.857 93.4093 107.39 92.5 105.278 92.5C104.779 92.5 104.149 92.72 103.386 93.16C103.269 93.2187 103.181 93.248 103.122 93.248C102.975 93.248 102.858 93.1747 102.77 93.028L101.098 90.74C101.039 90.6227 101.01 90.52 101.01 90.432C101.01 90.344 101.054 90.2413 101.142 90.124L108.666 82.072C108.754 81.9253 108.725 81.852 108.578 81.852H96.8741C96.5808 81.852 96.4341 81.7053 96.4341 81.412V78.64C96.4341 78.3467 96.5808 78.2 96.8741 78.2H113.946C114.239 78.2 114.386 78.3467 114.386 78.64V81.808C114.386 81.9547 114.313 82.1307 114.166 82.336L107.478 89.64C107.419 89.6987 107.405 89.7573 107.434 89.816C107.463 89.8453 107.522 89.8747 107.61 89.904C109.106 90.0507 110.367 90.52 111.394 91.312C112.421 92.0747 113.213 93.1013 113.77 94.392ZM127.824 90.828C126.622 90.828 125.507 90.5347 124.48 89.948C123.483 89.3613 122.691 88.5693 122.104 87.572C121.518 86.5747 121.224 85.4747 121.224 84.272C121.224 83.0987 121.518 82.0133 122.104 81.016C122.691 80.0187 123.483 79.2413 124.48 78.684C125.507 78.0973 126.622 77.804 127.824 77.804C128.998 77.804 130.083 78.0973 131.08 78.684C132.078 79.2707 132.87 80.0627 133.456 81.06C134.043 82.028 134.336 83.0987 134.336 84.272C134.336 85.4747 134.043 86.5747 133.456 87.572C132.87 88.5693 132.078 89.3613 131.08 89.948C130.083 90.5347 128.998 90.828 127.824 90.828ZM126.548 109C126.372 109 126.255 108.956 126.196 108.868C126.138 108.751 126.152 108.619 126.24 108.472L142.872 78.508C142.99 78.3027 143.166 78.2 143.4 78.2H145.556C145.732 78.2 145.85 78.2587 145.908 78.376C145.967 78.464 145.952 78.5813 145.864 78.728L129.232 108.692C129.144 108.897 128.968 109 128.704 109H126.548ZM127.824 88.232C128.91 88.232 129.819 87.8507 130.552 87.088C131.286 86.3253 131.652 85.3867 131.652 84.272C131.652 83.1867 131.271 82.2773 130.508 81.544C129.775 80.7813 128.88 80.4 127.824 80.4C126.739 80.4 125.815 80.7813 125.052 81.544C124.29 82.2773 123.908 83.1867 123.908 84.272C123.908 85.3867 124.29 86.3253 125.052 87.088C125.815 87.8507 126.739 88.232 127.824 88.232ZM144.588 109.396C143.386 109.396 142.271 109.103 141.244 108.516C140.247 107.929 139.455 107.137 138.868 106.14C138.282 105.143 137.988 104.057 137.988 102.884C137.988 101.711 138.282 100.625 138.868 99.628C139.455 98.6307 140.247 97.8387 141.244 97.252C142.271 96.6653 143.386 96.372 144.588 96.372C145.762 96.372 146.847 96.6653 147.844 97.252C148.842 97.8387 149.634 98.6307 150.22 99.628C150.807 100.625 151.1 101.711 151.1 102.884C151.1 104.057 150.807 105.143 150.22 106.14C149.634 107.137 148.842 107.929 147.844 108.516C146.847 109.103 145.762 109.396 144.588 109.396ZM144.588 106.8C145.674 106.8 146.583 106.419 147.316 105.656C148.05 104.893 148.416 103.969 148.416 102.884C148.416 101.799 148.035 100.875 147.272 100.112C146.539 99.3493 145.644 98.968 144.588 98.968C143.503 98.968 142.579 99.3493 141.816 100.112C141.054 100.875 140.672 101.799 140.672 102.884C140.672 103.969 141.054 104.893 141.816 105.656C142.579 106.419 143.503 106.8 144.588 106.8Z" fill="white"/>
</svg>
