<svg width="189" height="189" viewBox="0 0 189 189" fill="none" xmlns="http://www.w3.org/2000/svg">
<circle cx="94" cy="95" r="90" stroke="#997F8A" stroke-width="2"/>
<mask id="path-2-outside-1_31:1071" maskUnits="userSpaceOnUse" x="93" y="0" width="96" height="168" fill="black">
<rect fill="white" x="93" width="96" height="168"/>
<path d="M94 4.995C94 2.78862 95.7897 0.991138 97.994 1.08486C116.085 1.85402 133.601 7.83521 148.412 18.3495C164.311 29.6359 176.307 45.587 182.739 63.9936C189.17 82.4002 189.719 102.351 184.309 121.083C179.269 138.534 169.289 154.122 155.614 165.991C153.948 167.437 151.428 167.145 150.054 165.419C148.68 163.693 148.972 161.186 150.633 159.734C163.014 148.902 172.052 134.724 176.632 118.866C181.583 101.726 181.081 83.4711 175.196 66.6291C169.311 49.7871 158.335 35.1918 143.787 24.8648C130.327 15.31 114.427 9.84643 97.9939 9.08274C95.7899 8.98032 94 7.20138 94 4.995Z"/>
</mask>
<path d="M94 4.995C94 2.78862 95.7897 0.991138 97.994 1.08486C116.085 1.85402 133.601 7.83521 148.412 18.3495C164.311 29.6359 176.307 45.587 182.739 63.9936C189.17 82.4002 189.719 102.351 184.309 121.083C179.269 138.534 169.289 154.122 155.614 165.991C153.948 167.437 151.428 167.145 150.054 165.419C148.68 163.693 148.972 161.186 150.633 159.734C163.014 148.902 172.052 134.724 176.632 118.866C181.583 101.726 181.081 83.4711 175.196 66.6291C169.311 49.7871 158.335 35.1918 143.787 24.8648C130.327 15.31 114.427 9.84643 97.9939 9.08274C95.7899 8.98032 94 7.20138 94 4.995Z" fill="#E3FF39"/>
<path d="M94 4.995C94 2.78862 95.7897 0.991138 97.994 1.08486C116.085 1.85402 133.601 7.83521 148.412 18.3495C164.311 29.6359 176.307 45.587 182.739 63.9936C189.17 82.4002 189.719 102.351 184.309 121.083C179.269 138.534 169.289 154.122 155.614 165.991C153.948 167.437 151.428 167.145 150.054 165.419C148.68 163.693 148.972 161.186 150.633 159.734C163.014 148.902 172.052 134.724 176.632 118.866C181.583 101.726 181.081 83.4711 175.196 66.6291C169.311 49.7871 158.335 35.1918 143.787 24.8648C130.327 15.31 114.427 9.84643 97.9939 9.08274C95.7899 8.98032 94 7.20138 94 4.995Z" stroke="#3E404C" stroke-width="2" mask="url(#path-2-outside-1_31:1071)"/>
<path d="M54.1415 95.4689C54.7282 96.9062 55.0215 98.5636 55.0215 100.441C55.0215 101.996 54.7868 103.433 54.3175 104.753C53.6722 106.572 52.6015 107.98 51.1055 108.977C49.6095 109.945 47.8055 110.429 45.6935 110.429C43.5815 110.429 41.7482 109.886 40.1935 108.801C38.6682 107.716 37.5975 106.249 36.9815 104.401C36.6588 103.58 36.4682 102.406 36.4095 100.881C36.4095 100.588 36.5562 100.441 36.8495 100.441H40.2375C40.5308 100.441 40.6775 100.588 40.6775 100.881C40.7362 101.937 40.8535 102.714 41.0295 103.213C41.3228 104.298 41.8655 105.164 42.6575 105.809C43.4788 106.454 44.4908 106.777 45.6935 106.777C47.9228 106.777 49.4188 105.765 50.1815 103.741C50.5628 102.861 50.7535 101.717 50.7535 100.309C50.7535 98.8129 50.5188 97.4782 50.0495 96.3049C49.2282 94.4862 47.7615 93.5769 45.6495 93.5769C45.1508 93.5769 44.5202 93.7969 43.7575 94.2369C43.6402 94.2956 43.5522 94.3249 43.4935 94.3249C43.3468 94.3249 43.2295 94.2516 43.1415 94.1049L41.4695 91.8169C41.4108 91.6996 41.3815 91.5969 41.3815 91.5089C41.3815 91.4209 41.4255 91.3182 41.5135 91.2009L49.0375 83.1489C49.1255 83.0022 49.0962 82.9289 48.9495 82.9289H37.2455C36.9522 82.9289 36.8055 82.7822 36.8055 82.4889V79.7169C36.8055 79.4236 36.9522 79.2769 37.2455 79.2769H54.3175C54.6108 79.2769 54.7575 79.4236 54.7575 79.7169V82.8849C54.7575 83.0316 54.6842 83.2076 54.5375 83.4129L47.8495 90.7169C47.7908 90.7756 47.7762 90.8342 47.8055 90.8929C47.8348 90.9222 47.8935 90.9516 47.9815 90.9809C49.4775 91.1276 50.7388 91.5969 51.7655 92.3889C52.7922 93.1516 53.5842 94.1782 54.1415 95.4689ZM77.9197 84.6889C78.3597 85.9209 78.5797 87.3436 78.5797 88.9569V102.509C78.5797 104.914 77.7437 106.836 76.0717 108.273C74.3997 109.71 72.2144 110.429 69.5157 110.429C67.7851 110.429 66.2451 110.106 64.8957 109.461C63.5757 108.816 62.5491 107.921 61.8157 106.777C61.0824 105.604 60.7157 104.269 60.7157 102.773V101.893C60.7157 101.6 60.8624 101.453 61.1557 101.453H64.4997C64.7931 101.453 64.9397 101.6 64.9397 101.893V102.289C64.9397 103.609 65.3651 104.68 66.2157 105.501C67.0664 106.322 68.1664 106.733 69.5157 106.733C70.9237 106.733 72.0824 106.308 72.9917 105.457C73.9011 104.606 74.3557 103.477 74.3557 102.069V96.5249C74.3557 96.4662 74.3264 96.4222 74.2677 96.3929C74.2384 96.3636 74.1944 96.3782 74.1357 96.4369C72.8744 97.8742 71.0411 98.5929 68.6357 98.5929C66.9051 98.5929 65.4091 98.2409 64.1477 97.5369C62.9157 96.8329 61.9477 95.8062 61.2437 94.4569C60.4224 92.9022 60.0117 91.0396 60.0117 88.8689C60.0117 87.1089 60.2904 85.5396 60.8477 84.1609C61.5224 82.4889 62.5784 81.2129 64.0157 80.3329C65.4531 79.4236 67.1837 78.9689 69.2077 78.9689C71.3784 78.9689 73.2117 79.4676 74.7077 80.4649C76.2037 81.4622 77.2744 82.8702 77.9197 84.6889ZM73.6517 92.3889C74.1211 91.4209 74.3557 90.1742 74.3557 88.6489C74.3557 87.4169 74.1651 86.3756 73.7837 85.5249C73.4024 84.5862 72.8304 83.8822 72.0677 83.4129C71.3051 82.9142 70.3811 82.6649 69.2957 82.6649C68.2104 82.6649 67.2864 82.9142 66.5237 83.4129C65.7904 83.8822 65.2477 84.5716 64.8957 85.4809C64.4557 86.3902 64.2357 87.5196 64.2357 88.8689C64.2357 90.3356 64.4851 91.5382 64.9837 92.4769C65.8931 94.1782 67.3304 95.0289 69.2957 95.0289C71.3784 95.0289 72.8304 94.1489 73.6517 92.3889ZM87.4849 110.077C86.6636 110.077 85.9889 109.813 85.4609 109.285C84.9329 108.757 84.6689 108.082 84.6689 107.261C84.6689 106.44 84.9329 105.765 85.4609 105.237C85.9889 104.709 86.6636 104.445 87.4849 104.445C88.3063 104.445 88.9809 104.709 89.5089 105.237C90.0369 105.765 90.3009 106.44 90.3009 107.261C90.3009 108.082 90.0369 108.757 89.5089 109.285C88.9809 109.813 88.3063 110.077 87.4849 110.077ZM113.77 95.4689C114.357 96.9062 114.65 98.5636 114.65 100.441C114.65 101.996 114.415 103.433 113.946 104.753C113.301 106.572 112.23 107.98 110.734 108.977C109.238 109.945 107.434 110.429 105.322 110.429C103.21 110.429 101.377 109.886 99.8221 108.801C98.2968 107.716 97.2261 106.249 96.6101 104.401C96.2874 103.58 96.0968 102.406 96.0381 100.881C96.0381 100.588 96.1848 100.441 96.4781 100.441H99.8661C100.159 100.441 100.306 100.588 100.306 100.881C100.365 101.937 100.482 102.714 100.658 103.213C100.951 104.298 101.494 105.164 102.286 105.809C103.107 106.454 104.119 106.777 105.322 106.777C107.551 106.777 109.047 105.765 109.81 103.741C110.191 102.861 110.382 101.717 110.382 100.309C110.382 98.8129 110.147 97.4782 109.678 96.3049C108.857 94.4862 107.39 93.5769 105.278 93.5769C104.779 93.5769 104.149 93.7969 103.386 94.2369C103.269 94.2956 103.181 94.3249 103.122 94.3249C102.975 94.3249 102.858 94.2516 102.77 94.1049L101.098 91.8169C101.039 91.6996 101.01 91.5969 101.01 91.5089C101.01 91.4209 101.054 91.3182 101.142 91.2009L108.666 83.1489C108.754 83.0022 108.725 82.9289 108.578 82.9289H96.8741C96.5808 82.9289 96.4341 82.7822 96.4341 82.4889V79.7169C96.4341 79.4236 96.5808 79.2769 96.8741 79.2769H113.946C114.239 79.2769 114.386 79.4236 114.386 79.7169V82.8849C114.386 83.0316 114.313 83.2076 114.166 83.4129L107.478 90.7169C107.419 90.7756 107.405 90.8342 107.434 90.8929C107.463 90.9222 107.522 90.9516 107.61 90.9809C109.106 91.1276 110.367 91.5969 111.394 92.3889C112.421 93.1516 113.213 94.1782 113.77 95.4689ZM127.824 91.9049C126.622 91.9049 125.507 91.6116 124.48 91.0249C123.483 90.4382 122.691 89.6462 122.104 88.6489C121.518 87.6516 121.224 86.5516 121.224 85.3489C121.224 84.1756 121.518 83.0902 122.104 82.0929C122.691 81.0956 123.483 80.3182 124.48 79.7609C125.507 79.1742 126.622 78.8809 127.824 78.8809C128.998 78.8809 130.083 79.1742 131.08 79.7609C132.078 80.3476 132.87 81.1396 133.456 82.1369C134.043 83.1049 134.336 84.1756 134.336 85.3489C134.336 86.5516 134.043 87.6516 133.456 88.6489C132.87 89.6462 132.078 90.4382 131.08 91.0249C130.083 91.6116 128.998 91.9049 127.824 91.9049ZM126.548 110.077C126.372 110.077 126.255 110.033 126.196 109.945C126.138 109.828 126.152 109.696 126.24 109.549L142.872 79.5849C142.99 79.3796 143.166 79.2769 143.4 79.2769H145.556C145.732 79.2769 145.85 79.3356 145.908 79.4529C145.967 79.5409 145.952 79.6582 145.864 79.8049L129.232 109.769C129.144 109.974 128.968 110.077 128.704 110.077H126.548ZM127.824 89.3089C128.91 89.3089 129.819 88.9276 130.552 88.1649C131.286 87.4022 131.652 86.4636 131.652 85.3489C131.652 84.2636 131.271 83.3542 130.508 82.6209C129.775 81.8582 128.88 81.4769 127.824 81.4769C126.739 81.4769 125.815 81.8582 125.052 82.6209C124.29 83.3542 123.908 84.2636 123.908 85.3489C123.908 86.4636 124.29 87.4022 125.052 88.1649C125.815 88.9276 126.739 89.3089 127.824 89.3089ZM144.588 110.473C143.386 110.473 142.271 110.18 141.244 109.593C140.247 109.006 139.455 108.214 138.868 107.217C138.282 106.22 137.988 105.134 137.988 103.961C137.988 102.788 138.282 101.702 138.868 100.705C139.455 99.7076 140.247 98.9156 141.244 98.3289C142.271 97.7422 143.386 97.4489 144.588 97.4489C145.762 97.4489 146.847 97.7422 147.844 98.3289C148.842 98.9156 149.634 99.7076 150.22 100.705C150.807 101.702 151.1 102.788 151.1 103.961C151.1 105.134 150.807 106.22 150.22 107.217C149.634 108.214 148.842 109.006 147.844 109.593C146.847 110.18 145.762 110.473 144.588 110.473ZM144.588 107.877C145.674 107.877 146.583 107.496 147.316 106.733C148.05 105.97 148.416 105.046 148.416 103.961C148.416 102.876 148.035 101.952 147.272 101.189C146.539 100.426 145.644 100.045 144.588 100.045C143.503 100.045 142.579 100.426 141.816 101.189C141.054 101.952 140.672 102.876 140.672 103.961C140.672 105.046 141.054 105.97 141.816 106.733C142.579 107.496 143.503 107.877 144.588 107.877Z" fill="white"/>
</svg>
