<svg width="189" height="190" viewBox="0 0 189 190" fill="none" xmlns="http://www.w3.org/2000/svg">
<circle cx="94" cy="95" r="90" stroke="#997F8A" stroke-width="2"/>
<mask id="path-2-outside-1_31:3210" maskUnits="userSpaceOnUse" x="53" y="0" width="136" height="190" fill="black">
<rect fill="white" x="53" width="136" height="190"/>
<path d="M94 4.995C94 2.78862 95.7895 0.991137 97.9938 1.08488C110.732 1.62656 123.242 4.755 134.757 10.2952C147.472 16.4135 158.647 25.316 167.453 36.3425C176.258 47.369 182.468 60.2365 185.622 73.9905C188.776 87.7445 188.793 102.032 185.671 115.794C182.55 129.555 176.37 142.437 167.591 153.484C158.811 164.531 147.657 173.46 134.956 179.609C122.255 185.757 108.332 188.966 94.2215 189C81.4437 189.03 68.8082 186.455 57.0827 181.447C55.0536 180.581 54.2148 178.187 55.1668 176.197C56.1187 174.206 58.5008 173.373 60.5333 174.232C71.174 178.726 82.6245 181.037 94.2026 181.01C107.114 180.979 119.853 178.042 131.475 172.417C143.096 166.791 153.302 158.621 161.335 148.513C169.369 138.405 175.023 126.618 177.879 114.026C180.735 101.434 180.72 88.3612 177.834 75.7763C174.948 63.1914 169.266 51.4176 161.209 41.3284C153.152 31.2391 142.927 23.0933 131.292 17.4951C120.859 12.475 109.532 9.61907 97.9937 9.08276C95.7897 8.98032 94 7.20138 94 4.995Z"/>
</mask>
<path d="M94 4.995C94 2.78862 95.7895 0.991137 97.9938 1.08488C110.732 1.62656 123.242 4.755 134.757 10.2952C147.472 16.4135 158.647 25.316 167.453 36.3425C176.258 47.369 182.468 60.2365 185.622 73.9905C188.776 87.7445 188.793 102.032 185.671 115.794C182.55 129.555 176.37 142.437 167.591 153.484C158.811 164.531 147.657 173.46 134.956 179.609C122.255 185.757 108.332 188.966 94.2215 189C81.4437 189.03 68.8082 186.455 57.0827 181.447C55.0536 180.581 54.2148 178.187 55.1668 176.197C56.1187 174.206 58.5008 173.373 60.5333 174.232C71.174 178.726 82.6245 181.037 94.2026 181.01C107.114 180.979 119.853 178.042 131.475 172.417C143.096 166.791 153.302 158.621 161.335 148.513C169.369 138.405 175.023 126.618 177.879 114.026C180.735 101.434 180.72 88.3612 177.834 75.7763C174.948 63.1914 169.266 51.4176 161.209 41.3284C153.152 31.2391 142.927 23.0933 131.292 17.4951C120.859 12.475 109.532 9.61907 97.9937 9.08276C95.7897 8.98032 94 7.20138 94 4.995Z" fill="#E3FF39"/>
<path d="M94 4.995C94 2.78862 95.7895 0.991137 97.9938 1.08488C110.732 1.62656 123.242 4.755 134.757 10.2952C147.472 16.4135 158.647 25.316 167.453 36.3425C176.258 47.369 182.468 60.2365 185.622 73.9905C188.776 87.7445 188.793 102.032 185.671 115.794C182.55 129.555 176.37 142.437 167.591 153.484C158.811 164.531 147.657 173.46 134.956 179.609C122.255 185.757 108.332 188.966 94.2215 189C81.4437 189.03 68.8082 186.455 57.0827 181.447C55.0536 180.581 54.2148 178.187 55.1668 176.197C56.1187 174.206 58.5008 173.373 60.5333 174.232C71.174 178.726 82.6245 181.037 94.2026 181.01C107.114 180.979 119.853 178.042 131.475 172.417C143.096 166.791 153.302 158.621 161.335 148.513C169.369 138.405 175.023 126.618 177.879 114.026C180.735 101.434 180.72 88.3612 177.834 75.7763C174.948 63.1914 169.266 51.4176 161.209 41.3284C153.152 31.2391 142.927 23.0933 131.292 17.4951C120.859 12.475 109.532 9.61907 97.9937 9.08276C95.7897 8.98032 94 7.20138 94 4.995Z" stroke="#3E404C" stroke-width="2" mask="url(#path-2-outside-1_31:3210)"/>
<path d="M60.9952 96.4369C61.3179 97.7276 61.4792 99.0622 61.4792 100.441C61.4792 101.82 61.3032 103.096 60.9512 104.269C60.3939 106.146 59.3232 107.642 57.7392 108.757C56.1845 109.842 54.3219 110.385 52.1512 110.385C50.0099 110.385 48.1765 109.857 46.6512 108.801C45.1259 107.745 44.0552 106.308 43.4392 104.489C43.1459 103.668 42.9845 102.949 42.9552 102.333V102.245C42.9552 102.01 43.0872 101.893 43.3512 101.893H46.8272C47.0912 101.893 47.2379 102.025 47.2672 102.289C47.2965 102.494 47.3699 102.802 47.4872 103.213C47.8099 104.298 48.3672 105.164 49.1592 105.809C49.9805 106.425 50.9632 106.733 52.1072 106.733C53.3099 106.733 54.3219 106.41 55.1432 105.765C55.9939 105.09 56.5659 104.166 56.8592 102.993C57.0645 102.377 57.1672 101.526 57.1672 100.441C57.1672 99.4729 57.0792 98.5782 56.9032 97.7569C56.6979 96.6422 56.1699 95.7916 55.3192 95.2049C54.4979 94.5889 53.4712 94.2809 52.2392 94.2809C51.0952 94.2809 50.0685 94.5449 49.1592 95.0729C48.2499 95.5716 47.6632 96.2462 47.3992 97.0969C47.3112 97.3609 47.1499 97.4929 46.9152 97.4929H43.3952C43.1019 97.4929 42.9552 97.3462 42.9552 97.0529V79.7169C42.9552 79.4236 43.1019 79.2769 43.3952 79.2769H59.8512C60.1445 79.2769 60.2912 79.4236 60.2912 79.7169V82.4889C60.2912 82.7822 60.1445 82.9289 59.8512 82.9289H47.3552C47.2379 82.9289 47.1792 82.9876 47.1792 83.1049L47.1352 92.3009C47.1352 92.4769 47.2085 92.5209 47.3552 92.4329C48.0592 91.8169 48.8659 91.3622 49.7752 91.0689C50.7139 90.7462 51.6965 90.5849 52.7232 90.5849C54.7765 90.5849 56.5365 91.0982 58.0032 92.1249C59.4992 93.1516 60.4965 94.5889 60.9952 96.4369ZM70.0345 110.077C69.8878 110.077 69.7705 110.033 69.6825 109.945C69.6238 109.828 69.6238 109.696 69.6825 109.549L79.6705 83.1489C79.6998 83.0902 79.6998 83.0462 79.6705 83.0169C79.6411 82.9582 79.5971 82.9289 79.5385 82.9289H68.9345C68.8171 82.9289 68.7585 82.9876 68.7585 83.1049V85.1729C68.7585 85.4662 68.6118 85.6129 68.3185 85.6129H65.6785C65.3851 85.6129 65.2385 85.4662 65.2385 85.1729V79.7169C65.2385 79.4236 65.3851 79.2769 65.6785 79.2769H83.7625C84.0558 79.2769 84.2025 79.4236 84.2025 79.7169V82.6649C84.2025 82.7822 84.1731 82.9582 84.1145 83.1929L74.1705 109.725C74.0825 109.96 73.9211 110.077 73.6865 110.077H70.0345ZM89.1607 110.077C88.3394 110.077 87.6647 109.813 87.1367 109.285C86.6087 108.757 86.3447 108.082 86.3447 107.261C86.3447 106.44 86.6087 105.765 87.1367 105.237C87.6647 104.709 88.3394 104.445 89.1607 104.445C89.982 104.445 90.6567 104.709 91.1847 105.237C91.7127 105.765 91.9767 106.44 91.9767 107.261C91.9767 108.082 91.7127 108.757 91.1847 109.285C90.6567 109.813 89.982 110.077 89.1607 110.077ZM103.258 79.4089C103.434 79.3209 103.625 79.2769 103.83 79.2769H107.306C107.599 79.2769 107.746 79.4236 107.746 79.7169V109.637C107.746 109.93 107.599 110.077 107.306 110.077H103.962C103.669 110.077 103.522 109.93 103.522 109.637V83.8089C103.522 83.7502 103.493 83.7062 103.434 83.6769C103.405 83.6476 103.361 83.6476 103.302 83.6769L98.6819 85.2609C98.6232 85.2902 98.5499 85.3049 98.4619 85.3049C98.2859 85.3049 98.1832 85.1876 98.1539 84.9529L97.9779 82.4449C97.9779 82.1516 98.0659 81.9756 98.2419 81.9169L103.258 79.4089ZM121.895 91.9049C120.692 91.9049 119.577 91.6116 118.551 91.0249C117.553 90.4382 116.761 89.6462 116.175 88.6489C115.588 87.6516 115.295 86.5516 115.295 85.3489C115.295 84.1756 115.588 83.0902 116.175 82.0929C116.761 81.0956 117.553 80.3182 118.551 79.7609C119.577 79.1742 120.692 78.8809 121.895 78.8809C123.068 78.8809 124.153 79.1742 125.151 79.7609C126.148 80.3476 126.94 81.1396 127.527 82.1369C128.113 83.1049 128.407 84.1756 128.407 85.3489C128.407 86.5516 128.113 87.6516 127.527 88.6489C126.94 89.6462 126.148 90.4382 125.151 91.0249C124.153 91.6116 123.068 91.9049 121.895 91.9049ZM120.619 110.077C120.443 110.077 120.325 110.033 120.267 109.945C120.208 109.828 120.223 109.696 120.311 109.549L136.943 79.5849C137.06 79.3796 137.236 79.2769 137.471 79.2769H139.627C139.803 79.2769 139.92 79.3356 139.979 79.4529C140.037 79.5409 140.023 79.6582 139.935 79.8049L123.303 109.769C123.215 109.974 123.039 110.077 122.775 110.077H120.619ZM121.895 89.3089C122.98 89.3089 123.889 88.9276 124.623 88.1649C125.356 87.4022 125.723 86.4636 125.723 85.3489C125.723 84.2636 125.341 83.3542 124.579 82.6209C123.845 81.8582 122.951 81.4769 121.895 81.4769C120.809 81.4769 119.885 81.8582 119.123 82.6209C118.36 83.3542 117.979 84.2636 117.979 85.3489C117.979 86.4636 118.36 87.4022 119.123 88.1649C119.885 88.9276 120.809 89.3089 121.895 89.3089ZM138.659 110.473C137.456 110.473 136.341 110.18 135.315 109.593C134.317 109.006 133.525 108.214 132.939 107.217C132.352 106.22 132.059 105.134 132.059 103.961C132.059 102.788 132.352 101.702 132.939 100.705C133.525 99.7076 134.317 98.9156 135.315 98.3289C136.341 97.7422 137.456 97.4489 138.659 97.4489C139.832 97.4489 140.917 97.7422 141.915 98.3289C142.912 98.9156 143.704 99.7076 144.291 100.705C144.877 101.702 145.171 102.788 145.171 103.961C145.171 105.134 144.877 106.22 144.291 107.217C143.704 108.214 142.912 109.006 141.915 109.593C140.917 110.18 139.832 110.473 138.659 110.473ZM138.659 107.877C139.744 107.877 140.653 107.496 141.387 106.733C142.12 105.97 142.487 105.046 142.487 103.961C142.487 102.876 142.105 101.952 141.343 101.189C140.609 100.426 139.715 100.045 138.659 100.045C137.573 100.045 136.649 100.426 135.887 101.189C135.124 101.952 134.743 102.876 134.743 103.961C134.743 105.046 135.124 105.97 135.887 106.733C136.649 107.496 137.573 107.877 138.659 107.877Z" fill="white"/>
</svg>
