<svg width="188" height="188" viewBox="0 0 188 188" fill="none" xmlns="http://www.w3.org/2000/svg">
<circle cx="94" cy="94" r="90" stroke="#997F8A" stroke-width="2"/>
<path d="M94 4C143.706 4 184 44.2944 184 94C184 143.706 143.706 184 94 184C80.0277 184 66.799 180.816 55 175.134" stroke="#E3FF39" stroke-width="8" stroke-linecap="round"/>
<path d="M60.9952 95.36C61.3179 96.6507 61.4792 97.9853 61.4792 99.364C61.4792 100.743 61.3032 102.019 60.9512 103.192C60.3939 105.069 59.3232 106.565 57.7392 107.68C56.1845 108.765 54.3219 109.308 52.1512 109.308C50.0099 109.308 48.1765 108.78 46.6512 107.724C45.1259 106.668 44.0552 105.231 43.4392 103.412C43.1459 102.591 42.9845 101.872 42.9552 101.256V101.168C42.9552 100.933 43.0872 100.816 43.3512 100.816H46.8272C47.0912 100.816 47.2379 100.948 47.2672 101.212C47.2965 101.417 47.3699 101.725 47.4872 102.136C47.8099 103.221 48.3672 104.087 49.1592 104.732C49.9805 105.348 50.9632 105.656 52.1072 105.656C53.3099 105.656 54.3219 105.333 55.1432 104.688C55.9939 104.013 56.5659 103.089 56.8592 101.916C57.0645 101.3 57.1672 100.449 57.1672 99.364C57.1672 98.396 57.0792 97.5013 56.9032 96.68C56.6979 95.5653 56.1699 94.7147 55.3192 94.128C54.4979 93.512 53.4712 93.204 52.2392 93.204C51.0952 93.204 50.0685 93.468 49.1592 93.996C48.2499 94.4947 47.6632 95.1693 47.3992 96.02C47.3112 96.284 47.1499 96.416 46.9152 96.416H43.3952C43.1019 96.416 42.9552 96.2693 42.9552 95.976V78.64C42.9552 78.3467 43.1019 78.2 43.3952 78.2H59.8512C60.1445 78.2 60.2912 78.3467 60.2912 78.64V81.412C60.2912 81.7053 60.1445 81.852 59.8512 81.852H47.3552C47.2379 81.852 47.1792 81.9107 47.1792 82.028L47.1352 91.224C47.1352 91.4 47.2085 91.444 47.3552 91.356C48.0592 90.74 48.8659 90.2853 49.7752 89.992C50.7139 89.6693 51.6965 89.508 52.7232 89.508C54.7765 89.508 56.5365 90.0213 58.0032 91.048C59.4992 92.0747 60.4965 93.512 60.9952 95.36ZM70.0345 109C69.8878 109 69.7705 108.956 69.6825 108.868C69.6238 108.751 69.6238 108.619 69.6825 108.472L79.6705 82.072C79.6998 82.0133 79.6998 81.9693 79.6705 81.94C79.6411 81.8813 79.5971 81.852 79.5385 81.852H68.9345C68.8171 81.852 68.7585 81.9107 68.7585 82.028V84.096C68.7585 84.3893 68.6118 84.536 68.3185 84.536H65.6785C65.3851 84.536 65.2385 84.3893 65.2385 84.096V78.64C65.2385 78.3467 65.3851 78.2 65.6785 78.2H83.7625C84.0558 78.2 84.2025 78.3467 84.2025 78.64V81.588C84.2025 81.7053 84.1731 81.8813 84.1145 82.116L74.1705 108.648C74.0825 108.883 73.9211 109 73.6865 109H70.0345ZM89.1607 109C88.3394 109 87.6647 108.736 87.1367 108.208C86.6087 107.68 86.3447 107.005 86.3447 106.184C86.3447 105.363 86.6087 104.688 87.1367 104.16C87.6647 103.632 88.3394 103.368 89.1607 103.368C89.982 103.368 90.6567 103.632 91.1847 104.16C91.7127 104.688 91.9767 105.363 91.9767 106.184C91.9767 107.005 91.7127 107.68 91.1847 108.208C90.6567 108.736 89.982 109 89.1607 109ZM103.258 78.332C103.434 78.244 103.625 78.2 103.83 78.2H107.306C107.599 78.2 107.746 78.3467 107.746 78.64V108.56C107.746 108.853 107.599 109 107.306 109H103.962C103.669 109 103.522 108.853 103.522 108.56V82.732C103.522 82.6733 103.493 82.6293 103.434 82.6C103.405 82.5707 103.361 82.5707 103.302 82.6L98.6819 84.184C98.6232 84.2133 98.5499 84.228 98.4619 84.228C98.2859 84.228 98.1832 84.1107 98.1539 83.876L97.9779 81.368C97.9779 81.0747 98.0659 80.8987 98.2419 80.84L103.258 78.332ZM121.895 90.828C120.692 90.828 119.577 90.5347 118.551 89.948C117.553 89.3613 116.761 88.5693 116.175 87.572C115.588 86.5747 115.295 85.4747 115.295 84.272C115.295 83.0987 115.588 82.0133 116.175 81.016C116.761 80.0187 117.553 79.2413 118.551 78.684C119.577 78.0973 120.692 77.804 121.895 77.804C123.068 77.804 124.153 78.0973 125.151 78.684C126.148 79.2707 126.94 80.0627 127.527 81.06C128.113 82.028 128.407 83.0987 128.407 84.272C128.407 85.4747 128.113 86.5747 127.527 87.572C126.94 88.5693 126.148 89.3613 125.151 89.948C124.153 90.5347 123.068 90.828 121.895 90.828ZM120.619 109C120.443 109 120.325 108.956 120.267 108.868C120.208 108.751 120.223 108.619 120.311 108.472L136.943 78.508C137.06 78.3027 137.236 78.2 137.471 78.2H139.627C139.803 78.2 139.92 78.2587 139.979 78.376C140.037 78.464 140.023 78.5813 139.935 78.728L123.303 108.692C123.215 108.897 123.039 109 122.775 109H120.619ZM121.895 88.232C122.98 88.232 123.889 87.8507 124.623 87.088C125.356 86.3253 125.723 85.3867 125.723 84.272C125.723 83.1867 125.341 82.2773 124.579 81.544C123.845 80.7813 122.951 80.4 121.895 80.4C120.809 80.4 119.885 80.7813 119.123 81.544C118.36 82.2773 117.979 83.1867 117.979 84.272C117.979 85.3867 118.36 86.3253 119.123 87.088C119.885 87.8507 120.809 88.232 121.895 88.232ZM138.659 109.396C137.456 109.396 136.341 109.103 135.315 108.516C134.317 107.929 133.525 107.137 132.939 106.14C132.352 105.143 132.059 104.057 132.059 102.884C132.059 101.711 132.352 100.625 132.939 99.628C133.525 98.6307 134.317 97.8387 135.315 97.252C136.341 96.6653 137.456 96.372 138.659 96.372C139.832 96.372 140.917 96.6653 141.915 97.252C142.912 97.8387 143.704 98.6307 144.291 99.628C144.877 100.625 145.171 101.711 145.171 102.884C145.171 104.057 144.877 105.143 144.291 106.14C143.704 107.137 142.912 107.929 141.915 108.516C140.917 109.103 139.832 109.396 138.659 109.396ZM138.659 106.8C139.744 106.8 140.653 106.419 141.387 105.656C142.12 104.893 142.487 103.969 142.487 102.884C142.487 101.799 142.105 100.875 141.343 100.112C140.609 99.3493 139.715 98.968 138.659 98.968C137.573 98.968 136.649 99.3493 135.887 100.112C135.124 100.875 134.743 101.799 134.743 102.884C134.743 103.969 135.124 104.893 135.887 105.656C136.649 106.419 137.573 106.8 138.659 106.8Z" fill="white"/>
</svg>
