<svg width="189" height="188" viewBox="0 0 189 188" fill="none" xmlns="http://www.w3.org/2000/svg">
<circle cx="94.5" cy="94" r="90" stroke="#997F8A" stroke-width="2"/>
<path d="M94.5001 4C144.206 4 184.5 44.2944 184.5 94C184.5 143.706 144.206 184 94.5001 184C79.2401 184 64.8672 180.202 52.2749 173.5" stroke="#E3FF39" stroke-width="8" stroke-linecap="round"/>
<path d="M57.128 95.36C57.4507 96.6507 57.612 97.9853 57.612 99.364C57.612 100.743 57.436 102.019 57.084 103.192C56.5267 105.069 55.456 106.565 53.872 107.68C52.3173 108.765 50.4547 109.308 48.284 109.308C46.1427 109.308 44.3093 108.78 42.784 107.724C41.2587 106.668 40.188 105.231 39.572 103.412C39.2787 102.591 39.1173 101.872 39.088 101.256V101.168C39.088 100.933 39.22 100.816 39.484 100.816H42.96C43.224 100.816 43.3707 100.948 43.4 101.212C43.4293 101.417 43.5027 101.725 43.62 102.136C43.9427 103.221 44.5 104.087 45.292 104.732C46.1133 105.348 47.096 105.656 48.24 105.656C49.4427 105.656 50.4547 105.333 51.276 104.688C52.1267 104.013 52.6987 103.089 52.992 101.916C53.1973 101.3 53.3 100.449 53.3 99.364C53.3 98.396 53.212 97.5013 53.036 96.68C52.8307 95.5653 52.3027 94.7147 51.452 94.128C50.6307 93.512 49.604 93.204 48.372 93.204C47.228 93.204 46.2013 93.468 45.292 93.996C44.3827 94.4947 43.796 95.1693 43.532 96.02C43.444 96.284 43.2827 96.416 43.048 96.416H39.528C39.2347 96.416 39.088 96.2693 39.088 95.976V78.64C39.088 78.3467 39.2347 78.2 39.528 78.2H55.984C56.2773 78.2 56.424 78.3467 56.424 78.64V81.412C56.424 81.7053 56.2773 81.852 55.984 81.852H43.488C43.3707 81.852 43.312 81.9107 43.312 82.028L43.268 91.224C43.268 91.4 43.3413 91.444 43.488 91.356C44.192 90.74 44.9987 90.2853 45.908 89.992C46.8467 89.6693 47.8293 89.508 48.856 89.508C50.9093 89.508 52.6693 90.0213 54.136 91.048C55.632 92.0747 56.6293 93.512 57.128 95.36ZM66.1673 109C66.0206 109 65.9033 108.956 65.8153 108.868C65.7566 108.751 65.7566 108.619 65.8153 108.472L75.8033 82.072C75.8326 82.0133 75.8326 81.9693 75.8033 81.94C75.7739 81.8813 75.7299 81.852 75.6713 81.852H65.0673C64.9499 81.852 64.8913 81.9107 64.8913 82.028V84.096C64.8913 84.3893 64.7446 84.536 64.4513 84.536H61.8113C61.5179 84.536 61.3713 84.3893 61.3713 84.096V78.64C61.3713 78.3467 61.5179 78.2 61.8113 78.2H79.8953C80.1886 78.2 80.3353 78.3467 80.3353 78.64V81.588C80.3353 81.7053 80.3059 81.8813 80.2473 82.116L70.3033 108.648C70.2153 108.883 70.0539 109 69.8193 109H66.1673ZM85.2935 109C84.4722 109 83.7975 108.736 83.2695 108.208C82.7415 107.68 82.4775 107.005 82.4775 106.184C82.4775 105.363 82.7415 104.688 83.2695 104.16C83.7975 103.632 84.4722 103.368 85.2935 103.368C86.1148 103.368 86.7895 103.632 87.3175 104.16C87.8455 104.688 88.1095 105.363 88.1095 106.184C88.1095 107.005 87.8455 107.68 87.3175 108.208C86.7895 108.736 86.1148 109 85.2935 109ZM111.887 95.844C112.503 97.076 112.811 98.5427 112.811 100.244C112.811 102.121 112.4 103.764 111.579 105.172C110.875 106.492 109.819 107.519 108.411 108.252C107.032 108.985 105.404 109.352 103.527 109.352C101.649 109.352 99.992 108.985 98.5547 108.252C97.1174 107.489 96.032 106.404 95.2987 104.996C94.5067 103.617 94.1107 102.019 94.1107 100.2C94.1107 98.5867 94.4334 97.1053 95.0787 95.756C95.724 94.4067 96.6774 93.3947 97.9387 92.72C98.0854 92.6613 98.0854 92.588 97.9387 92.5C97 91.796 96.296 91.0627 95.8267 90.3C95.0054 89.068 94.5947 87.66 94.5947 86.076C94.5947 84.3453 95.0934 82.7613 96.0907 81.324C96.824 80.2093 97.836 79.3293 99.1267 78.684C100.447 78.0387 101.913 77.716 103.527 77.716C105.169 77.716 106.621 78.0387 107.883 78.684C109.144 79.3293 110.141 80.2093 110.875 81.324C111.843 82.7613 112.327 84.3453 112.327 86.076C112.327 87.66 111.916 89.0973 111.095 90.388C110.567 91.2093 109.877 91.9133 109.027 92.5C108.88 92.588 108.88 92.6613 109.027 92.72C110.259 93.3947 111.212 94.436 111.887 95.844ZM99.3907 83.832C98.98 84.5947 98.7747 85.3427 98.7747 86.076C98.7747 87.2493 99.0534 88.232 99.6107 89.024C100.403 90.344 101.693 91.004 103.483 91.004C105.243 91.004 106.548 90.3293 107.399 88.98C107.897 88.276 108.147 87.2933 108.147 86.032C108.147 85.2107 107.956 84.4627 107.575 83.788C107.193 83.0547 106.651 82.468 105.947 82.028C105.243 81.588 104.407 81.368 103.439 81.368C102.529 81.368 101.723 81.588 101.019 82.028C100.315 82.468 99.772 83.0693 99.3907 83.832ZM107.531 103.676C108.205 102.737 108.543 101.476 108.543 99.892C108.543 98.484 108.293 97.3253 107.795 96.416C106.973 94.8907 105.536 94.128 103.483 94.128C101.488 94.128 100.08 94.8467 99.2587 96.284C98.7014 97.2227 98.4227 98.44 98.4227 99.936C98.4227 101.403 98.7307 102.605 99.3467 103.544C100.197 104.952 101.591 105.656 103.527 105.656C105.345 105.656 106.68 104.996 107.531 103.676ZM125.762 90.828C124.559 90.828 123.445 90.5347 122.418 89.948C121.42 89.3613 120.629 88.5693 120.042 87.572C119.455 86.5747 119.162 85.4747 119.162 84.272C119.162 83.0987 119.455 82.0133 120.042 81.016C120.629 80.0187 121.42 79.2413 122.418 78.684C123.445 78.0973 124.559 77.804 125.762 77.804C126.935 77.804 128.021 78.0973 129.018 78.684C130.015 79.2707 130.807 80.0627 131.394 81.06C131.981 82.028 132.274 83.0987 132.274 84.272C132.274 85.4747 131.981 86.5747 131.394 87.572C130.807 88.5693 130.015 89.3613 129.018 89.948C128.021 90.5347 126.935 90.828 125.762 90.828ZM124.486 109C124.31 109 124.193 108.956 124.134 108.868C124.075 108.751 124.09 108.619 124.178 108.472L140.81 78.508C140.927 78.3027 141.103 78.2 141.338 78.2H143.494C143.67 78.2 143.787 78.2587 143.846 78.376C143.905 78.464 143.89 78.5813 143.802 78.728L127.17 108.692C127.082 108.897 126.906 109 126.642 109H124.486ZM125.762 88.232C126.847 88.232 127.757 87.8507 128.49 87.088C129.223 86.3253 129.59 85.3867 129.59 84.272C129.59 83.1867 129.209 82.2773 128.446 81.544C127.713 80.7813 126.818 80.4 125.762 80.4C124.677 80.4 123.753 80.7813 122.99 81.544C122.227 82.2773 121.846 83.1867 121.846 84.272C121.846 85.3867 122.227 86.3253 122.99 87.088C123.753 87.8507 124.677 88.232 125.762 88.232ZM142.526 109.396C141.323 109.396 140.209 109.103 139.182 108.516C138.185 107.929 137.393 107.137 136.806 106.14C136.219 105.143 135.926 104.057 135.926 102.884C135.926 101.711 136.219 100.625 136.806 99.628C137.393 98.6307 138.185 97.8387 139.182 97.252C140.209 96.6653 141.323 96.372 142.526 96.372C143.699 96.372 144.785 96.6653 145.782 97.252C146.779 97.8387 147.571 98.6307 148.158 99.628C148.745 100.625 149.038 101.711 149.038 102.884C149.038 104.057 148.745 105.143 148.158 106.14C147.571 107.137 146.779 107.929 145.782 108.516C144.785 109.103 143.699 109.396 142.526 109.396ZM142.526 106.8C143.611 106.8 144.521 106.419 145.254 105.656C145.987 104.893 146.354 103.969 146.354 102.884C146.354 101.799 145.973 100.875 145.21 100.112C144.477 99.3493 143.582 98.968 142.526 98.968C141.441 98.968 140.517 99.3493 139.754 100.112C138.991 100.875 138.61 101.799 138.61 102.884C138.61 103.969 138.991 104.893 139.754 105.656C140.517 106.419 141.441 106.8 142.526 106.8Z" fill="white"/>
</svg>
