<svg width="190" height="190" viewBox="0 0 190 190" fill="none" xmlns="http://www.w3.org/2000/svg">
<circle cx="94.5" cy="95" r="90" stroke="#997F8A" stroke-width="2"/>
<mask id="path-2-outside-1_31:1081" maskUnits="userSpaceOnUse" x="50.5" y="0" width="139" height="190" fill="black">
<rect fill="white" x="50.5" width="139" height="190"/>
<path d="M94.5 4.99487C94.5 2.78856 96.2894 0.991138 98.4937 1.08487C111.406 1.63392 124.081 4.8406 135.722 10.5206C148.56 16.7851 159.802 25.8935 168.593 37.1537C177.384 48.4139 183.493 61.5296 186.456 75.5045C189.419 89.4793 189.158 103.946 185.692 117.804C182.226 131.663 175.647 144.55 166.455 155.485C157.263 166.42 145.7 175.117 132.643 180.913C119.587 186.71 105.381 189.455 91.1046 188.939C78.1608 188.471 65.468 185.334 53.8174 179.74C51.8284 178.785 51.0957 176.357 52.1342 174.411C53.1727 172.464 55.589 171.737 57.5817 172.684C68.158 177.71 79.663 180.53 91.3932 180.954C104.456 181.426 117.454 178.915 129.401 173.611C141.348 168.307 151.929 160.35 160.339 150.344C168.75 140.338 174.77 128.547 177.941 115.866C181.112 103.185 181.351 89.9486 178.64 77.1615C175.929 64.3745 170.339 52.3736 162.296 42.0705C154.252 31.7674 143.965 23.4332 132.218 17.7011C121.669 12.5537 110.191 9.62616 98.4935 9.08249C96.2896 8.98005 94.5 7.20117 94.5 4.99487Z"/>
</mask>
<path d="M94.5 4.99487C94.5 2.78856 96.2894 0.991138 98.4937 1.08487C111.406 1.63392 124.081 4.8406 135.722 10.5206C148.56 16.7851 159.802 25.8935 168.593 37.1537C177.384 48.4139 183.493 61.5296 186.456 75.5045C189.419 89.4793 189.158 103.946 185.692 117.804C182.226 131.663 175.647 144.55 166.455 155.485C157.263 166.42 145.7 175.117 132.643 180.913C119.587 186.71 105.381 189.455 91.1046 188.939C78.1608 188.471 65.468 185.334 53.8174 179.74C51.8284 178.785 51.0957 176.357 52.1342 174.411C53.1727 172.464 55.589 171.737 57.5817 172.684C68.158 177.71 79.663 180.53 91.3932 180.954C104.456 181.426 117.454 178.915 129.401 173.611C141.348 168.307 151.929 160.35 160.339 150.344C168.75 140.338 174.77 128.547 177.941 115.866C181.112 103.185 181.351 89.9486 178.64 77.1615C175.929 64.3745 170.339 52.3736 162.296 42.0705C154.252 31.7674 143.965 23.4332 132.218 17.7011C121.669 12.5537 110.191 9.62616 98.4935 9.08249C96.2896 8.98005 94.5 7.20117 94.5 4.99487Z" fill="#E3FF39"/>
<path d="M94.5 4.99487C94.5 2.78856 96.2894 0.991138 98.4937 1.08487C111.406 1.63392 124.081 4.8406 135.722 10.5206C148.56 16.7851 159.802 25.8935 168.593 37.1537C177.384 48.4139 183.493 61.5296 186.456 75.5045C189.419 89.4793 189.158 103.946 185.692 117.804C182.226 131.663 175.647 144.55 166.455 155.485C157.263 166.42 145.7 175.117 132.643 180.913C119.587 186.71 105.381 189.455 91.1046 188.939C78.1608 188.471 65.468 185.334 53.8174 179.74C51.8284 178.785 51.0957 176.357 52.1342 174.411C53.1727 172.464 55.589 171.737 57.5817 172.684C68.158 177.71 79.663 180.53 91.3932 180.954C104.456 181.426 117.454 178.915 129.401 173.611C141.348 168.307 151.929 160.35 160.339 150.344C168.75 140.338 174.77 128.547 177.941 115.866C181.112 103.185 181.351 89.9486 178.64 77.1615C175.929 64.3745 170.339 52.3736 162.296 42.0705C154.252 31.7674 143.965 23.4332 132.218 17.7011C121.669 12.5537 110.191 9.62616 98.4935 9.08249C96.2896 8.98005 94.5 7.20117 94.5 4.99487Z" stroke="#3E404C" stroke-width="2" mask="url(#path-2-outside-1_31:1081)"/>
<path d="M57.128 96.4369C57.4507 97.7276 57.612 99.0622 57.612 100.441C57.612 101.82 57.436 103.096 57.084 104.269C56.5267 106.146 55.456 107.642 53.872 108.757C52.3173 109.842 50.4547 110.385 48.284 110.385C46.1427 110.385 44.3093 109.857 42.784 108.801C41.2587 107.745 40.188 106.308 39.572 104.489C39.2787 103.668 39.1173 102.949 39.088 102.333V102.245C39.088 102.01 39.22 101.893 39.484 101.893H42.96C43.224 101.893 43.3707 102.025 43.4 102.289C43.4293 102.494 43.5027 102.802 43.62 103.213C43.9427 104.298 44.5 105.164 45.292 105.809C46.1133 106.425 47.096 106.733 48.24 106.733C49.4427 106.733 50.4547 106.41 51.276 105.765C52.1267 105.09 52.6987 104.166 52.992 102.993C53.1973 102.377 53.3 101.526 53.3 100.441C53.3 99.4729 53.212 98.5782 53.036 97.7569C52.8307 96.6422 52.3027 95.7916 51.452 95.2049C50.6307 94.5889 49.604 94.2809 48.372 94.2809C47.228 94.2809 46.2013 94.5449 45.292 95.0729C44.3827 95.5716 43.796 96.2462 43.532 97.0969C43.444 97.3609 43.2827 97.4929 43.048 97.4929H39.528C39.2347 97.4929 39.088 97.3462 39.088 97.0529V79.7169C39.088 79.4236 39.2347 79.2769 39.528 79.2769H55.984C56.2773 79.2769 56.424 79.4236 56.424 79.7169V82.4889C56.424 82.7822 56.2773 82.9289 55.984 82.9289H43.488C43.3707 82.9289 43.312 82.9876 43.312 83.1049L43.268 92.3009C43.268 92.4769 43.3413 92.5209 43.488 92.4329C44.192 91.8169 44.9987 91.3622 45.908 91.0689C46.8467 90.7462 47.8293 90.5849 48.856 90.5849C50.9093 90.5849 52.6693 91.0982 54.136 92.1249C55.632 93.1516 56.6293 94.5889 57.128 96.4369ZM66.1673 110.077C66.0206 110.077 65.9033 110.033 65.8153 109.945C65.7566 109.828 65.7566 109.696 65.8153 109.549L75.8033 83.1489C75.8326 83.0902 75.8326 83.0462 75.8033 83.0169C75.7739 82.9582 75.7299 82.9289 75.6713 82.9289H65.0673C64.9499 82.9289 64.8913 82.9876 64.8913 83.1049V85.1729C64.8913 85.4662 64.7446 85.6129 64.4513 85.6129H61.8113C61.5179 85.6129 61.3713 85.4662 61.3713 85.1729V79.7169C61.3713 79.4236 61.5179 79.2769 61.8113 79.2769H79.8953C80.1886 79.2769 80.3353 79.4236 80.3353 79.7169V82.6649C80.3353 82.7822 80.3059 82.9582 80.2473 83.1929L70.3033 109.725C70.2153 109.96 70.0539 110.077 69.8193 110.077H66.1673ZM85.2935 110.077C84.4722 110.077 83.7975 109.813 83.2695 109.285C82.7415 108.757 82.4775 108.082 82.4775 107.261C82.4775 106.44 82.7415 105.765 83.2695 105.237C83.7975 104.709 84.4722 104.445 85.2935 104.445C86.1148 104.445 86.7895 104.709 87.3175 105.237C87.8455 105.765 88.1095 106.44 88.1095 107.261C88.1095 108.082 87.8455 108.757 87.3175 109.285C86.7895 109.813 86.1148 110.077 85.2935 110.077ZM111.887 96.9209C112.503 98.1529 112.811 99.6196 112.811 101.321C112.811 103.198 112.4 104.841 111.579 106.249C110.875 107.569 109.819 108.596 108.411 109.329C107.032 110.062 105.404 110.429 103.527 110.429C101.649 110.429 99.992 110.062 98.5547 109.329C97.1174 108.566 96.032 107.481 95.2987 106.073C94.5067 104.694 94.1107 103.096 94.1107 101.277C94.1107 99.6636 94.4334 98.1822 95.0787 96.8329C95.724 95.4836 96.6774 94.4716 97.9387 93.7969C98.0854 93.7382 98.0854 93.6649 97.9387 93.5769C97 92.8729 96.296 92.1396 95.8267 91.3769C95.0054 90.1449 94.5947 88.7369 94.5947 87.1529C94.5947 85.4222 95.0934 83.8382 96.0907 82.4009C96.824 81.2862 97.836 80.4062 99.1267 79.7609C100.447 79.1156 101.913 78.7929 103.527 78.7929C105.169 78.7929 106.621 79.1156 107.883 79.7609C109.144 80.4062 110.141 81.2862 110.875 82.4009C111.843 83.8382 112.327 85.4222 112.327 87.1529C112.327 88.7369 111.916 90.1742 111.095 91.4649C110.567 92.2862 109.877 92.9902 109.027 93.5769C108.88 93.6649 108.88 93.7382 109.027 93.7969C110.259 94.4716 111.212 95.5129 111.887 96.9209ZM99.3907 84.9089C98.98 85.6716 98.7747 86.4196 98.7747 87.1529C98.7747 88.3262 99.0534 89.3089 99.6107 90.1009C100.403 91.4209 101.693 92.0809 103.483 92.0809C105.243 92.0809 106.548 91.4062 107.399 90.0569C107.897 89.3529 108.147 88.3702 108.147 87.1089C108.147 86.2876 107.956 85.5396 107.575 84.8649C107.193 84.1316 106.651 83.5449 105.947 83.1049C105.243 82.6649 104.407 82.4449 103.439 82.4449C102.529 82.4449 101.723 82.6649 101.019 83.1049C100.315 83.5449 99.772 84.1462 99.3907 84.9089ZM107.531 104.753C108.205 103.814 108.543 102.553 108.543 100.969C108.543 99.5609 108.293 98.4022 107.795 97.4929C106.973 95.9676 105.536 95.2049 103.483 95.2049C101.488 95.2049 100.08 95.9236 99.2587 97.3609C98.7014 98.2996 98.4227 99.5169 98.4227 101.013C98.4227 102.48 98.7307 103.682 99.3467 104.621C100.197 106.029 101.591 106.733 103.527 106.733C105.345 106.733 106.68 106.073 107.531 104.753ZM125.762 91.9049C124.559 91.9049 123.445 91.6116 122.418 91.0249C121.42 90.4382 120.629 89.6462 120.042 88.6489C119.455 87.6516 119.162 86.5516 119.162 85.3489C119.162 84.1756 119.455 83.0902 120.042 82.0929C120.629 81.0956 121.42 80.3182 122.418 79.7609C123.445 79.1742 124.559 78.8809 125.762 78.8809C126.935 78.8809 128.021 79.1742 129.018 79.7609C130.015 80.3476 130.807 81.1396 131.394 82.1369C131.981 83.1049 132.274 84.1756 132.274 85.3489C132.274 86.5516 131.981 87.6516 131.394 88.6489C130.807 89.6462 130.015 90.4382 129.018 91.0249C128.021 91.6116 126.935 91.9049 125.762 91.9049ZM124.486 110.077C124.31 110.077 124.193 110.033 124.134 109.945C124.075 109.828 124.09 109.696 124.178 109.549L140.81 79.5849C140.927 79.3796 141.103 79.2769 141.338 79.2769H143.494C143.67 79.2769 143.787 79.3356 143.846 79.4529C143.905 79.5409 143.89 79.6582 143.802 79.8049L127.17 109.769C127.082 109.974 126.906 110.077 126.642 110.077H124.486ZM125.762 89.3089C126.847 89.3089 127.757 88.9276 128.49 88.1649C129.223 87.4022 129.59 86.4636 129.59 85.3489C129.59 84.2636 129.209 83.3542 128.446 82.6209C127.713 81.8582 126.818 81.4769 125.762 81.4769C124.677 81.4769 123.753 81.8582 122.99 82.6209C122.227 83.3542 121.846 84.2636 121.846 85.3489C121.846 86.4636 122.227 87.4022 122.99 88.1649C123.753 88.9276 124.677 89.3089 125.762 89.3089ZM142.526 110.473C141.323 110.473 140.209 110.18 139.182 109.593C138.185 109.006 137.393 108.214 136.806 107.217C136.219 106.22 135.926 105.134 135.926 103.961C135.926 102.788 136.219 101.702 136.806 100.705C137.393 99.7076 138.185 98.9156 139.182 98.3289C140.209 97.7422 141.323 97.4489 142.526 97.4489C143.699 97.4489 144.785 97.7422 145.782 98.3289C146.779 98.9156 147.571 99.7076 148.158 100.705C148.745 101.702 149.038 102.788 149.038 103.961C149.038 105.134 148.745 106.22 148.158 107.217C147.571 108.214 146.779 109.006 145.782 109.593C144.785 110.18 143.699 110.473 142.526 110.473ZM142.526 107.877C143.611 107.877 144.521 107.496 145.254 106.733C145.987 105.97 146.354 105.046 146.354 103.961C146.354 102.876 145.973 101.952 145.21 101.189C144.477 100.426 143.582 100.045 142.526 100.045C141.441 100.045 140.517 100.426 139.754 101.189C138.991 101.952 138.61 102.876 138.61 103.961C138.61 105.046 138.991 105.97 139.754 106.733C140.517 107.496 141.441 107.877 142.526 107.877Z" fill="white"/>
</svg>
