<svg width="195" height="198" viewBox="0 0 195 198" fill="none" xmlns="http://www.w3.org/2000/svg">
<g filter="url(#filter0_d_31:3220)">
<circle cx="95.5" cy="95" r="90" stroke="#997F8A" stroke-width="2"/>
<mask id="path-2-outside-1_31:3220" maskUnits="userSpaceOnUse" x="23.5" y="0" width="167" height="190" fill="black">
<rect fill="white" x="23.5" width="167" height="190"/>
<path d="M95.5 4.995C95.5 2.78862 97.2896 0.991139 99.494 1.08488C113.945 1.69937 128.079 5.64181 140.785 12.6272C154.66 20.2549 166.383 31.2638 174.867 44.6323C183.351 58.0008 188.32 73.2956 189.315 89.0977C190.309 104.9 187.295 120.697 180.554 135.023C173.812 149.35 163.561 161.741 150.752 171.048C137.942 180.354 122.99 186.274 107.281 188.259C91.5729 190.243 75.6177 188.228 60.8963 182.399C47.4147 177.061 35.3678 168.684 25.683 157.941C24.2057 156.302 24.4499 153.778 26.15 152.371V152.371C27.85 150.965 30.3615 151.21 31.8453 152.843C40.6677 162.552 51.6074 170.128 63.8376 174.97C77.3077 180.303 91.9067 182.148 106.28 180.332C120.653 178.516 134.335 173.099 146.055 164.584C157.776 156.068 167.156 144.73 173.324 131.621C179.493 118.513 182.25 104.058 181.34 89.5994C180.431 75.1405 175.883 61.1457 168.121 48.9135C160.358 36.6814 149.631 26.6082 136.936 19.6289C125.409 13.2919 112.598 9.69182 99.4936 9.08275C97.2896 8.98031 95.5 7.20138 95.5 4.995V4.995Z"/>
</mask>
<path d="M95.5 4.995C95.5 2.78862 97.2896 0.991139 99.494 1.08488C113.945 1.69937 128.079 5.64181 140.785 12.6272C154.66 20.2549 166.383 31.2638 174.867 44.6323C183.351 58.0008 188.32 73.2956 189.315 89.0977C190.309 104.9 187.295 120.697 180.554 135.023C173.812 149.35 163.561 161.741 150.752 171.048C137.942 180.354 122.99 186.274 107.281 188.259C91.5729 190.243 75.6177 188.228 60.8963 182.399C47.4147 177.061 35.3678 168.684 25.683 157.941C24.2057 156.302 24.4499 153.778 26.15 152.371V152.371C27.85 150.965 30.3615 151.21 31.8453 152.843C40.6677 162.552 51.6074 170.128 63.8376 174.97C77.3077 180.303 91.9067 182.148 106.28 180.332C120.653 178.516 134.335 173.099 146.055 164.584C157.776 156.068 167.156 144.73 173.324 131.621C179.493 118.513 182.25 104.058 181.34 89.5994C180.431 75.1405 175.883 61.1457 168.121 48.9135C160.358 36.6814 149.631 26.6082 136.936 19.6289C125.409 13.2919 112.598 9.69182 99.4936 9.08275C97.2896 8.98031 95.5 7.20138 95.5 4.995V4.995Z" fill="#E3FF39"/>
<path d="M95.5 4.995C95.5 2.78862 97.2896 0.991139 99.494 1.08488C113.945 1.69937 128.079 5.64181 140.785 12.6272C154.66 20.2549 166.383 31.2638 174.867 44.6323C183.351 58.0008 188.32 73.2956 189.315 89.0977C190.309 104.9 187.295 120.697 180.554 135.023C173.812 149.35 163.561 161.741 150.752 171.048C137.942 180.354 122.99 186.274 107.281 188.259C91.5729 190.243 75.6177 188.228 60.8963 182.399C47.4147 177.061 35.3678 168.684 25.683 157.941C24.2057 156.302 24.4499 153.778 26.15 152.371V152.371C27.85 150.965 30.3615 151.21 31.8453 152.843C40.6677 162.552 51.6074 170.128 63.8376 174.97C77.3077 180.303 91.9067 182.148 106.28 180.332C120.653 178.516 134.335 173.099 146.055 164.584C157.776 156.068 167.156 144.73 173.324 131.621C179.493 118.513 182.25 104.058 181.34 89.5994C180.431 75.1405 175.883 61.1457 168.121 48.9135C160.358 36.6814 149.631 26.6082 136.936 19.6289C125.409 13.2919 112.598 9.69182 99.4936 9.08275C97.2896 8.98031 95.5 7.20138 95.5 4.995V4.995Z" stroke="#3E404C" stroke-width="2" mask="url(#path-2-outside-1_31:3220)"/>
<path d="M54.6144 94.8969C55.4357 96.4516 55.8464 98.3142 55.8464 100.485C55.8464 102.274 55.5531 103.844 54.9664 105.193C54.2917 106.865 53.2357 108.156 51.7984 109.065C50.3904 109.945 48.6744 110.385 46.6504 110.385C44.4797 110.385 42.6317 109.886 41.1064 108.889C39.6104 107.892 38.5544 106.484 37.9384 104.665C37.4984 103.433 37.2784 102.01 37.2784 100.397V86.8449C37.2784 84.4396 38.1144 82.5182 39.7864 81.0809C41.4584 79.6436 43.6437 78.9249 46.3424 78.9249C48.0731 78.9249 49.5984 79.2476 50.9184 79.8929C52.2677 80.5382 53.3091 81.4476 54.0424 82.6209C54.7757 83.7649 55.1424 85.0849 55.1424 86.5809V87.4609C55.1424 87.7542 54.9957 87.9009 54.7024 87.9009H51.3584C51.0651 87.9009 50.9184 87.7542 50.9184 87.4609V87.0649C50.9184 85.7449 50.4931 84.6742 49.6424 83.8529C48.7917 83.0316 47.6917 82.6209 46.3424 82.6209C44.9051 82.6209 43.7317 83.0462 42.8224 83.8969C41.9424 84.7476 41.5024 85.8769 41.5024 87.2849V92.8289C41.5024 92.8876 41.5171 92.9316 41.5464 92.9609C41.6051 92.9609 41.6637 92.9316 41.7224 92.8729C42.9837 91.4649 44.8171 90.7609 47.2224 90.7609C50.6837 90.7609 53.1477 92.1396 54.6144 94.8969ZM50.9624 103.873C51.4024 102.934 51.6224 101.805 51.6224 100.485C51.6224 98.9889 51.3584 97.7862 50.8304 96.8769C49.9797 95.1756 48.5424 94.3249 46.5184 94.3249C45.4917 94.3249 44.6117 94.5596 43.8784 95.0289C43.1451 95.4689 42.5877 96.1142 42.2064 96.9649C41.7371 97.9329 41.5024 99.1796 41.5024 100.705C41.5024 101.937 41.6931 102.978 42.0744 103.829C42.4557 104.768 43.0277 105.486 43.7904 105.985C44.5531 106.454 45.4771 106.689 46.5624 106.689C48.7037 106.689 50.1704 105.75 50.9624 103.873ZM80.4176 98.0209C80.711 98.0209 80.8576 98.1676 80.8576 98.4609V101.365C80.8576 101.658 80.711 101.805 80.4176 101.805H78.5256C78.4083 101.805 78.3496 101.864 78.3496 101.981V109.637C78.3496 109.93 78.203 110.077 77.9096 110.077H74.5656C74.2723 110.077 74.1256 109.93 74.1256 109.637V101.981C74.1256 101.864 74.067 101.805 73.9496 101.805H60.5736C60.2803 101.805 60.1336 101.658 60.1336 101.365V98.9889C60.1336 98.8422 60.1776 98.6662 60.2656 98.4609L68.9336 79.5849C69.0216 79.3796 69.183 79.2769 69.4176 79.2769H72.9376C73.0843 79.2769 73.187 79.3356 73.2456 79.4529C73.3336 79.5409 73.3483 79.6582 73.2896 79.8049L65.0176 97.8009C64.9883 97.8596 64.9883 97.9182 65.0176 97.9769C65.047 98.0062 65.091 98.0209 65.1496 98.0209H73.9496C74.067 98.0209 74.1256 97.9622 74.1256 97.8449V91.2889C74.1256 90.9956 74.2723 90.8489 74.5656 90.8489H77.9096C78.203 90.8489 78.3496 90.9956 78.3496 91.2889V97.8449C78.3496 97.9622 78.4083 98.0209 78.5256 98.0209H80.4176ZM89.7154 110.077C88.8941 110.077 88.2194 109.813 87.6914 109.285C87.1634 108.757 86.8994 108.082 86.8994 107.261C86.8994 106.44 87.1634 105.765 87.6914 105.237C88.2194 104.709 88.8941 104.445 89.7154 104.445C90.5367 104.445 91.2114 104.709 91.7394 105.237C92.2674 105.765 92.5314 106.44 92.5314 107.261C92.5314 108.082 92.2674 108.757 91.7394 109.285C91.2114 109.813 90.5367 110.077 89.7154 110.077ZM107.366 110.517C104.403 110.517 102.042 109.681 100.282 108.009C98.5509 106.308 97.6856 104.034 97.6856 101.189V88.1649C97.6856 85.3196 98.5509 83.0609 100.282 81.3889C102.042 79.7169 104.403 78.8809 107.366 78.8809C110.328 78.8809 112.69 79.7169 114.45 81.3889C116.239 83.0609 117.134 85.3196 117.134 88.1649V101.189C117.134 104.034 116.239 106.308 114.45 108.009C112.69 109.681 110.328 110.517 107.366 110.517ZM107.366 106.865C109.067 106.865 110.416 106.381 111.414 105.413C112.411 104.416 112.91 103.096 112.91 101.453V87.9889C112.91 86.3462 112.411 85.0409 111.414 84.0729C110.416 83.0756 109.067 82.5769 107.366 82.5769C105.723 82.5769 104.403 83.0756 103.406 84.0729C102.408 85.0409 101.91 86.3462 101.91 87.9889V101.453C101.91 103.096 102.408 104.416 103.406 105.413C104.403 106.381 105.723 106.865 107.366 106.865ZM130.527 91.9049C129.325 91.9049 128.21 91.6116 127.183 91.0249C126.186 90.4382 125.394 89.6462 124.807 88.6489C124.221 87.6516 123.927 86.5516 123.927 85.3489C123.927 84.1756 124.221 83.0902 124.807 82.0929C125.394 81.0956 126.186 80.3182 127.183 79.7609C128.21 79.1742 129.325 78.8809 130.527 78.8809C131.701 78.8809 132.786 79.1742 133.783 79.7609C134.781 80.3476 135.573 81.1396 136.159 82.1369C136.746 83.1049 137.039 84.1756 137.039 85.3489C137.039 86.5516 136.746 87.6516 136.159 88.6489C135.573 89.6462 134.781 90.4382 133.783 91.0249C132.786 91.6116 131.701 91.9049 130.527 91.9049ZM129.251 110.077C129.075 110.077 128.958 110.033 128.899 109.945C128.841 109.828 128.855 109.696 128.943 109.549L145.575 79.5849C145.693 79.3796 145.869 79.2769 146.103 79.2769H148.259C148.435 79.2769 148.553 79.3356 148.611 79.4529C148.67 79.5409 148.655 79.6582 148.567 79.8049L131.935 109.769C131.847 109.974 131.671 110.077 131.407 110.077H129.251ZM130.527 89.3089C131.613 89.3089 132.522 88.9276 133.255 88.1649C133.989 87.4022 134.355 86.4636 134.355 85.3489C134.355 84.2636 133.974 83.3542 133.211 82.6209C132.478 81.8582 131.583 81.4769 130.527 81.4769C129.442 81.4769 128.518 81.8582 127.755 82.6209C126.993 83.3542 126.611 84.2636 126.611 85.3489C126.611 86.4636 126.993 87.4022 127.755 88.1649C128.518 88.9276 129.442 89.3089 130.527 89.3089ZM147.291 110.473C146.089 110.473 144.974 110.18 143.947 109.593C142.95 109.006 142.158 108.214 141.571 107.217C140.985 106.22 140.691 105.134 140.691 103.961C140.691 102.788 140.985 101.702 141.571 100.705C142.158 99.7076 142.95 98.9156 143.947 98.3289C144.974 97.7422 146.089 97.4489 147.291 97.4489C148.465 97.4489 149.55 97.7422 150.547 98.3289C151.545 98.9156 152.337 99.7076 152.923 100.705C153.51 101.702 153.803 102.788 153.803 103.961C153.803 105.134 153.51 106.22 152.923 107.217C152.337 108.214 151.545 109.006 150.547 109.593C149.55 110.18 148.465 110.473 147.291 110.473ZM147.291 107.877C148.377 107.877 149.286 107.496 150.019 106.733C150.753 105.97 151.119 105.046 151.119 103.961C151.119 102.876 150.738 101.952 149.975 101.189C149.242 100.426 148.347 100.045 147.291 100.045C146.206 100.045 145.282 100.426 144.519 101.189C143.757 101.952 143.375 102.876 143.375 103.961C143.375 105.046 143.757 105.97 144.519 106.733C145.282 107.496 146.206 107.877 147.291 107.877Z" fill="white"/>
</g>
<defs>
<filter id="filter0_d_31:3220" x="-2.5" y="0.0812988" width="197" height="197.919" filterUnits="userSpaceOnUse" color-interpolation-filters="sRGB">
<feFlood flood-opacity="0" result="BackgroundImageFix"/>
<feColorMatrix in="SourceAlpha" type="matrix" values="0 0 0 0 0 0 0 0 0 0 0 0 0 0 0 0 0 0 127 0" result="hardAlpha"/>
<feOffset dy="4"/>
<feGaussianBlur stdDeviation="2"/>
<feComposite in2="hardAlpha" operator="out"/>
<feColorMatrix type="matrix" values="0 0 0 0 0 0 0 0 0 0 0 0 0 0 0 0 0 0 0.25 0"/>
<feBlend mode="normal" in2="BackgroundImageFix" result="effect1_dropShadow_31:3220"/>
<feBlend mode="normal" in="SourceGraphic" in2="effect1_dropShadow_31:3220" result="shape"/>
</filter>
</defs>
</svg>
