<svg width="189" height="188" viewBox="0 0 189 188" fill="none" xmlns="http://www.w3.org/2000/svg">
<circle cx="94.5" cy="94" r="90" stroke="#997F8A" stroke-width="2"/>
<path d="M94.5 4C144.206 4 184.5 44.2944 184.5 94C184.5 143.706 144.206 184 94.5 184C66.5941 184 41.6545 171.299 25.1464 151.363" stroke="#E3FF39" stroke-width="8" stroke-linecap="round"/>
<path d="M53.6144 93.82C54.4357 95.3747 54.8464 97.2373 54.8464 99.408C54.8464 101.197 54.5531 102.767 53.9664 104.116C53.2917 105.788 52.2357 107.079 50.7984 107.988C49.3904 108.868 47.6744 109.308 45.6504 109.308C43.4797 109.308 41.6317 108.809 40.1064 107.812C38.6104 106.815 37.5544 105.407 36.9384 103.588C36.4984 102.356 36.2784 100.933 36.2784 99.32V85.768C36.2784 83.3627 37.1144 81.4413 38.7864 80.004C40.4584 78.5667 42.6437 77.848 45.3424 77.848C47.0731 77.848 48.5984 78.1707 49.9184 78.816C51.2677 79.4613 52.3091 80.3707 53.0424 81.544C53.7757 82.688 54.1424 84.008 54.1424 85.504V86.384C54.1424 86.6773 53.9957 86.824 53.7024 86.824H50.3584C50.0651 86.824 49.9184 86.6773 49.9184 86.384V85.988C49.9184 84.668 49.4931 83.5973 48.6424 82.776C47.7917 81.9547 46.6917 81.544 45.3424 81.544C43.9051 81.544 42.7317 81.9693 41.8224 82.82C40.9424 83.6707 40.5024 84.8 40.5024 86.208V91.752C40.5024 91.8107 40.5171 91.8547 40.5464 91.884C40.6051 91.884 40.6637 91.8547 40.7224 91.796C41.9837 90.388 43.8171 89.684 46.2224 89.684C49.6837 89.684 52.1477 91.0627 53.6144 93.82ZM49.9624 102.796C50.4024 101.857 50.6224 100.728 50.6224 99.408C50.6224 97.912 50.3584 96.7093 49.8304 95.8C48.9797 94.0987 47.5424 93.248 45.5184 93.248C44.4917 93.248 43.6117 93.4827 42.8784 93.952C42.1451 94.392 41.5877 95.0373 41.2064 95.888C40.7371 96.856 40.5024 98.1027 40.5024 99.628C40.5024 100.86 40.6931 101.901 41.0744 102.752C41.4557 103.691 42.0277 104.409 42.7904 104.908C43.5531 105.377 44.4771 105.612 45.5624 105.612C47.7037 105.612 49.1704 104.673 49.9624 102.796ZM79.4176 96.944C79.711 96.944 79.8576 97.0907 79.8576 97.384V100.288C79.8576 100.581 79.711 100.728 79.4176 100.728H77.5256C77.4083 100.728 77.3496 100.787 77.3496 100.904V108.56C77.3496 108.853 77.203 109 76.9096 109H73.5656C73.2723 109 73.1256 108.853 73.1256 108.56V100.904C73.1256 100.787 73.067 100.728 72.9496 100.728H59.5736C59.2803 100.728 59.1336 100.581 59.1336 100.288V97.912C59.1336 97.7653 59.1776 97.5893 59.2656 97.384L67.9336 78.508C68.0216 78.3027 68.183 78.2 68.4176 78.2H71.9376C72.0843 78.2 72.187 78.2587 72.2456 78.376C72.3336 78.464 72.3483 78.5813 72.2896 78.728L64.0176 96.724C63.9883 96.7827 63.9883 96.8413 64.0176 96.9C64.047 96.9293 64.091 96.944 64.1496 96.944H72.9496C73.067 96.944 73.1256 96.8853 73.1256 96.768V90.212C73.1256 89.9187 73.2723 89.772 73.5656 89.772H76.9096C77.203 89.772 77.3496 89.9187 77.3496 90.212V96.768C77.3496 96.8853 77.4083 96.944 77.5256 96.944H79.4176ZM88.7154 109C87.8941 109 87.2194 108.736 86.6914 108.208C86.1634 107.68 85.8994 107.005 85.8994 106.184C85.8994 105.363 86.1634 104.688 86.6914 104.16C87.2194 103.632 87.8941 103.368 88.7154 103.368C89.5367 103.368 90.2114 103.632 90.7394 104.16C91.2674 104.688 91.5314 105.363 91.5314 106.184C91.5314 107.005 91.2674 107.68 90.7394 108.208C90.2114 108.736 89.5367 109 88.7154 109ZM106.366 109.44C103.403 109.44 101.042 108.604 99.2816 106.932C97.5509 105.231 96.6856 102.957 96.6856 100.112V87.088C96.6856 84.2427 97.5509 81.984 99.2816 80.312C101.042 78.64 103.403 77.804 106.366 77.804C109.328 77.804 111.69 78.64 113.45 80.312C115.239 81.984 116.134 84.2427 116.134 87.088V100.112C116.134 102.957 115.239 105.231 113.45 106.932C111.69 108.604 109.328 109.44 106.366 109.44ZM106.366 105.788C108.067 105.788 109.416 105.304 110.414 104.336C111.411 103.339 111.91 102.019 111.91 100.376V86.912C111.91 85.2693 111.411 83.964 110.414 82.996C109.416 81.9987 108.067 81.5 106.366 81.5C104.723 81.5 103.403 81.9987 102.406 82.996C101.408 83.964 100.91 85.2693 100.91 86.912V100.376C100.91 102.019 101.408 103.339 102.406 104.336C103.403 105.304 104.723 105.788 106.366 105.788ZM129.527 90.828C128.325 90.828 127.21 90.5347 126.183 89.948C125.186 89.3613 124.394 88.5693 123.807 87.572C123.221 86.5747 122.927 85.4747 122.927 84.272C122.927 83.0987 123.221 82.0133 123.807 81.016C124.394 80.0187 125.186 79.2413 126.183 78.684C127.21 78.0973 128.325 77.804 129.527 77.804C130.701 77.804 131.786 78.0973 132.783 78.684C133.781 79.2707 134.573 80.0627 135.159 81.06C135.746 82.028 136.039 83.0987 136.039 84.272C136.039 85.4747 135.746 86.5747 135.159 87.572C134.573 88.5693 133.781 89.3613 132.783 89.948C131.786 90.5347 130.701 90.828 129.527 90.828ZM128.251 109C128.075 109 127.958 108.956 127.899 108.868C127.841 108.751 127.855 108.619 127.943 108.472L144.575 78.508C144.693 78.3027 144.869 78.2 145.103 78.2H147.259C147.435 78.2 147.553 78.2587 147.611 78.376C147.67 78.464 147.655 78.5813 147.567 78.728L130.935 108.692C130.847 108.897 130.671 109 130.407 109H128.251ZM129.527 88.232C130.613 88.232 131.522 87.8507 132.255 87.088C132.989 86.3253 133.355 85.3867 133.355 84.272C133.355 83.1867 132.974 82.2773 132.211 81.544C131.478 80.7813 130.583 80.4 129.527 80.4C128.442 80.4 127.518 80.7813 126.755 81.544C125.993 82.2773 125.611 83.1867 125.611 84.272C125.611 85.3867 125.993 86.3253 126.755 87.088C127.518 87.8507 128.442 88.232 129.527 88.232ZM146.291 109.396C145.089 109.396 143.974 109.103 142.947 108.516C141.95 107.929 141.158 107.137 140.571 106.14C139.985 105.143 139.691 104.057 139.691 102.884C139.691 101.711 139.985 100.625 140.571 99.628C141.158 98.6307 141.95 97.8387 142.947 97.252C143.974 96.6653 145.089 96.372 146.291 96.372C147.465 96.372 148.55 96.6653 149.547 97.252C150.545 97.8387 151.337 98.6307 151.923 99.628C152.51 100.625 152.803 101.711 152.803 102.884C152.803 104.057 152.51 105.143 151.923 106.14C151.337 107.137 150.545 107.929 149.547 108.516C148.55 109.103 147.465 109.396 146.291 109.396ZM146.291 106.8C147.377 106.8 148.286 106.419 149.019 105.656C149.753 104.893 150.119 103.969 150.119 102.884C150.119 101.799 149.738 100.875 148.975 100.112C148.242 99.3493 147.347 98.968 146.291 98.968C145.206 98.968 144.282 99.3493 143.519 100.112C142.757 100.875 142.375 101.799 142.375 102.884C142.375 103.969 142.757 104.893 143.519 105.656C144.282 106.419 145.206 106.8 146.291 106.8Z" fill="white"/>
</svg>
