<svg width="189" height="190" viewBox="0 0 189 190" fill="none" xmlns="http://www.w3.org/2000/svg">
<circle cx="94" cy="95" r="90" stroke="#997F8A" stroke-width="2"/>
<mask id="path-2-outside-1_31:1091" maskUnits="userSpaceOnUse" x="15" y="0" width="174" height="190" fill="black">
<rect fill="white" x="15" width="174" height="190"/>
<path d="M94 4.995C94 2.78862 95.7896 0.991139 97.994 1.08488C112.917 1.71945 127.495 5.90279 140.509 13.3121C154.681 21.3812 166.511 32.9987 174.834 47.0231C183.158 61.0475 187.69 76.9962 187.985 93.3021C188.279 109.608 184.326 125.71 176.515 140.026C168.703 154.342 157.301 166.379 143.429 174.955C129.557 183.53 113.693 188.35 97.3953 188.939C81.0974 189.528 64.9266 185.866 50.472 178.315C37.1992 171.38 25.7927 161.384 17.1838 149.178C15.9121 147.375 16.4553 144.898 18.3108 143.704C20.1662 142.51 22.6306 143.052 23.9094 144.85C31.7633 155.893 42.1279 164.94 54.1719 171.233C67.3979 178.143 82.1941 181.493 97.1067 180.954C112.019 180.415 126.535 176.005 139.228 168.159C151.92 160.312 162.353 149.298 169.501 136.199C176.649 123.1 180.266 108.366 179.996 93.4464C179.726 78.5265 175.58 63.9334 167.964 51.1011C160.347 38.2688 149.524 27.6388 136.556 20.2556C124.747 13.5322 111.53 9.7119 97.9937 9.08275C95.7897 8.98032 94 7.20138 94 4.995Z"/>
</mask>
<path d="M94 4.995C94 2.78862 95.7896 0.991139 97.994 1.08488C112.917 1.71945 127.495 5.90279 140.509 13.3121C154.681 21.3812 166.511 32.9987 174.834 47.0231C183.158 61.0475 187.69 76.9962 187.985 93.3021C188.279 109.608 184.326 125.71 176.515 140.026C168.703 154.342 157.301 166.379 143.429 174.955C129.557 183.53 113.693 188.35 97.3953 188.939C81.0974 189.528 64.9266 185.866 50.472 178.315C37.1992 171.38 25.7927 161.384 17.1838 149.178C15.9121 147.375 16.4553 144.898 18.3108 143.704C20.1662 142.51 22.6306 143.052 23.9094 144.85C31.7633 155.893 42.1279 164.94 54.1719 171.233C67.3979 178.143 82.1941 181.493 97.1067 180.954C112.019 180.415 126.535 176.005 139.228 168.159C151.92 160.312 162.353 149.298 169.501 136.199C176.649 123.1 180.266 108.366 179.996 93.4464C179.726 78.5265 175.58 63.9334 167.964 51.1011C160.347 38.2688 149.524 27.6388 136.556 20.2556C124.747 13.5322 111.53 9.7119 97.9937 9.08275C95.7897 8.98032 94 7.20138 94 4.995Z" fill="#E3FF39"/>
<path d="M94 4.995C94 2.78862 95.7896 0.991139 97.994 1.08488C112.917 1.71945 127.495 5.90279 140.509 13.3121C154.681 21.3812 166.511 32.9987 174.834 47.0231C183.158 61.0475 187.69 76.9962 187.985 93.3021C188.279 109.608 184.326 125.71 176.515 140.026C168.703 154.342 157.301 166.379 143.429 174.955C129.557 183.53 113.693 188.35 97.3953 188.939C81.0974 189.528 64.9266 185.866 50.472 178.315C37.1992 171.38 25.7927 161.384 17.1838 149.178C15.9121 147.375 16.4553 144.898 18.3108 143.704C20.1662 142.51 22.6306 143.052 23.9094 144.85C31.7633 155.893 42.1279 164.94 54.1719 171.233C67.3979 178.143 82.1941 181.493 97.1067 180.954C112.019 180.415 126.535 176.005 139.228 168.159C151.92 160.312 162.353 149.298 169.501 136.199C176.649 123.1 180.266 108.366 179.996 93.4464C179.726 78.5265 175.58 63.9334 167.964 51.1011C160.347 38.2688 149.524 27.6388 136.556 20.2556C124.747 13.5322 111.53 9.7119 97.9937 9.08275C95.7897 8.98032 94 7.20138 94 4.995Z" stroke="#3E404C" stroke-width="2" mask="url(#path-2-outside-1_31:1091)"/>
<path d="M53.8605 94.8969C54.6818 96.4516 55.0925 98.3142 55.0925 100.485C55.0925 102.274 54.7992 103.844 54.2125 105.193C53.5378 106.865 52.4818 108.156 51.0445 109.065C49.6365 109.945 47.9205 110.385 45.8965 110.385C43.7258 110.385 41.8778 109.886 40.3525 108.889C38.8565 107.892 37.8005 106.484 37.1845 104.665C36.7445 103.433 36.5245 102.01 36.5245 100.397V86.8449C36.5245 84.4396 37.3605 82.5182 39.0325 81.0809C40.7045 79.6436 42.8898 78.9249 45.5885 78.9249C47.3192 78.9249 48.8445 79.2476 50.1645 79.8929C51.5138 80.5382 52.5552 81.4476 53.2885 82.6209C54.0218 83.7649 54.3885 85.0849 54.3885 86.5809V87.4609C54.3885 87.7542 54.2418 87.9009 53.9485 87.9009H50.6045C50.3112 87.9009 50.1645 87.7542 50.1645 87.4609V87.0649C50.1645 85.7449 49.7392 84.6742 48.8885 83.8529C48.0378 83.0316 46.9378 82.6209 45.5885 82.6209C44.1512 82.6209 42.9778 83.0462 42.0685 83.8969C41.1885 84.7476 40.7485 85.8769 40.7485 87.2849V92.8289C40.7485 92.8876 40.7632 92.9316 40.7925 92.9609C40.8512 92.9609 40.9098 92.9316 40.9685 92.8729C42.2298 91.4649 44.0632 90.7609 46.4685 90.7609C49.9298 90.7609 52.3938 92.1396 53.8605 94.8969ZM50.2085 103.873C50.6485 102.934 50.8685 101.805 50.8685 100.485C50.8685 98.9889 50.6045 97.7862 50.0765 96.8769C49.2258 95.1756 47.7885 94.3249 45.7645 94.3249C44.7378 94.3249 43.8578 94.5596 43.1245 95.0289C42.3912 95.4689 41.8338 96.1142 41.4525 96.9649C40.9832 97.9329 40.7485 99.1796 40.7485 100.705C40.7485 101.937 40.9392 102.978 41.3205 103.829C41.7018 104.768 42.2738 105.486 43.0365 105.985C43.7992 106.454 44.7232 106.689 45.8085 106.689C47.9498 106.689 49.4165 105.75 50.2085 103.873ZM78.0797 96.4369C78.4024 97.7276 78.5637 99.0622 78.5637 100.441C78.5637 101.82 78.3877 103.096 78.0357 104.269C77.4784 106.146 76.4077 107.642 74.8237 108.757C73.2691 109.842 71.4064 110.385 69.2357 110.385C67.0944 110.385 65.2611 109.857 63.7357 108.801C62.2104 107.745 61.1397 106.308 60.5237 104.489C60.2304 103.668 60.0691 102.949 60.0397 102.333V102.245C60.0397 102.01 60.1717 101.893 60.4357 101.893H63.9117C64.1757 101.893 64.3224 102.025 64.3517 102.289C64.3811 102.494 64.4544 102.802 64.5717 103.213C64.8944 104.298 65.4517 105.164 66.2437 105.809C67.0651 106.425 68.0477 106.733 69.1917 106.733C70.3944 106.733 71.4064 106.41 72.2277 105.765C73.0784 105.09 73.6504 104.166 73.9437 102.993C74.1491 102.377 74.2517 101.526 74.2517 100.441C74.2517 99.4729 74.1637 98.5782 73.9877 97.7569C73.7824 96.6422 73.2544 95.7916 72.4037 95.2049C71.5824 94.5889 70.5557 94.2809 69.3237 94.2809C68.1797 94.2809 67.1531 94.5449 66.2437 95.0729C65.3344 95.5716 64.7477 96.2462 64.4837 97.0969C64.3957 97.3609 64.2344 97.4929 63.9997 97.4929H60.4797C60.1864 97.4929 60.0397 97.3462 60.0397 97.0529V79.7169C60.0397 79.4236 60.1864 79.2769 60.4797 79.2769H76.9357C77.2291 79.2769 77.3757 79.4236 77.3757 79.7169V82.4889C77.3757 82.7822 77.2291 82.9289 76.9357 82.9289H64.4397C64.3224 82.9289 64.2637 82.9876 64.2637 83.1049L64.2197 92.3009C64.2197 92.4769 64.2931 92.5209 64.4397 92.4329C65.1437 91.8169 65.9504 91.3622 66.8597 91.0689C67.7984 90.7462 68.7811 90.5849 69.8077 90.5849C71.8611 90.5849 73.6211 91.0982 75.0877 92.1249C76.5837 93.1516 77.5811 94.5889 78.0797 96.4369ZM86.899 110.077C86.0777 110.077 85.403 109.813 84.875 109.285C84.347 108.757 84.083 108.082 84.083 107.261C84.083 106.44 84.347 105.765 84.875 105.237C85.403 104.709 86.0777 104.445 86.899 104.445C87.7203 104.445 88.395 104.709 88.923 105.237C89.451 105.765 89.715 106.44 89.715 107.261C89.715 108.082 89.451 108.757 88.923 109.285C88.395 109.813 87.7203 110.077 86.899 110.077ZM113.448 84.6889C113.888 85.9209 114.108 87.3436 114.108 88.9569V102.509C114.108 104.914 113.272 106.836 111.6 108.273C109.928 109.71 107.743 110.429 105.044 110.429C103.314 110.429 101.774 110.106 100.424 109.461C99.1042 108.816 98.0775 107.921 97.3442 106.777C96.6108 105.604 96.2442 104.269 96.2442 102.773V101.893C96.2442 101.6 96.3908 101.453 96.6842 101.453H100.028C100.322 101.453 100.468 101.6 100.468 101.893V102.289C100.468 103.609 100.894 104.68 101.744 105.501C102.595 106.322 103.695 106.733 105.044 106.733C106.452 106.733 107.611 106.308 108.52 105.457C109.43 104.606 109.884 103.477 109.884 102.069V96.5249C109.884 96.4662 109.855 96.4222 109.796 96.3929C109.767 96.3636 109.723 96.3782 109.664 96.4369C108.403 97.8742 106.57 98.5929 104.164 98.5929C102.434 98.5929 100.938 98.2409 99.6762 97.5369C98.4442 96.8329 97.4762 95.8062 96.7722 94.4569C95.9508 92.9022 95.5402 91.0396 95.5402 88.8689C95.5402 87.1089 95.8188 85.5396 96.3762 84.1609C97.0508 82.4889 98.1068 81.2129 99.5442 80.3329C100.982 79.4236 102.712 78.9689 104.736 78.9689C106.907 78.9689 108.74 79.4676 110.236 80.4649C111.732 81.4622 112.803 82.8702 113.448 84.6889ZM109.18 92.3889C109.65 91.4209 109.884 90.1742 109.884 88.6489C109.884 87.4169 109.694 86.3756 109.312 85.5249C108.931 84.5862 108.359 83.8822 107.596 83.4129C106.834 82.9142 105.91 82.6649 104.824 82.6649C103.739 82.6649 102.815 82.9142 102.052 83.4129C101.319 83.8822 100.776 84.5716 100.424 85.4809C99.9842 86.3902 99.7642 87.5196 99.7642 88.8689C99.7642 90.3356 100.014 91.5382 100.512 92.4769C101.422 94.1782 102.859 95.0289 104.824 95.0289C106.907 95.0289 108.359 94.1489 109.18 92.3889ZM127.281 91.9049C126.079 91.9049 124.964 91.6116 123.937 91.0249C122.94 90.4382 122.148 89.6462 121.561 88.6489C120.975 87.6516 120.681 86.5516 120.681 85.3489C120.681 84.1756 120.975 83.0902 121.561 82.0929C122.148 81.0956 122.94 80.3182 123.937 79.7609C124.964 79.1742 126.079 78.8809 127.281 78.8809C128.455 78.8809 129.54 79.1742 130.537 79.7609C131.535 80.3476 132.327 81.1396 132.913 82.1369C133.5 83.1049 133.793 84.1756 133.793 85.3489C133.793 86.5516 133.5 87.6516 132.913 88.6489C132.327 89.6462 131.535 90.4382 130.537 91.0249C129.54 91.6116 128.455 91.9049 127.281 91.9049ZM126.005 110.077C125.829 110.077 125.712 110.033 125.653 109.945C125.595 109.828 125.609 109.696 125.697 109.549L142.329 79.5849C142.447 79.3796 142.623 79.2769 142.857 79.2769H145.013C145.189 79.2769 145.307 79.3356 145.365 79.4529C145.424 79.5409 145.409 79.6582 145.321 79.8049L128.689 109.769C128.601 109.974 128.425 110.077 128.161 110.077H126.005ZM127.281 89.3089C128.367 89.3089 129.276 88.9276 130.009 88.1649C130.743 87.4022 131.109 86.4636 131.109 85.3489C131.109 84.2636 130.728 83.3542 129.965 82.6209C129.232 81.8582 128.337 81.4769 127.281 81.4769C126.196 81.4769 125.272 81.8582 124.509 82.6209C123.747 83.3542 123.365 84.2636 123.365 85.3489C123.365 86.4636 123.747 87.4022 124.509 88.1649C125.272 88.9276 126.196 89.3089 127.281 89.3089ZM144.045 110.473C142.843 110.473 141.728 110.18 140.701 109.593C139.704 109.006 138.912 108.214 138.325 107.217C137.739 106.22 137.445 105.134 137.445 103.961C137.445 102.788 137.739 101.702 138.325 100.705C138.912 99.7076 139.704 98.9156 140.701 98.3289C141.728 97.7422 142.843 97.4489 144.045 97.4489C145.219 97.4489 146.304 97.7422 147.301 98.3289C148.299 98.9156 149.091 99.7076 149.677 100.705C150.264 101.702 150.557 102.788 150.557 103.961C150.557 105.134 150.264 106.22 149.677 107.217C149.091 108.214 148.299 109.006 147.301 109.593C146.304 110.18 145.219 110.473 144.045 110.473ZM144.045 107.877C145.131 107.877 146.04 107.496 146.773 106.733C147.507 105.97 147.873 105.046 147.873 103.961C147.873 102.876 147.492 101.952 146.729 101.189C145.996 100.426 145.101 100.045 144.045 100.045C142.96 100.045 142.036 100.426 141.273 101.189C140.511 101.952 140.129 102.876 140.129 103.961C140.129 105.046 140.511 105.97 141.273 106.733C142.036 107.496 142.96 107.877 144.045 107.877Z" fill="white"/>
</svg>
