<svg width="188" height="188" viewBox="0 0 188 188" fill="none" xmlns="http://www.w3.org/2000/svg">
<circle cx="94" cy="94" r="90" stroke="#997F8A" stroke-width="2"/>
<path d="M93.9999 4C143.706 4 184 44.2944 184 94C184 143.706 143.706 184 93.9999 184C62.2565 184 34.3515 167.566 18.3286 142.742" stroke="#E3FF39" stroke-width="8" stroke-linecap="round"/>
<path d="M53.8605 93.82C54.6818 95.3747 55.0925 97.2373 55.0925 99.408C55.0925 101.197 54.7992 102.767 54.2125 104.116C53.5378 105.788 52.4818 107.079 51.0445 107.988C49.6365 108.868 47.9205 109.308 45.8965 109.308C43.7258 109.308 41.8778 108.809 40.3525 107.812C38.8565 106.815 37.8005 105.407 37.1845 103.588C36.7445 102.356 36.5245 100.933 36.5245 99.32V85.768C36.5245 83.3627 37.3605 81.4413 39.0325 80.004C40.7045 78.5667 42.8898 77.848 45.5885 77.848C47.3192 77.848 48.8445 78.1707 50.1645 78.816C51.5138 79.4613 52.5552 80.3707 53.2885 81.544C54.0218 82.688 54.3885 84.008 54.3885 85.504V86.384C54.3885 86.6773 54.2418 86.824 53.9485 86.824H50.6045C50.3112 86.824 50.1645 86.6773 50.1645 86.384V85.988C50.1645 84.668 49.7392 83.5973 48.8885 82.776C48.0378 81.9547 46.9378 81.544 45.5885 81.544C44.1512 81.544 42.9778 81.9693 42.0685 82.82C41.1885 83.6707 40.7485 84.8 40.7485 86.208V91.752C40.7485 91.8107 40.7632 91.8547 40.7925 91.884C40.8512 91.884 40.9098 91.8547 40.9685 91.796C42.2298 90.388 44.0632 89.684 46.4685 89.684C49.9298 89.684 52.3938 91.0627 53.8605 93.82ZM50.2085 102.796C50.6485 101.857 50.8685 100.728 50.8685 99.408C50.8685 97.912 50.6045 96.7093 50.0765 95.8C49.2258 94.0987 47.7885 93.248 45.7645 93.248C44.7378 93.248 43.8578 93.4827 43.1245 93.952C42.3912 94.392 41.8338 95.0373 41.4525 95.888C40.9832 96.856 40.7485 98.1027 40.7485 99.628C40.7485 100.86 40.9392 101.901 41.3205 102.752C41.7018 103.691 42.2738 104.409 43.0365 104.908C43.7992 105.377 44.7232 105.612 45.8085 105.612C47.9498 105.612 49.4165 104.673 50.2085 102.796ZM78.0797 95.36C78.4024 96.6507 78.5637 97.9853 78.5637 99.364C78.5637 100.743 78.3877 102.019 78.0357 103.192C77.4784 105.069 76.4077 106.565 74.8237 107.68C73.2691 108.765 71.4064 109.308 69.2357 109.308C67.0944 109.308 65.2611 108.78 63.7357 107.724C62.2104 106.668 61.1397 105.231 60.5237 103.412C60.2304 102.591 60.0691 101.872 60.0397 101.256V101.168C60.0397 100.933 60.1717 100.816 60.4357 100.816H63.9117C64.1757 100.816 64.3224 100.948 64.3517 101.212C64.3811 101.417 64.4544 101.725 64.5717 102.136C64.8944 103.221 65.4517 104.087 66.2437 104.732C67.0651 105.348 68.0477 105.656 69.1917 105.656C70.3944 105.656 71.4064 105.333 72.2277 104.688C73.0784 104.013 73.6504 103.089 73.9437 101.916C74.1491 101.3 74.2517 100.449 74.2517 99.364C74.2517 98.396 74.1637 97.5013 73.9877 96.68C73.7824 95.5653 73.2544 94.7147 72.4037 94.128C71.5824 93.512 70.5557 93.204 69.3237 93.204C68.1797 93.204 67.1531 93.468 66.2437 93.996C65.3344 94.4947 64.7477 95.1693 64.4837 96.02C64.3957 96.284 64.2344 96.416 63.9997 96.416H60.4797C60.1864 96.416 60.0397 96.2693 60.0397 95.976V78.64C60.0397 78.3467 60.1864 78.2 60.4797 78.2H76.9357C77.2291 78.2 77.3757 78.3467 77.3757 78.64V81.412C77.3757 81.7053 77.2291 81.852 76.9357 81.852H64.4397C64.3224 81.852 64.2637 81.9107 64.2637 82.028L64.2197 91.224C64.2197 91.4 64.2931 91.444 64.4397 91.356C65.1437 90.74 65.9504 90.2853 66.8597 89.992C67.7984 89.6693 68.7811 89.508 69.8077 89.508C71.8611 89.508 73.6211 90.0213 75.0877 91.048C76.5837 92.0747 77.5811 93.512 78.0797 95.36ZM86.899 109C86.0777 109 85.403 108.736 84.875 108.208C84.347 107.68 84.083 107.005 84.083 106.184C84.083 105.363 84.347 104.688 84.875 104.16C85.403 103.632 86.0777 103.368 86.899 103.368C87.7203 103.368 88.395 103.632 88.923 104.16C89.451 104.688 89.715 105.363 89.715 106.184C89.715 107.005 89.451 107.68 88.923 108.208C88.395 108.736 87.7203 109 86.899 109ZM113.448 83.612C113.888 84.844 114.108 86.2667 114.108 87.88V101.432C114.108 103.837 113.272 105.759 111.6 107.196C109.928 108.633 107.743 109.352 105.044 109.352C103.314 109.352 101.774 109.029 100.424 108.384C99.1042 107.739 98.0775 106.844 97.3442 105.7C96.6108 104.527 96.2442 103.192 96.2442 101.696V100.816C96.2442 100.523 96.3908 100.376 96.6842 100.376H100.028C100.322 100.376 100.468 100.523 100.468 100.816V101.212C100.468 102.532 100.894 103.603 101.744 104.424C102.595 105.245 103.695 105.656 105.044 105.656C106.452 105.656 107.611 105.231 108.52 104.38C109.43 103.529 109.884 102.4 109.884 100.992V95.448C109.884 95.3893 109.855 95.3453 109.796 95.316C109.767 95.2867 109.723 95.3013 109.664 95.36C108.403 96.7973 106.57 97.516 104.164 97.516C102.434 97.516 100.938 97.164 99.6762 96.46C98.4442 95.756 97.4762 94.7293 96.7722 93.38C95.9508 91.8253 95.5402 89.9627 95.5402 87.792C95.5402 86.032 95.8188 84.4627 96.3762 83.084C97.0508 81.412 98.1068 80.136 99.5442 79.256C100.982 78.3467 102.712 77.892 104.736 77.892C106.907 77.892 108.74 78.3907 110.236 79.388C111.732 80.3853 112.803 81.7933 113.448 83.612ZM109.18 91.312C109.65 90.344 109.884 89.0973 109.884 87.572C109.884 86.34 109.694 85.2987 109.312 84.448C108.931 83.5093 108.359 82.8053 107.596 82.336C106.834 81.8373 105.91 81.588 104.824 81.588C103.739 81.588 102.815 81.8373 102.052 82.336C101.319 82.8053 100.776 83.4947 100.424 84.404C99.9842 85.3133 99.7642 86.4427 99.7642 87.792C99.7642 89.2587 100.014 90.4613 100.512 91.4C101.422 93.1013 102.859 93.952 104.824 93.952C106.907 93.952 108.359 93.072 109.18 91.312ZM127.281 90.828C126.079 90.828 124.964 90.5347 123.937 89.948C122.94 89.3613 122.148 88.5693 121.561 87.572C120.975 86.5747 120.681 85.4747 120.681 84.272C120.681 83.0987 120.975 82.0133 121.561 81.016C122.148 80.0187 122.94 79.2413 123.937 78.684C124.964 78.0973 126.079 77.804 127.281 77.804C128.455 77.804 129.54 78.0973 130.537 78.684C131.535 79.2707 132.327 80.0627 132.913 81.06C133.5 82.028 133.793 83.0987 133.793 84.272C133.793 85.4747 133.5 86.5747 132.913 87.572C132.327 88.5693 131.535 89.3613 130.537 89.948C129.54 90.5347 128.455 90.828 127.281 90.828ZM126.005 109C125.829 109 125.712 108.956 125.653 108.868C125.595 108.751 125.609 108.619 125.697 108.472L142.329 78.508C142.447 78.3027 142.623 78.2 142.857 78.2H145.013C145.189 78.2 145.307 78.2587 145.365 78.376C145.424 78.464 145.409 78.5813 145.321 78.728L128.689 108.692C128.601 108.897 128.425 109 128.161 109H126.005ZM127.281 88.232C128.367 88.232 129.276 87.8507 130.009 87.088C130.743 86.3253 131.109 85.3867 131.109 84.272C131.109 83.1867 130.728 82.2773 129.965 81.544C129.232 80.7813 128.337 80.4 127.281 80.4C126.196 80.4 125.272 80.7813 124.509 81.544C123.747 82.2773 123.365 83.1867 123.365 84.272C123.365 85.3867 123.747 86.3253 124.509 87.088C125.272 87.8507 126.196 88.232 127.281 88.232ZM144.045 109.396C142.843 109.396 141.728 109.103 140.701 108.516C139.704 107.929 138.912 107.137 138.325 106.14C137.739 105.143 137.445 104.057 137.445 102.884C137.445 101.711 137.739 100.625 138.325 99.628C138.912 98.6307 139.704 97.8387 140.701 97.252C141.728 96.6653 142.843 96.372 144.045 96.372C145.219 96.372 146.304 96.6653 147.301 97.252C148.299 97.8387 149.091 98.6307 149.677 99.628C150.264 100.625 150.557 101.711 150.557 102.884C150.557 104.057 150.264 105.143 149.677 106.14C149.091 107.137 148.299 107.929 147.301 108.516C146.304 109.103 145.219 109.396 144.045 109.396ZM144.045 106.8C145.131 106.8 146.04 106.419 146.773 105.656C147.507 104.893 147.873 103.969 147.873 102.884C147.873 101.799 147.492 100.875 146.729 100.112C145.996 99.3493 145.101 98.968 144.045 98.968C142.96 98.968 142.036 99.3493 141.273 100.112C140.511 100.875 140.129 101.799 140.129 102.884C140.129 103.969 140.511 104.893 141.273 105.656C142.036 106.419 142.96 106.8 144.045 106.8Z" fill="white"/>
</svg>
