<svg width="189" height="190" viewBox="0 0 189 190" fill="none" xmlns="http://www.w3.org/2000/svg">
<circle cx="94" cy="95" r="90" stroke="#997F8A" stroke-width="2"/>
<mask id="path-2-outside-1_31:3230" maskUnits="userSpaceOnUse" x="2" y="0" width="187" height="190" fill="black">
<rect fill="white" x="2" width="187" height="190"/>
<path d="M94 4.995C94 2.78862 95.7897 0.99114 97.9941 1.08487C114.312 1.77872 130.193 6.7144 144.056 15.436C159.048 24.8678 171.07 38.3434 178.737 54.31C186.404 70.2766 189.404 88.0845 187.391 105.682C185.378 123.279 178.435 139.95 167.36 153.773C156.286 167.596 141.532 178.009 124.797 183.812C108.063 189.615 90.0293 190.572 72.7747 186.572C55.5201 182.573 39.7465 173.78 27.2715 161.207C15.7358 149.58 7.45466 135.158 3.21793 119.385C2.64558 117.254 4.00937 115.115 6.16261 114.634C8.31585 114.153 10.4424 115.511 11.0231 117.64C14.926 131.945 22.4682 145.021 32.9434 155.579C44.358 167.084 58.7909 175.129 74.5788 178.789C90.3668 182.448 106.867 181.573 122.179 176.263C137.492 170.953 150.992 161.425 161.125 148.777C171.258 136.129 177.611 120.875 179.453 104.774C181.295 88.6723 178.55 72.3781 171.534 57.7686C164.519 43.1592 153.519 30.829 139.801 22.1989C127.212 14.2791 112.805 9.77114 97.9938 9.08275C95.7898 8.98032 94 7.20138 94 4.995Z"/>
</mask>
<path d="M94 4.995C94 2.78862 95.7897 0.99114 97.9941 1.08487C114.312 1.77872 130.193 6.7144 144.056 15.436C159.048 24.8678 171.07 38.3434 178.737 54.31C186.404 70.2766 189.404 88.0845 187.391 105.682C185.378 123.279 178.435 139.95 167.36 153.773C156.286 167.596 141.532 178.009 124.797 183.812C108.063 189.615 90.0293 190.572 72.7747 186.572C55.5201 182.573 39.7465 173.78 27.2715 161.207C15.7358 149.58 7.45466 135.158 3.21793 119.385C2.64558 117.254 4.00937 115.115 6.16261 114.634C8.31585 114.153 10.4424 115.511 11.0231 117.64C14.926 131.945 22.4682 145.021 32.9434 155.579C44.358 167.084 58.7909 175.129 74.5788 178.789C90.3668 182.448 106.867 181.573 122.179 176.263C137.492 170.953 150.992 161.425 161.125 148.777C171.258 136.129 177.611 120.875 179.453 104.774C181.295 88.6723 178.55 72.3781 171.534 57.7686C164.519 43.1592 153.519 30.829 139.801 22.1989C127.212 14.2791 112.805 9.77114 97.9938 9.08275C95.7898 8.98032 94 7.20138 94 4.995Z" fill="#E3FF39"/>
<path d="M94 4.995C94 2.78862 95.7897 0.99114 97.9941 1.08487C114.312 1.77872 130.193 6.7144 144.056 15.436C159.048 24.8678 171.07 38.3434 178.737 54.31C186.404 70.2766 189.404 88.0845 187.391 105.682C185.378 123.279 178.435 139.95 167.36 153.773C156.286 167.596 141.532 178.009 124.797 183.812C108.063 189.615 90.0293 190.572 72.7747 186.572C55.5201 182.573 39.7465 173.78 27.2715 161.207C15.7358 149.58 7.45466 135.158 3.21793 119.385C2.64558 117.254 4.00937 115.115 6.16261 114.634C8.31585 114.153 10.4424 115.511 11.0231 117.64C14.926 131.945 22.4682 145.021 32.9434 155.579C44.358 167.084 58.7909 175.129 74.5788 178.789C90.3668 182.448 106.867 181.573 122.179 176.263C137.492 170.953 150.992 161.425 161.125 148.777C171.258 136.129 177.611 120.875 179.453 104.774C181.295 88.6723 178.55 72.3781 171.534 57.7686C164.519 43.1592 153.519 30.829 139.801 22.1989C127.212 14.2791 112.805 9.77114 97.9938 9.08275C95.7898 8.98032 94 7.20138 94 4.995Z" stroke="#3E404C" stroke-width="2" mask="url(#path-2-outside-1_31:3230)"/>
<path d="M45.3386 110.077C45.1919 110.077 45.0746 110.033 44.9866 109.945C44.9279 109.828 44.9279 109.696 44.9866 109.549L54.9746 83.1489C55.0039 83.0902 55.0039 83.0462 54.9746 83.0169C54.9453 82.9582 54.9013 82.9289 54.8426 82.9289H44.2386C44.1213 82.9289 44.0626 82.9876 44.0626 83.1049V85.1729C44.0626 85.4662 43.9159 85.6129 43.6226 85.6129H40.9826C40.6893 85.6129 40.5426 85.4662 40.5426 85.1729V79.7169C40.5426 79.4236 40.6893 79.2769 40.9826 79.2769H59.0666C59.3599 79.2769 59.5066 79.4236 59.5066 79.7169V82.6649C59.5066 82.7822 59.4773 82.9582 59.4186 83.1929L49.4746 109.725C49.3866 109.96 49.2253 110.077 48.9906 110.077H45.3386ZM68.4541 79.4089C68.6301 79.3209 68.8207 79.2769 69.0261 79.2769H72.5021C72.7954 79.2769 72.9421 79.4236 72.9421 79.7169V109.637C72.9421 109.93 72.7954 110.077 72.5021 110.077H69.1581C68.8647 110.077 68.7181 109.93 68.7181 109.637V83.8089C68.7181 83.7502 68.6887 83.7062 68.6301 83.6769C68.6007 83.6476 68.5567 83.6476 68.4981 83.6769L63.8781 85.2609C63.8194 85.2902 63.7461 85.3049 63.6581 85.3049C63.4821 85.3049 63.3794 85.1876 63.3501 84.9529L63.1741 82.4449C63.1741 82.1516 63.2621 81.9756 63.4381 81.9169L68.4541 79.4089ZM82.8228 110.077C82.0015 110.077 81.3268 109.813 80.7988 109.285C80.2708 108.757 80.0068 108.082 80.0068 107.261C80.0068 106.44 80.2708 105.765 80.7988 105.237C81.3268 104.709 82.0015 104.445 82.8228 104.445C83.6441 104.445 84.3188 104.709 84.8468 105.237C85.3748 105.765 85.6388 106.44 85.6388 107.261C85.6388 108.082 85.3748 108.757 84.8468 109.285C84.3188 109.813 83.6441 110.077 82.8228 110.077ZM110.032 96.4369C110.355 97.7276 110.516 99.0622 110.516 100.441C110.516 101.82 110.34 103.096 109.988 104.269C109.431 106.146 108.36 107.642 106.776 108.757C105.221 109.842 103.359 110.385 101.188 110.385C99.0467 110.385 97.2133 109.857 95.688 108.801C94.1627 107.745 93.092 106.308 92.476 104.489C92.1827 103.668 92.0213 102.949 91.992 102.333V102.245C91.992 102.01 92.124 101.893 92.388 101.893H95.864C96.128 101.893 96.2747 102.025 96.304 102.289C96.3333 102.494 96.4067 102.802 96.524 103.213C96.8467 104.298 97.404 105.164 98.196 105.809C99.0173 106.425 100 106.733 101.144 106.733C102.347 106.733 103.359 106.41 104.18 105.765C105.031 105.09 105.603 104.166 105.896 102.993C106.101 102.377 106.204 101.526 106.204 100.441C106.204 99.4729 106.116 98.5782 105.94 97.7569C105.735 96.6422 105.207 95.7916 104.356 95.2049C103.535 94.5889 102.508 94.2809 101.276 94.2809C100.132 94.2809 99.1053 94.5449 98.196 95.0729C97.2867 95.5716 96.7 96.2462 96.436 97.0969C96.348 97.3609 96.1867 97.4929 95.952 97.4929H92.432C92.1387 97.4929 91.992 97.3462 91.992 97.0529V79.7169C91.992 79.4236 92.1387 79.2769 92.432 79.2769H108.888C109.181 79.2769 109.328 79.4236 109.328 79.7169V82.4889C109.328 82.7822 109.181 82.9289 108.888 82.9289H96.392C96.2747 82.9289 96.216 82.9876 96.216 83.1049L96.172 92.3009C96.172 92.4769 96.2453 92.5209 96.392 92.4329C97.096 91.8169 97.9027 91.3622 98.812 91.0689C99.7507 90.7462 100.733 90.5849 101.76 90.5849C103.813 90.5849 105.573 91.0982 107.04 92.1249C108.536 93.1516 109.533 94.5889 110.032 96.4369ZM123.119 91.9049C121.917 91.9049 120.802 91.6116 119.775 91.0249C118.778 90.4382 117.986 89.6462 117.399 88.6489C116.813 87.6516 116.519 86.5516 116.519 85.3489C116.519 84.1756 116.813 83.0902 117.399 82.0929C117.986 81.0956 118.778 80.3182 119.775 79.7609C120.802 79.1742 121.917 78.8809 123.119 78.8809C124.293 78.8809 125.378 79.1742 126.375 79.7609C127.373 80.3476 128.165 81.1396 128.751 82.1369C129.338 83.1049 129.631 84.1756 129.631 85.3489C129.631 86.5516 129.338 87.6516 128.751 88.6489C128.165 89.6462 127.373 90.4382 126.375 91.0249C125.378 91.6116 124.293 91.9049 123.119 91.9049ZM121.843 110.077C121.667 110.077 121.55 110.033 121.491 109.945C121.433 109.828 121.447 109.696 121.535 109.549L138.167 79.5849C138.285 79.3796 138.461 79.2769 138.695 79.2769H140.851C141.027 79.2769 141.145 79.3356 141.203 79.4529C141.262 79.5409 141.247 79.6582 141.159 79.8049L124.527 109.769C124.439 109.974 124.263 110.077 123.999 110.077H121.843ZM123.119 89.3089C124.205 89.3089 125.114 88.9276 125.847 88.1649C126.581 87.4022 126.947 86.4636 126.947 85.3489C126.947 84.2636 126.566 83.3542 125.803 82.6209C125.07 81.8582 124.175 81.4769 123.119 81.4769C122.034 81.4769 121.11 81.8582 120.347 82.6209C119.585 83.3542 119.203 84.2636 119.203 85.3489C119.203 86.4636 119.585 87.4022 120.347 88.1649C121.11 88.9276 122.034 89.3089 123.119 89.3089ZM139.883 110.473C138.681 110.473 137.566 110.18 136.539 109.593C135.542 109.006 134.75 108.214 134.163 107.217C133.577 106.22 133.283 105.134 133.283 103.961C133.283 102.788 133.577 101.702 134.163 100.705C134.75 99.7076 135.542 98.9156 136.539 98.3289C137.566 97.7422 138.681 97.4489 139.883 97.4489C141.057 97.4489 142.142 97.7422 143.139 98.3289C144.137 98.9156 144.929 99.7076 145.515 100.705C146.102 101.702 146.395 102.788 146.395 103.961C146.395 105.134 146.102 106.22 145.515 107.217C144.929 108.214 144.137 109.006 143.139 109.593C142.142 110.18 141.057 110.473 139.883 110.473ZM139.883 107.877C140.969 107.877 141.878 107.496 142.611 106.733C143.345 105.97 143.711 105.046 143.711 103.961C143.711 102.876 143.33 101.952 142.567 101.189C141.834 100.426 140.939 100.045 139.883 100.045C138.798 100.045 137.874 100.426 137.111 101.189C136.349 101.952 135.967 102.876 135.967 103.961C135.967 105.046 136.349 105.97 137.111 106.733C137.874 107.496 138.798 107.877 139.883 107.877Z" fill="white"/>
</svg>
