<svg width="188" height="188" viewBox="0 0 188 188" fill="none" xmlns="http://www.w3.org/2000/svg">
<circle cx="94" cy="94" r="90" stroke="#997F8A" stroke-width="2"/>
<path d="M94 4C143.706 4 184 44.2944 184 94C184 143.706 143.706 184 94 184C51.039 184 15.1085 153.899 6.14856 113.637" stroke="#E3FF39" stroke-width="8" stroke-linecap="round"/>
<path d="M45.3386 109C45.1919 109 45.0746 108.956 44.9866 108.868C44.9279 108.751 44.9279 108.619 44.9866 108.472L54.9746 82.072C55.0039 82.0133 55.0039 81.9693 54.9746 81.94C54.9453 81.8813 54.9013 81.852 54.8426 81.852H44.2386C44.1213 81.852 44.0626 81.9107 44.0626 82.028V84.096C44.0626 84.3893 43.9159 84.536 43.6226 84.536H40.9826C40.6893 84.536 40.5426 84.3893 40.5426 84.096V78.64C40.5426 78.3467 40.6893 78.2 40.9826 78.2H59.0666C59.3599 78.2 59.5066 78.3467 59.5066 78.64V81.588C59.5066 81.7053 59.4773 81.8813 59.4186 82.116L49.4746 108.648C49.3866 108.883 49.2253 109 48.9906 109H45.3386ZM68.4541 78.332C68.6301 78.244 68.8207 78.2 69.0261 78.2H72.5021C72.7954 78.2 72.9421 78.3467 72.9421 78.64V108.56C72.9421 108.853 72.7954 109 72.5021 109H69.1581C68.8647 109 68.7181 108.853 68.7181 108.56V82.732C68.7181 82.6733 68.6887 82.6293 68.6301 82.6C68.6007 82.5707 68.5567 82.5707 68.4981 82.6L63.8781 84.184C63.8194 84.2133 63.7461 84.228 63.6581 84.228C63.4821 84.228 63.3794 84.1107 63.3501 83.876L63.1741 81.368C63.1741 81.0747 63.2621 80.8987 63.4381 80.84L68.4541 78.332ZM82.8228 109C82.0015 109 81.3268 108.736 80.7988 108.208C80.2708 107.68 80.0068 107.005 80.0068 106.184C80.0068 105.363 80.2708 104.688 80.7988 104.16C81.3268 103.632 82.0015 103.368 82.8228 103.368C83.6441 103.368 84.3188 103.632 84.8468 104.16C85.3748 104.688 85.6388 105.363 85.6388 106.184C85.6388 107.005 85.3748 107.68 84.8468 108.208C84.3188 108.736 83.6441 109 82.8228 109ZM110.032 95.36C110.355 96.6507 110.516 97.9853 110.516 99.364C110.516 100.743 110.34 102.019 109.988 103.192C109.431 105.069 108.36 106.565 106.776 107.68C105.221 108.765 103.359 109.308 101.188 109.308C99.0467 109.308 97.2133 108.78 95.688 107.724C94.1627 106.668 93.092 105.231 92.476 103.412C92.1827 102.591 92.0213 101.872 91.992 101.256V101.168C91.992 100.933 92.124 100.816 92.388 100.816H95.864C96.128 100.816 96.2747 100.948 96.304 101.212C96.3333 101.417 96.4067 101.725 96.524 102.136C96.8467 103.221 97.404 104.087 98.196 104.732C99.0173 105.348 100 105.656 101.144 105.656C102.347 105.656 103.359 105.333 104.18 104.688C105.031 104.013 105.603 103.089 105.896 101.916C106.101 101.3 106.204 100.449 106.204 99.364C106.204 98.396 106.116 97.5013 105.94 96.68C105.735 95.5653 105.207 94.7147 104.356 94.128C103.535 93.512 102.508 93.204 101.276 93.204C100.132 93.204 99.1053 93.468 98.196 93.996C97.2867 94.4947 96.7 95.1693 96.436 96.02C96.348 96.284 96.1867 96.416 95.952 96.416H92.432C92.1387 96.416 91.992 96.2693 91.992 95.976V78.64C91.992 78.3467 92.1387 78.2 92.432 78.2H108.888C109.181 78.2 109.328 78.3467 109.328 78.64V81.412C109.328 81.7053 109.181 81.852 108.888 81.852H96.392C96.2747 81.852 96.216 81.9107 96.216 82.028L96.172 91.224C96.172 91.4 96.2453 91.444 96.392 91.356C97.096 90.74 97.9027 90.2853 98.812 89.992C99.7507 89.6693 100.733 89.508 101.76 89.508C103.813 89.508 105.573 90.0213 107.04 91.048C108.536 92.0747 109.533 93.512 110.032 95.36ZM123.119 90.828C121.917 90.828 120.802 90.5347 119.775 89.948C118.778 89.3613 117.986 88.5693 117.399 87.572C116.813 86.5747 116.519 85.4747 116.519 84.272C116.519 83.0987 116.813 82.0133 117.399 81.016C117.986 80.0187 118.778 79.2413 119.775 78.684C120.802 78.0973 121.917 77.804 123.119 77.804C124.293 77.804 125.378 78.0973 126.375 78.684C127.373 79.2707 128.165 80.0627 128.751 81.06C129.338 82.028 129.631 83.0987 129.631 84.272C129.631 85.4747 129.338 86.5747 128.751 87.572C128.165 88.5693 127.373 89.3613 126.375 89.948C125.378 90.5347 124.293 90.828 123.119 90.828ZM121.843 109C121.667 109 121.55 108.956 121.491 108.868C121.433 108.751 121.447 108.619 121.535 108.472L138.167 78.508C138.285 78.3027 138.461 78.2 138.695 78.2H140.851C141.027 78.2 141.145 78.2587 141.203 78.376C141.262 78.464 141.247 78.5813 141.159 78.728L124.527 108.692C124.439 108.897 124.263 109 123.999 109H121.843ZM123.119 88.232C124.205 88.232 125.114 87.8507 125.847 87.088C126.581 86.3253 126.947 85.3867 126.947 84.272C126.947 83.1867 126.566 82.2773 125.803 81.544C125.07 80.7813 124.175 80.4 123.119 80.4C122.034 80.4 121.11 80.7813 120.347 81.544C119.585 82.2773 119.203 83.1867 119.203 84.272C119.203 85.3867 119.585 86.3253 120.347 87.088C121.11 87.8507 122.034 88.232 123.119 88.232ZM139.883 109.396C138.681 109.396 137.566 109.103 136.539 108.516C135.542 107.929 134.75 107.137 134.163 106.14C133.577 105.143 133.283 104.057 133.283 102.884C133.283 101.711 133.577 100.625 134.163 99.628C134.75 98.6307 135.542 97.8387 136.539 97.252C137.566 96.6653 138.681 96.372 139.883 96.372C141.057 96.372 142.142 96.6653 143.139 97.252C144.137 97.8387 144.929 98.6307 145.515 99.628C146.102 100.625 146.395 101.711 146.395 102.884C146.395 104.057 146.102 105.143 145.515 106.14C144.929 107.137 144.137 107.929 143.139 108.516C142.142 109.103 141.057 109.396 139.883 109.396ZM139.883 106.8C140.969 106.8 141.878 106.419 142.611 105.656C143.345 104.893 143.711 103.969 143.711 102.884C143.711 101.799 143.33 100.875 142.567 100.112C141.834 99.3493 140.939 98.968 139.883 98.968C138.798 98.968 137.874 99.3493 137.111 100.112C136.349 100.875 135.967 101.799 135.967 102.884C135.967 103.969 136.349 104.893 137.111 105.656C137.874 106.419 138.798 106.8 139.883 106.8Z" fill="white"/>
</svg>
