<svg width="188" height="188" viewBox="0 0 188 188" fill="none" xmlns="http://www.w3.org/2000/svg">
<circle cx="94" cy="94" r="90" stroke="#997F8A" stroke-width="2"/>
<path d="M94 4C133.93 4 167.786 30.0035 179.559 66" stroke="#E3FF39" stroke-width="8" stroke-linecap="round"/>
<path d="M59.0532 105.128C59.0239 105.187 59.0239 105.245 59.0532 105.304C59.0825 105.333 59.1265 105.348 59.1852 105.348H72.4292C72.7225 105.348 72.8692 105.495 72.8692 105.788V108.56C72.8692 108.853 72.7225 109 72.4292 109H53.9932C53.6999 109 53.5532 108.853 53.5532 108.56V105.876C53.5532 105.671 53.6265 105.495 53.7732 105.348C54.7705 104.204 57.0585 101.52 60.6372 97.296L63.6732 93.644C66.4012 90.388 67.7652 87.8653 67.7652 86.076C67.7652 84.6973 67.2959 83.5973 66.3572 82.776C65.4479 81.9253 64.2305 81.5 62.7052 81.5C61.1799 81.5 59.9625 81.9253 59.0532 82.776C58.1439 83.6267 57.7039 84.7413 57.7332 86.12V87.44C57.7332 87.7333 57.5865 87.88 57.2932 87.88H53.9052C53.6119 87.88 53.4652 87.7333 53.4652 87.44V85.548C53.5239 84.0227 53.9492 82.6733 54.7412 81.5C55.5625 80.3267 56.6625 79.432 58.0412 78.816C59.4199 78.1707 60.9745 77.848 62.7052 77.848C64.5825 77.848 66.2252 78.2 67.6332 78.904C69.0412 79.608 70.1265 80.576 70.8892 81.808C71.6519 83.04 72.0332 84.4333 72.0332 85.988C72.0332 88.4227 70.7132 91.2973 68.0732 94.612C66.8999 96.108 65.5065 97.7947 63.8932 99.672C62.2799 101.52 60.6665 103.339 59.0532 105.128ZM87.9588 109.44C84.9961 109.44 82.6348 108.604 80.8748 106.932C79.1441 105.231 78.2788 102.957 78.2788 100.112V87.088C78.2788 84.2427 79.1441 81.984 80.8748 80.312C82.6348 78.64 84.9961 77.804 87.9588 77.804C90.9215 77.804 93.2828 78.64 95.0428 80.312C96.8321 81.984 97.7268 84.2427 97.7268 87.088V100.112C97.7268 102.957 96.8321 105.231 95.0428 106.932C93.2828 108.604 90.9215 109.44 87.9588 109.44ZM87.9588 105.788C89.6601 105.788 91.0095 105.304 92.0068 104.336C93.0041 103.339 93.5028 102.019 93.5028 100.376V86.912C93.5028 85.2693 93.0041 83.964 92.0068 82.996C91.0095 81.9987 89.6601 81.5 87.9588 81.5C86.3161 81.5 84.9961 81.9987 83.9988 82.996C83.0015 83.964 82.5028 85.2693 82.5028 86.912V100.376C82.5028 102.019 83.0015 103.339 83.9988 104.336C84.9961 105.304 86.3161 105.788 87.9588 105.788ZM111.121 90.828C109.918 90.828 108.803 90.5347 107.777 89.948C106.779 89.3613 105.987 88.5693 105.401 87.572C104.814 86.5747 104.521 85.4747 104.521 84.272C104.521 83.0987 104.814 82.0133 105.401 81.016C105.987 80.0187 106.779 79.2413 107.777 78.684C108.803 78.0973 109.918 77.804 111.121 77.804C112.294 77.804 113.379 78.0973 114.377 78.684C115.374 79.2707 116.166 80.0627 116.753 81.06C117.339 82.028 117.633 83.0987 117.633 84.272C117.633 85.4747 117.339 86.5747 116.753 87.572C116.166 88.5693 115.374 89.3613 114.377 89.948C113.379 90.5347 112.294 90.828 111.121 90.828ZM109.845 109C109.669 109 109.551 108.956 109.493 108.868C109.434 108.751 109.449 108.619 109.537 108.472L126.169 78.508C126.286 78.3027 126.462 78.2 126.697 78.2H128.853C129.029 78.2 129.146 78.2587 129.205 78.376C129.263 78.464 129.249 78.5813 129.161 78.728L112.529 108.692C112.441 108.897 112.265 109 112.001 109H109.845ZM111.121 88.232C112.206 88.232 113.115 87.8507 113.849 87.088C114.582 86.3253 114.949 85.3867 114.949 84.272C114.949 83.1867 114.567 82.2773 113.805 81.544C113.071 80.7813 112.177 80.4 111.121 80.4C110.035 80.4 109.111 80.7813 108.349 81.544C107.586 82.2773 107.205 83.1867 107.205 84.272C107.205 85.3867 107.586 86.3253 108.349 87.088C109.111 87.8507 110.035 88.232 111.121 88.232ZM127.885 109.396C126.682 109.396 125.567 109.103 124.541 108.516C123.543 107.929 122.751 107.137 122.165 106.14C121.578 105.143 121.285 104.057 121.285 102.884C121.285 101.711 121.578 100.625 122.165 99.628C122.751 98.6307 123.543 97.8387 124.541 97.252C125.567 96.6653 126.682 96.372 127.885 96.372C129.058 96.372 130.143 96.6653 131.141 97.252C132.138 97.8387 132.93 98.6307 133.517 99.628C134.103 100.625 134.397 101.711 134.397 102.884C134.397 104.057 134.103 105.143 133.517 106.14C132.93 107.137 132.138 107.929 131.141 108.516C130.143 109.103 129.058 109.396 127.885 109.396ZM127.885 106.8C128.97 106.8 129.879 106.419 130.613 105.656C131.346 104.893 131.713 103.969 131.713 102.884C131.713 101.799 131.331 100.875 130.569 100.112C129.835 99.3493 128.941 98.968 127.885 98.968C126.799 98.968 125.875 99.3493 125.113 100.112C124.35 100.875 123.969 101.799 123.969 102.884C123.969 103.969 124.35 104.893 125.113 105.656C125.875 106.419 126.799 106.8 127.885 106.8Z" fill="white"/>
</svg>
