<svg width="188" height="189" viewBox="0 0 188 189" fill="none" xmlns="http://www.w3.org/2000/svg">
<circle cx="94" cy="95" r="90" stroke="#997F8A" stroke-width="2"/>
<mask id="path-2-outside-1_31:1038" maskUnits="userSpaceOnUse" x="93" y="0" width="91" height="69" fill="black">
<rect fill="white" x="93" width="91" height="69"/>
<path d="M94 4.995C94 2.78862 95.7896 0.991138 97.994 1.08486C116.435 1.86889 134.271 8.06843 149.252 18.9524C164.232 29.8364 175.64 44.8836 182.084 62.1801C182.855 64.2476 181.698 66.5051 179.6 67.1869C177.501 67.8687 175.256 66.7162 174.478 64.6517C168.561 48.959 158.171 35.3085 144.555 25.4164C130.94 15.5244 114.747 9.8613 97.9939 9.08274C95.7899 8.98032 94 7.20138 94 4.995Z"/>
</mask>
<path d="M94 4.995C94 2.78862 95.7896 0.991138 97.994 1.08486C116.435 1.86889 134.271 8.06843 149.252 18.9524C164.232 29.8364 175.64 44.8836 182.084 62.1801C182.855 64.2476 181.698 66.5051 179.6 67.1869C177.501 67.8687 175.256 66.7162 174.478 64.6517C168.561 48.959 158.171 35.3085 144.555 25.4164C130.94 15.5244 114.747 9.8613 97.9939 9.08274C95.7899 8.98032 94 7.20138 94 4.995Z" fill="#E3FF39"/>
<path d="M94 4.995C94 2.78862 95.7896 0.991138 97.994 1.08486C116.435 1.86889 134.271 8.06843 149.252 18.9524C164.232 29.8364 175.64 44.8836 182.084 62.1801C182.855 64.2476 181.698 66.5051 179.6 67.1869C177.501 67.8687 175.256 66.7162 174.478 64.6517C168.561 48.959 158.171 35.3085 144.555 25.4164C130.94 15.5244 114.747 9.8613 97.9939 9.08274C95.7899 8.98032 94 7.20138 94 4.995Z" stroke="#3E404C" stroke-width="2" mask="url(#path-2-outside-1_31:1038)"/>
<path d="M59.0532 106.205C59.0239 106.264 59.0239 106.322 59.0532 106.381C59.0825 106.41 59.1265 106.425 59.1852 106.425H72.4292C72.7225 106.425 72.8692 106.572 72.8692 106.865V109.637C72.8692 109.93 72.7225 110.077 72.4292 110.077H53.9932C53.6999 110.077 53.5532 109.93 53.5532 109.637V106.953C53.5532 106.748 53.6265 106.572 53.7732 106.425C54.7705 105.281 57.0585 102.597 60.6372 98.3729L63.6732 94.7209C66.4012 91.4649 67.7652 88.9422 67.7652 87.1529C67.7652 85.7742 67.2959 84.6742 66.3572 83.8529C65.4479 83.0022 64.2305 82.5769 62.7052 82.5769C61.1799 82.5769 59.9625 83.0022 59.0532 83.8529C58.1439 84.7036 57.7039 85.8182 57.7332 87.1969V88.5169C57.7332 88.8102 57.5865 88.9569 57.2932 88.9569H53.9052C53.6119 88.9569 53.4652 88.8102 53.4652 88.5169V86.6249C53.5239 85.0996 53.9492 83.7502 54.7412 82.5769C55.5625 81.4036 56.6625 80.5089 58.0412 79.8929C59.4199 79.2476 60.9745 78.9249 62.7052 78.9249C64.5825 78.9249 66.2252 79.2769 67.6332 79.9809C69.0412 80.6849 70.1265 81.6529 70.8892 82.8849C71.6519 84.1169 72.0332 85.5102 72.0332 87.0649C72.0332 89.4996 70.7132 92.3742 68.0732 95.6889C66.8999 97.1849 65.5065 98.8716 63.8932 100.749C62.2799 102.597 60.6665 104.416 59.0532 106.205ZM87.9588 110.517C84.9961 110.517 82.6348 109.681 80.8748 108.009C79.1441 106.308 78.2788 104.034 78.2788 101.189V88.1649C78.2788 85.3196 79.1441 83.0609 80.8748 81.3889C82.6348 79.7169 84.9961 78.8809 87.9588 78.8809C90.9215 78.8809 93.2828 79.7169 95.0428 81.3889C96.8321 83.0609 97.7268 85.3196 97.7268 88.1649V101.189C97.7268 104.034 96.8321 106.308 95.0428 108.009C93.2828 109.681 90.9215 110.517 87.9588 110.517ZM87.9588 106.865C89.6601 106.865 91.0095 106.381 92.0068 105.413C93.0041 104.416 93.5028 103.096 93.5028 101.453V87.9889C93.5028 86.3462 93.0041 85.0409 92.0068 84.0729C91.0095 83.0756 89.6601 82.5769 87.9588 82.5769C86.3161 82.5769 84.9961 83.0756 83.9988 84.0729C83.0015 85.0409 82.5028 86.3462 82.5028 87.9889V101.453C82.5028 103.096 83.0015 104.416 83.9988 105.413C84.9961 106.381 86.3161 106.865 87.9588 106.865ZM111.121 91.9049C109.918 91.9049 108.803 91.6116 107.777 91.0249C106.779 90.4382 105.987 89.6462 105.401 88.6489C104.814 87.6516 104.521 86.5516 104.521 85.3489C104.521 84.1756 104.814 83.0902 105.401 82.0929C105.987 81.0956 106.779 80.3182 107.777 79.7609C108.803 79.1742 109.918 78.8809 111.121 78.8809C112.294 78.8809 113.379 79.1742 114.377 79.7609C115.374 80.3476 116.166 81.1396 116.753 82.1369C117.339 83.1049 117.633 84.1756 117.633 85.3489C117.633 86.5516 117.339 87.6516 116.753 88.6489C116.166 89.6462 115.374 90.4382 114.377 91.0249C113.379 91.6116 112.294 91.9049 111.121 91.9049ZM109.845 110.077C109.669 110.077 109.551 110.033 109.493 109.945C109.434 109.828 109.449 109.696 109.537 109.549L126.169 79.5849C126.286 79.3796 126.462 79.2769 126.697 79.2769H128.853C129.029 79.2769 129.146 79.3356 129.205 79.4529C129.263 79.5409 129.249 79.6582 129.161 79.8049L112.529 109.769C112.441 109.974 112.265 110.077 112.001 110.077H109.845ZM111.121 89.3089C112.206 89.3089 113.115 88.9276 113.849 88.1649C114.582 87.4022 114.949 86.4636 114.949 85.3489C114.949 84.2636 114.567 83.3542 113.805 82.6209C113.071 81.8582 112.177 81.4769 111.121 81.4769C110.035 81.4769 109.111 81.8582 108.349 82.6209C107.586 83.3542 107.205 84.2636 107.205 85.3489C107.205 86.4636 107.586 87.4022 108.349 88.1649C109.111 88.9276 110.035 89.3089 111.121 89.3089ZM127.885 110.473C126.682 110.473 125.567 110.18 124.541 109.593C123.543 109.006 122.751 108.214 122.165 107.217C121.578 106.22 121.285 105.134 121.285 103.961C121.285 102.788 121.578 101.702 122.165 100.705C122.751 99.7076 123.543 98.9156 124.541 98.3289C125.567 97.7422 126.682 97.4489 127.885 97.4489C129.058 97.4489 130.143 97.7422 131.141 98.3289C132.138 98.9156 132.93 99.7076 133.517 100.705C134.103 101.702 134.397 102.788 134.397 103.961C134.397 105.134 134.103 106.22 133.517 107.217C132.93 108.214 132.138 109.006 131.141 109.593C130.143 110.18 129.058 110.473 127.885 110.473ZM127.885 107.877C128.97 107.877 129.879 107.496 130.613 106.733C131.346 105.97 131.713 105.046 131.713 103.961C131.713 102.876 131.331 101.952 130.569 101.189C129.835 100.426 128.941 100.045 127.885 100.045C126.799 100.045 125.875 100.426 125.113 101.189C124.35 101.952 123.969 102.876 123.969 103.961C123.969 105.046 124.35 105.97 125.113 106.733C125.875 107.496 126.799 107.877 127.885 107.877Z" fill="white"/>
</svg>
