<svg width="188" height="188" viewBox="0 0 188 188" fill="none" xmlns="http://www.w3.org/2000/svg">
<circle cx="94" cy="94" r="90" stroke="#997F8A" stroke-width="2"/>
<path d="M94 4C143.706 4 184 44.2944 184 94C184 143.706 143.706 184 94 184" stroke="#E3FF39" stroke-width="8" stroke-linecap="round"/>
<path d="M71.7204 95.36C72.043 96.6507 72.2044 97.9853 72.2044 99.364C72.2044 100.743 72.0284 102.019 71.6764 103.192C71.119 105.069 70.0484 106.565 68.4644 107.68C66.9097 108.765 65.047 109.308 62.8764 109.308C60.735 109.308 58.9017 108.78 57.3764 107.724C55.851 106.668 54.7804 105.231 54.1644 103.412C53.871 102.591 53.7097 101.872 53.6804 101.256V101.168C53.6804 100.933 53.8124 100.816 54.0764 100.816H57.5524C57.8164 100.816 57.963 100.948 57.9924 101.212C58.0217 101.417 58.095 101.725 58.2124 102.136C58.535 103.221 59.0924 104.087 59.8844 104.732C60.7057 105.348 61.6884 105.656 62.8324 105.656C64.035 105.656 65.047 105.333 65.8684 104.688C66.719 104.013 67.291 103.089 67.5844 101.916C67.7897 101.3 67.8924 100.449 67.8924 99.364C67.8924 98.396 67.8044 97.5013 67.6284 96.68C67.423 95.5653 66.895 94.7147 66.0444 94.128C65.223 93.512 64.1964 93.204 62.9644 93.204C61.8204 93.204 60.7937 93.468 59.8844 93.996C58.975 94.4947 58.3884 95.1693 58.1244 96.02C58.0364 96.284 57.875 96.416 57.6404 96.416H54.1204C53.827 96.416 53.6804 96.2693 53.6804 95.976V78.64C53.6804 78.3467 53.827 78.2 54.1204 78.2H70.5764C70.8697 78.2 71.0164 78.3467 71.0164 78.64V81.412C71.0164 81.7053 70.8697 81.852 70.5764 81.852H58.0804C57.963 81.852 57.9044 81.9107 57.9044 82.028L57.8604 91.224C57.8604 91.4 57.9337 91.444 58.0804 91.356C58.7844 90.74 59.591 90.2853 60.5004 89.992C61.439 89.6693 62.4217 89.508 63.4484 89.508C65.5017 89.508 67.2617 90.0213 68.7284 91.048C70.2244 92.0747 71.2217 93.512 71.7204 95.36ZM87.0076 109.44C84.0449 109.44 81.6836 108.604 79.9236 106.932C78.1929 105.231 77.3276 102.957 77.3276 100.112V87.088C77.3276 84.2427 78.1929 81.984 79.9236 80.312C81.6836 78.64 84.0449 77.804 87.0076 77.804C89.9703 77.804 92.3316 78.64 94.0916 80.312C95.8809 81.984 96.7756 84.2427 96.7756 87.088V100.112C96.7756 102.957 95.8809 105.231 94.0916 106.932C92.3316 108.604 89.9703 109.44 87.0076 109.44ZM87.0076 105.788C88.7089 105.788 90.0583 105.304 91.0556 104.336C92.0529 103.339 92.5516 102.019 92.5516 100.376V86.912C92.5516 85.2693 92.0529 83.964 91.0556 82.996C90.0583 81.9987 88.7089 81.5 87.0076 81.5C85.3649 81.5 84.0449 81.9987 83.0476 82.996C82.0503 83.964 81.5516 85.2693 81.5516 86.912V100.376C81.5516 102.019 82.0503 103.339 83.0476 104.336C84.0449 105.304 85.3649 105.788 87.0076 105.788ZM110.169 90.828C108.967 90.828 107.852 90.5347 106.825 89.948C105.828 89.3613 105.036 88.5693 104.449 87.572C103.863 86.5747 103.569 85.4747 103.569 84.272C103.569 83.0987 103.863 82.0133 104.449 81.016C105.036 80.0187 105.828 79.2413 106.825 78.684C107.852 78.0973 108.967 77.804 110.169 77.804C111.343 77.804 112.428 78.0973 113.425 78.684C114.423 79.2707 115.215 80.0627 115.801 81.06C116.388 82.028 116.681 83.0987 116.681 84.272C116.681 85.4747 116.388 86.5747 115.801 87.572C115.215 88.5693 114.423 89.3613 113.425 89.948C112.428 90.5347 111.343 90.828 110.169 90.828ZM108.893 109C108.717 109 108.6 108.956 108.541 108.868C108.483 108.751 108.497 108.619 108.585 108.472L125.217 78.508C125.335 78.3027 125.511 78.2 125.745 78.2H127.901C128.077 78.2 128.195 78.2587 128.253 78.376C128.312 78.464 128.297 78.5813 128.209 78.728L111.577 108.692C111.489 108.897 111.313 109 111.049 109H108.893ZM110.169 88.232C111.255 88.232 112.164 87.8507 112.897 87.088C113.631 86.3253 113.997 85.3867 113.997 84.272C113.997 83.1867 113.616 82.2773 112.853 81.544C112.12 80.7813 111.225 80.4 110.169 80.4C109.084 80.4 108.16 80.7813 107.397 81.544C106.635 82.2773 106.253 83.1867 106.253 84.272C106.253 85.3867 106.635 86.3253 107.397 87.088C108.16 87.8507 109.084 88.232 110.169 88.232ZM126.933 109.396C125.731 109.396 124.616 109.103 123.589 108.516C122.592 107.929 121.8 107.137 121.213 106.14C120.627 105.143 120.333 104.057 120.333 102.884C120.333 101.711 120.627 100.625 121.213 99.628C121.8 98.6307 122.592 97.8387 123.589 97.252C124.616 96.6653 125.731 96.372 126.933 96.372C128.107 96.372 129.192 96.6653 130.189 97.252C131.187 97.8387 131.979 98.6307 132.565 99.628C133.152 100.625 133.445 101.711 133.445 102.884C133.445 104.057 133.152 105.143 132.565 106.14C131.979 107.137 131.187 107.929 130.189 108.516C129.192 109.103 128.107 109.396 126.933 109.396ZM126.933 106.8C128.019 106.8 128.928 106.419 129.661 105.656C130.395 104.893 130.761 103.969 130.761 102.884C130.761 101.799 130.38 100.875 129.617 100.112C128.884 99.3493 127.989 98.968 126.933 98.968C125.848 98.968 124.924 99.3493 124.161 100.112C123.399 100.875 123.017 101.799 123.017 102.884C123.017 103.969 123.399 104.893 124.161 105.656C124.924 106.419 125.848 106.8 126.933 106.8Z" fill="white"/>
<path d="M75.724 59.144C74.836 59.144 74.05 58.97 73.366 58.622C72.682 58.274 72.148 57.782 71.764 57.146C71.392 56.498 71.206 55.754 71.206 54.914V46.616C71.206 46.556 71.224 46.508 71.26 46.472C71.308 46.424 71.362 46.4 71.422 46.4H73.078C73.138 46.4 73.186 46.424 73.222 46.472C73.27 46.508 73.294 46.556 73.294 46.616V54.95C73.294 55.658 73.516 56.234 73.96 56.678C74.404 57.122 74.992 57.344 75.724 57.344C76.456 57.344 77.044 57.122 77.488 56.678C77.932 56.234 78.154 55.658 78.154 54.95V46.616C78.154 46.556 78.172 46.508 78.208 46.472C78.256 46.424 78.31 46.4 78.37 46.4H80.026C80.086 46.4 80.134 46.424 80.17 46.472C80.218 46.508 80.242 46.556 80.242 46.616V54.914C80.242 55.754 80.056 56.498 79.684 57.146C79.312 57.782 78.784 58.274 78.1 58.622C77.416 58.97 76.624 59.144 75.724 59.144ZM87.9954 46.382C88.7514 46.382 89.4174 46.538 89.9934 46.85C90.5694 47.162 91.0134 47.606 91.3254 48.182C91.6494 48.746 91.8114 49.4 91.8114 50.144C91.8114 50.876 91.6494 51.524 91.3254 52.088C91.0014 52.652 90.5394 53.09 89.9394 53.402C89.3514 53.702 88.6674 53.852 87.8874 53.852H85.0074C84.9474 53.852 84.9174 53.882 84.9174 53.942V58.784C84.9174 58.844 84.8934 58.898 84.8454 58.946C84.8094 58.982 84.7614 59 84.7014 59H83.0454C82.9854 59 82.9314 58.982 82.8834 58.946C82.8474 58.898 82.8294 58.844 82.8294 58.784V46.598C82.8294 46.538 82.8474 46.49 82.8834 46.454C82.9314 46.406 82.9854 46.382 83.0454 46.382H87.9954ZM87.6894 52.16C88.3014 52.16 88.7934 51.98 89.1654 51.62C89.5374 51.26 89.7234 50.786 89.7234 50.198C89.7234 49.598 89.5374 49.112 89.1654 48.74C88.7934 48.368 88.3014 48.182 87.6894 48.182H85.0074C84.9474 48.182 84.9174 48.212 84.9174 48.272V52.07C84.9174 52.13 84.9474 52.16 85.0074 52.16H87.6894ZM105.886 46.4C105.946 46.4 105.994 46.424 106.03 46.472C106.078 46.508 106.102 46.556 106.102 46.616V48.002C106.102 48.062 106.078 48.116 106.03 48.164C105.994 48.2 105.946 48.218 105.886 48.218H102.574C102.514 48.218 102.484 48.248 102.484 48.308V58.784C102.484 58.844 102.46 58.898 102.412 58.946C102.376 58.982 102.328 59 102.268 59H100.612C100.552 59 100.498 58.982 100.45 58.946C100.414 58.898 100.396 58.844 100.396 58.784V48.308C100.396 48.248 100.366 48.218 100.306 48.218H97.12C97.06 48.218 97.006 48.2 96.958 48.164C96.922 48.116 96.904 48.062 96.904 48.002V46.616C96.904 46.556 96.922 46.508 96.958 46.472C97.006 46.424 97.06 46.4 97.12 46.4H105.886ZM111.843 59.18C110.943 59.18 110.145 59 109.449 58.64C108.753 58.268 108.213 57.746 107.829 57.074C107.457 56.402 107.271 55.628 107.271 54.752V50.648C107.271 49.784 107.463 49.022 107.847 48.362C108.231 47.69 108.765 47.174 109.449 46.814C110.145 46.442 110.943 46.256 111.843 46.256C112.755 46.256 113.553 46.442 114.237 46.814C114.933 47.174 115.473 47.69 115.857 48.362C116.241 49.022 116.433 49.784 116.433 50.648V54.752C116.433 55.628 116.241 56.402 115.857 57.074C115.473 57.746 114.933 58.268 114.237 58.64C113.553 59 112.755 59.18 111.843 59.18ZM111.843 57.38C112.599 57.38 113.205 57.146 113.661 56.678C114.117 56.21 114.345 55.592 114.345 54.824V50.63C114.345 49.85 114.117 49.226 113.661 48.758C113.205 48.29 112.599 48.056 111.843 48.056C111.099 48.056 110.499 48.29 110.043 48.758C109.587 49.226 109.359 49.85 109.359 50.63V54.824C109.359 55.592 109.587 56.21 110.043 56.678C110.499 57.146 111.099 57.38 111.843 57.38Z" fill="white"/>
</svg>
