<svg width="122" height="181" viewBox="0 0 122 181" fill="none" xmlns="http://www.w3.org/2000/svg">
<path d="M26.697 36.216C26.6683 36.2733 26.6683 36.3307 26.697 36.388C26.7257 36.4167 26.7687 36.431 26.826 36.431H39.769C40.0557 36.431 40.199 36.5743 40.199 36.861V39.57C40.199 39.8567 40.0557 40 39.769 40H21.752C21.4653 40 21.322 39.8567 21.322 39.57V36.947C21.322 36.7463 21.3937 36.5743 21.537 36.431C22.5117 35.313 24.7477 32.69 28.245 28.562L31.212 24.993C33.878 21.811 35.211 19.3457 35.211 17.597C35.211 16.2497 34.7523 15.1747 33.835 14.372C32.9463 13.5407 31.7567 13.125 30.266 13.125C28.7753 13.125 27.5857 13.5407 26.697 14.372C25.8083 15.2033 25.3783 16.2927 25.407 17.64V18.93C25.407 19.2167 25.2637 19.36 24.977 19.36H21.666C21.3793 19.36 21.236 19.2167 21.236 18.93V17.081C21.2933 15.5903 21.709 14.2717 22.483 13.125C23.2857 11.9783 24.3607 11.104 25.708 10.502C27.0553 9.87133 28.5747 9.556 30.266 9.556C32.1007 9.556 33.706 9.9 35.082 10.588C36.458 11.276 37.5187 12.222 38.264 13.426C39.0093 14.63 39.382 15.9917 39.382 17.511C39.382 19.8903 38.092 22.6997 35.512 25.939C34.3653 27.401 33.0037 29.0493 31.427 30.884C29.8503 32.69 28.2737 34.4673 26.697 36.216ZM54.0856 40.43C51.1903 40.43 48.8826 39.613 47.1626 37.979C45.4713 36.3163 44.6256 34.0947 44.6256 31.314V18.586C44.6256 15.8053 45.4713 13.598 47.1626 11.964C48.8826 10.33 51.1903 9.513 54.0856 9.513C56.981 9.513 59.2886 10.33 61.0086 11.964C62.7573 13.598 63.6316 15.8053 63.6316 18.586V31.314C63.6316 34.0947 62.7573 36.3163 61.0086 37.979C59.2886 39.613 56.981 40.43 54.0856 40.43ZM54.0856 36.861C55.7483 36.861 57.067 36.388 58.0416 35.442C59.0163 34.4673 59.5036 33.1773 59.5036 31.572V18.414C59.5036 16.8087 59.0163 15.533 58.0416 14.587C57.067 13.6123 55.7483 13.125 54.0856 13.125C52.4803 13.125 51.1903 13.6123 50.2156 14.587C49.241 15.533 48.7536 16.8087 48.7536 18.414V31.572C48.7536 33.1773 49.241 34.4673 50.2156 35.442C51.1903 36.388 52.4803 36.861 54.0856 36.861ZM72.2293 10.029C72.4013 9.943 72.5876 9.9 72.7883 9.9H76.1853C76.472 9.9 76.6153 10.0433 76.6153 10.33V39.57C76.6153 39.8567 76.472 40 76.1853 40H72.9173C72.6306 40 72.4873 39.8567 72.4873 39.57V14.329C72.4873 14.2717 72.4586 14.2287 72.4013 14.2C72.3726 14.1713 72.3296 14.1713 72.2723 14.2L67.7573 15.748C67.7 15.7767 67.6283 15.791 67.5423 15.791C67.3703 15.791 67.27 15.6763 67.2413 15.447L67.0693 12.996C67.0693 12.7093 67.1553 12.5373 67.3273 12.48L72.2293 10.029ZM98.9995 25.165C99.8022 26.6843 100.203 28.5047 100.203 30.626C100.203 32.3747 99.9168 33.9083 99.3435 35.227C98.6842 36.861 97.6522 38.1223 96.2475 39.011C94.8715 39.871 93.1945 40.301 91.2165 40.301C89.0952 40.301 87.2892 39.8137 85.7985 38.839C84.3365 37.8643 83.3045 36.4883 82.7025 34.711C82.2725 33.507 82.0575 32.1167 82.0575 30.54V17.296C82.0575 14.9453 82.8745 13.0677 84.5085 11.663C86.1425 10.2583 88.2782 9.556 90.9155 9.556C92.6068 9.556 94.0975 9.87133 95.3875 10.502C96.7062 11.1327 97.7238 12.0213 98.4405 13.168C99.1572 14.286 99.5155 15.576 99.5155 17.038V17.898C99.5155 18.1847 99.3722 18.328 99.0855 18.328H95.8175C95.5308 18.328 95.3875 18.1847 95.3875 17.898V17.511C95.3875 16.221 94.9718 15.1747 94.1405 14.372C93.3092 13.5693 92.2342 13.168 90.9155 13.168C89.5108 13.168 88.3642 13.5837 87.4755 14.415C86.6155 15.2463 86.1855 16.35 86.1855 17.726V23.144C86.1855 23.2013 86.1998 23.2443 86.2285 23.273C86.2858 23.273 86.3432 23.2443 86.4005 23.187C87.6332 21.811 89.4248 21.123 91.7755 21.123C95.1582 21.123 97.5662 22.4703 98.9995 25.165ZM95.4305 33.937C95.8605 33.0197 96.0755 31.916 96.0755 30.626C96.0755 29.164 95.8175 27.9887 95.3015 27.1C94.4702 25.4373 93.0655 24.606 91.0875 24.606C90.0842 24.606 89.2242 24.8353 88.5075 25.294C87.7908 25.724 87.2462 26.3547 86.8735 27.186C86.4148 28.132 86.1855 29.3503 86.1855 30.841C86.1855 32.045 86.3718 33.0627 86.7445 33.894C87.1172 34.8113 87.6762 35.5137 88.4215 36.001C89.1668 36.4597 90.0698 36.689 91.1305 36.689C93.2232 36.689 94.6565 35.7717 95.4305 33.937Z" fill="white"/>
<rect x="1.5" y="113.5" width="119" height="66" fill="url(#paint0_radial_91:7814)" fill-opacity="0.1"/>
<rect x="1.5" y="113.5" width="119" height="66" fill="black" fill-opacity="0.3"/>
<rect x="1.5" y="113.5" width="119" height="66" stroke="#E3FF39" stroke-width="3"/>
<path d="M36.242 133.33C36.242 133.043 36.3853 132.9 36.672 132.9H39.94C40.2267 132.9 40.37 133.043 40.37 133.33V162.57C40.37 162.857 40.2267 163 39.94 163H36.801C36.6003 163 36.4283 162.9 36.285 162.699L22.826 140.726C22.7973 140.64 22.7543 140.611 22.697 140.64C22.6397 140.64 22.611 140.683 22.611 140.769L22.654 162.57C22.654 162.857 22.5107 163 22.224 163H18.956C18.6693 163 18.526 162.857 18.526 162.57V133.33C18.526 133.043 18.6693 132.9 18.956 132.9H22.138C22.3387 132.9 22.5107 133 22.654 133.201L36.07 155.174C36.0987 155.26 36.1417 155.303 36.199 155.303C36.2563 155.274 36.285 155.217 36.285 155.131L36.242 133.33ZM56.4026 163.387C54.31 163.387 52.461 162.957 50.8556 162.097C49.2503 161.237 48.0033 160.033 47.1146 158.485C46.226 156.908 45.7816 155.102 45.7816 153.067V142.833C45.7816 140.798 46.226 139.006 47.1146 137.458C48.0033 135.91 49.2503 134.706 50.8556 133.846C52.461 132.986 54.31 132.556 56.4026 132.556C58.524 132.556 60.3873 132.986 61.9926 133.846C63.598 134.706 64.845 135.91 65.7336 137.458C66.6223 139.006 67.0666 140.798 67.0666 142.833V153.067C67.0666 155.102 66.6223 156.908 65.7336 158.485C64.845 160.033 63.598 161.237 61.9926 162.097C60.3873 162.957 58.524 163.387 56.4026 163.387ZM56.4026 159.818C58.352 159.818 59.9286 159.216 61.1326 158.012C62.3366 156.808 62.9386 155.217 62.9386 153.239V142.79C62.9386 140.783 62.3366 139.178 61.1326 137.974C59.9286 136.741 58.352 136.125 56.4026 136.125C54.4533 136.125 52.8766 136.741 51.6726 137.974C50.4973 139.178 49.9096 140.783 49.9096 142.79V153.239C49.9096 155.217 50.4973 156.808 51.6726 158.012C52.8766 159.216 54.4533 159.818 56.4026 159.818ZM78.2587 163C78.0007 163 77.843 162.885 77.7857 162.656L69.7017 133.373L69.6587 133.244C69.6587 133.015 69.802 132.9 70.0887 132.9H73.5717C73.8297 132.9 73.9874 133.029 74.0447 133.287L79.6777 154.701C79.7064 154.758 79.735 154.787 79.7637 154.787C79.821 154.787 79.864 154.758 79.8927 154.701L85.2247 133.287C85.282 133.029 85.4397 132.9 85.6977 132.9H89.0947C89.3527 132.9 89.5104 133.029 89.5677 133.287L95.2007 154.744C95.2294 154.801 95.258 154.83 95.2867 154.83C95.3154 154.83 95.344 154.801 95.3727 154.744L101.049 133.287C101.106 133.029 101.264 132.9 101.522 132.9H104.79C104.933 132.9 105.033 132.943 105.091 133.029C105.177 133.115 105.205 133.23 105.177 133.373L97.3937 162.613C97.3364 162.871 97.1787 163 96.9207 163H93.6097C93.3517 163 93.194 162.871 93.1367 162.613L87.5037 140.425C87.475 140.339 87.4464 140.296 87.4177 140.296C87.389 140.296 87.3604 140.339 87.3317 140.425L81.8707 162.613C81.842 162.871 81.6844 163 81.3977 163H78.2587Z" fill="#E3FF39"/>
<defs>
<radialGradient id="paint0_radial_91:7814" cx="0" cy="0" r="1" gradientUnits="userSpaceOnUse" gradientTransform="translate(20.8175 132.087) rotate(27.4363) scale(106.157 130.594)">
<stop stop-color="white"/>
<stop offset="0.815328" stop-color="#111111"/>
</radialGradient>
</defs>
</svg>
