<svg width="188" height="188" viewBox="0 0 188 188" fill="none" xmlns="http://www.w3.org/2000/svg">
<path d="M188 94C188 145.915 145.915 188 94 188C42.0852 188 0 145.915 0 94C0 42.0852 42.0852 0 94 0C145.915 0 188 42.0852 188 94ZM3.86837 94C3.86837 143.778 44.2217 184.132 94 184.132C143.778 184.132 184.132 143.778 184.132 94C184.132 44.2217 143.778 3.86837 94 3.86837C44.2217 3.86837 3.86837 44.2217 3.86837 94Z" fill="#997F8A"/>
<mask id="path-2-inside-1_212_10702" fill="white">
<path d="M94 5.50629C94 2.46525 96.4674 -0.0168093 99.5032 0.161226C109.966 0.774802 120.266 3.1347 129.972 7.15533C141.377 11.8793 151.739 18.8033 160.468 27.532C169.197 36.2607 176.121 46.6232 180.845 58.0278C185.569 69.4324 188 81.6558 188 94C188 106.344 185.569 118.568 180.845 129.972C176.121 141.377 169.197 151.739 160.468 160.468C151.739 169.197 141.377 176.121 129.972 180.845C120.266 184.865 109.966 187.225 99.5031 187.839C96.4673 188.017 93.9999 185.535 93.9999 182.494V182.494C93.9999 179.453 96.4679 177.006 99.5023 176.805C108.518 176.206 117.388 174.137 125.758 170.67C135.826 166.5 144.975 160.387 152.681 152.681C160.387 144.975 166.5 135.826 170.67 125.758C174.841 115.689 176.987 104.898 176.987 94C176.987 83.102 174.841 72.3106 170.67 62.2421C166.5 52.1736 160.387 43.0251 152.681 35.319C144.975 27.6129 135.826 21.5001 125.758 17.3296C117.388 13.8625 108.518 11.7943 99.5023 11.1952C96.468 10.9936 94 8.54733 94 5.50629V5.50629Z"/>
</mask>
<path d="M94 5.50629C94 2.46525 96.4674 -0.0168093 99.5032 0.161226C109.966 0.774802 120.266 3.1347 129.972 7.15533C141.377 11.8793 151.739 18.8033 160.468 27.532C169.197 36.2607 176.121 46.6232 180.845 58.0278C185.569 69.4324 188 81.6558 188 94C188 106.344 185.569 118.568 180.845 129.972C176.121 141.377 169.197 151.739 160.468 160.468C151.739 169.197 141.377 176.121 129.972 180.845C120.266 184.865 109.966 187.225 99.5031 187.839C96.4673 188.017 93.9999 185.535 93.9999 182.494V182.494C93.9999 179.453 96.4679 177.006 99.5023 176.805C108.518 176.206 117.388 174.137 125.758 170.67C135.826 166.5 144.975 160.387 152.681 152.681C160.387 144.975 166.5 135.826 170.67 125.758C174.841 115.689 176.987 104.898 176.987 94C176.987 83.102 174.841 72.3106 170.67 62.2421C166.5 52.1736 160.387 43.0251 152.681 35.319C144.975 27.6129 135.826 21.5001 125.758 17.3296C117.388 13.8625 108.518 11.7943 99.5023 11.1952C96.468 10.9936 94 8.54733 94 5.50629V5.50629Z" stroke="#E3FF39" stroke-width="40" mask="url(#path-2-inside-1_212_10702)"/>
</svg>
